<svg id="레이어_1" data-name="레이어 1" xmlns="http://www.w3.org/2000/svg" viewBox="0 0 43 43"><defs><style>.cls-1{fill:#e10e00;}.cls-2{fill:#1e8206;}.cls-3,.cls-4{fill:#fff;}.cls-4{fill-rule:evenodd;}</style></defs><title>벨라루스</title><path class="cls-1" d="M41.68,11A16.82,16.82,0,0,0,38.47,5.4a15.21,15.21,0,0,0-6.23-4C29.79.51,27.14.11,22,0H21c-5.16.11-7.81.51-10.26,1.36l-.31.11V28.92h32A32.51,32.51,0,0,0,43,24c0-1.07,0-1.22,0-2.48s0-1.41,0-2.48A28.13,28.13,0,0,0,41.68,11Z"/><path class="cls-2" d="M10.45,41.53l.31.11c2.45.85,5.1,1.25,10.26,1.36h1c5.16-.11,7.81-.51,10.26-1.36a15.21,15.21,0,0,0,6.23-4A16.82,16.82,0,0,0,41.68,32a24.87,24.87,0,0,0,.78-3h-32Z"/><path class="cls-3" d="M10.45,1.47c-.18.07-.36.13-.53.21V41.32c.17.08.35.14.53.21V1.47Z"/><path class="cls-4" d="M.32,15.48c0,.23-.07.46-.09.69H.32Z"/><path class="cls-4" d="M7.45,3.29V3L7,3.27v0Z"/><rect class="cls-3" x="2.75" y="21.12" width="0.48" height="0.77"/><rect class="cls-3" x="4.44" y="24.7" width="0.48" height="0.76"/><rect class="cls-3" x="6.15" y="21.12" width="0.48" height="0.77"/><rect class="cls-3" x="4.44" y="17.51" width="0.48" height="0.76"/><polygon class="cls-4" points="4.5 22.56 4.89 22.56 4.89 23.26 5.28 23.26 5.28 24 5.78 24 5.78 22.55 5.38 22.55 5.38 21.8 4.88 21.8 4.88 21.16 5.38 21.16 5.38 20.41 5.78 20.41 5.78 18.96 5.28 18.96 5.28 19.7 4.89 19.7 4.89 20.4 4.5 20.4 4.5 19.71 4.09 19.71 4.09 18.98 3.64 18.97 3.64 20.43 4.07 20.43 4.07 21.16 4.53 21.16 4.53 21.8 4.07 21.8 4.07 22.54 3.64 22.54 3.64 23.99 4.09 23.98 4.09 23.25 4.5 23.25 4.5 22.56"/><path class="cls-4" d="M.23,26.83c0,.23.06.46.09.69v-.69Z"/><path class="cls-4" d="M9.92,1.68l-.37.16V4.66H9.08v.79h.47V7.59h0v.72h0v2.11H9.09v.75h.45v1.42h-.4v-.73H8.71v-.7H8.27v-.74H7.89V9.74h-.4V9H7v.74H6.6v.68H6.18v.78H5.72v.69H5.31v.69h-.4v.75H4.49v-.75H4.08v-.69h-.4v-.74H3.22v-.67H2.83V9.7H2.38V9H2.17L2,9.42v.27H1.84c-.19.44-.37.89-.52,1.34a25.48,25.48,0,0,0-.89,3.68H.71v.72H1.1v.72h.45v-.73H2v-.7H2.4V14H1.54v-.71H2.81V14h.42v.72h.44v.71H3.2v.71H2.79v.72H2.4v.72H2v.7H1.52V19H1.09V18.3H.7v-.77H.24v-.66H.16Q.07,18,0,19H.28v.74H.7v.67h.43v.68h.4v.69H1.12v.77H.64v.74H.26V24H0c0,.68.06,1.38.12,2.12H.24v-.67H.7V24.7h.39V24h.43v.73H2v.7H2.4v.72h.39v.72H3.2v.71h.47v.71H3.23V29H2.81v.74H1.54v-.71H2.4v-.78H2v-.69H1.55v-.73H1.1v.72H.71v.72H.43A25.48,25.48,0,0,0,1.32,32c.15.45.33.89.52,1.34H2v.27l.21.43h.21v-.72h.45v-.75h.39v-.68h.46v-.74h.4v-.68h.41v-.75h.42v.75h.4v.68h.41v.69h.46v.79H6.6v.68H7V34h.52v-.76h.4v-.68h.38v-.75h.44v-.69h.43v-.73h.4v1.41H9.09v.76h.46v2.11h0v.72h0v2.14H9.08v.79h.47v2.82l.37.16Zm-4.16,13H6.2V14h.42v-.74H7.89V14H7v.77h.41v.7h.43v.73h.46v-.72h.39v-.72h.45V14h.39v1.48H9.11v.74h.45v.7H9.19v.66H8.72v.77H8.33V19H7.91v-.73H7.46v-.7H7v-.72h-.4v-.72H6.22v-.71H5.76Zm3,8.59v-.74H8.3v-.77H7.89v-.69h.4v-.68h.43v-.67h.42V19h.41v5H9.16v-.72ZM3.65,25.41V24.7H3.27V24H2.79v-.74h-.4V19.7h.45V19h.4v-.68h.42v-.76h.46v-.71h.41v-.68h.33v.68h.41v.71h.47v.76h.42V19h.39v.71H7v3.56H6.6V24H6.12v.7H5.74v.71H5.3v.72H4.91v.68H4.48v-.68H4.1v-.72Zm5.52,3.64v-.76H8.72v-.72H8.33v-.72H7.87v.73H7.44v.69H7v.78h.86v.71H6.62V29H6.2V28.3H5.76v-.71h.46v-.71h.41v-.72H7v-.72h.43v-.7h.45V24h.42v.69h.39v.76h.47v.67h.37v.7H9.11v.74h.45v1.48Z"/><path class="cls-4" d="M9.08,6.85H8.66V6.13H8.25v.72h-.4v.74H7.43v.72h.42V9h.4v.73h.41V9h.42V8.31h.47V7.59H9.08Zm-.4,1.44H8.23V7.58h.45Z"/><path class="cls-4" d="M2.82,9h.41v.73h.4V9h.42V8.31h.47V7.59H4.05V6.85H3.63V6.53A18,18,0,0,0,2.52,8.31h.3Zm.38-1.4h.45v.71H3.2Z"/><path class="cls-4" d="M5.34,9h.4v.73h.4V9h.42V8.31H7V7.59H6.56V6.85H6.14V6.13h-.4v.72h-.4v.74H4.92v.72h.42Zm.38-1.4h.45v.71H5.72Z"/><path class="cls-4" d="M6.17,4.71v.7h.45v.75H7V6.9h.38V6.17h.49V5.43h.41V4.76h.41V4h.4V3.3h.4V2.6H9.09V2.05c-.35.17-.7.35-1,.55h.22v.68H7.82V4H7.47v.76H7.06V4H6.59V3.55c-.28.21-.55.42-.81.65v.51Z"/><rect class="cls-3" x="4.45" y="9.72" width="0.49" height="1.42"/><path class="cls-4" d="M9.53,40.4v-.7h-.4V39h-.4v-.75H8.32v-.67H7.91v-.74H7.42V36.1H7v.74H6.62v.75H6.17v.7H5.78v.51c.26.23.53.44.81.65V39h.47v-.68h.41v.76h.35v.67h.45v.68H8.05c.34.2.68.38,1,.55V40.4Z"/><rect class="cls-3" x="4.45" y="31.85" width="0.49" height="1.42"/><path class="cls-4" d="M6.56,34H6.14v-.73h-.4V34h-.4v.67H4.92v.72h.42v.74h.4v.72h.4v-.72h.42v-.74H7v-.72H6.56Zm-.39,1.41H5.72v-.72h.45Z"/><path class="cls-4" d="M7,39.71v0l.46.31v-.33Z"/><path class="cls-4" d="M9.08,34H8.66v-.73H8.25V34h-.4v.67H7.43v.72h.42v.74h.4v.72h.41v-.72h.42v-.74h.47v-.72H9.08Zm-.4,1.41H8.23v-.72h.45Z"/><path class="cls-4" d="M4.05,36.15v-.74h.47v-.72H4.05V34H3.63v-.73h-.4V34H2.82v.67h-.3a18,18,0,0,0,1.11,1.78v-.32ZM3.2,34.71h.45v.72H3.2Z"/><path class="cls-1" d="M7.06,4v.68h.41V4h.35V3.28h.45V2.6H8.05c-.2.11-.4.24-.6.36v.33H7v0l-.4.28V4Z"/><path class="cls-1" d="M.26,23.29H.64v-.74h.48v-.77h.41v-.69h-.4v-.68H.7v-.67H.28V19H0v0c0,1.07,0,1.22,0,2.48S0,22.91,0,24v0H.26Z"/><polygon class="cls-1" points="9.55 35.41 9.55 35.41 9.55 34.69 9.55 34.69 9.55 34.74 9.55 35.41"/><path class="cls-1" d="M8.27,39.72H7.82v-.67H7.47v-.76H7.06V39H6.59v.48l.4.28v0h.46V40l.6.36h.22Z"/><polygon class="cls-1" points="9.55 24.01 9.55 19 9.14 19 9.14 19.73 8.72 19.73 8.72 20.41 8.29 20.41 8.29 21.09 7.89 21.09 7.89 21.78 8.3 21.78 8.3 22.55 8.78 22.55 8.78 23.29 9.16 23.29 9.16 24.01 9.55 24.01"/><polygon class="cls-1" points="9.55 8.31 9.55 8.31 9.55 7.58 9.55 7.58 9.55 8.26 9.55 8.31"/><rect class="cls-1" x="8.23" y="7.58" width="0.45" height="0.71"/><path class="cls-1" d="M2,9.42l-.12.27H2Z"/><path class="cls-1" d="M2.38,9.7h.45v.76h.39v.67h.46v.74h.4v.69h.41v.75h.42v-.75h.4v-.69h.41v-.69h.46V10.4H6.6V9.72H7V9h.52v.76h.4v.68h.38v.74h.44v.7h.43v.73h.4V11.17H9.09v-.75h.46V8.31H9.08V9H8.66v.73H8.25V9h-.4V8.31H7.43V7.59h.42V6.85h.4V6.13h.41v.72h.42v.74h.47V5.45H9.08V4.66h.47V1.84l-.46.21V2.6h.44v.7h-.4V4h-.4v.75H8.32v.67H7.91v.74H7.42V6.9H7V6.16H6.62V5.41H6.17v-.7H5.78V4.2A13,13,0,0,0,4.53,5.4a10.89,10.89,0,0,0-.9,1.13v.32h.42v.74h.47v.72H4.05V9H3.63v.73h-.4V9H2.82V8.31h-.3c-.12.22-.24.44-.35.67h.21ZM4.92,7.59h.42V6.85h.4V6.13h.4v.72h.42v.74H7v.72H6.56V9H6.14v.73h-.4V9h-.4V8.31H4.92ZM4.45,9.72h.49v1.42H4.45Z"/><rect class="cls-1" x="5.72" y="7.58" width="0.45" height="0.71"/><rect class="cls-1" x="3.2" y="7.58" width="0.45" height="0.71"/><rect class="cls-1" x="5.72" y="34.71" width="0.45" height="0.72"/><path class="cls-1" d="M9.08,38.34v-.79h.47V35.41H9.08v.74H8.66v.72H8.25v-.72h-.4v-.74H7.43v-.72h.42V34h.4v-.73h.41V34h.42v.67h.47V32.58H9.09v-.76h.45V30.41h-.4v.73H8.71v.69H8.27v.75H7.89v.68h-.4V34H7v-.74H6.6V32.6H6.18v-.79H5.72v-.69H5.31v-.68h-.4v-.75H4.49v.75H4.08v.68h-.4v.74H3.22v.68H2.83v.75H2.38V34H2.17c.11.23.23.46.35.68h.3V34h.41v-.73h.4V34h.42v.67h.47v.72H4.05v.74H3.63v.32a10.89,10.89,0,0,0,.9,1.13,13,13,0,0,0,1.25,1.2v-.51h.39v-.7h.45v-.75H7V36.1h.38v.73h.49v.74h.41v.67h.41V39h.4v.71h.4v.7H9.09V41l.46.21V38.34ZM4.45,33.28V31.85h.49v1.43ZM7,35.41H6.56v.74H6.14v.72h-.4v-.72h-.4v-.74H4.92v-.72h.42V34h.4v-.73h.4V34h.42v.67H7Z"/><path class="cls-1" d="M1.84,33.31l.12.27v-.27Z"/><rect class="cls-1" x="8.23" y="34.71" width="0.45" height="0.72"/><rect class="cls-1" x="3.2" y="34.71" width="0.45" height="0.72"/><path class="cls-1" d="M.24,17.53H.7v.77h.39V19h.43v-.73H2v-.7H2.4v-.72h.39v-.72H3.2v-.71h.47V14.7H3.23V14H2.81v-.74H1.54V14H2.4v.77H2v.7H1.55v.73H1.1v-.72H.71v-.72H.43c0,.26-.08.51-.11.77v.69H.23c0,.24-.05.47-.07.7H.24Z"/><polygon class="cls-1" points="6.22 16.12 6.63 16.12 6.63 16.84 7.03 16.84 7.03 17.56 7.46 17.56 7.46 18.26 7.91 18.26 7.91 18.99 8.33 18.99 8.33 18.3 8.72 18.3 8.72 17.53 9.19 17.53 9.19 16.87 9.56 16.87 9.56 16.17 9.11 16.17 9.11 15.43 9.56 15.43 9.56 13.95 9.17 13.95 9.17 14.71 8.72 14.71 8.72 15.43 8.32 15.43 8.32 16.15 7.87 16.15 7.87 15.42 7.43 15.42 7.43 14.72 7.03 14.72 7.03 13.95 7.89 13.95 7.89 13.24 6.62 13.24 6.62 13.98 6.2 13.98 6.2 14.7 5.76 14.7 5.76 15.41 6.22 15.41 6.22 16.12"/><path class="cls-1" d="M.71,27.57H1.1v-.72h.45v.73H2v.69H2.4v.78H1.54v.71H2.81V29h.42V28.3h.44v-.71H3.2v-.71H2.79v-.72H2.4v-.72H2v-.7H1.52V24H1.09v.69H.7v.76H.24v.67H.16c0,.23,0,.46.07.7H.32v.69c0,.26.07.51.11.77H.71Z"/><polygon class="cls-1" points="9.56 27.57 9.11 27.57 9.11 26.83 9.56 26.83 9.56 26.13 9.19 26.13 9.19 25.46 8.72 25.46 8.72 24.7 8.33 24.7 8.33 24.01 7.91 24.01 7.91 24.74 7.46 24.74 7.46 25.44 7.03 25.44 7.03 26.16 6.63 26.16 6.63 26.88 6.22 26.88 6.22 27.59 5.76 27.59 5.76 28.3 6.2 28.3 6.2 29.02 6.62 29.02 6.62 29.75 7.89 29.75 7.89 29.05 7.03 29.05 7.03 28.27 7.43 28.27 7.43 27.58 7.87 27.58 7.87 26.85 8.32 26.85 8.32 27.57 8.72 27.57 8.72 28.29 9.17 28.29 9.17 29.05 9.56 29.05 9.56 27.57"/><path class="cls-1" d="M4.1,26.13h.38v.68h.43v-.68H5.3v-.72h.44V24.7h.38V24H6.6v-.74H7V19.7H6.55V19H6.16v-.68H5.74v-.76H5.27v-.71H4.86v-.68H4.53v.68H4.12v.71H3.66v.76H3.24V19h-.4v.71H2.39v3.56h.4V24h.48v.7h.38v.71H4.1Zm2.05-5h.48v.76H6.15Zm-2.91.76H2.75v-.76h.49Zm1.68,3.58H4.44V24.7h.48Zm-.48-7.95h.48v.77H4.44Zm-.35,5.74V24H3.64V22.53h.43V21.8h.46v-.64H4.07v-.73H3.64V19h.45v.74H4.5v.69h.39v-.7h.39V19h.5v1.45H5.37v.75H4.88v.64h.49v.75h.41V24h-.5v-.74H4.89v-.7H4.5v.69Z"/></svg>