<svg id="레이어_1" data-name="레이어 1" xmlns="http://www.w3.org/2000/svg" viewBox="0 0 43 43"><defs><style>.cls-1{fill:none;}.cls-2{fill:#f67e0b;}.cls-3{fill:#009d60;}.cls-4{fill:#fff;}</style></defs><title>코트디부라르</title><polygon class="cls-1" points="28.76 0.5 28.76 42.5 28.77 42.5 28.77 0.5 28.76 0.5"/><path class="cls-2" d="M10.76,1.36a15.21,15.21,0,0,0-6.23,4A16.63,16.63,0,0,0,1.33,11,27.44,27.44,0,0,0,0,19c0,1.07,0,1.22,0,2.48S0,22.91,0,24a27.44,27.44,0,0,0,1.29,8,16.63,16.63,0,0,0,3.2,5.63,15.21,15.21,0,0,0,6.23,4,19.56,19.56,0,0,0,3.47.86V.5A19.56,19.56,0,0,0,10.76,1.36Z"/><path class="cls-3" d="M41.68,11A16.82,16.82,0,0,0,38.47,5.4a15.21,15.21,0,0,0-6.23-4A19.56,19.56,0,0,0,28.77.5v42a19.56,19.56,0,0,0,3.47-.86,15.21,15.21,0,0,0,6.23-4A16.82,16.82,0,0,0,41.68,32,27.74,27.74,0,0,0,43,24c0-1.07,0-1.22,0-2.48s0-1.41,0-2.48A27.74,27.74,0,0,0,41.68,11Z"/><path class="cls-4" d="M22,0H21a49.45,49.45,0,0,0-6.79.5v42A49.45,49.45,0,0,0,21,43h1a49.29,49.29,0,0,0,6.78-.5V.5A49.29,49.29,0,0,0,22,0Z"/></svg>