<svg id="레이어_1" data-name="레이어 1" xmlns="http://www.w3.org/2000/svg" viewBox="0 0 43 43"><defs><style>.cls-1{fill:#002d99;}.cls-2{fill:#fff;}.cls-3{fill:#cc152a;}</style></defs><title>쿠바</title><path class="cls-1" d="M32.24,1.36C29.79.51,27.14.11,22,0H21c-5.16.11-7.81.51-10.26,1.36a15.36,15.36,0,0,0-6.17,4L9.7,8.28H40.46a14.71,14.71,0,0,0-2-2.88A15.21,15.21,0,0,0,32.24,1.36Z"/><path class="cls-2" d="M25,17.09H42.86A25.87,25.87,0,0,0,41.68,11a17.1,17.1,0,0,0-1.22-2.75H9.7Z"/><path class="cls-1" d="M32.58,21.5,25,25.91H42.86c0-.67.09-1.31.11-1.93,0-1.07,0-1.22,0-2.48s0-1.41,0-2.48c0-.62-.06-1.26-.11-1.93H25Z"/><path class="cls-2" d="M9.7,34.72H40.46A17.41,17.41,0,0,0,41.68,32a26,26,0,0,0,1.18-6.07H25Z"/><path class="cls-1" d="M4.59,37.67a15.36,15.36,0,0,0,6.17,4c2.45.85,5.1,1.25,10.26,1.36h1c5.16-.11,7.81-.51,10.26-1.36a15.21,15.21,0,0,0,6.23-4,14.71,14.71,0,0,0,2-2.88H9.7Z"/><path class="cls-3" d="M25,25.91l7.63-4.41L25,17.09,9.7,8.28,4.59,5.33l-.06.07A16.82,16.82,0,0,0,1.32,11,28.13,28.13,0,0,0,0,19c0,1.07,0,1.22,0,2.48S0,22.91,0,24a28.25,28.25,0,0,0,1.29,8A17,17,0,0,0,4.53,37.6l.06.07,5.11-3ZM6.48,19.56h4.8L12.77,15l1.49,4.56h4.8l-3.88,2.83L16.66,27l-3.89-2.81L8.88,27l1.48-4.56Z"/><polygon class="cls-2" points="8.88 26.95 12.77 24.14 16.66 26.95 15.18 22.39 19.06 19.56 14.26 19.55 12.77 14.99 11.28 19.55 6.48 19.56 10.36 22.39 8.88 26.95"/></svg>