<svg id="레이어_1" data-name="레이어 1" xmlns="http://www.w3.org/2000/svg" viewBox="0 0 43 43"><defs><style>.cls-1{fill:#fff;}.cls-2{fill:#ce1126;}.cls-3{fill:#007a3d;}</style></defs><title>이라크</title><path d="M1.33,32a16.63,16.63,0,0,0,3.2,5.63,15.21,15.21,0,0,0,6.23,4c2.45.85,5.1,1.25,10.26,1.36h1c5.16-.11,7.81-.51,10.26-1.36a15.21,15.21,0,0,0,6.23-4A16.82,16.82,0,0,0,41.68,32a23.22,23.22,0,0,0,.82-3.26H.5A23.29,23.29,0,0,0,1.33,32Z"/><path class="cls-1" d="M0,19c0,1.07,0,1.22,0,2.48S0,22.91,0,24A31.82,31.82,0,0,0,.5,28.71h42A31.82,31.82,0,0,0,43,24c0-1.07,0-1.22,0-2.48s0-1.41,0-2.48a31.61,31.61,0,0,0-.49-4.89H.53A31.61,31.61,0,0,0,0,19Zm11.65,6.57a.32.32,0,0,1-.33-.32.33.33,0,0,1,.33-.33.32.32,0,0,1,.32.33A.32.32,0,0,1,11.69,25.59ZM32.26,17.5a5,5,0,0,0,1.19.64c-.05.2-.23.28-.28.49v4.3c.54.11.66-.19.92-.36.07.69.51,1.36.49,1.9H32.25Q32.27,21,32.26,17.5Zm-3.61-.3c0-.09.06-.11.15-.08s.18.15.16.49-.06.35-.15.25A1.36,1.36,0,0,1,28.65,17.2Zm-.79,1.31a.84.84,0,0,0,.85-.14l.21-.18.24.13a.76.76,0,0,0,.32.1A.68.68,0,0,0,29.8,18c0-.12.1-.09.15,0a.49.49,0,0,1-.3.63.69.69,0,0,1-.43-.05c-.23-.08-.26-.07-.38,0a.86.86,0,0,1-.94.05.7.7,0,0,1-.22-.17C27.63,18.45,27.65,18.45,27.86,18.51Zm-.22,3.43v-.57c-.05-.1-.14,0-.16-.1.25-.26.34-.33,1-.94,0,.74,0,2.48,0,2.48h.62v-3s.85-.71.85-.74v3.75h.61c0-1.43,0-2.88,0-4.2a5.27,5.27,0,0,0,.85-.86v6.71H26.1C26,23.07,26,21.63,27.64,21.94Zm-5.89-4.43a5.26,5.26,0,0,0,1.2.63c-.05.21-.23.29-.28.5v4.29c.54.12.66-.19.92-.35.07.69.5,1.36.49,1.9H21.75ZM10,21.94c-.37,1.14,1,1,2,1,0-.39,0-.85-.28-.9a2.77,2.77,0,0,0,1.06-.71v1.54l7.37,0c0-.48.12-1.25-.26-1.25s0,1-.29,1H13.85c0-.21,0-.65,0-1l1.86-1.87c.16-.16,1.32-1.2,2.33-2.19,0,.21.37.73.55.83-.12.05-.27,0-.38.09-.64.63-2.94,2.87-3.36,3.41,1.25,0,2.63,0,3.8-.07,0-.85.8-.89,1.33-1.2.28.44,1,.4,1.06,1.06v2.81H10.39a1.54,1.54,0,0,1-2,1.2c.32-.33.86-.45,1.06-.91a3.12,3.12,0,0,0-.65-2.22A3.7,3.7,0,0,0,10,21.94Z"/><path class="cls-1" d="M27.64,22.65c-.07-.24-.58-.15-.49.12S27.65,22.94,27.64,22.65Z"/><path class="cls-2" d="M38.47,5.4a15.21,15.21,0,0,0-6.23-4C29.79.51,27.14.11,22,0H21c-5.16.11-7.81.51-10.26,1.36a15.21,15.21,0,0,0-6.23,4A16.63,16.63,0,0,0,1.33,11a22.12,22.12,0,0,0-.8,3.1H42.47a23.52,23.52,0,0,0-.79-3.1A16.82,16.82,0,0,0,38.47,5.4Z"/><path class="cls-3" d="M27.9,18.69a.86.86,0,0,0,.94-.05c.12-.08.15-.09.38,0a.69.69,0,0,0,.43.05.49.49,0,0,0,.3-.63c-.05-.13-.16-.16-.15,0a.68.68,0,0,1-.32.41.76.76,0,0,1-.32-.1l-.24-.13-.21.18a.84.84,0,0,1-.85.14c-.21-.06-.23-.06-.18,0A.7.7,0,0,0,27.9,18.69Z"/><path class="cls-3" d="M34.09,22.57c-.26.17-.38.47-.92.36v-4.3c0-.21.23-.29.28-.49a5,5,0,0,1-1.19-.64q0,3.49,0,7h2.33C34.6,23.93,34.16,23.26,34.09,22.57Z"/><path class="cls-3" d="M29,17.61c0-.34,0-.45-.16-.49s-.12,0-.15.08a1.36,1.36,0,0,0,.16.66C28.9,18,28.94,17.89,29,17.61Z"/><path class="cls-3" d="M11.69,24.94a.33.33,0,0,0-.33.33.32.32,0,0,0,.33.32.32.32,0,0,0,.32-.32A.32.32,0,0,0,11.69,24.94Z"/><path class="cls-3" d="M23.59,22.58c-.26.16-.38.47-.92.35V18.64c0-.21.23-.29.28-.5a5.26,5.26,0,0,1-1.2-.63v7h2.33C24.09,23.94,23.66,23.27,23.59,22.58Z"/><path class="cls-3" d="M31.44,24.46V17.75a5.27,5.27,0,0,1-.85.86c0,1.32,0,2.77,0,4.2H30V19.06s-.85.74-.85.74v3h-.62s0-1.74,0-2.48c-.7.61-.79.68-1,.94,0,.13.11,0,.16.1v.57C26,21.63,26,23.07,26.1,24.47Zm-3.8-1.81c0,.29-.38.29-.49.12S27.57,22.41,27.64,22.65Z"/><path class="cls-3" d="M9.48,24.76c-.2.46-.74.58-1.06.91a1.54,1.54,0,0,0,2-1.2H21V21.66C20.94,21,20.25,21,20,20.6c-.53.31-1.33.35-1.33,1.2-1.17.05-2.55.09-3.8.07.42-.54,2.72-2.78,3.36-3.41.11-.06.26,0,.38-.09-.18-.1-.58-.62-.55-.83-1,1-2.17,2-2.33,2.19L13.84,21.6c0,.32,0,.76,0,1h5.69c.28,0-.07-1,.29-1s.26.77.26,1.25l-7.37,0V21.32a2.77,2.77,0,0,1-1.06.71c.3,0,.32.51.28.9-1,0-2.34.15-2-1a3.7,3.7,0,0,1-1.14.6A3.12,3.12,0,0,1,9.48,24.76Z"/></svg>