<svg id="레이어_1" data-name="레이어 1" xmlns="http://www.w3.org/2000/svg" viewBox="0 0 43 43"><defs><style>.cls-1{fill:#ee161f;}.cls-2{fill:#fff;}.cls-3{fill:#007a50;}</style></defs><title>레바논</title><path class="cls-1" d="M32.24,1.36C29.79.51,27.14.11,22,0H21c-5.16.11-7.81.51-10.26,1.36a15.21,15.21,0,0,0-6.23,4,17,17,0,0,0-3.09,5.3H41.56a17,17,0,0,0-3.09-5.3A15.21,15.21,0,0,0,32.24,1.36Z"/><path class="cls-1" d="M4.53,37.6a15.21,15.21,0,0,0,6.23,4c2.45.85,5.1,1.25,10.26,1.36h1c5.16-.11,7.81-.51,10.26-1.36a15.21,15.21,0,0,0,6.23-4,17,17,0,0,0,3.09-5.3H1.44A17,17,0,0,0,4.53,37.6Z"/><path class="cls-2" d="M25.82,23c-.43.05-1.1.22-1,.77C25.55,24.56,27.21,23.15,25.82,23Z"/><path class="cls-2" d="M24.79,18.45a.59.59,0,0,0-.73-.68C22.6,18,24.18,19.38,24.79,18.45Z"/><path class="cls-2" d="M23.57,16a.41.41,0,0,0,.14-.76C23.16,15.14,23,16,23.57,16Z"/><path class="cls-2" d="M18.75,15.44c.37.05.43-.63.06-.64S18.39,15.42,18.75,15.44Z"/><path class="cls-2" d="M18.14,24c-.31.14,0,.9.18,1.14C19.16,25.53,18.85,23.87,18.14,24Z"/><path class="cls-2" d="M26,20.25c.34-.23.05-.86-.34-.75h0C24.87,19.58,25.45,20.7,26,20.25Z"/><path class="cls-2" d="M16.88,18.12c-1.32,0,.52,2,.73.69A1,1,0,0,0,16.88,18.12Z"/><path class="cls-2" d="M27.73,23.44c-.39.15-1,.41-.83.94C27.64,25.12,29,23.65,27.73,23.44Z"/><path class="cls-2" d="M16.78,21.71c-.93,0-2,.11-.92,1.09.52-.07,1.54-.16,1.65-.78A.57.57,0,0,0,16.78,21.71Z"/><path class="cls-2" d="M21.21,18.1c.36.09.63-.5.27-.67S20.67,17.88,21.21,18.1Z"/><path class="cls-2" d="M21.42,21.37c.7.94,1.14-.31.26-.8A.67.67,0,0,0,21.42,21.37Z"/><path class="cls-2" d="M22.44,15.8c.36,0,.28-.7-.08-.64S22.05,15.87,22.44,15.8Z"/><path class="cls-2" d="M20.4,16.08c.47.22,1.73-.37.92-.83-.2,0-.37.13-.57.17S20.17,15.85,20.4,16.08Z"/><path class="cls-2" d="M22.45,18.18c.41,0,.61-.64.23-.81C22.3,17.45,22,18,22.45,18.18Z"/><path class="cls-2" d="M26.27,14.28c.27.14.23.67-.13.52s-.86,0-.52.31a9.92,9.92,0,0,0,1.27.88c.18.08.66.22.32.43A4.72,4.72,0,0,1,25.35,16c-.94-.06-.55.72.11.86.64.47,1.21,1,1.85,1.49.33.52,2.86,1.27,2.06,1.76-.61,0-1.21-.24-1.79-.28a.31.31,0,0,0,0,.61,13.82,13.82,0,0,1,2.64.77c.46.76-2,.44-2.43.5-.29,0-.59.34-.37.59a2.9,2.9,0,0,1,.72,0c1.16.24,1.74,1.48,2.74,2,.36,0,.55.61.15.74-.9.06-1.64-1.12-2.52-.5a.47.47,0,0,0,.09.84c.48.4,5.27,2.65,3.13,3-3.73-2.68-3.81-.52-6.87-2-1.45-.52-1.19,1.68-1.11,2.52,0,1.64,2.77,2.6,2.46,3.29-.27.31-.64-.09-.81-.32-.29-.65-2.62-1.52-2.38-.27-.1.4-.51-.05-.63-.23-.35-.22-.78-.41-.92-.83s-.53-.43-.82-.3c-2.5-.46-1.85,1.15-4.22,1.29a1.42,1.42,0,0,0-1.14.47c-.09.47-.74-.12-.31-.26a7.16,7.16,0,0,1,1.65-.79c1.5-.69,3.62-4.45.61-4.24a19.31,19.31,0,0,1-3.74,1.38,3.29,3.29,0,0,1-1.29,0c-.4-.11-.13-.76.23-.66.73-.12,5.46-1.74,2.73-2.19a11.78,11.78,0,0,1-3.68,1.45c-.23,0-.6-.11-.45-.4s.66-.12.82-.44a9.47,9.47,0,0,1,2.58-2c.91-.1,1-1.63,0-1.39-.48.3-1.85,1.36-1.9.21a8.28,8.28,0,0,0,1-.89c.73-.92,2.25-.81,2.7-2s-.8-1-1.57-.72c-1.8-.43,1.85-1.56,2-2.17a1.12,1.12,0,0,1,.91-.77c.34.1.72-.37.46-.65-1.22-.15-.5-.55.15-.91a10.13,10.13,0,0,0,1.06-.62c.34-.26-.25-.57-.46-.34-.44-.36,2.19-1.77,2.41-2.83H1.44c0,.11-.08.22-.11.33A27.44,27.44,0,0,0,0,19c0,1.07,0,1.22,0,2.48S0,22.91,0,24a27.44,27.44,0,0,0,1.29,8c0,.11.07.22.11.33H41.56l.12-.33A27.74,27.74,0,0,0,43,24c0-1.07,0-1.22,0-2.48s0-1.41,0-2.48a27.74,27.74,0,0,0-1.28-8l-.12-.33H21.21C22.2,13.55,24.11,12.5,26.27,14.28Z"/><path class="cls-2" d="M19.55,24.47c-.06.31.13.74.5.71A.49.49,0,0,0,19.55,24.47Z"/><path class="cls-2" d="M19.67,16c-.41.15-1.15.51-1,1C19.11,17.33,20.18,16.48,19.67,16Z"/><path class="cls-2" d="M18.35,17.87c-.35-.11-.62.37-.45.66C18.49,19.23,19.4,17.76,18.35,17.87Z"/><path class="cls-2" d="M22.61,21.12a.33.33,0,0,0-.08.45C22.87,21.86,23,21,22.61,21.12Z"/><path class="cls-2" d="M19,20.52c-.22.22.12.68.39.49S19.29,20.33,19,20.52Z"/><path class="cls-2" d="M20.69,20.21c-.33,0-.41.54-.08.6S21,20.26,20.69,20.21Z"/><path class="cls-2" d="M20.88,24.23h0c-.23.46.2,1.2.64.65C21.73,24.51,21.25,24.07,20.88,24.23Z"/><path class="cls-3" d="M18.8,13.53c.21-.23.8.08.46.34a10.13,10.13,0,0,1-1.06.62c-.65.36-1.37.76-.15.91.26.28-.12.75-.46.65a1.12,1.12,0,0,0-.91.77c-.2.61-3.85,1.74-2,2.17.77-.32,1.87-.52,1.57.72s-2,1.11-2.7,2a8.28,8.28,0,0,1-1,.89c.05,1.15,1.42.09,1.9-.21,1.05-.24.93,1.29,0,1.39a9.47,9.47,0,0,0-2.58,2c-.16.32-.59.22-.82.44s.22.43.45.4a11.78,11.78,0,0,0,3.68-1.45c2.73.45-2,2.07-2.73,2.19-.36-.1-.63.55-.23.66a3.29,3.29,0,0,0,1.29,0,19.31,19.31,0,0,0,3.74-1.38c3-.21.89,3.55-.61,4.24a7.16,7.16,0,0,0-1.65.79c-.43.14.22.73.31.26a1.42,1.42,0,0,1,1.14-.47c2.37-.14,1.72-1.75,4.22-1.29.29-.13.75-.06.82.3s.57.61.92.83c.12.18.53.63.63.23-.24-1.25,2.09-.38,2.38.27.17.23.54.63.81.32.31-.69-2.47-1.65-2.46-3.29-.08-.84-.34-3,1.11-2.52,3.06,1.5,3.14-.66,6.87,2,2.14-.33-2.65-2.58-3.13-3a.47.47,0,0,1-.09-.84c.88-.62,1.62.56,2.52.5.4-.13.21-.7-.15-.74-1-.54-1.58-1.78-2.74-2a2.9,2.9,0,0,0-.72,0c-.22-.25.08-.62.37-.59.44-.06,2.89.26,2.43-.5a13.82,13.82,0,0,0-2.64-.77.31.31,0,0,1,0-.61c.58,0,1.18.24,1.79.28.8-.49-1.73-1.24-2.06-1.76-.64-.47-1.21-1-1.85-1.49-.66-.14-1.05-.92-.11-.86a4.72,4.72,0,0,0,1.86.46c.34-.21-.14-.35-.32-.43a9.92,9.92,0,0,1-1.27-.88c-.34-.29.3-.42.52-.31s.4-.38.13-.52c-2.16-1.78-4.07-.73-5.06-3.58C21,11.76,18.36,13.17,18.8,13.53ZM15.86,22.8c-1.12-1,0-1.11.92-1.09a.57.57,0,0,1,.73.31C17.4,22.64,16.38,22.73,15.86,22.8Zm1-4.68a1,1,0,0,1,.73.69C17.4,20.13,15.56,18.15,16.88,18.12Zm10.85,5.32c1.27.21-.09,1.68-.83.94C26.71,23.85,27.34,23.59,27.73,23.44Zm-2-3.94h0c.39-.11.68.52.34.75C25.45,20.7,24.87,19.58,25.7,19.5ZM25.82,23c1.39.13-.27,1.54-1,.77C24.72,23.24,25.39,23.07,25.82,23Zm-1-4.57c-.61.93-2.19-.47-.73-.68A.59.59,0,0,1,24.79,18.45Zm-1.08-3.2a.41.41,0,0,1-.14.76C23,16,23.16,15.14,23.71,15.25Zm-4.9-.45c.37,0,.31.69-.06.64S18.42,14.73,18.81,14.8Zm-.49,10.36c-.15-.24-.49-1-.18-1.14C18.85,23.87,19.16,25.53,18.32,25.16Zm-.42-6.63c-.17-.29.1-.77.45-.66C19.4,17.76,18.49,19.23,17.9,18.53ZM19.41,21c-.27.19-.61-.27-.39-.49S19.64,20.79,19.41,21Zm-.76-4c-.13-.52.61-.88,1-1C20.18,16.48,19.11,17.33,18.65,17Zm1.4,8.18c-.37,0-.56-.4-.5-.71A.49.49,0,0,1,20.05,25.18Zm.56-4.37c-.33-.06-.25-.63.08-.6S20.92,20.83,20.61,20.81Zm.91,4.07c-.44.55-.87-.19-.64-.65h0C21.25,24.07,21.73,24.51,21.52,24.88Zm1-3.31a.33.33,0,0,1,.08-.45C23,21,22.87,21.86,22.53,21.57Zm-.08-3.39c-.47-.21-.15-.73.23-.81C23.06,17.54,22.86,18.22,22.45,18.18Zm-.09-3c.36-.06.44.61.08.64S21.91,15.12,22.36,15.16Zm-.94,6.21a.67.67,0,0,1,.26-.8C22.56,21.06,22.12,22.31,21.42,21.37Zm-.21-3.27c-.54-.22-.22-.71.27-.67S21.57,18.19,21.21,18.1Zm-.46-2.68c.2,0,.37-.13.57-.17.81.46-.45,1.05-.92.83C20.17,15.85,20.5,15.49,20.75,15.42Z"/></svg>