<svg id="레이어_1" data-name="레이어 1" xmlns="http://www.w3.org/2000/svg" viewBox="0 0 43 43"><defs><style>.cls-1{fill:#d81e05;}.cls-2{fill:#fff;}.cls-3{fill:#0051ba;}</style></defs><title>슬로바키아</title><path class="cls-1" d="M18.12,32.08a11.14,11.14,0,0,1-2.33,1.19,10.32,10.32,0,0,1-2.22-1.13A15.64,15.64,0,0,1,9.78,29H.55a22.2,22.2,0,0,0,.77,3A16.82,16.82,0,0,0,4.53,37.6a15.21,15.21,0,0,0,6.23,4c2.45.85,5.1,1.25,10.26,1.36h1c5.16-.11,7.81-.51,10.26-1.36a15.21,15.21,0,0,0,6.23-4A16.82,16.82,0,0,0,41.68,32a22.2,22.2,0,0,0,.77-3H21.8A15.71,15.71,0,0,1,18.12,32.08Z"/><path class="cls-2" d="M6.68,11.78c.11-.61-.14-1.68.75-1.75H24.06c.87-.06.78,1,.83,1.54.06.92.14,1.84.2,2.77H42.51A24.41,24.41,0,0,0,41.68,11,16.87,16.87,0,0,0,38.47,5.4a15.21,15.21,0,0,0-6.23-4C29.79.51,27.14.11,22,0H21c-5.16.11-7.81.51-10.26,1.36a15.21,15.21,0,0,0-6.23,4A16.87,16.87,0,0,0,1.32,11a24.41,24.41,0,0,0-.83,3.32h6C6.55,13.48,6.62,12.63,6.68,11.78Z"/><path class="cls-3" d="M7.22,24.38a27.15,27.15,0,0,1-.72-10h-6A33.91,33.91,0,0,0,0,19c0,1.07,0,1.22,0,2.48S0,22.91,0,24a31.71,31.71,0,0,0,.52,5H9.78A12.94,12.94,0,0,1,7.22,24.38Z"/><path class="cls-3" d="M25.09,14.34a27.16,27.16,0,0,1-.73,10A13,13,0,0,1,21.8,29H42.45A30.49,30.49,0,0,0,43,24c0-1.07,0-1.22,0-2.48s0-1.41,0-2.48a32.34,32.34,0,0,0-.45-4.68Z"/><path class="cls-2" d="M24.06,10H7.43c-.89.07-.64,1.14-.75,1.75-.06.85-.13,1.7-.18,2.56a27.15,27.15,0,0,0,.72,10A12.94,12.94,0,0,0,9.78,29a15.64,15.64,0,0,0,3.79,3.18,10.32,10.32,0,0,0,2.22,1.13,11.14,11.14,0,0,0,2.33-1.19A15.71,15.71,0,0,0,21.8,29a13,13,0,0,0,2.56-4.58,27.16,27.16,0,0,0,.73-10c-.06-.93-.14-1.85-.2-2.77C24.84,11,24.93,10,24.06,10ZM17.53,31.67c-.54.32-1.12.64-1.74.94-.44-.21-.84-.43-1.24-.66-8.8-5-7.77-12.77-7.12-21.26H24.16C24.79,19,25.8,26.7,17.53,31.67Z"/><path class="cls-1" d="M15.79,10.69H7.43C6.78,19.18,5.75,27,14.55,32a15.51,15.51,0,0,1-4.35-3.52c-.08-.1-.16-.19-.23-.29a2.43,2.43,0,0,1-.2-.25h0c-.12-.15-.24-.31-.35-.47a2.3,2.3,0,0,1,0-.26,2.18,2.18,0,0,1,3.76-1.49,2.76,2.76,0,0,1,1.7-1.79V20.69H13.68a16.58,16.58,0,0,0-3.2.4,3.89,3.89,0,0,0,0-2.65,16.58,16.58,0,0,0,3.2.4h1.18V16.7h-.25a16.38,16.38,0,0,0-3.2.4,4,4,0,0,0,0-2.65,17.18,17.18,0,0,0,3.2.4h.25v-.14a17.08,17.08,0,0,0-.4-3.18,4.07,4.07,0,0,0,2.67,0,16.29,16.29,0,0,0-.41,3.18v.14H17a17.4,17.4,0,0,0,3.2-.4,3.89,3.89,0,0,0,0,2.65,16.58,16.58,0,0,0-3.2-.4h-.26v2.14H17.9a16.48,16.48,0,0,0,3.2-.4,3.89,3.89,0,0,0,0,2.65,16.48,16.48,0,0,0-3.2-.4H16.72v3.19a2.77,2.77,0,0,1,1.71,1.79A2.14,2.14,0,0,1,20,25a2.18,2.18,0,0,1,2.18,2.17,2.28,2.28,0,0,1,0,.26c-.11.16-.24.32-.36.47h0l-.14.18-.31.39a15,15,0,0,1-3.83,3.21c8.27-5,7.26-12.65,6.63-21Z"/><path class="cls-2" d="M16.72,23.88V20.69H17.9a16.48,16.48,0,0,1,3.2.4,3.89,3.89,0,0,1,0-2.65,16.48,16.48,0,0,1-3.2.4H16.72V16.7H17a16.58,16.58,0,0,1,3.2.4,3.89,3.89,0,0,1,0-2.65,17.4,17.4,0,0,1-3.2.4h-.26v-.14a16.29,16.29,0,0,1,.41-3.18,4.07,4.07,0,0,1-2.67,0,17.08,17.08,0,0,1,.4,3.18v.14h-.25a17.18,17.18,0,0,1-3.2-.4,4,4,0,0,1,0,2.65,16.38,16.38,0,0,1,3.2-.4h.25v2.14H13.68a16.58,16.58,0,0,1-3.2-.4,3.89,3.89,0,0,1,0,2.65,16.58,16.58,0,0,1,3.2-.4h1.18v3.19a2.63,2.63,0,0,1,1.86,0Z"/><path class="cls-3" d="M21.36,28.46l.31-.39.14-.18h0c.12-.15.25-.31.36-.47a2.28,2.28,0,0,0,0-.26A2.18,2.18,0,0,0,20,25a2.14,2.14,0,0,0-1.57.68,2.77,2.77,0,0,0-1.71-1.79,2.63,2.63,0,0,0-1.86,0,2.76,2.76,0,0,0-1.7,1.79A2.18,2.18,0,0,0,9.4,27.16a2.3,2.3,0,0,0,0,.26c.11.16.23.32.35.47h0a2.43,2.43,0,0,0,.2.25c.07.1.15.19.23.29A15.51,15.51,0,0,0,14.55,32c.4.23.8.45,1.24.66.62-.3,1.2-.62,1.74-.94A15,15,0,0,0,21.36,28.46Z"/></svg>