<svg id="레이어_1" data-name="레이어 1" xmlns="http://www.w3.org/2000/svg" viewBox="0 0 43 43"><defs><style>.cls-1{fill:#4289db;}.cls-2{fill:#fff;}</style></defs><title>소말리아</title><path class="cls-1" d="M41.68,11A16.87,16.87,0,0,0,38.47,5.4a15.21,15.21,0,0,0-6.23-4C29.79.51,27.14.11,22,0H21c-5.16.11-7.81.51-10.26,1.36a15.21,15.21,0,0,0-6.23,4A16.68,16.68,0,0,0,1.33,11,27.55,27.55,0,0,0,0,19c0,1.07,0,1.22,0,2.48S0,22.91,0,24a27.44,27.44,0,0,0,1.29,8,16.63,16.63,0,0,0,3.2,5.63,15.21,15.21,0,0,0,6.23,4c2.45.85,5.1,1.25,10.26,1.36h1c5.16-.11,7.81-.51,10.26-1.36a15.21,15.21,0,0,0,6.23-4A16.82,16.82,0,0,0,41.68,32,27.74,27.74,0,0,0,43,24c0-1.07,0-1.22,0-2.48s0-1.41,0-2.48A27.86,27.86,0,0,0,41.68,11ZM27.88,31.43l-6.37-4.62-6.37,4.62L17.57,24,11.2,19.32h7.87l2.44-7.48,2.43,7.48h7.87L25.44,24Z"/><polygon class="cls-2" points="23.94 19.32 21.51 11.84 19.07 19.32 11.2 19.32 17.57 23.95 15.14 31.43 21.51 26.81 27.88 31.43 25.44 23.95 31.81 19.32 23.94 19.32"/></svg>