<svg id="레이어_1" data-name="레이어 1" xmlns="http://www.w3.org/2000/svg" viewBox="0 0 43 43"><defs><style>.cls-1{fill:#fff;}.cls-2{fill:#00437b;}.cls-3{fill:#da1a32;}.cls-4{fill:#1d1d1b;}</style></defs><title>대한민국</title><path class="cls-1" d="M41.67572,11.027a16.87208,16.87208,0,0,0-3.20636-5.62909,15.30068,15.30068,0,0,0-6.22693-4.03913C29.78784.51508,27.13788.10889,21.97632,0h-.95264c-5.16241.10889-7.812.51508-10.267,1.35876A15.3001,15.3001,0,0,0,4.53064,5.39789,16.86574,16.86574,0,0,0,1.32428,11.027a27.77183,27.77183,0,0,0-1.2898,7.99469C0,20.0907,0,20.23853,0,21.5c0,1.26343,0,1.41113.03448,2.47827a27.78385,27.78385,0,0,0,1.2898,7.99664,16.8565,16.8565,0,0,0,3.20636,5.6272,15.3066,15.3066,0,0,0,6.22607,4.04114c2.455.84351,5.10456,1.24976,10.267,1.35675h.95264c5.16156-.107,7.81152-.51324,10.26611-1.35675a15.30717,15.30717,0,0,0,6.22693-4.04114,16.86284,16.86284,0,0,0,3.20636-5.6272A27.81788,27.81788,0,0,0,42.965,23.97827C43,22.91113,43,22.76343,43,21.5c0-1.26147,0-1.4093-.035-2.47833A27.80584,27.80584,0,0,0,41.67572,11.027ZM33.67621,8.59552,35.70612,11.638l-1.10767.73718L32.56909,9.3327Zm-1.6601,1.1051,4.42749,6.63623-1.10675.73859-4.42779-6.63489Zm1.6601,15.11609,1.107.73993-2.02929,3.04114-1.10706-.73853ZM31.64685,15.1394l1.10706-.73724,2.02929,3.04248-1.107.73724Zm3.69,10.78382,1.10675.73993-2.029,3.03979-1.107-.73724ZM30.35541,10.80847l2.02893,3.04114-1.10669.7359L29.249,11.54431Zm-16.60419.73584L9.32336,18.18188l-1.107-.73724,4.42779-6.63617ZM10.98346,9.70062l1.10736.73993L7.66266,17.07544,6.55627,16.3382ZM9.69232,28.9657l-1.10675.73724-2.0293-3.04248,1.10639-.73724Zm-.369-20.36884,1.107.73584L6.00323,15.97028,4.89557,15.233Zm0,25.80628L4.89557,27.76691l1.10766-.73719,4.42713,6.63752Zm1.6601-1.10645-2.02863-3.0412,1.10633-.73584,2.02966,3.0398Zm1.66064-1.10388L8.21631,25.55664l1.107-.73993,4.42713,6.63757Zm4.42786-4.058A7.97736,7.97736,0,1,1,28.1413,25.92322,7.97115,7.97115,0,0,1,17.072,28.13483Zm12.177,3.31945,2.02869-3.04248,1.10669.73853-2.02893,3.04248Zm2.76715,1.84241-1.10772-.73724,2.03033-3.0398,1.10736.73584Zm1.6601,1.10773-1.10712-.73718,2.02936-3.04242,1.10767.73712Zm2.39776-3.595-1.10565-.73719L36.997,27.02972l1.107.73719Zm.923-14.83911L34.96832,12.9278l1.10565-.73853,2.03,3.04376Z"/><path class="cls-2" d="M27.03467,20.39349A3.99224,3.99224,0,0,0,21.50043,21.5a3.99063,3.99063,0,0,1-6.64258-4.42456A7.98018,7.98018,0,0,0,28.1413,25.92322,3.9846,3.9846,0,0,0,27.03467,20.39349Z"/><path class="cls-3" d="M25.92822,14.86383a7.98543,7.98543,0,0,0-11.07037,2.21161A3.99063,3.99063,0,0,0,21.50043,21.5a3.98955,3.98955,0,0,1,6.64087,4.42322A7.97136,7.97136,0,0,0,25.92822,14.86383Z"/><polygon class="cls-4" points="32.939 29.52 30.908 32.559 32.016 33.297 34.046 30.255 32.939 29.52"/><rect class="cls-4" x="33.04771" y="27.14842" width="3.65593" height="1.33067" transform="translate(-7.63007 41.34811) rotate(-56.23489)"/><rect class="cls-4" x="32.30881" y="31.84945" width="3.65731" height="1.3303" transform="translate(-11.84656 42.90859) rotate(-56.34202)"/><rect class="cls-4" x="34.70722" y="28.25484" width="3.65715" height="1.32943" transform="matrix(0.55474, -0.83202, 0.83202, 0.55474, -7.79387, 43.27523)"/><rect class="cls-4" x="28.98815" y="29.63712" width="3.65688" height="1.33038" transform="translate(-11.49116 39.13104) rotate(-56.30516)"/><rect class="cls-4" x="31.38673" y="26.04202" width="3.65663" height="1.33115" transform="translate(-7.43687 39.51216) rotate(-56.28553)"/><rect class="cls-4" x="10.31812" y="24.51605" width="1.3309" height="7.97812" transform="translate(-13.97387 10.8896) rotate(-33.71207)"/><polygon class="cls-4" points="4.896 27.767 9.323 34.403 10.43 33.667 6.003 27.03 4.896 27.767"/><rect class="cls-4" x="9.85781" y="29.58011" width="1.32951" height="3.65541" transform="translate(-15.66002 11.11871) rotate(-33.70519)"/><rect class="cls-4" x="7.45937" y="25.98445" width="1.32967" height="3.65725" transform="translate(-14.05658 9.16951) rotate(-33.66892)"/><rect class="cls-4" x="33.01087" y="9.3998" width="1.33107" height="7.97713" transform="translate(-1.76796 20.94122) rotate(-33.71001)"/><rect class="cls-4" x="35.87089" y="12.25125" width="1.32982" height="3.65768" transform="translate(-1.67346 22.63381) rotate(-33.69405)"/><rect class="cls-4" x="33.47231" y="8.65668" width="1.33032" height="3.65733" transform="translate(-0.07916 20.70942) rotate(-33.71075)"/><rect class="cls-4" x="32.55002" y="14.46344" width="1.33005" height="3.65717" transform="translate(-3.45765 21.16878) rotate(-33.7028)"/><polygon class="cls-4" points="32.384 13.85 30.355 10.808 29.249 11.544 31.278 14.586 32.384 13.85"/><rect class="cls-4" x="6.99459" y="13.82997" width="7.97833" height="1.32971" transform="translate(-7.16968 15.58826) rotate(-56.29316)"/><rect class="cls-4" x="5.33445" y="12.72337" width="7.97771" height="1.33067" transform="translate(-6.98858 13.7111) rotate(-56.28063)"/><rect class="cls-4" x="3.67407" y="11.61826" width="7.97812" height="1.32992" transform="translate(-6.80844 11.86536) rotate(-56.38728)"/></svg>