<svg id="레이어_1" data-name="레이어 1" xmlns="http://www.w3.org/2000/svg" viewBox="0 0 43 43"><defs><style>.cls-1{fill:#c0003b;}.cls-2{fill:#fff;}.cls-3{fill:#2f742e;}</style></defs><title>수단</title><path class="cls-1" d="M38.47,5.4a15.21,15.21,0,0,0-6.23-4C29.79.51,27.14.11,22,0H21c-5.16.11-7.81.51-10.26,1.36a15.5,15.5,0,0,0-5.11,3l13.16,9.86H42.48a24.68,24.68,0,0,0-.8-3.15A16.82,16.82,0,0,0,38.47,5.4Z"/><path class="cls-2" d="M28.47,21.42l-9.66,7.25h23.7A34.19,34.19,0,0,0,43,24c0-1.07,0-1.22,0-2.48s0-1.41,0-2.48a32.13,32.13,0,0,0-.49-4.84H18.81Z"/><path d="M5.55,38.6a15.53,15.53,0,0,0,5.21,3c2.45.85,5.1,1.25,10.26,1.36h1c5.16-.11,7.81-.51,10.26-1.36a15.21,15.21,0,0,0,6.23-4A17,17,0,0,0,41.68,32a24.28,24.28,0,0,0,.83-3.31H18.81Z"/><path class="cls-3" d="M28.47,21.42l-9.66-7.24L5.65,4.32A11.47,11.47,0,0,0,4.53,5.4,16.82,16.82,0,0,0,1.32,11,28.07,28.07,0,0,0,0,19c0,1.07,0,1.22,0,2.48S0,22.91,0,24a28.25,28.25,0,0,0,1.29,8A17,17,0,0,0,4.53,37.6a13.77,13.77,0,0,0,1,1l13.26-9.93Z"/></svg>