<svg id="레이어_1" data-name="레이어 1" xmlns="http://www.w3.org/2000/svg" viewBox="0 0 43 43"><defs><style>.cls-1{fill:#fc0;}.cls-2{fill:#e3001c;}.cls-3{fill:#002da6;}.cls-4{fill:#f4f4f4;}</style></defs><title>베네수엘라</title><path class="cls-1" d="M38.47,5.4a15.21,15.21,0,0,0-6.23-4C29.79.51,27.14.11,22,0H21c-5.16.11-7.81.51-10.26,1.36a15.21,15.21,0,0,0-6.23,4A16.82,16.82,0,0,0,1.32,11a23.83,23.83,0,0,0-.81,3.2h42a23.83,23.83,0,0,0-.81-3.2A16.82,16.82,0,0,0,38.47,5.4Z"/><path class="cls-2" d="M1.32,32A16.82,16.82,0,0,0,4.53,37.6a15.21,15.21,0,0,0,6.23,4c2.45.85,5.1,1.25,10.26,1.36h1c5.16-.11,7.81-.51,10.26-1.36a15.21,15.21,0,0,0,6.23-4A16.82,16.82,0,0,0,41.68,32a23.83,23.83,0,0,0,.81-3.2H.51A23.83,23.83,0,0,0,1.32,32Z"/><path class="cls-3" d="M0,19c0,1.07,0,1.22,0,2.48S0,22.91,0,24a32.76,32.76,0,0,0,.48,4.79h42A32.76,32.76,0,0,0,43,24c0-1.07,0-1.22,0-2.48s0-1.41,0-2.48a32.76,32.76,0,0,0-.48-4.79H.51A32.76,32.76,0,0,0,0,19Zm34.45,5.2L35,25.5l1.36-.06-1.07.84.47,1.28-1.13-.76-1.07.84.38-1.31-1.14-.75,1.36,0Zm-3-4,.88,1,1.26-.53-.71,1.16.89,1-1.32-.31-.71,1.16-.11-1.35-1.33-.31,1.26-.53ZM27.2,17.45l1.18.68,1-.92-.29,1.34,1.19.67-1.36.14-.28,1.34-.55-1.25-1.36.15,1-.91Zm-3.59-.9.65-1.19.17,1.35,1.34.25-1.23.58.17,1.35-.93-1-1.23.58.65-1.19-.93-1Zm-5,.16.17-1.35.65,1.19,1.34-.25-.93,1,.65,1.19-1.23-.58-.93,1,.17-1.35L17.23,17Zm-5,.5,1,.92,1.18-.68-.55,1.24,1,.91-1.36-.15-.55,1.25-.28-1.34-1.36-.14,1.19-.67ZM9.42,20.74l1.26.53.88-1-.11,1.36,1.26.53-1.33.31-.11,1.35-.71-1.16-1.32.31.89-1Zm-.9,3.48.37,1.31,1.36,0-1.14.75.38,1.31L8.42,26.8l-1.13.76.47-1.28-1.07-.84,1.36.06Z"/><polygon class="cls-4" points="33.88 26.33 33.51 27.64 34.58 26.8 35.71 27.56 35.24 26.28 36.31 25.44 34.95 25.5 34.48 24.22 34.12 25.53 32.75 25.57 33.88 26.33"/><polygon class="cls-4" points="28.1 19.45 28.65 20.7 28.93 19.36 30.29 19.22 29.1 18.55 29.39 17.21 28.38 18.13 27.2 17.45 27.75 18.69 26.74 19.6 28.1 19.45"/><polygon class="cls-4" points="22.55 18.48 23.78 17.9 24.71 18.89 24.54 17.54 25.77 16.96 24.43 16.71 24.26 15.36 23.61 16.55 22.27 16.3 23.2 17.29 22.55 18.48"/><polygon class="cls-4" points="7.76 26.28 7.29 27.56 8.42 26.8 9.49 27.64 9.11 26.33 10.25 25.57 8.89 25.53 8.52 24.22 8.05 25.5 6.69 25.44 7.76 26.28"/><polygon class="cls-4" points="31.62 22.43 31.73 23.78 32.44 22.62 33.76 22.93 32.87 21.9 33.58 20.74 32.32 21.27 31.44 20.23 31.55 21.59 30.29 22.12 31.62 22.43"/><polygon class="cls-4" points="18.29 18.89 19.22 17.9 20.45 18.48 19.8 17.29 20.73 16.3 19.39 16.55 18.74 15.36 18.57 16.71 17.23 16.96 18.46 17.54 18.29 18.89"/><polygon class="cls-4" points="10.56 22.62 11.27 23.78 11.38 22.43 12.71 22.12 11.45 21.59 11.56 20.23 10.68 21.27 9.42 20.74 10.13 21.9 9.24 22.93 10.56 22.62"/><polygon class="cls-4" points="14.07 19.36 14.35 20.7 14.9 19.45 16.26 19.6 15.24 18.69 15.8 17.45 14.62 18.13 13.62 17.21 13.9 18.55 12.71 19.22 14.07 19.36"/></svg>