<svg id="레이어_1" data-name="레이어 1" xmlns="http://www.w3.org/2000/svg" viewBox="0 0 43 43"><defs><style>.cls-1{fill:#4a9318;}.cls-2{fill:#f6d128;}.cls-3{fill:#cb0423;}.cls-4{fill:#fff;}.cls-5{fill:#fcff2c;}</style></defs><title>잠바브웨</title><path class="cls-1" d="M6.51,39.38a15.22,15.22,0,0,0,4.25,2.26c2.45.85,5.1,1.25,10.26,1.36h1c5.16-.11,7.81-.51,10.26-1.36a15.21,15.21,0,0,0,6.23-4l.34-.39H9.41Z"/><path class="cls-1" d="M32.24,1.36C29.79.51,27.14.11,22,0H21c-5.16.11-7.81.51-10.26,1.36a15.45,15.45,0,0,0-4.3,2.29l3,2.22H38.87c-.13-.17-.27-.33-.4-.47A15.21,15.21,0,0,0,32.24,1.36Z"/><path class="cls-2" d="M17.77,12.13H42c-.1-.36-.21-.73-.33-1.1a17.25,17.25,0,0,0-2.81-5.16H9.41Z"/><path class="cls-2" d="M9.41,37.21h29.4A17.54,17.54,0,0,0,41.68,32c.11-.35.21-.7.31-1H17.77Z"/><path class="cls-3" d="M17.77,30.94H42a28.1,28.1,0,0,0,.95-6.27H26.12Z"/><path class="cls-3" d="M26.13,18.4H42.94A28.17,28.17,0,0,0,42,12.13H17.77Z"/><path d="M30.3,21.54l-4.18,3.13H42.94L43,24c0-1.07,0-1.22,0-2.48s0-1.41,0-2.48l0-.62H26.13Z"/><path d="M17.77,30.94l8.35-6.27,4.18-3.13L26.13,18.4l-8.36-6.27L9.41,5.87,6.46,3.65c-.27.2-.52.41-.77.62l23,17.27-23,17.22a7.73,7.73,0,0,0,.77.62l2.9-2.17Z"/><path class="cls-4" d="M28.71,21.54,5.69,4.27A15.52,15.52,0,0,0,4.53,5.4,16.82,16.82,0,0,0,1.32,11,28.07,28.07,0,0,0,0,19c0,1.07,0,1.22,0,2.48S0,22.91,0,24a28.25,28.25,0,0,0,1.29,8A17,17,0,0,0,4.53,37.6a12.08,12.08,0,0,0,1.21,1.16ZM6.53,24.13a.82.82,0,0,0,.15-.4,2.35,2.35,0,0,1,.37-1.08v0L.7,18.09,8,17v-1c0-2.27,0-2.17-.47-2.34s-.6-.7-.22-.77c.12,0,0,0-.33,0l-.54,0v-.23a.65.65,0,0,1,.67-.64,1.5,1.5,0,0,0,.67-.22,1.22,1.22,0,0,1,.92-.18,1.32,1.32,0,0,1,1.25.75,3.6,3.6,0,0,1,.11.45l1.23-2.5L14.57,17l7.32,1.06-4.47,3.17c.63.56.81.76.81.85,0,.28-.17.31-.78.14a2.18,2.18,0,0,0-.58-.11,15.3,15.3,0,0,0-1,2.15l1,5-1.8-1c0,.08,0,.16,0,.24,0,.91,0,.87-.67.67-.22-.06-.84-.17-1.37-.25A17.1,17.1,0,0,0,8.71,29c-1.18.25-1.22.25-1.22,0a4.64,4.64,0,0,0-.11-.74l-1.71,1,.87-4.2,0,0A.8.8,0,0,1,6.53,24.13Z"/><path class="cls-3" d="M11.3,10.39l-1.23,2.5c0,.18.07.39.11.64Z"/><polygon class="cls-3" points="13.61 16.89 14.57 17.03 11.3 10.39 13.61 16.89"/><path class="cls-3" d="M10.18,13.53c0,.1,0,.2.05.3l1.07-3.44Z"/><path class="cls-3" d="M10.23,13.83c0,.1,0,.19,0,.29.1.76.2,1.43.22,1.49a.21.21,0,0,0,.18.1,9.63,9.63,0,0,1,1,.78h0v0l.16.13,1.72.25-2.31-6.5Z"/><path class="cls-3" d="M11.89,16.64c.42.34.93.75,1.49,1.22l8.51.23L14.57,17l-1-.14Z"/><path class="cls-3" d="M8,17.89c0-.2,0-.49,0-.86L.7,18.09Z"/><path class="cls-3" d="M11.71,16.49l0,0v0Z"/><path class="cls-3" d="M13.38,17.86l1.15.95c1.44,1.2,2.33,2,2.89,2.45l4.47-3.17Z"/><path class="cls-3" d="M7.62,19.91l.11,0a4.19,4.19,0,0,1,.13-1.3A2.52,2.52,0,0,0,8,17.89l-7.28.2L7.06,22.6Z"/><path class="cls-3" d="M15.26,26.78l1.67,2.5-1-5v0A12.81,12.81,0,0,0,15.26,26.78Z"/><path class="cls-3" d="M15.13,28.26l1.8,1-1.67-2.5A12.14,12.14,0,0,0,15.13,28.26Z"/><path class="cls-3" d="M5.67,29.28l1.71-1c0-.28-.12-.6-.19-.94Z"/><path class="cls-3" d="M7.5,22A4.77,4.77,0,0,0,8,21.33s-.07-.26-.15-.51a3.47,3.47,0,0,1-.13-.89l-.11,0L7.06,22.6v0A4.16,4.16,0,0,1,7.5,22Z"/><path class="cls-3" d="M6.54,25.08l-.87,4.2,1.52-1.92A15.26,15.26,0,0,0,6.54,25.08Z"/><path d="M6.54,25.08a15.26,15.26,0,0,1,.65,2.28c.07.34.14.66.19.94a4.64,4.64,0,0,1,.11.74c0,.22,0,.22,1.22,0a17.1,17.1,0,0,1,4.37-.09c.53.08,1.15.19,1.37.25.71.2.67.24.67-.67,0-.08,0-.16,0-.24a12.14,12.14,0,0,1,.13-1.48,12.81,12.81,0,0,1,.61-2.46v0a15.3,15.3,0,0,1,1-2.15,2.18,2.18,0,0,1,.58.11c.61.17.78.14.78-.14,0-.09-.18-.29-.81-.85S16,20,14.53,18.81l-1.15-.95c-.56-.47-1.07-.88-1.49-1.22l-.16-.13,0,0a9.63,9.63,0,0,0-1-.78.21.21,0,0,1-.18-.1c0-.06-.12-.73-.22-1.49,0-.1,0-.19,0-.29s0-.2-.05-.3-.08-.46-.11-.64a3.6,3.6,0,0,0-.11-.45,1.32,1.32,0,0,0-1.25-.75,1.22,1.22,0,0,0-.92.18,1.5,1.5,0,0,1-.67.22.65.65,0,0,0-.67.64V13l.54,0c.29,0,.45,0,.33,0-.38.07-.23.61.22.77s.47.07.47,2.34v1c0,.37,0,.66,0,.86a2.52,2.52,0,0,1-.12.74,4.19,4.19,0,0,0-.13,1.3,3.47,3.47,0,0,0,.13.89c.08.25.14.48.15.51A4.77,4.77,0,0,1,7.5,22a4.16,4.16,0,0,0-.45.64,2.35,2.35,0,0,0-.37,1.08.82.82,0,0,1-.15.4.8.8,0,0,0,0,.9ZM8.15,29c-.41.1-.51.11-.51.05s-.41-2.14-.59-2.84c-.13-.48-.23-.89-.23-.93s.11,0,.25.1a1,1,0,0,0,.39.17c.38,0,.59.58.92,2.51,0,.27.09.58.11.68S8.48,28.88,8.15,29Zm0-2.88c-.06-.16,0-.21.09-.26a.59.59,0,0,1,.29-.05c.12,0,.11.06-.09.27l-.23.24Zm2.43-.51a.83.83,0,0,1,.42-.06h.42l-.14.17c-.25.31-.37.34-.54.13A.72.72,0,0,1,10.6,25.57Zm1.31-.06h.79l-.17.21c-.22.25-.23.25-.45,0Zm2.52.64-.4,0-.32,0,.23-.21.22-.22.19.19C14.54,26.05,14.58,26.18,14.43,26.15Zm-.71-.34a1.49,1.49,0,0,1-.24.19,1.69,1.69,0,0,1-.2-.25l-.17-.24h.18a2.17,2.17,0,0,1,.41,0l.23.05Zm-.52.13c.06.13,0,.15-.13.14a1.44,1.44,0,0,1-.38-.06L12.52,26l.18-.19c.16-.17.21-.18.31-.09A1,1,0,0,1,13.2,25.94Zm-1.28-.12c.11.18.1.18-.29.18h-.4l.21-.21C11.68,25.56,11.76,25.56,11.92,25.82Zm-1.42,0,.24.23-.44,0-.43,0,.2-.25a2.21,2.21,0,0,0,.2-.26A2.39,2.39,0,0,1,10.5,25.84Zm-.67,0-.17.22-.22-.19-.21-.19.36-.06a1.62,1.62,0,0,1,.38,0A.63.63,0,0,1,9.83,25.85ZM9.26,26l.17.2-.36.05-.51.08c-.11,0-.07,0,.13-.25A1.48,1.48,0,0,1,9,25.76S9.17,25.85,9.26,26Zm-.57.95c.17,0,.17,0,0,.25s-.19.17-.23,0S8.48,26.91,8.69,26.91Zm.25.49H8.72l.19-.22c.2-.21.21-.22.36-.06s.15.16,0,.21A.87.87,0,0,1,8.94,27.4Zm3.76-.65-.17.2c-.22.26-.23.26-.45,0l-.17-.2h.79Zm2.1.47-.18.2-.16-.23c-.09-.12-.15-.23-.13-.25a1.34,1.34,0,0,1,.34,0L15,27Zm.25.13c0,.15-.12.25-.18.15s0-.12.07-.18S15.05,27.24,15.05,27.35Zm-.66,0h-.31c-.2,0-.3,0-.28-.09a.63.63,0,0,1,.18-.2c.12-.09.16-.08.27.1Zm-.66-.3c-.18.18-.18.18-.39-.07l-.17-.2h.34C13.89,26.83,13.94,26.89,13.73,27.1Zm-1,.15-.25-.05.18-.19.18-.18.21.24C13.32,27.34,13.29,27.36,12.76,27.25Zm-.75,0a1.37,1.37,0,0,1-.42,0h-.42l.21-.25.21-.24.21.22A1.63,1.63,0,0,1,12,27.21ZM11.19,27c-.21.26-.23.26-.44,0l-.17-.2h.79Zm-.45.26a1.66,1.66,0,0,1-.39,0l-.41,0,.2-.22.19-.23.19.18A1.24,1.24,0,0,0,10.74,27.21ZM9.93,27c-.09.14-.19.26-.22.26s-.12-.09-.22-.21l-.17-.2h.26a1.3,1.3,0,0,0,.4-.06C10.08,26.73,10.07,26.77,9.93,27Zm5,1.46c0,.51,0,.69-.09.68S14.5,29,14.16,29a12.85,12.85,0,0,0-3.56-.29c-.67,0-1.38.08-1.56.12l-.35.07-.08-.58a2.55,2.55,0,0,1-.06-.59,4,4,0,0,1,.72-.13,22.18,22.18,0,0,1,5.46.14l.24.05Zm.15-1.81c0,.22-.06.23-.67.11-.18,0-.92-.11-1.63-.16a20.25,20.25,0,0,0-4.16.14c-.29,0-.36,0-.36-.08s1.49-.35,3.78-.35c1.12,0,2.26,0,2.54.07C15.08,26.42,15.12,26.44,15.12,26.63Zm-.07-.45a.15.15,0,0,1,.1-.12c.07,0,.1,0,.07.07S15.05,26.3,15.05,26.18Zm0-.3a1.22,1.22,0,0,1-.26.2s-.14-.11-.26-.25l-.22-.26.19.05a2.14,2.14,0,0,0,.48.05h.3Zm.59-1.39c-.15.45-.28.86-.3.93s-.11.1-.36,0a29.47,29.47,0,0,0-6.08,0c-.76.12-.87.11-.81-.06a4,4,0,0,0,.14-.56l.09-.41L9.16,24a8.84,8.84,0,0,0,1.11-.71,4.82,4.82,0,0,1,.38-.31,21.19,21.19,0,0,1,3.21.24c.73.12,2,.37,2.06.41A8,8,0,0,1,15.67,24.49Zm.85-2c-.12.23-.28.54-.34.68-.14.3-.19.31-.87.14a23.66,23.66,0,0,0-3.2-.47l-1.18-.1.45-.18a8.12,8.12,0,0,0,.78-.38A1.14,1.14,0,0,1,13,22c.66,0,1.11-.08,1.27-.37l.15-.26a11.23,11.23,0,0,1,1.17.32l1.14.36Zm-3.47-1.1c0-.09,0-.1.08,0a.22.22,0,0,1,0,.19c0,.05,0,.06-.08,0A.33.33,0,0,1,13.05,21.4Zm.33,0a.1.1,0,0,1,0-.13s.07,0,.07.08S13.45,21.51,13.38,21.4Zm.33-.14c0-.07,0-.1.08-.07s.09.2,0,.2S13.71,21.34,13.71,21.26Zm.37.26c.06.07.07.12,0,.12a.17.17,0,0,1-.13-.09C13.89,21.41,14,21.38,14.08,21.52Zm-.31.2c0,.05,0,.07-.08,0a.36.36,0,0,1,0-.19c0-.09,0-.1.08,0A.2.2,0,0,1,13.77,21.72Zm-.35.17s-.08-.06-.08-.13,0-.11.08-.08S13.51,21.89,13.42,21.89ZM13,21.8c0-.1,0-.1.11,0s0,.09,0,.09A.09.09,0,0,1,13,21.8Zm.22-.57s-.07-.06-.07-.13,0-.11.07-.08S13.29,21.23,13.19,21.23Zm-.29,0s-.08,0-.08-.08,0-.16.11-.05A.11.11,0,0,1,12.9,21.27Zm0,.28c.07.13-.06.34-.16.27s-.06-.1,0-.21S12.83,21.5,12.86,21.55Zm-5.13-7.9c-.34-.12-.46-.23-.46-.39s.07-.12.45-.07.44,0,.42-.09-.55-.37-1.1-.34-.49,0-.46-.11a.67.67,0,0,1,.67-.45A2.13,2.13,0,0,0,7.88,12a1.29,1.29,0,0,1,.83-.14c1,.06,1.16.34,1.41,2.19.1.72.18,1.38.18,1.47s-.13.28-.47.52a7.35,7.35,0,0,0-1.47,1.48l-.18.28,0-.65c0-.36,0-1.19,0-1.84C8.18,13.93,8.15,13.8,7.73,13.65ZM6.65,24.2a2,2,0,0,0,.19-.57A3.28,3.28,0,0,1,7.68,22l.48-.6s-.07-.25-.16-.52a4.28,4.28,0,0,1,0-2.13,4.65,4.65,0,0,1,1.18-1.83c.63-.66,1.22-1.05,1.51-1s7.42,6,7.42,6.21a.11.11,0,0,1-.13.11c-.07,0-1.89-.55-4-1.22-3.45-1.08-3.94-1.25-4.09-1.45a.84.84,0,0,1,0-1,.75.75,0,0,0,.14-.32c0-.18-.36.29-.43.56a1.2,1.2,0,0,0,.29,1,10.34,10.34,0,0,0,1.46.53c1.22.39,1.31.43,1.37.65.16.52-.36,1.12-1.1,1.29a2.13,2.13,0,0,0-.75.38A9.73,9.73,0,0,1,8.86,24a3,3,0,0,0-.61.34,1.69,1.69,0,0,0-.17.53c-.08.51-.12.59-.26.59s-.09-.05,0-.21.09-.7,0-.7-.09.11-.09.29a.73.73,0,0,1-.1.39c-.08.09-.09,0-.06-.37a1,1,0,0,0,0-.47c-.07,0-.2.39-.24.74,0,.2,0,.2-.09,0a.64.64,0,0,1,.1-.55A1.67,1.67,0,0,0,7.42,24c0-.2.14-.4.82-1.14.45-.49,1-1.1,1.17-1.35.33-.44.35-.48.34-.93A2.26,2.26,0,0,0,9.69,20c-.09-.09-.2.4-.16.67s0,.33-.48.93c-.29.37-.78.92-1.08,1.23-.57.57-.78.88-.78,1.17a1.89,1.89,0,0,1-.14.51A1,1,0,0,0,7,25c0,.05,0,.05,0,0s-.06-.19,0-.45a1.18,1.18,0,0,0,0-.43c-.08-.14-.17,0-.22.43,0,.23-.07.39-.11.37S6.52,24.41,6.65,24.2Z"/><path class="cls-5" d="M14.73,27.7a22.18,22.18,0,0,0-5.46-.14,4,4,0,0,0-.72.13,2.55,2.55,0,0,0,.06.59l.08.58L9,28.79c.18,0,.89-.09,1.56-.12a12.85,12.85,0,0,1,3.56.29c.34.08.67.16.72.16S15,29,15,28.44v-.69Z"/><path class="cls-5" d="M8.38,28c-.33-1.93-.54-2.5-.92-2.51a1,1,0,0,1-.39-.17c-.14-.09-.25-.14-.25-.1s.1.45.23.93c.18.7.59,2.68.59,2.84s.1,0,.51-.05.37-.11.34-.26S8.42,28.29,8.38,28Z"/><path class="cls-5" d="M15.05,27.35c0-.11,0-.11-.11,0s-.1.14-.07.18S15.05,27.5,15.05,27.35Z"/><path class="cls-5" d="M9.27,27.12c-.15-.16-.16-.15-.36.06l-.19.22h.22a.87.87,0,0,0,.35-.07C9.42,27.28,9.42,27.27,9.27,27.12Z"/><path class="cls-5" d="M14,27.11a.63.63,0,0,0-.18.2c0,.06.08.09.28.09h.31l-.14-.19C14.14,27,14.1,27,14,27.11Z"/><path class="cls-5" d="M14.33,26.94s0,.13.13.25l.16.23.18-.2L15,27,14.67,27A1.34,1.34,0,0,0,14.33,26.94Z"/><path class="cls-5" d="M8.64,27.16c.22-.23.22-.25,0-.25s-.34.13-.28.29S8.47,27.33,8.64,27.16Z"/><path class="cls-5" d="M10.33,26.83l-.19.23-.2.22.41,0a1.66,1.66,0,0,0,.39,0,1.24,1.24,0,0,1-.22-.2Z"/><path class="cls-5" d="M12.87,26.83l-.18.18-.18.19.25.05c.53.11.56.09.32-.18Z"/><path class="cls-5" d="M10,26.77a1.3,1.3,0,0,1-.4.06H9.32l.17.2c.1.12.19.21.22.21s.13-.12.22-.26S10.08,26.73,10,26.77Z"/><path class="cls-5" d="M11.59,26.75l-.21.24-.21.25h.42a1.37,1.37,0,0,0,.42,0A1.63,1.63,0,0,0,11.8,27Z"/><path class="cls-5" d="M13.17,26.83l.17.2c.21.25.21.25.39.07s.16-.27-.22-.27Z"/><path class="cls-5" d="M10.58,26.75l.17.2c.21.26.23.26.44,0l.18-.2h-.79Z"/><path class="cls-5" d="M12.08,27c.22.26.23.26.45,0l.17-.2h-.79Z"/><path class="cls-5" d="M14.62,26.36c-.28,0-1.42-.07-2.54-.07-2.29,0-3.78.14-3.78.35s.07.12.36.08a20.25,20.25,0,0,1,4.16-.14c.71.05,1.45.13,1.63.16.61.12.67.11.67-.11S15.08,26.42,14.62,26.36Z"/><path class="cls-5" d="M9,25.76a1.48,1.48,0,0,0-.34.28c-.2.21-.24.28-.13.25l.51-.08.36-.05L9.26,26C9.17,25.85,9.07,25.76,9,25.76Z"/><path class="cls-5" d="M8.46,26c.2-.21.21-.24.09-.27a.59.59,0,0,0-.29.05c-.13.05-.15.1-.09.26l.06.2Z"/><path class="cls-5" d="M15.22,26.13c0-.08,0-.1-.07-.07a.15.15,0,0,0-.1.12C15.05,26.3,15.17,26.26,15.22,26.13Z"/><path class="cls-5" d="M9.87,26.13l.43,0,.44,0-.24-.23a2.39,2.39,0,0,0-.23-.22,2.21,2.21,0,0,1-.2.26Z"/><path class="cls-5" d="M14.16,25.65l-.22.22-.23.21.32,0,.4,0c.15,0,.11-.1-.08-.31Z"/><path class="cls-5" d="M9.59,25.63l-.36.06.21.19.22.19.17-.22A.63.63,0,0,0,10,25.6,1.62,1.62,0,0,0,9.59,25.63Z"/><path class="cls-5" d="M12.7,25.77l-.18.19.17.06a1.44,1.44,0,0,0,.38.06c.17,0,.19,0,.13-.14a1,1,0,0,0-.19-.26C12.91,25.59,12.86,25.6,12.7,25.77Z"/><path class="cls-5" d="M14.53,25.62l-.19-.05.22.26c.12.14.24.26.26.25a1.22,1.22,0,0,0,.26-.2l.23-.2H15A2.14,2.14,0,0,1,14.53,25.62Z"/><path class="cls-5" d="M11.3,25.68l.14-.17H11a.83.83,0,0,0-.42.06.72.72,0,0,0,.16.24C10.93,26,11.05,26,11.3,25.68Z"/><path class="cls-5" d="M11.44,25.79l-.21.21h.4c.39,0,.4,0,.29-.18S11.68,25.56,11.44,25.79Z"/><path class="cls-5" d="M13.29,25.51h-.18l.17.24a1.69,1.69,0,0,0,.2.25,1.49,1.49,0,0,0,.24-.19l.21-.2-.23-.05A2.17,2.17,0,0,0,13.29,25.51Z"/><path class="cls-5" d="M12.08,25.72c.22.25.23.25.45,0l.17-.21h-.79Z"/><path class="cls-5" d="M13.86,23.25A21.19,21.19,0,0,0,10.65,23a4.82,4.82,0,0,0-.38.31A8.84,8.84,0,0,1,9.16,24l-.81.45-.09.41a4,4,0,0,1-.14.56c-.06.17.05.18.81.06a29.47,29.47,0,0,1,6.08,0c.25.05.34,0,.36,0s.15-.48.3-.93a8,8,0,0,0,.25-.83C15.87,23.62,14.59,23.37,13.86,23.25Zm-3.53,1.57a.78.78,0,0,1-.11-1,.7.7,0,0,1,.93-.33.86.86,0,0,1,.18,1.41A.63.63,0,0,1,10.33,24.82Zm4,.12a.73.73,0,0,1-1.26-.58.76.76,0,0,1,.74-.83A.83.83,0,0,1,14.31,24.94Z"/><path d="M13.79,23.53a.76.76,0,0,0-.74.83.73.73,0,0,0,1.26.58A.83.83,0,0,0,13.79,23.53Zm-.28,1.39a.68.68,0,0,1,.05-1.14.59.59,0,0,1,.82.59A.61.61,0,0,1,13.51,24.92Z"/><path class="cls-5" d="M14.38,24.37a.59.59,0,0,0-.82-.59.68.68,0,0,0-.05,1.14A.61.61,0,0,0,14.38,24.37Z"/><path d="M11.15,23.48a.7.7,0,0,0-.93.33.78.78,0,0,0,.11,1,.63.63,0,0,0,1,.07A.86.86,0,0,0,11.15,23.48Zm0,1.33c-.23.14-.26.14-.49,0a.67.67,0,0,1,.24-1.23A.65.65,0,0,1,11.11,24.81Z"/><path class="cls-5" d="M10.86,23.62a.67.67,0,0,0-.24,1.23c.23.1.26.1.49,0A.65.65,0,0,0,10.86,23.62Z"/><path class="cls-5" d="M6.59,24.89s.09-.14.11-.37c0-.39.14-.57.22-.43a1.18,1.18,0,0,1,0,.43c0,.26,0,.38,0,.45S7,25,7,25a1,1,0,0,1,.1-.44A1.89,1.89,0,0,0,7.19,24c0-.29.21-.6.78-1.17.3-.31.79-.86,1.08-1.23.48-.6.52-.68.48-.93s.07-.76.16-.67a2.26,2.26,0,0,1,.06.52c0,.45,0,.49-.34.93-.19.25-.72.86-1.17,1.35-.68.74-.82.94-.82,1.14a1.67,1.67,0,0,1-.16.55.64.64,0,0,0-.1.55c.06.24.06.24.09,0,0-.35.17-.74.24-.74a1,1,0,0,1,0,.47c0,.39,0,.46.06.37a.73.73,0,0,0,.1-.39c0-.18,0-.29.09-.29s.13.39,0,.7,0,.21,0,.21.18-.08.26-.59a1.69,1.69,0,0,1,.17-.53A3,3,0,0,1,8.86,24a9.73,9.73,0,0,0,1.91-1.29,2.13,2.13,0,0,1,.75-.38c.74-.17,1.26-.77,1.1-1.29-.06-.22-.15-.26-1.37-.65a10.34,10.34,0,0,1-1.46-.53,1.2,1.2,0,0,1-.29-1c.07-.27.43-.74.43-.56a.75.75,0,0,1-.14.32.84.84,0,0,0,0,1c.15.2.64.37,4.09,1.45,2.16.67,4,1.22,4,1.22a.11.11,0,0,0,.13-.11c0-.17-7.17-6.17-7.42-6.21s-.88.34-1.51,1A4.65,4.65,0,0,0,8,18.72a4.28,4.28,0,0,0,0,2.13c.09.27.16.5.16.52l-.48.6a3.28,3.28,0,0,0-.84,1.66,2,2,0,0,1-.19.57C6.52,24.41,6.48,24.81,6.59,24.89Z"/><path class="cls-5" d="M15.6,21.72a11.23,11.23,0,0,0-1.17-.32l-.15.26c-.16.29-.61.42-1.27.37a1.14,1.14,0,0,0-.85.16,8.12,8.12,0,0,1-.78.38l-.45.18,1.18.1a23.66,23.66,0,0,1,3.2.47c.68.17.73.16.87-.14.06-.14.22-.45.34-.68l.22-.42Z"/><path class="cls-5" d="M12.71,21.61c-.07.11-.07.17,0,.21s.23-.14.16-.27S12.77,21.52,12.71,21.61Z"/><path class="cls-5" d="M13.08,21.8c-.06-.1-.11-.1-.11,0a.09.09,0,0,0,.08.09S13.11,21.85,13.08,21.8Z"/><path class="cls-5" d="M13.34,21.76c0,.07,0,.13.08.13s.09-.14,0-.21S13.34,21.69,13.34,21.76Z"/><path class="cls-5" d="M13.64,21.57a.36.36,0,0,0,0,.19s.07,0,.08,0a.2.2,0,0,0,0-.19C13.66,21.47,13.64,21.48,13.64,21.57Z"/><path class="cls-5" d="M13.18,21.56a.22.22,0,0,0,0-.19c-.06-.07-.08-.06-.08,0a.33.33,0,0,0,0,.19S13.17,21.61,13.18,21.56Z"/><path class="cls-5" d="M14,21.55a.17.17,0,0,0,.13.09c.05,0,0-.05,0-.12S13.89,21.41,14,21.55Z"/><path class="cls-5" d="M13.49,21.35c0-.07,0-.11-.07-.08a.1.1,0,0,0,0,.13C13.45,21.51,13.49,21.49,13.49,21.35Z"/><path class="cls-5" d="M13.79,21.39c.09,0,.09-.14,0-.2s-.08,0-.08.07S13.75,21.39,13.79,21.39Z"/><path class="cls-5" d="M12.82,21.19c0,.07,0,.11.08.08a.11.11,0,0,0,0-.13C12.87,21,12.82,21.05,12.82,21.19Z"/><path class="cls-5" d="M13.12,21.1c0,.07,0,.13.07.13s.1-.14,0-.21S13.12,21,13.12,21.1Z"/><path class="cls-5" d="M8.14,15.3c0,.65,0,1.48,0,1.84l0,.65.18-.28A7.35,7.35,0,0,1,9.83,16c.34-.24.47-.39.47-.52s-.08-.75-.18-1.47c-.25-1.85-.44-2.13-1.41-2.19a1.29,1.29,0,0,0-.83.14,2.13,2.13,0,0,1-.63.21.67.67,0,0,0-.67.45c0,.13,0,.14.46.11s1.07.13,1.1.34,0,.13-.42.09-.45,0-.45.07.12.27.46.39S8.18,13.93,8.14,15.3Zm.77-2.85a.3.3,0,0,1-.05.38c-.17.2-.35.21-.51,0a.34.34,0,0,1,0-.5c.1-.09.11-.07.11.15s0,.26.16.26.15,0,.12-.21S8.8,12.2,8.91,12.45Z"/><path d="M8.61,12.75c-.13,0-.16-.05-.16-.26s0-.24-.11-.15a.34.34,0,0,0,0,.5c.16.2.34.19.51,0a.3.3,0,0,0,.05-.38c-.11-.25-.23-.2-.18.09S8.74,12.75,8.61,12.75Z"/></svg>