<svg width="40" height="40" viewBox="0 0 40 40" fill="none" xmlns="http://www.w3.org/2000/svg">
<g clip-path="url(#clip0_8925_96906)">
<path d="M0 20.0003C0 21.1778 0 21.3089 0.0375 22.3089C0.102857 24.5239 0.346071 27.0661 1.23464 29.7482C1.86143 31.6453 3.03964 33.6921 4.21821 34.9818C5.71464 36.6268 7.78143 37.9725 10.0071 38.7389C12.2893 39.5239 14.7582 39.9071 19.5557 40.0007H20.4443C25.2514 39.8979 27.7111 39.5239 29.9929 38.7389C32.2282 37.9725 34.2857 36.6268 35.7914 34.9818C36.97 33.6828 38.1482 31.6453 38.775 29.7482C39.6636 27.0661 39.9068 24.5146 39.9721 22.3089C40.0004 21.3182 40.0004 21.1782 40.0004 20.0003C40.0004 18.8225 40.0004 18.6825 39.9721 17.6918C39.8975 15.4768 39.6636 12.9346 38.775 10.2525C38.1486 8.35535 36.97 6.30856 35.7914 5.01892C34.295 3.37393 32.2282 2.02821 29.9929 1.26178C27.7107 0.476785 25.2418 0.0935713 20.4443 0H19.5557C14.7486 0.102857 12.2889 0.476785 10.0071 1.26178C7.77179 2.02821 5.71429 3.37393 4.21821 5.01892C3.03964 6.31785 1.86143 8.35535 1.23464 10.2525C0.346071 12.935 0.102857 15.4771 0.0375 17.6918C0 18.6825 0 18.8225 0 20.0003Z" fill="#266798"/>
<path d="M8.92773 21.0632V20.1875C8.92773 20.1875 8.94991 20.1328 8.94991 20.1109C8.99423 19.7059 9.01638 19.3009 9.08288 18.8959C9.24913 17.8013 9.60377 16.7615 10.1025 15.7763C10.4128 15.1634 10.7785 14.5942 11.1997 14.0578C11.5986 13.5434 12.0419 13.0727 12.5296 12.6349C13.2278 12.011 13.9814 11.4856 14.8126 11.0478C15.3888 10.7522 15.9984 10.5005 16.619 10.3035C17.4945 10.0298 18.3922 9.87656 19.301 9.83278C19.8551 9.81089 20.4092 9.84374 20.9523 9.99696C21.584 10.1721 22.127 10.5005 22.5814 10.9711C23.2464 11.6826 23.9224 12.3722 24.5873 13.0727C25.0417 13.5434 25.485 14.0141 25.9394 14.4847C26.6819 15.2619 27.4245 16.0281 28.167 16.8053C28.3776 17.0242 28.5992 17.2541 28.8098 17.473C27.8567 18.4471 26.9147 19.3994 25.9505 20.3955C23.9224 18.3815 21.9054 16.3893 19.8994 14.3972C17.7938 16.4769 15.6881 18.5566 13.6046 20.6035C15.6992 22.6832 17.8048 24.7629 19.9216 26.8535C19.9438 26.8316 19.9659 26.7879 19.9992 26.755C22.0384 24.741 24.0776 22.727 26.1167 20.7129C26.1832 20.6472 26.2497 20.6144 26.3495 20.6144C27.7902 20.6144 29.2309 20.6144 30.6717 20.6144H30.8379C30.8268 20.8771 30.8379 21.1179 30.8047 21.3587C30.7492 21.8622 30.6938 22.3657 30.5941 22.8692C30.3613 23.9748 29.9513 25.0256 29.3639 26.0107C28.8098 26.9411 28.1338 27.7839 27.3358 28.5173C26.6376 29.1521 25.8729 29.6995 25.0417 30.1482C24.2106 30.5861 23.3461 30.9254 22.4373 31.1224C21.9164 31.2319 21.3845 31.2975 20.8525 31.3742C20.7196 31.396 20.5866 31.407 20.4425 31.4289H19.3342C19.3342 31.4289 19.2567 31.407 19.2234 31.407C18.9796 31.3851 18.7358 31.3851 18.5031 31.3523C17.694 31.2428 16.9072 31.0567 16.1424 30.7831C15.1339 30.4219 14.1919 29.9184 13.3386 29.2835C12.3633 28.5611 11.5321 27.7073 10.845 26.7112C10.2466 25.8465 9.78109 24.9052 9.44863 23.9091C9.16048 23.0116 8.98316 22.0921 8.94991 21.1398C8.94991 21.107 8.92773 21.0851 8.92773 21.0522" fill="white"/>
<path d="M31.0711 15.2179C30.4727 15.809 29.8964 16.4001 29.2979 17.0021C29.1428 16.8379 28.9876 16.6846 28.8435 16.5314C28.4778 16.1483 28.1121 15.7652 27.7464 15.3821C27.0703 14.6706 26.3832 13.9591 25.7072 13.2477C25.3193 12.8427 24.9425 12.4377 24.5546 12.0327C24.0891 11.5401 23.6237 11.0585 23.1582 10.5659C22.7814 10.1609 22.327 9.87636 21.8172 9.65743C21.1855 9.39475 20.5316 9.26339 19.8445 9.26339C19.6672 9.26339 19.4899 9.28528 19.2793 9.30718C19.3569 9.2415 19.4123 9.19771 19.4677 9.15393C19.8445 8.90218 20.2657 8.78175 20.6979 8.69421C21.1744 8.59568 21.662 8.56286 22.1497 8.57378C23.1028 8.59568 24.0337 8.77082 24.8982 9.20864C25.3969 9.46039 25.8069 9.83257 26.1837 10.2266C26.6713 10.7411 27.17 11.2446 27.6688 11.7481C28.3559 12.4596 29.0541 13.1601 29.7412 13.8716C30.1513 14.2875 30.5613 14.7144 30.9714 15.1304C30.9935 15.1522 31.0157 15.1851 31.0489 15.2179" fill="white"/>
</g>
<defs>
<clipPath id="clip0_8925_96906">
<rect width="40" height="40" fill="white"/>
</clipPath>
</defs>
</svg>
