<svg width="40" height="40" viewBox="0 0 40 40" fill="none" xmlns="http://www.w3.org/2000/svg">
<g clip-path="url(#clip0_8925_96899)">
<path fill-rule="evenodd" clip-rule="evenodd" d="M4.60547 4.60643L9.99804 10.0009L19.9989 0H19.561C14.7528 0.102804 12.2925 0.476636 10.01 1.26168C7.96404 1.96298 6.06697 3.14951 4.60547 4.60643Z" fill="#008CCF"/>
<path fill-rule="evenodd" clip-rule="evenodd" d="M0 19.9983L9.99739 10.0009L4.60482 4.60645C4.46921 4.74162 4.33739 4.87909 4.20954 5.01873C3.03087 6.3178 1.8522 8.35519 1.22544 10.2524C0.346118 12.9346 0.1029 15.4767 0.0280636 17.6916C1.37942e-05 18.6818 0 18.8223 0 19.9983Z" fill="#0098D7"/>
<path fill-rule="evenodd" clip-rule="evenodd" d="M3.87686e-05 20.3571H20.3571L10.0036 10L0 20.0001C0 20.1312 1.21483e-08 20.2494 3.87686e-05 20.3571Z" fill="#008CCF"/>
<path fill-rule="evenodd" clip-rule="evenodd" d="M20.0013 0L10.0039 9.99739L20.0013 19.9982V0Z" fill="#007AC6"/>
<path fill-rule="evenodd" clip-rule="evenodd" d="M20.002 0V19.9982L29.9959 10.0009L20.002 0Z" fill="#0067B6"/>
<path fill-rule="evenodd" clip-rule="evenodd" d="M40.0002 19.9984L30.0028 9.99756L20.002 19.9984H40.0002Z" fill="#004294"/>
<path fill-rule="evenodd" clip-rule="evenodd" d="M0 19.998L9.99739 30.0024L19.9982 19.998H0Z" fill="#007AC6"/>
<path fill-rule="evenodd" clip-rule="evenodd" d="M0.0280636 22.3082C0 21.3082 0 21.1774 0 19.9998V19.998L9.99739 30.0024L4.60368 35.3942C4.46832 35.2588 4.33686 35.121 4.20954 34.9811C3.03087 33.6914 1.8522 31.6447 1.22544 29.7474C0.336763 27.0652 0.1029 24.5232 0.0280636 22.3082Z" fill="#0067B6"/>
<path fill-rule="evenodd" clip-rule="evenodd" d="M19.3884 39.9964H20.0016L10.0042 29.9956L4.60352 35.3944C6.05909 36.851 7.96366 38.0371 10.0092 38.7382C12.2643 39.5139 14.7021 39.8971 19.3884 39.9964Z" fill="#0054A7"/>
<path fill-rule="evenodd" clip-rule="evenodd" d="M20.0013 19.998V39.9962L10.0039 29.9954L20.0013 19.998Z" fill="#004898"/>
<path fill-rule="evenodd" clip-rule="evenodd" d="M29.9959 30.0024L20.002 19.998H39.9966L29.9959 30.0024Z" fill="#092C86"/>
<path fill-rule="evenodd" clip-rule="evenodd" d="M20.002 39.9962V19.998L29.9959 30.0024L20.002 39.9962Z" fill="#004294"/>
<path fill-rule="evenodd" clip-rule="evenodd" d="M35.3982 35.3929L30.0028 29.9956L20.002 39.9964H20.6071C25.3116 39.8889 27.7428 39.5146 30.0002 38.7382C32.0465 38.0367 33.9438 36.85 35.3982 35.3929Z" fill="#092C86"/>
<path fill-rule="evenodd" clip-rule="evenodd" d="M39.9993 19.998L30.002 29.9954L35.3974 35.3927C35.5321 35.2578 35.663 35.1205 35.7897 34.9811C36.9686 33.682 38.1472 31.6447 38.774 29.7474C39.6626 27.0652 39.9058 24.5138 39.9711 22.3082C39.9993 21.3176 39.9993 21.1774 39.9993 19.9999C39.9993 19.9994 39.9993 19.9986 39.9993 19.998Z" fill="#092C86"/>
<path fill-rule="evenodd" clip-rule="evenodd" d="M20.002 0L29.9959 10.0009L35.3938 4.60289C33.9387 3.14759 32.0359 1.96241 30.0002 1.26168C27.7177 0.476636 25.2481 0.0934579 20.4492 0H20.002Z" fill="#0054A7"/>
<path fill-rule="evenodd" clip-rule="evenodd" d="M35.3947 4.60449L30.002 9.99728L39.9993 19.9981C39.9993 18.8222 39.9993 18.691 39.9711 17.6915C39.8965 15.4765 39.6626 12.9345 38.774 10.2522C38.1472 8.35503 36.9686 6.30828 35.7897 5.01856C35.6622 4.87831 35.5304 4.74024 35.3947 4.60449Z" fill="#004898"/>
<path fill-rule="evenodd" clip-rule="evenodd" d="M39.8089 24.8224L27.1918 12.8042L7.75977 32.2849L14.8497 39.3746L27.1918 27.2167L35.4051 35.3854C35.5371 35.2528 35.6654 35.1181 35.7899 34.9813C36.9685 33.6822 38.1474 31.6448 38.7742 29.7476C39.3417 28.0338 39.6464 26.3733 39.8089 24.8224Z" fill="white"/>
</g>
<defs>
<clipPath id="clip0_8925_96899">
<rect width="40" height="40" fill="white"/>
</clipPath>
</defs>
</svg>
