<svg width="40" height="40" viewBox="0 0 40 40" fill="none" xmlns="http://www.w3.org/2000/svg">
<path d="M0 19.9999C0 21.1728 0 21.3102 0.0325 22.3019C0.0662633 24.8275 0.470567 27.3345 1.2325 29.7428C1.8794 31.6623 2.89175 33.4386 4.21375 34.9739C5.80753 36.6798 7.79683 37.9675 10.0063 38.7237C13.1001 39.6609 16.3263 40.087 19.5575 39.9853H20.4437C23.675 40.087 26.9012 39.6609 29.995 38.7237C32.2049 37.9661 34.1943 36.6766 35.7875 34.9689C37.1088 33.4352 38.1208 31.6606 38.7675 29.7428C39.5292 27.3365 39.9339 24.8317 39.9688 22.3082C40 21.3102 40 21.174 40 19.9999C40 18.8257 40 18.6896 39.9688 17.6966C39.934 15.1734 39.5292 12.6691 38.7675 10.2632C38.1213 8.34343 37.1089 6.56696 35.7863 5.03207C34.1931 3.32402 32.2038 2.03408 29.9938 1.27606C26.8997 0.339768 23.6737 -0.0863448 20.4425 0.014485H19.5563C16.3255 -0.0862086 13.0999 0.339902 10.0063 1.27606C7.79621 2.03408 5.80686 3.32402 4.21375 5.03207C2.89132 6.56756 1.87894 8.34441 1.2325 10.2645C0.47115 12.6704 0.0668514 15.1748 0.0325 17.6978C0 18.6896 0 18.8257 0 19.9999Z" fill="#00A84D"/>
<path d="M20.0095 11.1518L15.752 9.01465L20.0095 17.1075L24.272 9.01465L20.0095 11.1518Z" fill="#FAC109"/>
<path d="M25.9241 15.4367L25.8566 15.3805L28.9816 14.064V9.66846L23.5504 11.9843C23.5504 11.9843 20.6054 17.5614 20.5391 17.6888C21.6968 17.8252 22.7585 18.3984 23.5071 19.2913C24.2557 20.1841 24.6346 21.3291 24.5663 22.4919C24.4979 23.6547 23.9875 24.7474 23.1395 25.5465C22.2914 26.3457 21.1698 26.7908 20.0041 26.7908C18.8385 26.7908 17.7169 26.3457 16.8688 25.5465C16.0208 24.7474 15.5104 23.6547 15.442 22.4919C15.3737 21.3291 15.7525 20.1841 16.5012 19.2913C17.2498 18.3984 18.3115 17.8252 19.4691 17.6888L16.4629 11.9843L11.0354 9.66846V14.064L14.1604 15.3805L14.0941 15.4367C12.7132 16.6402 11.7328 18.2362 11.284 20.0114C10.8351 21.7866 10.9392 23.6565 11.5823 25.371C12.2254 27.0855 13.3769 28.563 14.8828 29.606C16.3888 30.6491 18.1774 31.2079 20.0098 31.2079C21.8421 31.2079 23.6308 30.6491 25.1367 29.606C26.6427 28.563 27.7941 27.0855 28.4372 25.371C29.0803 23.6565 29.1844 21.7866 28.7356 20.0114C28.2867 18.2362 27.3063 16.6402 25.9254 15.4367" fill="#FAC109"/>
</svg>
