<svg width="40" height="40" viewBox="0 0 40 40" fill="none" xmlns="http://www.w3.org/2000/svg">
<g clip-path="url(#clip0_8925_96904)">
<path d="M0 20.0001C0 21.1777 0 21.3085 0.028057 22.3085C0.102876 24.5235 0.336684 27.0655 1.22516 29.7478C1.85176 31.645 3.03016 33.6917 4.20855 34.9815C5.70493 36.6263 7.7718 37.972 10.007 38.7386C12.289 39.5235 14.758 39.8975 19.5557 40H20.4442C25.2513 39.8975 27.711 39.5235 29.9929 38.7386C32.2282 37.972 34.2857 36.6263 35.7915 34.9815C36.9697 33.6824 38.1481 31.645 38.7747 29.7478C39.6631 27.0655 39.9064 24.5141 39.9718 22.3085C40 21.3178 40 21.1777 40 20.0001C40 18.8225 40 18.6917 39.9718 17.6917C39.8971 15.4767 39.6631 12.9346 38.7747 10.2524C38.1481 8.35516 36.9697 6.30842 35.7915 5.01872C34.295 3.37384 32.2282 2.02805 29.9929 1.26169C27.711 0.476638 25.242 0.0934582 20.4442 0H19.5557C14.7486 0.102804 12.289 0.476638 10.007 1.26169C7.7718 2.02805 5.71429 3.37384 4.20855 5.01872C3.03016 6.31778 1.85176 8.35516 1.22516 10.2524C0.346036 12.9346 0.102876 15.4767 0.028057 17.6917C0 18.6823 0 18.8225 0 20.0001Z" fill="#C40103"/>
<path d="M19.9911 8.56984C13.6604 8.56984 8.56249 13.6579 8.57228 19.969C8.57228 26.2703 13.6701 31.3975 19.9715 31.4269C26.2729 31.4562 31.4392 26.2801 31.4294 19.9494C31.4196 13.6285 26.3218 8.56005 19.9911 8.56984ZM19.9911 29.7634C14.6095 29.7634 10.2064 25.3506 10.2064 19.969C10.2064 14.5874 14.6192 10.1941 20.0009 10.2039C25.3922 10.2039 29.7856 14.607 29.7758 19.9886C29.7758 25.3701 25.3629 29.7634 19.9813 29.7634" fill="white"/>
<path d="M15.7334 22.4345H19.2656V17.2486H15.9389V15.3308H19.2559V13.9414H14.2754V18.8827H17.4555V20.8788H14.2559V25.595H19.2656V24.0979H15.7334V22.4345Z" fill="white"/>
<path d="M24.4425 22.4345H20.9004V17.2486H24.2272V15.3308H20.9102V13.9414H25.8906V18.8827H22.7106V20.8788H25.9102V25.595H20.9004V24.0979H24.4425V22.4345Z" fill="white"/>
</g>
<defs>
<clipPath id="clip0_8925_96904">
<rect width="40" height="40" fill="white"/>
</clipPath>
</defs>
</svg>
