<svg width="40" height="40" viewBox="0 0 40 40" fill="none" xmlns="http://www.w3.org/2000/svg">
<g clip-path="url(#clip0_8925_96888)">
<path d="M0 20C0 21.1776 0 21.3084 0.0280636 22.3084C0.1029 24.5234 0.336763 27.0654 1.22544 29.7476C1.8522 31.6449 3.03087 33.6916 4.20954 34.9813C5.70625 36.6261 7.77361 37.9718 10.0094 38.7382C12.2919 39.5232 14.7615 39.9064 19.5603 40H20.449C25.2573 39.8971 27.7175 39.5232 30 38.7382C32.2358 37.9718 34.2937 36.6261 35.7904 34.9813C36.9693 33.6823 38.1479 31.6449 38.7746 29.7476C39.6632 27.0654 39.9064 24.514 39.9718 22.3084C40 21.3178 40 21.1776 40 20C40 18.8224 40 18.6916 39.9718 17.6916C39.8971 15.4766 39.6632 12.9346 38.7746 10.2523C38.1479 8.35514 36.9693 6.30839 35.7904 5.01868C34.2937 3.37383 32.2264 2.02804 30 1.26168C27.7175 0.476636 25.2479 0.0934579 20.449 0H19.5603C14.7521 0.102804 12.2919 0.476636 10.0094 1.26168C7.77361 2.02804 5.71561 3.37383 4.20954 5.01868C3.03087 6.31775 1.8522 8.35514 1.22544 10.2523C0.346118 12.9346 0.1029 15.4766 0.0280636 17.6916C0 18.6823 0 18.8224 0 20Z" fill="url(#paint0_linear_8925_96888)"/>
<mask id="mask0_8925_96888" style="mask-type:luminance" maskUnits="userSpaceOnUse" x="7" y="11" width="26" height="17">
<path d="M32.5 11.0713H7.5V27.1427H32.5V11.0713Z" fill="white"/>
</mask>
<g mask="url(#mask0_8925_96888)">
<path d="M15.189 23.9293L15.1436 23.9728C14.4315 24.6909 13.6074 25.0704 12.7585 25.0704C10.9856 25.0704 9.6995 23.754 9.6995 21.9383C9.6995 20.1254 10.9856 18.8069 12.7585 18.8069C13.6074 18.8069 14.4315 19.1884 15.1436 19.9094L15.189 19.9522L16.3291 18.5874L16.2986 18.5509C15.3505 17.4422 14.2125 16.9028 12.8138 16.9028C11.4115 16.9028 10.1275 17.3706 9.2035 18.2129C8.19729 19.126 7.66797 20.4136 7.66797 21.9383C7.66797 23.4629 8.19729 24.7534 9.2035 25.6665C10.1275 26.5137 11.4115 26.9779 12.8138 26.9779C14.2125 26.9779 15.3505 26.4379 16.2986 25.3284L16.3291 25.2948L15.189 23.9293Z" fill="white"/>
<path d="M17.4805 26.792H19.4943V17.0605H17.4805V26.792Z" fill="white"/>
<path d="M27.3829 24.6763C26.8451 25.0003 26.3455 25.1637 25.8963 25.1637C25.2451 25.1637 24.9503 24.8228 24.9503 24.0654V18.9016H27.0031V17.0698H24.9503V14.0415L22.9769 15.0879V17.0698H21.2734V18.9016H22.9769V24.3943C22.9769 25.8902 23.8726 26.9141 25.2104 26.9408C26.1181 26.9583 26.6651 26.6904 26.9968 26.4941L27.018 26.4808L27.502 24.604L27.3829 24.6763Z" fill="white"/>
<path d="M29.0508 26.792H31.0675V17.0605H29.0508V26.792Z" fill="white"/>
<path d="M32.2425 15.3544C30.4023 12.775 27.3469 11.2363 24.2383 11.2363C21.1304 11.2363 18.0742 12.775 16.2375 15.3544L16.1426 15.487H18.4597L18.4852 15.4596C20.0618 13.848 22.121 12.9966 24.2383 12.9966C26.3555 12.9966 28.4133 13.848 29.9934 15.4596L30.019 15.487H32.3346L32.2425 15.3544Z" fill="#EE1C25"/>
</g>
</g>
<defs>
<linearGradient id="paint0_linear_8925_96888" x1="20" y1="0" x2="20" y2="40" gradientUnits="userSpaceOnUse">
<stop stop-color="#02BDF4"/>
<stop offset="1" stop-color="#014B8A"/>
</linearGradient>
<clipPath id="clip0_8925_96888">
<rect width="40" height="40" fill="white"/>
</clipPath>
</defs>
</svg>
