<svg width="40" height="40" viewBox="0 0 40 40" fill="none" xmlns="http://www.w3.org/2000/svg">
<g clip-path="url(#clip0_8925_96900)">
<path d="M0 20C0 21.1776 0 21.3084 0.0280636 22.3084C0.1029 24.5234 0.336763 27.0654 1.22544 29.7476C1.8522 31.6449 3.03087 33.6916 4.20954 34.9813C5.70625 36.6261 7.77361 37.9718 10.0094 38.7382C12.2919 39.5232 14.7615 39.9064 19.5603 40H20.449C25.2573 39.8971 27.7175 39.5232 30 38.7382C32.2358 37.9718 34.2937 36.6261 35.7904 34.9813C36.9693 33.6823 38.1479 31.6449 38.7746 29.7476C39.6632 27.0654 39.9064 24.514 39.9718 22.3084C40 21.3178 40 21.1776 40 20C40 18.8224 40 18.6916 39.9718 17.6916C39.8971 15.4766 39.6632 12.9346 38.7746 10.2523C38.1479 8.35514 36.9693 6.30839 35.7904 5.01868C34.2937 3.37383 32.2264 2.02804 30 1.26168C27.7175 0.476636 25.2479 0.0934579 20.449 0H19.5603C14.7521 0.102804 12.2919 0.476636 10.0094 1.26168C7.77361 2.02804 5.71561 3.37383 4.20954 5.01868C3.03087 6.31775 1.8522 8.35514 1.22544 10.2523C0.346118 12.9346 0.1029 15.4766 0.0280636 17.6916C0 18.6823 0 18.8224 0 20Z" fill="#0072BB"/>
<path fill-rule="evenodd" clip-rule="evenodd" d="M36.4294 20.9134V20.874C36.4294 20.8294 36.4291 20.7848 36.4283 20.7403C36.4291 20.7991 36.4291 20.8567 36.4294 20.9134ZM3.5988 21.5277C3.58119 21.3114 3.57227 21.0934 3.57227 20.874C3.57227 20.7426 3.57544 20.6118 3.5818 20.4815C3.69152 20.188 4.6028 18.3028 9.93737 17.8815C9.93737 17.8815 12.617 17.7168 15.2992 18.2029C15.2992 18.2029 10.5883 16.2619 15.0466 13.9771C15.0466 13.9771 18.7308 11.8584 26.2002 13.382C26.2002 13.382 27.0646 13.7064 26.2002 14.0501C26.2002 14.0501 23.1196 14.6254 22.3771 16.3811C22.3771 16.3811 21.9806 17.3462 22.8178 18.1536C22.8178 18.1536 23.4719 18.6421 22.3481 18.619C22.3481 18.619 17.4964 17.8815 13.8785 19.9747C13.8785 19.9747 11.2677 21.3598 13.3223 23.2078C13.3223 23.2078 14.1159 23.7144 13.0874 23.8529C13.0874 23.8529 5.71334 24.8218 3.63605 21.5919L3.5988 21.5277ZM19.807 9.46514C19.8674 9.46468 19.9279 9.46446 19.9885 9.46446C20.1332 9.46446 20.2774 9.46564 20.4211 9.46803C20.2814 9.46557 20.1413 9.46436 20.0008 9.46436C19.9361 9.46436 19.8715 9.46461 19.807 9.46514ZM35.8716 17.9152C35.8976 17.9905 35.9223 18.0662 35.9462 18.1422C34.5565 17.7323 33.1297 17.7168 33.1297 17.7168C27.7168 17.1647 25.0087 18.6851 25.0087 18.6851C20.6742 20.8569 25.0087 22.904 25.0087 22.904C20.8801 22.2127 17.7281 22.977 17.7281 22.977C15.4911 23.3394 14.3243 24.2429 14.3243 24.2429C11.7545 26.0179 14.6046 27.5389 14.6046 27.5389C17.7281 29.2515 22.6303 28.6464 22.6303 28.6464C24.1273 28.6464 23.0521 27.7704 23.0521 27.7704C21.5089 26.686 22.7237 25.4201 22.7237 25.4201C24.0288 24.0351 25.5713 23.8529 25.5713 23.8529C28.6973 22.8815 32.2944 23.3394 32.2944 23.3394C33.412 23.5247 32.4781 22.5596 32.4781 22.5596C31.7792 22.0043 32.2003 20.8039 32.2003 20.8039C33.6854 18.9266 36.1073 18.6243 36.1073 18.6243C36.1116 18.6366 36.1155 18.6488 36.1194 18.661C36.1226 18.6703 36.1255 18.6796 36.1283 18.6888C36.0555 18.4276 35.9698 18.1697 35.8716 17.9152ZM17.0609 16.1431C16.939 16.193 16.8083 16.2187 16.6763 16.2187C16.1169 16.2187 15.6705 15.7763 15.6705 15.2304C15.6705 14.6751 16.1169 14.2322 16.6763 14.2322C16.8083 14.2322 16.939 14.2579 17.0609 14.3078C17.1829 14.3577 17.2937 14.4309 17.3871 14.5231C17.4804 14.6153 17.5544 14.7248 17.6049 14.8453C17.6555 14.9658 17.6815 15.095 17.6815 15.2254C17.6815 15.3559 17.6555 15.485 17.6049 15.6055C17.5544 15.726 17.4804 15.8355 17.3871 15.9277C17.2937 16.02 17.1829 16.0931 17.0609 16.1431ZM7.01659 21.1944C7.28369 21.1944 7.53984 21.0895 7.72869 20.9029C7.91755 20.7162 8.02366 20.4631 8.02366 20.1992C8.02366 19.9353 7.91755 19.6822 7.72869 19.4956C7.53984 19.3089 7.28369 19.2041 7.01659 19.2041C6.88134 19.1994 6.74652 19.2216 6.62012 19.2695C6.49377 19.3174 6.37848 19.3899 6.28109 19.4827C6.18373 19.5756 6.10627 19.6869 6.05337 19.81C6.00048 19.9331 5.97323 20.0655 5.97323 20.1992C5.97323 20.333 6.00048 20.4653 6.05337 20.5884C6.10627 20.7115 6.18373 20.8228 6.28109 20.9157C6.37848 21.0085 6.49377 21.0811 6.62012 21.129C6.74652 21.1768 6.88134 21.1991 7.01659 21.1944ZM16.8416 23.8527C16.5748 23.8537 16.3193 23.9589 16.1308 24.1453C15.9422 24.3317 15.8359 24.5843 15.8351 24.8479C15.8351 25.4031 16.2916 25.8405 16.8416 25.8405C17.4016 25.8405 17.8493 25.4031 17.8493 24.8479C17.8493 24.2982 17.4016 23.8527 16.8416 23.8527ZM26.1404 19.0115C26.2625 18.9617 26.3932 18.9362 26.5252 18.9364C27.0834 18.9364 27.5298 19.3787 27.5298 19.9284C27.5298 20.1919 27.4238 20.4446 27.2353 20.631C27.0467 20.8173 26.7909 20.922 26.5243 20.922C26.2576 20.922 26.0018 20.8173 25.8133 20.631C25.6247 20.4446 25.5188 20.1919 25.5188 19.9284C25.5189 19.798 25.5451 19.6688 25.5958 19.5484C25.6464 19.428 25.7206 19.3185 25.8141 19.2264C25.9075 19.1343 26.0184 19.0613 26.1404 19.0115Z" fill="white"/>
</g>
<defs>
<clipPath id="clip0_8925_96900">
<rect width="40" height="40" fill="white"/>
</clipPath>
</defs>
</svg>
