<svg width="40" height="40" viewBox="0 0 40 40" fill="none" xmlns="http://www.w3.org/2000/svg">
<g clip-path="url(#clip0_8925_96905)">
<path d="M0 20C0 21.1776 0 21.3084 0.028057 22.3084C0.102876 24.5234 0.336685 27.0654 1.22516 29.7476C1.85176 31.6449 3.03016 33.6916 4.20857 34.9813C5.70493 36.626 7.77179 37.9717 10.007 38.7382C12.289 39.5232 14.758 39.9064 19.5557 40H20.4443C25.2514 39.8971 27.711 39.5232 29.993 38.7382C32.2282 37.9717 34.2857 36.626 35.7914 34.9813C36.97 33.6822 38.1482 31.6449 38.775 29.7476C39.6632 27.0654 39.9064 24.514 39.9718 22.3084C40 21.3177 40 21.1776 40 20C40 18.8224 40 18.6822 39.9718 17.6916C39.8971 15.4766 39.6632 12.9346 38.775 10.2523C38.1482 8.35514 36.97 6.30839 35.7914 5.01868C34.2951 3.37383 32.2282 2.02803 29.993 1.26168C27.711 0.476634 25.242 0.0934579 20.4443 0H19.5557C14.7486 0.102804 12.289 0.476634 10.007 1.26168C7.77179 2.02803 5.71429 3.37383 4.20857 5.01868C3.03016 6.31775 1.85176 8.35514 1.22516 10.2523C0.346037 12.9346 0.102876 15.4766 0.028057 17.6916C0 18.6822 0 18.8224 0 20Z" fill="#A30236"/>
<path d="M31.4294 20.1555C31.4294 13.8432 26.3131 8.72607 20.0001 8.72607C13.6886 8.72607 8.57227 13.8432 8.57227 20.1555C8.57227 26.4654 13.6886 31.5848 20.0001 31.5848C26.3131 31.5848 31.4294 26.4654 31.4294 20.1555ZM18.6842 15.4915H17.2718C15.7667 15.4915 14.5466 16.71 14.5466 18.2175V22.0934C14.5466 23.6 15.7667 24.8186 17.2718 24.8186H18.6842V29.027C14.3535 28.3878 11.0327 24.6605 11.0327 20.1555C11.0327 15.6504 14.3535 11.9223 18.6842 11.2831V15.4915ZM22.7244 17.9559C22.8732 17.9559 22.9899 18.0758 22.9899 18.2198V22.0903C22.9899 22.2344 22.8732 22.3535 22.7244 22.3535H17.2757C17.1285 22.3535 17.0125 22.2344 17.0125 22.0903V18.2198C17.0125 18.0758 17.1285 17.9559 17.2757 17.9559H22.7244ZM28.9674 20.1555C28.9674 24.6605 25.6466 28.3878 21.3198 29.027V24.8186H22.7291C24.2334 24.8186 25.4558 23.6 25.4558 22.0934V18.2175C25.4558 16.71 24.2334 15.4915 22.7291 15.4915H21.3198V11.2831C25.6466 11.9223 28.9674 15.6504 28.9674 20.1555Z" fill="white"/>
</g>
<defs>
<clipPath id="clip0_8925_96905">
<rect width="40" height="40" fill="white"/>
</clipPath>
</defs>
</svg>
