<svg width="40" height="40" viewBox="0 0 40 40" fill="none" xmlns="http://www.w3.org/2000/svg">
<g clip-path="url(#clip0_8925_96893)">
<path d="M0 20C0 21.1776 0 21.3085 0.0374094 22.3084C0.102876 24.5234 0.346036 27.0655 1.23451 29.7477C1.86111 31.6449 3.03951 33.6917 4.21791 34.9814C5.71429 36.6264 7.78113 37.972 10.007 38.7383C12.289 39.5235 14.758 39.9068 19.5557 40H20.4442C25.2513 39.8971 27.711 39.5235 29.9929 38.7383C32.2282 37.972 34.2857 36.6264 35.7915 34.9814C36.9697 33.6823 38.1481 31.6449 38.7747 29.7477C39.6631 27.0655 39.9064 24.5141 39.9718 22.3084C40 21.3178 40 21.1776 40 20C40 18.8225 40 18.6916 39.9718 17.6916C39.8971 15.4767 39.6631 12.9346 38.7747 10.2524C38.1481 8.35516 36.9697 6.30843 35.7915 5.01869C34.295 3.37384 32.2282 2.02804 29.9929 1.26168C27.711 0.476638 25.242 0.093458 20.4442 0H19.5557C14.7486 0.102804 12.289 0.476638 10.007 1.26168C7.7718 2.02804 5.71429 3.37384 4.21791 5.01869C3.03951 6.31779 1.86111 8.35516 1.23451 10.2524C0.346036 12.9346 0.102876 15.4767 0.0374094 17.6916C0 18.6823 0 18.8225 0 20Z" fill="#29B54F"/>
<path d="M25.1885 23.2674C25.2606 22.9076 25.2606 22.517 25.24 22.1469C25.1679 21.0058 24.3848 20.0807 23.2823 19.7723C23.0968 19.7209 22.9113 19.6694 22.7259 19.6181V19.5564C23.2204 19.3713 23.6841 19.1246 24.0344 18.7237C24.3951 18.3125 24.6115 17.8397 24.6733 17.3051C24.7351 16.6986 24.6527 16.1846 24.4672 15.8145C24.3023 15.465 23.7975 14.5501 22.0973 14.4473H22.0664V25.1178C22.4992 25.1178 23.2204 25.015 23.6635 24.8711C24.4569 24.6244 25.003 24.0898 25.1782 23.2571L25.1885 23.2674Z" fill="white"/>
<path d="M26.743 8.93753H13.2656C10.8752 8.93753 8.92773 10.8907 8.92773 13.2756V26.732C8.92773 29.1169 10.8854 31.0701 13.2656 31.0701H19.9837C20.0043 30.0935 19.9734 12.2168 19.9734 12.2168C23.7137 11.9906 25.4241 13.3784 26.1866 14.7662C26.403 15.1569 26.5369 15.5269 26.6297 15.8662C26.8048 16.5241 26.7945 17.0484 26.7945 17.2231C26.7945 17.439 26.7636 17.6754 26.7224 17.9016C26.6915 18.0661 26.6399 18.2202 26.5781 18.3745C26.5472 18.4464 26.5266 18.5184 26.4854 18.5903C26.2072 19.1146 25.8363 19.3819 25.8363 19.3819C25.8363 19.3819 26.1144 19.6697 26.2484 19.8445C26.8872 20.6771 27.2685 21.4379 27.3303 22.5378C27.3818 23.6275 27.1654 24.5732 26.4854 25.375C26.3824 25.4881 26.2793 25.6012 26.166 25.7143C25.8157 26.0432 25.4447 26.3002 25.0429 26.5059C24.3422 26.8656 23.5385 27.0198 22.8276 27.1021C22.5081 27.1329 22.1578 27.1535 22.0342 27.1432C22.0342 27.2049 22.0342 29.5487 22.0238 30.7309C22.0238 30.7514 22.0238 30.9673 22.0238 31.0598H26.7224C29.1129 31.0598 31.0706 29.1066 31.0706 26.7217V13.2654C31.0706 10.8804 29.1129 8.92725 26.7224 8.92725L26.743 8.93753ZM18.6957 23.8125C18.4691 25.2825 17.6859 26.3619 16.4392 27.1432C16.3568 27.1946 16.2434 27.2254 16.1404 27.2151C15.3882 27.1946 14.6463 27.1637 13.8942 27.1432C13.8117 27.1432 13.7396 27.1329 13.6572 27.1226C13.6984 27.0198 15.4397 25.6629 16.0373 24.8097C16.6865 23.8845 16.6968 23.1032 15.9549 22.25C15.4912 21.7154 14.9452 21.2528 14.4197 20.7697C13.2244 19.6697 12.5341 18.3642 12.6577 16.6988C12.6783 16.4007 12.8019 14.5195 14.5536 13.1626C15.924 12.0935 17.7684 12.1654 18.3557 12.2168C18.3969 12.2168 18.4691 12.2271 18.5206 12.2374H18.5309L18.5515 14.3139C18.5515 14.3139 18.1806 14.3139 18.0569 14.3139C15.45 14.3447 14.9967 16.1026 15.0585 15.9176C14.9246 16.339 14.8936 16.853 15.007 17.3259C15.1924 18.1072 15.6767 18.7034 16.2125 19.2791C16.7998 19.9164 17.4078 20.5332 17.9642 21.2014C18.5927 21.9519 18.8503 22.8359 18.6957 23.8228V23.8125Z" fill="white"/>
</g>
<defs>
<clipPath id="clip0_8925_96893">
<rect width="40" height="40" fill="white"/>
</clipPath>
</defs>
</svg>
