<svg width="40" height="40" viewBox="0 0 40 40" fill="none" xmlns="http://www.w3.org/2000/svg">
<g clip-path="url(#clip0_8925_96908)">
<path d="M0 20C0 21.1776 0 21.3084 0.028057 22.3084C0.102876 24.5234 0.336685 27.0654 1.22516 29.7476C1.85176 31.6449 3.03016 33.6916 4.20857 34.9813C5.70493 36.6261 7.77179 37.9718 10.007 38.7382C12.289 39.5232 14.758 39.9064 19.5557 40H20.4443C25.2514 39.8971 27.711 39.5232 29.993 38.7382C32.2282 37.9718 34.2857 36.6261 35.7914 34.9813C36.97 33.6823 38.1482 31.6449 38.775 29.7476C39.6632 27.0654 39.9064 24.514 39.9718 22.3084C40 21.3178 40 21.1776 40 20C40 18.8224 40 18.6823 39.9718 17.6916C39.8971 15.4766 39.6632 12.9346 38.775 10.2523C38.1482 8.35514 36.97 6.30839 35.7914 5.01868C34.2951 3.37383 32.2282 2.02804 29.993 1.26168C27.711 0.476636 25.242 0.0934579 20.4443 0H19.5557C14.7486 0.102804 12.289 0.476636 10.007 1.26168C7.77179 2.02804 5.71429 3.37383 4.20857 5.01868C3.03016 6.31775 1.85176 8.35514 1.22516 10.2523C0.346037 12.9346 0.102876 15.4766 0.028057 17.6916C0 18.6823 0 18.8224 0 20Z" fill="#ED3423"/>
<path d="M13.8682 13.5713C15.905 15.6646 17.9841 17.811 20.0103 19.8936C22.132 17.7791 24.243 15.6646 26.3328 13.5713H13.8682ZM26.248 26.4284C24.19 24.367 22.0895 22.2738 19.9785 20.1593C17.9523 22.2206 15.8731 24.3245 13.8045 26.4284H26.248ZM26.6829 26.2797C26.6829 26.2797 26.7465 26.3222 26.7784 26.3434C28.8258 24.2395 30.8838 22.125 32.8569 20.0955C30.8519 18.0341 28.7939 15.9196 26.6935 13.7519V26.2797H26.6829ZM7.14258 20.0318C9.26422 22.125 11.3434 24.1758 13.4651 26.269V13.7944C11.3328 15.8983 9.25361 17.9491 7.14258 20.0424" fill="white"/>
<path d="M13.8691 13.5713H26.3338C24.244 15.6646 22.1329 17.7685 20.0113 19.8936C17.9851 17.811 15.9059 15.6646 13.8691 13.5713Z" fill="white"/>
<path d="M26.2481 26.4289H13.8047C15.8733 24.325 17.9525 22.2211 19.9787 20.1597C22.0897 22.2742 24.1901 24.3675 26.2481 26.4289Z" fill="white"/>
<path d="M26.6825 26.2797V13.752C28.7935 15.9196 30.8409 18.0341 32.8458 20.0955C30.8727 22.125 28.8253 24.2289 26.7673 26.3435C26.7355 26.3222 26.7037 26.301 26.6719 26.2797" fill="white"/>
<path d="M7.14258 20.0316C9.25361 17.949 11.3434 15.8876 13.4651 13.7837V26.2689C11.3434 24.1757 9.25361 22.1143 7.14258 20.0316Z" fill="white"/>
</g>
<defs>
<clipPath id="clip0_8925_96908">
<rect width="40" height="40" fill="white"/>
</clipPath>
</defs>
</svg>
