<svg width="40" height="40" viewBox="0 0 40 40" fill="none" xmlns="http://www.w3.org/2000/svg">
<g clip-path="url(#clip0_8925_96882)">
<path d="M0 20C0 21.1776 0 21.3084 0.0374093 22.3084C0.102876 24.5234 0.346037 27.0654 1.23451 29.7476C1.86112 31.6449 3.03951 33.6916 4.21789 34.9813C5.71429 36.6261 7.78114 37.9718 10.007 38.7382C12.289 39.5232 14.758 39.9064 19.5557 40H20.4443C25.2514 39.8971 27.711 39.5232 29.993 38.7382C32.2282 37.9718 34.2857 36.6261 35.7914 34.9813C36.97 33.6823 38.1482 31.6449 38.775 29.7476C39.6632 27.0654 39.9064 24.514 39.9718 22.3084C40 21.3178 40 21.1776 40 20C40 18.8224 40 18.6916 39.9718 17.6916C39.8971 15.4766 39.6632 12.9346 38.775 10.2523C38.1482 8.35514 36.97 6.30839 35.7914 5.01868C34.2951 3.37383 32.2282 2.02804 29.993 1.26168C27.711 0.476636 25.242 0.102804 20.4443 0H19.5557C14.7486 0.102804 12.289 0.476636 10.007 1.26168C7.77179 2.02804 5.71429 3.37383 4.21789 5.01868C3.03951 6.31775 1.86112 8.35514 1.23451 10.2523C0.346037 12.9346 0.102876 15.4766 0.0374093 17.6916C0 18.6823 0 18.8224 0 20Z" fill="#345D98"/>
<path d="M18.1184 27.1445L12.7084 18.7075C12.1955 17.9196 11.789 16.2668 12.1955 15.4692L8.83723 20.7062C8.4888 21.2444 8.47912 22.1284 8.83723 22.6857L12.66 28.6531C13.0084 29.1816 13.802 29.6428 14.6053 29.6428H19.7347L18.1281 27.1445H18.1184Z" fill="white"/>
<path d="M13.327 18.3234L15.6981 22.0133C15.4174 21.456 15.582 20.7641 15.7659 20.4759L20.2467 13.4419H15.2045C14.3141 13.4419 13.6076 13.8359 13.2205 14.4316L12.7947 15.0851C12.3882 15.8826 12.7947 17.5258 13.3076 18.3138" fill="white"/>
<path d="M31.1533 17.314L27.3305 11.3467C26.9821 10.8182 26.1885 10.3569 25.3852 10.3569H20.2559L27.2724 21.2922C27.7853 22.0802 28.1918 23.7234 27.795 24.5305L31.163 19.2935C31.5017 18.7554 31.5307 17.8714 31.163 17.314" fill="white"/>
<path d="M26.6444 21.648L24.2733 17.958C24.5539 18.5154 24.3894 19.2072 24.2055 19.4955L19.7246 26.5294H24.7669C25.6573 26.5294 26.3637 26.1355 26.7509 25.5397L27.1767 24.8863C27.5831 24.0887 27.1767 22.4455 26.6541 21.648" fill="white"/>
</g>
<defs>
<clipPath id="clip0_8925_96882">
<rect width="40" height="40" fill="white"/>
</clipPath>
</defs>
</svg>
