<svg width="40" height="40" viewBox="0 0 40 40" fill="none" xmlns="http://www.w3.org/2000/svg">
<g clip-path="url(#clip0_8925_96892)">
<path d="M0 20C0 21.1776 0 21.3084 0.028057 22.3084C0.102876 24.5234 0.336685 27.0654 1.22516 29.7477C1.85176 31.6449 3.03016 33.6916 4.20857 34.9813C5.70493 36.6261 7.77179 37.9718 10.007 38.7382C12.289 39.5232 14.758 39.9064 19.5557 40H20.4443C25.2514 39.8971 27.711 39.5232 29.993 38.7382C32.2282 37.9718 34.2857 36.6261 35.7914 34.9813C36.97 33.6823 38.1482 31.6449 38.775 29.7477C39.6632 27.0654 39.9064 24.514 39.9718 22.3084C40 21.3178 40 21.1776 40 20C40 18.8224 40 18.6916 39.9718 17.6916C39.8971 15.4766 39.6632 12.9346 38.775 10.2523C38.1482 8.35514 36.97 6.30839 35.7914 5.01868C34.2951 3.37383 32.2282 2.02804 29.993 1.26168C27.711 0.476636 25.242 0.0934579 20.4443 0H19.5557C14.7486 0.102804 12.289 0.476636 10.007 1.26168C7.77179 2.02804 5.71429 3.37383 4.20857 5.01868C3.03016 6.31775 1.85176 8.35514 1.22516 10.2523C0.346037 12.9346 0.102876 15.4766 0.028057 17.6916C0 18.6823 0 18.8224 0 20Z" fill="#E94335"/>
<path d="M7.52087 19.7754C7.52087 19.7754 7.47391 19.8399 7.52087 19.8675L11.3812 22.3627L12.4894 17.2617L7.53027 19.7754H7.52087Z" fill="white"/>
<path d="M30.3918 17.2617H29.415C29.368 17.2617 29.2835 17.2801 29.2365 17.3077L24.3431 19.7753C24.3431 19.7753 24.2962 19.8398 24.3431 19.8674L28.1376 22.3166C28.1846 22.3443 28.2597 22.3627 28.3067 22.3627H29.2835C29.3305 22.3627 29.3399 22.3443 29.3023 22.3166L25.4232 19.8122L30.4012 17.2985C30.4012 17.2985 30.4388 17.2524 30.3918 17.2524" fill="white"/>
<path d="M28.2971 17.2617H21.497L20.3887 22.3627H27.1887C27.2357 22.3627 27.2451 22.3443 27.2075 22.3166L23.3379 19.8122L28.3065 17.2985C28.3065 17.2985 28.344 17.2524 28.2971 17.2524" fill="white"/>
<path d="M32.4758 17.2617H31.499C31.452 17.2617 31.3675 17.2801 31.3205 17.3077L26.4271 19.7753C26.4271 19.7753 26.3802 19.8398 26.4271 19.8674L30.2216 22.3166C30.2592 22.3443 30.3437 22.3627 30.3907 22.3627H31.3675C31.4144 22.3627 31.4238 22.3443 31.3863 22.3166L27.5072 19.8122L32.4852 17.2985C32.4852 17.2985 32.5228 17.2524 32.4758 17.2524" fill="white"/>
<path d="M27.9967 13.9287H11.9827C11.0905 13.9287 10.4611 14.4812 10.3203 15.1625C10.2357 15.54 10.386 15.8715 10.6772 16.1017L16.4347 19.8308L28.0155 13.984C28.0155 13.984 28.0531 13.9379 28.0061 13.9379" fill="white"/>
<path d="M25.4611 25.6593L16.435 19.8125L9.06202 23.5416C8.66756 23.7717 8.37638 24.1032 8.30124 24.4807C8.15099 25.1621 8.53606 25.7146 9.42834 25.7146H25.4423C25.4893 25.7146 25.4987 25.6961 25.4611 25.6593Z" fill="white"/>
</g>
<defs>
<clipPath id="clip0_8925_96892">
<rect width="40" height="40" fill="white"/>
</clipPath>
</defs>
</svg>
