<svg width="40" height="40" viewBox="0 0 40 40" fill="none" xmlns="http://www.w3.org/2000/svg">
<g clip-path="url(#clip0_8925_96890)">
<path d="M0 20C0 21.1776 0 21.3085 0.028057 22.3084C0.102876 24.5234 0.336684 27.0655 1.22516 29.7477C1.85176 31.6449 3.03016 33.6917 4.20855 34.9814C5.70493 36.6264 7.7718 37.972 10.007 38.7383C12.289 39.5235 14.758 39.9068 19.5557 40H20.4442C25.2513 39.8971 27.711 39.5235 29.9929 38.7383C32.2282 37.972 34.2857 36.6264 35.7915 34.9814C36.9697 33.6823 38.1481 31.6449 38.7747 29.7477C39.6631 27.0655 39.9064 24.5141 39.9718 22.3084C40 21.3178 40 21.1776 40 20C40 18.8225 40 18.6916 39.9718 17.6916C39.8971 15.4767 39.6631 12.9346 38.7747 10.2524C38.1481 8.35516 36.9697 6.30843 35.7915 5.01869C34.295 3.37384 32.2282 2.02804 29.9929 1.26168C27.711 0.476635 25.242 0.093458 20.4442 0H19.5557C14.7486 0.102804 12.289 0.476635 10.007 1.26168C7.7718 2.02804 5.71429 3.37384 4.20855 5.01869C3.03016 6.31779 1.85176 8.35516 1.22516 10.2524C0.346036 12.9346 0.102876 15.4767 0.028057 17.6916C0 18.6823 0 18.8225 0 20Z" fill="#B19C52"/>
<path d="M29.2291 21.7603C28.2244 24.2628 26.5264 24.9635 26.5264 24.9635C31.5098 19.9385 28.4655 14.1427 28.4655 14.1427C27.7321 12.8414 28.6664 12.2808 28.6664 12.2808C26.5264 12.8114 27.1996 14.5831 27.1996 14.5831C28.2746 17.1357 28.0536 19.2078 27.6919 20.489L26.9886 20.0986V20.0786C26.9886 20.0786 28.6664 13.5221 21.8646 11.2297V9.99854H20.4178V18.1267L27.0991 21.9205C26.9786 22.1707 26.8479 22.4009 26.7173 22.6211L20.0059 18.7473L13.2643 22.6211C13.1337 22.4009 13.0031 22.1707 12.8825 21.9205L19.5638 18.1267V9.99854H18.1271V11.2297C11.3151 13.5221 12.9829 20.0786 12.9829 20.0786V20.0986L12.2897 20.489C11.928 19.2078 11.7069 17.1357 12.782 14.5831C12.782 14.5831 13.4552 12.8214 11.3151 12.2808C11.3151 12.2808 12.2495 12.8514 11.5161 14.1427C11.5161 14.1427 8.4718 19.9385 13.4552 24.9635C13.4552 24.9635 11.7572 24.2628 10.7525 21.7603C10.7525 21.7603 10.1798 20.5391 8.57227 20.8094L9.5368 22.1907C9.5368 22.1907 10.9836 26.7753 16.5597 27.466V29.9985H19.3026V26.2748C19.3026 26.2748 16.3989 26.2548 14.1786 23.8124L14.8618 23.412C14.9924 23.5321 17.1023 25.474 19.9757 25.5341H19.9958H20.0159C22.8894 25.484 25.0093 23.5321 25.1399 23.412L25.8231 23.8124C23.6027 26.2448 20.6991 26.2748 20.6991 26.2748V29.9985H23.442V27.466C29.0181 26.7653 30.4649 22.1907 30.4649 22.1907C30.8166 21.0896 31.4294 20.8094 31.4294 20.8094C29.8219 20.5391 29.2492 21.7603 29.2492 21.7603M25.6825 19.3379L21.9148 17.2358L21.8947 12.7413H21.9148C21.9148 12.7413 26.4561 13.9725 25.6925 19.3379M18.117 12.7413H18.1371L18.117 17.2358L14.3493 19.3379C13.5757 13.9725 18.1271 12.7413 18.1271 12.7413M23.7936 22.6111L23.7635 22.5911C22.4172 23.6522 21.1412 23.9925 20.0259 23.9925C18.9107 23.9925 17.6347 23.6422 16.2884 22.5911L16.2583 22.6111L20.036 20.4089L23.7936 22.6011V22.6111Z" fill="white"/>
</g>
<defs>
<clipPath id="clip0_8925_96890">
<rect width="40" height="40" fill="white"/>
</clipPath>
</defs>
</svg>
