<svg width="40" height="40" viewBox="0 0 40 40" fill="none" xmlns="http://www.w3.org/2000/svg">
<g clip-path="url(#clip0_8925_96891)">
<path d="M0 20C0 21.1776 0 21.3084 0.0280636 22.3084C0.1029 24.5234 0.336763 27.0654 1.22544 29.7476C1.8522 31.6449 3.03087 33.6916 4.20954 34.9813C5.70629 36.6261 7.77361 37.9718 10.0094 38.7382C12.2919 39.5232 14.7615 39.9064 19.5603 40H20.449C25.2573 39.8971 27.7175 39.5232 30 38.7382C32.2358 37.9718 34.2938 36.6261 35.7904 34.9813C36.9693 33.6823 38.1479 31.6449 38.7746 29.7476C39.6632 27.0654 39.9064 24.514 39.9718 22.3084C40 21.3178 40 21.1776 40 20C40 18.8224 40 18.6916 39.9718 17.6916C39.8971 15.4766 39.6632 12.9346 38.7746 10.2523C38.1479 8.35514 36.9693 6.30839 35.7904 5.01868C34.2938 3.37383 32.2264 2.02804 30 1.26168C27.7175 0.476636 25.2479 0.0934579 20.449 0H19.5603C14.7521 0.102804 12.2919 0.476636 10.0094 1.26168C7.77361 2.02804 5.71561 3.37383 4.20954 5.01868C3.03087 6.31775 1.8522 8.35514 1.22544 10.2523C0.346118 12.9346 0.1029 15.4766 0.0280636 17.6916C0 18.6823 0 18.8224 0 20Z" fill="#229DEE"/>
<path d="M0 20C0 21.1776 0 21.3084 0.0280636 22.3084C0.1029 24.5234 0.336763 27.0654 1.22544 29.7476C1.8522 31.6449 3.03087 33.6916 4.20954 34.9813C5.70629 36.6261 7.77361 37.9718 10.0094 38.7382C12.2919 39.5232 14.7615 39.9064 19.5603 40H20.449C25.2573 39.8971 27.7175 39.5232 30 38.7382C32.2358 37.9718 34.2938 36.6261 35.7904 34.9813C36.9693 33.6823 38.1479 31.6449 38.7746 29.7476C39.6632 27.0654 39.9064 24.514 39.9718 22.3084C40 21.3178 40 21.1776 40 20C40 18.8224 40 18.6916 39.9718 17.6916C39.8971 15.4766 39.6632 12.9346 38.7746 10.2523C38.1479 8.35514 36.9693 6.30839 35.7904 5.01868C34.2938 3.37383 32.2264 2.02804 30 1.26168C27.7175 0.476636 25.2479 0.0934579 20.449 0H19.5603C14.7521 0.102804 12.2919 0.476636 10.0094 1.26168C7.77361 2.02804 5.71561 3.37383 4.20954 5.01868C3.03087 6.31775 1.8522 8.35514 1.22544 10.2523C0.346118 12.9346 0.1029 15.4766 0.0280636 17.6916C0 18.6823 0 18.8224 0 20Z" fill="#52C3F1"/>
<path d="M0 20C0 21.1776 0 21.3084 0.0280636 22.3084C0.1029 24.5234 0.336763 27.0654 1.22544 29.7476C1.8522 31.6449 3.03087 33.6916 4.20954 34.9813C5.70629 36.6261 7.77361 37.9718 10.0094 38.7382C12.2919 39.5232 14.7615 39.9064 19.5603 40H20.449C25.2573 39.8971 27.7175 39.5232 30 38.7382C32.2358 37.9718 34.2938 36.6261 35.7904 34.9813C36.9693 33.6823 38.1479 31.6449 38.7746 29.7476C39.6632 27.0654 39.9064 24.514 39.9718 22.3084C40 21.3178 40 21.1776 40 20C40 18.8224 40 18.6916 39.9718 17.6916C39.8971 15.4766 39.6632 12.9346 38.7746 10.2523C38.1479 8.35514 36.9693 6.30839 35.7904 5.01868C34.2938 3.37383 32.2264 2.02804 30 1.26168C27.7175 0.476636 25.2479 0.0934579 20.449 0H19.5603C14.7521 0.102804 12.2919 0.476636 10.0094 1.26168C7.77361 2.02804 5.71561 3.37383 4.20954 5.01868C3.03087 6.31775 1.8522 8.35514 1.22544 10.2523C0.346118 12.9346 0.1029 15.4766 0.0280636 17.6916C0 18.6823 0 18.8224 0 20Z" fill="#53C3F1"/>
<path d="M7.85742 23.107C7.87989 27.0228 11.1261 30.1665 15.1024 30.1555C16.3155 30.1555 17.5061 29.8466 18.5732 29.262V24.7175C17.4611 26.1514 15.3831 26.4382 13.9117 25.3462C12.4402 24.2542 12.1595 22.2136 13.2715 20.7686C13.3389 20.6914 13.4062 20.6031 13.4736 20.5259C12.8783 19.467 12.575 18.2757 12.575 17.0623C12.575 16.8748 12.575 16.6763 12.5975 16.4888C9.75571 17.4925 7.85742 20.1398 7.85742 23.107Z" fill="white"/>
<path d="M12.5738 17.062C12.5738 18.2754 12.877 19.4667 13.4723 20.5256C14.1014 19.8527 14.9887 19.4777 15.921 19.4777C16.2917 19.4777 16.6511 19.5329 16.9993 19.6542C16.6062 19.0806 16.404 18.4078 16.404 17.7239C16.4152 15.7715 18.0327 14.2051 20.0209 14.2162C21.4137 14.2162 22.6717 15.0214 23.2558 16.2568C23.8062 16.1355 24.3678 16.0693 24.9294 16.0693C25.7719 16.0693 26.603 16.2127 27.3893 16.4884C27.0411 12.4734 23.4468 9.50618 19.3581 9.84811C15.5279 10.168 12.585 13.3006 12.5625 17.0731" fill="white"/>
<path d="M23.2679 16.2569C23.7846 17.3599 23.6835 18.6394 22.9983 19.6542C23.3465 19.5439 23.706 19.4888 24.0766 19.4888C25.9075 19.4888 27.3902 20.9558 27.379 22.7538C27.3677 24.5518 25.8851 26.0078 24.0542 25.9968C23.0208 25.9968 22.0548 25.5224 21.4258 24.7172V29.2618C24.8741 31.1811 29.2548 29.9898 31.2092 26.5924C33.1637 23.195 31.9506 18.9042 28.491 16.9849C27.4014 16.3782 26.1771 16.0693 24.9191 16.0693C24.3574 16.0693 23.7958 16.1355 23.2567 16.2569" fill="white"/>
</g>
<defs>
<clipPath id="clip0_8925_96891">
<rect width="40" height="40" fill="white"/>
</clipPath>
</defs>
</svg>
