<svg width="40" height="40" viewBox="0 0 40 40" fill="none" xmlns="http://www.w3.org/2000/svg">
<g clip-path="url(#clip0_8925_96886)">
<path d="M0 20C0 21.1776 0 21.3084 0.0374094 22.3084C0.102876 24.5234 0.346036 27.0654 1.23451 29.7477C1.86111 31.6449 3.03951 33.6916 4.21791 34.9813C5.71429 36.626 7.78113 37.972 10.007 38.7383C12.289 39.5235 14.758 39.9064 19.5557 40H20.4442C25.2513 39.8971 27.711 39.5235 29.9929 38.7383C32.2282 37.972 34.2857 36.626 35.7915 34.9813C36.9697 33.6822 38.1481 31.6449 38.7747 29.7477C39.6631 27.0654 39.9064 24.514 39.9718 22.3084C40 21.3178 40 21.1776 40 20C40 18.8224 40 18.6916 39.9718 17.6916C39.8971 15.4766 39.6631 12.9346 38.7747 10.2523C38.1481 8.35514 36.9697 6.30841 35.7915 5.01868C34.295 3.37383 32.2282 2.02804 29.9929 1.26168C27.711 0.476635 25.242 0.102804 20.4442 0H19.5557C14.7486 0.102804 12.289 0.476635 10.007 1.26168C7.7718 2.02804 5.71429 3.37383 4.21791 5.01868C3.03951 6.31777 1.86111 8.35514 1.23451 10.2523C0.346036 12.9346 0.102876 15.4766 0.0374094 17.6916C0 18.6822 0 18.8224 0 20Z" fill="#0473EA"/>
<path d="M17.0085 30.8978C16.3913 31.2622 15.8397 31.4771 15.2506 31.4771C13.7359 31.4771 12.4736 30.2438 12.4082 28.7488L15.3535 26.9922L19.9351 29.0384L17.0178 30.8885L17.0085 30.8978Z" fill="white"/>
<path d="M18.756 23.3666L16.568 22.4042C15.5956 21.9651 14.6699 21.6007 14.6699 20.5262C14.6699 19.9655 14.8382 19.6759 15.1094 19.3862L19.7377 21.4231L18.597 22.0865C18.2791 22.2827 18.0547 22.4509 18.0547 22.6939C18.0547 22.9555 18.3539 23.1797 18.7653 23.3666" fill="white"/>
<path d="M20.9066 13.2756L18.6626 14.6304C18.4569 14.7519 18.195 14.9481 18.195 15.2377C18.195 15.5834 18.7187 15.8357 19.1768 16.0599L16.3718 14.8266C15.549 14.4622 14.7168 14.0511 14.7168 13.0513C14.7168 12.6309 14.8384 12.2945 15.0347 12.0048L21.103 8.29541C21.8323 8.70655 22.5335 9.53812 22.5335 10.6593C22.5335 11.8553 21.9258 12.6589 20.9066 13.2756Z" fill="white"/>
<path d="M25.6752 17.6578L25.1142 17.9755L20.4766 15.9293L25.8622 12.687C26.5916 13.1075 27.3022 13.9297 27.3022 15.051C27.3022 16.2469 26.7131 17.0692 25.6659 17.6578" fill="white"/>
<path d="M21.7577 21.5913L24.4974 22.7966C25.5259 23.2545 25.8438 23.7964 25.8438 24.4785C25.8438 24.8709 25.6287 25.254 25.3108 25.525L20.7012 23.4787L21.4772 23.0396C22.1411 22.6752 22.3562 22.4509 22.3562 22.2173C22.3562 21.9837 22.2066 21.7969 21.7577 21.6007" fill="white"/>
<path d="M26.6488 31.7011C25.48 30.8041 24.2364 30.1968 22.7217 29.5053L15.7372 26.4126C13.9793 25.6278 12.8105 24.5906 12.8105 22.834C12.8105 21.0774 13.6334 20.3019 14.7086 19.6292L15.092 19.3862C14.8208 19.6759 14.6525 19.9655 14.6525 20.5262C14.6525 21.6007 15.5782 21.9651 16.5506 22.4042L24.6853 25.9922C26.0971 26.5995 27.3968 27.6366 27.3968 29.4213C27.3968 30.4023 27.0322 31.2713 26.6394 31.7104" fill="white"/>
<path d="M25.8248 25.1981L25.3199 25.5158C25.6378 25.2449 25.8529 24.8617 25.8529 24.4693C25.8529 23.7872 25.5349 23.2453 24.5064 22.7875L15.8108 18.9566C14.0529 18.1811 12.959 17.1813 12.959 15.4341C12.959 13.827 13.7631 12.7711 15.0254 11.9956C14.829 12.2852 14.7075 12.6216 14.7075 13.0421C14.7075 14.0419 15.5396 14.453 16.3624 14.8174L24.815 18.5455C26.3484 19.2276 27.6013 20.2554 27.6013 22.1241C27.6013 23.591 26.9188 24.516 25.8248 25.1888" fill="white"/>
</g>
<defs>
<clipPath id="clip0_8925_96886">
<rect width="40" height="40" fill="white"/>
</clipPath>
</defs>
</svg>
