<svg width="40" height="40" viewBox="0 0 40 40" fill="none" xmlns="http://www.w3.org/2000/svg">
<g clip-path="url(#clip0_8925_96895)">
<mask id="mask0_8925_96895" style="mask-type:luminance" maskUnits="userSpaceOnUse" x="0" y="0" width="40" height="40">
<path d="M40 0H0V40H40V0Z" fill="white"/>
</mask>
<g mask="url(#mask0_8925_96895)">
<path d="M0 20.0014C0 21.179 0 21.3099 0.028057 22.3099C0.102876 24.5248 0.336684 27.0669 1.22516 29.7491C1.85176 31.6463 3.03016 33.693 4.20855 34.9828C5.70493 36.6275 7.7718 37.9735 10.007 38.7397C12.289 39.5249 14.758 39.9079 19.5557 40.0015H20.4442C25.2513 39.8986 27.711 39.5249 29.9929 38.7397C32.2282 37.9735 34.2857 36.6275 35.7915 34.9828C36.9697 33.6837 38.1481 31.6463 38.7747 29.7491C39.6631 27.0669 39.9064 24.5155 39.9718 22.3099C40 21.3192 40 21.179 40 20.0014C40 18.8239 40 18.693 39.9718 17.693C39.8971 15.4781 39.6631 12.936 38.7747 10.2538C38.1481 8.35658 36.9697 6.30986 35.7915 5.02016C34.295 3.37529 32.2282 2.0295 29.9929 1.26315C27.711 0.4781 25.242 0.0949227 20.4442 0.00146484H19.5557C14.7486 0.104268 12.289 0.4781 10.007 1.26315C7.7718 2.0295 5.71429 3.37529 4.20855 5.02016C3.03016 6.31922 1.85176 8.35658 1.22516 10.2538C0.346036 12.936 0.102876 15.4781 0.028057 17.693C0 18.6837 0 18.8239 0 20.0014Z" fill="#E3333F"/>
<path d="M31.7527 23.3123L29.4244 20.5093H29.4058L28.7793 21.9575C28.7793 21.9575 28.7793 21.9762 28.7793 21.9856L29.7985 23.275C29.8733 23.3684 29.9481 23.3965 30.0696 23.3965" fill="white"/>
<path d="M30.0976 16.6128C29.1158 16.6128 28.5922 16.9118 28.293 17.5378L26.4417 21.7985C26.3295 22.0508 26.1705 22.1723 25.8433 22.1723V16.6782C25.8433 16.6782 25.8152 16.6128 25.7685 16.6128H24.4127C24.4127 16.6128 24.3379 16.6408 24.3379 16.6782V23.2655C24.3379 23.3309 24.394 23.3869 24.4688 23.3869H25.9929C26.9746 23.3869 27.4235 23.0879 27.7226 22.4619L29.5459 18.2573C29.6955 17.9583 29.9012 17.8275 30.3314 17.8275" fill="white"/>
<path d="M13.7253 20.0045C14.2676 19.7895 14.7257 19.313 14.7257 18.5188C14.7257 17.3322 13.6411 16.6221 12.3508 16.6221H8.33024C8.33024 16.6221 8.25545 16.6501 8.25545 16.6875V17.762C8.25545 17.762 8.28349 17.8274 8.33024 17.8274H12.0703C12.6687 17.8274 13.0801 18.1731 13.0801 18.6029C13.0801 19.0327 12.6687 19.3784 12.0703 19.3784H9.84495V18.5749C9.84495 18.5749 9.81692 18.5095 9.77017 18.5095H8.32088C8.32088 18.5095 8.24609 18.5375 8.24609 18.5749V23.3214C8.24609 23.3214 8.27413 23.3868 8.32088 23.3868H12.2853C13.7627 23.3868 14.8286 22.7421 14.8286 21.4153C14.8286 20.7613 14.4172 20.2287 13.7253 20.0045ZM12.1451 22.2095H9.84495V20.6211H12.1451C12.7622 20.6211 13.183 20.9762 13.183 21.4153C13.183 21.8545 12.7622 22.2095 12.1451 22.2095Z" fill="white"/>
<path d="M17.3813 18.5098H16.0162C16.0162 18.5098 15.9414 18.5378 15.9414 18.5752V23.3217C15.9414 23.3217 15.9694 23.3872 16.0162 23.3872H17.3813C17.3813 23.3872 17.4561 23.3591 17.4561 23.3217V18.5752C17.4561 18.5752 17.4281 18.5098 17.3813 18.5098Z" fill="white"/>
<path d="M22.9727 16.6129H21.6169C21.6169 16.6129 21.5422 16.6409 21.5422 16.6783V22.1723C21.2243 22.1723 21.0653 22.0508 20.9531 21.7986L19.1018 17.5379C18.8025 16.9119 18.2789 16.6129 17.2972 16.6129H16.0162C16.0162 16.6129 15.9414 16.6409 15.9414 16.6783V17.7528C15.9414 17.7528 15.9694 17.8182 16.0162 17.8182H17.0541C17.4842 17.8182 17.6992 17.949 17.8395 18.248L19.6628 22.4526C19.962 23.0787 20.4108 23.3776 21.3925 23.3776H22.9166C22.9821 23.3776 23.0382 23.3216 23.0382 23.2562V16.6689C23.0382 16.6689 23.0101 16.6035 22.9634 16.6035" fill="white"/>
</g>
</g>
<defs>
<clipPath id="clip0_8925_96895">
<rect width="40" height="40" fill="white"/>
</clipPath>
</defs>
</svg>
