<svg width="40" height="40" viewBox="0 0 40 40" fill="none" xmlns="http://www.w3.org/2000/svg">
<g clip-path="url(#clip0_8925_96889)">
<path d="M0 20C0 21.1776 0 21.3084 0.0280636 22.3084C0.1029 24.5234 0.336763 27.0654 1.22544 29.7477C1.8522 31.6449 3.03087 33.6916 4.20954 34.9813C5.70629 36.6261 7.77361 37.9718 10.0094 38.7382C12.2919 39.5232 14.7615 39.9064 19.5603 40H20.449C25.2573 39.8971 27.7175 39.5232 30 38.7382C32.2358 37.9718 34.2938 36.6261 35.7904 34.9813C36.9693 33.6823 38.1479 31.6449 38.7746 29.7477C39.6632 27.0654 39.9064 24.514 39.9718 22.3084C40 21.3178 40 21.1776 40 20C40 18.8224 40 18.6916 39.9718 17.6916C39.8971 15.4766 39.6632 12.9346 38.7746 10.2523C38.1479 8.35514 36.9693 6.30839 35.7904 5.01868C34.2938 3.37383 32.2264 2.02804 30 1.26168C27.7175 0.476636 25.2479 0.0934579 20.449 0H19.5603C14.7521 0.102804 12.2919 0.476636 10.0094 1.26168C7.77361 2.02804 5.71561 3.37383 4.20954 5.01868C3.03087 6.31775 1.8522 8.35514 1.22544 10.2523C0.346118 12.9346 0.1029 15.4766 0.0280636 17.6916C0 18.6823 0 18.8224 0 20Z" fill="#0E0060"/>
<path d="M9.48008 16.2026L6.68197 19.5426V16.2026H5.26758V23.4895H6.68197V20.1407L9.57258 23.4895H11.3444L8.19944 19.8482L11.2519 16.2026H9.48008Z" fill="white"/>
<mask id="mask0_8925_96889" style="mask-type:luminance" maskUnits="userSpaceOnUse" x="5" y="16" width="30" height="8">
<path d="M34.6426 16.1597H5.26758V23.6597H34.6426V16.1597Z" fill="white"/>
</mask>
<g mask="url(#mask0_8925_96889)">
<path d="M14.7349 18.2704C14.1688 18.2856 13.628 18.508 13.2149 18.8954V16.2017H11.8006V21.0017C11.7813 21.3581 11.8379 21.7147 11.9666 22.0477C12.0953 22.3807 12.2932 22.6826 12.5472 22.9334C12.8012 23.1843 13.1055 23.3784 13.4401 23.503C13.7746 23.6276 14.1318 23.6797 14.4881 23.656C14.8446 23.6715 15.2005 23.6127 15.5332 23.4835C15.8658 23.3542 16.1681 23.1573 16.4207 22.9052C16.6733 22.6531 16.8709 22.3513 17.0008 22.0189C17.1307 21.6865 17.1902 21.3308 17.1756 20.9742C17.1756 19.4935 16.2212 18.271 14.7381 18.271M14.4881 22.3429C14.1332 22.3389 13.794 22.1964 13.5428 21.9458C13.2915 21.6953 13.1481 21.3564 13.1431 21.0017C13.1431 20.9892 13.1431 20.976 13.1431 20.9629C13.143 20.8101 13.1679 20.6583 13.2168 20.5135C13.3044 20.2448 13.4742 20.0103 13.7024 19.8434C13.9305 19.6766 14.2054 19.5856 14.4881 19.5835C14.8487 19.5912 15.192 19.7399 15.4444 19.9977C15.6967 20.2554 15.8381 20.6018 15.8381 20.9626C15.8381 21.3233 15.6967 21.6697 15.4444 21.9275C15.192 22.1853 14.8487 22.334 14.4881 22.3417" fill="white"/>
<path d="M27.1706 18.2701C26.5646 18.2642 25.9799 18.4934 25.5394 18.9095V18.4289H24.125V23.4914H25.5394V20.6533C25.5394 20.3766 25.6492 20.1113 25.8449 19.9157C26.0405 19.72 26.3058 19.6101 26.5825 19.6101C26.8591 19.6101 27.1245 19.72 27.3201 19.9157C27.5157 20.1113 27.6256 20.3766 27.6256 20.6533V23.4914H29.0487V20.2476C29.0487 20.2283 29.0487 20.2083 29.0487 20.1889C29.0516 19.686 28.8559 19.2022 28.5041 18.8429C28.1523 18.4835 27.6729 18.2774 27.17 18.2695" fill="white"/>
<path d="M20.5569 18.274C20.1986 18.2568 19.8406 18.3141 19.5056 18.4423C19.1705 18.5705 18.8657 18.7669 18.6105 19.0189C18.3552 19.271 18.1551 19.5733 18.0227 19.9068C17.8903 20.2402 17.8285 20.5974 17.8413 20.9559C17.8152 21.2976 17.8592 21.641 17.9707 21.965C18.0822 22.289 18.2588 22.5868 18.4896 22.84C18.7204 23.0933 19.0006 23.2966 19.3129 23.4376C19.6252 23.5785 19.9631 23.6541 20.3057 23.6597C20.6346 23.653 20.9575 23.5712 21.25 23.4207C21.5424 23.2701 21.7966 23.0547 21.9932 22.7909V23.4909H23.2726V20.9572H23.2607L23.2719 20.9284C23.2894 20.57 23.2306 20.2119 23.0994 19.8778C22.9683 19.5438 22.7678 19.2413 22.5111 18.9904C22.2545 18.7396 21.9475 18.546 21.6106 18.4225C21.2736 18.299 20.9143 18.2484 20.5563 18.274M20.5857 22.3365C20.3115 22.3434 20.0415 22.2683 19.8102 22.121C19.5789 21.9736 19.3967 21.7607 19.2871 21.5093C19.1773 21.2579 19.1451 20.9796 19.1944 20.7098C19.2437 20.44 19.3722 20.191 19.5637 19.9946C19.7552 19.7983 20.0008 19.6634 20.2693 19.6074C20.5378 19.5513 20.8168 19.5765 21.0709 19.6798C21.325 19.7832 21.5424 19.9599 21.6956 20.1874C21.8487 20.4149 21.9306 20.6829 21.9307 20.9572C21.9347 21.318 21.7954 21.6657 21.5433 21.9239C21.2913 22.1822 20.9471 22.3299 20.5863 22.3347" fill="white"/>
<path d="M34.6443 23.4234L32.5262 20.9097L34.5819 18.399H33.06L31.2693 20.5734V16.1597H29.8594V23.4234H31.2693V21.2441L33.0943 23.4241L34.6443 23.4234Z" fill="white"/>
</g>
</g>
<defs>
<clipPath id="clip0_8925_96889">
<rect width="40" height="40" fill="white"/>
</clipPath>
</defs>
</svg>
