<svg width="10" height="7" viewBox="0 0 10 7" fill="none" xmlns="http://www.w3.org/2000/svg">
<mask id="path-1-inside-1_1248_34007" fill="white">
<path d="M0 7C1.11152 5.13336 2.22272 3.26662 3.33363 1.39998C4.44454 -0.46666 5.55574 -0.46666 6.66726 1.39998L10 7"/>
</mask>
<path d="M0 7C1.11152 5.13336 2.22272 3.26662 3.33363 1.39998C4.44454 -0.46666 5.55574 -0.46666 6.66726 1.39998L10 7" fill="#111111"/>
<path d="M-0.859208 6.48837L-1.37083 7.34758L0.347582 8.37083L0.859208 7.51163L-0.859208 6.48837ZM6.66726 1.39998L7.52659 0.888565L7.52647 0.888354L6.66726 1.39998ZM9.14067 7.51142L9.65208 8.37075L11.3707 7.34792L10.8593 6.48858L9.14067 7.51142ZM0.859208 7.51163C1.97077 5.6449 3.08202 3.77809 4.19296 1.9114L2.4743 0.88856C1.36342 2.75515 0.252258 4.62182 -0.859208 6.48837L0.859208 7.51163ZM4.19296 1.9114C4.43899 1.49799 4.64947 1.2506 4.81007 1.11569C4.96359 0.986732 5.02165 1 5.00022 1C4.97881 1 5.03694 0.986753 5.19058 1.11578C5.35128 1.25073 5.56187 1.49818 5.80805 1.91161L7.52647 0.888354C6.95488 -0.0715458 6.14098 -1 5.00022 -1C3.85933 -1 3.0456 -0.0713841 2.4743 0.88856L4.19296 1.9114ZM5.80793 1.9114L9.14067 7.51142L10.8593 6.48858L7.52659 0.888565L5.80793 1.9114Z" fill="#111111" mask="url(#path-1-inside-1_1248_34007)"/>
</svg>
