<svg width="36" height="36" viewBox="0 0 36 36" fill="none" xmlns="http://www.w3.org/2000/svg">
<path d="M18.0003 21.0162C19.8481 21.0174 21.6311 21.6968 23.011 22.9256C24.3909 24.1544 25.2717 25.8469 25.4863 27.6822C25.511 27.921 25.6228 28.1423 25.8005 28.3038C25.9782 28.4653 26.2093 28.5555 26.4493 28.5572H32.5333C32.6667 28.5572 32.7987 28.5298 32.9211 28.4768C33.0435 28.4238 33.1538 28.3463 33.245 28.249C33.3363 28.1517 33.4067 28.0368 33.4518 27.9113C33.4969 27.7857 33.5158 27.6523 33.5073 27.5192C33.2376 23.5894 31.4862 19.9085 28.6071 17.2203C25.728 14.532 21.9359 13.0369 17.9968 13.0369C14.0578 13.0369 10.2657 14.532 7.38656 17.2203C4.50747 19.9085 2.7561 23.5894 2.48635 27.5192C2.47787 27.6523 2.49678 27.7857 2.54189 27.9113C2.587 28.0368 2.65737 28.1517 2.74865 28.249C2.83992 28.3463 2.95017 28.4238 3.07257 28.4768C3.19498 28.5298 3.32696 28.5572 3.46035 28.5572H9.54635C9.78644 28.5555 10.0175 28.4653 10.1952 28.3038C10.3729 28.1423 10.4847 27.921 10.5093 27.6822C10.7241 25.8461 11.6056 24.1528 12.9866 22.9239C14.3676 21.6951 16.1518 21.0161 18.0003 21.0162Z" fill="#E6E6E6"/>
<path d="M32.5392 29.042H26.4542C26.0957 29.0401 25.7505 28.9067 25.4839 28.667C25.2174 28.4274 25.0481 28.0982 25.0082 27.742C24.8078 26.0239 23.9832 24.4391 22.6911 23.289C21.3991 22.1388 19.7295 21.5034 17.9997 21.5034C16.2698 21.5034 14.6003 22.1388 13.3082 23.289C12.0161 24.4391 11.1915 26.0239 10.9912 27.742C10.9512 28.0982 10.7819 28.4274 10.5154 28.667C10.2488 28.9067 9.90359 29.0401 9.54516 29.042H3.46216C3.26195 29.0426 3.06377 29.002 2.8799 28.9228C2.69604 28.8435 2.53042 28.7274 2.39333 28.5815C2.25623 28.4356 2.15059 28.263 2.08296 28.0746C2.01533 27.8862 1.98714 27.6858 2.00016 27.486C2.27251 23.4288 4.07629 19.6267 7.04635 16.8493C10.0164 14.0719 13.9308 12.5269 17.9972 12.5269C22.0635 12.5269 25.9779 14.0719 28.948 16.8493C31.918 19.6267 33.7218 23.4288 33.9942 27.486C34.007 27.6855 33.9788 27.8854 33.9114 28.0735C33.844 28.2616 33.7387 28.4339 33.602 28.5797C33.4654 28.7255 33.3003 28.8418 33.117 28.9213C32.9337 29.0008 32.736 29.0419 32.5362 29.042M18.0002 20.529C19.9691 20.5273 21.8698 21.25 23.3403 22.5593C24.8108 23.8686 25.7483 25.6731 25.9742 27.629C25.9857 27.7492 26.0409 27.8609 26.1294 27.9429C26.2179 28.025 26.3335 28.0716 26.4542 28.074H32.5392C32.606 28.0739 32.6722 28.0601 32.7335 28.0334C32.7948 28.0068 32.8501 27.9678 32.8958 27.919C32.9415 27.8702 32.9767 27.8126 32.9993 27.7496C33.0219 27.6867 33.0314 27.6198 33.0272 27.553C32.7725 23.7409 31.0785 20.168 28.2883 17.558C25.4981 14.948 21.8203 13.496 17.9997 13.496C14.179 13.496 10.5012 14.948 7.71101 17.558C4.92082 20.168 3.22685 23.7409 2.97216 27.553C2.96793 27.6199 2.97743 27.6868 3.00009 27.7499C3.02275 27.8129 3.05808 27.8706 3.1039 27.9194C3.14972 27.9682 3.20507 28.0071 3.26651 28.0337C3.32796 28.0603 3.39421 28.074 3.46116 28.074H9.54616C9.66682 28.0716 9.78239 28.025 9.8709 27.9429C9.9594 27.8609 10.0147 27.7492 10.0262 27.629C10.252 25.6731 11.1895 23.8686 12.66 22.5593C14.1305 21.25 16.0312 20.5273 18.0002 20.529Z" fill="#111111"/>
<path d="M18.4277 14.0572V20.1722C18.4292 20.4035 18.5129 20.6268 18.6639 20.8021C18.8148 20.9774 19.0232 21.0933 19.2517 21.1292C20.8599 21.3994 22.3372 22.1838 23.4617 23.3648C24.5863 24.5458 25.2975 26.0596 25.4887 27.6792C25.5133 27.9184 25.6253 28.1401 25.8031 28.3019C25.981 28.4637 26.2123 28.5542 26.4527 28.5562H32.5367C32.6698 28.5563 32.8014 28.5291 32.9236 28.4765C33.0457 28.4239 33.1559 28.3468 33.2472 28.2501C33.3385 28.1533 33.409 28.039 33.4545 27.914C33.5 27.7889 33.5195 27.656 33.5117 27.5232C33.2649 23.846 31.7196 20.3761 29.1517 17.7325C26.5838 15.0889 23.1602 13.4437 19.4917 13.0902C19.3568 13.0779 19.2209 13.094 19.0925 13.1372C18.9641 13.1804 18.8462 13.2499 18.7462 13.3413C18.6461 13.4327 18.5663 13.5439 18.5116 13.6678C18.457 13.7917 18.4287 13.9257 18.4287 14.0612" fill="#12A396"/>
<path d="M32.5394 29.0421H26.4564C26.0969 29.0396 25.7509 28.9052 25.484 28.6645C25.217 28.4237 25.0478 28.0934 25.0084 27.7361C24.8264 26.2222 24.1599 24.8077 23.1084 23.7036C22.0568 22.5994 20.6765 21.8647 19.1734 21.6091C18.8311 21.5547 18.5193 21.3802 18.2939 21.1169C18.0686 20.8536 17.9443 20.5187 17.9434 20.1721V14.0571C17.9433 13.8535 17.9858 13.652 18.0681 13.4658C18.1504 13.2795 18.2708 13.1126 18.4214 12.9756C18.5721 12.8386 18.7497 12.7346 18.9429 12.6702C19.1361 12.6059 19.3406 12.5827 19.5434 12.6021C23.3321 12.9511 26.8713 14.6431 29.5218 17.3728C32.1724 20.1024 33.7598 23.6897 33.9974 27.4871C34.0101 27.6864 33.9818 27.8862 33.9143 28.0742C33.8468 28.2622 33.7415 28.4344 33.6048 28.5801C33.4682 28.7258 33.3032 28.842 33.1199 28.9214C32.9367 29.0009 32.7391 29.0419 32.5394 29.0421ZM19.4004 13.5671C19.2802 13.5672 19.1646 13.6125 19.0764 13.6941C19.0254 13.7398 18.9848 13.7958 18.957 13.8584C18.9293 13.9209 18.9151 13.9886 18.9154 14.0571V20.1721C18.9172 20.2885 18.9603 20.4005 19.0371 20.488C19.1138 20.5756 19.2192 20.633 19.3344 20.6501C21.0449 20.9412 22.6156 21.7775 23.8122 23.0341C25.0088 24.2906 25.7672 25.9003 25.9744 27.6231C25.9846 27.7443 26.0396 27.8574 26.1287 27.9403C26.2179 28.0231 26.3347 28.0698 26.4564 28.0711H32.5404C32.6076 28.0712 32.6741 28.0574 32.7357 28.0305C32.7973 28.0037 32.8527 27.9644 32.8984 27.9151C32.9443 27.8668 32.9796 27.8095 33.0022 27.7469C33.0247 27.6842 33.034 27.6175 33.0294 27.5511C32.8061 23.9831 31.3143 20.6126 28.8232 18.0485C26.3322 15.4843 23.0064 13.8955 19.4464 13.5691H19.4004" fill="#111111"/>
<path d="M17.6543 8.77508L15.0063 23.4261C14.9098 23.9611 15.0288 24.5125 15.3373 24.9601L17.7113 28.4041C17.7437 28.4509 17.787 28.4892 17.8374 28.5156C17.8878 28.542 17.9439 28.5558 18.0008 28.5558C18.0578 28.5558 18.1139 28.542 18.1643 28.5156C18.2147 28.4892 18.258 28.4509 18.2903 28.4041L20.6643 24.9601C20.9728 24.5125 21.0918 23.9611 20.9953 23.4261L18.3463 8.77508C18.3312 8.69435 18.2884 8.62144 18.2252 8.56898C18.162 8.51651 18.0825 8.48779 18.0003 8.48779C17.9182 8.48779 17.8387 8.51651 17.7755 8.56898C17.7123 8.62144 17.6694 8.69435 17.6543 8.77508Z" fill="white"/>
<path d="M18.0004 29.0411C17.8649 29.0411 17.7313 29.0081 17.6113 28.9451C17.4913 28.882 17.3884 28.7907 17.3114 28.6791L14.9374 25.2351C14.7472 24.9611 14.6131 24.6521 14.5429 24.326C14.4727 23.9999 14.4678 23.6631 14.5284 23.3351L17.1774 8.6881C17.2119 8.49465 17.3134 8.31951 17.4641 8.19335C17.6147 8.06718 17.8049 7.99805 18.0014 7.99805C18.1979 7.99805 18.3882 8.06718 18.5388 8.19335C18.6895 8.31951 18.7909 8.49465 18.8254 8.6881L21.4734 23.3391C21.5338 23.6671 21.5288 24.0039 21.4586 24.3299C21.3884 24.656 21.2544 24.965 21.0644 25.2391L18.6854 28.6791C18.6085 28.7907 18.5056 28.882 18.3856 28.9451C18.2656 29.0081 18.132 29.0411 17.9964 29.0411M17.9964 9.5921L15.4854 23.5121C15.4485 23.7145 15.4518 23.9222 15.4953 24.1233C15.5387 24.3244 15.6213 24.515 15.7384 24.6841L18.0014 27.9681L20.2644 24.6841C20.3816 24.515 20.4642 24.3244 20.5076 24.1233C20.551 23.9222 20.5544 23.7145 20.5174 23.5121L17.9964 9.5921Z" fill="#111111"/>
</svg>
