<svg width="24" height="24" viewBox="0 0 24 24" fill="none" xmlns="http://www.w3.org/2000/svg">
<path opacity="0.5" fill-rule="evenodd" clip-rule="evenodd" d="M12 2C17.5228 2 22 6.47715 22 12C22 17.5228 17.5228 22 12 22C6.47715 22 2 17.5228 2 12C2 6.47715 6.47715 2 12 2ZM12.7501 8C12.7501 7.58579 12.4143 7.25 12.0001 7.25C11.5859 7.25 11.2501 7.58579 11.2501 8V11.2501H8C7.58579 11.2501 7.25 11.5859 7.25 12.0001C7.25 12.4143 7.58579 12.7501 8 12.7501H11.2501V16.0002C11.2501 16.4144 11.5859 16.7502 12.0001 16.7502C12.4143 16.7502 12.7501 16.4144 12.7501 16.0002V12.7501H16.0002C16.4144 12.7501 16.7502 12.4143 16.7502 12.0001C16.7502 11.5859 16.4144 11.2501 16.0002 11.2501H12.7501V8Z" fill="white"/>
</svg>
