<svg width="24" height="24" viewBox="0 0 24 24" fill="none" xmlns="http://www.w3.org/2000/svg">
<path d="M18 10H20.5C20.8978 10 21.2794 9.84197 21.5607 9.56067C21.842 9.27936 22 8.89782 22 8.5V4.5C22 4.10218 21.842 3.72064 21.5607 3.43933C21.2794 3.15803 20.8978 3 20.5 3H13.5C13.1022 3 12.7206 3.15803 12.4393 3.43933C12.158 3.72064 12 4.10218 12 4.5V8.5C12 8.89782 12.158 9.27936 12.4393 9.56067C12.7206 9.84197 13.1022 10 13.5 10H15.5V12L18 10Z" stroke="white" stroke-width="1.5" stroke-linecap="round" stroke-linejoin="round"/>
<path d="M17.5529 21.1231L18.4759 20.2001C18.7777 19.8979 18.9472 19.4882 18.9472 19.0611C18.9472 18.634 18.7777 18.2243 18.4759 17.9221L16.4159 15.8631C16.0131 15.4605 15.4669 15.2343 14.8974 15.2343C14.3279 15.2343 13.7817 15.4605 13.3789 15.8631L11.7629 17.4771C10.5646 17.0302 9.47639 16.3309 8.57196 15.4267C7.66754 14.5224 6.96806 13.4343 6.52094 12.2361L8.13694 10.6221C8.53961 10.2191 8.7658 9.67276 8.7658 9.10309C8.7658 8.53342 8.53961 7.98706 8.13694 7.5841L6.07694 5.52509C5.92742 5.37543 5.74986 5.25669 5.55443 5.17568C5.35899 5.09467 5.1495 5.05298 4.93794 5.05298C4.72638 5.05298 4.51689 5.09467 4.32146 5.17568C4.12602 5.25669 3.94846 5.37543 3.79894 5.52509L2.87594 6.44709C2.16429 7.15998 1.76409 8.12579 1.76294 9.1331C1.76189 10.8537 2.10001 12.5577 2.75798 14.1475C3.41594 15.7373 4.38084 17.1819 5.5975 18.3985C6.81415 19.6152 8.25871 20.5801 9.84855 21.2381C11.4384 21.896 13.1423 22.2341 14.8629 22.2331C15.3623 22.2339 15.8568 22.1363 16.3184 21.9458C16.78 21.7553 17.1995 21.4758 17.5529 21.1231Z" stroke="white" stroke-width="1.5" stroke-linecap="round" stroke-linejoin="round"/>
<path d="M14.75 6.5C14.8881 6.5 15 6.61193 15 6.75C15 6.88807 14.8881 7 14.75 7C14.6119 7 14.5 6.88807 14.5 6.75C14.5 6.61193 14.6119 6.5 14.75 6.5Z" fill="white" stroke="white"/>
<path d="M17 6.5C17.1381 6.5 17.25 6.61193 17.25 6.75C17.25 6.88807 17.1381 7 17 7C16.8619 7 16.75 6.88807 16.75 6.75C16.75 6.61193 16.8619 6.5 17 6.5Z" fill="white" stroke="white"/>
<path d="M19.25 6.5C19.3881 6.5 19.5 6.61193 19.5 6.75C19.5 6.88807 19.3881 7 19.25 7C19.1119 7 19 6.88807 19 6.75C19 6.61193 19.1119 6.5 19.25 6.5Z" fill="white" stroke="white"/>
</svg>
