<svg width="32" height="32" viewBox="0 0 32 32" fill="none" xmlns="http://www.w3.org/2000/svg">
<path d="M5.5 11.707H21.5C22.8261 11.707 24.0979 12.2338 25.0355 13.1715C25.9732 14.1092 26.5 15.3809 26.5 16.707V24.843C26.5 26.1691 25.9732 27.4409 25.0355 28.3786C24.0979 29.3162 22.8261 29.843 21.5 29.843H10.5C9.17392 29.843 7.90215 29.3162 6.96447 28.3786C6.02678 27.4409 5.5 26.1691 5.5 24.843V11.707Z" stroke="#111111" stroke-width="1.5"/>
<path d="M21.7266 11.7062H9.3208V8.07022C9.39615 6.50492 10.0595 5.02578 11.1782 3.92837C12.2969 2.83097 13.7885 2.19626 15.355 2.15103C16.9214 2.10581 18.4473 2.65345 19.6274 3.68448C20.8076 4.71551 21.5552 6.15397 21.7207 7.71231" stroke="#111111" stroke-width="1.5" stroke-linecap="round"/>
<path d="M11.2268 18.8633C11.7537 18.8633 12.1814 19.2904 12.1814 19.8173C12.1814 20.3448 11.7537 20.7719 11.2268 20.7719C10.6999 20.7719 10.272 20.3448 10.272 19.8173C10.272 19.2904 10.6999 18.8633 11.2268 18.8633ZM15.9995 18.8633C16.5264 18.8633 16.9543 19.2904 16.9543 19.8173C16.9543 20.3448 16.5264 20.7719 15.9995 20.7719C15.4726 20.7719 15.0447 20.3448 15.0447 19.8173C15.0447 19.2904 15.4726 18.8633 15.9995 18.8633ZM20.7722 18.8633C21.2991 18.8633 21.727 19.2904 21.727 19.8173C21.727 20.3448 21.2991 20.7719 20.7722 20.7719C20.2454 20.7719 19.8174 20.3448 19.8174 19.8173C19.8174 19.2904 20.2454 18.8633 20.7722 18.8633Z" fill="#00AC47"/>
</svg>
