<svg width="36" height="36" viewBox="0 0 36 36" fill="none" xmlns="http://www.w3.org/2000/svg">
<path d="M16.9998 30.999V23.606C16.7013 24.7488 16.0893 25.7855 15.2328 26.599C14.1544 27.5351 12.7582 28.0221 11.3316 27.9597C9.90494 27.8974 8.55649 27.2905 7.56382 26.264C6.57861 25.2518 6.01908 23.9003 6.00048 22.4879C5.98188 21.0755 6.50562 19.7098 7.46382 18.672C8.59282 17.544 11.7078 16.751 14.3158 16.264C14.3576 16.2557 14.3951 16.2331 14.4219 16.2C14.4487 16.1669 14.4631 16.1255 14.4625 16.0829C14.4619 16.0403 14.4464 15.9993 14.4187 15.967C14.391 15.9347 14.3528 15.9131 14.3108 15.906C11.6808 15.496 8.53482 14.706 7.40182 13.236C6.46564 12.1577 5.97846 10.7616 6.0406 9.33494C6.10273 7.90832 6.70944 6.5598 7.73582 5.567C8.74802 4.58179 10.0995 4.02226 11.5119 4.00365C12.9243 3.98505 14.29 4.50879 15.3278 5.467C16.4568 6.595 17.2488 9.711 17.7368 12.318C17.7445 12.3601 17.7668 12.3982 17.7999 12.4254C17.833 12.4526 17.8746 12.4672 17.9174 12.4666C17.9603 12.466 18.0015 12.4502 18.0338 12.4221C18.0661 12.394 18.0873 12.3553 18.0938 12.313C18.5038 9.683 19.2938 6.537 20.7638 5.404C21.8424 4.46798 23.2386 3.98092 24.6654 4.04305C26.0921 4.10518 27.4407 4.71176 28.4338 5.738C29.4191 6.75037 29.9787 8.10201 29.9973 9.51457C30.0159 10.9271 29.4921 12.293 28.5338 13.331C27.4048 14.459 24.2898 15.252 21.6828 15.739C21.6411 15.7473 21.6035 15.7699 21.5767 15.803C21.5499 15.8361 21.5356 15.8775 21.5362 15.9201C21.5367 15.9627 21.5522 16.0037 21.58 16.036C21.6077 16.0683 21.6458 16.0899 21.6878 16.097C24.3178 16.507 27.4638 17.297 28.5958 18.767C29.532 19.8453 30.0192 21.2414 29.9571 22.6681C29.8949 24.0947 29.2882 25.4432 28.2618 26.436C27.2496 27.4212 25.8981 27.9807 24.4858 27.9993C23.0734 28.0179 21.7076 27.4942 20.6698 26.536C19.8502 25.4674 19.2797 24.2293 18.9998 22.912V30.999C18.9998 31.2642 18.8945 31.5186 18.7069 31.7061C18.5194 31.8936 18.265 31.999 17.9998 31.999C17.7346 31.999 17.4803 31.8936 17.2927 31.7061C17.1052 31.5186 16.9998 31.2642 16.9998 30.999Z" fill="#19A854"/>
</svg>
