<svg width="24" height="24" viewBox="0 0 24 24" fill="none" xmlns="http://www.w3.org/2000/svg">
<mask id="mask0_1116_26766" style="mask-type:luminance" maskUnits="userSpaceOnUse" x="2" y="2" width="20" height="20">
<path d="M2.75 21.25V2.75H21.25V21.25H2.75Z" fill="white" stroke="white"/>
</mask>
<g mask="url(#mask0_1116_26766)">
<path d="M16.0018 11.9963C16.0018 12.7875 15.7673 13.5608 15.3277 14.2186C14.8882 14.8764 14.2635 15.3891 13.5326 15.6919C12.8017 15.9946 11.9974 16.0738 11.2215 15.9195C10.4456 15.7651 9.73283 15.3842 9.17342 14.8248C8.61401 14.2654 8.23305 13.5526 8.07871 12.7767C7.92437 12.0008 8.00358 11.1965 8.30633 10.4656C8.60908 9.7347 9.12177 9.10998 9.77957 8.67046C10.4374 8.23093 11.2107 7.99634 12.0018 7.99634C13.0627 7.99634 14.0801 8.41776 14.8303 9.16791C15.5804 9.91805 16.0018 10.9355 16.0018 11.9963ZM16.0018 11.9963V13.4963C16.0018 14.1594 16.2652 14.7953 16.7341 15.2641C17.2029 15.7329 17.8388 15.9963 18.5018 15.9963C19.1649 15.9963 19.8008 15.7329 20.2696 15.2641C20.7385 14.7953 21.0018 14.1594 21.0018 13.4963V11.9963C21.0078 9.97204 20.3342 8.00433 19.0889 6.40841C17.8435 4.81248 16.0986 3.68072 14.1336 3.19442C12.1686 2.70812 10.0972 2.89543 8.25127 3.72634C6.40536 4.55725 4.89175 5.98367 3.95291 7.7771C3.01407 9.57052 2.70435 11.6272 3.07335 13.6175C3.44234 15.6079 4.46871 17.4169 5.98803 18.7546C7.50735 20.0923 9.43169 20.8813 11.4528 20.9953C13.4739 21.1093 15.4747 20.5417 17.1348 19.3833" stroke="#111111" stroke-width="1.5" stroke-linecap="round" stroke-linejoin="round"/>
</g>
</svg>
