<svg width="32" height="32" viewBox="0 0 32 32" fill="none" xmlns="http://www.w3.org/2000/svg">
<path d="M12.4677 24.9941C12.0602 25.4007 11.5671 25.7114 11.0245 25.9036C10.4818 26.0958 9.90317 26.1646 9.33057 26.1052C8.75797 26.0457 8.20581 25.8594 7.71423 25.5598C7.22265 25.2602 6.804 24.8548 6.48871 24.3731C6.00786 23.6036 5.80624 22.6922 5.91767 21.7916C6.02909 20.8911 6.4468 20.0562 7.10071 19.4271L11.5247 15.0081C12.0637 14.4513 12.7541 14.0645 13.5104 13.8957C14.2668 13.7269 15.0561 13.7833 15.7807 14.0581C16.4974 14.3365 17.1124 14.8266 17.5437 15.4631C17.6948 15.6636 17.9173 15.7982 18.165 15.8388C18.4127 15.8795 18.6665 15.8232 18.8738 15.6816C19.081 15.54 19.2257 15.324 19.2779 15.0785C19.33 14.8329 19.2855 14.5767 19.1537 14.3631C18.5985 13.5493 17.8443 12.891 16.9627 12.4511C15.8406 11.9092 14.5767 11.7335 13.3493 11.9488C12.122 12.1641 10.9933 12.7596 10.1227 13.6511L5.74671 18.0261C4.78192 18.9587 4.16263 20.1914 3.99039 21.5222C3.81814 22.8529 4.10316 24.2027 4.79871 25.3501C5.26505 26.0897 5.8917 26.7149 6.63229 27.1795C7.37288 27.6442 8.20846 27.9364 9.07722 28.0345C9.94598 28.1327 10.8257 28.0342 11.6513 27.7464C12.4768 27.4587 13.2272 26.989 13.8467 26.3721L15.6877 24.5331C15.8703 24.3503 15.9728 24.1024 15.9726 23.8439C15.9724 23.5855 15.8696 23.3377 15.6867 23.1551C15.5038 22.9725 15.2559 22.8701 14.9975 22.8702C14.7391 22.8704 14.4913 22.9733 14.3087 23.1561L12.4677 24.9941Z" fill="white" stroke="white" stroke-width="0.5"/>
<path d="M19.5346 7.00592C19.942 6.59935 20.435 6.28867 20.9776 6.09649C21.5201 5.90432 22.0987 5.83546 22.6712 5.89493C23.2438 5.95441 23.7959 6.14072 24.2873 6.44032C24.7788 6.73992 25.1974 7.14528 25.5126 7.62692C25.9936 8.39639 26.1953 9.3079 26.0839 10.2085C25.9725 11.1091 25.5547 11.9439 24.9006 12.5729L20.4766 16.9919C19.9377 17.5489 19.2473 17.9357 18.4909 18.1046C17.7345 18.2734 16.9452 18.2169 16.2206 17.9419C15.504 17.6631 14.8894 17.1727 14.4586 16.5359C14.3075 16.3355 14.085 16.2009 13.8373 16.1602C13.5896 16.1195 13.3358 16.1758 13.1285 16.3175C12.9213 16.4591 12.7765 16.6751 12.7244 16.9206C12.6723 17.1661 12.7167 17.4223 12.8486 17.6359C13.4038 18.4498 14.158 19.108 15.0396 19.5479C16.1616 20.09 17.4256 20.2658 18.653 20.0505C19.8804 19.8351 21.0091 19.2396 21.8796 18.3479L26.2586 13.9749C27.2234 13.0424 27.8427 11.8096 28.0149 10.4789C28.1872 9.14818 27.9021 7.79841 27.2066 6.65092C26.7402 5.9114 26.1136 5.28618 25.373 4.82152C24.6324 4.35687 23.7968 4.06467 22.9281 3.96654C22.0593 3.86841 21.1796 3.96686 20.354 4.25461C19.5284 4.54236 18.7781 5.01205 18.1586 5.62892L16.3146 7.46792C16.132 7.65079 16.0295 7.89871 16.0297 8.15713C16.0299 8.41556 16.1327 8.66332 16.3156 8.84592C16.4984 9.02853 16.7464 9.13101 17.0048 9.13082C17.2632 9.13063 17.511 9.02779 17.6936 8.84492L19.5346 7.00592Z" fill="white" stroke="white" stroke-width="0.5"/>
</svg>
