<svg width="24" height="24" viewBox="0 0 24 24" fill="none" xmlns="http://www.w3.org/2000/svg">
<path d="M12.253 11.006C13.4973 11.006 14.506 9.9973 14.506 8.753C14.506 7.5087 13.4973 6.5 12.253 6.5C11.0087 6.5 10 7.5087 10 8.753C10 9.9973 11.0087 11.006 12.253 11.006Z" stroke="#111111" stroke-width="1.5" stroke-linecap="round" stroke-linejoin="round"/>
<path d="M15.9421 16.379C15.771 15.6826 15.4771 15.0222 15.0741 14.429C14.8257 14.0165 14.4805 13.6708 14.0684 13.4218C13.6563 13.1728 13.1898 13.028 12.7091 13H11.2921C10.8114 13.028 10.3448 13.1728 9.93274 13.4218C9.52064 13.6708 9.17544 14.0165 8.92706 14.429C8.52374 15.0222 8.22951 15.6825 8.05811 16.379" stroke="#111111" stroke-width="1.5" stroke-linecap="round" stroke-linejoin="round"/>
<path d="M21 12.6133C21 17.0543 15.774 20.3533 13.283 21.6783C12.8893 21.889 12.4496 21.9993 12.003 21.9993C11.5564 21.9993 11.1167 21.889 10.723 21.6783C8.23198 20.3543 3.00099 17.0473 3.00099 12.6113V6.19827C2.99943 5.91362 3.1016 5.63812 3.28841 5.42334C3.47522 5.20856 3.73386 5.0692 4.01598 5.03128C6.41874 4.83509 8.71337 3.9477 10.623 2.47626C11.0158 2.16709 11.5011 1.99902 12.001 1.99902C12.5009 1.99902 12.9862 2.16709 13.379 2.47626C15.2886 3.9477 17.5832 4.83509 19.986 5.03128C20.2683 5.06946 20.527 5.20923 20.7136 5.42441C20.9003 5.63959 21.0021 5.91541 21 6.20026V12.6133Z" stroke="#111111" stroke-width="1.5" stroke-linecap="round" stroke-linejoin="round"/>
</svg>
