<svg width="24" height="24" viewBox="0 0 24 24" fill="none" xmlns="http://www.w3.org/2000/svg">
<path d="M17.6367 9.20117H19.0617C19.5922 9.20117 20.1009 9.41189 20.4759 9.78696C20.851 10.162 21.0617 10.6707 21.0617 11.2012V12.8222C21.0617 13.0848 21.01 13.3449 20.9095 13.5875C20.809 13.8302 20.6616 14.0507 20.4759 14.2364C20.2902 14.4221 20.0697 14.5694 19.8271 14.6699C19.5844 14.7704 19.3244 14.8222 19.0617 14.8222H17.6367V9.20117Z" stroke="#111111" stroke-width="1.5" stroke-linecap="round" stroke-linejoin="round"/>
<path d="M17.6332 10.5852V9.16724C17.6332 7.67265 17.0396 6.2393 15.9828 5.18237C14.9261 4.12545 13.4928 3.53152 11.9982 3.53125C10.5036 3.53152 9.07041 4.12545 8.01367 5.18237C6.95693 6.2393 6.36328 7.67265 6.36328 9.16724V10.5852" stroke="#111111" stroke-width="1.5" stroke-linecap="round" stroke-linejoin="round"/>
<path d="M4.94141 9.20117H6.36641V14.8222H4.94141C4.41097 14.8222 3.90227 14.6115 3.52719 14.2364C3.15212 13.8613 2.94141 13.3526 2.94141 12.8222V11.2012C2.94141 10.6707 3.15212 10.162 3.52719 9.78696C3.90227 9.41189 4.41097 9.20117 4.94141 9.20117Z" stroke="#111111" stroke-width="1.5" stroke-linecap="round" stroke-linejoin="round"/>
<path d="M17.6357 12.7617V14.0618C17.6357 15.7463 16.6817 17.2419 15.207 18.1817" stroke="#111111" stroke-width="1.5" stroke-linecap="round" stroke-linejoin="round"/>
<path d="M13.7802 16.9961H9.91016C9.2198 16.9961 8.66016 17.5557 8.66016 18.2461V18.7431C8.66016 19.4334 9.2198 19.9931 9.91016 19.9931H13.7802C14.4705 19.9931 15.0302 19.4334 15.0302 18.7431V18.2461C15.0302 17.5557 14.4705 16.9961 13.7802 16.9961Z" stroke="#111111" stroke-width="1.5"/>
</svg>
