<svg width="36" height="36" viewBox="0 0 36 36" fill="none" xmlns="http://www.w3.org/2000/svg">
<path d="M28 7.79907H8C6.89543 7.79907 6 8.6945 6 9.79907V28.9991C6 30.1036 6.89543 30.9991 8 30.9991H28C29.1046 30.9991 30 30.1036 30 28.9991V9.79907C30 8.6945 29.1046 7.79907 28 7.79907Z" fill="#E9BAE3"/>
<path d="M21.5307 7.79907H14.4717V30.9991H21.5307V7.79907Z" fill="url(#paint0_linear_11613_52001)"/>
<path d="M18.3057 12.2901H17.8857L16.3857 15.8901L15.0967 15.3471L16.4737 12.0391L16.4297 12.0131C15.8605 12.4707 15.1595 12.7336 14.4297 12.7631C14.2205 12.7643 14.012 12.7378 13.8097 12.6841C12.6297 12.3681 11.7777 11.1991 11.2637 9.21811C10.9993 8.41598 11.058 7.54232 11.4276 6.78285C11.7972 6.02338 12.4483 5.43799 13.2427 5.15111C13.5977 5.02877 13.9736 4.97883 14.3482 5.00425C14.7228 5.02967 15.0886 5.12993 15.4237 5.29911C16.244 5.74445 16.8893 6.4543 17.2547 7.31311C17.341 7.30252 17.4279 7.29785 17.5147 7.29911H18.6997C18.782 7.29915 18.8642 7.30449 18.9457 7.31511C19.3093 6.45364 19.9564 5.74232 20.7797 5.29911C21.1148 5.13007 21.4803 5.02988 21.8548 5.00446C22.2292 4.97904 22.6049 5.02891 22.9597 5.15111C23.7543 5.43778 24.4057 6.02314 24.7753 6.78268C25.1448 7.54222 25.2035 8.41599 24.9387 9.21811C24.4247 11.1981 23.5697 12.3631 22.3947 12.6831C22.1925 12.7368 21.984 12.7633 21.7747 12.7621H21.7687C21.0422 12.7331 20.3439 12.4728 19.7757 12.0191L19.7217 12.0501L21.0947 15.3501L19.8057 15.8931L18.3057 12.2901ZM22.0297 11.3221C22.6677 11.1531 23.2157 10.2761 23.5847 8.86411C23.6709 8.6361 23.7111 8.39327 23.7029 8.14965C23.6948 7.90603 23.6385 7.66644 23.5372 7.4447C23.436 7.22296 23.2918 7.02347 23.1131 6.85774C22.9343 6.69201 22.7245 6.56333 22.4957 6.47911C22.3163 6.41788 22.1262 6.39376 21.9371 6.4082C21.748 6.42264 21.5639 6.47534 21.3957 6.56311C20.8356 6.88044 20.4037 7.38337 20.1747 7.98511C20.4403 8.29905 20.5996 8.68903 20.6297 9.09911L20.7137 10.1991C20.7316 10.4427 20.7041 10.6875 20.6327 10.9211C20.8229 11.0848 21.0462 11.2054 21.2873 11.2747C21.5285 11.3439 21.7817 11.3601 22.0297 11.3221ZM13.7067 6.47911C13.4781 6.56345 13.2683 6.6922 13.0896 6.85793C12.9109 7.02366 12.7668 7.22311 12.6654 7.44479C12.5641 7.66647 12.5077 7.906 12.4993 8.14959C12.491 8.39318 12.5309 8.63601 12.6167 8.86411C12.9857 10.2811 13.5337 11.1541 14.1707 11.3221C14.4205 11.3581 14.675 11.3394 14.9167 11.2672C15.1585 11.195 15.3816 11.0711 15.5707 10.9041C15.5005 10.6734 15.4743 10.4315 15.4937 10.1911L15.5797 9.09911C15.6113 8.69448 15.7687 8.30985 16.0297 7.99911C15.8022 7.39295 15.3704 6.88512 14.8087 6.56311C14.6054 6.45967 14.3809 6.4049 14.1527 6.40311C14.0009 6.4034 13.8501 6.42909 13.7067 6.47911Z" fill="#E24949"/>
<defs>
<linearGradient id="paint0_linear_11613_52001" x1="18.0012" y1="7.79907" x2="18.0012" y2="30.9991" gradientUnits="userSpaceOnUse">
<stop stop-color="#7E0B6F"/>
<stop offset="1" stop-color="#AD1A7C"/>
</linearGradient>
</defs>
</svg>
