<svg width="24" height="24" viewBox="0 0 24 24" fill="none" xmlns="http://www.w3.org/2000/svg">
<path d="M10.225 15.4612C10.0308 15.6551 9.76749 15.764 9.49301 15.764C9.21852 15.764 8.95525 15.6551 8.76101 15.4612L7.26501 13.9502C7.09938 13.7841 6.9026 13.6523 6.68596 13.5624C6.46932 13.4725 6.23706 13.4262 6.00251 13.4262C5.76795 13.4262 5.53569 13.4725 5.31905 13.5624C5.10241 13.6523 4.90564 13.7841 4.74001 13.9502L2.00001 16.6862V17.9952C1.99935 18.2582 2.05059 18.5188 2.15081 18.7621C2.25102 19.0053 2.39824 19.2264 2.58402 19.4126C2.7698 19.5989 2.99051 19.7466 3.23348 19.8475C3.47646 19.9483 3.73694 20.0002 4.00001 20.0002H19.995C20.5259 19.9988 21.0346 19.787 21.4095 19.4112C21.7845 19.0353 21.995 18.5261 21.995 17.9952V13.6862L18.265 9.95017C18.0989 9.78393 17.9018 9.65205 17.6847 9.56207C17.4676 9.47209 17.235 9.42578 17 9.42578C16.765 9.42578 16.5324 9.47209 16.3153 9.56207C16.0983 9.65205 15.9011 9.78393 15.735 9.95017L11.65 14.0342L10.225 15.4612Z" stroke="#111111" stroke-width="1.5" stroke-miterlimit="10"/>
<path d="M20 4H4C2.89543 4 2 4.89543 2 6V18C2 19.1046 2.89543 20 4 20H20C21.1046 20 22 19.1046 22 18V6C22 4.89543 21.1046 4 20 4Z" stroke="#111111" stroke-width="1.5" stroke-miterlimit="10"/>
<path d="M8.5 11.5C9.60457 11.5 10.5 10.6046 10.5 9.5C10.5 8.39543 9.60457 7.5 8.5 7.5C7.39543 7.5 6.5 8.39543 6.5 9.5C6.5 10.6046 7.39543 11.5 8.5 11.5Z" stroke="#111111" stroke-width="1.5" stroke-miterlimit="10"/>
</svg>
