<svg width="48" height="48" viewBox="0 0 48 48" fill="none" xmlns="http://www.w3.org/2000/svg">
<path d="M31.25 2.375H11.25C8.35051 2.375 6 4.72551 6 7.625V35.625C6 38.5245 8.35051 40.875 11.25 40.875H31.25C34.1495 40.875 36.5 38.5245 36.5 35.625V7.625C36.5 4.72551 34.1495 2.375 31.25 2.375Z" stroke="#B3B3B3" stroke-width="1.5"/>
<path d="M26.25 10H12.75C12.3358 10 12 10.3358 12 10.75C12 11.1642 12.3358 11.5 12.75 11.5H26.25C26.6642 11.5 27 11.1642 27 10.75C27 10.3358 26.6642 10 26.25 10Z" fill="#B3B3B3"/>
<path d="M21.25 16H12.75C12.3358 16 12 16.3358 12 16.75C12 17.1642 12.3358 17.5 12.75 17.5H21.25C21.6642 17.5 22 17.1642 22 16.75C22 16.3358 21.6642 16 21.25 16Z" fill="#B3B3B3"/>
<path d="M41.4135 28.007C41.1422 27.932 40.204 27.668 38.9288 27.249C36.2744 26.4085 33.7037 25.3208 31.25 24C27.9853 25.7059 24.5492 27.0572 21.0001 28.031V34.631C20.9945 36.1697 21.3659 37.6861 22.0814 39.046C22.551 39.9359 23.1395 40.7569 23.8307 41.486C25.9171 43.5561 28.4589 45.1026 31.25 46C31.25 46 41.5 43.011 41.5 34.634V28.034L41.4145 28.01" fill="#19973C"/>
<path d="M31.25 29.5C30.5083 29.5 29.7833 29.7244 29.1666 30.1449C28.5499 30.5654 28.0693 31.1631 27.7855 31.8623C27.5016 32.5616 27.4274 33.331 27.5721 34.0733C27.7168 34.8156 28.0739 35.4975 28.5984 36.0327C28.6637 36.0993 28.7312 36.1633 28.8008 36.2245V39.2376C28.8008 39.5007 28.9342 39.745 29.1535 39.8833C29.3728 40.0216 29.6466 40.0342 29.8771 39.9167L31.2495 39.2168L32.6219 39.9167C32.8525 40.0342 33.1263 40.0216 33.3456 39.8833C33.5648 39.745 33.6983 39.5007 33.6983 39.2376V36.2254C33.9533 36.001 34.1789 35.7415 34.368 35.4528C34.7801 34.8235 35 34.0836 35 33.3267C34.9989 32.3122 34.6035 31.3394 33.9005 30.622C33.1975 29.9046 32.2442 29.5011 31.25 29.5Z" fill="white"/>
</svg>
