<svg width="36" height="36" viewBox="0 0 36 36" fill="none" xmlns="http://www.w3.org/2000/svg">
<g filter="url(#filter0_i_11613_52006)">
<path d="M29.025 9.40705C27.6385 7.95883 25.7482 7.09918 23.7455 7.00611C21.7427 6.91304 19.7808 7.59366 18.266 8.90705L17.995 9.14301L17.724 8.90705C16.2108 7.59348 14.2501 6.91265 12.2484 7.00574C10.2468 7.09883 8.35778 7.9587 6.97302 9.40705C5.73825 10.7025 5.03401 12.4138 4.99939 14.2031C4.96477 15.9925 5.60228 17.7298 6.78601 19.072C7.00293 19.3256 7.23675 19.5641 7.48596 19.786L17.996 28.9981L28.506 19.786C28.7542 19.5631 28.988 19.3246 29.2059 19.072C30.3902 17.7304 31.0287 15.9936 30.9952 14.2044C30.9617 12.4151 30.2587 10.7034 29.025 9.40705Z" fill="#F67F7D"/>
</g>
<defs>
<filter id="filter0_i_11613_52006" x="4.99805" y="2.99731" width="25.998" height="26.0007" filterUnits="userSpaceOnUse" color-interpolation-filters="sRGB">
<feFlood flood-opacity="0" result="BackgroundImageFix"/>
<feBlend mode="normal" in="SourceGraphic" in2="BackgroundImageFix" result="shape"/>
<feColorMatrix in="SourceAlpha" type="matrix" values="0 0 0 0 0 0 0 0 0 0 0 0 0 0 0 0 0 0 127 0" result="hardAlpha"/>
<feOffset dy="-4"/>
<feGaussianBlur stdDeviation="3"/>
<feComposite in2="hardAlpha" operator="arithmetic" k2="-1" k3="1"/>
<feColorMatrix type="matrix" values="0 0 0 0 0.882353 0 0 0 0 0.407843 0 0 0 0 0.403922 0 0 0 1 0"/>
<feBlend mode="normal" in2="shape" result="effect1_innerShadow_11613_52006"/>
</filter>
</defs>
</svg>
