<svg width="36" height="36" viewBox="0 0 36 36" fill="none" xmlns="http://www.w3.org/2000/svg">
<path d="M2.51453 16C2.39504 16.0008 2.27899 15.96 2.18627 15.8846C2.09354 15.8093 2.02991 15.704 2.00627 15.5869C1.98263 15.4697 2.00046 15.348 2.0567 15.2426C2.11294 15.1372 2.20408 15.0546 2.31453 15.009L25.9065 5.18097C26.0326 5.12793 26.1747 5.12716 26.3013 5.17882C26.428 5.23049 26.529 5.33036 26.582 5.45647C26.6351 5.58258 26.6358 5.7246 26.5842 5.85128C26.5325 5.97796 26.4326 6.07893 26.3065 6.13197L2.71153 15.96C2.64825 15.9867 2.58021 16.0003 2.51153 16" fill="#111111"/>
<path d="M25.7038 9.7299C25.6383 9.72998 25.5735 9.71742 25.5128 9.6929C25.386 9.64198 25.2845 9.54284 25.2307 9.41724C25.1769 9.29163 25.1751 9.14982 25.2258 9.0229L26.6708 5.4139L23.1208 3.9939C23.0579 3.96875 23.0007 3.93147 22.9522 3.88419C22.9038 3.83691 22.8652 3.78055 22.8385 3.71834C22.8119 3.65612 22.7977 3.58927 22.7969 3.52159C22.7961 3.45391 22.8086 3.38673 22.8338 3.3239C22.8589 3.26106 22.8962 3.20379 22.9435 3.15536C22.9908 3.10693 23.0471 3.06829 23.1093 3.04164C23.1715 3.01499 23.2384 3.00085 23.3061 3.00004C23.3738 2.99922 23.4409 3.01175 23.5038 3.0369L27.5328 4.6489C27.5956 4.6741 27.6528 4.71142 27.7011 4.75874C27.7495 4.80605 27.788 4.86243 27.8146 4.92465C27.8411 4.98686 27.8552 5.05371 27.8559 5.12135C27.8566 5.189 27.844 5.25613 27.8188 5.3189L26.1828 9.4059C26.1444 9.50146 26.0782 9.58331 25.9928 9.64089C25.9074 9.69847 25.8068 9.73012 25.7038 9.7299Z" fill="#111111"/>
<path d="M18.2617 32.7719H23.4127V13.7169C23.4127 13.3071 23.2499 12.9141 22.9602 12.6244C22.6705 12.3347 22.2775 12.1719 21.8677 12.1719H19.8077C19.398 12.1719 19.005 12.3347 18.7152 12.6244C18.4255 12.9141 18.2627 13.3071 18.2627 13.7169L18.2617 32.7719Z" fill="#B9B5EF"/>
<path d="M23.416 33.2902H18.265C18.1284 33.2902 17.9974 33.236 17.9008 33.1394C17.8043 33.0428 17.75 32.9118 17.75 32.7752V13.7162C17.7505 13.1701 17.9677 12.6464 18.3539 12.2602C18.7402 11.874 19.2638 11.6568 19.81 11.6562H21.874C22.4202 11.6568 22.9438 11.874 23.3301 12.2602C23.7163 12.6464 23.9335 13.1701 23.934 13.7162V32.7752C23.934 32.9118 23.8797 33.0428 23.7832 33.1394C23.6866 33.236 23.5556 33.2902 23.419 33.2902M18.78 32.2573H22.901V13.7162C22.9007 13.4432 22.7921 13.1813 22.599 12.9882C22.4059 12.7951 22.1441 12.6865 21.871 12.6863H19.811C19.5379 12.6865 19.2761 12.7951 19.083 12.9882C18.8899 13.1813 18.7813 13.4432 18.781 13.7162L18.78 32.2573Z" fill="#111111"/>
<path d="M11.139 32.7727H15.26C15.3966 32.7727 15.5276 32.7184 15.6242 32.6218C15.7207 32.5253 15.775 32.3943 15.775 32.2577V18.3497C15.775 17.9399 15.6122 17.547 15.3225 17.2572C15.0327 16.9675 14.6398 16.8047 14.23 16.8047H12.17C11.7602 16.8047 11.3673 16.9675 11.0775 17.2572C10.7878 17.547 10.625 17.9399 10.625 18.3497V32.2577C10.625 32.3943 10.6793 32.5253 10.7758 32.6218C10.8724 32.7184 11.0024 32.7727 11.139 32.7727Z" fill="white"/>
<path d="M15.2614 33.2901H11.1394C10.8663 33.2898 10.6045 33.1812 10.4113 32.9881C10.2182 32.795 10.1096 32.5332 10.1094 32.2601V18.3491C10.1099 17.8029 10.3271 17.2792 10.7133 16.893C11.0995 16.5068 11.6232 16.2896 12.1694 16.2891H14.2294C14.7756 16.2896 15.2992 16.5068 15.6854 16.893C16.0716 17.2792 16.2888 17.8029 16.2894 18.3491V32.2571C16.2899 32.5303 16.1819 32.7926 15.9892 32.9863C15.7964 33.18 15.5346 33.2893 15.2614 33.2901ZM12.1694 17.3191C11.8963 17.3193 11.6345 17.4279 11.4413 17.621C11.2482 17.8141 11.1396 18.076 11.1394 18.3491V32.2571H15.2614V18.3491C15.2611 18.076 15.1525 17.8141 14.9594 17.621C14.7663 17.4279 14.5045 17.3193 14.2314 17.3191H12.1694Z" fill="#111111"/>
<path d="M2.98828 32.7695H8.13928V22.9825C8.13928 22.7796 8.09932 22.5787 8.02168 22.3913C7.94403 22.2038 7.83023 22.0335 7.68676 21.89C7.54329 21.7466 7.37297 21.6328 7.18553 21.5551C6.99808 21.4775 6.79717 21.4375 6.59428 21.4375H4.53328C4.12352 21.4375 3.73054 21.6003 3.4408 21.89C3.15106 22.1798 2.98828 22.5727 2.98828 22.9825V32.7695Z" fill="white"/>
<path d="M8.13866 33.2839H2.98766C2.85107 33.2839 2.72008 33.2296 2.6235 33.133C2.52691 33.0365 2.47266 32.9055 2.47266 32.7689V22.9819C2.47319 22.4357 2.69039 21.912 3.0766 21.5258C3.46281 21.1396 3.98647 20.9224 4.53266 20.9219H6.59366C7.13984 20.9224 7.6635 21.1396 8.04971 21.5258C8.43592 21.912 8.65313 22.4357 8.65366 22.9819V32.7689C8.65366 32.9055 8.5994 33.0365 8.50282 33.133C8.40623 33.2296 8.27524 33.2839 8.13866 33.2839ZM3.50266 32.2539H7.62366V22.9819C7.62339 22.7088 7.51479 22.447 7.32168 22.2538C7.12858 22.0607 6.86675 21.9521 6.59366 21.9519H4.53266C4.25956 21.9521 3.99773 22.0607 3.80463 22.2538C3.61152 22.447 3.50292 22.7088 3.50266 22.9819V32.2539Z" fill="#111111"/>
<path d="M28.9561 33.2878H2.67906C2.54248 33.2878 2.41148 33.2336 2.3149 33.137C2.21832 33.0404 2.16406 32.9094 2.16406 32.7728C2.16406 32.6362 2.21832 32.5052 2.3149 32.4087C2.41148 32.3121 2.54248 32.2578 2.67906 32.2578H28.9561C29.0926 32.2578 29.2236 32.3121 29.3202 32.4087C29.4168 32.5052 29.4711 32.6362 29.4711 32.7728C29.4711 32.9094 29.4168 33.0404 29.3202 33.137C29.2236 33.2336 29.0926 33.2878 28.9561 33.2878Z" fill="#111111"/>
<path d="M33.4835 26.9234C33.4835 28.1969 33.1058 29.4418 32.3983 30.5007C31.6908 31.5596 30.6851 32.3849 29.5086 32.8722C28.332 33.3596 27.0373 33.4871 25.7883 33.2387C24.5392 32.9902 23.3919 32.3769 22.4914 31.4764C21.5909 30.5759 20.9776 29.4286 20.7292 28.1796C20.4807 26.9305 20.6083 25.6359 21.0956 24.4593C21.583 23.2827 22.4083 22.2771 23.4672 21.5695C24.526 20.862 25.771 20.4844 27.0445 20.4844C27.8901 20.4842 28.7274 20.6507 29.5087 20.9742C30.29 21.2978 30.9999 21.7721 31.5978 22.37C32.1958 22.968 32.6701 23.6778 32.9936 24.4591C33.3171 25.2404 33.4836 26.0778 33.4835 26.9234Z" fill="#FEE456"/>
<path d="M27.0438 33.8768C25.6685 33.8768 24.324 33.4689 23.1804 32.7048C22.0368 31.9407 21.1455 30.8546 20.6192 29.5839C20.0929 28.3133 19.9551 26.915 20.2235 25.5661C20.4918 24.2172 21.1541 22.9781 22.1266 22.0055C23.0992 21.033 24.3382 20.3707 25.6872 20.1024C27.0361 19.8341 28.4344 19.9718 29.705 20.4981C30.9757 21.0244 32.0618 21.9157 32.8259 23.0593C33.59 24.2029 33.9978 25.5474 33.9978 26.9228C33.9957 28.7664 33.2624 30.534 31.9587 31.8376C30.6551 33.1413 28.8875 33.8746 27.0438 33.8768ZM27.0438 20.9998C25.8721 20.9994 24.7265 21.3465 23.752 21.9972C22.7775 22.648 22.0179 23.5731 21.5693 24.6556C21.1206 25.7381 21.0031 26.9293 21.2315 28.0786C21.4599 29.2279 22.0241 30.2837 22.8526 31.1123C23.6811 31.9409 24.7367 32.5053 25.886 32.7339C27.0353 32.9625 28.2265 32.8452 29.3091 32.3967C30.3917 31.9482 31.3169 31.1888 31.9678 30.2144C32.6187 29.2401 32.966 28.0945 32.9658 26.9228C32.9643 25.3521 32.3396 23.8462 31.229 22.7356C30.1184 21.625 28.6125 21.0003 27.0418 20.9988" fill="#111111"/>
<path d="M28.3876 29.3693C28.2902 29.3694 28.1948 29.3419 28.1124 29.29C28.0299 29.2382 27.9638 29.1641 27.9216 29.0763L27.0766 27.3053L26.2876 29.0653C26.2487 29.1605 26.1806 29.2409 26.093 29.2948C26.0055 29.3487 25.9031 29.3734 25.8006 29.3653C25.6986 29.3621 25.5998 29.3287 25.5168 29.2692C25.4339 29.2097 25.3704 29.1269 25.3346 29.0313L24.0916 25.7003C24.0645 25.6363 24.0506 25.5675 24.0508 25.498C24.051 25.4285 24.0652 25.3597 24.0927 25.2959C24.1202 25.232 24.1603 25.1744 24.2106 25.1264C24.261 25.0785 24.3205 25.0412 24.3856 25.0169C24.4507 24.9926 24.5201 24.9817 24.5895 24.9849C24.659 24.9881 24.7271 25.0054 24.7897 25.0356C24.8523 25.0658 24.9081 25.1084 24.9538 25.1608C24.9995 25.2131 25.0341 25.2742 25.0556 25.3403L25.8606 27.4953L26.5916 25.8653C26.6318 25.7756 26.6969 25.6992 26.7791 25.6452C26.8613 25.5913 26.9573 25.562 27.0556 25.5608C27.1539 25.5597 27.2506 25.5867 27.334 25.6387C27.4175 25.6907 27.4843 25.7655 27.5266 25.8543L28.3666 27.6143L29.3756 25.3143C29.4021 25.2514 29.4408 25.1943 29.4896 25.1465C29.5383 25.0986 29.5961 25.061 29.6596 25.0357C29.723 25.0104 29.7908 24.9979 29.8591 24.9991C29.9274 25.0003 29.9948 25.015 30.0573 25.0425C30.1199 25.0699 30.1763 25.1096 30.2234 25.159C30.2705 25.2085 30.3073 25.2669 30.3316 25.3307C30.3559 25.3945 30.3673 25.4626 30.365 25.5308C30.3628 25.5991 30.347 25.6662 30.3186 25.7283L28.8576 29.0583C28.818 29.1489 28.7532 29.2261 28.6709 29.2809C28.5887 29.3357 28.4924 29.3657 28.3936 29.3673L28.3876 29.3693Z" fill="#111111"/>
<path d="M25.1525 27.9831H24.2455C24.1089 27.9831 23.9779 27.9289 23.8813 27.8323C23.7847 27.7357 23.7305 27.6047 23.7305 27.4681C23.7305 27.3315 23.7847 27.2005 23.8813 27.104C23.9779 27.0074 24.1089 26.9531 24.2455 26.9531H25.1555C25.2921 26.9531 25.423 27.0074 25.5196 27.104C25.6162 27.2005 25.6705 27.3315 25.6705 27.4681C25.6705 27.6047 25.6162 27.7357 25.5196 27.8323C25.423 27.9289 25.2921 27.9831 25.1555 27.9831" fill="#111111"/>
<path d="M29.847 27.9831H29.097C28.9604 27.9831 28.8294 27.9289 28.7329 27.8323C28.6363 27.7357 28.582 27.6047 28.582 27.4681C28.582 27.3315 28.6363 27.2005 28.7329 27.104C28.8294 27.0074 28.9604 26.9531 29.097 26.9531H29.847C29.9836 26.9531 30.1146 27.0074 30.2112 27.104C30.3078 27.2005 30.362 27.3315 30.362 27.4681C30.362 27.6047 30.3078 27.7357 30.2112 27.8323C30.1146 27.9289 29.9836 27.9831 29.847 27.9831Z" fill="#111111"/>
</svg>
