<svg width="32" height="32" viewBox="0 0 32 32" fill="none" xmlns="http://www.w3.org/2000/svg">
<path d="M5.5 11.7061H21.5C22.8261 11.7061 24.0979 12.2328 25.0355 13.1705C25.9732 14.1082 26.5 15.38 26.5 16.7061V24.8421C26.5 26.1681 25.9732 27.4399 25.0355 28.3776C24.0979 29.3153 22.8261 29.8421 21.5 29.8421H10.5C9.17392 29.8421 7.90215 29.3153 6.96447 28.3776C6.02678 27.4399 5.5 26.1681 5.5 24.8421V11.7061Z" stroke="white" stroke-width="1.5"/>
<path d="M21.7266 11.706H9.3208V8.06998C9.39615 6.50468 10.0595 5.02553 11.1782 3.92813C12.2969 2.83073 13.7885 2.19601 15.355 2.15079C16.9214 2.10556 18.4473 2.6532 19.6274 3.68423C20.8076 4.71527 21.5552 6.15372 21.7207 7.71207" stroke="white" stroke-width="1.5" stroke-linecap="round"/>
<path d="M11.2268 18.865C11.7537 18.865 12.1814 19.2921 12.1814 19.819C12.1814 20.3465 11.7537 20.7736 11.2268 20.7736C10.6999 20.7736 10.272 20.3465 10.272 19.819C10.272 19.2921 10.6999 18.865 11.2268 18.865ZM15.9995 18.865C16.5264 18.865 16.9543 19.2921 16.9543 19.819C16.9543 20.3465 16.5264 20.7736 15.9995 20.7736C15.4726 20.7736 15.0447 20.3465 15.0447 19.819C15.0447 19.2921 15.4726 18.865 15.9995 18.865ZM20.7722 18.865C21.2991 18.865 21.727 19.2921 21.727 19.819C21.727 20.3465 21.2991 20.7736 20.7722 20.7736C20.2454 20.7736 19.8174 20.3465 19.8174 19.819C19.8174 19.2921 20.2454 18.865 20.7722 18.865Z" fill="#3CBD61"/>
</svg>
