<svg width="36" height="36" viewBox="0 0 36 36" fill="none" xmlns="http://www.w3.org/2000/svg">
<path d="M13.3833 20.0213L10.9679 20.9345" stroke="#111111" stroke-width="1.50079" stroke-linecap="round"/>
<path d="M22.8985 11.5711L21.8791 13.9421" stroke="#111111" stroke-width="1.5" stroke-linecap="round"/>
<path d="M24.8256 24.2157L22.9759 22.4136" stroke="#111111" stroke-width="1.50089" stroke-linecap="round"/>
<path d="M18.9508 23.4797C21.726 23.4797 23.9758 21.2299 23.9758 18.4547C23.9758 15.6795 21.726 13.4297 18.9508 13.4297C16.1756 13.4297 13.9258 15.6795 13.9258 18.4547C13.9258 21.2299 16.1756 23.4797 18.9508 23.4797Z" stroke="#111111" stroke-width="1.5"/>
<path d="M24.1415 11.572C25.6801 11.572 26.9275 10.3247 26.9275 8.786C26.9275 7.24733 25.6801 6 24.1415 6C22.6028 6 21.3555 7.24733 21.3555 8.786C21.3555 10.3247 22.6028 11.572 24.1415 11.572Z" stroke="#111111" stroke-width="1.5"/>
<path d="M8.18444 24.822C9.7231 24.822 10.9704 23.5747 10.9704 22.036C10.9704 20.4973 9.7231 19.25 8.18444 19.25C6.64577 19.25 5.39844 20.4973 5.39844 22.036C5.39844 23.5747 6.64577 24.822 8.18444 24.822Z" stroke="#111111" stroke-width="1.5"/>
<path d="M27.2843 29.9983C29.0594 29.9983 30.4983 28.5594 30.4983 26.7843C30.4983 25.0093 29.0594 23.5703 27.2843 23.5703C25.5093 23.5703 24.0703 25.0093 24.0703 26.7843C24.0703 28.5594 25.5093 29.9983 27.2843 29.9983Z" stroke="#111111" stroke-width="1.5"/>
</svg>
