<svg width="16" height="16" viewBox="0 0 16 16" fill="none" xmlns="http://www.w3.org/2000/svg">
<path d="M12.307 1.00097H7.384C6.95178 0.986361 6.53134 1.14338 6.21451 1.43773C5.89767 1.73208 5.71019 2.13984 5.693 2.57197V3.85897H3.693C3.26061 3.84382 2.8398 4.00046 2.52256 4.29465C2.20532 4.58884 2.01744 4.99666 2 5.42897V13.429C2.01693 13.8616 2.20458 14.27 2.52188 14.5646C2.83918 14.8592 3.26028 15.0161 3.693 15.001H8.616C9.04829 15.0158 9.46888 14.8589 9.78577 14.5645C10.1027 14.2701 10.2901 13.8622 10.307 13.43V12.144H12.307C12.7395 12.1589 13.1603 12.002 13.4775 11.7076C13.7947 11.4133 13.9826 11.0054 14 10.573V2.57297C13.9828 2.1404 13.7951 1.73223 13.4778 1.43766C13.1606 1.14309 12.7397 0.986091 12.307 1.00097ZM9.384 13.43C9.37644 13.6266 9.29128 13.8123 9.14716 13.9463C9.00303 14.0803 8.81168 14.1517 8.615 14.145H3.693C3.49632 14.1517 3.30497 14.0803 3.16084 13.9463C3.01672 13.8123 2.93155 13.6266 2.924 13.43V5.42997C2.93181 5.23349 3.01709 5.0481 3.16118 4.9143C3.30528 4.78051 3.49648 4.70921 3.693 4.71597H8.616C8.81252 4.70921 9.00372 4.78051 9.14782 4.9143C9.29191 5.0481 9.37719 5.23349 9.385 5.42997L9.384 13.43ZM13.077 10.573C13.0692 10.7694 12.9839 10.9548 12.8398 11.0886C12.6957 11.2224 12.5045 11.2937 12.308 11.287H10.308V5.42897C10.2908 4.99675 10.1032 4.58893 9.78607 4.29471C9.46899 4.00049 9.04829 3.84382 8.616 3.85897H6.616V2.57197C6.62381 2.37567 6.70895 2.19043 6.85283 2.05667C6.99671 1.9229 7.18765 1.85148 7.384 1.85797H12.307C12.5035 1.85121 12.6947 1.92251 12.8388 2.0563C12.9829 2.1901 13.0682 2.37549 13.076 2.57197L13.077 10.573Z" fill="#111111"/>
</svg>
