<svg width="24" height="24" viewBox="0 0 24 24" fill="none" xmlns="http://www.w3.org/2000/svg">
<path d="M10.225 15.461C10.0308 15.6549 9.76749 15.7639 9.49301 15.7639C9.21852 15.7639 8.95525 15.6549 8.76101 15.461L7.26501 13.95C7.09938 13.7839 6.9026 13.6521 6.68596 13.5622C6.46932 13.4723 6.23706 13.426 6.00251 13.426C5.76795 13.426 5.53569 13.4723 5.31905 13.5622C5.10241 13.6521 4.90564 13.7839 4.74001 13.95L2.00001 16.686V17.995C1.99935 18.258 2.05059 18.5187 2.15081 18.7619C2.25102 19.0051 2.39824 19.2262 2.58402 19.4124C2.7698 19.5987 2.99051 19.7464 3.23348 19.8473C3.47646 19.9481 3.73694 20 4.00001 20H19.995C20.5259 19.9987 21.0346 19.7868 21.4095 19.411C21.7845 19.0351 21.995 18.5259 21.995 17.995V13.686L18.265 9.94998C18.0989 9.78375 17.9018 9.65187 17.6847 9.56189C17.4676 9.47191 17.235 9.4256 17 9.4256C16.765 9.4256 16.5324 9.47191 16.3153 9.56189C16.0983 9.65187 15.9011 9.78375 15.735 9.94998L11.65 14.034L10.225 15.461Z" stroke="#111111" stroke-width="1.5" stroke-miterlimit="10"/>
<path d="M20 4H4C2.89543 4 2 4.89543 2 6V18C2 19.1046 2.89543 20 4 20H20C21.1046 20 22 19.1046 22 18V6C22 4.89543 21.1046 4 20 4Z" stroke="#111111" stroke-width="1.5" stroke-miterlimit="10"/>
<path d="M8.5 11.5C9.60457 11.5 10.5 10.6046 10.5 9.5C10.5 8.39543 9.60457 7.5 8.5 7.5C7.39543 7.5 6.5 8.39543 6.5 9.5C6.5 10.6046 7.39543 11.5 8.5 11.5Z" stroke="#111111" stroke-width="1.5" stroke-miterlimit="10"/>
</svg>
