<svg width="16" height="16" viewBox="0 0 16 16" fill="none" xmlns="http://www.w3.org/2000/svg">
<path d="M9.46425 8.75V11.391C9.46425 11.586 9.17625 11.825 9.17625 11.825L6.89825 14C6.80327 14.0019 6.7114 13.9662 6.64266 13.9006C6.57392 13.835 6.53387 13.745 6.53125 13.65V8.75" stroke="#111111" stroke-linecap="round" stroke-linejoin="round"/>
<path d="M6.52604 8.75084L2.56205 3.94079C2.44342 3.57661 2.46858 3.18092 2.63239 2.83471C2.7962 2.4885 3.08625 2.21807 3.44306 2.07885C3.58065 2.01568 3.73214 1.98882 3.88306 2.00084H12.104C12.48 2.02414 12.8332 2.18928 13.0921 2.46288C13.351 2.73648 13.4965 3.09815 13.4991 3.47484C13.511 3.63373 13.486 3.79315 13.4261 3.94079L9.46204 8.75084" stroke="#111111" stroke-linecap="round" stroke-linejoin="round"/>
</svg>
