<svg width="36" height="36" viewBox="0 0 36 36" fill="none" xmlns="http://www.w3.org/2000/svg">
<path d="M25.2582 15.5547C25.2582 15.8451 25.3286 16.1313 25.4632 16.3886C25.5978 16.646 25.7927 16.867 26.0312 17.0327C25.7927 17.1984 25.5978 17.4194 25.4632 17.6767C25.3286 17.9341 25.2582 18.2202 25.2582 18.5107C25.307 18.8897 25.4267 19.2561 25.6112 19.5907C25.6397 19.6494 25.6493 19.7156 25.6386 19.78C25.6279 19.8445 25.5974 19.904 25.5514 19.9504C25.5054 19.9967 25.4461 20.0276 25.3817 20.0388C25.3174 20.0499 25.2511 20.0408 25.1922 20.0127C24.8552 19.8303 24.4873 19.712 24.1072 19.6637C23.8173 19.6638 23.5316 19.734 23.2747 19.8682C23.0177 20.0025 22.7969 20.1968 22.6312 20.4347C22.4654 20.1966 22.2445 20.0022 21.9873 19.8679C21.7301 19.7336 21.4443 19.6635 21.1542 19.6635C20.8641 19.6635 20.5783 19.7336 20.3211 19.8679C20.0639 20.0022 19.843 20.1966 19.6772 20.4347C19.5254 20.2179 19.3278 20.0373 19.0983 19.9056C18.8688 19.774 18.6131 19.6945 18.3494 19.673C18.0857 19.6514 17.8204 19.6882 17.5726 19.7808C17.3247 19.8734 17.1003 20.0195 16.9154 20.2088C16.7304 20.398 16.5895 20.6256 16.5025 20.8755C16.4156 21.1254 16.3848 21.3914 16.4124 21.6546C16.44 21.9177 16.5252 22.1715 16.6621 22.398C16.7989 22.6244 16.984 22.8179 17.2042 22.9647C16.9518 23.1319 16.7458 23.36 16.605 23.628C16.4642 23.896 16.3932 24.1951 16.3987 24.4978C16.4042 24.8004 16.4859 25.0968 16.6363 25.3595C16.7867 25.6222 17.001 25.8427 17.2592 26.0007C17.2003 26.0467 17.1439 26.0957 17.0902 26.1477C16.883 26.3535 16.729 26.6066 16.6415 26.8852C16.5539 27.1638 16.5355 27.4596 16.5878 27.7469C16.64 28.0342 16.7614 28.3045 16.9415 28.5344C17.1215 28.7644 17.3548 28.947 17.6212 29.0667V29.0917C17.6212 29.5297 19.2072 29.5297 19.2072 29.0117C19.3658 28.9279 19.5113 28.8214 19.6392 28.6957C19.8318 28.5034 19.9783 28.27 20.0677 28.0129C20.1571 27.7559 20.187 27.4819 20.1552 27.2116C20.1235 26.9414 20.0308 26.6818 19.8843 26.4525C19.7378 26.2232 19.5411 26.0301 19.3092 25.8877C19.5255 25.7195 19.7005 25.5042 19.8209 25.2581C19.9414 25.012 20.004 24.7417 20.0042 24.4677C19.9642 24.1825 19.8759 23.9062 19.7432 23.6507C19.7035 23.5642 19.691 23.4677 19.7073 23.374C19.7236 23.2802 19.7679 23.1936 19.8343 23.1255C19.9008 23.0574 19.9863 23.011 20.0797 22.9925C20.173 22.974 20.2697 22.9841 20.3572 23.0217C20.6082 23.1486 20.8785 23.2327 21.1572 23.2707C21.4469 23.2704 21.7324 23.2001 21.9891 23.0659C22.2459 22.9317 22.4665 22.7374 22.6322 22.4997C22.7979 22.7376 23.0187 22.9319 23.2757 23.0661C23.5326 23.2004 23.8183 23.2705 24.1082 23.2707C24.3983 23.2707 24.6841 23.2006 24.9413 23.0664C25.1984 22.9321 25.4193 22.7377 25.5852 22.4997C25.7356 22.7162 25.9318 22.897 26.1599 23.0294C26.3879 23.1617 26.6422 23.2423 26.9049 23.2655C27.1675 23.2887 27.432 23.254 27.6797 23.1637C27.9275 23.0734 28.1523 22.9298 28.3384 22.743C28.5245 22.5563 28.6673 22.3309 28.7567 22.0828C28.8461 21.8348 28.8799 21.5702 28.8558 21.3076C28.8316 21.0451 28.7501 20.791 28.6169 20.5635C28.4838 20.3359 28.3022 20.1404 28.0852 19.9907C28.3234 19.8249 28.5181 19.6039 28.6525 19.3467C28.7869 19.0894 28.8571 18.8035 28.8571 18.5132C28.8571 18.2229 28.7869 17.937 28.6525 17.6797C28.5181 17.4224 28.3234 17.2015 28.0852 17.0357C28.3239 16.8701 28.519 16.6492 28.6538 16.3918C28.7886 16.1344 28.859 15.8482 28.8592 15.5577" stroke="white" stroke-width="1.5" stroke-miterlimit="10" stroke-linecap="round"/>
<path d="M28.8634 14.9708C28.8634 14.6804 28.7931 14.3943 28.6585 14.1369C28.5239 13.8795 28.329 13.6585 28.0904 13.4928C28.3455 13.3158 28.5504 13.0759 28.6853 12.7963C28.8203 12.5168 28.8806 12.2071 28.8604 11.8973C28.8403 11.5875 28.7404 11.2882 28.5705 11.0285C28.4005 10.7687 28.1662 10.5573 27.8904 10.4148C28.1672 10.1737 28.3636 9.85365 28.4533 9.49771C28.543 9.14177 28.5217 8.76691 28.3923 8.42339C28.263 8.07988 28.0317 7.78413 27.7294 7.5758C27.4272 7.36747 27.0685 7.25652 26.7014 7.25782H26.6744C26.3834 7.25788 26.0967 7.32851 25.8389 7.46366C25.5812 7.59882 25.36 7.79446 25.1944 8.03382C25.0234 7.78923 24.7942 7.59101 24.5275 7.457C24.2609 7.32299 23.965 7.25739 23.6667 7.26612C23.3684 7.27485 23.0769 7.35763 22.8185 7.507C22.5601 7.65637 22.3429 7.86765 22.1864 8.12182C22.1409 8.06262 22.0914 8.0065 22.0384 7.95382C21.8494 7.76411 21.6203 7.61899 21.368 7.52905C21.1157 7.4391 20.8465 7.4066 20.5801 7.4339C20.3136 7.46121 20.0566 7.54764 19.8278 7.68689C19.599 7.82614 19.4041 8.0147 19.2574 8.23882C19.0884 8.00464 18.8655 7.81457 18.6075 7.68466C18.3496 7.55476 18.0641 7.48884 17.7753 7.49247C17.4865 7.4961 17.2028 7.56917 16.9482 7.70551C16.6936 7.84185 16.4755 8.03746 16.3124 8.27582C16.1453 8.03962 15.9236 7.8472 15.6662 7.71488C15.4089 7.58255 15.1234 7.51423 14.834 7.51571C14.5447 7.51718 14.2599 7.5884 14.0039 7.72333C13.7479 7.85826 13.5282 8.05293 13.3634 8.29082C13.1923 8.04628 12.9631 7.84813 12.6963 7.7142C12.4296 7.58028 12.1338 7.51478 11.8354 7.52361C11.5371 7.53244 11.2456 7.61531 10.9873 7.76477C10.7289 7.91423 10.5118 8.12559 10.3554 8.37982C10.3102 8.32063 10.2611 8.26451 10.2084 8.21182C10.0412 8.04465 9.84268 7.91206 9.62419 7.82161C9.40571 7.73116 9.17155 7.68463 8.93509 7.68468C8.45753 7.68477 7.99956 7.87457 7.66194 8.21232C7.32432 8.55008 7.1347 9.00812 7.1348 9.48568C7.13489 9.96324 7.32469 10.4212 7.66244 10.7588C7.73765 10.8326 7.81931 10.8996 7.90644 10.9588C7.66347 11.126 7.46544 11.3505 7.32985 11.6124C7.19426 11.8743 7.1253 12.1656 7.12905 12.4605C7.13281 12.7554 7.20917 13.0448 7.35139 13.3032C7.4936 13.5615 7.69729 13.7809 7.94444 13.9418C7.69864 14.12 7.49912 14.3545 7.36259 14.6257C7.22606 14.8968 7.1565 15.1968 7.15973 15.5004C7.16296 15.8039 7.23889 16.1023 7.38116 16.3705C7.52343 16.6387 7.7279 16.8689 7.97744 17.0418C7.64632 17.2739 7.39789 17.6056 7.26828 17.9886C7.13866 18.3717 7.13463 18.7861 7.25677 19.1715C7.3789 19.557 7.62084 19.8935 7.94738 20.132C8.27392 20.3705 8.66803 20.4986 9.0724 20.4977C9.47676 20.4967 9.87028 20.3668 10.1957 20.1268C10.5212 19.8868 10.7615 19.5492 10.8819 19.1632C11.0023 18.7772 10.9963 18.3628 10.865 17.9804C10.7336 17.5979 10.4836 17.2674 10.1514 17.0368C10.4107 16.856 10.6208 16.6133 10.7626 16.3307C10.9045 16.0482 10.9735 15.7347 10.9636 15.4187C10.9537 15.1027 10.8651 14.7942 10.7058 14.5211C10.5465 14.2481 10.3216 14.019 10.0514 13.8548C10.2656 13.6865 10.4388 13.4719 10.558 13.2269C10.6772 12.982 10.7392 12.7132 10.7394 12.4408C10.7133 12.159 10.6392 11.8837 10.5204 11.6268C10.4835 11.5354 10.4739 11.4352 10.4927 11.3384C10.5114 11.2415 10.5578 11.1522 10.6262 11.0812C10.6946 11.0101 10.7821 10.9604 10.8781 10.938C10.9742 10.9156 11.0747 10.9214 11.1674 10.9548C11.3995 11.0477 11.6443 11.105 11.8934 11.1248C12.1846 11.125 12.4714 11.0546 12.7294 10.9197C12.9873 10.7847 13.2087 10.5891 13.3744 10.3498C13.5412 10.5887 13.7635 10.7835 14.0221 10.9175C14.2808 11.0515 14.5681 11.1208 14.8594 11.1193C15.1507 11.1178 15.4373 11.0457 15.6946 10.909C15.9518 10.7724 16.1721 10.5753 16.3364 10.3348C16.5044 10.5723 16.7275 10.7655 16.9865 10.8979C17.2455 11.0303 17.5327 11.098 17.8235 11.0952C18.1144 11.0923 18.4002 11.019 18.6566 10.8815C18.9129 10.7441 19.1321 10.5465 19.2954 10.3058C19.4694 10.5498 19.7014 10.7465 19.9706 10.878C20.2398 11.0096 20.5375 11.0719 20.8369 11.0593C21.1362 11.0467 21.4277 10.9596 21.6848 10.8058C21.942 10.652 22.1567 10.4365 22.3094 10.1788C22.4777 10.3933 22.6925 10.5668 22.9376 10.6862C23.1828 10.8055 23.4518 10.8676 23.7244 10.8678C24.0927 10.8104 24.4514 10.7027 24.7904 10.5478C24.878 10.512 24.9738 10.5017 25.067 10.5181C25.1601 10.5345 25.2467 10.5771 25.3166 10.6407C25.3865 10.7044 25.437 10.7866 25.4621 10.8777C25.4872 10.9689 25.4859 11.0653 25.4584 11.1558C25.3644 11.4351 25.2991 11.7233 25.2634 12.0158C25.2636 12.3061 25.3341 12.592 25.4687 12.8492C25.6032 13.1064 25.7981 13.3272 26.0364 13.4928C25.7979 13.6585 25.603 13.8795 25.4684 14.1369C25.3338 14.3943 25.2635 14.6804 25.2634 14.9708" stroke="white" stroke-width="1.5" stroke-miterlimit="10" stroke-linecap="round"/>
</svg>
