<svg width="24" height="24" viewBox="0 0 24 24" fill="none" xmlns="http://www.w3.org/2000/svg">
<path d="M14.0373 10.9609L11.5273 13.4709" stroke="#111111" stroke-width="1.5" stroke-linecap="round" stroke-linejoin="round"/>
<path d="M13.998 7V11H17.998L21.998 7L19.331 5.667L17.998 3L13.998 7Z" stroke="#111111" stroke-width="1.5" stroke-linecap="round" stroke-linejoin="round"/>
<path d="M10.9981 4.97656C9.36046 5.07707 7.78671 5.64827 6.46588 6.62154C5.14504 7.5948 4.13332 8.92873 3.55225 10.4631C2.97117 11.9974 2.84547 13.6669 3.19024 15.2709C3.53501 16.875 4.33558 18.3454 5.49579 19.5054C6.65599 20.6655 8.12646 21.4659 9.73055 21.8105C11.3346 22.1551 13.0041 22.0292 14.5384 21.448C16.0726 20.8667 17.4065 19.8549 18.3796 18.5339C19.3527 17.213 19.9237 15.6392 20.0241 14.0016" stroke="#111111" stroke-width="1.5" stroke-linecap="round" stroke-linejoin="round"/>
<path d="M16.2072 13.9991C16.1105 14.8846 15.7655 15.7247 15.2119 16.4226C14.6583 17.1205 13.9187 17.6477 13.0784 17.9433C12.2381 18.239 11.3313 18.291 10.4627 18.0936C9.59407 17.8961 8.79896 17.4571 8.16908 16.8272C7.53919 16.1973 7.1002 15.4022 6.90272 14.5336C6.70525 13.665 6.75734 12.7582 7.05299 11.9179C7.34864 11.0776 7.87581 10.338 8.57368 9.78442C9.27156 9.23081 10.1117 8.88576 10.9972 8.78906" stroke="#111111" stroke-width="1.5" stroke-linecap="round" stroke-linejoin="round"/>
</svg>
