<svg width="32" height="32" viewBox="0 0 32 32" fill="none" xmlns="http://www.w3.org/2000/svg">
<path d="M19.7169 10.656L21.9689 4.80798C22.0592 4.67012 22.1076 4.50901 22.1081 4.34417C22.1086 4.17934 22.0612 4.01788 21.9718 3.87945C21.8823 3.74103 21.7545 3.63158 21.604 3.56439C21.4535 3.4972 21.2867 3.47516 21.1239 3.50097H10.2239C10.0614 3.47587 9.89502 3.4985 9.74507 3.56604C9.59512 3.63357 9.46796 3.74312 9.37904 3.88147C9.29012 4.01982 9.2433 4.181 9.24415 4.34546C9.24501 4.50991 9.29351 4.67056 9.38386 4.80798L11.6309 10.656" fill="#F4A12B"/>
<path d="M11.5 9.52002H20.5C22.3565 9.52002 24.137 10.2575 25.4497 11.5703C26.7625 12.883 27.5 14.6635 27.5 16.52V24.5C27.5 25.5609 27.0786 26.5783 26.3284 27.3284C25.5783 28.0786 24.5609 28.5 23.5 28.5H8.5C7.43913 28.5 6.42172 28.0786 5.67157 27.3284C4.92143 26.5783 4.5 25.5609 4.5 24.5V16.52C4.5 14.6635 5.2375 12.883 6.55025 11.5703C7.86301 10.2575 9.64348 9.52002 11.5 9.52002Z" fill="#F4A12B"/>
<path d="M20.7816 7.4231H10.5566C10.0044 7.4231 9.55664 7.87081 9.55664 8.4231V9.2171C9.55664 9.76938 10.0044 10.2171 10.5566 10.2171H20.7816C21.3339 10.2171 21.7816 9.76938 21.7816 9.2171V8.4231C21.7816 7.87081 21.3339 7.4231 20.7816 7.4231Z" fill="#9F5700"/>
</svg>
