<svg width="32" height="32" viewBox="0 0 32 32" fill="none" xmlns="http://www.w3.org/2000/svg">
<path d="M28.0001 16.796C28.0001 22.57 21.0331 26.858 17.7101 28.58C17.1828 28.8542 16.5973 28.9973 16.0031 28.9973C15.4088 28.9973 14.8233 28.8542 14.2961 28.58C10.9751 26.859 3.99609 22.56 3.99609 16.793V8.45602C3.99912 8.0817 4.13864 7.72135 4.38849 7.4426C4.63834 7.16384 4.98133 6.98584 5.35309 6.94202C8.54481 6.69143 11.5997 5.5394 14.1621 3.62003C14.6901 3.21753 15.3357 2.99951 15.9996 2.99951C16.6635 2.99951 17.3091 3.21753 17.8371 3.62003C20.3998 5.53957 23.455 6.69161 26.6471 6.94202C27.0186 6.98681 27.3611 7.16562 27.6102 7.44492C27.8593 7.72421 27.9979 8.08478 28.0001 8.45901V16.796Z" fill="#F4A12B"/>
<path d="M13.1551 18.281L12.0651 16.962L10.9761 18.281C10.9263 18.3431 10.8643 18.3944 10.7938 18.4315C10.7234 18.4687 10.6461 18.491 10.5667 18.4971C10.4873 18.5032 10.4075 18.4929 10.3323 18.467C10.257 18.441 10.1879 18.3998 10.1291 18.346C10.0075 18.2365 9.93254 18.0845 9.9197 17.9213C9.90686 17.7581 9.95713 17.5962 10.0601 17.469L10.7301 16.654H9.60014C9.43385 16.654 9.27437 16.588 9.15679 16.4704C9.0392 16.3528 8.97314 16.1933 8.97314 16.027C8.97314 15.8607 9.0392 15.7013 9.15679 15.5837C9.27437 15.4661 9.43385 15.4 9.60014 15.4H10.7781L10.0601 14.531C9.95737 14.4037 9.90725 14.2419 9.92008 14.0788C9.93291 13.9157 10.0077 13.7637 10.1291 13.654C10.1879 13.5998 10.2572 13.5583 10.3328 13.5323C10.4084 13.5063 10.4886 13.4963 10.5683 13.503C10.648 13.5097 10.7254 13.5329 10.7956 13.5711C10.8658 13.6093 10.9273 13.6617 10.9761 13.725L12.0631 15.04L13.1551 13.716C13.2054 13.6548 13.2676 13.6045 13.338 13.568C13.4083 13.5315 13.4853 13.5098 13.5644 13.504C13.6434 13.4982 13.7227 13.5085 13.7977 13.5343C13.8726 13.5601 13.9415 13.6008 14.0001 13.654C14.1235 13.7625 14.1998 13.9148 14.2127 14.0785C14.2256 14.2423 14.1741 14.4046 14.0691 14.531L13.3491 15.402H14.4001C14.5601 15.4111 14.7104 15.481 14.8204 15.5974C14.9305 15.7138 14.9917 15.8679 14.9917 16.028C14.9917 16.1882 14.9305 16.3423 14.8204 16.4587C14.7104 16.5751 14.5601 16.645 14.4001 16.654H13.4001L14.0751 17.469V17.476C14.1765 17.603 14.2253 17.7641 14.2113 17.926C14.1973 18.0879 14.1218 18.2383 14.0001 18.346C13.8943 18.4435 13.7561 18.4984 13.6121 18.5C13.5245 18.4996 13.4381 18.4797 13.3591 18.4418C13.2801 18.4039 13.2104 18.349 13.1551 18.281Z" fill="white"/>
<path d="M21.157 18.2771L20.07 16.9601L18.981 18.2771C18.9308 18.3396 18.8685 18.3912 18.7978 18.4288C18.7271 18.4664 18.6495 18.4892 18.5697 18.4959C18.4899 18.5025 18.4096 18.4928 18.3336 18.4674C18.2577 18.442 18.1877 18.4014 18.128 18.3481C18.008 18.2376 17.9343 18.0858 17.9215 17.9231C17.9087 17.7605 17.9578 17.5991 18.059 17.4711L18.068 17.4641L18.733 16.6561H17.607C17.4409 16.6561 17.2817 16.5902 17.1643 16.4728C17.0469 16.3554 16.981 16.1961 16.981 16.0301C16.981 15.8641 17.0469 15.7049 17.1643 15.5875C17.2817 15.4701 17.4409 15.4041 17.607 15.4041H18.785L18.068 14.5361C17.9621 14.4091 17.9093 14.2461 17.9204 14.0811C17.9316 13.9161 18.0059 13.7617 18.128 13.6501C18.1883 13.5981 18.2584 13.5586 18.3342 13.534C18.41 13.5094 18.4899 13.5001 18.5693 13.5068C18.6488 13.5134 18.726 13.5357 18.7967 13.5725C18.8674 13.6093 18.93 13.6598 18.981 13.7211L20.068 15.0401L21.157 13.7211C21.2065 13.6587 21.2684 13.6071 21.3386 13.5694C21.4089 13.5318 21.4862 13.5089 21.5656 13.5023C21.6451 13.4956 21.725 13.5053 21.8006 13.5307C21.8761 13.5562 21.9457 13.5968 22.005 13.6501C22.1271 13.7613 22.2021 13.9151 22.2146 14.0798C22.2271 14.2445 22.176 14.4078 22.072 14.5361L21.353 15.4001H22.393C22.559 15.4001 22.7182 15.4661 22.8356 15.5835C22.953 15.7009 23.019 15.8601 23.019 16.0261C23.019 16.1921 22.953 16.3514 22.8356 16.4688C22.7182 16.5862 22.559 16.6521 22.393 16.6521H21.4L22.07 17.4671C22.1739 17.5938 22.225 17.7557 22.2125 17.9191C22.2 18.0825 22.125 18.2347 22.003 18.3441C21.896 18.4427 21.7564 18.4983 21.611 18.5001C21.5233 18.5002 21.4367 18.4801 21.358 18.4414C21.2793 18.4028 21.2105 18.3465 21.157 18.2771Z" fill="white"/>
</svg>
