<svg width="36" height="36" viewBox="0 0 36 36" fill="none" xmlns="http://www.w3.org/2000/svg">
<path d="M25.8322 16.7324L23.4323 16.8324C23.2016 16.8405 22.9751 16.8961 22.7669 16.9959C22.5588 17.0956 22.3735 17.2373 22.2227 17.4121C22.0719 17.5868 21.9588 17.7908 21.8906 18.0113C21.8224 18.2318 21.8005 18.4641 21.8263 18.6934H20.0262C19.7651 18.6934 19.5145 18.7968 19.3294 18.981C19.1442 19.1652 19.0396 19.4153 19.0382 19.6764L19.0312 21.5584H25.0312C25.3018 21.554 25.5597 21.4432 25.7493 21.2501C25.9389 21.057 26.0448 20.797 26.0442 20.5264V19.6714C26.0435 19.5401 26.0165 19.4102 25.9647 19.2894C25.913 19.1687 25.8376 19.0595 25.743 18.9683C25.6484 18.8772 25.5365 18.8059 25.4139 18.7587C25.2914 18.7115 25.1606 18.6893 25.0293 18.6934" stroke="#111111" stroke-width="1.5" stroke-miterlimit="10" stroke-linecap="round"/>
<path d="M30.5607 20.7643C30.7436 20.4775 30.8374 20.1428 30.8302 19.8027C30.823 19.4626 30.7151 19.1323 30.5202 18.8535C30.3252 18.5747 30.052 18.36 29.735 18.2365C29.418 18.113 29.0715 18.0863 28.7394 18.1597C28.4072 18.2331 28.1043 18.4034 27.8689 18.649C27.6335 18.8946 27.4762 19.2045 27.4169 19.5395C27.3577 19.8745 27.3991 20.2195 27.5359 20.531C27.6727 20.8424 27.8988 21.1063 28.1857 21.2893C28.5702 21.5346 29.0365 21.6171 29.4819 21.5186C29.9273 21.4201 30.3153 21.1488 30.5607 20.7643Z" stroke="#111111" stroke-width="1.5" stroke-miterlimit="10" stroke-linecap="round"/>
<path d="M17.1461 21.556H11.5211C10.8751 21.556 9.70806 21.148 10.0211 19.878C10.3751 17.857 14.3531 19.521 16.6091 19.451C18.8651 19.381 19.0441 19.599 19.0441 19.599" stroke="#111111" stroke-width="1.5" stroke-miterlimit="10"/>
<path d="M14.7266 23.6113V27.2623H25.7266V23.6113" stroke="#111111" stroke-width="1.5" stroke-miterlimit="10" stroke-linecap="round"/>
<path d="M25.7306 23.6126C25.7306 23.6126 30.1246 24.7176 30.1056 23.6126C30.0836 23.2413 30.0836 22.8689 30.1056 22.4976C30.1056 22.2487 30.0068 22.01 29.8309 21.834C29.655 21.6579 29.4164 21.5589 29.1676 21.5586H11.2896C11.0407 21.5589 10.8021 21.6579 10.6263 21.834C10.4504 22.01 10.3516 22.2487 10.3516 22.4976C10.3516 22.4976 10.3616 22.7196 10.3516 23.6126C10.3416 24.5056 14.7266 23.6126 14.7266 23.6126" stroke="#111111" stroke-width="1.5" stroke-miterlimit="10" stroke-linecap="round"/>
<path d="M5.16406 27.2637H28.6901C28.9712 27.2635 29.2496 27.3188 29.5093 27.4263C29.7691 27.5338 30.0051 27.6914 30.2039 27.8901C30.4027 28.0888 30.5605 28.3248 30.6681 28.5845C30.7757 28.8442 30.8311 29.1226 30.8311 29.4037V30.5527" stroke="#111111" stroke-width="1.5" stroke-miterlimit="10" stroke-linecap="round"/>
<path d="M8.85809 9.6888H13.5461V10.4498C13.5461 10.715 13.6514 10.9694 13.839 11.1569C14.0265 11.3444 14.2809 11.4498 14.5461 11.4498H15.7991C16.2521 11.4498 14.9271 13.1018 16.8651 13.2578C19.076 13.4135 21.2952 13.4135 23.5061 13.2578C25.4441 13.1018 24.2061 11.4498 24.6591 11.4498H25.9131C26.1783 11.4498 26.4327 11.3444 26.6202 11.1569C26.8077 10.9694 26.9131 10.715 26.9131 10.4498V6.6998C26.9131 6.53779 26.8812 6.37738 26.8191 6.22772C26.7571 6.07806 26.6662 5.94209 26.5516 5.82758C26.437 5.71307 26.301 5.62227 26.1512 5.56037C26.0015 5.49846 25.8411 5.46667 25.6791 5.4668H14.7791C14.4521 5.4668 14.1385 5.5967 13.9072 5.82793C13.676 6.05917 13.5461 6.37279 13.5461 6.6998V7.7678H8.35809C7.51125 7.7678 6.6991 8.1042 6.1003 8.70301C5.50149 9.30181 5.16509 10.114 5.16509 10.9608C5.16509 10.9608 3.78009 31.3088 5.38309 31.3448C6.98609 31.3808 30.9831 31.9998 30.8321 30.5528" stroke="#111111" stroke-width="1.5" stroke-miterlimit="10" stroke-linecap="round"/>
</svg>
