<svg width="36" height="36" viewBox="0 0 36 36" fill="none" xmlns="http://www.w3.org/2000/svg">
<path d="M18 32.0001C25.732 32.0001 32 25.7312 32 17.9981C32 10.265 25.732 3.99609 18 3.99609C10.268 3.99609 4 10.265 4 17.9981C4 25.7312 10.268 32.0001 18 32.0001Z" fill="#6EC4F6"/>
<path d="M17.9998 26.6168C22.7577 26.6168 26.6148 22.7589 26.6148 17.9998C26.6148 13.2408 22.7577 9.38281 17.9998 9.38281C13.2418 9.38281 9.38477 13.2408 9.38477 17.9998C9.38477 22.7589 13.2418 26.6168 17.9998 26.6168Z" fill="#6EC4F6"/>
<path d="M18.0002 23.9059C21.2725 23.9059 23.9252 21.2599 23.9252 17.9959C23.9252 14.7319 21.2725 12.0859 18.0002 12.0859C14.7279 12.0859 12.0752 14.7319 12.0752 17.9959C12.0752 21.2599 14.7279 23.9059 18.0002 23.9059Z" fill="#6EC4F6"/>
<path d="M18 21.2276C19.7845 21.2276 21.231 19.7811 21.231 17.9966C21.231 16.2122 19.7845 14.7656 18 14.7656C16.2156 14.7656 14.769 16.2122 14.769 17.9966C14.769 19.7811 16.2156 21.2276 18 21.2276Z" fill="#6EC4F6"/>
<path d="M18 28.7686C23.9475 28.7686 28.769 23.9462 28.769 17.9976C28.769 12.0489 23.9475 7.22656 18 7.22656C12.0524 7.22656 7.23096 12.0489 7.23096 17.9976C7.23096 23.9462 12.0524 28.7686 18 28.7686Z" fill="#D6F0FF"/>
<path d="M17.9999 25.537C22.163 25.537 25.5379 22.1613 25.5379 17.997C25.5379 13.8328 22.163 10.457 17.9999 10.457C13.8368 10.457 10.4619 13.8328 10.4619 17.997C10.4619 22.1613 13.8368 25.537 17.9999 25.537Z" fill="#6EC4F6"/>
<path d="M18 21.2276C19.7845 21.2276 21.231 19.7811 21.231 17.9966C21.231 16.2122 19.7845 14.7656 18 14.7656C16.2156 14.7656 14.769 16.2122 14.769 17.9966C14.769 19.7811 16.2156 21.2276 18 21.2276Z" fill="#D6F0FF"/>
<path d="M26.1042 24.2395C25.9188 24.1273 25.7748 23.958 25.694 23.757C25.6131 23.556 25.5997 23.3341 25.6558 23.1248C25.7119 22.9155 25.8345 22.7301 26.0051 22.5965C26.1757 22.4629 26.385 22.3883 26.6017 22.384L30.452 22.3106C30.6065 22.3084 30.7593 22.3419 30.8986 22.4087C31.0379 22.4754 31.1599 22.5735 31.2549 22.6953C31.3499 22.817 31.4155 22.9592 31.4464 23.1105C31.4773 23.2618 31.4727 23.4183 31.433 23.5675L30.8798 25.6307C30.8397 25.78 30.7654 25.918 30.6629 26.0338C30.5604 26.1496 30.4324 26.2401 30.2891 26.2981C30.1457 26.356 29.9908 26.38 29.8366 26.368C29.6824 26.356 29.5331 26.3084 29.4004 26.229L26.1042 24.2395Z" fill="#F46562"/>
<path d="M30.3024 26.8547C30.7377 27.106 31.2941 26.957 31.5452 26.522C31.7964 26.087 31.6472 25.5307 31.2119 25.2794L18.3532 17.8554C17.9179 17.6041 17.3615 17.753 17.1103 18.188C16.8592 18.623 17.0084 19.1794 17.4437 19.4307L30.3024 26.8547Z" fill="#F5B92C"/>
<path d="M24.8966 25.1381C24.7604 24.9153 24.7031 24.653 24.734 24.3937C24.7649 24.1343 24.8821 23.8928 25.0668 23.7081C25.2515 23.5234 25.4929 23.4062 25.7523 23.3753C26.0117 23.3445 26.2739 23.4018 26.4968 23.538L29.519 25.3878C29.669 25.4796 29.7963 25.6043 29.8912 25.7525C29.9861 25.9006 30.0461 26.0683 30.0669 26.243C30.0877 26.4177 30.0685 26.5949 30.011 26.7611C29.9535 26.9274 29.859 27.0784 29.7347 27.2029L28.5616 28.376C28.4371 28.5003 28.286 28.5948 28.1198 28.6523C27.9535 28.7099 27.7764 28.729 27.6017 28.7082C27.427 28.6875 27.2593 28.6274 27.1111 28.5325C26.963 28.4376 26.8383 28.3103 26.7464 28.1603L24.8966 25.1381Z" fill="#F46562"/>
</svg>
