<svg width="24" height="24" viewBox="0 0 24 24" fill="none" xmlns="http://www.w3.org/2000/svg">
<path d="M18 10H20.5C20.8978 10 21.2794 9.84197 21.5607 9.56067C21.842 9.27936 22 8.89782 22 8.5V4.5C22 4.10218 21.842 3.72064 21.5607 3.43933C21.2794 3.15803 20.8978 3 20.5 3H13.5C13.1022 3 12.7206 3.15803 12.4393 3.43933C12.158 3.72064 12 4.10218 12 4.5V8.5C12 8.89782 12.158 9.27936 12.4393 9.56067C12.7206 9.84197 13.1022 10 13.5 10H15.5V12L18 10Z" stroke="#111111" stroke-width="1.5" stroke-linecap="round" stroke-linejoin="round"/>
<path d="M17.5517 21.1248L18.4747 20.2018C18.7765 19.8996 18.946 19.4899 18.946 19.0628C18.946 18.6357 18.7765 18.226 18.4747 17.9238L16.4147 15.8648C16.0119 15.4622 15.4657 15.236 14.8962 15.236C14.3267 15.236 13.7805 15.4622 13.3777 15.8648L11.7617 17.4788C10.5634 17.0319 9.47517 16.3326 8.57074 15.4284C7.66632 14.5241 6.96684 13.436 6.51972 12.2378L8.13572 10.6238C8.53839 10.2208 8.76458 9.67447 8.76458 9.1048C8.76458 8.53513 8.53839 7.98877 8.13572 7.5858L6.07572 5.5268C5.9262 5.37713 5.74864 5.2584 5.55321 5.17739C5.35777 5.09638 5.14828 5.05469 4.93672 5.05469C4.72516 5.05469 4.51567 5.09638 4.32024 5.17739C4.1248 5.2584 3.94724 5.37713 3.79772 5.5268L2.87472 6.4488C2.16307 7.16169 1.76287 8.1275 1.76172 9.1348C1.76067 10.8554 2.09879 12.5594 2.75676 14.1492C3.41472 15.739 4.37962 17.1836 5.59628 18.4002C6.81293 19.6169 8.25748 20.5818 9.84732 21.2398C11.4372 21.8977 13.1411 22.2359 14.8617 22.2348C15.361 22.2356 15.8556 22.138 16.3172 21.9475C16.7788 21.757 17.1983 21.4775 17.5517 21.1248Z" stroke="#111111" stroke-width="1.5" stroke-linecap="round" stroke-linejoin="round"/>
<path d="M15 6.75C15 6.88807 14.8881 7 14.75 7C14.6119 7 14.5 6.88807 14.5 6.75C14.5 6.61193 14.6119 6.5 14.75 6.5C14.8881 6.5 15 6.61193 15 6.75Z" fill="#111111" stroke="#111111"/>
<path d="M17.25 6.75C17.25 6.88807 17.1381 7 17 7C16.8619 7 16.75 6.88807 16.75 6.75C16.75 6.61193 16.8619 6.5 17 6.5C17.1381 6.5 17.25 6.61193 17.25 6.75Z" fill="#111111" stroke="#111111"/>
<path d="M19.5 6.75C19.5 6.88807 19.3881 7 19.25 7C19.1119 7 19 6.88807 19 6.75C19 6.61193 19.1119 6.5 19.25 6.5C19.3881 6.5 19.5 6.61193 19.5 6.75Z" fill="#111111" stroke="#111111"/>
</svg>
