<svg width="24" height="24" viewBox="0 0 24 24" fill="none" xmlns="http://www.w3.org/2000/svg">
<path d="M15.7211 18.8764V19.0484C15.7211 19.4197 15.5736 19.7758 15.3111 20.0383C15.0485 20.3009 14.6924 20.4484 14.3211 20.4484H4.09312C3.72181 20.4484 3.36572 20.3009 3.10317 20.0383C2.84061 19.7758 2.69312 19.4197 2.69312 19.0484V5.09336C2.69312 4.72206 2.84061 4.36596 3.10317 4.10341C3.36572 3.84086 3.72181 3.69336 4.09312 3.69336H14.3261C14.6974 3.69336 15.0535 3.84086 15.3161 4.10341C15.5786 4.36596 15.7261 4.72206 15.7261 5.09336V13.9304" stroke="#111111" stroke-width="1.5" stroke-linecap="round" stroke-linejoin="round"/>
<path d="M15.7212 9.2793H16.9212C17.3542 9.27907 17.7812 9.38009 18.1682 9.5743L18.7762 9.8743C19.2107 10.0913 19.5809 10.4181 19.8502 10.8223L21.2992 12.9963" stroke="#111111" stroke-width="1.5" stroke-linecap="round" stroke-linejoin="round"/>
<path d="M15.7202 13.9309L13.5102 11.5829C13.2658 11.3313 12.9366 11.1795 12.5866 11.1572C12.2365 11.1348 11.8906 11.2435 11.6163 11.462C11.3419 11.6805 11.1586 11.9932 11.102 12.3394C11.0454 12.6856 11.1196 13.0404 11.3102 13.3349L14.0892 17.5149C14.5481 18.2044 15.2237 18.7213 16.0092 18.9839L20.3762 20.4429" stroke="#111111" stroke-width="1.5" stroke-linecap="round" stroke-linejoin="round"/>
<path d="M17.1162 13.9307H15.7212" stroke="#111111" stroke-width="1.5" stroke-linecap="round" stroke-linejoin="round"/>
<path d="M5.48804 13.4658H7.34804" stroke="#111111" stroke-width="1.5" stroke-linecap="round" stroke-linejoin="round"/>
<path d="M5.48804 16.2568H9.20904" stroke="#111111" stroke-width="1.5" stroke-linecap="round" stroke-linejoin="round"/>
<path d="M12 6.48828L9.20904 9.27928L7.34804 8.34828L5.48804 10.2093" stroke="#111111" stroke-width="1.5" stroke-linecap="round" stroke-linejoin="round"/>
</svg>
