<svg width="24" height="24" viewBox="0 0 24 24" fill="none" xmlns="http://www.w3.org/2000/svg">
<path d="M15.7211 18.8761V19.0481C15.7211 19.4194 15.5736 19.7755 15.3111 20.0381C15.0485 20.3006 14.6924 20.4481 14.3211 20.4481H4.09312C3.72181 20.4481 3.36572 20.3006 3.10317 20.0381C2.84061 19.7755 2.69312 19.4194 2.69312 19.0481V5.09312C2.69312 4.72181 2.84061 4.36572 3.10317 4.10317C3.36572 3.84061 3.72181 3.69312 4.09312 3.69312H14.3261C14.6974 3.69312 15.0535 3.84061 15.3161 4.10317C15.5786 4.36572 15.7261 4.72181 15.7261 5.09312V13.9301" stroke="white" stroke-width="1.5" stroke-linecap="round" stroke-linejoin="round"/>
<path d="M15.7212 9.27905H16.9212C17.3542 9.27883 17.7812 9.37985 18.1682 9.57405L18.7762 9.87405C19.2107 10.091 19.5809 10.4178 19.8502 10.8221L21.2992 12.9961" stroke="white" stroke-width="1.5" stroke-linecap="round" stroke-linejoin="round"/>
<path d="M15.7202 13.9312L13.5102 11.5832C13.2658 11.3315 12.9366 11.1798 12.5866 11.1574C12.2365 11.1351 11.8906 11.2437 11.6163 11.4622C11.3419 11.6807 11.1586 11.9935 11.102 12.3397C11.0454 12.6858 11.1196 13.0407 11.3102 13.3352L14.0892 17.5152C14.5481 18.2047 15.2237 18.7216 16.0092 18.9842L20.3762 20.4432" stroke="white" stroke-width="1.5" stroke-linecap="round" stroke-linejoin="round"/>
<path d="M17.1162 13.9302H15.7212" stroke="white" stroke-width="1.5" stroke-linecap="round" stroke-linejoin="round"/>
<path d="M5.48804 13.4651H7.34804" stroke="white" stroke-width="1.5" stroke-linecap="round" stroke-linejoin="round"/>
<path d="M5.48804 16.2561H9.20904" stroke="white" stroke-width="1.5" stroke-linecap="round" stroke-linejoin="round"/>
<path d="M12 6.48804L9.20904 9.27904L7.34804 8.34804L5.48804 10.209" stroke="white" stroke-width="1.5" stroke-linecap="round" stroke-linejoin="round"/>
</svg>
