<svg width="24" height="24" viewBox="0 0 24 24" fill="none" xmlns="http://www.w3.org/2000/svg">
<path d="M5.5 14.5C6.88071 14.5 8 13.3807 8 12C8 10.6193 6.88071 9.5 5.5 9.5C4.11929 9.5 3 10.6193 3 12C3 13.3807 4.11929 14.5 5.5 14.5Z" stroke="#111111" stroke-width="1.5" stroke-linecap="round" stroke-linejoin="round"/>
<path d="M18 8C19.3807 8 20.5 6.88071 20.5 5.5C20.5 4.11929 19.3807 3 18 3C16.6193 3 15.5 4.11929 15.5 5.5C15.5 6.88071 16.6193 8 18 8Z" stroke="#111111" stroke-width="1.5" stroke-linecap="round" stroke-linejoin="round"/>
<path d="M18 21.0449C19.3807 21.0449 20.5 19.9256 20.5 18.5449C20.5 17.1642 19.3807 16.0449 18 16.0449C16.6193 16.0449 15.5 17.1642 15.5 18.5449C15.5 19.9256 16.6193 21.0449 18 21.0449Z" stroke="#111111" stroke-width="1.5" stroke-linecap="round" stroke-linejoin="round"/>
<path d="M8.5 11.0449L15.5 7.04492" stroke="#111111" stroke-width="1.5" stroke-linecap="round"/>
<path d="M8.5 13L15.5 17" stroke="#111111" stroke-width="1.5" stroke-linecap="round"/>
</svg>
