<svg width="32" height="32" viewBox="0 0 32 32" fill="none" xmlns="http://www.w3.org/2000/svg">
<path d="M7.37091 22.189H5.68291C5.02017 22.189 4.48291 22.7262 4.48291 23.389V27.8C4.48291 28.4627 5.02017 29 5.68291 29H7.37091C8.03365 29 8.57091 28.4627 8.57091 27.8V23.389C8.57091 22.7262 8.03365 22.189 7.37091 22.189Z" fill="#6EC4F6"/>
<path d="M14.0137 17.3811H11.8147C11.152 17.3811 10.6147 17.9184 10.6147 18.5811V27.7991C10.6147 28.4618 11.152 28.9991 11.8147 28.9991H14.0137C14.6765 28.9991 15.2137 28.4618 15.2137 27.7991V18.5811C15.2137 17.9184 14.6765 17.3811 14.0137 17.3811Z" fill="#2B9CDE"/>
<path d="M20.6568 18.1821H18.4578C17.7951 18.1821 17.2578 18.7194 17.2578 19.3821V27.7991C17.2578 28.4619 17.7951 28.9991 18.4578 28.9991H20.6568C21.3196 28.9991 21.8568 28.4619 21.8568 27.7991V19.3821C21.8568 18.7194 21.3196 18.1821 20.6568 18.1821Z" fill="#6EC4F6"/>
<path d="M27.2999 14.176H25.1009C24.4381 14.176 23.9009 14.7133 23.9009 15.376V27.799C23.9009 28.4618 24.4381 28.999 25.1009 28.999H27.2999C27.9626 28.999 28.4999 28.4618 28.4999 27.799V15.376C28.4999 14.7133 27.9626 14.176 27.2999 14.176Z" fill="#2B9CDE"/>
<path d="M4.61989 19.183L3.69989 18.32C3.63929 18.2637 3.59042 18.1959 3.55609 18.1206C3.52176 18.0453 3.50266 17.964 3.49987 17.8813C3.49708 17.7986 3.51067 17.7161 3.53984 17.6387C3.56902 17.5612 3.61322 17.4903 3.66989 17.43L11.1779 9.40803C11.5934 8.96416 12.1239 8.64428 12.7104 8.48398C13.2969 8.32367 13.9164 8.32923 14.4999 8.50003L18.0169 9.52603C18.3145 9.6126 18.6308 9.61087 18.9275 9.52104C19.2241 9.43121 19.4883 9.25716 19.6879 9.02003L21.6999 6.61103L20.8839 5.93003C20.7845 5.84707 20.7088 5.73937 20.6643 5.6178C20.6199 5.49622 20.6083 5.36508 20.6307 5.23758C20.6531 5.11009 20.7087 4.99076 20.792 4.89164C20.8753 4.79252 20.9832 4.71712 21.1049 4.67303L25.5619 3.04503C25.6835 3.00049 25.8147 2.98873 25.9422 3.01092C26.0698 3.03312 26.1893 3.08849 26.2887 3.17148C26.3881 3.25447 26.4639 3.36215 26.5085 3.48371C26.5532 3.60528 26.565 3.73644 26.5429 3.86403L25.7299 8.52603C25.7066 8.65297 25.6505 8.77161 25.5672 8.87022C25.484 8.96882 25.3764 9.04397 25.2552 9.08822C25.1339 9.13247 25.0032 9.14429 24.876 9.12251C24.7488 9.10073 24.6295 9.0461 24.5299 8.96403L23.6439 8.22403L21.2689 11.053C20.859 11.5423 20.3157 11.9019 19.705 12.0878C19.0944 12.2737 18.4429 12.2779 17.8299 12.1L14.2829 11.063C13.9998 10.9789 13.6989 10.9752 13.4139 11.0524C13.1288 11.1296 12.8709 11.2846 12.6689 11.5L5.51189 19.152C5.45544 19.2128 5.38755 19.2618 5.31212 19.2962C5.23669 19.3306 5.1552 19.3499 5.07233 19.3527C4.98946 19.3556 4.90683 19.3421 4.82919 19.313C4.75155 19.2839 4.68043 19.2397 4.61989 19.183Z" fill="#F46562"/>
</svg>
