<svg width="36" height="36" viewBox="0 0 36 36" fill="none" xmlns="http://www.w3.org/2000/svg">
<path fill-rule="evenodd" clip-rule="evenodd" d="M6.94141 15.717L17.5024 7.03003L28.0624 15.717V27C28.0606 27.5273 27.9549 28.0491 27.7513 28.5355C27.5478 29.022 27.2504 29.4635 26.8761 29.835C26.5019 30.2064 26.0581 30.5005 25.5702 30.7004C25.0822 30.9003 24.5597 31.0021 24.0324 31H10.9724C10.4451 31.0021 9.92247 30.9003 9.43448 30.7004C8.94649 30.5005 8.50265 30.2065 8.12832 29.835C7.754 29.4636 7.45651 29.022 7.25286 28.5356C7.0492 28.0492 6.94337 27.5274 6.94141 27V15.717Z" fill="#DCDCDC"/>
<path d="M29.4474 18.4691C29.0714 18.4696 28.708 18.3339 28.4244 18.0871L17.5004 8.59008L6.57737 18.0901C6.26663 18.3595 5.86217 18.4955 5.45178 18.4685C5.0414 18.4415 4.65821 18.2538 4.38537 17.9461C4.25058 17.7942 4.14731 17.617 4.08157 17.4248C4.01583 17.2327 3.98892 17.0294 4.00241 16.8268C4.0159 16.6241 4.06952 16.4262 4.16015 16.2444C4.25079 16.0627 4.37663 15.9008 4.53037 15.7681L16.4774 5.38208C16.7617 5.1358 17.1252 5.00024 17.5014 5.00024C17.8775 5.00024 18.2411 5.1358 18.5254 5.38208L30.4714 15.7681C30.6246 15.9008 30.75 16.0626 30.8403 16.2441C30.9305 16.4256 30.9839 16.6232 30.9973 16.8255C31.0107 17.0278 30.9838 17.2307 30.9183 17.4226C30.8527 17.6144 30.7498 17.7913 30.6154 17.9431C30.4693 18.1088 30.2896 18.2415 30.0882 18.3322C29.8867 18.4229 29.6683 18.4696 29.4474 18.4691Z" fill="#F5B92C"/>
<g filter="url(#filter0_i_11613_51991)">
<path d="M22.5901 18.095C21.9449 17.4359 21.0738 17.0458 20.1525 17.0035C19.2311 16.9612 18.328 17.2698 17.6251 17.867L17.5001 17.974L17.3751 17.867C16.6729 17.2695 15.7701 16.9608 14.8491 17.0031C13.9281 17.0454 13.0575 17.4357 12.4131 18.095C11.844 18.6797 11.5185 19.4588 11.5026 20.2745C11.4866 21.0903 11.7814 21.8816 12.3272 22.488C12.4277 22.6035 12.5359 22.7121 12.6511 22.813L17.5021 27L22.3532 22.813C22.4679 22.7117 22.5761 22.6031 22.6771 22.488C23.2228 21.8814 23.5174 21.0901 23.5012 20.2743C23.4851 19.4586 23.1593 18.6795 22.5901 18.095Z" fill="#F67F7D"/>
</g>
<defs>
<filter id="filter0_i_11613_51991" x="11.502" y="12.9993" width="12" height="14.0007" filterUnits="userSpaceOnUse" color-interpolation-filters="sRGB">
<feFlood flood-opacity="0" result="BackgroundImageFix"/>
<feBlend mode="normal" in="SourceGraphic" in2="BackgroundImageFix" result="shape"/>
<feColorMatrix in="SourceAlpha" type="matrix" values="0 0 0 0 0 0 0 0 0 0 0 0 0 0 0 0 0 0 127 0" result="hardAlpha"/>
<feOffset dy="-4"/>
<feGaussianBlur stdDeviation="3"/>
<feComposite in2="hardAlpha" operator="arithmetic" k2="-1" k3="1"/>
<feColorMatrix type="matrix" values="0 0 0 0 0.882353 0 0 0 0 0.407843 0 0 0 0 0.403922 0 0 0 1 0"/>
<feBlend mode="normal" in2="shape" result="effect1_innerShadow_11613_51991"/>
</filter>
</defs>
</svg>
