<svg width="24" height="24" viewBox="0 0 24 24" fill="none" xmlns="http://www.w3.org/2000/svg">
<path d="M18.7852 6.53373C18.3715 6.07894 17.8721 5.70995 17.3155 5.44781C16.7589 5.18567 16.156 5.03554 15.5413 5.00597C14.9265 4.9764 14.312 5.06795 13.7328 5.27544C13.1535 5.48294 12.6208 5.80229 12.1652 6.21526L11.9985 6.36519L11.8316 6.21526C10.9526 5.4176 9.80275 4.98327 8.61489 5.00023C7.42704 5.0172 6.29009 5.48423 5.43437 6.30667C4.57865 7.1291 4.06812 8.24546 4.00634 9.42952C3.94456 10.6136 4.33614 11.7768 5.10164 12.6835C5.23513 12.8446 5.37936 12.9965 5.53348 13.138L12.0005 18.9998L18.4675 13.138C18.6212 12.9958 18.7657 12.844 18.9001 12.6835C19.6298 11.8181 20.0203 10.718 19.9992 9.58709C19.9781 8.45622 19.5467 7.37136 18.7852 6.53373Z" fill="#EC6A6A"/>
</svg>
