<svg width="24" height="24" viewBox="0 0 24 24" fill="none" xmlns="http://www.w3.org/2000/svg">
<path d="M12 2C10.0222 2 8.08879 2.58649 6.44429 3.6853C4.7998 4.78412 3.51807 6.3459 2.76119 8.17316C2.00431 10.0004 1.80631 12.0111 2.19216 13.9509C2.57801 15.8907 3.53039 17.6725 4.92891 19.0711C6.32744 20.4696 8.10928 21.422 10.0491 21.8079C11.9889 22.1937 13.9996 21.9957 15.8269 21.2388C17.6541 20.4819 19.2159 19.2002 20.3147 17.5557C21.4135 15.9112 22 13.9778 22 12C22 9.34784 20.9464 6.8043 19.0711 4.92893C17.1957 3.05357 14.6522 2 12 2ZM12 20.636C10.292 20.636 8.62229 20.1295 7.20211 19.1806C5.78192 18.2316 4.67502 16.8829 4.02138 15.3049C3.36774 13.7268 3.19671 11.9904 3.52993 10.3152C3.86315 8.63998 4.68569 7.10119 5.89345 5.89342C7.10122 4.68566 8.63999 3.86316 10.3152 3.52994C11.9904 3.19672 13.7269 3.36774 15.3049 4.02138C16.8829 4.67502 18.2316 5.78191 19.1806 7.2021C20.1295 8.62228 20.636 10.292 20.636 12C20.6357 14.2903 19.7258 16.4868 18.1063 18.1063C16.4868 19.7258 14.2903 20.6357 12 20.636Z" fill="#111111"/>
<path d="M10.4225 8.42238L9.45349 7.46838C9.38424 7.39482 9.30074 7.33614 9.20807 7.29591C9.1154 7.25568 9.01552 7.23474 8.91449 7.23438C8.43378 7.31733 7.99876 7.56996 7.68848 7.94637C6.45448 9.17337 7.85248 12.2554 9.77448 14.1634C11.4605 15.8304 13.2525 16.7744 14.6005 16.7744C14.8669 16.7855 15.1328 16.7428 15.3824 16.649C15.6321 16.5552 15.8603 16.4122 16.0535 16.2284C16.3605 15.9284 17.1715 15.1104 16.5375 14.4764L15.5695 13.5214C15.506 13.4281 15.4212 13.3514 15.322 13.2977C15.2229 13.2439 15.1123 13.2147 14.9995 13.2124C14.6574 13.2458 14.3424 13.4133 14.1235 13.6784C14.0573 13.7421 13.9788 13.7917 13.8929 13.8242C13.8069 13.8567 13.7153 13.8714 13.6235 13.8674C12.7579 13.6788 11.9729 13.2243 11.3785 12.5674C9.44948 10.6444 10.2535 9.85438 10.2535 9.85438C11.2205 8.90738 10.4225 8.42238 10.4225 8.42238Z" fill="#111111"/>
</svg>
