<svg width="24" height="24" viewBox="0 0 24 24" fill="none" xmlns="http://www.w3.org/2000/svg">
<path d="M19 20.9994C19.5304 20.9994 20.0391 20.7887 20.4142 20.4136C20.7893 20.0385 21 19.5298 21 18.9994V10.6924C21.0002 10.2371 20.8968 9.78766 20.6975 9.37825C20.4983 8.96884 20.2084 8.61015 19.85 8.32937L13.85 3.63637C13.322 3.22279 12.6707 2.99805 12 2.99805C11.3293 2.99805 10.678 3.22279 10.15 3.63637L4.15 8.32937C3.79156 8.61015 3.50174 8.96884 3.30249 9.37825C3.10324 9.78766 2.9998 10.2371 3 10.6924V18.9994C3 19.5298 3.21071 20.0385 3.58579 20.4136C3.96086 20.7887 4.46957 20.9994 5 20.9994H19Z" stroke="#111111" stroke-width="1.5" stroke-linecap="round" stroke-linejoin="round"/>
<path d="M9 21V14C9 13.7348 9.10536 13.4804 9.29289 13.2929C9.48043 13.1054 9.73478 13 10 13H14C14.2652 13 14.5196 13.1054 14.7071 13.2929C14.8946 13.4804 15 13.7348 15 14V21" stroke="#111111" stroke-width="1.5" stroke-linecap="round" stroke-linejoin="round"/>
</svg>
