<svg width="48" height="48" viewBox="0 0 48 48" fill="none" xmlns="http://www.w3.org/2000/svg">
<path d="M13.8779 11.1599C8.00793 13.8439 4.00195 19.202 4.00195 25.371C4.02164 27.3446 4.43427 29.2945 5.21582 31.1069C5.99737 32.9194 7.1322 34.558 8.55396 35.927C9.45059 36.8395 10.0901 37.9727 10.4079 39.2119L11.4789 43.2119C11.5401 43.5696 11.7255 43.8943 12.0024 44.1288C12.2793 44.3633 12.6301 44.4926 12.9929 44.494H17.0719C17.2735 44.4951 17.4733 44.4561 17.6597 44.3795C17.8462 44.3029 18.0156 44.1902 18.1583 44.0477C18.3009 43.9053 18.4139 43.736 18.4907 43.5497C18.5676 43.3633 18.6067 43.1635 18.6059 42.9619L18.7189 41.9199C18.7329 41.8157 18.7677 41.7155 18.8211 41.625C18.8746 41.5345 18.9457 41.4555 19.0302 41.393C19.1146 41.3304 19.2108 41.2855 19.3129 41.2607C19.4151 41.236 19.5212 41.2319 19.6249 41.2489C20.5639 41.3732 21.5098 41.4367 22.4569 41.439C23.1582 41.4414 23.8591 41.4081 24.5569 41.339C24.6594 41.3246 24.7636 41.3309 24.8635 41.3576C24.9634 41.3842 25.057 41.4308 25.1386 41.4943C25.2202 41.5578 25.2882 41.637 25.3386 41.7273C25.389 41.8176 25.4208 41.9172 25.4319 42.02L25.5319 42.9819C25.5338 43.3872 25.6964 43.7751 25.9839 44.0607C26.2715 44.3462 26.6607 44.5061 27.0659 44.505H31.1439C31.5073 44.5056 31.8591 44.3769 32.1365 44.1421C32.4138 43.9073 32.5986 43.5816 32.6579 43.223L33.4579 40.208C33.8336 38.8017 34.6101 37.5349 35.6929 36.562C37.7443 34.7529 39.2884 32.4401 40.1729 29.8519L42.6859 29.4309C43.048 29.3753 43.3785 29.1927 43.6182 28.9157C43.8578 28.6386 43.991 28.2853 43.9939 27.919V23.619C43.987 23.2551 43.8521 22.9052 43.6129 22.6309C43.3737 22.3565 43.0455 22.1754 42.6859 22.119L40.4199 21.7479C39.6758 19.056 38.2165 16.6161 36.1969 14.687C36.0799 12.9813 36.4254 11.2757 37.1969 9.75001C37.257 9.62489 37.2822 9.48591 37.27 9.34766C37.2577 9.20941 37.2084 9.07695 37.1272 8.96436C37.046 8.85178 36.9361 8.76322 36.8088 8.70789C36.6815 8.65256 36.5416 8.63246 36.4039 8.64991C35.4128 8.72323 34.4462 8.993 33.5603 9.44349C32.6744 9.89398 31.887 10.5162 31.2439 11.2739C29.9082 10.6416 28.5058 10.1612 27.0629 9.84193" fill="#FFCD3B"/>
<path d="M34.1898 20.5759C34.1764 21.26 33.8953 21.9115 33.4068 22.3905C32.9183 22.8695 32.2615 23.1378 31.5773 23.1378C30.8932 23.1378 30.2363 22.8695 29.7478 22.3905C29.2593 21.9115 28.9782 21.26 28.9648 20.5759" stroke="#AB6515" stroke-width="1.2" stroke-linecap="round"/>
<path d="M13.9521 15.846C13.0553 14.542 12.5774 12.9956 12.5821 11.413C12.5781 10.2281 12.8365 9.05702 13.3387 7.98379C13.8409 6.91056 14.5744 5.96185 15.4867 5.20571C16.399 4.44958 17.4674 3.9047 18.6152 3.61038C19.763 3.31606 20.9617 3.27962 22.1253 3.50344C23.2889 3.72727 24.3885 4.20592 25.3452 4.90506C26.3019 5.60419 27.0919 6.50639 27.6586 7.54702C28.2253 8.58765 28.5545 9.7409 28.6227 10.9239C28.6909 12.1068 28.4964 13.2902 28.0531 14.3891" fill="#E18B24"/>
<path d="M12.4971 17.324C15.4982 14.9236 19.2192 13.6022 23.0621 13.572C25.2152 13.5734 27.3471 13.997 29.3371 14.819" fill="#FFCD3B"/>
<path d="M12.4971 17.324C15.4982 14.9236 19.2192 13.6022 23.0621 13.572C25.2152 13.5734 27.3471 13.997 29.3371 14.819" stroke="#FFCD3B" stroke-width="2"/>
</svg>
