<svg width="28" height="28" viewBox="0 0 28 28" fill="none" xmlns="http://www.w3.org/2000/svg">
<path d="M0.5 10C0.5 4.7533 4.7533 0.5 10 0.5H18C23.2467 0.5 27.5 4.7533 27.5 10V18C27.5 23.2467 23.2467 27.5 18 27.5H10C4.7533 27.5 0.5 23.2467 0.5 18V10Z" fill="#F6F6F6"/>
<path d="M0.5 10C0.5 4.7533 4.7533 0.5 10 0.5H18C23.2467 0.5 27.5 4.7533 27.5 10V18C27.5 23.2467 23.2467 27.5 18 27.5H10C4.7533 27.5 0.5 23.2467 0.5 18V10Z" stroke="#E1E1E1"/>
<path d="M19.5 10L12.5 18L8.5 14" stroke="#E1E1E1" stroke-width="2" stroke-linecap="round" stroke-linejoin="round"/>
</svg>
