<svg width="32" height="32" viewBox="0 0 32 32" fill="none" xmlns="http://www.w3.org/2000/svg">
<rect width="32" height="32" fill="#B3B3B3"/>
<path d="M12.4658 24.9939C12.0582 25.4005 11.5652 25.7112 11.0225 25.9033C10.4799 26.0955 9.90122 26.1644 9.32862 26.1049C8.75601 26.0454 8.20386 25.8591 7.71228 25.5595C7.2207 25.2599 6.80205 24.8546 6.48676 24.3729C6.0059 23.6034 5.80428 22.6919 5.91571 21.7914C6.02714 20.8908 6.44484 20.056 7.09876 19.4269L11.5228 15.0079C12.0618 14.451 12.7521 14.0643 13.5085 13.8955C14.2649 13.7266 15.0541 13.7831 15.7788 14.0579C16.4955 14.3363 17.1104 14.8264 17.5418 15.4629C17.6928 15.6634 17.9153 15.7979 18.163 15.8386C18.4107 15.8793 18.6645 15.823 18.8718 15.6814C19.0791 15.5398 19.2238 15.3238 19.2759 15.0782C19.3281 14.8327 19.2836 14.5765 19.1518 14.3629C18.5966 13.549 17.8423 12.8908 16.9608 12.4509C15.8387 11.909 14.5747 11.7333 13.3474 11.9486C12.12 12.1639 10.9914 12.7594 10.1208 13.6509L5.74476 18.0259C4.77997 18.9585 4.16068 20.1912 3.98843 21.5219C3.81619 22.8526 4.10121 24.2024 4.79676 25.3499C5.2631 26.0894 5.88974 26.7146 6.63033 27.1793C7.37092 27.6439 8.20651 27.9361 9.07527 28.0343C9.94403 28.1324 10.8237 28.034 11.6493 27.7462C12.4749 27.4585 13.2252 26.9888 13.8448 26.3719L15.6858 24.5329C15.8684 24.35 15.9708 24.1021 15.9707 23.8437C15.9705 23.5853 15.8676 23.3375 15.6848 23.1549C15.5019 22.9723 15.254 22.8698 14.9956 22.87C14.7371 22.8702 14.4894 22.973 14.3068 23.1559L12.4658 24.9939Z" fill="#212121" stroke="#212121" stroke-width="0.5"/>
<path d="M19.5336 7.00495C19.9411 6.59837 20.434 6.2877 20.9766 6.09552C21.5192 5.90334 22.0977 5.83448 22.6703 5.89396C23.2428 5.95343 23.7949 6.13974 24.2864 6.43934C24.7779 6.73894 25.1964 7.1443 25.5116 7.62595C25.9926 8.39541 26.1944 9.30692 26.0829 10.2075C25.9715 11.1081 25.5537 11.9429 24.8996 12.5719L20.4756 16.9909C19.9367 17.5479 19.2463 17.9347 18.4899 18.1036C17.7335 18.2724 16.9442 18.2159 16.2196 17.9409C15.5031 17.6622 14.8885 17.1717 14.4576 16.5349C14.3065 16.3345 14.084 16.1999 13.8363 16.1592C13.5887 16.1186 13.3348 16.1749 13.1276 16.3165C12.9203 16.4581 12.7756 16.6741 12.7234 16.9196C12.6713 17.1652 12.7158 17.4213 12.8476 17.6349C13.4028 18.4488 14.1571 19.107 15.0386 19.5469C16.1606 20.089 17.4247 20.2648 18.652 20.0495C19.8794 19.8342 21.0081 19.2386 21.8786 18.3469L26.2576 13.9739C27.2224 13.0414 27.8417 11.8087 28.0139 10.4779C28.1862 9.1472 27.9012 7.79743 27.2056 6.64995C26.7393 5.91042 26.1126 5.2852 25.372 4.82055C24.6314 4.35589 23.7959 4.06369 22.9271 3.96556C22.0583 3.86743 21.1786 3.96589 20.353 4.25364C19.5275 4.54139 18.7772 5.01107 18.1576 5.62795L16.3136 7.46695C16.131 7.64981 16.0285 7.89773 16.0287 8.15616C16.0289 8.41458 16.1317 8.66235 16.3146 8.84495C16.4975 9.02755 16.7454 9.13003 17.0038 9.12984C17.2622 9.12965 17.51 9.02681 17.6926 8.84395L19.5336 7.00495Z" fill="#212121" stroke="#212121" stroke-width="0.5"/>
</svg>
