<svg width="24" height="24" viewBox="0 0 24 24" fill="none" xmlns="http://www.w3.org/2000/svg">
<path d="M3.74065 11.22H2.71465C2.05191 11.22 1.51465 11.7572 1.51465 12.42V17.437C1.51465 18.0997 2.05191 18.637 2.71465 18.637H3.74065C4.40339 18.637 4.94065 18.0997 4.94065 17.437V12.42C4.94065 11.7572 4.40339 11.22 3.74065 11.22Z" fill="#6EC4F6"/>
<path d="M9.30832 5.98389H7.85332C7.19058 5.98389 6.65332 6.52115 6.65332 7.18389V17.4359C6.65332 18.0986 7.19058 18.6359 7.85332 18.6359H9.30832C9.97106 18.6359 10.5083 18.0986 10.5083 17.4359V7.18389C10.5083 6.52115 9.97106 5.98389 9.30832 5.98389Z" fill="#2B9CDE"/>
<path d="M14.8777 6.85693H13.4227C12.7599 6.85693 12.2227 7.39419 12.2227 8.05693V17.4369C12.2227 18.0997 12.7599 18.6369 13.4227 18.6369H14.8777C15.5404 18.6369 16.0777 18.0997 16.0777 17.4369V8.05693C16.0777 7.39419 15.5404 6.85693 14.8777 6.85693Z" fill="#6EC4F6"/>
<path d="M20.446 2.4939H18.991C18.3283 2.4939 17.791 3.03115 17.791 3.6939V17.4359C17.791 18.0986 18.3283 18.6359 18.991 18.6359H20.446C21.1088 18.6359 21.646 18.0986 21.646 17.4359V3.6939C21.646 3.03115 21.1088 2.4939 20.446 2.4939Z" fill="#2B9CDE"/>
<path d="M18.0537 19.075L21.4857 22.507" stroke="#1F3A5E" stroke-width="2" stroke-linecap="round"/>
<path d="M15.7659 20.681C18.3727 20.681 20.4859 18.5678 20.4859 15.961C20.4859 13.3542 18.3727 11.241 15.7659 11.241C13.1591 11.241 11.0459 13.3542 11.0459 15.961C11.0459 18.5678 13.1591 20.681 15.7659 20.681Z" fill="white" stroke="#1F3A5E" stroke-width="2"/>
</svg>
