<svg width="24" height="24" viewBox="0 0 24 24" fill="none" xmlns="http://www.w3.org/2000/svg">
<path d="M24 12.0011C24 18.6288 18.6266 24 12.0011 24C5.37564 24 0 18.6266 0 12.0011C0 5.37564 5.3734 0 12.0011 0C18.6288 0 24 5.3734 24 12.0011Z" fill="white"/>
<path d="M17.6963 11.2396C15.7678 9.92929 13.2972 10.4624 12.0026 12.4357C10.9185 14.082 9.28339 14.288 8.64951 14.288C6.58661 14.288 5.17326 12.8366 4.75665 11.3337C4.75217 11.318 4.74993 11.3068 4.74545 11.2911C4.74097 11.2754 4.73649 11.2575 4.73201 11.2396C4.56626 10.6124 4.52594 10.3145 4.52594 9.64707C4.52594 6.05434 8.21049 2.05621 13.5189 2.05621C18.8274 2.05621 22.0617 6.19321 22.8658 8.49354C22.8524 8.45546 22.839 8.41291 22.8255 8.37259C21.2845 3.87497 17.0176 0.640625 11.9981 0.640625C5.67947 0.640625 0.554688 5.76316 0.554688 12.084C0.554688 17.7329 4.62898 22.5688 10.2801 22.5688C14.7889 22.5688 17.8172 20.04 19.2082 16.5592C19.9697 14.6554 19.4299 12.4155 17.6985 11.2396H17.6963Z" fill="#003763"/>
<path d="M22.9347 8.71796C22.2672 6.47363 19.1315 2.05664 13.5184 2.05664C8.20995 2.05664 4.52539 6.05477 4.52539 9.6475C4.52539 10.315 4.56571 10.6129 4.73146 11.24C4.66202 10.9668 4.62619 10.6913 4.62619 10.4247C4.62619 6.68417 8.37121 4.09266 12.2215 4.09266C17.4337 4.09266 21.658 8.31702 21.658 13.5292C21.658 17.6146 19.3084 21.1491 15.8926 22.8492C20.2962 21.2589 23.4387 17.0412 23.4387 12.0889C23.4387 10.9175 23.2819 9.88268 22.9347 8.72244V8.71796Z" fill="#E4022D"/>
</svg>
