<svg width="40" height="40" viewBox="0 0 40 40" fill="none" xmlns="http://www.w3.org/2000/svg">
<path d="M40 20.0019C40 31.0481 31.0443 40 20.0019 40C8.9594 40 0 31.0443 0 20.0019C0 8.9594 8.95567 0 20.0019 0C31.0481 0 40 8.95567 40 20.0019Z" fill="white"/>
<path d="M29.4931 18.7343C26.2789 16.5504 22.1613 17.4389 20.0036 20.7278C18.1968 23.4716 15.4717 23.815 14.4152 23.815C10.977 23.815 8.62145 21.396 7.92709 18.8911C7.91963 18.865 7.91589 18.8463 7.90843 18.8202C7.90096 18.794 7.89349 18.7642 7.88603 18.7343C7.60978 17.689 7.54258 17.1925 7.54258 16.0801C7.54258 10.0922 13.6835 3.42865 22.5309 3.42865C31.3783 3.42865 36.7689 10.3237 38.1091 14.1575C38.0867 14.0941 38.0643 14.0231 38.0419 13.9559C35.4735 6.45991 28.362 1.06934 19.9962 1.06934C9.46512 1.06934 0.923828 9.6069 0.923828 20.1417C0.923828 29.5565 7.71431 37.6162 17.1329 37.6162C24.6476 37.6162 29.6947 33.4016 32.013 27.6004C33.2822 24.4272 32.3825 20.6942 29.4969 18.7343H29.4931Z" fill="#003763"/>
<path d="M38.2232 14.5309C37.1108 10.7904 31.8845 3.42871 22.5294 3.42871C13.6819 3.42871 7.54102 10.0923 7.54102 16.0801C7.54102 17.1926 7.60822 17.6891 7.88446 18.7344C7.76874 18.2789 7.70901 17.8198 7.70901 17.3755C7.70901 11.1413 13.9507 6.82208 20.3679 6.82208C29.0548 6.82208 36.0954 13.8627 36.0954 22.5496C36.0954 29.3587 32.1794 35.2495 26.4864 38.0829C33.8257 35.4324 39.0632 28.403 39.0632 20.1492C39.0632 18.1968 38.8019 16.4721 38.2232 14.5384V14.5309Z" fill="#E4022D"/>
</svg>
