<svg id="레이어_1" data-name="레이어 1" xmlns="http://www.w3.org/2000/svg" viewBox="0 0 43 43"><defs><style>.cls-1{fill:#1861a0;}.cls-2{fill:#fff;}</style></defs><title>메트라이프생명</title><path class="cls-1" d="M0,21.5C0,22.76,0,22.91,0,24a27.86,27.86,0,0,0,1.28,8A16.87,16.87,0,0,0,4.53,37.6a15.21,15.21,0,0,0,6.23,4c2.45.85,5.1,1.25,10.26,1.36h1c5.16-.11,7.81-.51,10.26-1.36a15.21,15.21,0,0,0,6.23-4A16.87,16.87,0,0,0,41.68,32,27.86,27.86,0,0,0,43,24c0-1.07,0-1.22,0-2.48s0-1.41,0-2.48a27.74,27.74,0,0,0-1.28-8A16.82,16.82,0,0,0,38.47,5.4a15.21,15.21,0,0,0-6.23-4C29.79.51,27.14.11,22,0H21c-5.16.11-7.81.51-10.26,1.36a15.21,15.21,0,0,0-6.23,4A16.82,16.82,0,0,0,1.32,11,27.74,27.74,0,0,0,0,19C0,20.09,0,20.24,0,21.5Z"/><path class="cls-2" d="M29.73,13.08a4.54,4.54,0,0,0-1.19.27,14.85,14.85,0,0,0-5.79,3.75l-1.22,1.44.47.67a15,15,0,0,1,2,4.67,10.25,10.25,0,0,1,.38,2.46c0,.16,0,.33,0,.51s0,.39,0,.61a10.41,10.41,0,0,1-.09,2.46h5.73l.33-.34c.2-.29.23-1.31.23-8.14,0-7.07,0-7.85-.25-8.09a.8.8,0,0,0-.66-.27Z"/><path class="cls-2" d="M13.3,13.08a1,1,0,0,0-.67.24c-.26.23-.27.68-.27,8.09,0,6.86,0,7.88.23,8.17l.24.34h5.7c4.4,0,5.73-.05,5.82-.19a13.69,13.69,0,0,0,.09-2.27,11.86,11.86,0,0,0-.4-3.58,14.65,14.65,0,0,0-3.95-7,15.82,15.82,0,0,0-5.63-3.55,3.86,3.86,0,0,0-1.16-.26Z"/><path class="cls-1" d="M21.53,18.54l-.36.43A18.45,18.45,0,0,0,19,23.88a11.89,11.89,0,0,0-.4,3.59,10.25,10.25,0,0,0,.09,2.45h5.7a10.41,10.41,0,0,0,.09-2.46,12.53,12.53,0,0,0-.4-3.58,15,15,0,0,0-2-4.67l-.47-.67Z"/><path class="cls-2" d="M21.53,19.78l-.3.39a16.81,16.81,0,0,0-1.81,4.37,11.49,11.49,0,0,0-.33,3.18,10.12,10.12,0,0,0,.08,2.18h4.66a9.55,9.55,0,0,0,.08-2.19,12,12,0,0,0-.33-3.18,14.19,14.19,0,0,0-1.67-4.15l-.38-.6Z"/></svg>