<svg id="레이어_1" data-name="레이어 1" xmlns="http://www.w3.org/2000/svg" viewBox="0 0 43 43"><defs><style>.cls-1{fill:#0b87d7;}.cls-2{fill:#fff;}</style></defs><title>수협</title><path class="cls-1" d="M0,21.5C0,22.76,0,22.91,0,24a28.25,28.25,0,0,0,1.29,8A17,17,0,0,0,4.53,37.6a15.21,15.21,0,0,0,6.23,4c2.45.85,5.1,1.25,10.26,1.36h1c5.16-.11,7.81-.51,10.26-1.36a15.21,15.21,0,0,0,6.23-4A17,17,0,0,0,41.68,32,28.25,28.25,0,0,0,43,24c0-1.07,0-1.22,0-2.48s0-1.41,0-2.48a28.07,28.07,0,0,0-1.29-8A16.82,16.82,0,0,0,38.47,5.4a15.21,15.21,0,0,0-6.23-4C29.79.51,27.14.11,22,0H21c-5.16.11-7.81.51-10.26,1.36a15.21,15.21,0,0,0-6.23,4A16.82,16.82,0,0,0,1.32,11,28.07,28.07,0,0,0,0,19C0,20.09,0,20.24,0,21.5Z"/><path class="cls-2" d="M15.31,20.82c.19.15.42.31.66.48s1,.69,1.35,1a6.89,6.89,0,0,1,.56.52A4.33,4.33,0,0,1,18.71,24a2,2,0,0,1,.14.73,2.86,2.86,0,0,1-1,2.18A9.3,9.3,0,0,0,19.28,26a3.89,3.89,0,0,0,1.77-2.8,3,3,0,0,0,0-.6v.11a3.72,3.72,0,0,0-.18-.88c-.72-2.17-3.11-2.64-3.75-4.07,0,0,0,0,0,0a.89.89,0,0,1-.06-.2.29.29,0,0,1,0-.09,1.63,1.63,0,0,1,0-.69,2.85,2.85,0,0,1,1.39-1.57l.09-.05.13-.06A4.22,4.22,0,0,1,21.48,15c1.49.43,1.44,1.54,1.44,1.54l1-2s.15-.19-1-.62a9.6,9.6,0,0,0-3.34-.5,7.56,7.56,0,0,0-1.75.22,5.53,5.53,0,0,0-3.54,2.62.41.41,0,0,1,0,.09c0,.09-.08.18-.11.27A3.85,3.85,0,0,0,15.31,20.82Z"/><path class="cls-2" d="M31,28.28c.12-.33,1.33-3.82,1.45-4.19.82-2.55,1.71-5.51-1-5.68A8.74,8.74,0,0,0,26.72,20l-.37.23L28.61,15c.38-.79.24-1.36-.85-1.36H25.48a.91.91,0,0,1,.29.33l0,0,0,.07s0,0,0,.05a1.57,1.57,0,0,1,0,.89v0s0,0,0,.05a1.18,1.18,0,0,1-.07.2s0,.07,0,.11c-1.75,4-2.83,6.43-3.54,8a7.21,7.21,0,0,1-5.11,4.17,6.87,6.87,0,0,1-2.7-.29,4.68,4.68,0,0,1-2.72-4.85L9.76,26.54a7,7,0,0,0,4.88,3.09,6.76,6.76,0,0,0,5.62-1.85c-.78,1.81,1.27,1.75,1.27,1.75h1.92a1.14,1.14,0,0,1-.52-.66s0-.07,0-.11v-.22a1.38,1.38,0,0,1,.06-.26c.06-.18.66-1.74.66-1.74s.05-.09.07-.14a26.33,26.33,0,0,1,1.63-2.69A10.8,10.8,0,0,1,27,21.83a7.56,7.56,0,0,1,1-.71,2.48,2.48,0,0,1,1.6-.38.81.81,0,0,1,.39.27c.32.72,0,2-.47,3.33l-.82,2.06c-.16.39-.31.74-.42,1a4.32,4.32,0,0,0-.24.63l0,.1a18949259632190,18949259632190,0,0,0,0,.26.65.65,0,0,0,0,.14v.06a.65.65,0,0,0,.11.34l0,0s0,0,0,0v0c.36.54,1.3.52,1.3.52h1.92l0,0h0a.56.56,0,0,1-.13-.1l0,0,0,0-.08-.09,0-.06,0-.07A.42.42,0,0,1,31,29l0-.05,0-.16a1.09,1.09,0,0,1,0-.18v0A1.74,1.74,0,0,1,31,28.28Z"/></svg>