<svg width="24" height="24" viewBox="0 0 24 24" fill="none" xmlns="http://www.w3.org/2000/svg">
<g clip-path="url(#clip0_8918_95341)">
<mask id="mask0_8918_95341" style="mask-type:luminance" maskUnits="userSpaceOnUse" x="0" y="0" width="24" height="25">
<path d="M12.0003 0H11.7351C8.85486 0.060012 7.37455 0.286257 6.00405 0.757952C4.67789 1.21305 3.48409 1.98758 2.52799 3.0132C1.73466 3.93506 1.12707 5.00165 0.738655 6.15423C0.28213 7.59963 0.0395427 9.10407 0.0186009 10.6197C-4.8954e-07 11.215 0 11.2979 0 12C0 12.7021 -4.8954e-07 12.788 0.0186009 13.3833C0.0395478 14.8985 0.282137 16.4026 0.738655 17.8476C1.12679 19.0003 1.73442 20.0669 2.52799 20.9886C3.48402 22.0146 4.67781 22.7895 6.00405 23.2451C7.37455 23.7155 8.85306 23.9424 11.7351 24.0018H12.2661C15.1463 23.9418 16.6266 23.7155 17.9966 23.2451C19.3229 22.7897 20.5167 22.0147 21.4726 20.9886C22.2661 20.0679 22.8736 19.002 23.2613 17.85C23.7179 16.4058 23.9605 14.9026 23.9814 13.3881C24 12.7928 24 12.7099 24 12.0048C24 11.2997 24 11.2174 23.9814 10.6245C23.9607 9.10885 23.7181 7.60437 23.2613 6.15903C22.8734 5.00624 22.2658 3.93956 21.472 3.018C20.516 1.99225 19.3222 1.2177 17.996 0.762753C16.6266 0.286257 15.1475 0.0594119 12.2661 0H12.0003Z" fill="white"/>
</mask>
<g mask="url(#mask0_8918_95341)">
<path fill-rule="evenodd" clip-rule="evenodd" d="M11.9195 11.2671C11.784 11.4763 11.6987 11.7141 11.6705 11.9617C11.6423 12.2094 11.6719 12.4603 11.7569 12.6946C11.7991 12.7425 11.8533 12.7783 11.9139 12.7983C11.9746 12.8183 12.0394 12.8219 12.1019 12.8086C12.1923 12.7372 12.2614 12.6424 12.3017 12.5345C12.342 12.4266 12.352 12.3097 12.3305 12.1965C12.2669 12.0963 12.2171 12.0801 12.1535 12.1653C12.0191 12.4384 11.9621 12.2512 11.9513 12.0987C11.9355 11.8421 11.948 11.5846 11.9885 11.3307C12.0215 11.1135 11.9885 11.1795 11.9195 11.2671Z" fill="white"/>
<path d="M33.0327 -0.0546875H-9.02148V24.4602H33.0327V-0.0546875Z" fill="#3D9635"/>
<path fill-rule="evenodd" clip-rule="evenodd" d="M4.29499 7.73599C4.25959 8.22143 4.21579 9.07709 4.62982 9.1653C5.12966 9.2133 4.85363 8.31983 5.03485 8.15722C5.06905 8.07862 5.13266 8.07682 5.13746 8.17882V8.93608C5.13385 9.02128 5.16029 9.10503 5.21217 9.17271C5.26405 9.24038 5.33807 9.28767 5.42128 9.30631C5.55149 9.29611 5.63969 9.30031 5.6913 9.42632L5.7513 10.738C5.7513 10.738 6.05552 10.8262 6.06993 10.0012C6.03907 9.67471 6.02865 9.34664 6.03872 9.01889C6.03872 8.92528 6.15873 8.91988 6.24094 8.96548C6.37175 9.05669 6.42995 9.1713 6.63337 9.1263C6.94239 9.04109 7.1272 8.88988 7.13321 8.65346C7.12345 8.42147 7.07582 8.19263 6.99219 7.97601C7.0054 7.93581 6.93219 7.8302 6.94539 7.78879C7.0012 7.8764 7.0858 7.8692 7.105 7.78879C7.07085 7.62324 6.97576 7.47655 6.83858 7.37776C6.72878 7.28236 6.56856 7.30156 6.50976 7.50257C6.50278 7.76808 6.59232 8.02711 6.76178 8.23163C6.81538 8.34511 6.83755 8.47089 6.82598 8.59586C6.78511 8.6206 6.7365 8.62926 6.68959 8.62017C6.64269 8.61107 6.60083 8.58487 6.57216 8.54665C6.57216 8.54665 6.32554 8.36244 6.32554 8.32164C6.39035 7.9016 6.34115 7.8572 6.30334 7.74019C6.27814 7.58058 6.20194 7.53018 6.14133 7.41977C6.08133 7.35496 5.99612 7.35496 5.95712 7.41977C5.86985 7.67161 5.87753 7.94665 5.97872 8.19323C6.03572 8.36064 6.12153 8.46505 6.08193 8.46505C6.04712 8.55925 5.97752 8.53885 5.92711 8.42844C5.86657 8.19656 5.8373 7.95763 5.84011 7.71799C5.81791 7.53138 5.7939 7.13235 5.6709 7.03094C5.59649 6.92833 5.48548 6.97873 5.44528 7.07114C5.43534 7.25239 5.43935 7.43414 5.45728 7.61478C5.52977 7.90058 5.58072 8.19142 5.60969 8.48485C5.62109 8.89768 5.36967 8.66486 5.38347 8.46025C5.4365 8.19954 5.43323 7.93052 5.37387 7.67119C5.33367 7.56558 5.28627 7.54038 5.18786 7.55838C5.10925 7.55238 4.90764 7.77199 4.85123 8.13682C4.822 8.25393 4.79897 8.37251 4.78223 8.49205C4.75403 8.67986 4.63042 8.81247 4.54221 8.46505C4.46661 8.21243 4.4228 7.59018 4.29499 7.73599Z" fill="white"/>
<path fill-rule="evenodd" clip-rule="evenodd" d="M5.65561 9.73101C5.21458 9.94643 4.78735 10.1474 4.35352 10.3557C4.43642 10.1379 4.57545 9.94605 4.75651 9.79945C4.93757 9.65286 5.15419 9.55679 5.38439 9.521C5.65141 9.5288 5.58421 9.6248 5.65561 9.73101Z" fill="white"/>
<path fill-rule="evenodd" clip-rule="evenodd" d="M7.31875 6.97754C7.29354 6.98114 7.26594 6.99554 7.23414 7.00334C7.20264 7.01176 7.17312 7.02632 7.14727 7.0462C7.12142 7.06607 7.09976 7.09086 7.08353 7.11914C7.0673 7.14742 7.05683 7.17863 7.05271 7.21097C7.04859 7.24332 7.0509 7.27616 7.05953 7.3076C7.18433 8.06976 7.26774 8.65127 7.39315 9.41523C7.41235 9.50464 7.33735 9.62347 7.24014 9.61087C7.07633 9.49984 7.03612 9.2736 6.7547 9.2844C6.64167 9.29948 6.53619 9.34953 6.45302 9.42755C6.36984 9.50556 6.31315 9.60764 6.29087 9.71949C6.25062 9.88349 6.25062 10.0548 6.29087 10.2188C6.34612 10.2845 6.42072 10.3311 6.50401 10.3519C6.58731 10.3727 6.67505 10.3666 6.7547 10.3346C6.87831 10.2836 6.97972 10.1612 7.02292 10.1894C7.04933 10.2356 7.01872 10.6341 6.44208 10.9407C6.08625 11.0992 5.80423 11.137 5.65182 10.8477C5.55761 10.6677 5.65962 9.97694 5.4274 10.1366C4.74035 11.9039 7.03492 12.15 7.28754 10.2086C7.30434 10.154 7.35595 10.0994 7.39255 10.1126C7.40755 10.1192 7.42135 10.1402 7.42675 10.1792C7.37275 11.9387 5.65242 12.0576 5.3596 11.5048C5.29067 11.3147 5.25672 11.1136 5.25939 10.9113C5.25766 10.8415 5.23251 10.7743 5.18799 10.7205C5.11898 10.6695 5.02417 10.8051 5.00437 11.0428C4.98291 11.1841 4.97587 11.3273 4.98337 11.47C5.07518 12.8587 7.29054 12.261 7.64997 11.1142C7.72203 10.7538 7.74224 10.385 7.70997 10.0189H7.71537C7.93799 10.2548 8.24521 10.049 8.31542 9.96794C8.32362 9.95584 8.33439 9.94569 8.34695 9.93822C8.35951 9.93075 8.37356 9.92613 8.38811 9.9247C8.40266 9.92327 8.41734 9.92506 8.43111 9.92993C8.44489 9.93481 8.45743 9.94267 8.46783 9.95293C8.51124 9.98413 8.56115 10.0051 8.61381 10.0142C8.66647 10.0234 8.72052 10.0205 8.7719 10.0058C8.82329 9.99103 8.87067 9.96486 8.9105 9.92921C8.95032 9.89356 8.98156 9.84935 9.00187 9.7999C9.04191 9.58185 9.06677 9.36127 9.07628 9.13977C8.99055 9.15638 8.90897 9.18983 8.83626 9.23819C8.82782 9.24679 8.82199 9.25761 8.81946 9.2694C8.81046 9.33241 8.80026 9.39542 8.79066 9.45964C8.78977 9.46426 8.78815 9.46872 8.78586 9.47284C8.78007 9.48106 8.77248 9.48783 8.76365 9.49264C8.72465 9.51305 8.65685 9.50104 8.65265 9.44343C8.59984 9.20338 8.38022 9.16978 8.24761 9.54485C8.15821 9.61687 7.995 9.63067 7.97879 9.52265C8.0004 9.2718 7.89959 9.23819 7.69677 9.35702C7.63137 8.85832 7.56656 8.38482 7.50056 7.88732C7.58577 7.88432 7.66317 7.94733 7.74058 7.84951C7.66717 7.5517 7.54556 7.2679 7.38055 7.00935C7.37626 7.00426 7.37165 6.99944 7.36675 6.99494L7.35955 6.99014L7.35295 6.98594C7.34904 6.98438 7.34523 6.98257 7.34155 6.98054C7.3322 6.97912 7.32269 6.97912 7.31334 6.98054M6.7001 9.70689C6.72595 9.70345 6.75218 9.70928 6.77415 9.72334C6.79612 9.7374 6.8124 9.75878 6.82011 9.7837C6.82857 9.80562 6.83092 9.82942 6.82691 9.85257C6.82289 9.87572 6.81266 9.89734 6.79731 9.91513C6.7811 9.93793 6.7199 9.92833 6.6773 9.92833C6.65598 9.93036 6.63451 9.9263 6.6154 9.91664C6.59629 9.90697 6.5803 9.89209 6.56929 9.87372C6.55429 9.82631 6.59929 9.7807 6.61849 9.74589C6.62063 9.74131 6.6237 9.73723 6.62749 9.73389C6.64852 9.71766 6.67327 9.70693 6.6995 9.70269" fill="white"/>
<path fill-rule="evenodd" clip-rule="evenodd" d="M8.85888 6.93673C8.80458 6.93979 8.75157 6.95452 8.70347 6.97994C8.64819 7.02738 8.61244 7.09362 8.60314 7.16587C8.59383 7.23812 8.61162 7.31126 8.65307 7.37117C8.74008 7.41137 8.82648 7.49958 8.76828 7.55118C8.52226 7.8146 7.88141 8.25323 7.84961 8.33124V8.33424V8.33724C8.0089 8.35877 8.17036 8.35877 8.32964 8.33724C8.6152 8.09391 8.87994 7.82716 9.1211 7.53978C9.0881 7.51098 9.0569 7.48937 9.0221 7.46057C8.98729 7.43177 8.98969 7.40057 9.0221 7.36637C9.05266 7.34426 9.07797 7.31569 9.09624 7.28269C9.11451 7.2497 9.12529 7.21308 9.12781 7.17545C9.13033 7.13781 9.12453 7.10009 9.11083 7.06495C9.09712 7.02981 9.07584 6.99812 9.0485 6.97214C8.98747 6.9432 8.92037 6.92941 8.85288 6.93193M8.82228 7.16295C8.84703 7.16488 8.87071 7.17388 8.8905 7.18888C8.91028 7.20388 8.92534 7.22425 8.93389 7.24756C8.96029 7.30336 8.94649 7.35677 8.90629 7.36757C8.86609 7.37837 8.81088 7.33996 8.78628 7.28536C8.76168 7.23076 8.77488 7.17675 8.81508 7.16535C8.81765 7.16474 8.82032 7.16474 8.82288 7.16535" fill="white"/>
<path fill-rule="evenodd" clip-rule="evenodd" d="M14.8558 10.3584C14.6194 9.85013 14.2918 9.34669 14.1874 9.15408C14.083 8.96147 13.2963 7.81838 13.1799 7.69057C12.9249 7.38695 13.5957 7.81718 13.0941 7.21414C12.9045 7.05152 12.8937 7.04132 12.7341 6.90871C12.6549 6.84871 12.4592 6.7479 12.4244 6.91951C12.4087 7.03966 12.415 7.16166 12.443 7.27954C12.4945 7.39128 12.5625 7.49464 12.6447 7.58616C13.4799 8.68882 14.2124 9.86562 14.833 11.1018C14.9404 11.0502 14.917 10.4418 14.8546 10.3596" fill="white"/>
<path fill-rule="evenodd" clip-rule="evenodd" d="M13.8169 12.0624C13.7695 12.1134 13.9309 12.3378 14.1403 12.3372C14.3496 12.3031 14.5465 12.2157 14.7121 12.0833C14.8778 11.951 15.0065 11.7782 15.086 11.5817C15.2021 11.4078 15.2757 11.209 15.3008 11.0014C15.3372 10.0154 15.2582 9.02847 15.0656 8.06077C15.0553 7.99236 15.0588 7.92258 15.0758 7.85553C15.098 7.82853 15.1754 7.85553 15.2162 7.78832C15.2762 7.72831 15.0572 7.21941 14.9324 7.02557C14.888 6.93735 14.8724 6.88034 14.7986 7.03577C14.7101 7.20656 14.6677 7.39748 14.6756 7.58968C14.843 8.74671 14.8946 9.75912 15.005 10.9173C15.0228 11.037 14.993 11.1589 14.9222 11.257C14.6148 11.6004 14.2381 11.8753 13.8169 12.0624Z" fill="white"/>
<path fill-rule="evenodd" clip-rule="evenodd" d="M18.5554 12.0545C18.3028 12.2003 18.3028 12.3671 18.5068 12.3737C18.7096 12.3815 18.9112 12.34 19.0943 12.2526C19.2774 12.1652 19.4366 12.0346 19.5581 11.872C19.6578 11.6698 19.7158 11.4496 19.7285 11.2245C19.778 10.1616 19.7148 9.09646 19.5401 8.04687C19.5193 7.94815 19.5081 7.84767 19.5065 7.74681C19.5293 7.68679 19.6427 7.75401 19.6865 7.68679C19.7465 7.62678 19.3901 7.16889 19.2665 6.97325C19.2215 6.88683 19.2064 6.82862 19.1326 6.98465C19.0506 7.15657 19.0252 7.35009 19.06 7.53736C19.2485 8.72537 19.3663 9.92352 19.4129 11.1255C19.4027 11.2267 19.3795 11.3261 19.3439 11.4213C19.2439 11.5674 19.1279 11.7018 18.9982 11.8222C18.8842 11.9074 18.6382 11.9891 18.5614 12.0515" fill="white"/>
<path fill-rule="evenodd" clip-rule="evenodd" d="M18.7452 10.9271C18.7452 10.6337 18.7494 10.3799 18.7392 10.1603C18.729 9.94064 18.6287 9.11798 18.5957 8.94157C18.5627 8.76515 18.5291 8.49693 18.4757 8.28632C18.4504 8.164 18.4358 8.03973 18.4319 7.91489C18.4529 7.85488 18.5309 7.91489 18.5699 7.84768C18.5255 7.52032 18.4124 7.20604 18.2381 6.92541C18.1913 6.83901 18.1049 6.86541 17.9981 7.00822C17.8997 7.10003 17.9381 7.30824 17.9741 7.50746C18.2481 8.8018 18.3815 10.122 18.3719 11.445C18.3593 11.5518 18.7428 11.1287 18.741 10.9271" fill="white"/>
<path fill-rule="evenodd" clip-rule="evenodd" d="M16.8846 9.30109C16.7256 9.29749 16.3944 8.99207 16.2972 8.81445C16.2826 8.77178 16.2768 8.72658 16.2802 8.68161C16.2837 8.63664 16.2962 8.59283 16.317 8.55283C16.377 8.51503 16.4658 8.47243 16.533 8.51383C16.533 8.51383 16.6026 8.61044 16.5894 8.62424C16.6758 8.66384 16.7124 8.64104 16.7214 8.60504C16.7274 8.54503 16.695 8.50783 16.695 8.43943C16.6992 8.40339 16.7139 8.36937 16.7373 8.34163C16.7606 8.31388 16.7917 8.29363 16.8265 8.28339C16.8613 8.27315 16.8983 8.27339 16.933 8.28406C16.9677 8.29473 16.9984 8.31538 17.0214 8.34342C17.0767 8.44375 17.107 8.55593 17.1097 8.67044C17.1097 8.72325 17.0226 8.66084 16.9752 8.67044C16.9278 8.68004 16.9152 8.73945 16.9116 8.79045C16.9026 8.92366 16.887 9.13668 16.8846 9.29929" fill="white"/>
<path fill-rule="evenodd" clip-rule="evenodd" d="M13.9608 11.2547C13.9799 10.771 13.9731 10.2866 13.9403 9.80359C13.9253 9.24608 13.8329 8.17187 13.7903 7.99183C13.7417 7.65276 13.9295 8.02784 13.9043 7.8316C13.8176 7.50696 13.6567 7.20686 13.4345 6.95482C13.3643 6.854 13.3661 6.8348 13.2545 6.97883C13.1815 7.20043 13.1864 7.4403 13.2683 7.65877C13.4188 8.31009 13.5177 8.97228 13.5641 9.63916C13.6112 10.3374 13.617 11.0377 13.5815 11.7366C13.7015 11.742 13.8917 11.5445 13.959 11.2565" fill="white"/>
<path fill-rule="evenodd" clip-rule="evenodd" d="M19.2826 10.6136C19.0006 10.1467 18.5806 9.5971 18.4708 9.40929C18.3609 9.22147 17.4051 7.82577 17.2845 7.70216C16.9358 7.33793 17.4441 7.64216 17.2185 7.36013C17.0951 7.21247 16.9572 7.07758 16.8068 6.9575C16.724 6.9053 16.6748 6.80449 16.6478 6.97671C16.6333 7.12786 16.6293 7.27983 16.6358 7.43154C16.656 7.53653 16.7034 7.63438 16.7732 7.71536C17.7107 8.85189 18.5489 10.0668 19.2784 11.3468C19.3852 11.291 19.3498 10.6928 19.2826 10.6106" fill="white"/>
<path fill-rule="evenodd" clip-rule="evenodd" d="M15.9011 16.1396C15.8539 16.1475 15.8103 16.1697 15.7761 16.2031C15.742 16.2366 15.7189 16.2798 15.7101 16.3268C15.7012 16.3738 15.707 16.4223 15.7267 16.4659C15.7464 16.5095 15.779 16.546 15.8201 16.5705C13.2129 16.5705 9.21119 16.5261 8.35312 16.5261C7.87309 16.5261 6.35497 16.4697 6.32617 16.4697C6.49053 16.6816 6.7075 16.8469 6.95551 16.949C7.20352 17.0511 7.47394 17.0865 7.73988 17.0517C8.89857 17.0517 14.2642 17.0379 15.7907 17.0379C15.7526 17.1305 15.7413 17.232 15.7583 17.3308C15.7753 17.4295 15.8198 17.5214 15.8867 17.596L15.8921 17.6002L15.9029 17.6038H15.9059C16.0079 17.6284 16.0523 17.5552 16.0859 17.5024C16.476 17.5235 16.867 17.5235 17.2572 17.5024C17.3136 17.5846 17.3706 17.6644 17.4792 17.6512C17.6694 17.6092 17.8188 17.5912 17.8242 17.2029C17.8242 17.2029 17.8056 16.5429 17.3724 16.5867C17.2704 16.6029 16.9842 16.6305 16.9842 16.6305C16.6517 16.5915 16.4075 16.5879 16.0349 16.5705C16.0691 16.5273 16.1291 16.3509 16.0559 16.2861C16.0432 16.2768 16.0287 16.2701 16.0133 16.2664C15.998 16.2626 15.9821 16.262 15.9665 16.2645H15.9623H15.9581L15.9515 16.2573H15.9485C15.9305 16.2303 15.9197 16.1631 15.9077 16.1456H15.9041H15.9011V16.1396ZM16.0811 17.0793C16.4609 17.0979 16.8186 17.0829 17.199 17.1015C17.2222 17.1282 17.2342 17.1628 17.2325 17.1981C17.2308 17.2334 17.2156 17.2668 17.19 17.2911L17.1828 17.2947H17.1738C17.049 17.2905 16.9782 17.2869 16.854 17.2851C16.8546 17.2788 16.8546 17.2723 16.854 17.2659C16.8246 17.1795 16.6139 17.1855 16.5617 17.2527V17.2569V17.2623L16.5581 17.2683V17.2773V17.2881C16.3965 17.2976 16.2343 17.2936 16.0733 17.2761C16.0247 17.2161 16.0301 17.1057 16.0871 17.0793" fill="white"/>
<path fill-rule="evenodd" clip-rule="evenodd" d="M9.30361 7.3351C9.0498 8.06116 9.44942 8.85562 9.72365 8.77521C9.92346 8.85682 10.0507 8.47519 10.1329 8.06056C10.1893 7.94415 10.2313 7.93155 10.2595 7.99095C10.2529 8.54599 10.2997 8.6684 10.4395 8.83581C10.5218 8.90873 10.6275 8.94993 10.7374 8.95202C10.8474 8.9541 10.9545 8.91695 11.0395 8.84722L11.2868 8.5988C11.3134 8.57082 11.3499 8.55426 11.3885 8.55258C11.4271 8.5509 11.4648 8.56424 11.4938 8.5898C11.5688 8.6582 11.5586 8.77701 11.72 8.85862C11.8044 8.88696 11.8948 8.89228 11.9819 8.87403C12.069 8.85578 12.1497 8.81463 12.2156 8.75481C12.3062 8.5982 12.3284 8.54599 12.3692 8.48599C12.4352 8.40078 12.5445 8.43859 12.5445 8.46679C12.5349 8.51359 12.4701 8.56159 12.5133 8.6468C12.5907 8.70681 12.6099 8.6672 12.6543 8.654C12.8157 8.5778 12.9375 8.22677 12.9375 8.22677C12.9441 8.09596 12.8709 8.10676 12.8229 8.13376C12.7629 8.17157 12.7581 8.18357 12.6951 8.22257C12.6165 8.23457 12.4641 8.28557 12.3878 8.16917C12.3336 8.01181 12.2881 7.85155 12.2516 7.68913C12.2516 7.67893 12.1484 7.46531 12.2438 7.45331C12.2918 7.45991 12.3944 7.48811 12.41 7.40291C12.4617 7.3165 12.3026 7.07948 12.1946 6.95887C12.1734 6.93337 12.147 6.91265 12.1171 6.89811C12.0873 6.88356 12.0547 6.87551 12.0215 6.87449C11.9884 6.87347 11.9554 6.8795 11.9247 6.89219C11.894 6.90487 11.8664 6.92392 11.8436 6.94807C11.7554 7.02908 11.7686 7.12029 11.7506 7.20609C11.7361 7.26691 11.7361 7.33028 11.7504 7.39113C11.7648 7.45197 11.7932 7.50861 11.8334 7.55652C11.9812 7.76268 12.0506 8.01482 12.029 8.26757C12.0012 8.30973 11.9627 8.34383 11.9175 8.36647C11.8724 8.38911 11.822 8.39949 11.7716 8.39658C11.7038 8.38158 11.5916 8.35218 11.5316 7.91655C11.5435 7.57595 11.4999 7.23568 11.4026 6.90907C11.3516 6.77826 11.3156 6.65165 11.192 6.87547C11.1391 6.94516 11.1047 7.02713 11.0921 7.1137C11.0795 7.20028 11.0891 7.28864 11.12 7.37051C11.2146 7.61524 11.2421 7.88081 11.1998 8.13976C11.1563 8.21379 11.1067 8.28404 11.0515 8.34978C11.0133 8.39352 10.9604 8.42188 10.9028 8.42961C10.8452 8.43733 10.7868 8.42389 10.7383 8.39178C10.6873 8.36721 10.6433 8.33021 10.6104 8.28417C10.5775 8.23814 10.5567 8.18455 10.5499 8.12836C10.5741 7.8446 10.5644 7.55898 10.5211 7.2775C10.5121 7.25278 10.4969 7.23078 10.477 7.2136C10.4571 7.19643 10.4331 7.18466 10.4073 7.17942C10.3816 7.17418 10.3549 7.17565 10.3298 7.18368C10.3048 7.19171 10.2822 7.20604 10.2643 7.22529C10.0212 7.495 9.85898 7.82773 9.79625 8.18537C9.72425 8.41758 9.64684 8.35158 9.59284 8.25857C9.46143 8.13496 9.45302 7.17309 9.29281 7.3303" fill="white"/>
<path fill-rule="evenodd" clip-rule="evenodd" d="M10.1609 8.83496L10.1543 8.83916H10.1513C10.1339 8.85116 10.1129 8.88056 10.0697 8.91177C9.99466 8.99637 9.98206 9.05458 9.98566 9.22499C9.99046 9.24299 10.1273 9.62342 10.2443 9.89104C10.3417 10.1804 10.3749 10.4876 10.3415 10.7911C10.1414 11.1919 9.82468 11.5229 9.43302 11.7404C9.37323 11.767 9.30853 11.7807 9.2431 11.7807C9.17768 11.7807 9.11298 11.767 9.05319 11.7404C9.01882 11.7163 8.99138 11.6836 8.97358 11.6456C8.95579 11.6076 8.94827 11.5656 8.95178 11.5238C9.34737 11.3129 9.6668 10.9832 9.86505 10.5811C9.95572 10.3651 9.96467 10.1234 9.89025 9.90124C9.86829 9.78433 9.81452 9.67575 9.73484 9.58742C9.78465 9.56402 9.91786 9.66182 9.93886 9.60062C9.89831 9.41927 9.80766 9.25295 9.67724 9.12058C9.658 9.09734 9.63417 9.07832 9.60725 9.06469C9.58033 9.05106 9.5509 9.04313 9.52077 9.04138C9.49065 9.03964 9.4605 9.04412 9.43218 9.05454C9.40387 9.06497 9.37801 9.08112 9.35621 9.10198C9.24521 9.16199 9.2218 9.3828 9.27521 9.57602C9.33521 9.72123 9.49362 9.74523 9.60703 10.0387C9.60703 10.0567 9.64544 10.2565 9.58783 10.3387C9.38865 10.5819 9.15847 10.7979 8.90318 10.9813V10.9843C8.90318 10.9729 8.90318 10.9423 8.90318 10.8943C8.89958 10.8061 8.93498 10.6075 8.93138 10.5733C8.73457 10.7017 8.67096 11.0905 8.63436 11.2051C8.1433 11.4798 7.6778 11.7979 7.24346 12.1556C7.07304 12.4214 8.41354 11.8514 8.56955 11.7818L8.57375 11.786C8.60316 11.819 8.60616 11.9324 8.69376 12.0344C8.77956 12.1372 8.89272 12.2137 9.02015 12.2549C9.14757 12.2961 9.28406 12.3004 9.41382 12.2672C9.84206 12.0897 10.2066 11.7868 10.4597 11.3984C10.4993 11.3383 10.5635 11.2945 10.6217 11.3383C10.7762 11.5889 10.9954 11.7932 11.2563 11.9297C11.5171 12.0663 11.8099 12.13 12.1038 12.1142C12.2724 11.9108 12.192 11.8106 12.1242 11.768C12.1038 11.7542 11.7642 11.621 11.7108 11.4896C11.6772 11.3654 11.7576 11.2579 11.9196 11.1763C12.3829 11.1326 12.841 11.0448 13.2877 10.9141C13.3053 10.7493 13.3567 10.59 13.4389 10.4461C13.4567 10.412 13.4832 10.3832 13.5157 10.3627C13.5166 10.3589 13.5166 10.355 13.5157 10.3513L13.4401 10.3063L11.9526 10.3015C11.9382 10.2954 11.9244 10.2882 11.9112 10.2799V10.2763V10.2697V10.2655C11.9254 10.2535 11.9416 10.2444 11.9592 10.2385C12.3144 10.1911 12.9457 10.0873 12.9883 9.48121C13.0003 9.40891 12.9963 9.33485 12.9765 9.26429C12.9566 9.19374 12.9215 9.12842 12.8735 9.07299C12.8256 9.01757 12.766 8.97339 12.699 8.94362C12.632 8.91384 12.5593 8.8992 12.4861 8.90072C12.4128 8.90225 12.3407 8.91991 12.2751 8.95245C12.2094 8.98498 12.1517 9.0316 12.1061 9.08897C12.0605 9.14635 12.0281 9.21307 12.0112 9.28439C11.9943 9.35571 11.9934 9.42988 12.0084 9.50161C11.9952 9.58382 12.0366 9.74163 11.9526 9.76023C11.406 9.81183 10.8083 10.1527 10.7891 10.3987H10.7687C10.7422 10.3839 10.7209 10.3614 10.7076 10.3342C10.6943 10.3069 10.6896 10.2762 10.6943 10.2463C10.6687 9.78851 10.5351 9.34332 10.3043 8.94717C10.2263 8.86976 10.1933 8.83916 10.1717 8.83496H10.1609ZM12.336 9.378C12.3768 9.3772 12.417 9.38802 12.4518 9.4092C12.4761 9.41957 12.4972 9.43609 12.5131 9.45715C12.529 9.4782 12.5391 9.50304 12.5425 9.52921V9.53341V9.53881V9.54721C12.5398 9.5507 12.5368 9.55391 12.5335 9.55682C12.5088 9.57158 12.4803 9.57857 12.4516 9.57685C12.4229 9.57514 12.3954 9.56481 12.3726 9.54721C12.3486 9.53644 12.3275 9.51982 12.3115 9.49886C12.2955 9.4779 12.2849 9.45327 12.2808 9.42721V9.4236C12.2818 9.41873 12.2837 9.41406 12.2862 9.4098V9.405C12.2881 9.40251 12.2903 9.40029 12.2928 9.3984C12.3037 9.38997 12.3169 9.38495 12.3306 9.384M10.9463 10.6399H10.9637C11.1689 10.6775 11.3764 10.7008 11.5848 10.7095C11.7576 10.7221 11.8446 10.8577 11.6826 10.9135C11.5206 10.9693 11.37 11.0113 11.3694 11.2411C11.3898 11.3557 11.3862 11.4152 11.3694 11.4434L11.3646 11.4494H11.3616C11.3593 11.4513 11.3567 11.4528 11.3538 11.4536H11.349C11.3082 11.4596 11.2536 11.423 11.2122 11.4026C11.1016 11.3391 11.0069 11.2514 10.9353 11.146C10.8637 11.0406 10.817 10.9202 10.7987 10.7941C10.7977 10.7732 10.801 10.7522 10.8084 10.7326C10.8158 10.713 10.8271 10.6951 10.8417 10.6799C10.8562 10.6648 10.8737 10.6529 10.893 10.6447C10.9124 10.6366 10.9332 10.6325 10.9541 10.6327" fill="white"/>
<path fill-rule="evenodd" clip-rule="evenodd" d="M6.1705 7.34427C6.34332 7.42588 6.66434 7.39048 6.65054 7.11386C6.65054 7.08926 6.64334 7.00765 6.64154 6.98545C6.60674 6.90384 6.51133 6.92544 6.48973 7.00825C6.48253 7.03585 6.50113 7.08025 6.47593 7.09406C6.46273 7.10906 6.40692 7.10066 6.40992 7.02385C6.40656 6.99973 6.39683 6.97695 6.38172 6.95785C6.37023 6.95081 6.3567 6.94785 6.34332 6.94944C6.32052 6.94944 6.32052 6.95605 6.30732 6.97705C6.30005 6.99631 6.29561 7.01652 6.29411 7.03705C6.29051 7.06405 6.28091 7.07305 6.26051 7.07725C6.24011 7.08145 6.24311 7.08025 6.22511 7.06885C6.20711 7.05745 6.20051 7.05145 6.20051 7.03165C6.20092 7.00879 6.19727 6.98603 6.18971 6.96445C6.17895 6.95229 6.16432 6.94423 6.1483 6.94164C6.0547 6.94164 6.0481 7.04845 6.0535 7.08926C6.0469 7.09646 6.04209 7.28787 6.1693 7.34127" fill="white"/>
<path fill-rule="evenodd" clip-rule="evenodd" d="M11.1933 9.46847C11.3655 9.54948 11.7723 9.50268 11.6733 9.23866C11.6733 9.21346 11.6673 9.13065 11.6643 9.11025C11.6301 9.02804 11.5347 9.04724 11.5131 9.13245C11.5065 9.15885 11.5251 9.20445 11.5005 9.21826C11.4861 9.23266 11.4309 9.22426 11.4333 9.14805C11.43 9.12369 11.4198 9.10078 11.4039 9.08205C11.393 9.07459 11.3798 9.07119 11.3667 9.07244C11.3433 9.07244 11.3433 9.07965 11.3313 9.10065C11.323 9.1209 11.3181 9.1424 11.3169 9.16425C11.3133 9.19065 11.3037 9.20145 11.2839 9.20445C11.2641 9.20745 11.2671 9.20445 11.2479 9.19665C11.2287 9.18885 11.2239 9.17925 11.2239 9.15825C11.2244 9.13557 11.2207 9.11299 11.2131 9.09165C11.2024 9.07898 11.1875 9.07065 11.1711 9.06824C11.0781 9.06824 11.0721 9.17625 11.0769 9.21586C11.0703 9.22306 11.0661 9.41507 11.1933 9.46847Z" fill="white"/>
<path fill-rule="evenodd" clip-rule="evenodd" d="M14.1231 8.58721C14.2941 8.67002 14.6158 8.63402 14.6032 8.3592C14.6032 8.334 14.5972 8.25239 14.5948 8.22959C14.5588 8.14798 14.464 8.16958 14.4436 8.25239C14.4364 8.28059 14.455 8.32499 14.4292 8.3382C14.4154 8.352 14.3607 8.3436 14.3637 8.26739C14.3603 8.24342 14.3501 8.22093 14.3343 8.20259C14.3235 8.1945 14.3099 8.19105 14.2965 8.19299C14.2725 8.19299 14.2725 8.20019 14.2599 8.21999C14.2531 8.2406 14.2486 8.26195 14.2467 8.28359C14.2437 8.31119 14.2347 8.32079 14.2137 8.325C14.1927 8.3292 14.1963 8.328 14.1789 8.31539C14.1615 8.30279 14.1543 8.29979 14.1543 8.28059C14.1542 8.25678 14.1506 8.23312 14.1435 8.21039C14.132 8.1993 14.1177 8.19162 14.1021 8.18818C14.0079 8.18818 14.0013 8.29559 14.0067 8.3358C13.9995 8.3436 13.9965 8.53501 14.1237 8.58721" fill="white"/>
<path fill-rule="evenodd" clip-rule="evenodd" d="M15.6399 10.7962C15.538 10.9426 15.4754 11.1128 15.4581 11.2904C15.4407 11.4679 15.4693 11.647 15.5409 11.8104C15.6093 11.9903 15.7404 12.1394 15.9099 12.2305C15.9371 12.255 15.9692 12.2736 16.0041 12.2849C16.039 12.2962 16.0758 12.3 16.1123 12.296C16.1487 12.292 16.1839 12.2804 16.2155 12.2619C16.2472 12.2433 16.2745 12.2183 16.2958 12.1885C16.4704 12.0084 16.4758 11.5415 16.5556 11.4497C16.5615 11.4207 16.5757 11.3939 16.5964 11.3727C16.6171 11.3514 16.6434 11.3366 16.6723 11.3299C16.7012 11.3232 16.7314 11.3249 16.7593 11.3349C16.7872 11.3449 16.8117 11.3626 16.8298 11.3861C16.8941 11.4767 16.9796 11.5503 17.0788 11.6003C17.1506 11.6727 17.2462 11.7165 17.3479 11.7236C17.4496 11.7306 17.5504 11.7005 17.6315 11.6387C17.7702 11.5606 17.8749 11.4335 17.9249 11.2823C17.9874 10.5838 17.9944 9.88145 17.9459 9.18186C17.9405 9.13265 17.7761 8.31888 17.7761 8.31048C17.7761 8.30208 17.7551 7.8952 17.7365 7.79858C17.7365 7.76017 17.7245 7.74817 17.7653 7.75297C17.787 7.77539 17.8131 7.79298 17.8421 7.80458C17.8859 7.81298 17.9249 7.73797 17.8985 7.66835C17.7617 7.4171 17.6255 7.16605 17.4899 6.9152C17.4575 6.8828 17.4149 6.84799 17.3627 6.9242C17.3311 6.95224 17.3057 6.98649 17.2881 7.0248C17.2704 7.06312 17.2609 7.10467 17.26 7.14685C17.2726 7.32689 17.3038 7.50692 17.3164 7.68696C17.3705 7.99122 17.4263 8.29728 17.4797 8.60334C17.5301 9.25627 17.5445 9.85399 17.5955 10.5069C17.5877 10.7836 17.5031 11.1521 17.4215 11.1863C17.4215 11.1863 17.2984 11.2565 17.2168 11.1779C17.1031 11.0559 17.0026 10.9224 16.9168 10.7794C16.9001 10.7564 16.8782 10.7378 16.8529 10.7249C16.8276 10.712 16.7997 10.7053 16.7713 10.7053C16.7429 10.7053 16.715 10.712 16.6897 10.7249C16.6644 10.7378 16.6425 10.7564 16.6258 10.7794C16.4119 11.0763 16.2396 11.4012 16.114 11.745C16.0714 11.8122 15.9525 11.8692 15.8205 11.7396C15.6482 11.458 15.5842 11.1233 15.6405 10.798" fill="white"/>
<path fill-rule="evenodd" clip-rule="evenodd" d="M14.2006 6.9859C14.2816 7.04565 14.3451 7.12593 14.3847 7.21844C14.4242 7.31094 14.4384 7.41234 14.4257 7.51214C14.3957 7.69935 14.3147 7.90277 14.2553 7.87637C14.1958 7.84996 14.2997 7.68975 14.2378 7.51634C14.2042 7.40593 13.9978 7.20192 14.0164 7.14251C13.9726 7.0171 14.1052 6.9625 14.2006 6.9841" fill="white"/>
<path fill-rule="evenodd" clip-rule="evenodd" d="M16.1343 10.9808C16.1474 10.707 16.1369 10.4326 16.1031 10.1606C16.0929 9.94157 15.8547 8.16423 15.8067 8.00042C15.7467 7.6866 16.0389 7.95842 16.0065 7.7754C15.9063 7.54559 15.6561 7.21016 15.5781 7.01095C15.5307 6.92574 15.5505 6.84893 15.4449 6.98874C15.3537 7.23801 15.3212 7.50495 15.35 7.7688C15.6463 9.00009 15.8043 10.2606 15.8211 11.5269C15.9411 11.5269 16.0779 11.2533 16.1361 10.9838" fill="white"/>
<path fill-rule="evenodd" clip-rule="evenodd" d="M18.7572 7.4306C18.897 7.4996 18.9786 7.88903 18.9642 8.00064C18.9348 8.20406 18.8616 8.42067 18.8082 8.39427C18.7548 8.36787 18.819 8.09425 18.7914 8.00784C18.7602 7.88783 18.57 7.66702 18.5904 7.60161C18.5816 7.57815 18.5797 7.55267 18.5849 7.52816C18.59 7.50365 18.6021 7.48111 18.6195 7.46317C18.637 7.44524 18.6593 7.43265 18.6836 7.42689C18.708 7.42112 18.7335 7.42241 18.7572 7.4306Z" fill="white"/>
<path fill-rule="evenodd" clip-rule="evenodd" d="M8.35731 10.2756C8.49112 10.3272 8.57033 10.6135 8.55473 10.6957C8.52892 10.8451 8.45692 11.0071 8.40651 10.9855C8.35611 10.9639 8.41732 10.7641 8.39031 10.7011C8.38011 10.548 8.1941 10.4682 8.1983 10.401C8.16229 10.281 8.2751 10.2582 8.35731 10.2756Z" fill="white"/>
<path fill-rule="evenodd" clip-rule="evenodd" d="M4.77871 6.89345C4.97553 6.95345 4.98753 7.24208 4.97312 7.32788C4.94612 7.48209 4.87712 7.64891 4.82611 7.6279C4.77511 7.6069 4.82611 7.39809 4.79731 7.33268C4.76911 7.24028 4.6023 7.07406 4.6209 7.02366C4.5825 6.91985 4.6977 6.87425 4.77871 6.89345Z" fill="white"/>
<path fill-rule="evenodd" clip-rule="evenodd" d="M8.68038 8.26097C8.60519 8.30964 8.55136 8.38513 8.52984 8.47207C8.50833 8.55902 8.52075 8.65089 8.56457 8.72901C8.59298 8.76525 8.63163 8.79212 8.67549 8.80614C8.71936 8.82016 8.76643 8.82067 8.81059 8.80762C8.9594 8.82622 9.04701 8.52919 9.04701 8.52919C9.04701 8.52919 9.05121 8.44579 8.87479 8.6036C8.80099 8.6168 8.79199 8.5904 8.77279 8.5484C8.75513 8.47031 8.76334 8.38859 8.79619 8.31558C8.82259 8.24297 8.76559 8.20997 8.68038 8.26097Z" fill="white"/>
<path fill-rule="evenodd" clip-rule="evenodd" d="M9.81509 6.78066C9.75102 6.82516 9.69718 6.88281 9.65713 6.94975C9.61709 7.01669 9.59178 7.0914 9.58287 7.16889C9.57747 7.2715 9.55827 7.2715 9.62547 7.3363C9.67467 7.40531 9.72268 7.39631 9.81989 7.3489C9.8443 7.33326 9.86525 7.31279 9.88145 7.28874C9.89766 7.2647 9.90876 7.23759 9.91409 7.20909C9.9381 7.09448 9.79408 7.2649 9.77248 7.13649C9.74068 7.01648 9.83249 6.96728 9.92309 6.85147C9.92309 6.77226 9.92309 6.71706 9.81509 6.78066Z" fill="white"/>
<path fill-rule="evenodd" clip-rule="evenodd" d="M10.732 6.94262C10.6957 7.09095 10.674 7.24249 10.6672 7.39505C10.6408 7.50666 10.7872 7.55466 10.8508 7.40945C10.916 7.2538 10.9514 7.08731 10.9552 6.91861C10.9252 6.747 10.8088 6.753 10.732 6.94262Z" fill="white"/>
<path fill-rule="evenodd" clip-rule="evenodd" d="M16.5042 9.8778C16.5252 9.85919 17.3184 9.29515 17.3184 9.29515C17.3988 9.26755 17.3784 9.58617 17.3442 9.58257C17.0983 9.82229 16.8144 10.0198 16.5042 10.167C16.4664 10.1958 16.425 9.9486 16.5042 9.8778Z" fill="white"/>
<path fill-rule="evenodd" clip-rule="evenodd" d="M17.2275 9.87547C17.368 9.94448 17.4232 10.3525 17.4076 10.4647C17.413 10.6801 17.2731 10.8535 17.2197 10.8247C17.1663 10.7959 17.2251 10.5571 17.1969 10.4701C17.1657 10.3501 17.0481 10.1239 17.0679 10.0579C17.0588 10.0347 17.0563 10.0095 17.0607 9.98495C17.065 9.96044 17.0761 9.9376 17.0926 9.91897C17.1091 9.90035 17.1305 9.88665 17.1543 9.87939C17.1781 9.87214 17.2034 9.87161 17.2275 9.87787" fill="white"/>
<path fill-rule="evenodd" clip-rule="evenodd" d="M12.5084 11.637C12.574 11.5601 12.6509 11.4936 12.7364 11.4396C12.7616 11.43 12.7889 11.4273 12.8155 11.4318C12.8421 11.4364 12.867 11.448 12.8876 11.4654C12.9014 11.5446 12.8384 11.6172 12.8582 11.7222C12.8756 11.7643 12.8876 11.8117 12.9656 11.7937C13.0724 11.7156 13.2025 11.6761 13.3346 11.6814C13.43 11.6868 13.4348 11.8513 13.3724 11.8531C13.1993 11.8947 13.0308 11.9538 12.8696 12.0295C12.8469 12.0439 12.8199 12.0499 12.7932 12.0463C12.7666 12.0428 12.742 12.0301 12.7238 12.0103C12.7089 11.9886 12.6998 11.9635 12.6974 11.9374C12.695 11.9112 12.6993 11.8849 12.71 11.8609C12.716 11.7775 12.6824 11.7318 12.6122 11.7408C12.56 11.7691 12.5138 11.7877 12.488 11.727C12.4772 11.6826 12.4736 11.6616 12.5084 11.637Z" fill="white"/>
<path fill-rule="evenodd" clip-rule="evenodd" d="M18.0632 11.8569C18.0741 11.8664 18.0829 11.8781 18.0889 11.8912C18.0949 11.9044 18.098 11.9187 18.098 11.9331C18.098 11.9476 18.0949 11.9619 18.0889 11.975C18.0829 11.9882 18.0741 11.9999 18.0632 12.0093C18.008 12.0615 17.9678 12.0891 17.912 12.1401C17.8868 12.1858 17.8688 12.2536 17.9492 12.274C18.098 12.316 18.4412 12.0939 18.4412 12.0891C18.4583 12.075 18.4706 12.0558 18.4763 12.0342C18.482 12.0127 18.4809 11.99 18.473 11.9691C18.4412 11.9331 18.368 11.9541 18.3182 11.9481C18.2948 11.9481 18.2198 11.9361 18.2582 11.8683C18.2836 11.8313 18.3038 11.7909 18.3182 11.7483C18.341 11.6979 18.3224 11.6625 18.2384 11.6355C18.1674 11.6241 18.0951 11.6241 18.0242 11.6355C17.9738 11.6475 17.9564 11.6697 17.9474 11.7309C17.9504 11.8251 18.0074 11.8191 18.0674 11.8575" fill="white"/>
</g>
</g>
<defs>
<clipPath id="clip0_8918_95341">
<rect width="24" height="24.0018" fill="white"/>
</clipPath>
</defs>
</svg>
