<svg width="32" height="32" viewBox="0 0 32 32" fill="none" xmlns="http://www.w3.org/2000/svg">
<g clip-path="url(#clip0_8918_95379)">
<mask id="mask0_8918_95379" style="mask-type:luminance" maskUnits="userSpaceOnUse" x="0" y="0" width="33" height="32">
<path d="M15.6464 0C11.806 0.080008 9.83218 0.381638 8.0056 1.0105C6.23734 1.61724 4.64557 2.64984 3.37074 4.0172C2.31221 5.24601 1.50198 6.66839 0.984898 8.20562C0.375856 10.132 0.052387 12.1372 0.0248018 14.1574C-6.52736e-07 14.9519 0 15.0623 0 16.0016C0 16.9409 -6.52736e-07 17.0505 0.0248018 17.8418C0.0524379 19.8625 0.375904 21.8682 0.984898 23.7952C1.50216 25.3321 2.31238 26.7542 3.37074 27.9828C4.64557 29.3502 6.23734 30.3828 8.0056 30.9895C9.83218 31.6184 11.8036 31.9192 15.6464 32H16.3544C20.1948 31.92 22.1694 31.6184 23.996 30.9895C25.764 30.3828 27.3555 29.3502 28.6301 27.9828C29.6884 26.7542 30.4986 25.3321 31.0159 23.7952C31.6249 21.8682 31.9484 19.8625 31.976 17.8418C32.0016 17.0473 32.0016 16.9385 32.0016 16.0016C32.0016 15.0647 32.0016 14.9519 31.976 14.1574C31.9484 12.1372 31.6249 10.132 31.0159 8.20562C30.4988 6.66839 29.6886 5.24601 28.6301 4.0172C27.3555 2.64985 25.764 1.61724 23.996 1.0105C22.1694 0.381638 20.1996 0.080008 16.3544 0H15.6464Z" fill="white"/>
</mask>
<g mask="url(#mask0_8918_95379)">
<path d="M40.4439 0H-8.44336V32.0032H40.4439V0Z" fill="white"/>
<path d="M40.4447 0H28.2227V32.0032H40.4447V0Z" fill="#EE312D"/>
<path d="M3.77866 0H-8.44336V32.0032H3.77866V0Z" fill="#EE312D"/>
<path d="M16.4583 26.3308L16.2295 21.9391C16.2238 21.8111 16.2692 21.6861 16.3555 21.5914C16.4419 21.4968 16.5623 21.4403 16.6903 21.4343C16.7251 21.4328 16.76 21.435 16.7943 21.4407L21.1684 22.2095L20.5787 20.5806C20.5543 20.5161 20.551 20.4455 20.5691 20.379C20.5872 20.3125 20.6258 20.2534 20.6795 20.2101L25.472 16.333L24.3927 15.8289C24.3202 15.7945 24.2627 15.7351 24.2308 15.6615C24.1988 15.5879 24.1947 15.5053 24.2191 15.4289L25.1656 12.519L22.4061 13.103C22.3313 13.1187 22.2535 13.1081 22.1857 13.0729C22.1179 13.0378 22.0643 12.9803 22.034 12.9102L21.4996 11.6541L19.3458 13.9631C19.2965 14.015 19.2318 14.0495 19.1613 14.0615C19.0908 14.0736 19.0183 14.0625 18.9546 14.0299C18.891 13.9973 18.8396 13.9449 18.8081 13.8807C18.7766 13.8165 18.7668 13.7438 18.7801 13.6735L19.8202 8.32016L18.1553 9.28025C18.0793 9.32436 17.989 9.33666 17.904 9.31448C17.8191 9.2923 17.7463 9.23743 17.7016 9.16184L17.692 9.14264L15.999 5.82471L14.3093 9.14264C14.27 9.2211 14.2011 9.28076 14.1179 9.30851C14.0346 9.33626 13.9438 9.32984 13.8652 9.29065L13.8468 9.28105L12.1811 8.32096L13.2212 13.6743C13.2345 13.7446 13.2246 13.8173 13.1932 13.8815C13.1617 13.9457 13.1103 13.9981 13.0467 14.0307C12.983 14.0633 12.9105 14.0744 12.84 14.0623C12.7695 14.0503 12.7048 14.0158 12.6555 13.9639L10.5017 11.6549L9.96724 12.911C9.93723 12.9811 9.88382 13.0387 9.81613 13.0739C9.74843 13.109 9.67064 13.1196 9.596 13.1038L6.83573 12.5198L7.78302 15.4297C7.80707 15.5061 7.80275 15.5886 7.77085 15.6621C7.73896 15.7356 7.68164 15.7951 7.6094 15.8297L6.5293 16.3338L11.3186 20.2101C11.3723 20.2534 11.4112 20.3124 11.4295 20.3788C11.4479 20.4453 11.4449 20.5159 11.421 20.5806L10.8297 22.2095L15.2038 21.4407C15.2664 21.4297 15.3307 21.4313 15.3927 21.4452C15.4548 21.4591 15.5135 21.4852 15.5656 21.5218C15.6176 21.5584 15.6619 21.6049 15.6959 21.6587C15.7299 21.7125 15.753 21.7724 15.7638 21.8351C15.7696 21.8695 15.7715 21.9043 15.7694 21.9391L15.5414 26.3308H16.4583Z" fill="#EE312D"/>
<path d="M16.3428 0.5L17.6895 0.540039C20.6383 0.658802 22.2947 0.953674 23.833 1.48242C25.5204 2.06323 27.0393 3.04979 28.2559 4.35547C29.1415 5.38546 29.8456 6.55693 30.3398 7.81934L30.5391 8.36719C31.1316 10.2445 31.4458 12.1985 31.4727 14.167L31.4736 14.1768C31.4998 14.9638 31.499 15.0712 31.499 16.0049C31.499 16.9383 31.4998 17.0413 31.4736 17.8281H31.4727V17.8379C31.4459 19.8066 31.1316 21.7611 30.5391 23.6387C30.0438 25.1106 29.2682 26.4728 28.2559 27.6504C27.0383 28.9552 25.519 29.9411 23.8311 30.5205H23.8301C22.0746 31.1247 20.1616 31.4234 16.3428 31.5029H15.6553C11.8351 31.4242 9.9225 31.1247 8.16699 30.5205H8.16602C6.478 29.9413 4.95843 28.9556 3.74121 27.6504C2.85488 26.6198 2.15005 25.4478 1.65527 24.1846L1.45508 23.6357C0.86293 21.758 0.548649 19.8037 0.521484 17.835V17.8252L0.499023 16.9707C0.49586 16.7298 0.496094 16.4698 0.496094 16.002C0.496094 15.0661 0.495715 14.9614 0.523438 14.1748L0.524414 14.1641C0.551662 12.1956 0.865913 10.2417 1.45801 8.36426C1.95508 6.88982 2.73296 5.52581 3.74805 4.34668C4.96413 3.04478 6.48098 2.06091 8.16602 1.48242H8.16699C9.70296 0.953821 11.3601 0.658794 14.3086 0.540039L15.6553 0.5H16.3428Z" stroke="#F6F6F6"/>
</g>
</g>
<defs>
<clipPath id="clip0_8918_95379">
<rect width="32.0016" height="32" fill="white"/>
</clipPath>
</defs>
</svg>
