<svg width="24" height="24" viewBox="0 0 24 24" fill="none" xmlns="http://www.w3.org/2000/svg">
<g clip-path="url(#clip0_8918_95327)">
<mask id="mask0_8918_95327" style="mask-type:luminance" maskUnits="userSpaceOnUse" x="0" y="0" width="24" height="24">
<path d="M11.9997 0H11.7345C8.85474 0.060003 7.37525 0.285014 6.00495 0.756638C4.6789 1.2118 3.48527 1.98642 2.52941 3.01215C1.73574 3.93365 1.128 5.00013 0.739745 6.15271C0.282724 7.59755 0.0401574 9.10165 0.0197985 10.6169C-4.47001e-09 11.2128 0 11.2956 0 12C0 12.7044 -4.47001e-09 12.7872 0.0197985 13.3801C0.0400642 14.8956 0.282632 16.3999 0.739745 17.8449C1.12779 18.9976 1.73556 20.0641 2.52941 20.9854C3.48494 22.0113 4.67841 22.7859 6.00435 23.241C7.37465 23.7126 8.85294 23.9388 11.7339 23.9982H12.2661C15.1459 23.9382 16.6254 23.7126 17.9956 23.241C19.3216 22.7859 20.5151 22.0113 21.4706 20.9854C22.2644 20.0641 22.8722 18.9976 23.2603 17.8449C23.7168 16.3997 23.9593 14.8955 23.9802 13.3801C24 12.7848 24 12.7026 24 12C24 11.2974 24 11.2128 23.9802 10.6169C23.9592 9.1017 23.7167 7.59769 23.2603 6.15271C22.872 5.00013 22.2643 3.93365 21.4706 3.01215C20.5149 1.9865 19.3215 1.21188 17.9956 0.756638C16.6254 0.285014 15.1465 0.0588029 12.2661 0H11.9997Z" fill="white"/>
</mask>
<g mask="url(#mask0_8918_95327)">
<path d="M30.6675 -0.408203H-6.50391V24.3574H30.6675V-0.408203Z" fill="#003399"/>
<path d="M12.0814 2.37842L12.3994 3.35454H13.4265L12.595 3.9587L12.913 4.93423L12.0814 4.33187L11.2499 4.93183L11.5679 3.9563L10.7363 3.35454H11.7635L12.0814 2.37842Z" fill="#FFCC00"/>
<path d="M12.0814 19.0137L12.3994 19.9928H13.4265L12.595 20.5928L12.913 21.5689L12.0814 20.9659L11.2499 21.5689L11.5679 20.5928L10.7363 19.9928H11.7635L12.0814 19.0137Z" fill="#FFCC00"/>
<path d="M16.2435 3.4917L16.5609 4.46783H17.5886L16.7571 5.07198L17.0751 6.04871L16.2435 5.44575L15.4126 6.04871L15.73 5.07198L14.8984 4.46843H15.9256L16.2435 3.4917Z" fill="#FFCC00"/>
<path d="M20.4056 10.6958L20.723 11.6719H21.7507L20.9192 12.2755L21.2372 13.2528L20.4056 12.6487L19.5741 13.2528L19.8921 12.2755L19.0605 11.6719H20.0883L20.4056 10.6958Z" fill="#FFCC00"/>
<path d="M19.2885 14.8545L19.6058 15.8312H20.6336L19.8026 16.4348L20.12 17.4109L19.2885 16.8073L18.4575 17.4121L18.7749 16.436L17.9434 15.8312H18.9711L19.2885 14.8545Z" fill="#FFCC00"/>
<path d="M16.2435 17.8994L16.5609 18.8755H17.5886L16.7571 19.4791L17.0751 20.4558L16.2435 19.8523L15.4126 20.4558L15.73 19.4791L14.8984 18.8755H15.9256L16.2435 17.8994Z" fill="#FFCC00"/>
<path d="M7.91932 17.8994L8.2373 18.8755H9.26442L8.43408 19.4791L8.75086 20.4558L7.91992 19.8523L7.08838 20.4558L7.40636 19.4791L6.57422 18.8755H7.60194L7.91932 17.8994Z" fill="#FFCC00"/>
<path d="M4.87304 14.8545L5.19042 15.8312H6.21814L5.3872 16.4348L5.70398 17.4109L4.87304 16.8073L4.0415 17.4121L4.35948 16.436L3.52734 15.8324H4.55567L4.87304 14.8545Z" fill="#FFCC00"/>
<path d="M3.75856 10.6958L4.07594 11.6719H5.10366L4.27272 12.2755L4.5895 13.2528L3.75856 12.6487L2.92702 13.2528L3.245 12.2755L2.41406 11.6719H3.44119L3.75856 10.6958Z" fill="#FFCC00"/>
<path d="M4.87304 6.53662L5.19042 7.51335H6.21814L5.3872 8.1175L5.70398 9.09303L4.87304 8.49007L4.0415 9.09303L4.35948 8.1175L3.52734 7.51215H4.55567L4.87304 6.53662Z" fill="#FFCC00"/>
<path d="M7.91932 3.4917L8.2373 4.46783H9.26442L8.43408 5.07198L8.75086 6.04871L7.91932 5.44575L7.08778 6.04871L7.40576 5.07198L6.57422 4.46843H7.60194L7.91932 3.4917Z" fill="#FFCC00"/>
<path d="M19.2885 6.53662L19.6058 7.51335H20.6336L19.8026 8.1175L20.12 9.09303L19.2885 8.49007L18.4575 9.09303L18.7749 8.1175L17.9434 7.51215H18.9711L19.2885 6.53662Z" fill="#FFCC00"/>
</g>
</g>
<defs>
<clipPath id="clip0_8918_95327">
<rect width="24" height="23.9982" fill="white"/>
</clipPath>
</defs>
</svg>
