<svg width="32" height="32" viewBox="0 0 32 32" fill="none" xmlns="http://www.w3.org/2000/svg">
<g clip-path="url(#clip0_8918_95404)">
<mask id="mask0_8918_95404" style="mask-type:luminance" maskUnits="userSpaceOnUse" x="0" y="0" width="32" height="32">
<path d="M15.9988 0H15.6436C11.8039 0.080004 9.83206 0.380819 8.0042 1.00885C6.23684 1.61664 4.646 2.64967 3.37175 4.017C2.31313 5.24525 1.503 6.66736 0.986326 8.20441C0.377401 10.1307 0.0539899 12.1358 0.026398 14.1559C-5.96002e-09 14.9503 0 15.0608 0 16C0 16.9392 -5.96002e-09 17.0497 0.026398 17.8401C0.0538568 19.8607 0.377269 21.8664 0.986326 23.7932C1.503 25.3302 2.31313 26.7524 3.37175 27.9806C4.64584 29.3479 6.23675 30.3807 8.0042 30.9879C9.83206 31.616 11.8031 31.9184 15.6436 31.9976H16.3532C20.1929 31.9176 22.1655 31.616 23.9926 30.9879C25.7604 30.381 27.3516 29.3481 28.6259 27.9806C29.6841 26.7529 30.4949 25.3321 31.0137 23.7964C31.6224 21.8695 31.9458 19.8639 31.9736 17.8433C32 17.0497 32 16.94 32 16.0032C32 15.0664 32 14.9535 31.9736 14.1591C31.9457 12.1391 31.6223 10.134 31.0137 8.20761C30.4958 6.67094 29.6855 5.249 28.6275 4.0202C27.353 2.65269 25.7619 1.61963 23.9942 1.01205C22.1655 0.380819 20.1945 0.079204 16.3532 0H15.9988Z" fill="white"/>
</mask>
<g mask="url(#mask0_8918_95404)">
<path d="M40.4197 21.3638H-8.42383V32.2115H40.4197V21.3638Z" fill="black"/>
<path d="M40.4197 10.5156H-8.42383V21.3634H40.4197V10.5156Z" fill="white"/>
<path d="M40.4197 -0.331055H-8.42383V10.5167H40.4197V-0.331055Z" fill="#CE1126"/>
<path d="M20.5938 13.7846C20.5562 13.7326 20.5786 13.7302 20.7322 13.7726C20.8366 13.8146 20.9505 13.8271 21.0615 13.8087C21.1725 13.7904 21.2764 13.7419 21.3617 13.6686L21.5169 13.5374L21.7001 13.631C21.7734 13.6747 21.8552 13.702 21.9401 13.711C22.0566 13.6443 22.1426 13.535 22.1801 13.4062C22.1737 13.3166 22.2505 13.339 22.2865 13.4382C22.3043 13.4831 22.3127 13.5312 22.3111 13.5795C22.3094 13.6278 22.2979 13.6753 22.2771 13.7189C22.2563 13.7626 22.2267 13.8014 22.1902 13.8331C22.1537 13.8648 22.111 13.8886 22.0649 13.903C21.9575 13.927 21.8452 13.9154 21.7449 13.8702C21.5745 13.8102 21.5449 13.811 21.4593 13.8766C21.3582 13.9491 21.2385 13.991 21.1142 13.9974C20.99 14.0038 20.8666 13.9743 20.7586 13.9126C20.6963 13.881 20.6402 13.8384 20.593 13.787M21.5457 13.1054C21.5617 12.8509 21.5369 12.7757 21.4273 12.7413C21.3657 12.7221 21.3417 12.7357 21.3193 12.8045C21.3159 12.974 21.3576 13.1413 21.4401 13.2894C21.5025 13.3694 21.5329 13.3134 21.5457 13.1054ZM14.863 15.3319C14.4631 15.5607 13.8663 15.5935 13.8671 16.2223C12.9984 16.2623 11.9704 16.2927 11.0433 16.2751C11.3561 15.8751 13.0696 14.2062 13.5391 13.7374C13.6191 13.691 13.7367 13.7094 13.8287 13.6686C13.6935 13.599 13.3951 13.2118 13.4175 13.0566C12.6648 13.7862 11.8049 14.5622 11.6825 14.6846C10.4554 15.9095 10.4778 15.8951 10.2954 16.0743C10.2954 16.3143 10.2994 16.6415 10.2994 16.7991H14.5351C14.7446 16.7991 14.4879 16.0655 14.7574 16.0655C15.0398 16.0655 14.9454 16.6383 14.9454 16.9951C13.1392 16.9951 11.2313 17.0079 9.46183 17.0079V15.8687C9.24475 16.103 8.97529 16.2826 8.67549 16.3927C8.89547 16.4351 8.90987 16.7735 8.88507 17.0608C8.14113 17.08 7.13881 17.1736 7.41718 16.3279C7.16192 16.5221 6.87581 16.6719 6.57085 16.7711C6.93551 17.2405 7.10719 17.8315 7.05081 18.4232C6.90602 18.768 6.50365 18.8544 6.26367 19.1041C6.41892 19.1517 6.58247 19.1659 6.74361 19.146C6.90476 19.126 7.05988 19.0722 7.19882 18.9882C7.33775 18.9041 7.45738 18.7917 7.54988 18.6582C7.64237 18.5247 7.70565 18.3732 7.73556 18.2136H15.655C15.655 17.5792 15.655 16.7007 15.655 16.1175C15.591 15.6303 15.0742 15.6551 14.8686 15.3319M25.7366 18.212C25.7486 17.812 25.4222 17.3096 25.3702 16.7975C25.1775 16.9199 25.0927 17.1488 24.6879 17.06V13.8598C24.7231 13.6998 24.8567 13.643 24.8983 13.4934C24.5815 13.3764 24.2818 13.2177 24.0071 13.0214V18.208L25.7366 18.212ZM23.4032 13.2094V18.2056H19.4291C19.3699 17.1656 19.3603 16.0951 20.5698 16.3255V15.9023C20.533 15.8303 20.4666 15.9199 20.4506 15.8263C20.6426 15.6343 20.7082 15.5863 21.2281 15.1311C21.2281 15.6791 21.2377 16.9711 21.2377 16.9711H21.6961C21.6961 16.9711 21.7001 14.8062 21.7001 14.731C21.7001 14.731 22.3297 14.2006 22.3297 14.1798V16.9687H22.7744C22.7744 15.9063 22.7608 14.8286 22.7608 13.8406C22.9961 13.6523 23.209 13.4375 23.3952 13.2006M20.5618 16.8479C20.513 16.6703 20.1314 16.7383 20.2002 16.9375C20.285 17.0656 20.5754 17.0632 20.5618 16.8479ZM8.69549 18.5592C8.64802 18.5592 8.60163 18.5733 8.56216 18.5997C8.5227 18.626 8.49194 18.6635 8.47378 18.7074C8.45561 18.7512 8.45086 18.7995 8.46012 18.8461C8.46938 18.8926 8.49223 18.9354 8.5258 18.969C8.55936 19.0025 8.60212 19.0254 8.64867 19.0346C8.69522 19.0439 8.74347 19.0391 8.78733 19.021C8.83118 19.0028 8.86866 18.9721 8.89503 18.9326C8.9214 18.8931 8.93547 18.8467 8.93547 18.7992C8.93547 18.7356 8.91019 18.6745 8.86518 18.6295C8.82018 18.5845 8.75914 18.5592 8.69549 18.5592ZM16.8669 17.0656V13.8654C16.9013 13.7054 17.0349 13.6486 17.0773 13.499C16.7603 13.382 16.4603 13.2233 16.1853 13.027V18.2144H17.9156C17.9268 17.8144 17.6012 17.3112 17.5484 16.7999C17.3564 16.9215 17.2708 17.1504 16.8669 17.0616" fill="#007A3D"/>
</g>
</g>
<defs>
<clipPath id="clip0_8918_95404">
<rect width="32" height="31.9976" fill="white"/>
</clipPath>
</defs>
</svg>
