<svg width="24" height="24" viewBox="0 0 24 24" fill="none" xmlns="http://www.w3.org/2000/svg">
<g clip-path="url(#clip0_8918_95346)">
<mask id="mask0_8918_95346" style="mask-type:luminance" maskUnits="userSpaceOnUse" x="0" y="0" width="24" height="24">
<path d="M12.0009 0H11.7352C8.85581 0.06 7.37654 0.2868 6.00585 0.759C4.68032 1.2135 3.48721 1.98773 2.53203 3.0132C1.73701 3.93434 1.12829 5.00106 0.739633 6.1542C0.282975 7.59884 0.0404512 9.10262 0.019795 10.6176C-5.76545e-07 11.2134 0 11.2962 0 12.0012C0 12.7062 -5.76545e-07 12.7872 0.019795 13.3812C0.0403878 14.8968 0.282911 16.4012 0.739633 17.8464C1.12765 18.9992 1.73532 20.0658 2.52903 20.9874C3.48437 22.0127 4.67743 22.7869 6.00285 23.2416C7.37354 23.7138 8.85161 23.9406 11.7322 23.9994H12.2642C15.1436 23.9394 16.6229 23.7138 17.993 23.2416C19.3186 22.787 20.5119 22.0128 21.4674 20.9874C22.2619 20.0659 22.8706 18.9993 23.2598 17.8464C23.7162 16.4013 23.9587 14.8972 23.9796 13.3818C24 12.786 24 12.7038 24 12.0018C24 11.2998 24 11.214 23.9796 10.6182C23.9587 9.10324 23.7162 7.5995 23.2598 6.1548C22.8718 5.002 22.2641 3.93534 21.4704 3.0138C20.5151 1.98819 19.3217 1.21394 17.996 0.7596C16.6259 0.2874 15.1472 0.0606 12.2672 0.000599957L12.0009 0Z" fill="white"/>
</mask>
<g mask="url(#mask0_8918_95346)">
<path d="M42.4278 22.8838H-1.19922V24.6988H42.4278V22.8838Z" fill="white"/>
<path d="M42.0272 0.111328H-3.76953V2.02053H42.0272V0.111328Z" fill="#D80031"/>
<path d="M42.0272 2.02051H-3.76953V3.92671H42.0272V2.02051Z" fill="white"/>
<path d="M42.0272 3.92676H-3.76953V5.83536H42.0272V3.92676Z" fill="#D80031"/>
<path d="M42.0272 5.83545H-3.76953V7.74165H42.0272V5.83545Z" fill="white"/>
<path d="M42.0272 7.7417H-3.76953V9.6491H42.0272V7.7417Z" fill="#D80031"/>
<path d="M42.0272 9.64893H-3.76953V11.5563H42.0272V9.64893Z" fill="white"/>
<path d="M42.0272 11.5566H-3.76953V13.4628H42.0272V11.5566Z" fill="#D80031"/>
<path d="M42.0272 13.4619H-3.76953V15.3705H42.0272V13.4619Z" fill="white"/>
<path d="M42.0272 15.3716H-3.76953V17.2766H42.0272V15.3716Z" fill="#D80031"/>
<path d="M42.0272 17.2759H-3.76953V19.1845H42.0272V17.2759Z" fill="white"/>
<path d="M42.0272 19.1846H-3.76953V21.092H42.0272V19.1846Z" fill="#D80031"/>
<path d="M42.0272 21.0918H-3.76953V22.9992H42.0272V21.0918Z" fill="white"/>
<path d="M42.0272 22.999H-3.76953V24.9064H42.0272V22.999Z" fill="#D80031"/>
<path d="M13.8998 -3.99365H-12.8164V11.2661H13.8998V-3.99365Z" fill="#2530A9"/>
<path fill-rule="evenodd" clip-rule="evenodd" d="M5.09026 7.27067C5.09078 6.75017 5.22996 6.2392 5.49346 5.79036C5.75697 5.34151 6.13529 4.97101 6.58949 4.71697C7.04369 4.46293 7.55736 4.33453 8.07765 4.34499C8.59793 4.35545 9.10603 4.50438 9.54966 4.77647C9.06842 4.34649 8.47307 4.06499 7.83543 3.96591C7.1978 3.86683 6.54512 3.95442 5.95614 4.2181C5.36717 4.48179 4.86706 4.9103 4.51615 5.45195C4.16523 5.9936 3.97852 6.62524 3.97852 7.27067C3.97852 7.9161 4.16523 8.54774 4.51615 9.08939C4.86706 9.63104 5.36717 10.0596 5.95614 10.3232C6.54512 10.5869 7.1978 10.6745 7.83543 10.5754C8.47307 10.4764 9.06842 10.1948 9.54966 9.76487C9.10603 10.037 8.59793 10.1859 8.07765 10.1964C7.55736 10.2068 7.04369 10.0784 6.58949 9.82438C6.13529 9.57034 5.75697 9.19983 5.49346 8.75099C5.22996 8.30214 5.09078 7.79118 5.09026 7.27067Z" fill="#F5D028"/>
<path fill-rule="evenodd" clip-rule="evenodd" d="M11.7824 7.27062L13.3852 6.65022L11.6714 6.78762L12.8465 5.53362L11.3619 6.39942L11.8765 4.75902L10.9168 6.18402L10.6684 4.48242L10.4884 5.70162L10.4375 6.05322L10.4177 6.18402L9.45788 4.75902L9.97316 6.39942L8.4885 5.53362L9.66303 6.78762L7.94922 6.65022L9.55326 7.27062L7.94922 7.89042L9.66303 7.75482L8.4885 9.00882L9.97316 8.14182L9.45608 9.78222L10.4159 8.35782L10.4357 8.48802L10.4866 8.83962L10.6666 10.0582L10.915 8.35782L11.8747 9.78222L11.3601 8.14182L12.8447 9.00882L11.6696 7.75482L13.3834 7.89042L11.7824 7.27062Z" fill="#F5D028"/>
</g>
</g>
<defs>
<clipPath id="clip0_8918_95346">
<rect width="24" height="23.9994" fill="white"/>
</clipPath>
</defs>
</svg>
