<svg width="24" height="24" viewBox="0 0 24 24" fill="none" xmlns="http://www.w3.org/2000/svg">
<g clip-path="url(#clip0_8918_95368)">
<mask id="mask0_8918_95368" style="mask-type:luminance" maskUnits="userSpaceOnUse" x="0" y="0" width="24" height="25">
<path d="M12.0006 0H11.7348C8.85464 0.060003 7.37377 0.285614 6.0039 0.757838C4.67783 1.21264 3.48421 1.9871 2.52853 3.01275C1.73476 3.93415 1.12712 5.00067 0.739237 6.15331C0.282715 7.59849 0.0401334 9.1027 0.0192007 10.6181C-2.48117e-07 11.214 0 11.2956 0 11.9982C0 12.7008 -2.48117e-07 12.7854 0.0192007 13.3783C0.0397291 14.8947 0.282317 16.4 0.739237 17.8461C1.12712 18.9989 1.73476 20.0656 2.52853 20.9872C3.48434 22.0129 4.6779 22.7875 6.0039 23.2428C7.37377 23.7144 8.85284 23.9412 11.7348 24.0006H12.2658C15.146 23.9406 16.6262 23.7144 17.9967 23.2428C19.3228 22.7874 20.5165 22.0128 21.4727 20.9872C22.2663 20.0656 22.8737 18.9989 23.2614 17.8461C23.7179 16.4013 23.9605 14.8975 23.9814 13.3825C24 12.7872 24 12.7038 24 12.0024C24 11.301 24 11.2158 23.9814 10.6223C23.9605 9.1069 23.7179 7.60269 23.2614 6.15751C22.8737 5.0049 22.2662 3.93838 21.4727 3.01695C20.517 1.98979 19.3229 1.21389 17.9961 0.757838C16.6262 0.285614 15.1478 0.0588029 12.2658 0H12.0006Z" fill="white"/>
</mask>
<g mask="url(#mask0_8918_95368)">
<path d="M30.3688 16.0522H-6.125V24.1557H30.3688V16.0522Z" fill="#E4142C"/>
<path d="M30.3688 7.94873H-6.125V16.0521H30.3688V7.94873Z" fill="#34A836"/>
<path d="M30.3688 -0.154785H-6.125V7.94862H30.3688V-0.154785Z" fill="#FFCB00"/>
<path d="M15.3693 13.9122L20.637 10.0864H14.1255L12.1124 3.89648L10.0999 10.0864H3.58594L8.8554 13.9122L6.8429 20.1021L12.1124 16.2763L17.3824 20.1021L15.3693 13.9122Z" fill="white"/>
</g>
</g>
<defs>
<clipPath id="clip0_8918_95368">
<rect width="24" height="24.0006" fill="white"/>
</clipPath>
</defs>
</svg>
