<svg width="24" height="24" viewBox="0 0 24 24" fill="none" xmlns="http://www.w3.org/2000/svg">
<g clip-path="url(#clip0_8918_95371)">
<mask id="mask0_8918_95371" style="mask-type:luminance" maskUnits="userSpaceOnUse" x="0" y="0" width="24" height="24">
<path d="M12.0003 0H11.7345C8.85442 0.0600015 7.37418 0.286207 6.00375 0.757219C4.67908 1.21334 3.48672 1.98784 2.53146 3.01268C1.7378 3.93455 1.13019 5.00143 0.742219 6.15435C0.285394 7.59881 0.0428083 9.10243 0.0222006 10.6173C0 11.2137 0 11.2971 0 12.0009C0 12.7047 2.23523e-09 12.7869 0.0192005 13.3809C0.0399414 14.8961 0.282522 16.4002 0.739218 17.845C1.1271 18.9977 1.73472 20.0641 2.52846 20.9855C3.48374 22.0116 4.67745 22.7861 6.00375 23.2404C7.37418 23.7126 8.85322 23.9388 11.7345 23.9988H12.2661C15.1462 23.9388 16.6258 23.7126 17.9956 23.2404C19.3223 22.7861 20.5163 22.0116 21.4721 20.9855C22.2657 20.0641 22.8731 18.9976 23.2608 17.845C23.7177 16.4002 23.9603 14.8962 23.9808 13.3809C24 12.7845 24 12.7035 24 12.0009C24 11.2983 24 11.2137 23.9808 10.6173C23.9605 9.10241 23.7179 7.59874 23.2608 6.15435C22.873 5.00147 22.2656 3.9346 21.4721 3.01268C20.5169 1.98808 19.3248 1.2136 18.0005 0.757219C16.6288 0.286207 15.1504 0.0600015 12.2691 0H12.0003Z" fill="white"/>
</mask>
<g mask="url(#mask0_8918_95371)">
<path d="M41.7129 -0.223145H-0.300781V24.2653H41.7129V-0.223145Z" fill="#4A9318"/>
<path d="M41.7129 3.2749H-0.300781V20.7671H41.7129V3.2749Z" fill="#F6D128"/>
<path d="M41.7129 6.77295H-0.300781V17.2684H41.7129V6.77295Z" fill="#CB0423"/>
<path d="M41.7129 10.2725H-0.300781V13.7705H41.7129V10.2725Z" fill="black"/>
<path fill-rule="evenodd" clip-rule="evenodd" d="M-0.300781 -0.223145V24.2653H0.589641L16.916 12.0214L0.589641 -0.223145H-0.300781Z" fill="black"/>
<path fill-rule="evenodd" clip-rule="evenodd" d="M-0.300781 -0.223145V24.2653L16.0262 12.0214L-0.300781 -0.223145Z" fill="white"/>
<path fill-rule="evenodd" clip-rule="evenodd" d="M6.30756 5.80176L3.55469 11.3819L7.73919 13.4435L6.30756 5.80176Z" fill="#CB0423"/>
<path fill-rule="evenodd" clip-rule="evenodd" d="M6.30739 5.80176L9.06026 11.3819L4.87695 13.4435L6.30739 5.80176Z" fill="#CB0423"/>
<path fill-rule="evenodd" clip-rule="evenodd" d="M6.30711 5.80176L4.22266 11.6615L8.61837 13.2251L6.30711 5.80176Z" fill="#CB0423"/>
<path fill-rule="evenodd" clip-rule="evenodd" d="M6.3087 5.80176L8.39256 11.6615L3.99805 13.2251L6.3087 5.80176Z" fill="#CB0423"/>
<path fill-rule="evenodd" clip-rule="evenodd" d="M12.2218 10.0971L6.06685 9.20312L5.39844 13.8208L12.2218 10.0971Z" fill="#CB0423"/>
<path fill-rule="evenodd" clip-rule="evenodd" d="M0.392578 10.0971L6.54753 9.20312L7.21835 13.819L0.392578 10.0971Z" fill="#CB0423"/>
<path fill-rule="evenodd" clip-rule="evenodd" d="M12.2223 10.0971L6.00491 9.92725L5.87891 14.5906L12.2223 10.0971Z" fill="#CB0423"/>
<path fill-rule="evenodd" clip-rule="evenodd" d="M0.392578 10.0969L6.60993 9.92529L6.73894 14.5886L0.392578 10.0969Z" fill="#CB0423"/>
<path fill-rule="evenodd" clip-rule="evenodd" d="M9.44908 16.3459L8.35885 11.1138L5.74219 11.6592L9.44908 16.3459Z" fill="#CB0423"/>
<path fill-rule="evenodd" clip-rule="evenodd" d="M9.44791 16.3457L4.80859 13.6912L6.13583 11.3716L9.44791 16.3457Z" fill="#CB0423"/>
<path fill-rule="evenodd" clip-rule="evenodd" d="M3.16602 16.3457L7.80533 13.6912L6.4799 11.3716L3.16602 16.3457Z" fill="#CB0423"/>
<path fill-rule="evenodd" clip-rule="evenodd" d="M3.16602 16.3459L4.25624 11.1138L6.87351 11.6592L3.16602 16.3459Z" fill="#CB0423"/>
<path fill-rule="evenodd" clip-rule="evenodd" d="M8.44186 15.906C8.44529 15.1097 8.58742 14.3201 8.86187 13.5726C9.01565 13.1535 9.20223 12.7472 9.41988 12.3575C9.5293 12.3643 9.6373 12.3859 9.74089 12.4217C10.0841 12.5171 10.1783 12.4991 10.1783 12.3395C10.1783 12.2489 9.82729 11.9363 8.11125 10.5005C6.95622 9.53266 6.0076 8.76944 5.96019 8.76944C5.93898 8.77036 5.91794 8.7652 5.89955 8.75457C5.88116 8.74394 5.86619 8.72828 5.85639 8.70944C5.84619 8.67764 5.79099 8.30323 5.73639 7.87662C5.7012 7.56109 5.64345 7.24848 5.56358 6.9412C5.50202 6.81066 5.40303 6.70137 5.27921 6.62723C5.15538 6.55308 5.01231 6.51742 4.86817 6.52479C4.78011 6.50581 4.68913 6.5048 4.60067 6.52181C4.51221 6.53883 4.42809 6.57351 4.35335 6.62379C4.23934 6.6928 4.11065 6.73391 3.97774 6.74379C3.92997 6.74268 3.88245 6.75101 3.8379 6.7683C3.79335 6.7856 3.75266 6.81151 3.71815 6.84457C3.68365 6.87763 3.65601 6.91717 3.63682 6.96094C3.61763 7.0047 3.60727 7.05183 3.60634 7.0996V7.22861L3.90634 7.21961C4.07075 7.21481 4.15475 7.21961 4.09175 7.23341C3.87874 7.27421 3.96454 7.57541 4.21535 7.66542C4.48536 7.76202 4.47456 7.70502 4.47456 8.97105C4.5195 9.44811 4.49158 9.92923 4.39176 10.3979C4.28285 10.7966 4.28285 11.2172 4.39176 11.6159C4.43556 11.7551 4.47216 11.8841 4.47336 11.9027C4.38974 12.0371 4.29436 12.1638 4.18835 12.2813C3.93846 12.5452 3.77806 12.8811 3.72994 13.2414C3.72233 13.3219 3.69378 13.3991 3.64714 13.4652C3.59565 13.538 3.56751 13.6247 3.56644 13.7138C3.56537 13.803 3.59142 13.8904 3.64114 13.9644C3.89886 14.6907 4.08103 15.4417 4.18475 16.2054C4.18475 16.3296 4.20455 16.3254 4.86697 16.1856C5.67477 16.065 6.49475 16.0491 7.30663 16.1382C7.60244 16.1802 7.94684 16.2438 8.07165 16.278C8.46526 16.3866 8.44366 16.4082 8.44486 15.9006" fill="black"/>
<path fill-rule="evenodd" clip-rule="evenodd" d="M7.90296 16.165C7.25235 16.0186 6.58442 15.9643 5.91871 16.0036C5.5437 16.0198 5.15009 16.0498 5.04449 16.0702L4.85309 16.108L4.80569 15.7876C4.78447 15.6774 4.77302 15.5655 4.77148 15.4533C4.9048 15.4219 5.03983 15.3983 5.17589 15.3825C6.19114 15.2828 7.21486 15.31 8.22337 15.4635L8.35837 15.4911V15.8764C8.35837 16.1572 8.34397 16.2598 8.30617 16.2556C8.27797 16.252 8.09617 16.2112 7.90296 16.165Z" fill="#FCFF2C"/>
<path fill-rule="evenodd" clip-rule="evenodd" d="M4.26536 16.1939C4.26536 16.1015 4.03555 14.9975 3.93535 14.6081C3.86695 14.3417 3.81055 14.1083 3.81055 14.0867C3.81055 14.0651 3.87055 14.0915 3.94975 14.1437C4.01393 14.1919 4.08819 14.2249 4.16696 14.2403C4.37996 14.2433 4.49636 14.5637 4.67697 15.6419C4.70277 15.7925 4.73157 15.9623 4.74237 16.0175C4.75917 16.1039 4.73577 16.1231 4.55277 16.1663C4.32176 16.2215 4.26536 16.2263 4.26536 16.1939Z" fill="#FCFF2C"/>
<path fill-rule="evenodd" clip-rule="evenodd" d="M8.30105 15.3491C8.28845 15.3257 8.30525 15.2819 8.33945 15.2507C8.38925 15.2039 8.39945 15.2069 8.39945 15.2651C8.39945 15.3509 8.33165 15.4073 8.29925 15.3491" fill="#FCFF2C"/>
<path fill-rule="evenodd" clip-rule="evenodd" d="M4.9797 15.1733C5.0895 15.0533 5.0919 15.0497 5.1777 15.1367C5.2635 15.2237 5.2605 15.2267 5.1903 15.2567C5.12607 15.2786 5.05892 15.2907 4.9911 15.2927H4.87109L4.9797 15.1733Z" fill="#FCFF2C"/>
<path fill-rule="evenodd" clip-rule="evenodd" d="M7.70628 15.2436C7.72838 15.1985 7.76164 15.1599 7.80288 15.1314C7.87248 15.081 7.89288 15.0882 7.95709 15.1854L8.03149 15.297H7.85928C7.74768 15.297 7.69368 15.2778 7.70448 15.2436" fill="#FCFF2C"/>
<path fill-rule="evenodd" clip-rule="evenodd" d="M8.075 15.1775C8.03916 15.1376 8.01344 15.0897 8 15.0377C8.06379 15.0339 8.12778 15.0401 8.1896 15.0563L8.36961 15.0899L8.26761 15.1961L8.1656 15.3029L8.075 15.1775Z" fill="#FCFF2C"/>
<path fill-rule="evenodd" clip-rule="evenodd" d="M4.69454 15.1846C4.66394 15.0958 4.73595 15.0232 4.85415 15.022C4.94835 15.022 4.94595 15.031 4.82415 15.1582C4.73115 15.2554 4.71975 15.2578 4.69454 15.1846Z" fill="#FCFF2C"/>
<path fill-rule="evenodd" clip-rule="evenodd" d="M5.66134 15.1021L5.76994 14.9761L5.87554 15.0781C5.93554 15.1381 5.98835 15.1861 5.99555 15.1891C5.92469 15.2026 5.85285 15.2105 5.78074 15.2125L5.55273 15.2281L5.66134 15.1021Z" fill="#FCFF2C"/>
<path fill-rule="evenodd" clip-rule="evenodd" d="M7.12433 15.2097L6.98633 15.1809L7.08533 15.0777L7.18493 14.9751L7.30494 15.1119C7.43514 15.2631 7.42074 15.2709 7.12433 15.2097Z" fill="#FCFF2C"/>
<path fill-rule="evenodd" clip-rule="evenodd" d="M5.29837 15.09L5.20117 14.9748H5.34938C5.42415 14.9766 5.49872 14.9663 5.57018 14.9442C5.63018 14.9196 5.62298 14.9442 5.54498 15.0594C5.5137 15.1154 5.47194 15.1649 5.42198 15.2052C5.37364 15.1753 5.33165 15.1361 5.29837 15.09Z" fill="#FCFF2C"/>
<path fill-rule="evenodd" clip-rule="evenodd" d="M6.35258 15.0672L6.47258 14.9292L6.58838 15.0492C6.6315 15.0914 6.67048 15.1376 6.70479 15.1872C6.62729 15.2018 6.5483 15.2068 6.46958 15.2022H6.23438L6.35258 15.0672Z" fill="#FCFF2C"/>
<path fill-rule="evenodd" clip-rule="evenodd" d="M7.44817 15.0898L7.35156 14.9746H7.54477C7.75357 14.9746 7.77997 15.01 7.66477 15.1282C7.56757 15.226 7.56577 15.226 7.45057 15.0898" fill="#FCFF2C"/>
<path fill-rule="evenodd" clip-rule="evenodd" d="M5.99955 15.0428L5.90234 14.9282H6.34455L6.24735 15.0428C6.12735 15.185 6.11895 15.185 5.99955 15.0428Z" fill="#FCFF2C"/>
<path fill-rule="evenodd" clip-rule="evenodd" d="M6.74564 15.0428L6.64844 14.9282H7.09125L6.99405 15.0428C6.87404 15.185 6.86564 15.185 6.74564 15.0428Z" fill="#FCFF2C"/>
<path fill-rule="evenodd" clip-rule="evenodd" d="M8.06881 14.9278C7.9662 14.908 7.55519 14.8678 7.15498 14.8342C6.38027 14.7813 5.60218 14.8081 4.83292 14.914C4.67512 14.9356 4.63672 14.9266 4.63672 14.8714C4.63672 14.7514 5.46594 14.6758 6.74517 14.6758C7.37099 14.6758 8.0052 14.6932 8.16121 14.7142C8.42041 14.7496 8.44081 14.7604 8.44081 14.8636C8.44081 14.9836 8.40541 14.992 8.06881 14.9278Z" fill="#FCFF2C"/>
<path fill-rule="evenodd" clip-rule="evenodd" d="M4.85401 14.5373C4.90791 14.4747 4.97153 14.4213 5.04242 14.3789C5.09404 14.405 5.13852 14.4433 5.17202 14.4905L5.26562 14.6021L5.06522 14.6309C4.95482 14.6471 4.82521 14.6675 4.78201 14.6789C4.72201 14.6927 4.73881 14.6561 4.85401 14.5373Z" fill="#FCFF2C"/>
<path fill-rule="evenodd" clip-rule="evenodd" d="M4.55977 14.5575C4.52917 14.4657 4.53757 14.4375 4.60837 14.4093C4.66023 14.389 4.71618 14.3814 4.77157 14.3871C4.83937 14.3985 4.83157 14.4177 4.72297 14.5335L4.59697 14.6679L4.55977 14.5575Z" fill="#FCFF2C"/>
<path fill-rule="evenodd" clip-rule="evenodd" d="M8.40039 14.6119C8.40039 14.5903 8.42679 14.5597 8.46039 14.5459C8.49399 14.5321 8.51319 14.5417 8.49759 14.5873C8.47239 14.6593 8.40099 14.6779 8.40099 14.6119" fill="#FCFF2C"/>
<path fill-rule="evenodd" clip-rule="evenodd" d="M5.62152 14.4471C5.68152 14.3709 5.73312 14.3049 5.73312 14.3013C5.7795 14.3381 5.82321 14.3782 5.86393 14.4213L5.99533 14.5509L5.75532 14.5659L5.51172 14.5815L5.62152 14.4471Z" fill="#FCFF2C"/>
<path fill-rule="evenodd" clip-rule="evenodd" d="M7.8307 14.5734L7.6543 14.5554L7.7809 14.4384L7.9069 14.3184L8.00891 14.4234C8.11931 14.5392 8.13971 14.61 8.05811 14.5974C8.02991 14.5932 7.9279 14.5812 7.8307 14.5716" fill="#FCFF2C"/>
<path fill-rule="evenodd" clip-rule="evenodd" d="M5.2743 14.4461L5.1543 14.3405L5.3523 14.3069C5.4223 14.2909 5.49433 14.2856 5.56591 14.2913C5.57431 14.3009 5.53891 14.3633 5.48731 14.4305L5.3931 14.5505L5.2743 14.4461Z" fill="#FCFF2C"/>
<path fill-rule="evenodd" clip-rule="evenodd" d="M7.08368 14.5223L6.98828 14.4929L7.09268 14.3825C7.18209 14.2889 7.20849 14.2817 7.26369 14.3327C7.30631 14.375 7.34213 14.4235 7.36989 14.4767C7.40469 14.5499 7.39449 14.5607 7.29489 14.5565C7.22341 14.5533 7.15254 14.5418 7.08368 14.5223Z" fill="#FCFF2C"/>
<path fill-rule="evenodd" clip-rule="evenodd" d="M8.12977 14.4174L8.00977 14.2734L8.11297 14.3022C8.20126 14.3217 8.29138 14.3315 8.38177 14.3316H8.54738L8.42318 14.445C8.37921 14.4894 8.32958 14.5277 8.27557 14.559C8.21981 14.5198 8.17095 14.4715 8.13097 14.4162" fill="#FCFF2C"/>
<path fill-rule="evenodd" clip-rule="evenodd" d="M6.00812 14.4066C5.97006 14.3676 5.94008 14.3215 5.91992 14.2709C5.91992 14.2541 6.02492 14.2397 6.15393 14.2397H6.38733L6.30933 14.3363C6.17073 14.5068 6.10473 14.5212 6.00932 14.4066" fill="#FCFF2C"/>
<path fill-rule="evenodd" clip-rule="evenodd" d="M6.38969 14.3967C6.52289 14.2665 6.56969 14.2695 6.65549 14.4147C6.7155 14.5143 6.7155 14.5149 6.49349 14.5143H6.27148L6.38969 14.3967Z" fill="#FCFF2C"/>
<path fill-rule="evenodd" clip-rule="evenodd" d="M7.41572 14.3753L7.32031 14.2373H7.42232C7.49883 14.2401 7.57494 14.2497 7.64972 14.2661L7.77692 14.2949L7.65992 14.4041C7.62006 14.445 7.57556 14.481 7.52732 14.5115C7.4862 14.4691 7.44923 14.4229 7.41692 14.3735" fill="#FCFF2C"/>
<path fill-rule="evenodd" clip-rule="evenodd" d="M6.74564 14.3574L6.64844 14.2422H7.09125L6.99405 14.3574C6.87404 14.4996 6.86564 14.4996 6.74564 14.3574Z" fill="#FCFF2C"/>
<path fill-rule="evenodd" clip-rule="evenodd" d="M4.53527 14.2049C4.56701 14.1031 4.59345 13.9998 4.61448 13.8953L4.66368 13.6655L5.11729 13.4123C5.33255 13.2963 5.53892 13.1645 5.7347 13.018C5.82531 12.94 5.91951 12.862 5.94591 12.8464C6.54624 12.8425 7.14595 12.8862 7.73935 12.9772C8.14796 13.0426 8.86378 13.1842 8.88778 13.204C8.84944 13.3612 8.80297 13.5162 8.74858 13.6685C8.66638 13.9187 8.59137 14.1515 8.58237 14.1857C8.56977 14.2331 8.51937 14.2409 8.38017 14.2175C7.25231 14.1071 6.11607 14.1134 4.98948 14.2361C4.56167 14.3051 4.49927 14.3003 4.53647 14.2037" fill="#FCFF2C"/>
<path fill-rule="evenodd" clip-rule="evenodd" d="M7.99079 13.9217C8.05198 13.8587 8.09406 13.7797 8.11212 13.6938C8.13019 13.6079 8.1235 13.5186 8.09283 13.4363C8.06216 13.3541 8.00878 13.2822 7.93888 13.2291C7.86899 13.1759 7.78545 13.1438 7.69798 13.1362C7.63983 13.1369 7.58244 13.1496 7.52946 13.1736C7.47648 13.1976 7.42906 13.2323 7.39019 13.2755C7.35133 13.3188 7.32188 13.3697 7.30369 13.4249C7.28551 13.4801 7.279 13.5386 7.28457 13.5964C7.27352 13.6825 7.29023 13.7698 7.33226 13.8457C7.37429 13.9216 7.43945 13.9821 7.51825 14.0184C7.59705 14.0547 7.68538 14.0649 7.77037 14.0475C7.85537 14.0301 7.93258 13.986 7.99079 13.9217Z" fill="black"/>
<path fill-rule="evenodd" clip-rule="evenodd" d="M7.54493 13.911C7.49336 13.8746 7.45172 13.8258 7.42379 13.7692C7.39587 13.7125 7.38256 13.6498 7.38506 13.5867C7.38757 13.5236 7.40581 13.4622 7.43814 13.4079C7.47046 13.3537 7.51583 13.3084 7.57013 13.2762C7.62187 13.2524 7.67896 13.2427 7.73565 13.248C7.79233 13.2533 7.84662 13.2735 7.89304 13.3064C7.93946 13.3394 7.97637 13.384 8.00005 13.4358C8.02373 13.4876 8.03335 13.5447 8.02794 13.6014C8.02848 13.6584 8.01458 13.7146 7.98753 13.7648C7.96048 13.815 7.92117 13.8575 7.87325 13.8885C7.82534 13.9194 7.77037 13.9376 7.71349 13.9416C7.65661 13.9455 7.59965 13.935 7.54793 13.911" fill="#FCFF2C"/>
<path fill-rule="evenodd" clip-rule="evenodd" d="M6.32886 13.8924C6.38676 13.8402 6.43106 13.7746 6.45793 13.7014C6.48481 13.6282 6.49345 13.5496 6.48311 13.4723C6.47277 13.395 6.44376 13.3214 6.39859 13.2579C6.35342 13.1943 6.29345 13.1428 6.22386 13.1076C6.17805 13.0858 6.1284 13.0733 6.07775 13.0708C6.0271 13.0683 5.97645 13.0757 5.92869 13.0928C5.88093 13.1098 5.837 13.1361 5.79942 13.1702C5.76183 13.2042 5.73133 13.2453 5.70965 13.2912C5.64938 13.3762 5.62222 13.4803 5.63327 13.5839C5.64432 13.6876 5.69281 13.7836 5.76965 13.854C5.79927 13.8994 5.83901 13.9373 5.88577 13.9648C5.93252 13.9922 5.98501 14.0084 6.03909 14.0122C6.09318 14.0159 6.14739 14.007 6.19746 13.9862C6.24754 13.9654 6.29211 13.9333 6.32766 13.8924" fill="black"/>
<path fill-rule="evenodd" clip-rule="evenodd" d="M5.93261 13.8714C5.86719 13.8319 5.81543 13.7734 5.78432 13.7036C5.75322 13.6338 5.74425 13.5561 5.75863 13.481C5.77302 13.406 5.81006 13.3371 5.86477 13.2838C5.91948 13.2304 5.98923 13.1951 6.06462 13.1826C6.13851 13.1929 6.20743 13.2257 6.26202 13.2766C6.3166 13.3274 6.35418 13.3939 6.36966 13.4669C6.38513 13.5398 6.37775 13.6158 6.3485 13.6845C6.31926 13.7531 6.26958 13.811 6.20622 13.8504C6.07422 13.9266 6.05802 13.9278 5.93261 13.8714Z" fill="#FCFF2C"/>
<path fill-rule="evenodd" clip-rule="evenodd" d="M4.34946 14.0751C4.40946 13.9053 4.39986 13.6875 4.33566 13.6875C4.30206 13.6875 4.28226 13.7475 4.28226 13.8483C4.28568 13.9251 4.26671 14.0012 4.22765 14.0673C4.18205 14.1147 4.17605 14.0781 4.19525 13.8603C4.20785 13.7145 4.20245 13.5963 4.18325 13.5963C4.14605 13.5963 4.07405 13.8159 4.04765 14.0091C4.03265 14.1225 4.03205 14.1225 3.99785 13.9887C3.98455 13.9365 3.98254 13.882 3.99195 13.8289C4.00137 13.7758 4.02199 13.7254 4.05245 13.6809C4.10213 13.5849 4.13251 13.4802 4.14185 13.3725C4.14185 13.2597 4.22045 13.1505 4.60146 12.7383C4.85467 12.4647 5.14868 12.1245 5.25608 11.9823C5.44148 11.7381 5.45048 11.7135 5.44328 11.465C5.44624 11.368 5.43513 11.2709 5.41028 11.177C5.36168 11.1224 5.29748 11.4002 5.32268 11.5515C5.34668 11.6883 5.32268 11.7345 5.05507 12.0711C4.89427 12.2751 4.62126 12.5817 4.44906 12.7539C4.13165 13.0725 4.01705 13.2441 4.01705 13.4055C4.00381 13.5043 3.97696 13.6008 3.93725 13.6923C3.89925 13.7689 3.88031 13.8535 3.88205 13.9389C3.89645 13.9683 3.88685 13.9671 3.85624 13.9389C3.82564 13.9107 3.81844 13.8345 3.84784 13.6887C3.86942 13.6106 3.87594 13.5292 3.86704 13.4487C3.82324 13.3689 3.77044 13.4715 3.74704 13.6887C3.73204 13.8141 3.70384 13.9047 3.68404 13.8909C3.62404 13.8495 3.64324 13.6239 3.71644 13.5075C3.76741 13.4073 3.80243 13.2998 3.82024 13.1889C3.88657 12.8409 4.05056 12.5189 4.29306 12.2607C4.43826 12.0849 4.55706 11.9331 4.55706 11.9253C4.55706 11.9175 4.51866 11.7873 4.47186 11.6379C4.36312 11.249 4.35712 10.8387 4.45446 10.4468C4.59201 10.0601 4.81803 9.71076 5.11448 9.4268C5.46488 9.06319 5.79729 8.84538 5.9587 8.87179C6.0973 8.89519 10.0988 12.2421 10.0988 12.3357C10.0984 12.3447 10.0962 12.3536 10.0923 12.3618C10.0885 12.37 10.083 12.3774 10.0762 12.3834C10.0694 12.3895 10.0615 12.3941 10.0529 12.397C10.0443 12.4 10.0352 12.4011 10.0262 12.4005C9.986 12.4005 8.96777 12.0921 7.76354 11.7159C5.83869 11.1158 5.56209 11.0174 5.47868 10.91C5.42178 10.832 5.39013 10.7385 5.38798 10.6419C5.38584 10.5454 5.4133 10.4505 5.46668 10.37C5.5078 10.3172 5.53614 10.2556 5.54949 10.19C5.54949 10.0886 5.34548 10.3484 5.30948 10.4996C5.2908 10.6008 5.29587 10.705 5.3243 10.8039C5.35272 10.9028 5.40372 10.9938 5.47328 11.0696C5.73758 11.1885 6.00985 11.2887 6.28811 11.3696C6.96972 11.5851 7.01592 11.6097 7.05252 11.7297C7.13953 12.0195 6.85272 12.3561 6.43931 12.4497C6.28631 12.4899 6.14331 12.5614 6.0193 12.6597C5.69439 12.9409 5.33729 13.1826 4.95547 13.3797C4.83551 13.4305 4.72093 13.4932 4.61346 13.5669C4.56476 13.6605 4.53346 13.7621 4.52106 13.8669C4.47186 14.1513 4.45266 14.1957 4.37346 14.1957C4.32786 14.1957 4.32366 14.1705 4.35546 14.0757" fill="#FCFF2C"/>
<path fill-rule="evenodd" clip-rule="evenodd" d="M8.54558 13.0179C7.95833 12.8891 7.3629 12.8009 6.76353 12.7539L6.10352 12.6939L6.35132 12.5937C6.50077 12.5324 6.64625 12.4618 6.78693 12.3825C6.85646 12.337 6.9343 12.3057 7.01596 12.2905C7.09763 12.2752 7.1815 12.2763 7.26274 12.2937C7.63175 12.3237 7.88016 12.2505 7.97256 12.0873C8.01096 12.0176 8.04816 11.954 8.05356 11.9438C8.27383 11.9914 8.49119 12.0515 8.70458 12.1239L9.3442 12.3201L9.22059 12.5559C9.15219 12.6837 9.06579 12.8559 9.02919 12.9393C8.95419 13.1055 8.92779 13.1109 8.54318 13.0161" fill="#FCFF2C"/>
<path fill-rule="evenodd" clip-rule="evenodd" d="M7.08935 12.18C7.05455 12.1566 7.05575 12.126 7.09596 12.0648C7.13016 12.0132 7.16076 12 7.17756 12.03C7.21596 12.099 7.14636 12.2196 7.08935 12.18Z" fill="#FCFF2C"/>
<path fill-rule="evenodd" clip-rule="evenodd" d="M7.24207 12.171C7.24207 12.111 7.27147 12.111 7.30207 12.171C7.31647 12.1968 7.30807 12.2172 7.28407 12.2172C7.27814 12.2171 7.27228 12.2158 7.26684 12.2135C7.2614 12.2111 7.2565 12.2076 7.25241 12.2033C7.24833 12.199 7.24515 12.1939 7.24307 12.1884C7.24098 12.1828 7.24003 12.1769 7.24027 12.171" fill="#FCFF2C"/>
<path fill-rule="evenodd" clip-rule="evenodd" d="M7.44922 12.1458C7.44922 12.1062 7.46782 12.0858 7.49062 12.1026C7.54462 12.1392 7.54462 12.2178 7.49062 12.2178C7.46782 12.2178 7.44922 12.1854 7.44922 12.1458Z" fill="#FCFF2C"/>
<path fill-rule="evenodd" clip-rule="evenodd" d="M7.6453 12.144C7.62479 12.1131 7.61431 12.0767 7.6153 12.0396C7.6153 11.988 7.6267 11.9832 7.6609 12.0204C7.67347 12.0343 7.68271 12.0508 7.68791 12.0688C7.69311 12.0868 7.69413 12.1058 7.6909 12.1242C7.6825 12.1536 7.6615 12.1626 7.6453 12.144Z" fill="#FCFF2C"/>
<path fill-rule="evenodd" clip-rule="evenodd" d="M7.31381 12.0519C7.2936 12.0208 7.28295 11.9845 7.28321 11.9475C7.28321 11.8959 7.29581 11.8875 7.32941 11.9277C7.34202 11.9417 7.35132 11.9583 7.35662 11.9764C7.36192 11.9945 7.36308 12.0135 7.36001 12.0321C7.35161 12.0615 7.33001 12.0699 7.31381 12.0519Z" fill="#FCFF2C"/>
<path fill-rule="evenodd" clip-rule="evenodd" d="M7.79854 12.0305C7.75353 11.9507 7.80454 11.9339 7.85854 12.0101C7.89154 12.0533 7.89454 12.0797 7.86694 12.0797C7.85212 12.0776 7.838 12.072 7.8257 12.0635C7.81341 12.0549 7.80328 12.0436 7.79614 12.0305" fill="#FCFF2C"/>
<path fill-rule="evenodd" clip-rule="evenodd" d="M7.47206 11.944C7.46655 11.9318 7.46532 11.918 7.46859 11.9049C7.47185 11.8919 7.47941 11.8803 7.49006 11.872C7.51346 11.8564 7.53206 11.8762 7.53206 11.9158C7.53206 11.9962 7.50746 12.0082 7.47206 11.944Z" fill="#FCFF2C"/>
<path fill-rule="evenodd" clip-rule="evenodd" d="M7.65625 11.8694C7.65625 11.8298 7.67425 11.8094 7.69705 11.8262C7.75105 11.8634 7.74985 11.9414 7.69705 11.9414C7.67425 11.9414 7.65625 11.909 7.65625 11.8694Z" fill="#FCFF2C"/>
<path fill-rule="evenodd" clip-rule="evenodd" d="M7.16016 11.8288C7.16016 11.7478 7.18476 11.7364 7.22016 11.8006C7.22621 11.8127 7.22772 11.8266 7.22442 11.8397C7.22111 11.8528 7.21321 11.8643 7.20216 11.872C7.17876 11.8882 7.16016 11.8684 7.16016 11.8288Z" fill="#FCFF2C"/>
<path fill-rule="evenodd" clip-rule="evenodd" d="M7.32617 11.7771C7.32617 11.7375 7.34477 11.7171 7.36757 11.7339C7.42098 11.7705 7.42098 11.8491 7.36757 11.8491C7.34477 11.8491 7.32617 11.8167 7.32617 11.7771Z" fill="#FCFF2C"/>
<path fill-rule="evenodd" clip-rule="evenodd" d="M4.54641 9.56782C4.53441 9.36862 4.53441 8.9078 4.54641 8.53759C4.56981 7.77678 4.55181 7.70177 4.3184 7.61837C4.1282 7.54997 4.0592 7.49297 4.0592 7.40237C4.0592 7.34236 4.1018 7.33697 4.3106 7.36097C4.52961 7.38677 4.56021 7.38077 4.55061 7.31476C4.53021 7.19476 4.2404 7.10656 3.93379 7.12456C3.69379 7.13836 3.66319 7.13116 3.67939 7.06456C3.70597 6.98814 3.7563 6.92223 3.82301 6.87646C3.88973 6.83069 3.96933 6.80745 4.0502 6.81015C4.17458 6.79336 4.29503 6.75477 4.40601 6.69615C4.54644 6.6165 4.71059 6.58928 4.86922 6.61935C5.40923 6.64995 5.51363 6.80955 5.65524 7.83858C5.71044 8.23879 5.75544 8.609 5.75664 8.6624C5.75664 8.7314 5.68164 8.8142 5.49143 8.95041C5.17928 9.18368 4.90382 9.46237 4.67421 9.77723L4.56981 9.93083L4.54641 9.56782Z" fill="#FCFF2C"/>
<path fill-rule="evenodd" clip-rule="evenodd" d="M4.94804 7.16055C4.9768 7.13473 4.9953 7.09941 5.00015 7.06107C5.005 7.02272 4.99587 6.98391 4.97444 6.95175C4.91444 6.80774 4.84724 6.84014 4.87544 6.99915C4.89164 7.09335 4.87904 7.11555 4.80764 7.11555C4.73624 7.11555 4.72064 7.08675 4.72064 6.97155C4.72064 6.85634 4.71104 6.83654 4.66064 6.88574C4.64142 6.90413 4.62625 6.92633 4.61608 6.95091C4.60592 6.97549 4.60099 7.00191 4.60161 7.0285C4.60224 7.05509 4.60839 7.08126 4.61969 7.10534C4.63099 7.12942 4.64718 7.15088 4.66724 7.16835C4.75544 7.27815 4.85684 7.27575 4.95044 7.16055" fill="black"/>
<path d="M12.2568 0.5L13.2637 0.530273C15.4688 0.619076 16.6979 0.839293 17.8359 1.23047C19.0789 1.6584 20.1985 2.38396 21.0957 3.34473C21.7521 4.10736 22.2736 4.97507 22.6396 5.91016L22.7871 6.31543C23.2272 7.71092 23.4605 9.16379 23.4805 10.627L23.4814 10.6367C23.501 11.2247 23.501 11.3038 23.501 12.0029C23.501 12.702 23.501 12.7778 23.4814 13.3662L23.4805 13.376C23.4606 14.8393 23.2273 16.2919 22.7871 17.6875C22.4211 18.7751 21.8483 19.782 21.1006 20.6523C20.2579 21.555 19.2195 22.2507 18.0664 22.6865L17.834 22.7705C16.5354 23.2175 15.1155 23.4414 12.2568 23.501H11.7461C8.88627 23.442 7.46666 23.2175 6.16797 22.7705L5.93555 22.6865C4.78241 22.2508 3.74385 21.5553 2.90137 20.6523C2.24666 19.8905 1.72591 19.0243 1.36035 18.0908L1.21289 17.6855C0.772931 16.2897 0.539719 14.8365 0.519531 13.373L0.518555 13.3643L0.501953 12.7256C0.499587 12.5455 0.5 12.3508 0.5 12C0.5 11.2993 0.49979 11.2226 0.520508 10.6348V10.624C0.540758 9.16072 0.774909 7.7082 1.21484 6.3125C1.58241 5.22226 2.15767 4.21373 2.9082 3.3418C3.74943 2.44222 4.78548 1.74922 5.93555 1.31445L6.16797 1.23047C7.30421 0.839402 8.53371 0.619094 10.7383 0.530273L11.7461 0.5H12.2568Z" stroke="#F6F6F6"/>
</g>
</g>
<defs>
<clipPath id="clip0_8918_95371">
<rect width="24" height="23.9988" fill="white"/>
</clipPath>
</defs>
</svg>
