<svg width="24" height="24" viewBox="0 0 24 24" fill="none" xmlns="http://www.w3.org/2000/svg">
<g clip-path="url(#clip0_8918_95332)">
<mask id="mask0_8918_95332" style="mask-type:luminance" maskUnits="userSpaceOnUse" x="0" y="0" width="24" height="24">
<path d="M12.0003 0H11.7345C8.85458 0.0599985 7.37502 0.286193 6.00525 0.757781C4.67928 1.21291 3.48564 1.98724 2.52954 3.01252C1.73585 3.93419 1.12808 5.00078 0.739781 6.15345C0.28325 7.5981 0.040684 9.10181 0.0197995 10.6167C-4.47024e-09 11.2125 0 11.2947 0 11.9997C0 12.7047 -4.47024e-09 12.7869 0.0197995 13.3827C0.0405913 14.8974 0.282954 16.4009 0.739182 17.8454C1.12762 18.9978 1.73538 20.0641 2.52894 20.9857C3.485 22.0111 4.67864 22.7857 6.00465 23.241C7.37442 23.7126 8.85338 23.9388 11.7339 23.9988H12.2661C15.146 23.9388 16.6262 23.7126 17.9966 23.241C19.3223 22.7859 20.5157 22.0114 21.4711 20.9857C22.2648 20.0643 22.8725 18.9978 23.2608 17.8454C23.7172 16.4007 23.9598 14.897 23.9808 13.3821C24 12.7863 24 12.7035 24 11.9991C24 11.2947 24 11.2119 23.9808 10.6161C23.9599 9.10121 23.7173 7.59751 23.2608 6.15285C22.8728 5.00008 22.265 3.93344 21.4711 3.01192C20.5156 1.98665 19.3222 1.21247 17.9966 0.757781C16.6262 0.286193 15.1472 0.0593985 12.2661 0H12.0003Z" fill="white"/>
</mask>
<g mask="url(#mask0_8918_95332)">
<path d="M30.5874 -0.154297H-5.9043V24.1535H30.5874V-0.154297Z" fill="#FF0710"/>
<path d="M16.475 15.1381C16.475 15.1381 15.4917 12.1826 12.6351 12.4772C15.0609 13.1576 14.8935 15.2029 14.8935 15.2029H14.7813C14.7693 14.5685 14.533 13.9589 14.1143 13.4821C13.6956 13.0054 13.1217 12.6923 12.4941 12.5984C12.8246 12.7708 13.0878 13.049 13.2417 13.3885C13.3956 13.7281 13.4313 14.1093 13.3431 14.4715C13.3431 14.4715 12.4665 16.3819 13.5681 17.1241C13.8956 17.3641 14.2412 17.5784 14.6019 17.7649C14.7221 17.8479 14.8205 17.9586 14.8889 18.0877C14.9573 18.2168 14.9936 18.3604 14.9949 18.5064C15.0216 18.7751 14.9789 19.0462 14.8707 19.2936C15.5607 18.8766 16.0927 18.2422 16.3831 17.4901C16.6735 16.7379 16.7059 15.9106 16.475 15.1381ZM15.0117 16.1761L14.8395 16.5463L14.7603 16.1461L14.3553 16.0969L14.7153 15.8977L14.6361 15.4969L14.9361 15.7753L15.2925 15.5773L15.1209 15.9475L15.4209 16.2253L15.0117 16.1761Z" fill="white"/>
<path d="M10.6732 17.6467C10.6732 17.6467 13.2904 15.9596 12.298 13.2668C12.238 15.7868 10.2197 16.1318 10.2197 16.1318L10.1915 16.0226C10.8028 15.8532 11.3344 15.4729 11.6921 14.9491C12.0498 14.4252 12.2104 13.7917 12.1456 13.1606C12.0605 13.5235 11.8565 13.8474 11.5659 14.0807C11.2754 14.3141 10.9151 14.4434 10.5424 14.4482C10.5424 14.4482 8.4755 14.0726 8.02971 15.323C7.87857 15.7 7.75681 16.0882 7.66552 16.484C7.61496 16.621 7.53222 16.7439 7.42425 16.8422C7.31629 16.9406 7.18626 17.0115 7.04513 17.0491C6.79161 17.142 6.51845 17.1681 6.25195 17.1247C6.82662 17.6898 7.57279 18.0478 8.37312 18.1425C9.17345 18.2372 9.98257 18.0632 10.6732 17.6479M9.30528 16.4864L8.90389 16.4114L9.27228 16.2362L9.21948 15.8312L9.50027 16.1276L9.86806 15.953L9.67367 16.313L9.95386 16.61L9.55307 16.535L9.35808 16.895L9.30528 16.4864Z" fill="white"/>
<path d="M6.94177 13.0394C6.94177 13.0394 9.46531 14.8646 11.6121 12.9602C9.24451 13.8254 8.18854 12.065 8.18854 12.065L8.27974 11.9996C8.65937 12.5077 9.20675 12.8648 9.8247 13.0076C10.4426 13.1504 11.0912 13.0696 11.6553 12.7796C11.2865 12.8323 10.9106 12.7599 10.5878 12.5739C10.2651 12.3879 10.0139 12.0991 9.8745 11.7536C9.8745 11.7536 9.47191 9.69029 8.14534 9.72989C7.73922 9.72622 7.33343 9.7539 6.93157 9.81269C6.78571 9.81547 6.64131 9.78313 6.51058 9.71838C6.37984 9.65364 6.26659 9.5584 6.18039 9.4407C6.00134 9.23808 5.87737 8.99284 5.8204 8.72852C5.50351 9.46975 5.44162 10.2952 5.64446 11.0754C5.8473 11.8556 6.30339 12.5464 6.94117 13.0394M7.52496 11.3415L7.44876 10.9401L7.74875 11.2203L8.10874 11.0235L7.93415 11.3924L8.23414 11.6726L7.82975 11.6216L7.65575 11.99L7.57956 11.5892L7.17397 11.5388L7.52496 11.3415Z" fill="white"/>
<path d="M9.87219 7.63837C9.87219 7.63837 8.91821 10.6035 11.3931 12.0567C9.84039 10.0713 11.1838 8.52275 11.1838 8.52275L11.2738 8.58934C10.9085 9.10807 10.7387 9.73942 10.7946 10.3714C10.8505 11.0034 11.1285 11.5951 11.5791 12.0417C11.4143 11.7075 11.3662 11.3278 11.4423 10.9631C11.5184 10.5984 11.7144 10.2696 11.9991 10.0293C11.9991 10.0293 13.8351 9.00933 13.3863 7.75776C13.2641 7.37039 13.112 6.99307 12.9315 6.62919C12.8838 6.49115 12.8698 6.3437 12.8906 6.19914C12.9115 6.05458 12.9667 5.91711 13.0515 5.79821C13.1885 5.56572 13.3832 5.3725 13.6167 5.23723C12.8141 5.16517 12.0104 5.36179 11.3317 5.79619C10.6531 6.2306 10.138 6.87818 9.86739 7.63717M11.6613 7.66657L12.0213 7.47037L11.8473 7.83936L12.1473 8.11896L11.7423 8.06856L11.5689 8.43695L11.4957 8.03736L11.0902 7.98636L11.4501 7.78956L11.3739 7.38817L11.6613 7.66657Z" fill="white"/>
<path d="M15.9136 8.91075C15.9136 8.91075 12.8009 8.85075 12.1211 11.6383C13.5749 9.57913 15.4438 10.4221 15.4438 10.4221L15.406 10.5277C14.8044 10.3269 14.1512 10.3457 13.5622 10.5808C12.9731 10.8158 12.4864 11.2519 12.1883 11.8117C12.4612 11.5581 12.8111 11.4033 13.1823 11.3718C13.5534 11.3404 13.9244 11.4342 14.236 11.6383C14.236 11.6383 15.742 13.1046 16.8094 12.3157C17.1452 12.087 17.4629 11.8329 17.7598 11.5555C17.8783 11.4703 18.0156 11.415 18.16 11.3941C18.3044 11.3732 18.4517 11.3874 18.5895 11.4355C18.8518 11.5 19.0929 11.631 19.2897 11.8159C19.128 11.0264 18.7087 10.3129 18.0977 9.78742C17.4866 9.26195 16.7184 8.95423 15.9136 8.91255M16.4002 10.6399L16.6918 10.9267L16.288 10.8667L16.108 11.2327L16.0396 10.8307L15.637 10.7707L15.997 10.5823L15.9298 10.1791L16.2208 10.4665L16.5808 10.2769L16.4002 10.6399Z" fill="white"/>
</g>
</g>
<defs>
<clipPath id="clip0_8918_95332">
<rect width="24" height="23.9988" fill="white"/>
</clipPath>
</defs>
</svg>
