<svg width="24" height="24" viewBox="0 0 24 24" fill="none" xmlns="http://www.w3.org/2000/svg">
<g clip-path="url(#clip0_8918_95364)">
<mask id="mask0_8918_95364" style="mask-type:luminance" maskUnits="userSpaceOnUse" x="0" y="0" width="24" height="24">
<path d="M12.0015 0H11.7357C8.85562 0.0600015 7.37598 0.285607 6.00615 0.757219C4.67997 1.21237 3.48622 1.98697 2.53026 3.01268C1.73587 3.93412 1.12764 5.00082 0.739218 6.15375C0.282479 7.59843 0.0398962 9.10225 0.0192002 10.6173C-2.48111e-07 11.2137 0 11.2953 0 12.0009C0 12.7065 -2.48111e-07 12.7869 0.0192002 13.3809C0.0399412 14.8961 0.282522 16.4001 0.739218 17.845C1.12751 18.9975 1.73509 20.0639 2.52846 20.9855C3.48461 22.0109 4.67832 22.7852 6.00435 23.2404C7.37418 23.7126 8.85262 23.9388 11.7339 23.9982H12.2661C15.1462 23.9382 16.6264 23.7126 17.9963 23.2404C19.3222 22.7854 20.5157 22.011 21.4715 20.9855C22.2651 20.064 22.8727 18.9975 23.2608 17.845C23.7175 16.4001 23.96 14.8961 23.9808 13.3809C24 12.7845 24 12.7023 24 12.0009C24 11.2995 24 11.2137 23.9808 10.6173C23.9601 9.10225 23.7175 7.59844 23.2608 6.15375C22.8731 5.00086 22.2655 3.93412 21.4715 3.01268C20.5159 1.98687 19.3223 1.21223 17.9963 0.757219C16.6282 0.285607 15.1486 0.0594015 12.2679 0H12.0015Z" fill="white"/>
</mask>
<g mask="url(#mask0_8918_95364)">
<path d="M36.9173 -0.29541H0.00195312V4.62291H36.9173V-0.29541Z" fill="#002D99"/>
<path d="M36.9173 4.62305H0.00195312V9.54137H36.9173V4.62305Z" fill="white"/>
<path d="M36.9173 9.54053H0.00195312V14.4588H36.9173V9.54053Z" fill="#002D99"/>
<path d="M36.9173 14.459H0.00195312V19.3773H36.9173V14.459Z" fill="white"/>
<path d="M36.9173 19.3774H0.00195312V24.2958H36.9173V19.3774Z" fill="#002D99"/>
<path d="M-3.10156 -0.29541L18.1864 12.0001L-3.10156 24.2956V-0.29541Z" fill="#CC152A"/>
<path d="M7.12863 8.36865L7.96025 10.9133L10.6393 10.9175L8.47446 12.4944L9.29828 15.0414L7.12863 13.4712L4.95897 15.0414L5.78279 12.4944L3.61914 10.9175L6.29821 10.9133L7.12863 8.36865Z" fill="white"/>
</g>
</g>
<defs>
<clipPath id="clip0_8918_95364">
<rect width="24" height="23.9982" fill="white"/>
</clipPath>
</defs>
</svg>
