<svg width="24" height="24" viewBox="0 0 24 24" fill="none" xmlns="http://www.w3.org/2000/svg">
<g clip-path="url(#clip0_8918_95347)">
<mask id="mask0_8918_95347" style="mask-type:luminance" maskUnits="userSpaceOnUse" x="0" y="0" width="24" height="24">
<path d="M11.9994 0H11.7336C8.8536 0.0600075 7.3746 0.286836 6.0042 0.758495C4.67787 1.21302 3.48405 1.98757 2.5284 3.01358C1.73428 3.93567 1.12665 5.00313 0.7392 6.15677C0.28238 7.60178 0.0398021 9.10595 0.0191998 10.6213C-2.48104e-07 11.2166 0 11.2988 0 12.0015C0 12.7042 -2.48104e-07 12.7882 0.0191998 13.3817C0.0398903 14.8972 0.282466 16.4016 0.7392 17.8468C1.1273 18.9994 1.73489 20.066 2.5284 20.9876C3.48453 22.0131 4.6782 22.7875 6.0042 23.2427C7.3746 23.7144 8.853 23.9412 11.7336 24H12.2658C15.1458 23.94 16.626 23.7144 17.9958 23.2427C19.3217 22.7876 20.5152 22.0132 21.471 20.9876C22.2649 20.0662 22.8727 18.9996 23.2608 17.8468C23.7172 16.4015 23.9598 14.8972 23.9808 13.3817C24 12.7858 24 12.703 24 12.0015C24 11.3 24 11.2136 23.9808 10.6213C23.9599 9.10598 23.7173 7.60185 23.2608 6.15677C22.8731 5.00384 22.2653 3.93717 21.471 3.01598C20.5163 1.98804 19.3226 1.21177 17.9958 0.756095C16.626 0.286836 15.1458 0.0600075 12.2658 0H11.9994Z" fill="white"/>
</mask>
<g mask="url(#mask0_8918_95347)">
<path d="M38.445 -1.09668H-4.99805V27.8455H38.445V-1.09668Z" fill="#19307A"/>
<path d="M15.2877 5.81543L15.6387 6.89543H16.7727L15.8547 7.56263L16.2063 8.64263L15.2877 7.97483L14.3697 8.64263L14.7207 7.56263L13.8027 6.89543H14.9367L15.2877 5.81543Z" fill="#FF0000"/>
<path d="M15.2877 5.81543L15.6387 6.89543H16.7727L15.8547 7.56263L16.2063 8.64263L15.2877 7.97483L14.3697 8.64263L14.7207 7.56263L13.8027 6.89543H14.9367L15.2877 5.81543Z" stroke="white" stroke-miterlimit="10"/>
<path d="M10.974 -2.24414H-6.63477V9.47893H10.974V-2.24414Z" fill="#19307A"/>
<path d="M5.76065 5.92236H4.81445V6.42456L9.33785 9.47856H10.9741V9.47496L5.76065 5.92236Z" fill="white"/>
<path d="M6.69727 5.92236L10.9735 8.83836V8.50656L7.14607 5.92236H6.69727Z" fill="white"/>
<path d="M0.420587 5.92236L-3.38281 8.46816V9.46776L1.92059 5.92236H0.420587Z" fill="white"/>
<path d="M2.77798 5.98389L-2.44922 9.47829H-1.79702L2.77798 6.41829V5.98389Z" fill="white"/>
<path d="M1.00109 3.47562L-3.37891 0.541016V0.889616L0.452694 3.47562H1.00109Z" fill="white"/>
<path d="M7.16453 3.47512L10.9709 0.928116V-0.0756836L5.67773 3.47512H7.16453Z" fill="white"/>
<path d="M2.77652 3.4753V2.9725L-1.74328 -0.0791016H-3.36328L1.94552 3.4753H2.77652Z" fill="white"/>
<path d="M4.8131 3.4213L10.0331 -0.0791016H9.3845L4.8125 2.9809L4.8131 3.4213Z" fill="white"/>
<path d="M2.77679 5.92236H1.92059L-3.38281 9.46776V9.47856H-2.45041L2.77679 5.98416V5.92236Z" fill="#FF0102"/>
<path d="M4.81445 3.4753H5.67905L10.9741 -0.0755015V-0.0791016H10.0369L4.81685 3.4213L4.81445 3.4753Z" fill="#FF0102"/>
<path d="M5.75977 5.92236L10.9732 9.47496V8.83836L6.69697 5.92236H5.75977Z" fill="#FF0102"/>
<path d="M1.94759 3.4753L-3.36121 -0.0791016H-3.38281V0.540698L0.997188 3.4753H1.94759Z" fill="#FF0102"/>
<path d="M3.18179 5.42236H-3.38281V5.92156H2.77739V9.47836H3.18179V5.42236Z" fill="white"/>
<path d="M4.42773 3.95399H10.9743V3.47399H4.81413V-0.0786133H4.42773V3.95399Z" fill="white"/>
<path d="M4.81413 5.92205H10.9737V5.42285H4.42773V9.47825H4.81413V5.92205Z" fill="white"/>
<path d="M3.18179 3.95399V-0.0786133H2.77739V3.47519H-3.38281V3.95519L3.18179 3.95399Z" fill="white"/>
<path d="M4.42679 5.42239H10.9734V3.954H4.42679V-0.0791016H3.18119V3.954H-3.38281V5.42239H3.18119V9.47889H4.42679V5.42239Z" fill="#FF0102"/>
</g>
</g>
<defs>
<clipPath id="clip0_8918_95347">
<rect width="24" height="24" fill="white"/>
</clipPath>
</defs>
</svg>
