<svg width="32" height="32" viewBox="0 0 32 32" fill="none" xmlns="http://www.w3.org/2000/svg">
<g clip-path="url(#clip0_8918_95403)">
<mask id="mask0_8918_95403" style="mask-type:luminance" maskUnits="userSpaceOnUse" x="0" y="0" width="32" height="32">
<path d="M16.0012 0H15.646C11.8059 0.080002 9.83225 0.38161 8.0058 1.01043C6.23742 1.61661 4.64566 2.64921 3.37128 4.0169C2.31295 5.24569 1.5028 6.66795 0.985624 8.20501C0.376964 10.1313 0.0535281 12.1364 0.0256003 14.1564C-3.30814e-07 14.9516 0 15.0604 0 16.0004C0 16.9404 -3.30814e-07 17.0492 0.0256003 17.8404C0.0534707 19.8604 0.376908 21.8655 0.985624 23.7918C1.50333 25.3291 2.31342 26.7518 3.37128 27.9815C4.64635 29.3482 6.23791 30.3804 8.0058 30.9872C9.83225 31.6168 11.8043 31.9176 15.646 31.9976H16.3548C20.1949 31.9176 22.1686 31.6168 23.995 30.9872C25.7615 30.3805 27.3521 29.3495 28.6271 27.9847C29.6857 26.7556 30.4966 25.3335 31.0152 23.7966C31.6235 21.8702 31.9469 19.8652 31.9752 17.8452C32 17.0508 32 16.9412 32 16.0052C32 15.0692 32 14.9564 31.9752 14.1612C31.9469 12.1412 31.6234 10.1362 31.0152 8.20981C30.4978 6.67087 29.6868 5.24692 28.6271 4.0169C27.3531 2.64987 25.7623 1.61735 23.995 1.01043C22.1686 0.38161 20.1965 0.079202 16.3548 0H16.0012Z" fill="white"/>
</mask>
<g mask="url(#mask0_8918_95403)">
<path d="M19.5924 15.9998L11.3242 21.508H44.3978V10.4917H11.3242L19.5924 15.9998Z" fill="white"/>
<path d="M-5.21289 -0.523926L11.3243 10.4923H44.3979V-0.523926H-5.21289Z" fill="black"/>
<path d="M-5.21289 32.5241H44.3979V21.5078H11.3243L-5.21289 32.5241Z" fill="#007A3D"/>
<path d="M19.5925 15.9997L11.3243 10.4916L-5.21289 -0.523926V32.5233L11.3243 21.5078L19.5925 15.9997Z" fill="#CE1126"/>
<path d="M5.88635 13.6362L6.39916 14.9331L7.73359 14.5243L7.03838 15.7339L8.18961 16.5219L6.81037 16.7323L6.91117 18.1235L5.88635 17.1803L4.86152 18.1267L4.96312 16.7355L3.58789 16.5251L4.73912 15.7371L4.0439 14.5275L5.37754 14.9363L5.88635 13.6362Z" fill="white"/>
</g>
</g>
<defs>
<clipPath id="clip0_8918_95403">
<rect width="32" height="31.9976" fill="white"/>
</clipPath>
</defs>
</svg>
