<svg width="36" height="36" viewBox="0 0 36 36" fill="none" xmlns="http://www.w3.org/2000/svg">
<path d="M11.5895 29.0999C11.5598 29.1128 11.5294 29.1242 11.4985 29.1339L6.97654 30.5339C6.81992 30.5832 6.65269 30.5881 6.49344 30.5481C6.33419 30.5081 6.18916 30.4247 6.07446 30.3072C5.95976 30.1897 5.87988 30.0427 5.84371 29.8825C5.80753 29.7224 5.81647 29.5553 5.86954 29.3999L7.33954 25.2619C5.8144 23.1056 4.99641 20.529 4.99854 17.8879C4.97615 15.3121 5.71951 12.7876 7.13429 10.635C8.54907 8.48232 10.5715 6.7985 12.9449 5.79721C15.3182 4.79592 17.9356 4.5223 20.4647 5.01107C22.9939 5.49985 25.3208 6.72898 27.1502 8.54248C28.9796 10.356 30.229 12.6721 30.7399 15.1969C31.2507 17.7217 30.9999 20.3413 30.0194 22.7233C29.0389 25.1054 27.3728 27.1424 25.2326 28.5759C23.0923 30.0094 20.5745 30.7748 17.9985 30.7749C15.7536 30.7781 13.5459 30.2011 11.5895 29.0999Z" fill="#6EC4F6"/>
<path d="M17.9981 24.6958C17.7055 24.7123 17.4182 24.6124 17.1989 24.418C16.9796 24.2236 16.8459 23.9503 16.8271 23.6578V16.7338C16.8459 16.4413 16.9796 16.1681 17.1989 15.9737C17.4182 15.7793 17.7055 15.6794 17.9981 15.6958C18.2908 15.6794 18.5781 15.7793 18.7974 15.9737C19.0167 16.1681 19.1504 16.4413 19.1691 16.7338V23.6578C19.1504 23.9503 19.0167 24.2236 18.7974 24.418C18.5781 24.6124 18.2908 24.7123 17.9981 24.6958Z" fill="white"/>
<path d="M17.9994 14.242C17.6886 14.2376 17.3858 14.1421 17.1288 13.9671C16.8717 13.7922 16.6717 13.5457 16.5536 13.2581C16.4354 12.9705 16.4044 12.6545 16.4643 12.3494C16.5242 12.0443 16.6724 11.7636 16.8904 11.542C17.0343 11.3939 17.2063 11.2763 17.3965 11.196C17.5867 11.1158 17.791 11.0746 17.9974 11.075C18.41 11.0853 18.8022 11.2565 19.0903 11.552C19.3784 11.8474 19.5397 12.2438 19.5397 12.6565C19.5397 13.0691 19.3784 13.4655 19.0903 13.7609C18.8022 14.0564 18.41 14.2276 17.9974 14.238L17.9994 14.242Z" fill="white"/>
</svg>
