<svg width="36" height="36" viewBox="0 0 36 36" fill="none" xmlns="http://www.w3.org/2000/svg">
<path d="M28.8709 17.1061C28.5239 17.0596 28.1713 17.1322 27.8709 17.3121C27.9774 15.9208 28.0041 14.5245 27.9509 13.1301C27.9174 12.1357 27.6169 11.1685 27.0809 10.3301C26.1023 8.86917 24.817 7.63907 23.3145 6.72547C21.812 5.81188 20.1284 5.23675 18.3809 5.04013C17.7556 4.96456 17.1217 5.00284 16.5099 5.15313C14.2549 5.69113 8.54094 7.62713 7.84394 13.5341C7.68715 14.8299 7.64599 16.1371 7.72094 17.4401C7.52819 17.3875 7.32665 17.3752 7.12894 17.4041C6.01994 17.5721 5.30994 19.0151 5.54494 20.6281C5.77994 22.2411 6.86994 23.4141 7.97994 23.2461C8.33958 23.1855 8.66694 23.0016 8.90594 22.7261C9.06594 23.0941 9.22194 23.4061 9.35994 23.6561C9.61315 24.1076 9.92969 24.5204 10.2999 24.8821C11.38 26.0646 12.7365 26.9607 14.2479 27.4901C14.4209 29.5981 21.6869 29.4901 21.7669 27.2831C22.7583 26.9049 23.7007 26.409 24.5739 25.8061C25.2771 25.3269 25.8538 24.6846 26.2549 23.9341C26.5336 23.3952 26.7677 22.8343 26.9549 22.2571C27.0775 22.4396 27.2354 22.5956 27.4194 22.7158C27.6034 22.8361 27.8096 22.9181 28.0259 22.9571C29.1359 23.1241 30.2259 21.9571 30.4599 20.3391C30.6939 18.7211 29.9859 17.2831 28.8759 17.1151" fill="#FAD7C4"/>
<path d="M17.9061 28.8112C23.4019 28.8112 27.8571 24.356 27.8571 18.8602C27.8571 13.3644 23.4019 8.90918 17.9061 8.90918C12.4103 8.90918 7.95508 13.3644 7.95508 18.8602C7.95508 24.356 12.4103 28.8112 17.9061 28.8112Z" fill="#FAD7C4"/>
<path d="M12.6914 18.3683C12.6914 17.4913 13.1124 16.7803 13.6314 16.7803C14.1504 16.7803 14.5714 17.4913 14.5714 18.3683C14.5714 19.2453 14.1504 19.9563 13.6314 19.9563C13.1124 19.9563 12.6914 19.2453 12.6914 18.3683Z" fill="black"/>
<path d="M21.7773 18.3683C21.7773 17.4913 22.1983 16.7803 22.7173 16.7803C23.2363 16.7803 23.6573 17.4913 23.6573 18.3683C23.6573 19.2453 23.2363 19.9563 22.7173 19.9563C22.1983 19.9563 21.7773 19.2453 21.7773 18.3683Z" fill="black"/>
<path d="M20.4699 25.0532C20.4445 24.7779 20.3496 24.5135 20.194 24.2849C20.0384 24.0563 19.8274 23.871 19.5805 23.7464C19.3337 23.6217 19.0593 23.5618 18.783 23.5723C18.5067 23.5827 18.2376 23.6632 18.0009 23.8062C17.6673 23.6043 17.2725 23.5286 16.8879 23.5928C16.5033 23.657 16.1545 23.8568 15.9045 24.1561C15.6546 24.4553 15.5202 24.8342 15.5255 25.2241C15.5309 25.6139 15.6758 25.989 15.9339 26.2812C16.1404 26.5082 16.3028 26.7717 16.4129 27.0582C16.5252 27.3607 16.7247 27.6231 16.9861 27.8123C17.2476 28.0015 17.5592 28.1089 17.8817 28.121C18.2041 28.1331 18.5229 28.0493 18.7978 27.8802C19.0726 27.7112 19.2912 27.4645 19.4259 27.1712C19.5558 26.8745 19.7407 26.6051 19.9709 26.3772C20.1488 26.2082 20.2862 26.0011 20.3727 25.7715C20.4593 25.5419 20.4929 25.2956 20.4709 25.0512" fill="#6EC4F6"/>
<path d="M18.0019 30.3943C19.1501 30.3943 20.0809 29.4635 20.0809 28.3153C20.0809 27.1671 19.1501 26.2363 18.0019 26.2363C16.8537 26.2363 15.9229 27.1671 15.9229 28.3153C15.9229 29.4635 16.8537 30.3943 18.0019 30.3943Z" stroke="#0C629C" stroke-width="1.2"/>
<path d="M17.8694 10.8841C17.1503 10.8663 16.4676 10.5637 15.9714 10.0428C15.4753 9.52188 15.2062 8.8253 15.2234 8.10612C15.2062 7.38695 15.4753 6.69037 15.9714 6.16946C16.4676 5.64856 17.1503 5.34594 17.8694 5.32812" stroke="black" stroke-linecap="round" stroke-linejoin="round"/>
<path d="M18.0143 10.8831C18.9273 10.8831 19.6673 10.1059 19.6673 9.14713C19.6673 8.18837 18.9273 7.41113 18.0143 7.41113C17.1014 7.41113 16.3613 8.18837 16.3613 9.14713C16.3613 10.1059 17.1014 10.8831 18.0143 10.8831Z" stroke="black" stroke-linecap="round" stroke-linejoin="round"/>
</svg>
