<svg width="36" height="36" viewBox="0 0 36 36" fill="none" xmlns="http://www.w3.org/2000/svg">
<path d="M29.1706 31.0461L28.5636 25.9991C28.365 25.0082 27.8315 24.1159 27.0526 23.4721C26.627 23.0998 26.1196 22.8333 25.5716 22.6941L21.7506 21.5861C21.5941 21.5401 21.4544 21.4493 21.3489 21.3249C21.2433 21.2005 21.1765 21.048 21.1566 20.8861L20.9766 19.3711" stroke="white" stroke-width="1.5" stroke-miterlimit="10" stroke-linecap="round"/>
<path d="M12.5921 12.3281C12.2591 12.4733 11.9807 12.7203 11.7969 13.0337C11.6131 13.3471 11.5333 13.7106 11.5691 14.0721C11.5691 15.0281 12.0931 15.7861 12.7691 15.8481C13.1123 17.2352 13.8997 18.4721 15.0111 19.3701L14.8361 20.8811C14.8162 21.043 14.7494 21.1956 14.6438 21.32C14.5383 21.4443 14.3986 21.5351 14.2421 21.5811L10.4351 22.6811C9.88268 22.8197 9.371 23.0874 8.94212 23.4621C8.16301 24.1091 7.63048 25.0046 7.43413 25.9981L6.82812 31.0451" stroke="white" stroke-width="1.5" stroke-miterlimit="10" stroke-linecap="round"/>
<path d="M23.4056 12.3281C23.7376 12.4739 24.0151 12.721 24.1981 13.0341C24.3812 13.3472 24.4604 13.7102 24.4246 14.0711C24.4246 15.0261 23.9046 15.7841 23.2246 15.8471C22.8799 17.2354 22.0904 18.4727 20.9766 19.3701L21.1516 20.8811C21.1715 21.043 21.2383 21.1956 21.3439 21.32C21.4494 21.4443 21.5891 21.5351 21.7456 21.5811L25.5526 22.6811C26.105 22.8197 26.6167 23.0874 27.0456 23.4621C27.825 24.106 28.359 24.9988 28.5576 25.9901L29.1646 31.0371" stroke="white" stroke-width="1.5" stroke-miterlimit="10" stroke-linecap="round"/>
<path d="M21.8065 21.7266L20.3205 23.0486C19.6806 23.6218 18.8516 23.9388 17.9925 23.9388C17.1334 23.9388 16.3044 23.6218 15.6645 23.0486L14.1875 21.7266" stroke="white" stroke-width="1.5" stroke-linecap="round" stroke-linejoin="round"/>
<path d="M12.5894 12.3298C12.5305 11.2624 12.6436 10.1924 12.9244 9.16083C12.9244 9.16083 13.9744 5.04883 17.9964 5.04883C22.0184 5.04883 23.0674 9.16083 23.0674 9.16083C23.3482 10.1924 23.4613 11.2624 23.4024 12.3298" stroke="white" stroke-width="1.5" stroke-miterlimit="10" stroke-linecap="round"/>
<path d="M14.743 8.91145C17.415 8.45789 16.696 9.9739 18.4357 9.09714C20.4146 8.39569 20.6792 8.95358 21.4595 9.46304" stroke="white" stroke-width="1.5" stroke-miterlimit="10" stroke-linecap="round"/>
</svg>
