<svg width="60" height="60" viewBox="0 0 60 60" fill="none" xmlns="http://www.w3.org/2000/svg">
<path d="M41 0H13C8.58172 0 5 3.58172 5 8V44C5 48.4183 8.58172 52 13 52H41C45.4183 52 49 48.4183 49 44V8C49 3.58172 45.4183 0 41 0Z" fill="#E5F7EC"/>
<path d="M39 12H15C13.8954 12 13 12.8954 13 14C13 15.1046 13.8954 16 15 16H39C40.1046 16 41 15.1046 41 14C41 12.8954 40.1046 12 39 12Z" fill="#C0EAD0"/>
<path d="M28 22H15C13.8954 22 13 22.8954 13 24C13 25.1046 13.8954 26 15 26H28C29.1046 26 30 25.1046 30 24C30 22.8954 29.1046 22 28 22Z" fill="#C0EAD0"/>
<path d="M54.8842 33.829C54.5142 33.72 53.2322 33.336 51.4922 32.729C47.849 31.4985 44.335 29.9146 41.0002 28C36.5672 30.4713 31.8712 32.4379 27.0002 33.863V43.463C26.9895 45.6891 27.4951 47.8873 28.4772 49.885C29.1116 51.1696 29.915 52.3635 30.8662 53.435C33.6596 56.4153 37.1383 58.6689 41.0002 60C41.0002 60 55.0002 55.652 55.0002 43.467V33.867L54.8842 33.833" fill="#19973C"/>
<path d="M40.9782 38.9438C40.3297 38.9438 39.6957 39.1362 39.1565 39.4965C38.6173 39.8568 38.197 40.3689 37.9488 40.968C37.7006 41.5672 37.6357 42.2265 37.7622 42.8625C37.8887 43.4986 38.201 44.0829 38.6596 44.5415C39.1182 45 39.7025 45.3123 40.3385 45.4388C40.9746 45.5654 41.6339 45.5004 42.233 45.2522C42.8322 45.0041 43.3443 44.5838 43.7046 44.0446C44.0649 43.5053 44.2572 42.8714 44.2572 42.2228C44.2562 41.3535 43.9104 40.5201 43.2957 39.9054C42.681 39.2907 41.8475 38.9449 40.9782 38.9438ZM40.9782 44.3438C40.5586 44.3435 40.1485 44.2186 39.7997 43.9852C39.451 43.7517 39.1794 43.4201 39.0191 43.0323C38.8588 42.6444 38.8171 42.2178 38.8993 41.8063C38.9815 41.3948 39.1839 41.0168 39.4808 40.7203C39.7777 40.4238 40.1559 40.222 40.5676 40.1404C40.9792 40.0588 41.4058 40.101 41.7934 40.2619C42.181 40.4227 42.5123 40.6948 42.7452 41.0439C42.9782 41.3929 43.1024 41.8032 43.1022 42.2228C43.1017 42.7855 42.878 43.3249 42.4801 43.7227C42.0823 44.1206 41.5428 44.3443 40.9802 44.3448" fill="white"/>
<path d="M46.5095 42.3C46.4914 42.2533 46.4914 42.2016 46.5095 42.155L46.8695 41.209C46.9787 40.9186 46.9859 40.5998 46.8902 40.3047C46.7945 40.0097 46.6014 39.7559 46.3425 39.585L45.4955 39.031C45.454 39.0037 45.424 38.962 45.4115 38.914L45.1475 37.937C45.0655 37.6382 44.8841 37.3763 44.6332 37.1944C44.3824 37.0126 44.077 36.9218 43.7675 36.937L42.7555 36.979C42.7065 36.98 42.6586 36.9645 42.6195 36.935L41.8325 36.3C41.5903 36.1061 41.2893 36.0005 40.979 36.0005C40.6688 36.0005 40.3678 36.1061 40.1255 36.3L39.3395 36.934C39.2996 36.9641 39.2506 36.98 39.2005 36.979L38.1925 36.929C37.883 36.9143 37.5778 37.0053 37.3268 37.187C37.0759 37.3687 36.8942 37.6304 36.8115 37.929L36.5475 38.906C36.5348 38.9542 36.5045 38.9959 36.4625 39.023L35.6155 39.577C35.3569 39.7479 35.1639 40.0015 35.0682 40.2963C34.9725 40.5911 34.9796 40.9097 35.0885 41.2L35.4485 42.146C35.4667 42.1926 35.4667 42.2443 35.4485 42.291L35.0885 43.237C34.9785 43.5278 34.9708 43.8475 35.0666 44.1434C35.1624 44.4392 35.3559 44.6937 35.6155 44.865L36.4625 45.419C36.5041 45.4462 36.534 45.4879 36.5465 45.536L36.8105 46.513C36.8698 46.7299 36.9819 46.9288 37.1369 47.0918C37.2918 47.2548 37.4848 47.3768 37.6985 47.447V51.154C37.6985 51.2517 37.7232 51.3479 37.7704 51.4336C37.8175 51.5192 37.8856 51.5915 37.9683 51.6438C38.051 51.696 38.1455 51.7264 38.2431 51.7322C38.3408 51.738 38.4382 51.719 38.5265 51.677L40.9805 50.508L43.4305 51.676C43.5187 51.718 43.6161 51.737 43.7136 51.7312C43.8112 51.7255 43.9057 51.6951 43.9883 51.643C44.0709 51.5909 44.1391 51.5188 44.1863 51.4332C44.2336 51.3477 44.2584 51.2517 44.2585 51.154V47.454C44.4726 47.3837 44.6659 47.2614 44.8211 47.0981C44.9762 46.9347 45.0884 46.7354 45.1475 46.518L45.4115 45.541C45.424 45.4923 45.4544 45.4502 45.4965 45.423L46.3425 44.87C46.6012 44.6989 46.7942 44.4451 46.8899 44.1501C46.9857 43.8551 46.9785 43.5363 46.8695 43.246L46.5095 42.3ZM41.2315 49.344C41.1534 49.3067 41.068 49.2874 40.9815 49.2874C40.895 49.2874 40.8096 49.3067 40.7315 49.344L38.8555 50.237V47.484L39.1995 47.467C39.2489 47.4652 39.2974 47.4808 39.3365 47.511L40.1235 48.147C40.3658 48.3406 40.6668 48.4461 40.977 48.4461C41.2872 48.4461 41.5882 48.3406 41.8305 48.147L42.6185 47.512C42.6571 47.4808 42.706 47.4651 42.7555 47.468L43.0995 47.485V50.238L41.2315 49.344ZM45.7085 43.9L44.8625 44.454C44.5825 44.6362 44.3795 44.9154 44.2925 45.238L44.0285 46.215C44.0151 46.2587 43.9879 46.297 43.951 46.3241C43.914 46.3511 43.8693 46.3654 43.8235 46.365L42.8135 46.314C42.4798 46.2954 42.1513 46.4024 41.8925 46.614L41.1045 47.249C41.0688 47.2781 41.0241 47.294 40.978 47.294C40.9319 47.294 40.8872 47.2781 40.8515 47.249L40.0645 46.613C39.8225 46.4182 39.5211 46.3124 39.2105 46.313H39.1425L38.1325 46.364C38.0868 46.3643 38.0421 46.3499 38.0052 46.3229C37.9683 46.2958 37.9411 46.2577 37.9275 46.214L37.6635 45.237C37.5787 44.9147 37.3783 44.6349 37.1005 44.451L36.2495 43.9C36.2109 43.8743 36.1821 43.8363 36.1678 43.7922C36.1535 43.7481 36.1544 43.7004 36.1705 43.657L36.5315 42.711C36.6502 42.3992 36.6502 42.0547 36.5315 41.743L36.1715 40.797C36.1552 40.7535 36.1542 40.7058 36.1685 40.6616C36.1829 40.6175 36.2118 40.5795 36.2505 40.554L37.0955 40C37.3751 39.8174 37.5776 39.5383 37.6645 39.216L37.9285 38.239C37.9414 38.1946 37.9686 38.1559 38.0059 38.1287C38.0432 38.1016 38.0884 38.0876 38.1345 38.089L39.1435 38.139C39.4771 38.1547 39.805 38.048 40.0655 37.839L40.8525 37.2C40.8882 37.1708 40.9329 37.1549 40.979 37.1549C41.0251 37.1549 41.0698 37.1708 41.1055 37.2L41.8935 37.835C42.1535 38.0443 42.4812 38.151 42.8145 38.135L43.8245 38.085C43.8705 38.0836 43.9156 38.0977 43.9527 38.1248C43.9899 38.152 44.0169 38.1907 44.0295 38.235L44.2935 39.212C44.3796 39.5357 44.5823 39.8163 44.8625 40L45.7085 40.553C45.7471 40.5787 45.7758 40.6167 45.7899 40.6608C45.8041 40.705 45.8029 40.7526 45.7865 40.796L45.4265 41.742C45.3082 42.0538 45.3082 42.3981 45.4265 42.71L45.7865 43.656C45.804 43.6994 45.8057 43.7477 45.7913 43.7923C45.7768 43.8369 45.7472 43.875 45.7075 43.9" fill="white"/>
</svg>
