<svg width="36" height="36" viewBox="0 0 36 36" fill="none" xmlns="http://www.w3.org/2000/svg">
<path d="M5.27344 23.3594C5.27344 23.3594 6.51944 25.1384 9.76444 25.1384" stroke="white" stroke-width="1.5" stroke-linecap="round" stroke-linejoin="round"/>
<path d="M7.00391 19.7891C7.30056 20.1426 7.67123 20.4267 8.08974 20.6213C8.50825 20.8159 8.96438 20.9161 9.42591 20.9151" stroke="white" stroke-width="1.5" stroke-linecap="round" stroke-linejoin="round"/>
<path d="M6.94141 19.6487C8.50441 14.1677 10.4044 12.0518 11.5914 11.2368C11.7889 11.1026 12.0112 11.0091 12.2452 10.962C12.4793 10.9148 12.7204 10.9148 12.9545 10.962C13.1885 11.0093 13.4108 11.1027 13.6083 11.237C13.8057 11.3712 13.9744 11.5435 14.1044 11.7438C14.409 12.2547 14.6581 12.7968 14.8474 13.3607C14.9487 13.6527 15.0397 13.9471 15.1204 14.2437L15.8714 13.6437C16.2239 13.327 16.4982 12.933 16.6729 12.4925C16.8476 12.052 16.918 11.577 16.8784 11.1048V5.21875" stroke="white" stroke-width="1.5" stroke-linecap="round" stroke-linejoin="round"/>
<path d="M6.93767 19.6487C6.93767 19.6487 2.41667 27.1647 6.50267 28.8617C6.91617 29.0263 7.35764 29.1092 7.80267 29.1057C9.07971 29.0871 10.3547 28.997 11.6217 28.8357C12.3517 28.6954 13.0231 28.3403 13.5501 27.816C14.0771 27.2917 14.4356 26.622 14.5797 25.8927C15.2566 23.2696 15.6017 20.5718 15.6067 17.8627C15.6067 17.8087 15.6067 17.7477 15.6007 17.6827C15.5822 17.2414 15.669 16.8019 15.8541 16.4007C16.0391 15.9996 16.3169 15.6482 16.6647 15.3757C17.0458 15.0772 17.5165 14.9158 18.0007 14.9177" stroke="white" stroke-width="1.5" stroke-linecap="round" stroke-linejoin="round"/>
<path d="M30.7293 23.3594C30.7293 23.3594 29.4813 25.1424 26.2383 25.1424" stroke="white" stroke-width="1.5" stroke-linecap="round" stroke-linejoin="round"/>
<path d="M29.0001 19.7891C28.7035 20.1427 28.3329 20.4268 27.9143 20.6214C27.4958 20.816 27.0397 20.9162 26.5781 20.9151" stroke="white" stroke-width="1.5" stroke-linecap="round" stroke-linejoin="round"/>
<path d="M29.061 19.6487C27.497 14.1677 25.601 12.0488 24.411 11.2368C24.2134 11.1021 23.9909 11.0083 23.7565 10.9608C23.5221 10.9134 23.2807 10.9133 23.0463 10.9605C22.8118 11.0078 22.5892 11.1014 22.3915 11.2359C22.1938 11.3704 22.025 11.5431 21.895 11.7438C21.5914 12.2552 21.3433 12.7976 21.155 13.3617C21.0537 13.6537 20.9627 13.9481 20.882 14.2448L20.131 13.6447C19.7785 13.328 19.5042 12.934 19.3295 12.4935C19.1548 12.053 19.0844 11.578 19.124 11.1058V5.21875" stroke="white" stroke-width="1.5" stroke-linecap="round" stroke-linejoin="round"/>
<path d="M18 14.918C18.4814 14.9179 18.949 15.0791 19.328 15.376C19.6757 15.6485 19.9536 15.9998 20.1386 16.401C20.3236 16.8021 20.4105 17.2416 20.392 17.683C20.392 17.747 20.392 17.808 20.386 17.863C20.3898 20.5721 20.7349 23.27 21.413 25.893C21.5571 26.6222 21.9156 27.2919 22.4426 27.8162C22.9695 28.3405 23.641 28.6956 24.371 28.836C25.638 28.9972 26.913 29.0874 28.19 29.106C28.6351 29.1096 29.0767 29.0264 29.49 28.861C33.576 27.161 29.055 19.649 29.055 19.649" stroke="white" stroke-width="1.5" stroke-linecap="round" stroke-linejoin="round"/>
</svg>
