<svg width="24" height="24" viewBox="0 0 24 24" fill="none" xmlns="http://www.w3.org/2000/svg">
<path d="M14.222 20.707C14.0345 20.8945 13.7802 20.9999 13.515 21H11.5V18.985C11.5001 18.7198 11.6055 18.4655 11.793 18.278L18.562 11.504C18.8848 11.1812 19.3225 10.9999 19.779 10.9999C20.2355 10.9999 20.6732 11.1812 20.996 11.504C21.3188 11.8267 21.5001 12.2645 21.5001 12.721C21.5001 13.1774 21.3188 13.6152 20.996 13.938L14.222 20.707Z" stroke="#111111" stroke-width="1.5" stroke-linecap="round" stroke-linejoin="round"/>
<path d="M16.064 14.009L18.494 16.439" stroke="#111111" stroke-width="1.5" stroke-linecap="round" stroke-linejoin="round"/>
<path d="M20.2181 14.715L21.1181 15.615C21.3456 15.8429 21.4734 16.1519 21.4734 16.474C21.4734 16.7961 21.3456 17.105 21.1181 17.333L19.4771 18.974" stroke="#111111" stroke-width="1.5" stroke-linecap="round" stroke-linejoin="round"/>
<path d="M6.5 9H12.5" stroke="#111111" stroke-width="1.5" stroke-linecap="round" stroke-linejoin="round"/>
<path d="M6.5 13H10.5" stroke="#111111" stroke-width="1.5" stroke-linecap="round" stroke-linejoin="round"/>
<path d="M8.5 21H5.5C4.70435 21 3.94129 20.6839 3.37868 20.1213C2.81607 19.5587 2.5 18.7956 2.5 18V6C2.5 5.20435 2.81607 4.44129 3.37868 3.87868C3.94129 3.31607 4.70435 3 5.5 3H17.5C18.2956 3 19.0587 3.31607 19.6213 3.87868C20.1839 4.44129 20.5 5.20435 20.5 6V8" stroke="#111111" stroke-width="1.5" stroke-linecap="round" stroke-linejoin="round"/>
</svg>
