<svg width="24" height="24" viewBox="0 0 24 24" fill="none" xmlns="http://www.w3.org/2000/svg">
<path fill-rule="evenodd" clip-rule="evenodd" d="M15.2851 9.75224C15.5716 9.46578 15.5716 9.00132 15.2851 8.71485C14.9987 8.42838 14.5342 8.42838 14.2478 8.71485L12 10.9626L9.75224 8.71485C9.46578 8.42838 9.00132 8.42838 8.71485 8.71485C8.42838 9.00132 8.42838 9.46578 8.71485 9.75224L10.9626 12L8.71485 14.2478C8.42838 14.5342 8.42838 14.9987 8.71485 15.2851C9.00132 15.5716 9.46578 15.5716 9.75224 15.2851L12 13.0374L14.2478 15.2851C14.5342 15.5716 14.9987 15.5716 15.2851 15.2851C15.5716 14.9987 15.5716 14.5342 15.2851 14.2478L13.0374 12L15.2851 9.75224Z" fill="#111111"/>
<path d="M22 12C22 6.47715 17.5228 2 12 2C6.47715 2 2 6.47715 2 12C2 17.5228 6.47715 22 12 22C17.5228 22 22 17.5228 22 12Z" stroke="#111111" stroke-width="1.5" stroke-linecap="round" stroke-linejoin="round"/>
</svg>
