<svg width="24" height="24" viewBox="0 0 24 24" fill="none" xmlns="http://www.w3.org/2000/svg">
<path d="M19 21C19.5304 21 20.0391 20.7893 20.4142 20.4142C20.7893 20.0391 21 19.5304 21 19V10.693C21.0002 10.2377 20.8968 9.78827 20.6975 9.37886C20.4983 8.96945 20.2084 8.61076 19.85 8.32998L13.85 3.63698C13.322 3.2234 12.6707 2.99866 12 2.99866C11.3293 2.99866 10.678 3.2234 10.15 3.63698L4.15 8.32998C3.79156 8.61076 3.50174 8.96945 3.30249 9.37886C3.10324 9.78827 2.9998 10.2377 3 10.693V19C3 19.5304 3.21071 20.0391 3.58579 20.4142C3.96086 20.7893 4.46957 21 5 21H19Z" stroke="#111111" stroke-width="1.5" stroke-linecap="round" stroke-linejoin="round"/>
<path d="M9 21V14C9 13.7348 9.10536 13.4804 9.29289 13.2929C9.48043 13.1054 9.73478 13 10 13H14C14.2652 13 14.5196 13.1054 14.7071 13.2929C14.8946 13.4804 15 13.7348 15 14V21" stroke="#111111" stroke-width="1.5" stroke-linecap="round" stroke-linejoin="round"/>
</svg>
