<svg width="32" height="32" viewBox="0 0 32 32" fill="none" xmlns="http://www.w3.org/2000/svg">
<path d="M25.2804 7.71291C24.6827 7.05459 23.9612 6.52047 23.1571 6.14101C22.353 5.76156 21.482 5.54423 20.5939 5.50143C19.7058 5.45862 18.818 5.59114 17.9811 5.8915C17.1442 6.19186 16.3746 6.65413 15.7164 7.25191L15.4755 7.46896L15.2344 7.25191C13.9645 6.09728 12.3033 5.46856 10.5872 5.49313C8.87104 5.51769 7.22847 6.19373 5.99219 7.38424C4.75591 8.57474 4.01834 10.1907 3.92908 11.9047C3.83982 13.6187 4.40555 15.3025 5.51148 16.615C5.70434 16.8482 5.91272 17.068 6.13538 17.2729L15.4784 25.758L24.8214 17.2729C25.0435 17.0671 25.2523 16.8473 25.4464 16.615C26.5007 15.3623 27.0648 13.7698 27.0343 12.1328C27.0038 10.4958 26.3806 8.92541 25.2804 7.71291Z" fill="#EC6A6A"/>
</svg>
