<svg width="24" height="24" viewBox="0 0 24 24" fill="none" xmlns="http://www.w3.org/2000/svg">
<path d="M21.5 6.5L20.465 14.2122C20.4355 14.5448 20.2669 14.8574 19.9899 15.0936C19.7129 15.3298 19.3456 15.4739 18.9544 15.5H9.04559C8.65427 15.4741 8.28677 15.33 8.00955 15.0938C7.73234 14.8576 7.56369 14.5449 7.53412 14.2122L6.5 6.5" stroke="#111111" stroke-width="1.5" stroke-miterlimit="10" stroke-linecap="round"/>
<path d="M6.5 6.5L21.5 6.5" stroke="#111111" stroke-width="1.5" stroke-miterlimit="10" stroke-linecap="round"/>
<path d="M6.73544 3.85291C6.6542 3.44674 6.25908 3.18333 5.85291 3.26456C5.44674 3.3458 5.18333 3.74092 5.26456 4.14709L6 4L6.73544 3.85291ZM6.5 6.5L7.23544 6.35291L6.73544 3.85291L6 4L5.26456 4.14709L5.76456 6.64709L6.5 6.5Z" fill="#111111"/>
<path d="M3 3.25C2.58579 3.25 2.25 3.58579 2.25 4C2.25 4.41421 2.58579 4.75 3 4.75V4V3.25ZM6 4V3.25H3V4V4.75H6V4Z" fill="#111111"/>
<path d="M10 20.5C10.8284 20.5 11.5 19.8284 11.5 19C11.5 18.1716 10.8284 17.5 10 17.5C9.17157 17.5 8.5 18.1716 8.5 19C8.5 19.8284 9.17157 20.5 10 20.5Z" stroke="#111111" stroke-width="1.5" stroke-miterlimit="10"/>
<path d="M18 20.5C18.8284 20.5 19.5 19.8284 19.5 19C19.5 18.1716 18.8284 17.5 18 17.5C17.1716 17.5 16.5 18.1716 16.5 19C16.5 19.8284 17.1716 20.5 18 20.5Z" stroke="#111111" stroke-width="1.5" stroke-miterlimit="10"/>
</svg>
