<svg width="36" height="36" viewBox="0 0 36 36" fill="none" xmlns="http://www.w3.org/2000/svg">
<path d="M8.4623 28.9809C8.4623 28.1039 8.4443 26.8319 8.5393 25.8529C8.5552 25.692 8.61862 25.5395 8.72147 25.4147C8.82433 25.2899 8.96197 25.1986 9.1169 25.1523C9.27182 25.1059 9.43702 25.1068 9.59148 25.1546C9.74594 25.2025 9.88268 25.2952 9.9843 25.4209C10.2973 25.8139 10.6163 26.1739 10.9333 26.5049C12.5202 28.1885 14.6221 29.2962 16.9078 29.6536C19.1936 30.011 21.5333 29.5977 23.5583 28.4789C29.0683 25.3529 30.2493 18.4259 30.2493 18.4259C31.3493 12.8949 28.7593 9.93894 27.2083 8.96694C26.445 8.48487 25.5521 8.24858 24.6503 8.28994C24.0428 8.28671 23.4522 8.49015 22.9756 8.86685C22.4989 9.24354 22.1645 9.77111 22.0273 10.3629C21.9813 10.5258 21.8867 10.6708 21.7562 10.7786C21.6257 10.8864 21.4654 10.9519 21.2968 10.9663C21.1281 10.9808 20.9591 10.9435 20.8121 10.8595C20.6652 10.7754 20.5474 10.6486 20.4743 10.4959C19.9026 9.26401 19.6133 7.91997 19.6273 6.56194V6.21094" stroke="white" stroke-width="1.5" stroke-miterlimit="10" stroke-linecap="round"/>
<path d="M10.2695 17.5419V20.4999C10.2705 20.7471 10.3398 20.9893 10.4699 21.1995C10.6 21.4097 10.7857 21.5798 11.0065 21.6909C11.7908 22.0987 12.6165 22.4212 13.4695 22.6529C14.1246 22.8682 14.8199 22.9326 15.5033 22.8415C16.1868 22.7504 16.8409 22.5061 17.4167 22.1268C17.9926 21.7474 18.4753 21.243 18.8288 20.651C19.1824 20.059 19.3976 19.3948 19.4585 18.7079C19.5471 17.2841 19.2353 15.8638 18.5585 14.6079C17.3921 12.4114 16.7101 9.99034 16.5585 7.50794V6.21094" stroke="white" stroke-width="1.5" stroke-miterlimit="10" stroke-linecap="round"/>
<path d="M5.48828 28.98V25.21C5.49555 24.5438 5.66287 23.889 5.97613 23.301C6.28939 22.7129 6.73942 22.2088 7.28828 21.831C7.46559 21.7032 7.61018 21.5353 7.71028 21.3411C7.81038 21.1468 7.86315 20.9316 7.86428 20.713V17.541" stroke="white" stroke-width="1.5" stroke-miterlimit="10" stroke-linecap="round"/>
</svg>
