<svg width="36" height="36" viewBox="0 0 36 36" fill="none" xmlns="http://www.w3.org/2000/svg">
<path d="M26.342 30H11V6.00004H26.342C27.0029 5.95966 27.6529 6.18194 28.1507 6.61849C28.6485 7.05505 28.9538 7.67055 29 8.33104V27.669C28.9538 28.3295 28.6485 28.945 28.1507 29.3816C27.6529 29.8181 27.0029 30.0404 26.342 30Z" fill="#6EC4F6"/>
<path d="M11 6H7V30H11V6Z" fill="#0C629C"/>
<path d="M24.365 13.5649H14.586C14.263 13.5649 14 13.4109 14 13.2209V10.9089C14 10.7189 14.263 10.5649 14.586 10.5649H24.365C24.689 10.5649 24.951 10.7189 24.951 10.9089V13.2209C24.951 13.4109 24.689 13.5649 24.365 13.5649Z" fill="white"/>
</svg>
