<svg width="24" height="24" viewBox="0 0 24 24" fill="none" xmlns="http://www.w3.org/2000/svg">
<path d="M15.7211 18.876V19.048C15.7211 19.4193 15.5736 19.7754 15.3111 20.0379C15.0485 20.3005 14.6924 20.448 14.3211 20.448H4.09312C3.72181 20.448 3.36572 20.3005 3.10317 20.0379C2.84061 19.7754 2.69312 19.4193 2.69312 19.048V5.09299C2.69312 4.72169 2.84061 4.36559 3.10317 4.10304C3.36572 3.84049 3.72181 3.69299 4.09312 3.69299H14.3261C14.6974 3.69299 15.0535 3.84049 15.3161 4.10304C15.5786 4.36559 15.7261 4.72169 15.7261 5.09299V13.93" stroke="#111111" stroke-width="1.5" stroke-linecap="round" stroke-linejoin="round"/>
<path d="M15.7212 9.27905H16.9212C17.3542 9.27883 17.7812 9.37985 18.1682 9.57405L18.7762 9.87405C19.2107 10.091 19.5809 10.4178 19.8502 10.8221L21.2992 12.9961" stroke="#111111" stroke-width="1.5" stroke-linecap="round" stroke-linejoin="round"/>
<path d="M15.7202 13.931L13.5102 11.583C13.2658 11.3314 12.9366 11.1796 12.5866 11.1573C12.2365 11.1349 11.8906 11.2436 11.6163 11.4621C11.3419 11.6806 11.1586 11.9934 11.102 12.3395C11.0454 12.6857 11.1196 13.0406 11.3102 13.335L14.0892 17.515C14.5481 18.2046 15.2237 18.7215 16.0092 18.984L20.3762 20.443" stroke="#111111" stroke-width="1.5" stroke-linecap="round" stroke-linejoin="round"/>
<path d="M17.1162 13.9301H15.7212" stroke="#111111" stroke-width="1.5" stroke-linecap="round" stroke-linejoin="round"/>
<path d="M5.48804 13.465H7.34804" stroke="#111111" stroke-width="1.5" stroke-linecap="round" stroke-linejoin="round"/>
<path d="M5.48804 16.256H9.20904" stroke="#111111" stroke-width="1.5" stroke-linecap="round" stroke-linejoin="round"/>
<path d="M12 6.48804L9.20904 9.27904L7.34804 8.34804L5.48804 10.209" stroke="#111111" stroke-width="1.5" stroke-linecap="round" stroke-linejoin="round"/>
</svg>
