<svg width="24" height="24" viewBox="0 0 24 24" fill="none" xmlns="http://www.w3.org/2000/svg">
<path d="M12.2528 11.006C13.4971 11.006 14.5058 9.9973 14.5058 8.753C14.5058 7.5087 13.4971 6.5 12.2528 6.5C11.0085 6.5 9.99976 7.5087 9.99976 8.753C9.99976 9.9973 11.0085 11.006 12.2528 11.006Z" stroke="#D3D3D3" stroke-width="1.5" stroke-linecap="round" stroke-linejoin="round"/>
<path d="M15.9418 16.379C15.7708 15.6826 15.4768 15.0222 15.0739 14.429C14.8255 14.0165 14.4803 13.6708 14.0682 13.4218C13.6561 13.1728 13.1895 13.028 12.7089 13H11.2918C10.8111 13.028 10.3446 13.1728 9.9325 13.4218C9.5204 13.6708 9.1752 14.0165 8.92682 14.429C8.5235 15.0222 8.22926 15.6825 8.05786 16.379" stroke="#D3D3D3" stroke-width="1.5" stroke-linecap="round" stroke-linejoin="round"/>
<path d="M21 12.613C21 17.054 15.774 20.353 13.283 21.678C12.8893 21.8888 12.4496 21.9991 12.003 21.9991C11.5564 21.9991 11.1167 21.8888 10.723 21.678C8.23198 20.354 3.00099 17.047 3.00099 12.611V6.19803C2.99943 5.91338 3.1016 5.63788 3.28841 5.4231C3.47522 5.20831 3.73386 5.06895 4.01598 5.03104C6.41874 4.83484 8.71337 3.94746 10.623 2.47601C11.0158 2.16685 11.5011 1.99878 12.001 1.99878C12.5009 1.99878 12.9862 2.16685 13.379 2.47601C15.2886 3.94746 17.5832 4.83484 19.986 5.03104C20.2683 5.06922 20.527 5.20898 20.7136 5.42416C20.9003 5.63935 21.0021 5.91517 21 6.20001V12.613Z" stroke="#D3D3D3" stroke-width="1.5" stroke-linecap="round" stroke-linejoin="round"/>
</svg>
