<svg width="32" height="32" viewBox="0 0 32 32" fill="none" xmlns="http://www.w3.org/2000/svg">
<path d="M16.31 9.38696H15.69C9.227 9.43096 4 15.404 4 22.768V24.49C4 27.257 5.971 29.5 8.4 29.5H23.6C26.032 29.5 28 27.257 28 24.49V22.768C28 15.404 22.773 9.42996 16.31 9.38696Z" fill="#EB6195"/>
<path d="M18.9409 6.99102H13.0579L11.5939 3.76702C11.5325 3.62957 11.5065 3.47892 11.5184 3.32886C11.5303 3.1788 11.5797 3.03412 11.662 2.90807C11.7442 2.78201 11.8568 2.67861 11.9894 2.60732C12.122 2.53603 12.2703 2.49914 12.4209 2.50002H19.5809C19.7313 2.49931 19.8795 2.53633 20.012 2.60768C20.1444 2.67904 20.2569 2.78246 20.339 2.90849C20.4212 3.03452 20.4704 3.17913 20.4823 3.32911C20.4941 3.47909 20.4682 3.62965 20.4069 3.76702L18.9409 6.99102Z" fill="#EB6195"/>
<path d="M19.25 6.73999H12.75C12.1977 6.73999 11.75 7.18771 11.75 7.73999V8.93999C11.75 9.49227 12.1977 9.93999 12.75 9.93999H19.25C19.8023 9.93999 20.25 9.49227 20.25 8.93999V7.73999C20.25 7.18771 19.8023 6.73999 19.25 6.73999Z" fill="#A2294A"/>
</svg>
