<svg width="32" height="32" viewBox="0 0 32 32" fill="none" xmlns="http://www.w3.org/2000/svg">
<path d="M27.7413 15.029C27.3654 14.9777 26.9832 15.0557 26.6573 15.25C26.7721 13.7529 26.8008 12.2505 26.7433 10.75C26.7062 9.68016 26.3815 8.64004 25.8033 7.73905C24.7434 6.16384 23.3533 4.83823 21.7295 3.85426C20.1057 2.8703 18.2873 2.25158 16.4003 2.04105C15.7279 1.95811 15.0461 1.99673 14.3873 2.15505C11.9553 2.73505 5.78434 4.82005 5.03234 11.179C4.86325 12.5743 4.81907 13.9819 4.90034 15.385C4.69227 15.3283 4.47476 15.3151 4.26134 15.346C3.06134 15.526 2.29734 17.08 2.55034 18.817C2.80334 20.554 3.98134 21.817 5.17934 21.635C5.56745 21.5698 5.92088 21.3718 6.17934 21.075C6.35134 21.475 6.52034 21.807 6.67034 22.075C6.94241 22.5621 7.28287 23.0076 7.68134 23.398C8.84889 24.6719 10.3139 25.6367 11.9453 26.206C12.1313 28.475 19.9793 28.357 20.0663 25.983C21.1378 25.5746 22.1564 25.0391 23.1003 24.388C23.859 23.8726 24.4817 23.1813 24.9153 22.373C25.2146 21.7926 25.4657 21.1885 25.6663 20.567C25.7991 20.7631 25.9698 20.9305 26.1684 21.0595C26.3669 21.1885 26.5893 21.2764 26.8223 21.318C28.0223 21.498 29.1983 20.236 29.4513 18.5C29.7043 16.764 28.9403 15.2091 27.7413 15.029Z" fill="#FAD7C4"/>
<path d="M15.8663 27.8386C21.7835 27.8386 26.5803 23.0418 26.5803 17.1246C26.5803 11.2075 21.7835 6.41064 15.8663 6.41064C9.94916 6.41064 5.15234 11.2075 5.15234 17.1246C5.15234 23.0418 9.94916 27.8386 15.8663 27.8386Z" fill="#FAD7C4"/>
<path d="M10.2695 16.3843C10.2695 15.4403 10.7235 14.6743 11.2845 14.6743C11.8455 14.6743 12.2995 15.4403 12.2995 16.3843C12.2995 17.3283 11.8455 18.0943 11.2845 18.0943C10.7235 18.0943 10.2695 17.3283 10.2695 16.3843Z" fill="black"/>
<path d="M20.0801 16.3843C20.0801 15.4403 20.5341 14.6743 21.0951 14.6743C21.6561 14.6743 22.1101 15.4403 22.1101 16.3843C22.1101 17.3283 21.6561 18.0943 21.0951 18.0943C20.5341 18.0943 20.0801 17.3283 20.0801 16.3843Z" fill="black"/>
<path d="M18.6667 23.5851C18.6394 23.2878 18.537 23.0022 18.369 22.7553C18.2011 22.5083 17.9732 22.3081 17.7066 22.1735C17.4401 22.0388 17.1437 21.9741 16.8453 21.9854C16.5469 21.9967 16.2563 22.0837 16.0007 22.2381C15.6403 22.0206 15.214 21.9393 14.7988 22.0089C14.3837 22.0785 14.0072 22.2944 13.7374 22.6175C13.4677 22.9407 13.3226 23.3497 13.3283 23.7706C13.334 24.1915 13.4902 24.5964 13.7687 24.9121C13.9919 25.1572 14.1676 25.4417 14.2867 25.7511C14.4071 26.079 14.6222 26.3637 14.9048 26.5691C15.1874 26.7744 15.5246 26.8911 15.8736 26.9044C16.2227 26.9177 16.5678 26.827 16.8651 26.6437C17.1625 26.4604 17.3987 26.1929 17.5437 25.8751C17.6825 25.5549 17.8807 25.2638 18.1277 25.0171C18.3196 24.8345 18.4678 24.6108 18.5611 24.3629C18.6545 24.1149 18.6906 23.849 18.6667 23.5851Z" fill="#6EC4F6"/>
<path d="M16.002 29.4012C17.2684 29.4012 18.295 28.3746 18.295 27.1082C18.295 25.8418 17.2684 24.8152 16.002 24.8152C14.7356 24.8152 13.709 25.8418 13.709 27.1082C13.709 28.3746 14.7356 29.4012 16.002 29.4012Z" stroke="#0C629C" stroke-width="1.2"/>
<path d="M15.8578 8.34521C15.0813 8.32582 14.3442 7.99897 13.8085 7.43645C13.2728 6.87394 12.9823 6.12178 13.0008 5.34521C12.9823 4.56865 13.2728 3.81649 13.8085 3.25398C14.3442 2.69146 15.0813 2.36461 15.8578 2.34521" stroke="black" stroke-linecap="round" stroke-linejoin="round"/>
<path d="M16.0155 8.34521C17.0019 8.34521 17.8015 7.50575 17.8015 6.47021C17.8015 5.43468 17.0019 4.59521 16.0155 4.59521C15.0291 4.59521 14.2295 5.43468 14.2295 6.47021C14.2295 7.50575 15.0291 8.34521 16.0155 8.34521Z" stroke="black" stroke-linecap="round" stroke-linejoin="round"/>
</svg>
