<svg width="32" height="32" viewBox="0 0 32 32" fill="none" xmlns="http://www.w3.org/2000/svg">
<g clip-path="url(#clip0_583_8173)">
<mask id="mask0_583_8173" style="mask-type:luminance" maskUnits="userSpaceOnUse" x="0" y="0" width="32" height="32">
<path d="M16.0012 0H15.6468C11.8065 0.080018 9.83274 0.383286 8.0054 1.01063C6.23762 1.61779 4.64643 2.6508 3.37225 4.0185C2.31358 5.24764 1.50335 6.6705 0.986474 8.20825C0.377398 10.1343 0.0539354 12.1393 0.026402 14.1592C-5.96091e-09 14.9538 0 15.061 0 16.0028C0 16.9446 1.10277e-07 17.0534 0.024802 17.8432C0.0523199 19.8639 0.375781 21.8697 0.984874 23.7966C1.50194 25.3337 2.31216 26.756 3.37065 27.9847C4.64505 29.3527 6.23651 30.386 8.0046 30.9934C9.83194 31.6207 11.8033 31.9232 15.646 32.0024H16.3548C20.1951 31.9224 22.1689 31.6207 23.9954 30.9934C25.7635 30.386 27.3549 29.3527 28.6293 27.9847C29.6878 26.756 30.4981 25.3337 31.0151 23.7966C31.6246 21.8698 31.9481 19.8639 31.9752 17.8432C32 17.0494 32 16.9398 32 16.0028C32 15.0658 32 14.9538 31.9752 14.1584C31.948 12.1384 31.6245 10.1334 31.0151 8.20745C30.4986 6.67011 29.689 5.24754 28.6309 4.0185C27.3565 2.65098 25.765 1.61824 23.997 1.01143C22.1705 0.384086 20.1983 0.0808181 16.3564 0.000800122L16.0012 0Z" fill="white"/>
</mask>
<g mask="url(#mask0_583_8173)">
<path d="M43.9953 -1.10156H-7.36133V16.0047H43.9953V-1.10156Z" fill="white"/>
<path d="M43.9953 16.0078H-7.36133V33.1157H43.9953V16.0078Z" fill="#FF142B"/>
<path d="M8.16995 1.48259L8.17032 1.48246C9.925 0.878538 11.8378 0.579734 15.6532 0.5H16.3516C20.1676 0.579729 22.0789 0.878496 23.8361 1.48246C25.5228 2.06299 27.0409 3.04906 28.2572 4.35392C29.2694 5.5307 30.0448 6.892 30.5407 8.36298C31.1341 10.2416 31.4492 12.1971 31.476 14.1671L31.476 14.1671L31.4763 14.1769C31.5024 14.9631 31.5024 15.0706 31.5024 16.0013V16.0044V16.0077C31.5024 16.9382 31.5024 17.0418 31.4763 17.8279L31.4762 17.8279L31.476 17.8377C31.4492 19.808 31.1341 21.7637 30.5407 23.6427C30.045 25.1139 29.2697 26.4754 28.2573 27.6523C27.0401 28.9561 25.5211 29.9408 23.8341 30.5198L23.8337 30.5199C22.079 31.1239 20.167 31.4227 16.3516 31.5024H15.6532C11.8363 31.4235 9.92507 31.1239 8.17032 30.5199L8.16988 30.5198C6.48297 29.941 4.96427 28.9562 3.74745 27.6523C2.73392 26.4745 1.95749 25.1119 1.4609 23.6394C0.867849 21.7604 0.55273 19.8047 0.525551 17.8344H0.525637L0.525337 17.8252C0.5 17.042 0.5 16.9375 0.5 16.0043V16.0012V15.9979C0.5 15.0652 0.5 14.9603 0.527689 14.1747L0.527803 14.1747L0.527951 14.164C0.555194 12.194 0.870305 10.2386 1.46328 8.35982C1.95975 6.88894 2.73535 5.52772 3.74752 4.35079C4.9643 3.04669 6.48299 2.0617 8.16995 1.48259Z" stroke="#F6F6F6"/>
</g>
</g>
<defs>
<clipPath id="clip0_583_8173">
<rect width="32" height="32.0024" fill="white"/>
</clipPath>
</defs>
</svg>
