<svg width="32" height="32" viewBox="0 0 32 32" fill="none" xmlns="http://www.w3.org/2000/svg">
<g clip-path="url(#clip0_583_7395)">
<mask id="mask0_583_7395" style="mask-type:luminance" maskUnits="userSpaceOnUse" x="0" y="0" width="32" height="32">
<path d="M15.9996 0H15.6476C11.8077 0.079998 9.83495 0.38079 8.0078 1.01037C6.23889 1.6158 4.64658 2.64812 3.37192 4.0159C2.31369 5.24467 1.50358 6.66684 0.986375 8.20379C0.376522 10.1303 0.053075 12.1359 0.0263993 14.1564C-5.96031e-09 14.95 0 15.058 0 15.9964C0 16.9348 -5.96031e-09 17.0452 0.0263993 17.8412C0.0531968 19.8611 0.376643 21.8662 0.986375 23.7922C1.50321 25.3291 2.31336 26.7511 3.37192 27.9793C4.64597 29.3472 6.23734 30.3803 8.0054 30.9872C9.83255 31.616 11.8037 31.9168 15.6452 31.9968H16.3548C20.1947 31.9168 22.1674 31.616 23.9946 30.9872C25.7627 30.3803 27.354 29.3472 28.6281 27.9793C29.6865 26.7511 30.4969 25.3295 31.0144 23.793C31.6226 21.8667 31.946 19.8618 31.9744 17.842C32 17.042 32 16.9372 32 15.9972C32 15.0572 32 14.9484 31.9744 14.1572C31.9461 12.1369 31.6227 10.1314 31.0144 8.20459C30.4966 6.66774 29.6863 5.24562 28.6281 4.0167C27.3541 2.64925 25.7626 1.61695 23.9946 1.01117C22.1674 0.38079 20.1955 0.079998 16.3548 0H15.9996Z" fill="white"/>
</mask>
<g mask="url(#mask0_583_7395)">
<path d="M47.4812 32.3707H-1.55273L-1.13914 16.0391H47.4812V32.3707Z" fill="#E80506"/>
<path d="M47.4812 16.0425H-1.13914L-1.55273 -0.289062H47.4812V16.0425Z" fill="#17108C"/>
<path d="M-1.55273 -0.289062L22.3147 16.0425L-1.55273 32.3741" fill="white"/>
<path d="M8.90548 16.0401C8.92678 16.8351 8.63166 17.6061 8.08494 18.1837C7.53821 18.7614 6.78458 19.0984 5.98956 19.1208C5.20482 19.0734 4.46774 18.7283 3.92884 18.1559C3.38993 17.5835 3.08984 16.827 3.08984 16.0409C3.08984 15.2547 3.38993 14.4982 3.92884 13.9258C4.46774 13.3534 5.20482 13.0083 5.98956 12.9609C6.78465 12.9835 7.53828 13.3207 8.08499 13.8985C8.63169 14.4762 8.92679 15.2473 8.90548 16.0425" fill="#F9C900"/>
<path d="M5.98734 9.61719L5.37695 10.3316L5.68175 13.0683H6.29133L6.59612 10.3316L5.98734 9.61719Z" fill="#F9C900"/>
<path d="M6.75 13.1417L7.26198 11.073L6.92439 10.625L6.5332 13.0617L6.75 13.1417Z" fill="#F9C900"/>
<path d="M5.22603 13.1417L4.71484 11.073L5.05164 10.625L5.44363 13.0617L5.22603 13.1417Z" fill="#F9C900"/>
<path d="M10.3184 11.4609L9.40963 11.5097L7.79688 13.6753L8.01207 13.9041L8.22806 14.1297L10.2728 12.4217L10.3184 11.4609Z" fill="#F9C900"/>
<path d="M8.49808 14.5286L10.2436 13.4438L10.3036 12.875L8.39648 14.307L8.49808 14.5286Z" fill="#F9C900"/>
<path d="M7.41992 13.3885L8.4415 11.543L8.97908 11.4766L7.62792 13.4925L7.41992 13.3885Z" fill="#F9C900"/>
<path d="M12.0562 16.0462L11.3794 15.4062L8.78906 15.7262V16.3718L11.3794 16.6918L12.0562 16.0462Z" fill="#F9C900"/>
<path d="M8.71484 16.8468L10.6748 17.386L11.0988 17.0292L8.79164 16.6172L8.71484 16.8468Z" fill="#F9C900"/>
<path d="M8.71094 15.2377L10.6693 14.6953L11.0949 15.0513L8.78854 15.4689L8.71094 15.2377Z" fill="#F9C900"/>
<path d="M10.3153 20.6008L10.2697 19.6408L8.22416 17.9297L8.00896 18.1569L7.79297 18.3857L9.40733 20.552L10.3153 20.6008Z" fill="#F9C900"/>
<path d="M7.41406 18.6697L8.43484 20.5169L8.97322 20.5832L7.62206 18.5625L7.41406 18.6697Z" fill="#F9C900"/>
<path d="M8.49373 17.5312L10.2393 18.6176L10.3001 19.1864L8.39453 17.7536L8.49373 17.5312Z" fill="#F9C900"/>
<path d="M5.998 22.4691L6.60198 21.7492L6.28199 19.0156H5.9764H5.67321L5.38281 21.754L5.998 22.4691Z" fill="#F9C900"/>
<path d="M5.21403 18.9453L4.71484 21.0165L5.05564 21.4636L5.43323 19.0245L5.21403 18.9453Z" fill="#F9C900"/>
<path d="M6.73828 18.9375L7.26227 21.0046L6.92787 21.4558L6.52148 19.0215L6.73828 18.9375Z" fill="#F9C900"/>
<path d="M1.66797 20.5612L2.57675 20.5196L4.21351 18.3741L4.00071 18.1437L3.78552 17.9141L1.72717 19.6004L1.66797 20.5612Z" fill="#F9C900"/>
<path d="M3.51971 17.5156L1.75976 18.5772L1.69336 19.1476L3.61331 17.7372L3.51971 17.5156Z" fill="#F9C900"/>
<path d="M4.58777 18.6649L3.5478 20.5049L3.00781 20.5625L4.38138 18.5625L4.58777 18.6649Z" fill="#F9C900"/>
<path d="M-0.0976562 16.0306L0.573527 16.6786L3.16706 16.3794V16.0594V15.7394L0.583127 15.3906L-0.0976562 16.0306Z" fill="#F9C900"/>
<path d="M3.24677 15.2553L1.29162 14.6953L0.865234 15.0481L3.16918 15.4809L3.24677 15.2553Z" fill="#F9C900"/>
<path d="M3.23906 16.8624L1.27671 17.3904L0.853516 17.0288L3.16706 16.6328L3.23906 16.8624Z" fill="#F9C900"/>
<path d="M1.66406 11.4922L1.70966 12.4522L3.75281 14.1649L3.9696 13.9377L4.1848 13.7105L2.57284 11.5458L1.66406 11.4922Z" fill="#F9C900"/>
<path d="M4.56297 13.4246L3.543 11.5758L3.00781 11.5078L4.35738 13.5286L4.56297 13.4246Z" fill="#F9C900"/>
<path d="M3.48249 14.5598L1.73853 13.4766L1.67773 12.9062L3.58329 14.3414L3.48249 14.5598Z" fill="#F9C900"/>
<path d="M18.5926 17.6594L17.9247 16.6442L16.8047 17.0042L17.5119 16.0178L16.8415 15.0035L17.9471 15.4083L18.6542 14.4219L18.631 15.6586L19.7366 16.065L18.6166 16.4242L18.5926 17.6594Z" fill="#F9C900"/>
<path d="M1.8798 4.80054L0.737425 4.53175L0.14384 5.59732L0.0302433 4.36695L-1.11133 4.10056L-0.038555 3.60537L-0.150552 2.375L0.625428 3.30218L1.6982 2.80699L1.10462 3.87336L1.8798 4.80054Z" fill="#F9C900"/>
<path d="M1.69166 29.1147L0.607684 28.6419L-0.152297 29.5819L-0.057899 28.3515L-1.13867 27.8763L-0.00110042 27.5883L0.0916973 26.3516L0.702882 27.4059L1.83965 27.1179L1.08047 28.0587L1.69166 29.1147Z" fill="#F9C900"/>
<path d="M15.6465 0C11.807 0.079998 9.83372 0.38079 8.0068 1.00957C6.2393 1.61634 4.64841 2.64913 3.37469 4.0167C2.31638 5.24528 1.50586 6.66713 0.987852 8.20379C0.379311 10.1303 0.0559328 12.1355 0.0279961 14.1556C2.59241e-07 14.95 0 15.0604 0 15.9996C0 16.9388 5.06563e-08 17.0484 0.0255962 17.8396C0.0534665 19.86 0.376845 21.8654 0.985452 23.7922C1.50358 25.3305 2.31496 26.7538 3.37469 27.9833C4.64846 29.3506 6.23935 30.3831 8.0068 30.9896C9.83372 31.6184 11.8054 31.92 15.6465 31.9992H16.3551C20.1946 31.9192 22.1671 31.6184 23.994 30.9896C25.7616 30.383 27.3527 29.3505 28.6269 27.9833C29.6854 26.7547 30.4957 25.3325 31.0129 23.7954C31.6219 21.8687 31.9453 19.8632 31.9728 17.8428C31.9992 17.0484 31.9992 16.9396 31.9992 16.0028C31.9992 15.066 31.9992 14.9532 31.9728 14.1588C31.9453 12.1387 31.6219 10.1334 31.0129 8.20699C30.4955 6.67024 29.6852 5.24833 28.6269 4.0199C27.3538 2.65164 25.7635 1.61779 23.9964 1.00957C22.1671 0.38079 20.1954 0.079998 16.3551 0H15.6465Z" stroke="#F6F6F6"/>
</g>
</g>
<defs>
<clipPath id="clip0_583_7395">
<rect width="32" height="31.9968" fill="white"/>
</clipPath>
</defs>
</svg>
