<svg width="32" height="32" viewBox="0 0 32 32" fill="none" xmlns="http://www.w3.org/2000/svg">
<g clip-path="url(#clip0_583_7100)">
<mask id="mask0_583_7100" style="mask-type:luminance" maskUnits="userSpaceOnUse" x="-1" y="0" width="33" height="32">
<path d="M15.998 0H15.6436C11.8036 0.08 9.83085 0.38 8.00285 1.0088C6.23541 1.61627 4.64445 2.64898 3.37005 4.016C2.31165 5.24484 1.50127 6.66702 0.983647 8.204C0.375328 10.1306 0.0519086 12.1358 0.0236469 14.156C-0.00195312 14.9496 -0.00195312 15.06 -0.00195312 15.996C-0.00195312 16.932 -0.00195312 17.0456 0.0236469 17.836C0.0519086 19.8562 0.375328 21.8614 0.983647 23.788C1.50033 25.3278 2.31076 26.7528 3.37005 27.984C4.64407 29.3513 6.23518 30.3838 8.00285 30.9904C9.83085 31.6192 11.8028 31.9216 15.6436 32H16.3532C20.1932 31.92 22.166 31.6192 23.9924 30.9904C25.7608 30.3842 27.3525 29.3517 28.6269 27.984C29.685 26.755 30.4953 25.3328 31.0132 23.796C31.622 21.8695 31.9454 19.8642 31.9732 17.844C31.9996 17.0504 31.9996 16.94 31.9996 16.004C31.9996 15.068 31.9996 14.9536 31.9732 14.164C31.9454 12.1438 31.622 10.1385 31.0132 8.212C30.4953 6.67516 29.685 5.25304 28.6269 4.024C27.3521 2.65661 25.7605 1.62385 23.9924 1.0168C22.166 0.384 20.194 0.0784 16.3532 0H15.998Z" fill="white"/>
</mask>
<g mask="url(#mask0_583_7100)">
<path d="M47.9538 -5.77344H-0.742188V34.193H47.9538V-5.77344Z" fill="#E53226"/>
<path d="M7.30127 5.47656L8.20207 8.24696H11.1181L8.75967 9.95896L9.65807 12.731L7.30127 11.0182L4.93807 12.731L5.83967 9.95896L3.48047 8.24696H6.40047L7.30127 5.47656Z" fill="#FDDF2E"/>
<path d="M16.6173 10.8203L16.9509 11.7331L17.9221 11.6987L17.1565 12.2963L17.4901 13.2091L16.6837 12.6667L15.9189 13.2659L16.1861 12.3323L15.3789 11.7899L16.3509 11.7547L16.6173 10.8203Z" fill="#FDDF2E"/>
<path d="M16.0767 6.94531L16.7535 7.64131L17.6263 7.21411L17.1719 8.07331L17.8479 8.76931L16.8879 8.60291L16.4335 9.46131L16.2959 8.50131L15.3359 8.33411L16.2079 7.90691L16.0767 6.94531Z" fill="#FDDF2E"/>
<path d="M12.9805 4.602L13.8749 4.982L14.515 4.25L14.4293 5.2164L15.3237 5.5972L14.3765 5.8148L14.2917 6.782L13.7909 5.95L12.8438 6.1676L13.4838 5.4348L12.9805 4.602Z" fill="#FDDF2E"/>
<path d="M14.4626 13.5859L14.417 14.5555L15.3266 14.8995L14.3898 15.1563L14.3442 16.1259L13.8106 15.3139L12.873 15.5715L13.4794 14.8131L12.9458 14.0019L13.8554 14.3451L14.4626 13.5859Z" fill="#FDDF2E"/>
</g>
</g>
<defs>
<clipPath id="clip0_583_7100">
<rect width="32.0016" height="32" fill="white" transform="translate(-0.00195312)"/>
</clipPath>
</defs>
</svg>
