<svg width="32" height="32" viewBox="0 0 32 32" fill="none" xmlns="http://www.w3.org/2000/svg">
<g clip-path="url(#clip0_583_7148)">
<mask id="mask0_583_7148" style="mask-type:luminance" maskUnits="userSpaceOnUse" x="0" y="0" width="33" height="32">
<path d="M16.0058 0H15.6514C11.8117 0.079994 9.83828 0.381571 8.01121 1.01032C6.24334 1.61666 4.65205 2.64913 3.37796 4.0165C2.32002 5.24537 1.50997 6.66743 0.992539 8.20419C0.383985 10.1306 0.060584 12.1357 0.0326108 14.1557C0.00781261 14.9501 0.0078125 15.0597 0.0078125 15.9956C0.0078125 16.9315 0.00781261 17.0443 0.0326108 17.8355C0.0607101 19.8555 0.384109 21.8606 0.992539 23.787C1.50913 25.3268 2.3192 26.7519 3.37796 27.9835C4.65205 29.3509 6.24334 30.3833 8.01121 30.9897C9.83828 31.6184 11.8093 31.9208 15.6514 32H16.3602C20.1999 31.92 22.1733 31.6184 23.9996 30.9897C25.7676 30.3836 27.3589 29.351 28.6329 27.9835C29.6912 26.7548 30.5015 25.3327 31.0191 23.7958C31.628 21.8695 31.9514 19.8643 31.979 17.8443C32.0038 17.0499 32.0038 16.9403 32.0038 16.0044C32.0038 15.0685 32.0038 14.9549 31.979 14.1645C31.9515 12.1444 31.6281 10.1393 31.0191 8.21299C30.5017 6.67604 29.6913 5.25393 28.6329 4.0253C27.3589 2.65775 25.7676 1.62525 23.9996 1.01912C22.1733 0.385571 20.2015 0.0791941 16.3602 0H16.0058Z" fill="white"/>
</mask>
<g mask="url(#mask0_583_7148)">
<path d="M42.8063 -1.21094H-8.87305V33.2161H42.8063V-1.21094Z" fill="#0067AA"/>
<path d="M42.8031 12.5392H14.0252V-1.21094H7.37053V12.54H-8.87305V19.4323H7.37053V33.2153H14.0252V19.4315H42.8031V12.5392Z" fill="#FFD500"/>
</g>
</g>
<defs>
<clipPath id="clip0_583_7148">
<rect width="31.996" height="32" fill="white" transform="translate(0.0078125)"/>
</clipPath>
</defs>
</svg>
