<svg width="32" height="32" viewBox="0 0 32 32" fill="none" xmlns="http://www.w3.org/2000/svg">
<g clip-path="url(#clip0_583_8291)">
<mask id="mask0_583_8291" style="mask-type:luminance" maskUnits="userSpaceOnUse" x="0" y="0" width="32" height="33">
<path d="M16 0.0078125H15.6456C11.8056 0.0878125 9.832 0.388612 8.0056 1.01741C6.23754 1.62343 4.64571 2.65508 3.3704 4.02141C2.31218 5.2501 1.5023 6.67236 0.9856 8.20941C0.376247 10.1355 0.0528028 12.1406 0.0256004 14.1606C4.32134e-07 14.9558 0 15.0646 0 16.0046C0 16.9446 4.32134e-07 17.0534 0.0256004 17.8486C0.0528515 19.8689 0.376294 21.8742 0.9856 23.8006C1.50304 25.3371 2.31285 26.759 3.3704 27.9878C4.6454 29.3551 6.23727 30.3876 8.0056 30.9942C9.832 31.6238 11.804 31.9254 15.6456 32.0046H16.3536C20.1936 31.9246 22.168 31.6238 23.9944 30.9942C25.7624 30.3874 27.354 29.3549 28.6288 27.9878C29.6866 26.759 30.4967 25.3371 31.0144 23.8006C31.6229 21.874 31.9463 19.8688 31.9744 17.8486C32 17.0534 32 16.9438 32 16.0046C32 15.0654 32 14.9558 31.9744 14.1606C31.9464 12.1407 31.623 10.1357 31.0144 8.20941C30.4974 6.67231 29.6873 5.25006 28.6288 4.02141C27.354 2.6541 25.7625 1.62136 23.9944 1.01421C22.168 0.388613 20.196 0.0870125 16.3536 0.0078125H16Z" fill="white"/>
</mask>
<g mask="url(#mask0_583_8291)">
<path d="M40.5988 21.4766H-8.59961V32.4006H40.5988V21.4766Z" fill="black"/>
<path d="M40.5988 10.5469H-8.59961V21.4709H40.5988V10.5469Z" fill="white"/>
<path d="M40.5988 -0.375H-8.59961V10.549H40.5988V-0.375Z" fill="#CE1126"/>
<path d="M8.81708 15.0437L7.79948 11.9141L6.78188 15.0437H3.48828L6.15308 16.9781L5.13548 20.1045L7.79948 18.1701L10.4635 20.1045L9.44588 16.9749L12.1099 15.0405L8.81708 15.0437Z" fill="#007A3D"/>
<path d="M25.8463 16.9781L28.5103 15.0437H25.2175L24.2007 11.9141L23.1831 15.0437H19.8887L22.5535 16.9781L21.5351 20.1045L24.2007 18.1733L26.8647 20.1077L25.8463 16.9781Z" fill="#007A3D"/>
</g>
</g>
<defs>
<clipPath id="clip0_583_8291">
<rect width="32" height="31.9968" fill="white" transform="translate(0 0.0078125)"/>
</clipPath>
</defs>
</svg>
