<svg width="32" height="32" viewBox="0 0 32 32" fill="none" xmlns="http://www.w3.org/2000/svg">
<g clip-path="url(#clip0_583_8628)">
<mask id="mask0_583_8628" style="mask-type:luminance" maskUnits="userSpaceOnUse" x="0" y="0" width="32" height="33">
<path d="M16.0004 0.0078125H15.646C11.8059 0.0878145 9.83224 0.389422 8.005 1.01744C6.23877 1.62559 4.64896 2.65827 3.37528 4.02471C2.31706 5.25388 1.50692 6.67638 0.989625 8.21362C0.380525 10.1396 0.0570778 12.1444 0.0296007 14.1642C0 14.9594 0 15.0706 0 16.009C0 16.9474 2.98031e-09 17.057 0.0256006 17.8491C0.0532552 19.8693 0.376697 21.8747 0.985625 23.8012C1.5028 25.338 2.31296 26.76 3.37128 27.9885C4.64499 29.3566 6.2366 30.3893 8.005 30.995C9.83224 31.6246 11.8043 31.9262 15.646 32.0062H16.3548C20.1949 31.9262 22.1678 31.6246 23.9942 30.995C25.763 30.3892 27.3551 29.3566 28.6295 27.9885C29.6876 26.76 30.4975 25.338 31.0144 23.8012C31.6236 21.8748 31.9471 19.8694 31.9744 17.8491C32 17.0538 32 16.9458 32 16.009C32 15.0722 32 14.9594 31.9744 14.1642C31.9473 12.1444 31.6238 10.1395 31.0144 8.21362C30.4973 6.67644 29.6875 5.25395 28.6295 4.02471C27.3559 2.65858 25.7664 1.62595 24.0006 1.01744C22.1718 0.389422 20.2005 0.0878145 16.3588 0.0078125H16.0004Z" fill="white"/>
</mask>
<g mask="url(#mask0_583_8628)">
<path d="M55.6178 -0.289062H-0.400391V32.3622H55.6178V-0.289062Z" fill="#4A9318"/>
<path d="M55.6178 4.375H-0.400391V27.698H55.6178V4.375Z" fill="#F6D128"/>
<path d="M55.6178 9.03906H-0.400391V23.033H55.6178V9.03906Z" fill="#CB0423"/>
<path d="M55.6178 13.7031H-0.400391V18.3672H55.6178V13.7031Z" fill="black"/>
<path fill-rule="evenodd" clip-rule="evenodd" d="M-0.400391 -0.289062V32.3622H0.786839L22.5554 16.0369L0.786839 -0.289062H-0.400391Z" fill="black"/>
<path fill-rule="evenodd" clip-rule="evenodd" d="M-0.400391 -0.289062V32.3622L21.369 16.0369L-0.400391 -0.289062Z" fill="white"/>
<path fill-rule="evenodd" clip-rule="evenodd" d="M8.41073 7.74219L4.74023 15.1824L10.3196 17.9312L8.41073 7.74219Z" fill="#CB0423"/>
<path fill-rule="evenodd" clip-rule="evenodd" d="M8.41115 7.74219L12.0816 15.1824L6.50391 17.9312L8.41115 7.74219Z" fill="#CB0423"/>
<path fill-rule="evenodd" clip-rule="evenodd" d="M8.41111 7.74219L5.63184 15.5552L11.4928 17.64L8.41111 7.74219Z" fill="#CB0423"/>
<path fill-rule="evenodd" clip-rule="evenodd" d="M8.41096 7.74219L11.1894 15.5552L5.33008 17.64L8.41096 7.74219Z" fill="#CB0423"/>
<path fill-rule="evenodd" clip-rule="evenodd" d="M16.298 13.4733L8.09142 12.2812L7.2002 18.4382L16.298 13.4733Z" fill="#CB0423"/>
<path fill-rule="evenodd" clip-rule="evenodd" d="M0.523438 13.4733L8.73004 12.2812L9.62447 18.4358L0.523438 13.4733Z" fill="#CB0423"/>
<path fill-rule="evenodd" clip-rule="evenodd" d="M16.2977 13.4686L8.00785 13.2422L7.83984 19.4599L16.2977 13.4686Z" fill="#CB0423"/>
<path fill-rule="evenodd" clip-rule="evenodd" d="M0.523438 13.471L8.81324 13.2422L8.98525 19.4599L0.523438 13.471Z" fill="#CB0423"/>
<path fill-rule="evenodd" clip-rule="evenodd" d="M12.5988 21.8043L11.1451 14.8281L7.65625 15.5553L12.5988 21.8043Z" fill="#CB0423"/>
<path fill-rule="evenodd" clip-rule="evenodd" d="M12.5988 21.804L6.41309 18.2648L8.18273 15.1719L12.5988 21.804Z" fill="#CB0423"/>
<path fill-rule="evenodd" clip-rule="evenodd" d="M4.22168 21.804L10.4074 18.2648L8.64019 15.1719L4.22168 21.804Z" fill="#CB0423"/>
<path fill-rule="evenodd" clip-rule="evenodd" d="M4.22168 21.8043L5.67532 14.8281L9.165 15.5553L4.22168 21.8043Z" fill="#CB0423"/>
<path fill-rule="evenodd" clip-rule="evenodd" d="M11.2574 21.2158C11.262 20.1541 11.4515 19.1013 11.8175 18.1046C12.0225 17.5458 12.2713 17.0041 12.5615 16.4845C12.7074 16.4935 12.8514 16.5223 12.9895 16.5701C13.4471 16.6973 13.5727 16.6733 13.5727 16.4605C13.5727 16.3397 13.1047 15.9229 10.8166 14.0085C9.27659 12.718 8.01175 11.7004 7.94855 11.7004C7.92026 11.7016 7.89221 11.6947 7.8677 11.6806C7.84318 11.6664 7.82322 11.6455 7.81015 11.6204C7.79655 11.578 7.72295 11.0788 7.65015 10.51C7.60323 10.0893 7.52623 9.67245 7.41974 9.26274C7.33765 9.08869 7.20567 8.94298 7.04057 8.84411C6.87547 8.74525 6.6847 8.69771 6.49252 8.70753C6.37511 8.68223 6.2538 8.68088 6.13585 8.70356C6.01791 8.72625 5.90575 8.77249 5.8061 8.83953C5.65408 8.93154 5.48249 8.98636 5.30529 8.99954C5.24159 8.99805 5.17823 9.00916 5.11883 9.03221C5.05943 9.05527 5.00517 9.08983 4.95916 9.13391C4.91316 9.17798 4.8763 9.23071 4.85072 9.28906C4.82513 9.34742 4.81132 9.41025 4.81007 9.47395V9.64595L5.21008 9.63395C5.42929 9.62755 5.54129 9.63395 5.45729 9.65235C5.17328 9.70675 5.28769 10.1084 5.6221 10.2284C5.9821 10.3572 5.9677 10.2812 5.9677 11.9692C6.02763 12.6053 5.9904 13.2468 5.8573 13.8717C5.71209 14.4033 5.71209 14.9641 5.8573 15.4957C5.9157 15.6813 5.9645 15.8533 5.9661 15.8781C5.85461 16.0573 5.72744 16.2262 5.58609 16.3829C5.25291 16.7348 5.03905 17.1826 4.97488 17.663C4.96473 17.7703 4.92667 17.8732 4.86448 17.9614C4.79583 18.0584 4.75831 18.1741 4.75688 18.2929C4.75545 18.4118 4.79018 18.5283 4.85648 18.627C5.20011 19.5955 5.443 20.5968 5.58129 21.6151C5.58129 21.7807 5.6077 21.7751 6.49092 21.5887C7.56799 21.4278 8.6613 21.4066 9.7438 21.5255C10.1382 21.5815 10.5974 21.6663 10.7638 21.7119C11.2886 21.8567 11.2598 21.8855 11.2614 21.2086" fill="black"/>
<path fill-rule="evenodd" clip-rule="evenodd" d="M10.5396 21.5591C9.67208 21.364 8.78151 21.2915 7.8939 21.3439C7.39388 21.3655 6.86907 21.4055 6.72827 21.4327L6.47306 21.4831L6.40986 21.0559C6.38157 20.909 6.36631 20.7599 6.36426 20.6103C6.54202 20.5685 6.72206 20.5369 6.90347 20.5159C8.25713 20.3829 9.62209 20.4192 10.9668 20.6239L11.1468 20.6607V21.1743C11.1468 21.5487 11.1276 21.6856 11.0772 21.68C11.0396 21.6752 10.7972 21.6207 10.5396 21.5591Z" fill="#FCFF2C"/>
<path fill-rule="evenodd" clip-rule="evenodd" d="M5.68747 21.601C5.68747 21.4778 5.38106 20.0058 5.24746 19.4866C5.15626 19.1313 5.08105 18.8201 5.08105 18.7913C5.08105 18.7625 5.16106 18.7977 5.26666 18.8673C5.35223 18.9316 5.45125 18.9756 5.55627 18.9961C5.84027 19.0001 5.99548 19.4274 6.23628 20.865C6.27068 21.0658 6.30909 21.2922 6.32349 21.3658C6.34589 21.481 6.31469 21.5066 6.07068 21.5642C5.76267 21.6378 5.68747 21.6442 5.68747 21.601Z" fill="#FCFF2C"/>
<path fill-rule="evenodd" clip-rule="evenodd" d="M11.0681 20.4713C11.0513 20.4401 11.0737 20.3817 11.1193 20.3401C11.1857 20.2777 11.1993 20.2817 11.1993 20.3593C11.1993 20.4737 11.1089 20.5489 11.0657 20.4713" fill="#FCFF2C"/>
<path fill-rule="evenodd" clip-rule="evenodd" d="M6.63992 20.2383C6.78632 20.0783 6.78952 20.0735 6.90393 20.1895C7.01833 20.3055 7.01433 20.3095 6.92073 20.3495C6.83508 20.3786 6.74555 20.3948 6.65512 20.3975H6.49512L6.63992 20.2383Z" fill="#FCFF2C"/>
<path fill-rule="evenodd" clip-rule="evenodd" d="M10.2757 20.3313C10.3052 20.2712 10.3495 20.2197 10.4045 20.1816C10.4973 20.1144 10.5245 20.124 10.6101 20.2536L10.7093 20.4025H10.4797C10.3309 20.4025 10.2589 20.3769 10.2733 20.3313" fill="#FCFF2C"/>
<path fill-rule="evenodd" clip-rule="evenodd" d="M10.766 20.2426C10.7182 20.1893 10.6839 20.1254 10.666 20.0562C10.7511 20.051 10.8364 20.0594 10.9188 20.081L11.1588 20.1258L11.0228 20.2674L10.8868 20.4098L10.766 20.2426Z" fill="#FCFF2C"/>
<path fill-rule="evenodd" clip-rule="evenodd" d="M6.26037 20.2559C6.21957 20.1375 6.31557 20.0407 6.47317 20.0391C6.59878 20.0391 6.59558 20.0511 6.43317 20.2207C6.30917 20.3503 6.29397 20.3535 6.26037 20.2559Z" fill="#FCFF2C"/>
<path fill-rule="evenodd" clip-rule="evenodd" d="M7.54812 20.1446L7.69293 19.9766L7.83373 20.1126C7.91373 20.1926 7.98413 20.2566 7.99373 20.2606C7.89926 20.2787 7.80348 20.2891 7.70733 20.2918L7.40332 20.3126L7.54812 20.1446Z" fill="#FCFF2C"/>
<path fill-rule="evenodd" clip-rule="evenodd" d="M9.50041 20.2894L9.31641 20.251L9.44841 20.1134L9.58121 19.9766L9.74122 20.159C9.91482 20.3606 9.89562 20.371 9.50041 20.2894Z" fill="#FCFF2C"/>
<path fill-rule="evenodd" clip-rule="evenodd" d="M7.06613 20.1278L6.93652 19.9742H7.13413C7.23382 19.9766 7.33325 19.9629 7.42854 19.9334C7.50854 19.9006 7.49894 19.9334 7.39494 20.087C7.35322 20.1617 7.29754 20.2277 7.23093 20.2814C7.16648 20.2415 7.11049 20.1893 7.06613 20.1278Z" fill="#FCFF2C"/>
<path fill-rule="evenodd" clip-rule="evenodd" d="M8.47206 20.0981L8.63206 19.9141L8.78646 20.0741C8.84396 20.1303 8.89593 20.1919 8.94167 20.2581C8.83834 20.2775 8.73302 20.2842 8.62806 20.2781H8.31445L8.47206 20.0981Z" fill="#FCFF2C"/>
<path fill-rule="evenodd" clip-rule="evenodd" d="M9.93251 20.1302L9.80371 19.9766H10.0613C10.3397 19.9766 10.3749 20.0238 10.2213 20.1814C10.0917 20.3118 10.0893 20.3118 9.93571 20.1302" fill="#FCFF2C"/>
<path fill-rule="evenodd" clip-rule="evenodd" d="M7.99972 20.0669L7.87012 19.9141H8.45973L8.33013 20.0669C8.17012 20.2565 8.15892 20.2565 7.99972 20.0669Z" fill="#FCFF2C"/>
<path fill-rule="evenodd" clip-rule="evenodd" d="M8.99484 20.0669L8.86523 19.9141H9.45565L9.32605 20.0669C9.16604 20.2565 9.15484 20.2565 8.99484 20.0669Z" fill="#FCFF2C"/>
<path fill-rule="evenodd" clip-rule="evenodd" d="M10.7597 19.9141C10.6229 19.8877 10.0749 19.8341 9.54128 19.7893C8.50833 19.7188 7.47087 19.7545 6.4452 19.8957C6.2348 19.9245 6.18359 19.9125 6.18359 19.8389C6.18359 19.6789 7.28922 19.5781 8.99486 19.5781C9.82929 19.5781 10.6749 19.6013 10.8829 19.6293C11.2285 19.6765 11.2557 19.6909 11.2557 19.8285C11.2557 19.9885 11.2085 19.9997 10.7597 19.9141Z" fill="#FCFF2C"/>
<path fill-rule="evenodd" clip-rule="evenodd" d="M6.47234 19.3909C6.54421 19.3075 6.62903 19.2362 6.72355 19.1797C6.79238 19.2145 6.85169 19.2656 6.89636 19.3285L7.02116 19.4773L6.75395 19.5157C6.60675 19.5373 6.43394 19.5645 6.37634 19.5797C6.29634 19.5981 6.31874 19.5493 6.47234 19.3909Z" fill="#FCFF2C"/>
<path fill-rule="evenodd" clip-rule="evenodd" d="M6.08001 19.4172C6.03921 19.2947 6.05041 19.2571 6.14482 19.2195C6.21396 19.1925 6.28856 19.1824 6.36242 19.1899C6.45282 19.2051 6.44242 19.2307 6.29762 19.3852L6.12961 19.5644L6.08001 19.4172Z" fill="#FCFF2C"/>
<path fill-rule="evenodd" clip-rule="evenodd" d="M11.2002 19.4942C11.2002 19.4654 11.2354 19.4246 11.2802 19.4062C11.325 19.3878 11.3506 19.4006 11.3298 19.4614C11.2962 19.5574 11.201 19.5822 11.201 19.4942" fill="#FCFF2C"/>
<path fill-rule="evenodd" clip-rule="evenodd" d="M7.49601 19.2725C7.57601 19.1709 7.64482 19.0829 7.64482 19.0781C7.70665 19.1273 7.76493 19.1807 7.81922 19.2381L7.99443 19.4109L7.67442 19.4309L7.34961 19.4517L7.49601 19.2725Z" fill="#FCFF2C"/>
<path fill-rule="evenodd" clip-rule="evenodd" d="M10.4422 19.4416L10.207 19.4176L10.3758 19.2616L10.5438 19.1016L10.6798 19.2416C10.827 19.396 10.8542 19.4904 10.7454 19.4736C10.7078 19.468 10.5718 19.452 10.4422 19.4392" fill="#FCFF2C"/>
<path fill-rule="evenodd" clip-rule="evenodd" d="M7.03305 19.2719L6.87305 19.1311L7.13705 19.0863C7.23038 19.0649 7.32642 19.0579 7.42186 19.0655C7.43306 19.0783 7.38586 19.1615 7.31706 19.2511L7.19146 19.4111L7.03305 19.2719Z" fill="#FCFF2C"/>
<path fill-rule="evenodd" clip-rule="evenodd" d="M9.44654 19.3729L9.31934 19.3337L9.45854 19.1865C9.57774 19.0617 9.61294 19.0521 9.68654 19.1201C9.74337 19.1764 9.79114 19.2412 9.82815 19.3121C9.87455 19.4097 9.86095 19.4241 9.72815 19.4185C9.63284 19.4142 9.53834 19.3989 9.44654 19.3729Z" fill="#FCFF2C"/>
<path fill-rule="evenodd" clip-rule="evenodd" d="M10.8387 19.2311L10.6787 19.0391L10.8163 19.0775C10.934 19.1033 11.0542 19.1165 11.1747 19.1167H11.3955L11.2299 19.2679C11.1713 19.327 11.1051 19.3781 11.0331 19.4199C10.9588 19.3675 10.8936 19.3031 10.8403 19.2295" fill="#FCFF2C"/>
<path fill-rule="evenodd" clip-rule="evenodd" d="M8.01116 19.2146C7.9604 19.1627 7.92043 19.1012 7.89355 19.0338C7.89355 19.0114 8.03356 18.9922 8.20556 18.9922H8.51677L8.41277 19.121C8.22796 19.3482 8.13996 19.3674 8.01276 19.2146" fill="#FCFF2C"/>
<path fill-rule="evenodd" clip-rule="evenodd" d="M8.51893 19.204C8.69654 19.0304 8.75894 19.0344 8.87334 19.228C8.95334 19.3608 8.95334 19.3616 8.65734 19.3608H8.36133L8.51893 19.204Z" fill="#FCFF2C"/>
<path fill-rule="evenodd" clip-rule="evenodd" d="M9.88697 19.1762L9.75977 18.9922H9.89577C9.99779 18.9958 10.0993 19.0087 10.199 19.0306L10.3686 19.069L10.2126 19.2146C10.1594 19.2691 10.1001 19.3171 10.0358 19.3578C9.98095 19.3013 9.93165 19.2397 9.88857 19.1738" fill="#FCFF2C"/>
<path fill-rule="evenodd" clip-rule="evenodd" d="M8.99484 19.1536L8.86523 19H9.45565L9.32605 19.1536C9.16604 19.3432 9.15484 19.3432 8.99484 19.1536Z" fill="#FCFF2C"/>
<path fill-rule="evenodd" clip-rule="evenodd" d="M6.04768 18.9444C6.09 18.8087 6.12525 18.6709 6.15329 18.5316L6.21889 18.2252L6.8237 17.8876C7.11072 17.7329 7.38588 17.5573 7.64692 17.3619C7.76773 17.2579 7.89333 17.1539 7.92853 17.1331C8.72898 17.1278 9.52858 17.1862 10.3198 17.3075C10.8646 17.3947 11.819 17.5836 11.851 17.61C11.7999 17.8194 11.7379 18.0261 11.6654 18.2292C11.5558 18.5628 11.4558 18.8732 11.4438 18.9188C11.427 18.982 11.3598 18.9924 11.1742 18.9612C9.67039 18.8141 8.15541 18.8224 6.6533 18.986C6.08288 19.078 5.99968 19.0716 6.04928 18.9428" fill="#FCFF2C"/>
<path fill-rule="evenodd" clip-rule="evenodd" d="M10.6541 18.5707C10.7357 18.4867 10.7918 18.3814 10.8158 18.2668C10.8399 18.1523 10.831 18.0332 10.7901 17.9236C10.7492 17.8139 10.678 17.718 10.5849 17.6472C10.4917 17.5764 10.3803 17.5335 10.2636 17.5234C10.1861 17.5243 10.1096 17.5413 10.039 17.5732C9.96832 17.6052 9.90508 17.6515 9.85327 17.7092C9.80145 17.7669 9.76217 17.8347 9.73793 17.9083C9.71369 17.982 9.70501 18.0599 9.71243 18.1371C9.6977 18.2518 9.71998 18.3682 9.77602 18.4694C9.83206 18.5706 9.91894 18.6513 10.024 18.6997C10.1291 18.748 10.2468 18.7616 10.3602 18.7384C10.4735 18.7152 10.5765 18.6564 10.6541 18.5707Z" fill="black"/>
<path fill-rule="evenodd" clip-rule="evenodd" d="M10.0602 18.5577C9.99147 18.5092 9.93595 18.4442 9.89872 18.3687C9.86149 18.2932 9.84374 18.2095 9.84708 18.1254C9.85042 18.0413 9.87474 17.9593 9.91784 17.887C9.96094 17.8147 10.0214 17.7543 10.0938 17.7113C10.1628 17.6796 10.2389 17.6667 10.3145 17.6738C10.3901 17.6808 10.4625 17.7077 10.5244 17.7517C10.5863 17.7957 10.6355 17.8552 10.6671 17.9242C10.6986 17.9932 10.7115 18.0694 10.7042 18.1449C10.705 18.221 10.6864 18.2959 10.6504 18.3629C10.6143 18.4298 10.5619 18.4865 10.498 18.5277C10.4341 18.5689 10.3608 18.5933 10.285 18.5985C10.2091 18.6038 10.1332 18.5898 10.0642 18.5577" fill="#FCFF2C"/>
<path fill-rule="evenodd" clip-rule="evenodd" d="M8.43848 18.5336C8.51568 18.464 8.57474 18.3766 8.61058 18.279C8.64641 18.1814 8.65793 18.0766 8.64415 17.9735C8.63036 17.8705 8.59168 17.7723 8.53145 17.6876C8.47123 17.6029 8.39126 17.5341 8.29848 17.4872C8.2374 17.4582 8.1712 17.4415 8.10367 17.4381C8.03613 17.4348 7.9686 17.4447 7.90492 17.4675C7.84124 17.4902 7.78267 17.5253 7.73256 17.5707C7.68244 17.616 7.64177 17.6709 7.61286 17.732C7.53251 17.8454 7.4963 17.9842 7.51103 18.1223C7.52576 18.2605 7.59042 18.3885 7.69287 18.4824C7.73235 18.543 7.78535 18.5935 7.84769 18.6301C7.91003 18.6667 7.98001 18.6883 8.05213 18.6933C8.12424 18.6983 8.19652 18.6864 8.26329 18.6587C8.33005 18.631 8.38947 18.5882 8.43688 18.5336" fill="black"/>
<path fill-rule="evenodd" clip-rule="evenodd" d="M7.90983 18.5044C7.82259 18.4517 7.75358 18.3736 7.71211 18.2805C7.67063 18.1874 7.65868 18.0839 7.67785 17.9838C7.69703 17.8838 7.74642 17.792 7.81937 17.7208C7.89231 17.6497 7.98531 17.6026 8.08583 17.5859C8.18435 17.5997 8.27625 17.6434 8.34903 17.7112C8.4218 17.779 8.47192 17.8676 8.49255 17.9649C8.51318 18.0622 8.50334 18.1635 8.46434 18.255C8.42535 18.3466 8.35911 18.4238 8.27464 18.4764C8.09863 18.578 8.07703 18.5796 7.90983 18.5044Z" fill="#FCFF2C"/>
<path fill-rule="evenodd" clip-rule="evenodd" d="M5.79895 18.7766C5.87895 18.5502 5.86615 18.2598 5.78055 18.2598C5.73575 18.2598 5.70935 18.3398 5.70935 18.4742C5.71392 18.5765 5.68863 18.678 5.63655 18.7662C5.57574 18.8294 5.56774 18.7806 5.59335 18.4902C5.61015 18.2958 5.60295 18.1382 5.57734 18.1382C5.52774 18.1382 5.43174 18.431 5.39654 18.6886C5.37654 18.8398 5.37574 18.8398 5.33014 18.6614C5.31241 18.5917 5.30973 18.5191 5.32228 18.4483C5.33483 18.3776 5.36233 18.3103 5.40294 18.251C5.46918 18.123 5.50968 17.9833 5.52214 17.8398C5.52214 17.6894 5.62695 17.5438 6.13496 16.9941C6.47257 16.6293 6.86458 16.1757 7.00778 15.9861C7.25499 15.6605 7.26699 15.6277 7.25739 15.2965C7.26133 15.167 7.24651 15.0377 7.21339 14.9125C7.14858 14.8397 7.06298 15.2101 7.09658 15.4117C7.12858 15.5941 7.09658 15.6557 6.73977 16.1045C6.52537 16.3765 6.16136 16.7853 5.93175 17.0149C5.50854 17.4398 5.35574 17.6686 5.35574 17.8838C5.33809 18.0155 5.30229 18.1442 5.24934 18.2662C5.19867 18.3682 5.17342 18.4811 5.17573 18.595C5.19493 18.6342 5.18213 18.6326 5.14133 18.595C5.10053 18.5574 5.09093 18.4558 5.13013 18.2614C5.15891 18.1573 5.16759 18.0487 5.15573 17.9414C5.09733 17.835 5.02693 17.9718 4.99573 18.2614C4.97573 18.4286 4.93813 18.5494 4.91173 18.531C4.83173 18.4758 4.85733 18.175 4.95493 18.0198C5.02288 17.8862 5.06958 17.7429 5.09333 17.595C5.18177 17.1309 5.40042 16.7017 5.72375 16.3573C5.91735 16.1229 6.07576 15.9205 6.07576 15.9101C6.07576 15.8997 6.02456 15.7261 5.96215 15.5269C5.81717 15.0085 5.80917 14.4613 5.93895 13.9389C6.12236 13.4232 6.42371 12.9574 6.81898 12.5788C7.28619 12.094 7.7294 11.8036 7.9446 11.8388C8.12941 11.87 13.4647 16.3325 13.4647 16.4573C13.4642 16.4694 13.4613 16.4813 13.4561 16.4922C13.451 16.5032 13.4436 16.5129 13.4346 16.521C13.4256 16.5291 13.415 16.5352 13.4036 16.5391C13.3921 16.543 13.38 16.5446 13.3679 16.5437C13.3143 16.5437 11.9567 16.1325 10.3511 15.6309C7.7846 14.8309 7.41579 14.6997 7.30459 14.5565C7.22871 14.4525 7.18651 14.3277 7.18365 14.199C7.18079 14.0703 7.21741 13.9438 7.28859 13.8365C7.34341 13.766 7.3812 13.6839 7.39899 13.5965C7.39899 13.4613 7.12698 13.8077 7.07898 14.0093C7.05408 14.1442 7.06084 14.2831 7.09874 14.415C7.13664 14.5469 7.20464 14.6682 7.29739 14.7693C7.64978 14.9278 8.0128 15.0614 8.38381 15.1693C9.29264 15.4565 9.35424 15.4893 9.40304 15.6493C9.51904 16.0357 9.13663 16.4845 8.58542 16.6093C8.38142 16.663 8.19075 16.7584 8.02541 16.8893C7.5922 17.2643 7.11606 17.5865 6.60697 17.8494C6.44702 17.9171 6.29425 18.0008 6.15096 18.099C6.08603 18.2238 6.04428 18.3593 6.02776 18.499C5.96215 18.8782 5.93655 18.9374 5.83095 18.9374C5.77015 18.9374 5.76455 18.9038 5.80695 18.7774" fill="#FCFF2C"/>
<path fill-rule="evenodd" clip-rule="evenodd" d="M11.3948 17.3695C10.6118 17.1978 9.81786 17.0802 9.01869 17.0175L8.13867 16.9375L8.46908 16.8039C8.66834 16.7222 8.86232 16.6281 9.04989 16.5223C9.1426 16.4617 9.24638 16.42 9.35527 16.3997C9.46415 16.3794 9.57598 16.3808 9.68431 16.4039C10.1763 16.4439 10.5075 16.3463 10.6307 16.1287C10.6819 16.0359 10.7315 15.9511 10.7387 15.9375C11.0324 16.0009 11.3222 16.081 11.6068 16.1775L12.4596 16.4391L12.2948 16.7535C12.2036 16.9239 12.0884 17.1535 12.0396 17.2647C11.9396 17.4863 11.9044 17.4935 11.3916 17.3671" fill="#FCFF2C"/>
<path fill-rule="evenodd" clip-rule="evenodd" d="M9.4541 16.2446C9.4077 16.2134 9.4093 16.1725 9.4629 16.0909C9.5085 16.0221 9.5493 16.0045 9.5717 16.0445C9.62291 16.1365 9.5301 16.2974 9.4541 16.2446Z" fill="#FCFF2C"/>
<path fill-rule="evenodd" clip-rule="evenodd" d="M9.65772 16.2397C9.65772 16.1597 9.69692 16.1597 9.73772 16.2397C9.75692 16.2741 9.74572 16.3013 9.71372 16.3013C9.70581 16.3012 9.698 16.2995 9.69075 16.2963C9.6835 16.2932 9.67696 16.2886 9.67151 16.2828C9.66607 16.2771 9.66183 16.2703 9.65905 16.2629C9.65627 16.2555 9.655 16.2476 9.65532 16.2397" fill="#FCFF2C"/>
<path fill-rule="evenodd" clip-rule="evenodd" d="M9.93262 16.2061C9.93262 16.1533 9.95742 16.1261 9.98782 16.1485C10.0598 16.1973 10.0598 16.3021 9.98782 16.3021C9.95742 16.3021 9.93262 16.2589 9.93262 16.2061Z" fill="#FCFF2C"/>
<path fill-rule="evenodd" clip-rule="evenodd" d="M10.1934 16.1972C10.1661 16.156 10.1521 16.1074 10.1534 16.058C10.1534 15.9892 10.1686 15.9828 10.2142 16.0324C10.231 16.0509 10.2433 16.073 10.2502 16.097C10.2572 16.121 10.2585 16.1462 10.2542 16.1708C10.243 16.21 10.215 16.222 10.1934 16.1972Z" fill="#FCFF2C"/>
<path fill-rule="evenodd" clip-rule="evenodd" d="M9.75272 16.0744C9.72577 16.033 9.71158 15.9846 9.71192 15.9352C9.71192 15.8664 9.72872 15.8552 9.77352 15.9088C9.79034 15.9274 9.80274 15.9496 9.8098 15.9737C9.81687 15.9978 9.81841 16.0232 9.81432 16.048C9.80312 16.0872 9.77432 16.0984 9.75272 16.0744Z" fill="#FCFF2C"/>
<path fill-rule="evenodd" clip-rule="evenodd" d="M10.4 16.0458C10.34 15.9394 10.408 15.917 10.48 16.0186C10.524 16.0762 10.528 16.1114 10.4912 16.1114C10.4714 16.1086 10.4526 16.1012 10.4362 16.0898C10.4198 16.0784 10.4063 16.0634 10.3968 16.0458" fill="#FCFF2C"/>
<path fill-rule="evenodd" clip-rule="evenodd" d="M9.96307 15.9312C9.95572 15.9149 9.95409 15.8965 9.95844 15.8791C9.9628 15.8617 9.97288 15.8462 9.98707 15.8352C10.0183 15.8144 10.0431 15.8408 10.0431 15.8936C10.0431 16.0008 10.0103 16.0168 9.96307 15.9312Z" fill="#FCFF2C"/>
<path fill-rule="evenodd" clip-rule="evenodd" d="M10.21 15.8311C10.21 15.7783 10.234 15.7511 10.2644 15.7735C10.3364 15.8231 10.3348 15.9271 10.2644 15.9271C10.234 15.9271 10.21 15.8839 10.21 15.8311Z" fill="#FCFF2C"/>
<path fill-rule="evenodd" clip-rule="evenodd" d="M9.54688 15.7803C9.54688 15.6722 9.57968 15.657 9.62688 15.7426C9.63495 15.7588 9.63696 15.7772 9.63256 15.7947C9.62815 15.8122 9.61762 15.8275 9.60288 15.8379C9.57168 15.8595 9.54688 15.8331 9.54688 15.7803Z" fill="#FCFF2C"/>
<path fill-rule="evenodd" clip-rule="evenodd" d="M9.76758 15.7139C9.76758 15.6611 9.79238 15.6339 9.82278 15.6563C9.89398 15.7051 9.89398 15.8099 9.82278 15.8099C9.79238 15.8099 9.76758 15.7667 9.76758 15.7139Z" fill="#FCFF2C"/>
<path fill-rule="evenodd" clip-rule="evenodd" d="M6.06123 12.7675C6.04523 12.5019 6.04523 11.8875 6.06123 11.3939C6.09243 10.3795 6.06843 10.2794 5.75722 10.1682C5.50361 10.077 5.41161 10.001 5.41161 9.88024C5.41161 9.80024 5.46841 9.79304 5.74682 9.82504C6.03883 9.85944 6.07963 9.85144 6.06683 9.76344C6.03963 9.60343 5.65322 9.48583 5.24441 9.50983C4.9244 9.52823 4.8836 9.51863 4.9052 9.42983C4.94064 9.32794 5.00774 9.24006 5.0967 9.17903C5.18565 9.118 5.29179 9.08702 5.39961 9.09062C5.56546 9.06824 5.72605 9.01678 5.87402 8.93861C6.06127 8.83241 6.28014 8.79612 6.49164 8.83621C7.21166 8.87701 7.35086 9.08982 7.53966 10.4619C7.61327 10.9955 7.67327 11.4891 7.67487 11.5603C7.67487 11.6523 7.57487 11.7627 7.32126 11.9443C6.90506 12.2553 6.53778 12.6269 6.23163 13.0467L6.09243 13.2515L6.06123 12.7675Z" fill="#FCFF2C"/>
<path fill-rule="evenodd" clip-rule="evenodd" d="M6.59772 9.55717C6.63606 9.52274 6.66073 9.47565 6.66719 9.42452C6.67365 9.3734 6.66149 9.32165 6.63292 9.27876C6.55291 9.08676 6.46331 9.12996 6.50091 9.34196C6.52251 9.46757 6.50571 9.49717 6.41051 9.49717C6.31531 9.49717 6.29451 9.45877 6.29451 9.30516C6.29451 9.15156 6.28171 9.12516 6.21451 9.19076C6.18888 9.21528 6.16865 9.24487 6.1551 9.27764C6.14155 9.31041 6.13498 9.34565 6.13581 9.3811C6.13664 9.41656 6.14485 9.45145 6.15991 9.48356C6.17498 9.51566 6.19657 9.54427 6.22331 9.56757C6.34091 9.71397 6.47611 9.71077 6.60092 9.55717" fill="black"/>
<path d="M8.16955 1.49035L8.16992 1.49022C9.92451 0.886331 11.8372 0.587543 15.6525 0.507812H16.3507C20.1666 0.587537 22.0778 0.886289 23.8349 1.49022C25.5215 2.07072 27.0396 3.05674 28.2558 4.36154C29.2679 5.53825 30.0433 6.89947 30.5392 8.37037C31.1325 10.2489 31.4476 12.2043 31.4744 14.1742L31.4744 14.1742L31.4747 14.184C31.5008 14.9701 31.5008 15.0776 31.5008 16.0084V16.0114V16.0147C31.5008 16.9452 31.5008 17.0487 31.4747 17.8349L31.4746 17.8349L31.4744 17.8447C31.4477 19.8148 31.1325 21.7705 30.5391 23.6493C30.0435 25.1204 29.2682 26.4819 28.2559 27.6588C27.0387 28.9624 25.5199 29.9471 23.8329 30.5261L23.8325 30.5262C22.0779 31.1301 20.166 31.4289 16.3508 31.5086H15.6524C11.8357 31.4297 9.92458 31.1301 8.16992 30.5262L8.16948 30.5261C6.48266 29.9472 4.96404 28.9626 3.74729 27.6588C2.7338 26.481 1.95742 25.1185 1.46085 23.6461C0.86783 21.7671 0.552727 19.8115 0.52555 17.8414H0.525636L0.525336 17.8321C0.5 17.049 0.5 16.9445 0.5 16.0113V16.0082V16.0049C0.5 15.0722 0.5 14.9674 0.527687 14.1818L0.527802 14.1818L0.52795 14.1711C0.555191 12.2012 0.870286 10.2459 1.46323 8.36722C1.95968 6.89642 2.73524 5.53527 3.74736 4.3584C4.96407 3.05437 6.48268 2.06943 8.16955 1.49035Z" stroke="#F6F6F6"/>
</g>
</g>
<defs>
<clipPath id="clip0_583_8628">
<rect width="32" height="31.9984" fill="white" transform="translate(0 0.0078125)"/>
</clipPath>
</defs>
</svg>
