<svg width="32" height="32" viewBox="0 0 32 32" fill="none" xmlns="http://www.w3.org/2000/svg">
<g clip-path="url(#clip0_583_7244)">
<mask id="mask0_583_7244" style="mask-type:luminance" maskUnits="userSpaceOnUse" x="0" y="0" width="32" height="32">
<path d="M16.0008 0.0078125H15.6464C11.8064 0.0878125 9.8328 0.389412 8.0056 1.01821C6.23774 1.62441 4.64654 2.657 3.3728 4.02461C2.31444 5.25331 1.50381 6.67517 0.9856 8.21181C0.377303 10.1384 0.0538847 12.1436 0.0256001 14.1638C5.06639e-08 14.9582 0 15.0686 0 16.0038C0 16.939 5.06639e-08 17.0542 0.0256001 17.8478C0.0538847 19.868 0.377303 21.8732 0.9856 23.7998C1.50381 25.3365 2.31444 26.7583 3.3728 27.987C4.64671 29.3546 6.23783 30.3874 8.0056 30.9942C9.8328 31.6222 11.8048 31.9238 15.6464 32.0038H16.3552C20.1952 31.9238 22.1688 31.6222 23.9952 30.9942C25.7633 30.3871 27.3548 29.3543 28.6296 27.987C29.6875 26.7584 30.4973 25.3365 31.0144 23.7998C31.6238 21.8734 31.9472 19.8681 31.9744 17.8478C32 17.0542 32 16.9446 32 16.0038C32 15.063 32 14.955 31.9744 14.1638C31.9472 12.1435 31.6238 10.1382 31.0144 8.21181C30.4987 6.67428 29.6899 5.25126 28.6328 4.02141C27.3589 2.65441 25.7681 1.62192 24.0008 1.01501C22.172 0.386212 20.2 0.0878125 16.3584 0.0078125H16.0008Z" fill="white"/>
</mask>
<g mask="url(#mask0_583_7244)">
<path d="M11.7701 -1.27344H-5.51953V33.2786H11.7701V-1.27344Z" fill="#BC0030"/>
<path d="M53.7609 -1.27344H11.7705V10.2426H53.7609V-1.27344Z" fill="#3F9B13"/>
<path d="M53.7609 10.2422H11.7705V21.7606H53.7609V10.2422Z" fill="white"/>
<path d="M53.7609 21.7578H11.7705V33.2754H53.7609V21.7578Z" fill="black"/>
</g>
</g>
<defs>
<clipPath id="clip0_583_7244">
<rect width="32" height="31.996" fill="white" transform="translate(0 0.0078125)"/>
</clipPath>
</defs>
</svg>
