<svg width="32" height="32" viewBox="0 0 32 32" fill="none" xmlns="http://www.w3.org/2000/svg">
<g clip-path="url(#clip0_583_8270)">
<mask id="mask0_583_8270" style="mask-type:luminance" maskUnits="userSpaceOnUse" x="0" y="0" width="32" height="33">
<path d="M16.0016 0.0078125H15.6448C11.8046 0.0878165 9.83169 0.388631 8.0036 1.01666C6.237 1.62432 4.64663 2.65645 3.37217 4.02241C2.31382 5.25094 1.50363 6.67297 0.98645 8.20982C0.376899 10.1363 0.0534346 12.1417 0.0264013 14.1621C-5.96076e-09 14.9558 0 15.0654 0 16.0022C0 16.9391 -5.96076e-09 17.0519 0.0264013 17.8463C0.0534319 19.8664 0.376898 21.8716 0.98645 23.7978C1.50298 25.3369 2.31318 26.7611 3.37217 27.9916C4.64665 29.3591 6.23805 30.3919 8.006 30.999C9.83409 31.6238 11.8046 31.9286 15.6448 32.0086H16.3544C20.1946 31.9286 22.1675 31.627 23.994 30.999C25.7625 30.3925 27.3543 29.3596 28.6286 27.9916C29.687 26.7628 30.4972 25.3405 31.0144 23.8034C31.6235 21.8771 31.9469 19.872 31.9744 17.8519C32 17.0575 32 16.9479 32 16.0078C32 15.0678 32 14.9582 31.9744 14.1677C31.9469 12.1474 31.6235 10.142 31.0144 8.21542C30.4985 6.67678 29.6892 5.25281 28.631 4.02241C27.3563 2.65471 25.7646 1.62164 23.9964 1.01426C22.1699 0.388631 20.1978 0.0870165 16.3568 0.0078125H16.0016Z" fill="white"/>
</mask>
<g mask="url(#mask0_583_8270)">
<path fill-rule="evenodd" clip-rule="evenodd" d="M40.3606 -0.21875H-8.35547V10.5986H40.3606V-0.21875Z" fill="#FFCC00"/>
<path d="M40.3606 21.4141H-8.35547V32.2314H40.3606V21.4141Z" fill="#E3001C"/>
<path d="M40.3606 10.6016H-8.35547V21.4189H40.3606V10.6016Z" fill="#002DA6"/>
<path fill-rule="evenodd" clip-rule="evenodd" d="M13.9499 11.4375L14.4355 12.3279L15.4316 12.1383L14.7339 12.8744L15.2228 13.7632L14.3059 13.3272L13.6115 14.0656L13.7427 13.0608L12.825 12.6288L13.8227 12.4432L13.9499 11.4375ZM25.6657 18.029L25.3905 19.0051L24.376 19.0411L25.2201 19.6011L24.9409 20.5828L25.7409 19.9547L26.5825 20.5212L26.2313 19.5699L27.0314 18.9459L26.0129 18.9827L25.6657 18.029ZM24.9929 15.4417L24.0576 15.8353L23.3976 15.0625L23.4832 16.0721L22.5463 16.4626L23.5344 16.693L23.6144 17.7034L24.1392 16.8362L25.1265 17.0706L24.4632 16.3033L24.9929 15.4417ZM21.8727 12.8176L21.1215 13.4992L20.2414 12.992L20.6574 13.9168L19.9038 14.5953L20.9119 14.4849L21.3255 15.4113L21.5319 14.4184L22.5407 14.3128L21.6607 13.8096L21.8727 12.8176ZM18.0565 11.4375L17.5653 12.3279L16.5684 12.1383L17.2661 12.8744L16.778 13.7632L17.6941 13.3272L18.3885 14.0656L18.2613 13.0624L19.179 12.6304L18.1813 12.4448L18.0565 11.4375ZM6.33912 18.029L6.61434 19.0051L7.62799 19.0411L6.78395 19.6011L7.06316 20.5828L6.26312 19.9547L5.42148 20.5212L5.7727 19.5699L4.97266 18.9459L5.98631 18.9859L6.33912 18.029ZM7.01116 15.4417L7.94641 15.8353L8.60484 15.0625L8.52483 16.0761L9.46088 16.4666L8.47283 16.697L8.39283 17.7074L7.868 16.8402L6.88075 17.0746L7.54399 16.3073L7.01116 15.4417ZM10.1313 12.8176L10.8826 13.4992L11.7626 12.992L11.3466 13.9168L12.1002 14.5953L11.0922 14.4849L10.6793 15.4113L10.4729 14.4224L9.46408 14.3168L10.3441 13.8136L10.1313 12.8176Z" fill="#F4F4F4"/>
</g>
</g>
<defs>
<clipPath id="clip0_583_8270">
<rect width="32" height="32.0008" fill="white" transform="translate(0 0.0078125)"/>
</clipPath>
</defs>
</svg>
