<svg width="32" height="32" viewBox="0 0 32 32" fill="none" xmlns="http://www.w3.org/2000/svg">
<g clip-path="url(#clip0_583_7252)">
<mask id="mask0_583_7252" style="mask-type:luminance" maskUnits="userSpaceOnUse" x="0" y="0" width="32" height="32">
<path d="M16.0008 0H15.6464C11.8062 0.080004 9.83249 0.381619 8.0052 1.01125C6.23684 1.61671 4.64519 2.64914 3.37137 4.017C2.31258 5.24626 1.50212 6.66911 0.984849 8.20681C0.376174 10.1332 0.0527297 12.1383 0.0248013 14.1583C1.49019e-08 14.9519 0 15.0624 0 16.0032C0 16.944 1.49019e-08 17.0521 0.0248013 17.8433C0.0527321 19.8636 0.376175 21.8689 0.984849 23.7956C1.50268 25.3326 2.31309 26.7548 3.37137 27.9838C4.64568 29.3513 6.23715 30.3839 8.0052 30.9904C9.83249 31.6192 11.8046 31.9216 15.6464 31.9992H16.3544C20.1946 31.9192 22.1675 31.6192 23.994 30.9904C25.7624 30.3837 27.3544 29.3511 28.6294 27.9838C29.6872 26.7547 30.4971 25.3325 31.0144 23.7956C31.6242 21.8692 31.9476 19.8637 31.9744 17.8433C32 17.0489 32 16.9384 32 16.0032C32 15.068 32 14.9519 31.9744 14.1583C31.9476 12.1382 31.6241 10.1329 31.0144 8.20681C30.4974 6.66976 29.6875 5.24747 28.6294 4.0186C27.3552 2.65053 25.7633 1.61762 23.9948 1.01125C22.1683 0.381619 20.1946 0.079204 16.3544 0H16.0008Z" fill="white"/>
</mask>
<g mask="url(#mask0_583_7252)">
<path d="M53.6651 -0.03125H-0.526367V18.0185H53.6651V-0.03125Z" fill="#FF1228"/>
<path d="M53.6651 18.0156H-0.526367V36.0653H53.6651V18.0156Z" fill="white"/>
<path d="M6.87205 9.22284C6.85345 8.12843 7.17301 7.05494 7.78712 6.14888C8.40124 5.24281 9.27998 4.54832 10.3034 4.16019C9.5847 3.97352 8.83447 3.94199 8.10262 4.0677C7.37077 4.19342 6.67407 4.4735 6.05884 4.88931C5.44362 5.30513 4.92396 5.84715 4.53442 6.47934C4.14489 7.11154 3.89441 7.81942 3.79963 8.55591C3.70485 9.29241 3.76794 10.0406 3.98472 10.7509C4.20149 11.4611 4.56698 12.117 5.05689 12.6751C5.54679 13.2331 6.14988 13.6804 6.82605 13.9874C7.50222 14.2943 8.23599 14.4537 8.97855 14.4551C9.42559 14.4552 9.87071 14.3968 10.3026 14.2815C9.27971 13.8939 8.40134 13.2 7.78737 12.2947C7.1734 11.3893 6.85375 10.3166 6.87205 9.22284Z" fill="white"/>
<path d="M12.6097 4.96875L12.8985 5.9152H13.8362L13.0745 6.50083L13.3642 7.44807L12.6065 6.86165L11.8489 7.44807L12.1377 6.50083L11.3809 5.9152H12.3169L12.6097 4.96875Z" fill="white"/>
<path d="M15.5405 7.15625L15.8301 8.1035H16.7669L16.0093 8.68993L16.2981 9.63718L15.5405 9.05235L14.7828 9.63718L15.074 8.69233L14.3164 8.1059H15.2533L15.5405 7.15625Z" fill="white"/>
<path d="M9.66982 7.15625L9.95864 8.1035H10.8963L10.1378 8.68993L10.4275 9.63718L9.66982 9.05235L8.91138 9.63718L9.201 8.68993L8.44336 8.1035H9.38021L9.66982 7.15625Z" fill="white"/>
<path d="M10.8728 10.6094L11.1632 11.5558H12.0992L11.3424 12.1415L11.6344 13.0895L10.876 12.5039L10.1143 13.0895L10.4047 12.1415L9.64551 11.5558H10.5824L10.8728 10.6094Z" fill="white"/>
<path d="M14.4219 10.6094L14.7116 11.5558H15.6484L14.89 12.1415L15.1796 13.0895L14.4219 12.5039L13.6635 13.0895L13.9539 12.1415L13.1963 11.5558H14.1323L14.4219 10.6094Z" fill="white"/>
<path d="M15.6476 0C11.8079 0.080004 9.83446 0.380819 8.0074 1.00965C6.23977 1.61646 4.64876 2.64933 3.37495 4.017C2.31655 5.24568 1.50597 6.66763 0.987926 8.20441C0.379339 10.1311 0.055937 12.1364 0.0279982 14.1567C2.59261e-07 14.9511 0 15.0616 0 16.0008C0 16.94 5.06602e-08 17.0497 0.0255981 17.8409C0.0534705 19.8615 0.376874 21.8671 0.985526 23.794C1.50369 25.3324 2.31513 26.7558 3.37495 27.9854C4.64881 29.3528 6.23982 30.3854 8.0074 30.992C9.83446 31.6208 11.8063 31.9224 15.6476 32.0016H16.3564C20.1961 31.9216 22.1687 31.6208 23.9958 30.992C25.7635 30.3852 27.3548 29.3527 28.6291 27.9854C29.6876 26.7567 30.498 25.3344 31.0153 23.7972C31.6243 21.8704 31.9477 19.8647 31.9752 17.8441C32.0016 17.0497 32.0016 16.9408 32.0016 16.004C32.0016 15.0672 32.0016 14.9543 31.9752 14.1599C31.9477 12.1396 31.6242 10.1342 31.0153 8.20761C30.4978 6.67074 29.6875 5.24872 28.6291 4.0202C27.3558 2.65184 25.7654 1.61791 23.9982 1.00965C22.1687 0.380819 20.1969 0.080004 16.3564 0H15.6476Z" stroke="#F6F6F6"/>
</g>
</g>
<defs>
<clipPath id="clip0_583_7252">
<rect width="32" height="31.9992" fill="white"/>
</clipPath>
</defs>
</svg>
