<svg width="32" height="32" viewBox="0 0 32 32" fill="none" xmlns="http://www.w3.org/2000/svg">
<g clip-path="url(#clip0_583_7265)">
<mask id="mask0_583_7265" style="mask-type:luminance" maskUnits="userSpaceOnUse" x="0" y="0" width="32" height="32">
<path d="M16.0012 0H15.6469C11.8077 0.08 9.83539 0.3824 8.0078 1.012C6.24043 1.618 4.64961 2.6503 3.37604 4.0176C2.31601 5.24579 1.50438 6.66808 0.986178 8.2056C0.3773 10.1318 0.053935 12.1368 0.0263933 14.1568C-7.68727e-07 14.9512 0 15.0616 0 16.0016C0 16.9416 -7.68727e-07 17.0496 0.0263933 17.8416C0.0538505 19.8624 0.377214 21.8682 0.986178 23.7952C1.50353 25.3322 2.31375 26.7545 3.37204 27.9832C4.64582 29.3502 6.23658 30.3825 8.0038 30.9888C9.83139 31.6184 11.8021 31.9208 15.6429 31.9992H16.3523C20.1915 31.9192 22.1638 31.6184 23.9906 30.9888C25.7582 30.3827 27.3492 29.3504 28.6232 27.9832C29.6826 26.7546 30.4941 25.3324 31.013 23.7952C31.6216 21.8684 31.9449 19.8629 31.9728 17.8424C32 17.048 32 16.9384 32 16.0024C32 15.0664 32 14.952 31.9728 14.1576C31.9449 12.1377 31.6216 10.1327 31.013 8.2064C30.4957 6.66934 29.6855 5.24712 28.6272 4.0184C27.3534 2.65091 25.7623 1.61859 23.9946 1.0128C22.1678 0.3832 20.1963 0.0807999 16.3563 0.000799942L16.0012 0Z" fill="white"/>
</mask>
<g mask="url(#mask0_583_7265)">
<path d="M56.5697 30.5078H-1.59961V32.9278H56.5697V30.5078Z" fill="white"/>
<path d="M56.033 0.148438H-5.0293V2.69404H56.033V0.148438Z" fill="#D80031"/>
<path d="M56.033 2.6875H-5.0293V5.2291H56.033V2.6875Z" fill="white"/>
<path d="M56.033 5.23438H-5.0293V7.77918H56.033V5.23438Z" fill="#D80031"/>
<path d="M56.033 7.78125H-5.0293V10.3228H56.033V7.78125Z" fill="white"/>
<path d="M56.033 10.3203H-5.0293V12.8635H56.033V10.3203Z" fill="#D80031"/>
<path d="M56.033 12.8594H-5.0293V15.4026H56.033V12.8594Z" fill="white"/>
<path d="M56.033 15.4062H-5.0293V17.9479H56.033V15.4062Z" fill="#D80031"/>
<path d="M56.033 17.9453H-5.0293V20.4901H56.033V17.9453Z" fill="white"/>
<path d="M56.033 20.4922H-5.0293V23.0322H56.033V20.4922Z" fill="#D80031"/>
<path d="M56.033 23.0312H-5.0293V25.576H56.033V23.0312Z" fill="white"/>
<path d="M56.033 25.5781H-5.0293V28.1213H56.033V25.5781Z" fill="#D80031"/>
<path d="M56.033 28.1172H-5.0293V30.6604H56.033V28.1172Z" fill="white"/>
<path d="M56.033 30.6641H-5.0293V33.2073H56.033V30.6641Z" fill="#D80031"/>
<path d="M18.5317 -5.32812H-17.0898V15.0183H18.5317V-5.32812Z" fill="#2530A9"/>
<path fill-rule="evenodd" clip-rule="evenodd" d="M6.78507 9.69358C6.78576 8.99957 6.97132 8.31828 7.32267 7.71982C7.67401 7.12137 8.17843 6.62736 8.78403 6.28864C9.38963 5.94992 10.0745 5.77872 10.7682 5.79267C11.462 5.80661 12.1394 6.00519 12.7309 6.36798C12.0893 5.79467 11.2955 5.41933 10.4453 5.28723C9.59511 5.15513 8.72487 5.27191 7.93957 5.62349C7.15427 5.97507 6.48746 6.54642 6.01957 7.26862C5.55169 7.99082 5.30273 8.83301 5.30273 9.69358C5.30273 10.5541 5.55169 11.3963 6.01957 12.1185C6.48746 12.8407 7.15427 13.4121 7.93957 13.7637C8.72487 14.1152 9.59511 14.232 10.4453 14.0999C11.2955 13.9678 12.0893 13.5925 12.7309 13.0192C12.1394 13.382 11.462 13.5805 10.7682 13.5945C10.0745 13.6084 9.38963 13.4372 8.78403 13.0985C8.17843 12.7598 7.67401 12.2658 7.32267 11.6673C6.97132 11.0689 6.78576 10.3876 6.78507 9.69358Z" fill="#F5D028"/>
<path fill-rule="evenodd" clip-rule="evenodd" d="M15.7085 9.69416L17.8456 8.86696L15.5605 9.05016L17.1274 7.37816L15.1478 8.53256L15.8341 6.34536L14.5544 8.24536L14.2232 5.97656L13.9833 7.60216L13.9153 8.07096L13.8889 8.24536L12.6092 6.34536L13.2963 8.53256L11.3167 7.37816L12.8827 9.05016L10.5977 8.86696L12.7364 9.69416L10.5977 10.5206L12.8827 10.3398L11.3167 12.0118L13.2963 10.8558L12.6068 13.043L13.8865 11.1438L13.9129 11.3174L13.9809 11.7862L14.2208 13.411L14.552 11.1438L15.8317 13.043L15.1454 10.8558L17.125 12.0118L15.5581 10.3398L17.8432 10.5206L15.7085 9.69416Z" fill="#F5D028"/>
</g>
</g>
<defs>
<clipPath id="clip0_583_7265">
<rect width="32" height="31.9992" fill="white"/>
</clipPath>
</defs>
</svg>
