<svg width="32" height="32" viewBox="0 0 32 32" fill="none" xmlns="http://www.w3.org/2000/svg">
<g clip-path="url(#clip0_583_8206)">
<mask id="mask0_583_8206" style="mask-type:luminance" maskUnits="userSpaceOnUse" x="0" y="0" width="32" height="33">
<path d="M16.0012 0.0078125H15.646C11.8059 0.0878145 9.83225 0.389422 8.0058 1.01824C6.23742 1.62442 4.64566 2.65702 3.37128 4.02471C2.31295 5.25351 1.5028 6.67576 0.985624 8.21282C0.376964 10.1391 0.0535281 12.1442 0.0256003 14.1642C-3.30814e-07 14.9594 0 15.0682 0 16.0082C0 16.9482 -3.30814e-07 17.057 0.0256003 17.8483C0.0534707 19.8683 0.376908 21.8733 0.985624 23.7996C1.50333 25.3369 2.31342 26.7596 3.37128 27.9893C4.64635 29.356 6.23791 30.3882 8.0058 30.995C9.83225 31.6246 11.8043 31.9254 15.646 32.0054H16.3548C20.1949 31.9254 22.1686 31.6246 23.995 30.995C25.7615 30.3883 27.3521 29.3574 28.6271 27.9925C29.6857 26.7635 30.4966 25.3413 31.0152 23.8044C31.6235 21.878 31.9469 19.873 31.9752 17.8531C32 17.0586 32 16.949 32 16.013C32 15.077 32 14.9642 31.9752 14.169C31.9469 12.149 31.6234 10.144 31.0152 8.21762C30.4978 6.67868 29.6868 5.25473 28.6271 4.02471C27.3531 2.65768 25.7623 1.62516 23.995 1.01824C22.1686 0.389422 20.1965 0.0870145 16.3548 0.0078125H16.0012Z" fill="white"/>
</mask>
<g mask="url(#mask0_583_8206)">
<path d="M19.5914 16.0081L11.3232 21.5163H44.3969V10.5H11.3232L19.5914 16.0081Z" fill="white"/>
<path d="M-5.21387 -0.515625L11.3233 10.5007H44.397V-0.515625H-5.21387Z" fill="black"/>
<path d="M-5.21387 32.5319H44.397V21.5156H11.3233L-5.21387 32.5319Z" fill="#007A3D"/>
<path d="M19.5916 16.008L11.3233 10.4999L-5.21387 -0.515625V32.5316L11.3233 21.5161L19.5916 16.008Z" fill="#CE1126"/>
<path d="M5.88439 13.6484L6.39721 14.9453L7.73164 14.5365L7.03642 15.7461L8.18765 16.5341L6.80842 16.7445L6.90922 18.1357L5.88439 17.1925L4.85957 18.1389L4.96117 16.7477L3.58594 16.5373L4.73717 15.7493L4.04195 14.5397L5.37558 14.9485L5.88439 13.6484Z" fill="white"/>
</g>
</g>
<defs>
<clipPath id="clip0_583_8206">
<rect width="32" height="31.9976" fill="white" transform="translate(0 0.0078125)"/>
</clipPath>
</defs>
</svg>
