<svg width="24" height="24" viewBox="0 0 24 24" fill="none" xmlns="http://www.w3.org/2000/svg">
<g clip-path="url(#clip0_8918_95366)">
<mask id="mask0_8918_95366" style="mask-type:luminance" maskUnits="userSpaceOnUse" x="0" y="0" width="24" height="24">
<path d="M11.9994 0H11.7336C8.85376 0.060009 7.37423 0.286843 6.0039 0.758514C4.67785 1.2123 3.48409 1.98604 2.52827 3.01125C1.73446 3.93265 1.12687 4.99931 0.739163 6.15212C0.282475 7.59699 0.0399107 9.10099 0.019199 10.6162C2.23506e-09 11.2121 0 11.2943 0 12C0 12.7057 2.23506e-09 12.7867 0.019199 13.3802C0.0397726 14.8954 0.28234 16.3994 0.739163 17.8443C1.12718 18.9971 1.73473 20.0639 2.52827 20.9858C3.48399 22.0116 4.67772 22.7862 6.0039 23.2409C7.37423 23.7132 8.85316 23.9394 11.7336 23.9988H12.2652C15.145 23.9388 16.6252 23.7132 17.9955 23.2409C19.3214 22.786 20.5149 22.0115 21.4705 20.9858C22.2643 20.064 22.872 18.9972 23.2602 17.8443C23.7168 16.3994 23.9593 14.8954 23.9802 13.3802C24 12.7843 24 12.7021 24 12C24 11.2979 24 11.2121 23.9802 10.6162C23.9592 9.10101 23.7166 7.59706 23.2602 6.15212C22.8723 4.99927 22.2645 3.93262 21.4705 3.01125C20.5151 1.9853 19.3215 1.21074 17.9955 0.756114C16.6252 0.286843 15.1486 0.060009 12.2652 0H11.9994Z" fill="white"/>
</mask>
<g mask="url(#mask0_8918_95366)">
<path d="M-0.0898438 19.3447V-0.228999H19.4782C20.4608 -0.230353 21.4212 0.0635348 22.2349 0.614574C23.0485 1.16561 23.6779 1.9484 24.0415 2.86146C24.2644 3.4356 24.3797 4.04585 24.3817 4.66173V19.3447C24.3809 19.9879 24.2535 20.6245 24.0066 21.2183C23.7597 21.8121 23.3982 22.3515 22.9428 22.8055C22.4874 23.2595 21.9471 23.6193 21.3526 23.8644C20.7581 24.1095 20.1212 24.2349 19.4782 24.2337H-0.0898438V19.3447Z" fill="#254AA3"/>
<path d="M7.46018 4.82715L7.76436 5.7547H8.73931L7.94795 6.33067L8.25214 7.25763L7.46018 6.68166L6.66882 7.25763L6.9724 6.33067L6.18164 5.7547H7.16139L7.46018 4.82715Z" fill="white"/>
<path d="M16.6756 4.82715L16.9804 5.7547H17.9548L17.1634 6.32527L17.467 7.25763L16.6756 6.68166L15.8843 7.25763L16.1878 6.32527L15.3965 5.7547H16.3714L16.6756 4.82715Z" fill="white"/>
<path d="M19.5897 5.90088L19.8897 6.82843H20.87L20.0787 7.4044L20.3822 8.33136L19.5897 7.76079L18.7983 8.33136L19.1019 7.4044L18.3105 6.82843H19.2897L19.5897 5.90088Z" fill="white"/>
<path d="M4.54491 5.90088L4.8491 6.82843H5.82405L5.03749 7.4044L5.33747 8.33136L4.54551 7.76079L3.75895 8.33136L4.05894 7.4044L3.26758 6.82843H4.24613L4.54491 5.90088Z" fill="white"/>
<path d="M10.5221 4.28711L10.8221 5.21406H11.8024L11.0111 5.79063L11.3152 6.71759L10.5233 6.14162L9.73192 6.71759L10.0355 5.79063L9.24414 5.21406H10.2185L10.5221 4.28711Z" fill="white"/>
<path d="M13.6151 4.28711L13.9193 5.21406H14.8942L14.1076 5.79063L14.4076 6.71759L13.6163 6.14162L12.8297 6.71759L13.1297 5.79063L12.3359 5.21406H13.3163L13.6151 4.28711Z" fill="white"/>
<path d="M11.0163 6.25271C11.0271 6.26291 10.9167 6.26291 10.9065 6.32052C10.8963 6.37813 10.7967 6.37333 10.7967 6.42014C10.7967 6.46694 10.6599 6.50415 10.6599 6.50415L10.4763 6.48855C10.4763 6.48855 10.4607 6.42854 10.4343 6.45674C10.409 6.47723 10.3775 6.48845 10.3449 6.48855L10.2249 6.47775C10.2249 6.47775 10.105 6.47775 10.12 6.52515C10.135 6.57256 10.1986 6.60376 10.2351 6.64037C10.2498 6.65097 10.2615 6.66527 10.2688 6.68181C10.2762 6.69836 10.2791 6.71657 10.2771 6.73458C10.2771 6.77119 10.2453 6.78199 10.2453 6.80299C10.2453 6.824 10.2405 6.89181 10.3137 6.89181H10.4763C10.5086 6.89942 10.5388 6.91373 10.5651 6.93381C10.5969 6.96502 10.5867 7.04903 10.5867 7.04903C10.5867 7.04903 10.4919 7.05983 10.5447 7.11204C10.5975 7.16425 10.6443 7.25366 10.6809 7.25366C10.7164 7.2542 10.7511 7.2648 10.7808 7.28424C10.8106 7.30368 10.8342 7.33116 10.8489 7.36348C10.8545 7.3957 10.8532 7.42874 10.845 7.4604C10.8368 7.49206 10.822 7.52161 10.8015 7.54711L10.7121 7.63592C10.7067 7.64132 10.5651 7.63052 10.5651 7.66232C10.5761 7.70084 10.592 7.73776 10.6125 7.77214C10.6125 7.77214 10.7019 7.77754 10.7019 7.81955C10.7019 7.86155 10.6233 7.87956 10.6545 7.91376C10.6754 7.95061 10.6881 7.99156 10.6917 8.03378C10.6629 8.03645 10.6354 8.04727 10.6125 8.06498C10.5867 8.08599 10.4709 8.07038 10.4709 8.11719C10.4533 8.18496 10.4269 8.25012 10.3923 8.31102C10.3923 8.31102 10.2507 8.33742 10.2507 8.31102C10.2507 8.28462 10.2615 8.23781 10.204 8.23781C10.1464 8.23781 10.084 8.23241 10.084 8.29002C10.084 8.34763 9.97356 8.36383 9.95256 8.42144C9.93156 8.47905 9.85357 8.59426 9.85357 8.59426C9.85357 8.59426 9.68558 8.54206 9.66398 8.54206C9.64238 8.54206 9.63818 8.58346 9.59618 8.62547C9.55418 8.66747 9.48099 8.73048 9.48099 8.73048C9.47442 8.73062 9.46794 8.73211 9.46197 8.73485C9.456 8.7376 9.45065 8.74154 9.44626 8.74643C9.44188 8.75133 9.43854 8.75707 9.43646 8.76331C9.43439 8.76955 9.43361 8.77614 9.43419 8.78269V8.8721C9.43419 8.91891 9.53918 8.91411 9.53918 8.98192C9.53918 9.04973 9.47559 9.03413 9.53918 9.09714C9.60278 9.16015 9.62738 9.15715 9.65378 9.20696C9.68018 9.25676 9.73777 9.26696 9.76417 9.31737C9.79057 9.36778 9.69038 9.42179 9.69038 9.43739C9.69038 9.45299 9.48099 9.40078 9.44379 9.43739C9.40503 9.47376 9.37005 9.51398 9.33939 9.55741C9.33939 9.56821 9.2194 9.5262 9.187 9.59461C9.15506 9.65174 9.10792 9.69889 9.05081 9.73083C8.99981 9.72209 8.95031 9.70613 8.90382 9.68343C8.88342 9.66242 8.82042 9.62342 8.77842 9.64142C8.72543 9.65973 8.67106 9.67378 8.61583 9.68343C8.58359 9.69437 8.55015 9.70142 8.51623 9.70443C8.47424 9.70443 8.35364 9.63602 8.35364 9.66242C8.32544 9.72898 8.29024 9.79234 8.24865 9.85145C8.24865 9.85145 8.18865 9.86165 8.16465 9.83525C8.14065 9.80885 8.10466 9.75664 8.08606 9.77524C8.06746 9.79384 7.98646 9.83825 7.97626 9.84905C7.96606 9.85985 7.95526 9.83825 7.90787 9.88566C7.86047 9.93306 7.79807 9.97447 7.79807 10.0321C7.79807 10.0897 7.68768 10.1521 7.64088 10.1521C7.59408 10.1521 7.48849 10.1575 7.54068 10.2121C7.59288 10.2667 7.47289 10.3117 7.47289 10.3483C7.47289 10.3849 7.49449 10.4113 7.44649 10.4113C7.39849 10.4113 7.35229 10.4533 7.2791 10.4323C7.2059 10.4113 7.09911 10.3903 7.09911 10.3903C7.09911 10.3903 7.08891 10.3693 7.03911 10.3693C6.98931 10.3693 6.87112 10.4167 6.82372 10.3693C6.77632 10.3219 6.79252 10.3063 6.72952 10.2751C6.66653 10.2439 6.62453 10.1701 6.54953 10.2223C6.48914 10.2772 6.41746 10.3181 6.33954 10.3423C6.29215 10.3423 6.22915 10.3579 6.22915 10.4023C6.22915 10.4467 6.19255 10.4707 6.13975 10.4863C6.08696 10.5019 6.02996 10.5464 6.06116 10.6118C6.09236 10.6772 5.98796 10.7318 6.00116 10.7798C6.0209 10.8353 6.05336 10.8855 6.09596 10.9262C6.13315 10.9628 6.05936 11.0312 6.16375 11.0624C6.26815 11.0936 6.33174 11.0624 6.41034 11.0942C6.46664 11.1064 6.52003 11.1295 6.56753 11.162C6.62721 11.1983 6.69314 11.2232 6.76192 11.2353C6.76192 11.2353 6.88732 11.3349 6.88732 11.3613C6.88732 11.3877 6.89812 11.3769 6.84052 11.4345C6.78644 11.4994 6.739 11.5696 6.69893 11.6439C6.69893 11.6439 6.67793 11.8065 6.71992 11.8486C6.76192 11.8906 6.74572 11.995 6.74572 12.0214C6.74572 12.0478 6.65753 12.0814 6.68573 12.1102C6.71392 12.139 6.74572 12.205 6.77512 12.2302C6.80452 12.2554 6.74392 12.262 6.81772 12.3352C6.86847 12.3852 6.93006 12.4228 6.99771 12.445C7.08317 12.4703 7.16329 12.511 7.2341 12.5651C7.28032 12.6076 7.30989 12.6653 7.31749 12.7277C7.33786 12.7897 7.3738 12.8455 7.42189 12.8897C7.44349 12.9107 7.39609 12.9845 7.42189 13.0157C7.44769 13.0469 7.53768 13.0259 7.53768 13.0523C7.53768 13.0787 7.41769 13.1123 7.52148 13.1676C7.62528 13.2228 7.61088 13.194 7.65348 13.236C7.67403 13.2515 7.68982 13.2725 7.69904 13.2966C7.70827 13.3207 7.71056 13.3469 7.70568 13.3722C7.69488 13.4142 7.61628 13.4556 7.61628 13.4874C7.61859 13.5403 7.63678 13.5914 7.66848 13.6338C7.70028 13.6656 7.70028 13.6236 7.74227 13.6602C7.77244 13.7257 7.78505 13.7979 7.77887 13.8697C7.77887 13.9225 7.73687 13.9639 7.77887 14.0059C7.82087 14.0479 7.78367 14.1421 7.82087 14.1739C7.85807 14.2057 7.81547 14.2471 7.90427 14.2627C7.96895 14.2682 8.03398 14.2682 8.09866 14.2627C8.15085 14.2627 8.16165 14.2837 8.20845 14.2837C8.27521 14.2707 8.34038 14.2506 8.40284 14.2237C8.47604 14.2027 8.49704 14.1295 8.55463 14.2237C8.61223 14.3179 8.56483 14.3389 8.66503 14.3653C8.76522 14.3917 8.86422 14.3653 8.88522 14.4175C8.90622 14.4697 8.90562 14.5376 8.93741 14.5694C8.96921 14.6012 8.99741 14.5226 9.09461 14.585C9.1918 14.6474 9.184 14.606 9.2572 14.6744C9.33039 14.7428 9.58718 15.0098 9.63998 15.062C9.69278 15.1142 9.69218 15.1671 9.75517 15.2349C9.81817 15.3027 9.84457 15.2349 9.82357 15.3501C9.80257 15.4653 9.75037 15.4815 9.82357 15.5595C9.89677 15.6375 9.88357 15.7329 9.91237 15.7695C9.94116 15.8061 10.0276 15.9892 10.0018 16.0156C9.97596 16.042 9.93336 16.0468 9.95436 16.105C9.97536 16.1632 9.92317 16.225 9.93876 16.288C9.95436 16.351 9.92317 16.393 9.96996 16.435C10.0168 16.477 10.0654 16.495 10.1272 16.5503C10.189 16.6055 10.2225 16.6103 10.2225 16.6913C10.2225 16.7723 10.1026 16.8275 10.2166 16.9745C10.3305 17.1215 10.3893 17.205 10.4157 17.2314C10.4421 17.2578 10.4367 17.3256 10.4367 17.3256C10.4367 17.3256 10.3635 17.352 10.3845 17.373C10.4055 17.394 10.4445 17.4828 10.4157 17.5092C10.374 17.5502 10.3372 17.596 10.3059 17.6454C10.3059 17.661 10.2429 17.6976 10.2273 17.7054C10.1967 17.7413 10.1632 17.7746 10.1272 17.805C10.111 17.8387 10.103 17.8758 10.104 17.9131C10.1049 17.9505 10.1147 17.9871 10.1326 18.0199C10.1854 18.0985 10.2321 18.1303 10.2585 18.1825C10.2849 18.2347 10.2165 18.2713 10.3107 18.2713C10.4049 18.2713 10.3797 18.2611 10.4421 18.2347C10.5045 18.2083 10.5309 18.1513 10.5621 18.1513C10.6003 18.1568 10.6355 18.1753 10.6617 18.2035C10.6875 18.2299 10.6983 18.2713 10.7295 18.2713C10.7892 18.2747 10.8488 18.264 10.9035 18.2401C10.9917 18.2035 10.9131 18.1801 11.0757 18.1201C11.2383 18.0601 11.2179 18.0601 11.2437 18.0001C11.2695 17.9401 11.3037 17.8801 11.3637 17.8801C11.4237 17.8801 11.4003 17.754 11.4315 17.754C11.4627 17.754 11.5317 17.7276 11.4681 17.694C11.418 17.6616 11.3708 17.6249 11.3271 17.5842C11.3295 17.5313 11.3366 17.4787 11.3481 17.427C11.3637 17.367 11.3163 17.343 11.3163 17.2956C11.3163 17.2482 11.2797 17.1912 11.2797 17.1383V16.9811C11.2797 16.9607 11.1903 16.8977 11.2533 16.8293C11.3163 16.7609 11.3133 16.7249 11.3133 16.7249C11.3165 16.6399 11.3418 16.5572 11.3865 16.4848C11.4465 16.4248 11.3817 16.3852 11.4915 16.3486C11.5476 16.318 11.6112 16.3034 11.6751 16.3066C11.7468 16.2984 11.8126 16.2627 11.8587 16.207C11.9007 16.1602 11.8899 16.165 11.9685 16.165C12.0471 16.165 12.0735 16.1914 12.1419 16.165C12.1733 16.1528 12.2021 16.1345 12.2264 16.1111C12.2507 16.0878 12.2701 16.0598 12.2834 16.0288C12.2834 16.0078 12.4034 15.7929 12.5294 15.8139C12.6554 15.835 12.6188 15.919 12.7496 15.8302C12.8804 15.7413 12.7706 15.6465 12.9806 15.6465C13.1906 15.6465 13.1852 15.6357 13.295 15.5679C13.4048 15.5001 13.3736 15.4479 13.4522 15.4107C13.5618 15.3559 13.6758 15.3103 13.793 15.2745C13.8296 15.2745 13.8458 15.3345 13.8884 15.3345C13.931 15.3345 13.9484 15.2871 14.0456 15.3501C14.1428 15.4131 14.066 15.4497 14.1548 15.5337C14.2435 15.6177 14.3119 15.5703 14.3281 15.6801C14.3391 15.759 14.3592 15.8364 14.3881 15.9106C14.4247 15.9892 14.3281 16.0468 14.3881 16.1098C14.4332 16.1564 14.4918 16.1876 14.5555 16.1992C14.6909 16.2069 14.8268 16.1962 14.9593 16.1674C14.9917 16.1362 14.9227 16.0054 15.0067 16.0888C15.0907 16.1722 15.1165 16.1626 15.1429 16.1416C15.1693 16.1206 15.0829 15.9106 15.0589 15.8848C15.049 15.8493 15.0472 15.8121 15.0536 15.7758C15.0601 15.7395 15.0746 15.7052 15.0961 15.6753C15.1318 15.6443 15.1557 15.6019 15.1639 15.5553C15.1639 15.5343 15.0799 15.3663 15.2269 15.2985C15.3739 15.2307 15.3421 15.2673 15.3895 15.2199C15.4369 15.1725 15.4207 15.1256 15.4891 15.0572C15.5575 14.9888 15.5779 14.963 15.5779 14.963C15.5779 14.963 15.6565 14.8952 15.7093 14.9264C15.7621 14.9576 15.6937 15.0362 15.8143 15.0362C15.8373 15.0356 15.8598 15.03 15.8804 15.0197C15.9011 15.0095 15.9192 14.995 15.9336 14.977C15.9481 14.9591 15.9584 14.9383 15.964 14.916C15.9696 14.8937 15.9703 14.8704 15.9661 14.8478C15.9505 14.7692 15.8929 14.7326 15.9661 14.696C16.0393 14.6594 16.0135 14.6432 16.0765 14.6432C16.1395 14.6432 16.1863 14.6018 16.2283 14.6384C16.2702 14.675 16.2882 14.7062 16.3434 14.7062C16.3986 14.7062 16.3488 14.8262 16.4274 14.8688C16.506 14.9114 16.6164 14.9366 16.6476 14.9054C16.6788 14.8742 16.6998 14.9654 16.7472 14.8844C16.7946 14.8034 16.758 14.78 16.8072 14.7272C16.8189 14.7194 16.8284 14.7089 16.835 14.6965C16.8416 14.6842 16.845 14.6704 16.845 14.6564C16.845 14.6424 16.8416 14.6286 16.835 14.6162C16.8284 14.6039 16.8189 14.5934 16.8072 14.5856C16.7792 14.5457 16.7645 14.498 16.7652 14.4493C16.7652 14.4493 16.7052 14.3503 16.6866 14.3659C16.668 14.3815 16.6716 14.4445 16.6188 14.3971C16.566 14.3497 16.524 14.3449 16.524 14.2975C16.524 14.2501 16.4772 14.2087 16.4928 14.1667C16.5068 14.1299 16.5141 14.0909 16.5144 14.0515L16.587 13.9045C16.587 13.9045 16.6398 13.8577 16.6656 13.8835C16.6914 13.9093 16.7256 13.9993 16.7652 13.9255C16.8048 13.8517 16.8018 13.737 16.881 13.7682C16.9602 13.7994 16.9338 13.8282 16.9908 13.8282C17.0478 13.8282 17.091 13.8547 17.1432 13.8024C17.1954 13.7502 17.1222 13.7238 17.2218 13.6224C17.3214 13.521 17.379 13.5438 17.337 13.4754C17.295 13.407 17.2374 13.3812 17.2374 13.3392C17.2374 13.2972 17.1534 13.0991 17.1846 13.0667C17.2158 13.0343 17.3316 13.0619 17.4 12.9935C17.4684 12.9251 17.442 12.9095 17.4996 12.8573C17.5572 12.8051 17.6094 12.7421 17.6196 12.7313C17.6275 12.7066 17.6399 12.6836 17.6562 12.6635C17.6772 12.6371 17.6034 12.496 17.6562 12.496C17.709 12.496 17.6298 12.412 17.682 12.3646C17.7273 12.3264 17.7788 12.2964 17.8344 12.2758H17.9496C17.9608 12.2314 17.9786 12.189 18.0024 12.1498C18.0231 12.0602 18.0231 11.967 18.0024 11.8774C17.9787 11.8465 17.9586 11.8131 17.9424 11.7777L18.0576 11.7099L18.1176 11.6499L18.1968 11.5713C18.2118 11.5557 18.1596 11.5029 18.2226 11.5029C18.2855 11.5029 18.3485 11.5395 18.3485 11.4429C18.3531 11.4145 18.35 11.3854 18.3394 11.3587C18.3289 11.332 18.3113 11.3086 18.2885 11.2911C18.2519 11.2491 18.1578 11.1602 18.1428 11.1392C18.1278 11.1182 18.0528 11.0396 18.0426 11.0294C18.0324 11.0192 17.9826 11.0132 17.943 11.0186C17.9034 11.024 17.733 10.9922 17.7174 11.003C17.7018 11.0138 17.6388 11.0294 17.6388 11.0816C17.6409 11.0996 17.6392 11.1177 17.6337 11.1349C17.6282 11.1521 17.6191 11.1679 17.607 11.1813C17.586 11.2023 17.547 11.2491 17.5074 11.2491C17.4678 11.2491 17.3976 11.2335 17.382 11.1969C17.3655 11.1557 17.3514 11.1137 17.34 11.0708C17.34 11.0498 17.3238 10.982 17.2662 10.9976C17.2133 11.0155 17.1576 11.0234 17.1018 11.021C17.1018 11.021 16.9968 11 16.9764 10.961C16.9653 10.9234 16.9598 10.8844 16.9602 10.8452L16.8558 10.7408C16.8508 10.7271 16.8413 10.7155 16.8289 10.7079C16.8165 10.7003 16.8019 10.6971 16.7874 10.6988C16.7274 10.6988 16.6674 10.7198 16.6404 10.7198C16.604 10.7142 16.567 10.7142 16.5306 10.7198C16.4778 10.73 16.389 10.6598 16.368 10.6412C16.347 10.6226 16.2109 10.6148 16.2109 10.6148C16.2109 10.6148 16.1323 10.5626 16.1005 10.5938C16.0687 10.625 15.9805 10.6412 15.9805 10.6046C15.9816 10.5912 15.979 10.5778 15.9731 10.5659C15.9671 10.5539 15.9579 10.5438 15.9465 10.5367C15.9352 10.5296 15.9221 10.5258 15.9087 10.5257C15.8953 10.5256 15.8821 10.5292 15.8707 10.5362C15.8101 10.5614 15.7466 10.5791 15.6817 10.589C15.6349 10.589 15.5509 10.5728 15.5509 10.5206C15.5509 10.4683 15.6031 10.4317 15.6349 10.4053C15.6667 10.3789 15.6949 10.3741 15.6949 10.3453C15.6949 10.3165 15.6529 10.2985 15.6745 10.2667C15.6912 10.2234 15.6981 10.1768 15.6949 10.1305C15.6949 10.0993 15.7369 10.0573 15.7549 10.0417C15.7729 10.0261 15.8179 10.0261 15.8179 10.0261C15.8179 10.0261 15.8647 9.93666 15.8179 9.91026C15.7711 9.88386 15.7969 9.82145 15.8071 9.79504C15.8173 9.76864 15.7969 9.75364 15.8341 9.71643C15.8713 9.67923 15.8227 9.66962 15.8941 9.64322C15.9655 9.61682 15.9625 9.58321 15.9415 9.5334C15.8937 9.47993 15.8288 9.44472 15.7579 9.43379C15.7261 9.43379 15.6631 9.4758 15.6379 9.4758C15.6009 9.4791 15.5639 9.4698 15.5329 9.44939C15.5065 9.42299 15.4729 9.36538 15.4435 9.38158C15.4141 9.39778 15.3439 9.37618 15.3439 9.34978C15.3439 9.32337 15.3313 9.24476 15.3055 9.24476C15.2797 9.24476 15.0373 9.16075 15.0055 9.19195C14.9737 9.22316 14.9455 9.33897 14.8855 9.27597C14.8414 9.22978 14.8026 9.17886 14.7697 9.12414L14.6755 9.02993C14.6494 8.99883 14.629 8.96325 14.6155 8.92491C14.6003 8.89461 14.5768 8.86923 14.5477 8.8517C14.5477 8.8517 14.5525 8.8043 14.5525 8.78329C14.5525 8.76229 14.5111 8.71548 14.5267 8.67888C14.5423 8.64227 14.5315 8.64707 14.5369 8.57386C14.5423 8.50065 14.5111 8.48985 14.5111 8.44304C14.5111 8.39623 14.5003 8.34343 14.5003 8.29062C14.5003 8.23781 14.4403 8.1916 14.4217 8.1754C14.4031 8.1592 14.3485 8.13399 14.3275 8.1496C14.3065 8.1652 14.2747 8.1652 14.2675 8.21741C14.2603 8.26961 14.189 8.31162 14.168 8.29062C14.147 8.26961 14.0942 8.24381 14.0942 8.21741C14.0888 8.19116 14.0781 8.16627 14.063 8.1442C14.063 8.1442 14.084 8.06558 14.0264 8.03438C13.9688 8.00317 13.9322 8.00257 13.943 7.95037C13.9532 7.9019 13.9532 7.85181 13.943 7.80334C13.9322 7.76194 13.8794 7.71453 13.8794 7.68333C13.8794 7.65212 13.9058 7.63592 13.9214 7.59391C13.937 7.55191 14 7.5207 13.9532 7.47389C13.9188 7.43981 13.8871 7.40309 13.8584 7.36408C13.832 7.34308 13.7486 7.31187 13.7276 7.33287C13.7066 7.35388 13.6328 7.29087 13.6172 7.25906C13.6016 7.22726 13.5572 7.17025 13.5284 7.21226C13.4996 7.25426 13.5074 7.29627 13.4546 7.32747C13.4053 7.35459 13.3547 7.37903 13.3028 7.40068C13.2872 7.40068 13.2086 7.30647 13.2086 7.30647C13.1778 7.27244 13.1427 7.24259 13.1042 7.21766C13.067 7.20145 12.9884 7.14925 12.9722 7.14925C12.956 7.14925 12.7682 7.14925 12.737 7.18045C12.7058 7.21166 12.6632 7.24886 12.6632 7.24886C12.6249 7.23501 12.5879 7.21753 12.5528 7.19665C12.5276 7.18045 12.4328 7.16485 12.4328 7.12824C12.4328 7.09164 12.407 7.03943 12.3728 7.03943C12.3386 7.03943 12.3128 6.98662 12.257 6.98662C12.2047 6.97699 12.1558 6.95358 12.1155 6.91881C12.1053 6.90321 11.9535 6.91881 11.9535 6.91881C11.9535 6.91881 11.8935 6.8504 11.8533 6.8504C11.8131 6.8504 11.6805 6.8504 11.7333 6.79819C11.7861 6.74599 11.7933 6.70398 11.8281 6.70398C11.8629 6.70398 11.8497 6.69318 11.8647 6.64097C11.8797 6.58876 11.8647 6.53115 11.9247 6.53115C11.9587 6.53685 11.9936 6.53138 12.0243 6.51555C12.0765 6.49455 12.1443 6.39973 12.1029 6.35833C12.0632 6.32541 12.021 6.29552 11.9769 6.26891C11.9613 6.25331 11.8617 6.1645 11.8617 6.12249C11.8617 6.08049 11.7675 6.06248 11.7675 6.02768C11.7675 5.99287 11.7201 5.98087 11.6679 5.99647C11.6157 6.01208 11.5101 5.98627 11.5317 6.04868C11.5533 6.11109 11.5995 6.14349 11.5575 6.1591C11.5155 6.1747 11.4477 6.1591 11.4315 6.1747C11.4153 6.1903 11.3427 6.08049 11.2899 6.13809C11.2529 6.17166 11.2078 6.19503 11.1591 6.2059C11.1591 6.2059 11.0859 6.1591 11.0751 6.1645C11.0643 6.1699 10.9551 6.1903 11.0151 6.25331" fill="#FFDE36"/>
</g>
</g>
<defs>
<clipPath id="clip0_8918_95366">
<rect width="24" height="23.9988" fill="white"/>
</clipPath>
</defs>
</svg>
