<svg width="32" height="32" viewBox="0 0 32 32" fill="none" xmlns="http://www.w3.org/2000/svg">
<g clip-path="url(#clip0_583_8311)">
<mask id="mask0_583_8311" style="mask-type:luminance" maskUnits="userSpaceOnUse" x="0" y="0" width="32" height="33">
<path d="M16.002 0.0078125H15.6476C11.8075 0.0878145 9.83465 0.388622 8.0082 1.01744C6.23996 1.6243 4.64829 2.65711 3.37368 4.02471C2.3145 5.25331 1.50352 6.67558 0.985624 8.21282C0.376639 10.1391 0.0531949 12.1441 0.0256003 14.1642C-3.30814e-07 14.9594 0 15.0682 0 16.009C0 16.9498 -3.30814e-07 17.057 0.0256003 17.8491C0.0532549 19.8693 0.376696 21.8747 0.985624 23.8012C1.50335 25.3378 2.31346 26.7597 3.37128 27.9885C4.64615 29.3556 6.23776 30.3881 8.0058 30.995C9.83225 31.6246 11.8035 31.9262 15.6452 32.0054H16.3548C20.1949 31.9254 22.1686 31.6246 23.995 30.995C25.7629 30.3883 27.3543 29.3558 28.6287 27.9885C29.6868 26.7598 30.4969 25.3379 31.0144 23.8012C31.6233 21.8747 31.9467 19.8693 31.9744 17.8491C32 17.0538 32 16.9442 32 16.009C32 15.0738 32 14.9594 31.9744 14.1642C31.9468 12.1441 31.6233 10.1391 31.0144 8.21282C30.4975 6.67562 29.6873 5.25331 28.6287 4.02471C27.3545 2.65697 25.7631 1.62412 23.995 1.01744C22.171 0.388622 20.1981 0.0870145 16.3572 0.0078125H16.002Z" fill="white"/>
</mask>
<g mask="url(#mask0_583_8311)">
<path d="M49.2224 -0.382812H0.00195312V6.17495H49.2224V-0.382812Z" fill="#002D99"/>
<path d="M49.2224 6.17188H0.00195312V12.7296H49.2224V6.17188Z" fill="white"/>
<path d="M49.2224 12.7344H0.00195312V19.2921H49.2224V12.7344Z" fill="#002D99"/>
<path d="M49.2224 19.2891H0.00195312V25.8468H49.2224V19.2891Z" fill="white"/>
<path d="M49.2224 25.8438H0.00195312V32.4015H49.2224V25.8438Z" fill="#002D99"/>
<path d="M-4.13477 -0.382812L24.2491 16.0112L-4.13477 32.4052V-0.382812Z" fill="#CC152A"/>
<path d="M9.50549 11.1719L10.6143 14.5648L14.1864 14.5704L11.2999 16.6728L12.3984 20.0689L9.50549 17.9752L6.61262 20.0689L7.71104 16.6728L4.82617 14.5704L8.39826 14.5648L9.50549 11.1719Z" fill="white"/>
</g>
</g>
<defs>
<clipPath id="clip0_583_8311">
<rect width="32" height="31.9976" fill="white" transform="translate(0 0.0078125)"/>
</clipPath>
</defs>
</svg>
