<svg width="32" height="32" viewBox="0 0 32 32" fill="none" xmlns="http://www.w3.org/2000/svg">
<g clip-path="url(#clip0_583_7129)">
<mask id="mask0_583_7129" style="mask-type:luminance" maskUnits="userSpaceOnUse" x="0" y="0" width="33" height="32">
<path d="M15.6503 0C11.8099 0.080008 9.83609 0.381638 8.00951 1.0105C6.24124 1.61724 4.64948 2.64984 3.37464 4.0172C2.31611 5.24601 1.50588 6.66839 0.988805 8.20562C0.379762 10.132 0.0562932 12.1372 0.0287081 14.1574C0.0039056 14.9519 0.00390625 15.0623 0.00390625 16.0016C0.00390625 16.9409 0.0039056 17.0505 0.0287081 17.8418C0.0563442 19.8625 0.37981 21.8682 0.988805 23.7952C1.50607 25.3321 2.31629 26.7542 3.37464 27.9828C4.64948 29.3502 6.24124 30.3828 8.00951 30.9895C9.83609 31.6184 11.8075 31.9192 15.6503 32H16.3583C20.1987 31.92 22.1733 31.6184 23.9999 30.9895C25.7679 30.3828 27.3594 29.3502 28.634 27.9828C29.6923 26.7542 30.5025 25.3321 31.0198 23.7952C31.6288 21.8682 31.9523 19.8625 31.9799 17.8418C32.0055 17.0473 32.0055 16.9385 32.0055 16.0016C32.0055 15.0647 32.0055 14.9519 31.9799 14.1574C31.9523 12.1372 31.6288 10.132 31.0198 8.20562C30.5027 6.66839 29.6925 5.24601 28.634 4.0172C27.3594 2.64985 25.7679 1.61724 23.9999 1.0105C22.1733 0.381638 20.2035 0.080008 16.3583 0H15.6503Z" fill="white"/>
</mask>
<g mask="url(#mask0_583_7129)">
<path d="M40.4478 0H-8.43945V32.0032H40.4478V0Z" fill="white"/>
<path d="M40.4486 0H28.2266V32.0032H40.4486V0Z" fill="#EE312D"/>
<path d="M3.78257 0H-8.43945V32.0032H3.78257V0Z" fill="#EE312D"/>
<path d="M16.4622 26.3342L16.2334 21.9425C16.2277 21.8145 16.2731 21.6895 16.3595 21.5949C16.4458 21.5002 16.5662 21.4437 16.6942 21.4377C16.729 21.4362 16.7639 21.4384 16.7982 21.4441L21.1723 22.213L20.5826 20.584C20.5582 20.5195 20.5549 20.449 20.573 20.3824C20.5911 20.3159 20.6297 20.2568 20.6834 20.2136L25.4759 16.3364L24.3966 15.8323C24.3241 15.798 24.2666 15.7385 24.2347 15.6649C24.2027 15.5913 24.1986 15.5087 24.223 15.4323L25.1695 12.5224L22.41 13.1065C22.3353 13.1221 22.2574 13.1115 22.1896 13.0764C22.1218 13.0412 22.0682 12.9837 22.038 12.9136L21.5035 11.6575L19.3497 13.9665C19.3004 14.0184 19.2357 14.0529 19.1652 14.065C19.0947 14.077 19.0222 14.0659 18.9585 14.0333C18.8949 14.0007 18.8435 13.9484 18.812 13.8841C18.7806 13.8199 18.7707 13.7472 18.784 13.6769L19.8241 8.32357L18.1592 9.28367C18.0832 9.32777 17.9929 9.34008 17.908 9.3179C17.823 9.29572 17.7502 9.24085 17.7055 9.16526L17.6959 9.14606L16.0029 5.82812L14.3132 9.14606C14.2739 9.22452 14.205 9.28417 14.1218 9.31193C14.0385 9.33968 13.9477 9.33326 13.8691 9.29407L13.8507 9.28447L12.185 8.32437L13.2251 13.6777C13.2384 13.748 13.2285 13.8207 13.1971 13.8849C13.1656 13.9492 13.1142 14.0015 13.0506 14.0341C12.9869 14.0667 12.9144 14.0778 12.8439 14.0658C12.7734 14.0537 12.7087 14.0192 12.6594 13.9673L10.5056 11.6583L9.97115 12.9144C9.94113 12.9846 9.88773 13.0421 9.82003 13.0773C9.75234 13.1124 9.67454 13.123 9.59991 13.1073L6.83963 12.5232L7.78693 15.4331C7.81097 15.5095 7.80665 15.592 7.77476 15.6655C7.74287 15.739 7.68555 15.7985 7.61331 15.8331L6.5332 16.3372L11.3225 20.2136C11.3762 20.2568 11.4151 20.3158 11.4334 20.3823C11.4518 20.4487 11.4488 20.5193 11.4249 20.584L10.8336 22.213L15.2077 21.4441C15.2703 21.4332 15.3346 21.4347 15.3966 21.4486C15.4587 21.4625 15.5175 21.4886 15.5695 21.5252C15.6215 21.5618 15.6658 21.6084 15.6998 21.6621C15.7338 21.7159 15.7569 21.7758 15.7677 21.8385C15.7735 21.8729 15.7754 21.9078 15.7733 21.9425L15.5453 26.3342H16.4622Z" fill="#EE312D"/>
<path d="M8.17015 1.48261L8.17052 1.48248C9.92525 0.878547 11.8381 0.579736 15.6536 0.5H16.352C20.1681 0.579731 22.0794 0.878505 23.8367 1.48248C25.5234 2.06303 27.0416 3.04913 28.2579 4.35402C29.2702 5.53084 30.0456 6.89216 30.5415 8.36319C31.1349 10.2419 31.45 12.1974 31.4768 14.1674L31.4768 14.1674L31.4771 14.1772C31.5032 14.9634 31.5032 15.0709 31.5032 16.0017V16.0048V16.0081C31.5032 16.9386 31.5032 17.0422 31.4771 17.8284L31.477 17.8284L31.4768 17.8382C31.45 19.8085 31.1349 21.7643 30.5415 23.6433C30.0458 25.1145 29.2704 26.4761 28.258 27.653C27.0408 28.9568 25.5218 29.9415 23.8347 30.5206L23.8343 30.5207C22.0795 31.1247 20.1675 31.4235 16.352 31.5032H15.6535C11.8366 31.4243 9.92531 31.1247 8.17052 30.5207L8.17008 30.5206C6.48313 29.9417 4.96439 28.9569 3.74754 27.653C2.73397 26.4752 1.95753 25.1126 1.46092 23.64C0.867859 21.7609 0.552731 19.8052 0.525552 17.8349H0.525638L0.525338 17.8256C0.5 17.0424 0.5 16.9379 0.5 16.0047V16.0016V15.9983C0.5 15.0655 0.5 14.9607 0.527689 14.175L0.527804 14.175L0.527952 14.1643C0.555195 12.1943 0.870315 10.2388 1.4633 8.36002C1.95979 6.88911 2.73541 5.52785 3.74761 4.35089C4.96442 3.04676 6.48315 2.06174 8.17015 1.48261Z" stroke="#F6F6F6"/>
</g>
</g>
<defs>
<clipPath id="clip0_583_7129">
<rect width="32.0016" height="32" fill="white" transform="translate(0.00390625)"/>
</clipPath>
</defs>
</svg>
