<svg width="24" height="24" viewBox="0 0 24 24" fill="none" xmlns="http://www.w3.org/2000/svg">
<g clip-path="url(#clip0_8918_95354)">
<mask id="mask0_8918_95354" style="mask-type:luminance" maskUnits="userSpaceOnUse" x="0" y="0" width="24" height="25">
<path d="M11.9979 0H11.7321C8.85186 0.0600045 7.37215 0.287422 6.00165 0.757857C4.67577 1.21312 3.48222 1.98752 2.52619 3.01283C1.73334 3.93495 1.12653 5.00186 0.739256 6.15466C0.282719 7.59906 0.0401272 9.10251 0.0192012 10.6172C-2.48123e-07 11.2136 0 11.2964 0 12.0009C0 12.7054 -2.48123e-07 12.7888 0.0192012 13.381C0.0401222 14.8961 0.282712 16.3999 0.739256 17.8447C1.12736 18.9974 1.73522 20.064 2.52919 20.9854C3.48374 22.0121 4.67629 22.7882 6.00165 23.2451C7.37215 23.7156 8.85126 23.9424 11.7321 24.0018H12.2643C15.1445 23.9418 16.6242 23.7156 17.9947 23.2451C19.3208 22.7897 20.5144 22.0148 21.4702 20.989C22.2644 20.0677 22.8723 19.0011 23.2601 17.8483C23.7164 16.4035 23.959 14.8997 23.9802 13.3846C24 12.7894 24 12.7066 24 12.0045C24 11.3024 24 11.2172 23.9802 10.6208C23.9589 9.10614 23.7164 7.60273 23.2601 6.15826C22.8723 5.00509 22.2644 3.9381 21.4702 3.01643C20.5142 1.99113 19.3206 1.21672 17.9947 0.761457C16.6242 0.291022 15.1451 0.0642048 12.2643 0.0036003L11.9979 0Z" fill="white"/>
</mask>
<g mask="url(#mask0_8918_95354)">
<path d="M31.4172 -0.936523H-7.42188V24.938H31.4172V-0.936523Z" fill="white"/>
<path d="M8.28933 9.53125C7.96182 10.0229 7.84303 10.6246 7.95911 11.2038C8.07518 11.7831 8.41661 12.2925 8.90828 12.62C9.39994 12.9475 10.0016 13.0663 10.5808 12.9502C11.1601 12.8341 11.6695 12.4927 11.997 12.001C12.3289 11.52 12.8366 11.1888 13.4105 11.0786C13.9844 10.9685 14.5786 11.0883 15.065 11.4123C15.5514 11.7363 15.891 12.2384 16.0105 12.8104C16.1301 13.3825 16.02 13.9786 15.7041 14.4702C15.0441 15.4417 14.0272 16.1133 12.8747 16.3388C11.7221 16.5643 10.5271 16.3256 9.54962 15.6745C8.57217 15.0234 7.89137 14.0127 7.65535 12.8622C7.41933 11.7117 7.64718 10.5146 8.28933 9.53125Z" fill="#00437B"/>
<path d="M16.0384 15.14C16.3658 14.6484 16.4846 14.0469 16.3685 13.4677C16.2524 12.8886 15.9111 12.3793 15.4195 12.0518C14.9279 11.7244 14.3263 11.6057 13.7472 11.7217C13.1681 11.8378 12.6588 12.1792 12.3313 12.6708C12.0038 13.1625 11.4944 13.5039 10.9152 13.62C10.3359 13.736 9.73427 13.6173 9.2426 13.2897C8.75093 12.9622 8.4095 12.4528 8.29343 11.8736C8.17735 11.2943 8.29614 10.6927 8.62365 10.201C9.28361 9.22953 10.3005 8.55797 11.4531 8.33244C12.6057 8.10691 13.8007 8.34565 14.7781 8.99673C15.7556 9.64781 16.4364 10.6585 16.6724 11.809C16.9084 12.9595 16.6806 14.1566 16.0384 15.14Z" fill="#DA1A32"/>
<path d="M18.3796 16.4775L17.2461 18.1745L17.8647 18.5861L18.9976 16.8886L18.3796 16.4775Z" fill="#1D1D1B"/>
<path d="M19.7211 14.4699L18.5898 16.1685L19.2081 16.5802L20.3394 14.8817L19.7211 14.4699Z" fill="#1D1D1B"/>
<path d="M19.3087 17.0939L18.1758 18.792L18.7937 19.2043L19.9266 17.5061L19.3087 17.0939Z" fill="#1D1D1B"/>
<path d="M20.648 15.0871L19.5156 16.7856L20.1332 17.1974L21.2656 15.4989L20.648 15.0871Z" fill="#1D1D1B"/>
<path d="M17.4551 15.8584L16.3223 17.5566L16.9402 17.9689L18.0731 16.2707L17.4551 15.8584Z" fill="#1D1D1B"/>
<path d="M18.7948 13.852L17.6621 15.5503L18.2801 15.9625L19.4128 14.2642L18.7948 13.852Z" fill="#1D1D1B"/>
<path d="M5.19984 13.8531L4.58203 14.2656L7.05459 17.969L7.6724 17.5565L5.19984 13.8531Z" fill="#1D1D1B"/>
<path d="M3.35048 15.086L2.73242 15.4971L5.19832 19.2049L5.81637 18.7939L3.35048 15.086Z" fill="#1D1D1B"/>
<path d="M5.61357 16.4763L4.99609 16.8882L6.12824 18.5854L6.74572 18.1735L5.61357 16.4763Z" fill="#1D1D1B"/>
<path d="M4.27381 14.4696L3.65625 14.8809L4.78716 16.5793L5.40472 16.1681L4.27381 14.4696Z" fill="#1D1D1B"/>
<path d="M17.868 5.41495L17.25 5.82715L19.7209 9.53166L20.3389 9.11945L17.868 5.41495Z" fill="#1D1D1B"/>
<path d="M20.1332 6.80404L19.5156 7.21582L20.6481 8.91423L21.2657 8.50245L20.1332 6.80404Z" fill="#1D1D1B"/>
<path d="M18.7938 4.79695L18.1758 5.2085L19.3067 6.9069L19.9247 6.49536L18.7938 4.79695Z" fill="#1D1D1B"/>
<path d="M18.2801 8.03845L17.6621 8.45068L18.7949 10.1489L19.4129 9.73664L18.2801 8.03845Z" fill="#1D1D1B"/>
<path d="M16.9423 6.03183L16.3242 6.44287L17.4543 8.14214L18.0724 7.73111L16.9423 6.03183Z" fill="#1D1D1B"/>
<path d="M7.05267 6.03159L4.58398 9.73828L5.20177 10.1497L7.67046 6.44304L7.05267 6.03159Z" fill="#1D1D1B"/>
<path d="M6.12629 5.41456L3.65625 9.11963L4.27434 9.53169L6.74438 5.82662L6.12629 5.41456Z" fill="#1D1D1B"/>
<path d="M5.19916 4.79673L2.73047 8.50342L3.34825 8.91487L5.81694 5.20818L5.19916 4.79673Z" fill="#1D1D1B"/>
<path d="M12.2568 0.5L13.2646 0.530273C15.4692 0.619069 16.6981 0.838477 17.8359 1.22949V1.23047C19.0777 1.65786 20.196 2.38264 21.0928 3.3418H21.0938C21.7514 4.10517 22.274 4.9738 22.6406 5.91016L22.7881 6.31543C23.2283 7.71108 23.4625 9.16361 23.4824 10.627V10.6367C23.502 11.225 23.502 11.3039 23.502 12.0029C23.502 12.7023 23.502 12.7787 23.4824 13.3672V13.377C23.4625 14.8403 23.2283 16.2928 22.7881 17.6885C22.4221 18.7761 21.8493 19.7829 21.1016 20.6533C20.2025 21.6163 19.081 22.3438 17.835 22.7715C16.5362 23.2185 15.1158 23.4424 12.2568 23.502H11.7461C8.88628 23.443 7.4667 23.2185 6.16797 22.7715C4.92191 22.3439 3.80009 21.6166 2.90137 20.6533C2.24667 19.8915 1.72591 19.0253 1.36035 18.0918L1.21289 17.6865C0.772894 16.2905 0.53972 14.8376 0.519531 13.374L0.518555 13.3652L0.501953 12.7256C0.499595 12.5457 0.5 12.3513 0.5 12.001C0.5 11.3001 0.499798 11.2234 0.520508 10.6357V10.625C0.540743 9.16178 0.774997 7.70911 1.21484 6.31348C1.58148 5.22584 2.15354 4.21819 2.90137 3.34766C3.79993 2.38463 4.92222 1.65815 6.16797 1.23047C7.30434 0.839355 8.5343 0.619087 10.7393 0.530273L11.7461 0.5H12.2568Z" stroke="#F6F6F6"/>
</g>
</g>
<defs>
<clipPath id="clip0_8918_95354">
<rect width="24" height="24.0018" fill="white"/>
</clipPath>
</defs>
</svg>
