<svg width="32" height="32" viewBox="0 0 32 32" fill="none" xmlns="http://www.w3.org/2000/svg">
<g clip-path="url(#clip0_583_8223)">
<mask id="mask0_583_8223" style="mask-type:luminance" maskUnits="userSpaceOnUse" x="0" y="0" width="32" height="33">
<path d="M15.9968 0.0078125H15.6432C11.8032 0.0878125 9.8304 0.389413 8.0032 1.01661C6.23661 1.62447 4.64631 2.65683 3.372 4.02301C2.31341 5.25158 1.50324 6.67386 0.9864 8.21101C0.377317 10.1372 0.0538789 12.1422 0.0264 14.1622C-5.96046e-09 14.9558 0 15.0662 0 16.0062C0 16.9462 -5.96046e-09 17.055 0.0264 17.8462C0.0538699 19.8665 0.377308 21.8718 0.9864 23.7982C1.50249 25.3369 2.31271 26.7606 3.372 27.9902C4.64641 29.3576 6.23773 30.3904 8.0056 30.9974C9.8328 31.6254 11.804 31.9278 15.6456 32.0078H16.3544C20.1944 31.9278 22.168 31.6254 23.9944 30.9974C25.7626 30.3906 27.3542 29.3578 28.6288 27.9902C29.687 26.7618 30.4969 25.3398 31.0136 23.803C31.6231 21.8767 31.9465 19.8713 31.9736 17.851C32 17.0566 32 16.9478 32 16.011C32 15.0742 32 14.9606 31.9736 14.167C31.9466 12.147 31.6231 10.1419 31.0136 8.21581C30.4966 6.67696 29.6858 5.25304 28.6264 4.02301C27.3514 2.65571 25.76 1.62274 23.992 1.01501C22.1656 0.389412 20.1936 0.0878125 16.352 0.0078125H15.9968Z" fill="white"/>
</mask>
<g mask="url(#mask0_583_8223)">
<path d="M-0.228516 25.7316V-0.21875H10.5915V32.2309H-0.228516V25.7316Z" fill="#F67E0B"/>
<path d="M32.2223 6.28045V25.7317C32.2233 26.5852 32.056 27.4305 31.73 28.2193C31.4039 29.0081 30.9255 29.7248 30.3222 30.3285C29.7188 30.9322 29.0023 31.4109 28.2137 31.7374C27.425 32.0638 26.5798 32.2315 25.7263 32.2309H21.4062V-0.218748H25.7263C26.5798 -0.21938 27.425 -0.0516811 28.2137 0.27475C29.0023 0.601181 29.7188 1.07993 30.3222 1.68361C30.9255 2.28728 31.4039 3.00402 31.73 3.79281C32.056 4.5816 32.2233 5.42694 32.2223 6.28045Z" fill="#009D60"/>
<path d="M21.404 -0.210938H10.584V32.2235H21.404V-0.210938Z" fill="white"/>
</g>
</g>
<defs>
<clipPath id="clip0_583_8223">
<rect width="32" height="32" fill="white" transform="translate(0 0.0078125)"/>
</clipPath>
</defs>
</svg>
