<svg width="32" height="32" viewBox="0 0 32 32" fill="none" xmlns="http://www.w3.org/2000/svg">
<g clip-path="url(#clip0_583_7083)">
<mask id="mask0_583_7083" style="mask-type:luminance" maskUnits="userSpaceOnUse" x="-1" y="0" width="33" height="32">
<path d="M15.9969 0H15.6433C11.8033 0.08001 9.83049 0.380047 8.00329 1.00893C6.2351 1.61585 4.64347 2.64876 3.36889 4.0165C2.31059 5.24525 1.50021 6.66734 0.982494 8.20423C0.373087 10.1308 0.049641 12.1364 0.0224937 14.157C-0.00390626 14.9515 -0.00390625 15.0619 -0.00390625 16.0012C-0.00390625 16.9405 -0.00390626 17.0509 0.0224937 17.8414C0.0495167 19.8622 0.372964 21.8681 0.982494 23.795C1.49993 25.332 2.31034 26.7541 3.36889 27.9827C4.64303 29.3506 6.23444 30.3835 8.00249 30.9903C9.82969 31.6192 11.8009 31.9208 15.6425 32H16.3521C20.1921 31.92 22.1649 31.6192 23.9921 30.9903C25.7601 30.3835 27.3516 29.3506 28.6257 27.9827C29.6842 26.7541 30.4947 25.332 31.0121 23.795C31.6208 21.8679 31.9443 19.8622 31.9721 17.8414C31.9985 17.0477 31.9985 16.9381 31.9985 16.0012C31.9985 15.0643 31.9985 14.9515 31.9721 14.157C31.9442 12.1365 31.6207 10.131 31.0121 8.20423C30.4944 6.66734 29.684 5.24525 28.6257 4.0165C27.3513 2.64887 25.76 1.61597 23.9921 1.00893C22.1649 0.380047 20.1929 0.0784098 16.3521 0H15.9969Z" fill="white"/>
</mask>
<g mask="url(#mask0_583_7083)">
<path d="M40.8898 -0.546875H-8.67578V32.4765H40.8898V-0.546875Z" fill="#003399"/>
<path d="M16.1061 3.17188L16.5301 4.47347H17.8997L16.7909 5.27907L17.2149 6.57988L16.1061 5.77667L14.9973 6.57667L15.4213 5.27588L14.3125 4.47347H15.6821L16.1061 3.17188Z" fill="#FFCC00"/>
<path d="M16.1061 25.3516L16.5301 26.6572H17.8997L16.7909 27.4572L17.2149 28.7588L16.1061 27.9548L14.9973 28.7588L15.4213 27.4572L14.3125 26.6572H15.6821L16.1061 25.3516Z" fill="#FFCC00"/>
<path d="M21.6549 4.65625L22.0781 5.95785H23.4485L22.3397 6.76345L22.7637 8.06585L21.6549 7.26185L20.5469 8.06585L20.9701 6.76345L19.8613 5.95865H21.2309L21.6549 4.65625Z" fill="#FFCC00"/>
<path d="M27.2057 14.2578L27.6289 15.5594H28.9993L27.8905 16.3642L28.3145 17.6674L27.2057 16.8618L26.0969 17.6674L26.5209 16.3642L25.4121 15.5594H26.7825L27.2057 14.2578Z" fill="#FFCC00"/>
<path d="M25.7174 19.8047L26.1406 21.1071H27.511L26.403 21.9119L26.8262 23.2135L25.7174 22.4087L24.6094 23.2151L25.0326 21.9135L23.9238 21.1071H25.2942L25.7174 19.8047Z" fill="#FFCC00"/>
<path d="M21.6549 23.8672L22.0781 25.1688H23.4485L22.3397 25.9736L22.7637 27.276L21.6549 26.4712L20.5469 27.276L20.9701 25.9736L19.8613 25.1688H21.2309L21.6549 23.8672Z" fill="#FFCC00"/>
<path d="M10.5573 23.8672L10.9813 25.1688H12.3509L11.2437 25.9736L11.6661 27.276L10.5581 26.4712L9.44927 27.276L9.87327 25.9736L8.76367 25.1688H10.1341L10.5573 23.8672Z" fill="#FFCC00"/>
<path d="M6.49557 19.8047L6.91877 21.1071H8.28917L7.18117 21.9119L7.60357 23.2135L6.49557 22.4087L5.38677 23.2151L5.81077 21.9135L4.70117 21.1087H6.07237L6.49557 19.8047Z" fill="#FFCC00"/>
<path d="M5.0096 14.2578L5.4328 15.5594H6.8032L5.6952 16.3642L6.1176 17.6674L5.0096 16.8618L3.9008 17.6674L4.3248 16.3642L3.2168 15.5594H4.5864L5.0096 14.2578Z" fill="#FFCC00"/>
<path d="M6.49557 8.71094L6.91877 10.0133H8.28917L7.18117 10.8189L7.60357 12.1197L6.49557 11.3157L5.38677 12.1197L5.81077 10.8189L4.70117 10.0117H6.07237L6.49557 8.71094Z" fill="#FFCC00"/>
<path d="M10.5573 4.65625L10.9813 5.95785H12.3509L11.2437 6.76345L11.6661 8.06585L10.5573 7.26185L9.44847 8.06585L9.87247 6.76345L8.76367 5.95865H10.1341L10.5573 4.65625Z" fill="#FFCC00"/>
<path d="M25.7174 8.71094L26.1406 10.0133H27.511L26.403 10.8189L26.8262 12.1197L25.7174 11.3157L24.6094 12.1197L25.0326 10.8189L23.9238 10.0117H25.2942L25.7174 8.71094Z" fill="#FFCC00"/>
</g>
</g>
<defs>
<clipPath id="clip0_583_7083">
<rect width="32.0024" height="32" fill="white" transform="translate(-0.00390625)"/>
</clipPath>
</defs>
</svg>
