<svg width="32" height="32" viewBox="0 0 32 32" fill="none" xmlns="http://www.w3.org/2000/svg">
<g clip-path="url(#clip0_8918_95388)">
<mask id="mask0_8918_95388" style="mask-type:luminance" maskUnits="userSpaceOnUse" x="0" y="0" width="32" height="32">
<path d="M16 0H15.6432C11.8034 0.079996 9.83071 0.379981 8.0036 1.00875C6.23641 1.61563 4.64571 2.64807 3.37183 4.015C2.31397 5.24411 1.50368 6.66613 0.985551 8.20279C0.377285 10.1293 0.0538816 12.1344 0.0255984 14.1545C-3.30789e-07 14.9489 0 15.0576 0 15.9944C0 16.9312 -3.30789e-07 17.044 0.0255984 17.8391C0.0538793 19.8589 0.377283 21.8638 0.985551 23.79C1.50296 25.327 2.31333 26.7491 3.37183 27.9778C4.64594 29.3458 6.23721 30.3791 8.0052 30.9865C9.83231 31.616 11.8042 31.9168 15.6448 31.996H16.3544C20.1942 31.916 22.1669 31.616 23.994 30.9865C25.7619 30.3797 27.3532 29.347 28.6274 27.9794C29.6859 26.7507 30.4962 25.3286 31.0136 23.7916C31.6223 21.8654 31.9457 19.8606 31.9736 17.8407C32 17.0455 32 16.9368 32 15.996C32 15.0552 32 14.9473 31.9736 14.1561C31.9457 12.136 31.6223 10.1308 31.0136 8.20439C30.4955 6.66773 29.6852 5.24571 28.6274 4.0166C27.3532 2.64927 25.7619 1.61679 23.994 1.01035C22.1669 0.379981 20.195 0.0791961 16.3544 0H16Z" fill="white"/>
</mask>
<g mask="url(#mask0_8918_95388)">
<path d="M40.982 -0.691895H-9.23633V32.7616H40.982V-0.691895Z" fill="white"/>
<path d="M40.982 21.6094H-9.23633V32.7616H40.982V21.6094Z" fill="#23AE49"/>
<path d="M40.982 -0.691895H-9.23633V10.4579H40.982V-0.691895Z" fill="#F89C4D"/>
<path d="M15.2901 11.6122C14.4156 11.7278 13.595 12.1001 12.932 12.682C12.2691 13.264 11.7936 14.0294 11.5656 14.8815C11.3376 15.7337 11.3674 16.6343 11.6513 17.4695C11.9351 18.3047 12.4602 19.037 13.1602 19.5739C13.8602 20.1107 14.7036 20.4279 15.5838 20.4854C16.4641 20.5429 17.3416 20.3381 18.1055 19.897C18.8694 19.4558 19.4853 18.798 19.8754 18.0068C20.2655 17.2157 20.4122 16.3266 20.297 15.452C20.2206 14.8711 20.0303 14.3109 19.7373 13.8035C19.4442 13.296 19.0541 12.8513 18.5891 12.4948C18.1241 12.1382 17.5935 11.8767 17.0274 11.7253C16.4614 11.5738 15.871 11.5354 15.2901 11.6122ZM16.3812 19.9022C15.616 20.0029 14.838 19.8744 14.1457 19.533C13.4535 19.1915 12.8781 18.6524 12.4922 17.9839C12.1064 17.3154 11.9275 16.5474 11.9782 15.7772C12.0288 15.007 12.3068 14.2691 12.7769 13.6569C13.2469 13.0446 13.888 12.5856 14.6191 12.3378C15.3501 12.0899 16.1382 12.0645 16.8837 12.2646C17.6291 12.4647 18.2985 12.8814 18.8072 13.462C19.3158 14.0426 19.6408 14.7611 19.7411 15.5264C19.875 16.5521 19.5965 17.589 18.9665 18.4094C18.3365 19.2299 17.4067 19.7668 16.3812 19.9022Z" fill="#271D70"/>
<path d="M15.7701 15.26C15.6167 15.2801 15.4727 15.3452 15.3564 15.4471C15.24 15.5491 15.1565 15.6832 15.1165 15.8326C15.0764 15.982 15.0816 16.14 15.1314 16.2864C15.1812 16.4329 15.2733 16.5613 15.3961 16.6554C15.5188 16.7494 15.6668 16.805 15.8211 16.8149C15.9755 16.8249 16.1294 16.7888 16.2632 16.7112C16.397 16.6337 16.5049 16.5182 16.573 16.3793C16.6412 16.2405 16.6666 16.0845 16.646 15.9312C16.6186 15.7262 16.5109 15.5404 16.3468 15.4146C16.1826 15.2888 15.9752 15.2332 15.7701 15.26Z" fill="#271D70"/>
<path d="M15.3633 12.165L15.8017 14.4705L15.8153 15.5905L15.5369 14.5073L15.3633 12.165Z" fill="#271D70"/>
<path d="M16.3817 19.9025L15.9433 17.5994L15.9297 16.4795L16.2097 17.5658L16.3817 19.9025Z" fill="#271D70"/>
<path d="M14.377 12.4272L15.3985 14.5391L15.7001 15.6183L15.1505 14.6407L14.377 12.4272Z" fill="#271D70"/>
<path d="M17.3677 19.6405L16.347 17.527L16.043 16.4463L16.5941 17.4262L17.3677 19.6405Z" fill="#271D70"/>
<path d="M13.4961 12.9385L15.0288 14.7136L15.6016 15.6807L14.816 14.8752L13.4961 12.9385Z" fill="#271D70"/>
<path d="M18.2508 19.1295L16.7181 17.3536L16.1445 16.3872L16.9309 17.1872L18.2508 19.1295Z" fill="#271D70"/>
<path d="M12.2637 14.541L14.4804 15.3122L15.4603 15.8633L14.378 15.561L12.2637 14.541Z" fill="#271D70"/>
<path d="M19.483 17.5274L17.2664 16.7563L16.2832 16.2051L17.3655 16.5091L19.483 17.5274Z" fill="#271D70"/>
<path d="M12 15.5264L14.3415 15.6968L15.4302 15.9735L14.3103 15.9647L12 15.5264Z" fill="#271D70"/>
<path d="M19.7455 16.5431L17.4032 16.3695L16.3145 16.0903L17.44 16.1071L19.7455 16.5431Z" fill="#271D70"/>
<path d="M12.2637 17.5271L14.378 16.5071L15.4603 16.2031L14.4804 16.7543L12.2637 17.5271Z" fill="#271D70"/>
<path d="M19.483 14.541L17.3695 15.561L16.2832 15.8674L17.2624 15.3162L19.483 14.541Z" fill="#271D70"/>
<path d="M12.7754 18.4097L14.5513 16.8778L15.5193 16.3066L14.7193 17.0922L12.7754 18.4097Z" fill="#271D70"/>
<path d="M18.9712 13.6577L17.1929 15.1912L16.2266 15.7624L17.0265 14.9784L18.9712 13.6577Z" fill="#271D70"/>
<path d="M14.377 19.6405L15.1505 17.4262L15.7001 16.4463L15.4017 17.527L14.377 19.6405Z" fill="#271D70"/>
<path d="M17.3677 12.4272L16.5949 14.6431L16.043 15.6207L16.3462 14.5415L17.3677 12.4272Z" fill="#271D70"/>
<path d="M15.3633 19.9025L15.5369 17.5634L15.8153 16.4771L15.8017 17.597L15.3633 19.9025Z" fill="#271D70"/>
<path d="M16.3817 12.165L16.2097 14.5073L15.9297 15.5953L15.9433 14.4753L16.3817 12.165Z" fill="#271D70"/>
<path d="M19.7439 15.5264L17.4384 15.9647L16.3145 15.9735L17.4032 15.6968L19.7439 15.5264Z" fill="#271D70"/>
<path d="M12 16.5432L14.3071 16.1072L15.427 16.0928L14.3383 16.372L12 16.5432Z" fill="#271D70"/>
<path d="M18.9711 18.4097L17.0304 17.0922L16.2305 16.3066L17.1968 16.8778L18.9711 18.4097Z" fill="#271D70"/>
<path d="M12.7754 13.6577L14.7153 14.9784L15.5153 15.7624L14.5473 15.1912L12.7754 13.6577Z" fill="#271D70"/>
<path d="M13.4961 19.1295L14.816 17.1896L15.6016 16.3896L15.0288 17.356L13.4961 19.1295Z" fill="#271D70"/>
<path d="M18.2508 12.9385L16.9309 14.8752L16.1445 15.6807L16.7181 14.7136L18.2508 12.9385Z" fill="#271D70"/>
<path d="M14.8098 12.0745C14.7602 12.0888 14.718 12.1218 14.6923 12.1666C14.6666 12.2114 14.6594 12.2645 14.6722 12.3145C14.679 12.3393 14.6906 12.3624 14.7063 12.3827C14.722 12.403 14.7416 12.42 14.7639 12.4327C14.7862 12.4454 14.8107 12.4536 14.8362 12.4568C14.8616 12.46 14.8875 12.4581 14.9122 12.4513C14.9372 12.4449 14.9607 12.4336 14.9812 12.418C15.0017 12.4024 15.0189 12.3828 15.0318 12.3604C15.0446 12.338 15.0528 12.3133 15.0559 12.2877C15.059 12.2621 15.0569 12.2361 15.0498 12.2113C15.0365 12.161 15.0037 12.118 14.9587 12.0917C14.9138 12.0655 14.8602 12.0582 14.8098 12.0713" fill="#271D70"/>
<path d="M16.831 19.6144C16.7936 19.6243 16.7599 19.6452 16.7344 19.6743C16.7088 19.7034 16.6924 19.7394 16.6873 19.7778C16.6821 19.8163 16.6885 19.8553 16.7056 19.8901C16.7227 19.9249 16.7497 19.9538 16.7832 19.9733C16.8167 19.9927 16.8553 20.0018 16.8939 19.9993C16.9326 19.9969 16.9697 19.983 17.0005 19.9595C17.0313 19.936 17.0544 19.9039 17.067 19.8672C17.0795 19.8306 17.0809 19.791 17.071 19.7536C17.0575 19.7034 17.0247 19.6605 16.9797 19.6345C16.9347 19.6084 16.8813 19.6012 16.831 19.6144Z" fill="#271D70"/>
<path d="M13.8223 12.4843C13.7775 12.5105 13.7448 12.5534 13.7314 12.6035C13.7179 12.6537 13.7247 12.7071 13.7503 12.7523C13.7634 12.7744 13.7807 12.7938 13.8012 12.8093C13.8217 12.8247 13.8451 12.836 13.87 12.8424C13.8949 12.8488 13.9209 12.8502 13.9463 12.8465C13.9718 12.8429 13.9962 12.8342 14.0183 12.8211C14.0405 12.8087 14.06 12.792 14.0757 12.772C14.0913 12.7519 14.1027 12.729 14.1093 12.7044C14.1159 12.6799 14.1174 12.6542 14.1139 12.6291C14.1103 12.6039 14.1018 12.5797 14.0887 12.5579C14.0762 12.5355 14.0593 12.5158 14.0391 12.4999C14.0188 12.484 13.9957 12.4724 13.9709 12.4655C13.9461 12.4587 13.9202 12.4568 13.8947 12.46C13.8692 12.4633 13.8446 12.4715 13.8223 12.4843Z" fill="#271D70"/>
<path d="M17.7273 19.2437C17.6821 19.2698 17.6491 19.3128 17.6356 19.3632C17.6221 19.4136 17.6292 19.4673 17.6553 19.5125C17.6827 19.5545 17.7253 19.5844 17.7741 19.5959C17.823 19.6075 17.8744 19.5999 17.9178 19.5746C17.9612 19.5494 17.9933 19.5085 18.0074 19.4603C18.0215 19.4121 18.0166 19.3603 17.9936 19.3157C17.9679 19.2708 17.9253 19.238 17.8754 19.2245C17.8254 19.211 17.7721 19.2179 17.7273 19.2437Z" fill="#271D70"/>
<path d="M12.9735 13.137C12.9553 13.1551 12.9408 13.1766 12.931 13.2002C12.9211 13.2239 12.916 13.2493 12.916 13.275C12.916 13.3006 12.9211 13.326 12.931 13.3497C12.9408 13.3734 12.9553 13.3949 12.9735 13.413C12.9915 13.4317 13.013 13.4466 13.0369 13.4569C13.0607 13.4672 13.0863 13.4726 13.1123 13.4729C13.1382 13.4732 13.164 13.4682 13.188 13.4584C13.2121 13.4486 13.2339 13.4341 13.2522 13.4157C13.2706 13.3974 13.2851 13.3756 13.2949 13.3515C13.3047 13.3275 13.3097 13.3017 13.3094 13.2758C13.3092 13.2498 13.3037 13.2242 13.2934 13.2003C13.2831 13.1765 13.2682 13.155 13.2495 13.137C13.2316 13.1184 13.2102 13.1036 13.1865 13.0935C13.1628 13.0833 13.1373 13.0781 13.1115 13.0781C13.0857 13.0781 13.0602 13.0833 13.0365 13.0935C13.0128 13.1036 12.9913 13.1184 12.9735 13.137Z" fill="#271D70"/>
<path d="M18.4966 18.6551C18.46 18.6917 18.4395 18.7413 18.4395 18.7931C18.4395 18.8448 18.46 18.8945 18.4966 18.9311C18.5336 18.9671 18.5833 18.9873 18.635 18.9873C18.6867 18.9873 18.7363 18.9671 18.7734 18.9311C18.7915 18.9129 18.8059 18.8913 18.8157 18.8676C18.8254 18.8439 18.8305 18.8185 18.8304 18.7928C18.8304 18.7671 18.8253 18.7417 18.8154 18.718C18.8056 18.6943 18.7912 18.6728 18.773 18.6547C18.7548 18.6366 18.7332 18.6222 18.7095 18.6124C18.6858 18.6026 18.6604 18.5976 18.6347 18.5977C18.609 18.5977 18.5836 18.6028 18.5599 18.6126C18.5362 18.6225 18.5147 18.6369 18.4966 18.6551Z" fill="#271D70"/>
<path d="M12.3206 13.984C12.295 14.0292 12.2882 14.0826 12.3017 14.1328C12.3152 14.1829 12.3478 14.2258 12.3926 14.252C12.4261 14.2711 12.4645 14.2798 12.5029 14.2771C12.5413 14.2744 12.5781 14.2604 12.6086 14.2369C12.6391 14.2133 12.6619 14.1813 12.6742 14.1448C12.6865 14.1083 12.6877 14.069 12.6777 14.0318C12.6677 13.9946 12.647 13.9611 12.618 13.9357C12.5891 13.9103 12.5533 13.894 12.5151 13.8889C12.4769 13.8838 12.4381 13.8901 12.4035 13.9071C12.3689 13.924 12.3401 13.9508 12.3206 13.984Z" fill="#271D70"/>
<path d="M19.0815 17.8872C19.062 17.9205 19.0528 17.9588 19.055 17.9974C19.0573 18.0359 19.0709 18.0729 19.0942 18.1037C19.1175 18.1345 19.1494 18.1576 19.1859 18.1703C19.2223 18.183 19.2617 18.1845 19.2991 18.1748C19.3364 18.1651 19.3701 18.1445 19.3957 18.1156C19.4214 18.0868 19.4379 18.051 19.4432 18.0128C19.4485 17.9745 19.4424 17.9356 19.4256 17.9008C19.4087 17.8661 19.382 17.8371 19.3487 17.8176C19.304 17.7916 19.2508 17.7843 19.2008 17.7973C19.1507 17.8104 19.1078 17.8427 19.0815 17.8872Z" fill="#271D70"/>
<path d="M11.911 14.9738C11.8975 15.0239 11.9045 15.0773 11.9304 15.1222C11.9563 15.1671 11.9989 15.1999 12.049 15.2134C12.0991 15.2269 12.1524 15.2199 12.1974 15.194C12.2423 15.1681 12.2751 15.1255 12.2886 15.0754C12.2953 15.0506 12.297 15.0247 12.2937 14.9993C12.2903 14.9738 12.282 14.9493 12.2692 14.927C12.2564 14.9048 12.2393 14.8853 12.219 14.8696C12.1986 14.854 12.1754 14.8425 12.1506 14.8358C12.1258 14.8291 12.0999 14.8274 12.0745 14.8307C12.049 14.8341 12.0245 14.8424 12.0022 14.8552C11.98 14.868 11.9605 14.8851 11.9448 14.9054C11.9292 14.9258 11.9177 14.949 11.911 14.9738Z" fill="#271D70"/>
<path d="M19.4553 16.9943C19.4478 17.0192 19.4455 17.0453 19.4485 17.0711C19.4515 17.0968 19.4598 17.1217 19.4727 17.1442C19.4857 17.1667 19.5031 17.1862 19.5239 17.2017C19.5447 17.2172 19.5685 17.2283 19.5937 17.2343C19.6184 17.2415 19.6443 17.2436 19.6698 17.2406C19.6953 17.2376 19.72 17.2295 19.7423 17.2169C19.7647 17.2042 19.7843 17.1872 19.8 17.1668C19.8157 17.1465 19.8271 17.1232 19.8337 17.0983C19.8403 17.0735 19.8419 17.0477 19.8384 17.0223C19.835 16.9969 19.8266 16.9724 19.8137 16.9502C19.8009 16.928 19.7837 16.9086 19.7633 16.893C19.7429 16.8775 19.7197 16.8661 19.6949 16.8595C19.6701 16.853 19.6443 16.8514 19.6188 16.8548C19.5934 16.8582 19.5689 16.8666 19.5468 16.8795C19.5246 16.8924 19.5052 16.9095 19.4896 16.9299C19.4741 16.9503 19.4627 16.9735 19.4561 16.9983" fill="#271D70"/>
<path d="M11.7715 16.0329C11.771 16.0718 11.7821 16.1099 11.8034 16.1425C11.8246 16.175 11.855 16.2005 11.8908 16.2157C11.9266 16.2309 11.9661 16.2351 12.0042 16.2279C12.0424 16.2206 12.0776 16.2021 12.1052 16.1748C12.1329 16.1475 12.1518 16.1126 12.1595 16.0745C12.1673 16.0364 12.1635 15.9969 12.1488 15.9609C12.134 15.925 12.1089 15.8942 12.0766 15.8726C12.0443 15.8509 12.0064 15.8394 11.9675 15.8394C11.9159 15.8394 11.8664 15.8597 11.8297 15.8959C11.7931 15.9321 11.7721 15.9814 11.7715 16.0329Z" fill="#271D70"/>
<path d="M19.584 16.0329C19.5837 16.0716 19.5949 16.1095 19.6161 16.1418C19.6374 16.1741 19.6677 16.1994 19.7034 16.2144C19.739 16.2294 19.7783 16.2335 19.8163 16.2262C19.8542 16.2188 19.8892 16.2004 19.9166 16.1731C19.9441 16.1459 19.9628 16.1111 19.9705 16.0732C19.9782 16.0353 19.9744 15.996 19.9597 15.9602C19.9449 15.9245 19.9199 15.8939 19.8878 15.8724C19.8557 15.8508 19.8179 15.8394 19.7792 15.8394C19.7277 15.8394 19.6783 15.8597 19.6417 15.896C19.6052 15.9322 19.5844 15.9815 19.584 16.0329Z" fill="#271D70"/>
<path d="M11.9108 17.0944C11.9241 17.1445 11.9567 17.1872 12.0015 17.2133C12.0462 17.2393 12.0995 17.2465 12.1496 17.2332C12.1997 17.22 12.2424 17.1873 12.2684 17.1426C12.2945 17.0978 12.3016 17.0445 12.2884 16.9944C12.2751 16.9444 12.2425 16.9016 12.1977 16.8756C12.153 16.8495 12.0997 16.8424 12.0496 16.8556C11.9995 16.8689 11.9568 16.9015 11.9307 16.9463C11.9047 16.9911 11.8975 17.0443 11.9108 17.0944Z" fill="#271D70"/>
<path d="M19.4559 15.0752C19.47 15.125 19.503 15.1673 19.5478 15.193C19.5927 15.2188 19.6459 15.2259 19.6959 15.2128C19.7207 15.2061 19.744 15.1946 19.7644 15.1789C19.7847 15.1633 19.8018 15.1437 19.8146 15.1214C19.8274 15.0991 19.8356 15.0745 19.8389 15.049C19.8421 15.0235 19.8403 14.9976 19.8335 14.9728C19.8268 14.948 19.8154 14.9248 19.7997 14.9045C19.7841 14.8841 19.7645 14.867 19.7423 14.8542C19.7201 14.8414 19.6955 14.8331 19.67 14.8298C19.6446 14.8264 19.6187 14.8282 19.5939 14.8348C19.5691 14.8415 19.5459 14.853 19.5255 14.8687C19.5052 14.8843 19.4881 14.9038 19.4753 14.9261C19.4625 14.9483 19.4542 14.9729 19.4509 14.9983C19.4475 15.0238 19.4493 15.0504 19.4559 15.0752Z" fill="#271D70"/>
<path d="M12.3207 18.0822C12.3398 18.1159 12.3684 18.1432 12.4029 18.1606C12.4375 18.178 12.4765 18.1847 12.5149 18.1799C12.5533 18.1751 12.5894 18.159 12.6186 18.1336C12.6479 18.1083 12.6689 18.0748 12.679 18.0374C12.6892 18.0001 12.688 17.9605 12.6757 17.9239C12.6633 17.8872 12.6403 17.855 12.6096 17.8314C12.5789 17.8079 12.5419 17.7939 12.5033 17.7914C12.4647 17.7889 12.4262 17.798 12.3927 17.8174C12.3706 17.83 12.3511 17.8469 12.3355 17.867C12.3199 17.8872 12.3084 17.9102 12.3017 17.9348C12.295 17.9594 12.2933 17.9851 12.2965 18.0104C12.2998 18.0357 12.308 18.0601 12.3207 18.0822Z" fill="#271D70"/>
<path d="M19.0825 14.1796C19.1018 14.2131 19.1305 14.2401 19.1651 14.2572C19.1997 14.2744 19.2386 14.2809 19.2769 14.276C19.3151 14.271 19.3511 14.2548 19.3802 14.2294C19.4093 14.204 19.4302 14.1706 19.4403 14.1333C19.4503 14.0961 19.4491 14.0566 19.4368 14.02C19.4245 13.9835 19.4015 13.9513 19.371 13.9278C19.3404 13.9042 19.3035 13.8902 19.265 13.8876C19.2264 13.8851 19.188 13.8939 19.1545 13.9132C19.1097 13.939 19.0769 13.9815 19.0634 14.0315C19.0499 14.0814 19.0568 14.1347 19.0825 14.1796Z" fill="#271D70"/>
<path d="M12.9724 18.932C12.9904 18.9507 13.012 18.9657 13.0358 18.976C13.0596 18.9862 13.0853 18.9917 13.1112 18.9919C13.1372 18.9922 13.1629 18.9873 13.187 18.9775C13.211 18.9676 13.2328 18.9531 13.2512 18.9348C13.2695 18.9164 13.284 18.8946 13.2939 18.8706C13.3037 18.8465 13.3086 18.8208 13.3083 18.7948C13.3081 18.7689 13.3026 18.7432 13.2924 18.7194C13.2821 18.6955 13.2671 18.674 13.2484 18.656C13.2116 18.6206 13.1623 18.6011 13.1112 18.6016C13.0601 18.6021 13.0113 18.6226 12.9751 18.6587C12.939 18.6949 12.9185 18.7437 12.918 18.7948C12.9175 18.8459 12.937 18.8952 12.9724 18.932Z" fill="#271D70"/>
<path d="M18.4962 13.4129C18.5333 13.449 18.5829 13.4692 18.6346 13.4692C18.6863 13.4692 18.736 13.449 18.773 13.4129C18.8002 13.3856 18.8187 13.3508 18.8262 13.313C18.8336 13.2751 18.8297 13.2359 18.8149 13.2003C18.8001 13.1647 18.7751 13.1343 18.743 13.1129C18.7109 13.0915 18.6732 13.0801 18.6346 13.0801C18.5961 13.0801 18.5584 13.0915 18.5263 13.1129C18.4942 13.1343 18.4692 13.1647 18.4544 13.2003C18.4396 13.2359 18.4357 13.2751 18.4431 13.313C18.4506 13.3508 18.4691 13.3856 18.4962 13.4129Z" fill="#271D70"/>
<path d="M13.8221 19.5822C13.8441 19.5953 13.8685 19.6039 13.8939 19.6075C13.9192 19.611 13.9451 19.6095 13.9698 19.6031C13.9946 19.5966 14.0179 19.5853 14.0382 19.5697C14.0586 19.5542 14.0757 19.5348 14.0885 19.5126C14.1144 19.4678 14.1214 19.4145 14.108 19.3644C14.0945 19.3144 14.0618 19.2717 14.0169 19.2459C13.972 19.22 13.9187 19.213 13.8687 19.2264C13.8187 19.2398 13.776 19.2726 13.7501 19.3175C13.7246 19.3621 13.7179 19.4151 13.7314 19.4647C13.7449 19.5143 13.7775 19.5566 13.8221 19.5822Z" fill="#271D70"/>
<path d="M17.7278 12.8208C17.7497 12.8342 17.774 12.8431 17.7994 12.8469C17.8248 12.8507 17.8507 12.8494 17.8756 12.843C17.9004 12.8365 17.9238 12.8252 17.9441 12.8096C17.9645 12.7939 17.9815 12.7744 17.9942 12.752C18.0085 12.7297 18.0182 12.7048 18.0225 12.6787C18.0269 12.6525 18.0259 12.6258 18.0197 12.6C18.0134 12.5743 18.0019 12.5501 17.986 12.529C17.97 12.5078 17.95 12.4901 17.927 12.4769C17.904 12.4638 17.8785 12.4554 17.8522 12.4524C17.8259 12.4494 17.7992 12.4518 17.7739 12.4594C17.7485 12.4671 17.7249 12.4798 17.7046 12.4968C17.6843 12.5138 17.6677 12.5348 17.6558 12.5584C17.6427 12.5802 17.6341 12.6045 17.6307 12.6297C17.6272 12.6549 17.6289 12.6805 17.6356 12.705C17.6423 12.7296 17.654 12.7525 17.6698 12.7724C17.6857 12.7923 17.7054 12.8088 17.7278 12.8208Z" fill="#271D70"/>
<path d="M14.8103 19.9934C14.8478 20.0037 14.8874 20.0026 14.9242 19.9903C14.961 19.978 14.9933 19.955 15.017 19.9243C15.0408 19.8936 15.0549 19.8566 15.0575 19.8179C15.0602 19.7792 15.0513 19.7406 15.032 19.7069C15.0127 19.6733 14.9839 19.6461 14.9491 19.6288C14.9144 19.6116 14.8753 19.605 14.8368 19.61C14.7983 19.615 14.7622 19.6313 14.733 19.6568C14.7038 19.6824 14.6828 19.716 14.6727 19.7535C14.6593 19.8035 14.6662 19.8569 14.692 19.9019C14.7178 19.9469 14.7603 19.9798 14.8103 19.9934Z" fill="#271D70"/>
<path d="M16.832 12.452C16.8693 12.4621 16.9086 12.4608 16.9452 12.4485C16.9817 12.4361 17.0138 12.4132 17.0373 12.3827C17.0609 12.3521 17.0748 12.3153 17.0774 12.2768C17.0801 12.2383 17.0712 12.1999 17.052 12.1665C17.0328 12.133 17.0042 12.106 16.9696 12.0888C16.9351 12.0716 16.8963 12.065 16.858 12.0699C16.8197 12.0748 16.7838 12.0909 16.7547 12.1162C16.7256 12.1415 16.7046 12.1749 16.6944 12.2121C16.6876 12.2369 16.6858 12.2627 16.6891 12.2882C16.6923 12.3137 16.7006 12.3383 16.7134 12.3606C16.7261 12.3829 16.7432 12.4025 16.7636 12.4182C16.7839 12.4339 16.8072 12.4454 16.832 12.452Z" fill="#271D70"/>
<path d="M15.8737 20.1321C15.9123 20.1319 15.95 20.1203 15.9819 20.0988C16.0139 20.0773 16.0388 20.0467 16.0535 20.011C16.0681 19.9754 16.0719 19.9361 16.0643 19.8983C16.0566 19.8605 16.038 19.8258 16.0107 19.7986C15.9833 19.7714 15.9486 19.7529 15.9107 19.7454C15.8729 19.7379 15.8337 19.7418 15.798 19.7566C15.7624 19.7714 15.732 19.7964 15.7106 19.8285C15.6892 19.8606 15.6777 19.8983 15.6777 19.9369C15.6776 19.9626 15.6826 19.9881 15.6925 20.0119C15.7023 20.0357 15.7167 20.0573 15.735 20.0754C15.7532 20.0936 15.7748 20.1079 15.7987 20.1177C15.8225 20.1274 15.848 20.1323 15.8737 20.1321Z" fill="#271D70"/>
<path d="M15.8737 12.3253C15.9121 12.325 15.9496 12.3133 15.9814 12.2917C16.0131 12.2701 16.0378 12.2396 16.0522 12.204C16.0667 12.1684 16.0703 12.1293 16.0625 12.0917C16.0548 12.0541 16.0361 12.0196 16.0087 11.9926C15.9814 11.9656 15.9467 11.9473 15.909 11.94C15.8713 11.9328 15.8322 11.9368 15.7968 11.9517C15.7614 11.9666 15.7312 11.9916 15.71 12.0237C15.6888 12.0557 15.6776 12.0933 15.6777 12.1317C15.6778 12.1573 15.683 12.1826 15.6929 12.2062C15.7028 12.2298 15.7173 12.2512 15.7355 12.2692C15.7537 12.2872 15.7753 12.3014 15.799 12.311C15.8227 12.3207 15.8481 12.3255 15.8737 12.3253Z" fill="#271D70"/>
</g>
</g>
<defs>
<clipPath id="clip0_8918_95388">
<rect width="32" height="31.996" fill="white"/>
</clipPath>
</defs>
</svg>
