<svg width="32" height="32" viewBox="0 0 32 32" fill="none" xmlns="http://www.w3.org/2000/svg">
<g clip-path="url(#clip0_583_7138)">
<mask id="mask0_583_7138" style="mask-type:luminance" maskUnits="userSpaceOnUse" x="0" y="0" width="33" height="32">
<path d="M16.0071 0H15.6526C11.8126 0.080002 9.8397 0.38161 8.01326 1.01043C6.24521 1.6173 4.65361 2.64979 3.37874 4.0169C2.32044 5.24585 1.51005 6.66805 0.992284 8.205C0.383545 10.1313 0.0601075 12.1363 0.03226 14.1564C0.00585937 14.9508 0.00585938 15.0604 0.00585938 16.0004C0.00585938 16.9404 0.00585937 17.05 0.03226 17.8444C0.0599838 19.8641 0.38315 21.8689 0.991484 23.795C1.50943 25.3316 2.31981 26.7535 3.37794 27.9823C4.65276 29.3496 6.24436 30.3824 8.01246 30.9896C9.83891 31.6184 11.811 31.92 15.6518 32H16.3615C20.2016 31.92 22.1752 31.6184 24.0025 30.9896C25.7703 30.3828 27.3614 29.3499 28.6354 27.9823C29.6937 26.7537 30.5041 25.3317 31.0218 23.795C31.6304 21.8687 31.9539 19.8636 31.9819 17.8436C32.0075 17.0492 32.0075 16.9388 32.0075 15.9996C32.0075 15.0604 32.0075 14.95 31.9819 14.1556C31.9539 12.1356 31.6305 10.1305 31.0218 8.2042C30.5044 6.66711 29.694 5.24485 28.6354 4.0161C27.3613 2.64899 25.7701 1.61671 24.0025 1.01043C22.1752 0.38161 20.2032 0.079202 16.3615 0H16.0071Z" fill="white"/>
</mask>
<g mask="url(#mask0_583_7138)">
<path d="M40.7908 -0.203125H-7.86719V32.2089H40.7908V-0.203125Z" fill="#FF0710"/>
<path d="M21.9741 20.185C21.9741 20.185 20.6629 16.2441 16.854 16.6369C20.0885 17.5441 19.8653 20.2714 19.8653 20.2714H19.7157C19.6997 19.4255 19.3846 18.6126 18.8263 17.9769C18.2681 17.3412 17.5027 16.9237 16.666 16.7985C17.1067 17.0285 17.4576 17.3994 17.6628 17.8521C17.868 18.3048 17.9156 18.8132 17.798 19.2962C17.798 19.2962 16.6292 21.8434 18.0981 22.8331C18.5347 23.1532 18.9956 23.4388 19.4765 23.6875C19.6367 23.7982 19.768 23.9458 19.8592 24.1179C19.9504 24.29 19.9988 24.4815 20.0005 24.6763C20.0362 25.0346 19.9791 25.396 19.8349 25.7259C20.755 25.1699 21.4644 24.324 21.8516 23.3211C22.2388 22.3182 22.2819 21.2151 21.9741 20.185ZM20.0229 21.569L19.7933 22.0626L19.6877 21.529L19.1477 21.4634L19.6277 21.1978L19.5221 20.6634L19.9221 21.0346L20.3973 20.7706L20.1685 21.2642L20.5685 21.6346L20.0229 21.569Z" fill="white"/>
<path d="M14.2371 23.5364C14.2371 23.5364 17.7268 21.2868 16.4036 17.6963C16.3236 21.0564 13.6323 21.5164 13.6323 21.5164L13.5947 21.3708C14.4098 21.145 15.1187 20.6379 15.5957 19.9394C16.0726 19.2409 16.2868 18.3961 16.2004 17.5547C16.087 18.0385 15.8149 18.4704 15.4274 18.7815C15.04 19.0927 14.5596 19.2652 14.0627 19.2715C14.0627 19.2715 11.3067 18.7707 10.7123 20.438C10.5107 20.9407 10.3484 21.4582 10.2266 21.986C10.1592 22.1687 10.0489 22.3325 9.90494 22.4637C9.76098 22.5948 9.5876 22.6895 9.39942 22.7396C9.06138 22.8635 8.69715 22.8982 8.3418 22.8404C9.10806 23.5938 10.103 24.0712 11.1702 24.1975C12.2373 24.3238 13.3162 24.0918 14.2371 23.538M12.4131 21.9892L11.8779 21.8892L12.3691 21.6556L12.2987 21.1156L12.6731 21.5108L13.1635 21.278L12.9043 21.758L13.2779 22.154L12.7435 22.054L12.4835 22.534L12.4131 21.9892Z" fill="white"/>
<path d="M9.26295 17.3888C9.26295 17.3888 12.6278 19.8224 15.4903 17.2832C12.3334 18.4368 10.9254 16.0895 10.9254 16.0895L11.047 16.0023C11.5532 16.6798 12.2831 17.156 13.107 17.3464C13.931 17.5368 14.7958 17.4291 15.5479 17.0424C15.0562 17.1126 14.555 17.016 14.1246 16.768C13.6942 16.5201 13.3593 16.135 13.1734 15.6743C13.1734 15.6743 12.6366 12.9231 10.8678 12.9759C10.3263 12.971 9.78519 13.0079 9.24935 13.0863C9.05486 13.09 8.86232 13.0468 8.68799 12.9605C8.51367 12.8742 8.36266 12.7472 8.24773 12.5902C8.00897 12.3201 7.84368 11.9931 7.76771 11.6406C7.34517 12.629 7.26265 13.7296 7.53312 14.77C7.80359 15.8103 8.41173 16.7314 9.26215 17.3888M10.0406 15.1247L9.93897 14.5895L10.339 14.9631L10.819 14.7007L10.5862 15.1927L10.9862 15.5663L10.447 15.4983L10.215 15.9895L10.1134 15.4551L9.57256 15.3879L10.0406 15.1247Z" fill="white"/>
<path d="M13.1688 10.1899C13.1688 10.1899 11.8968 14.1436 15.1968 16.0812C13.1264 13.4339 14.9176 11.3691 14.9176 11.3691L15.0376 11.4579C14.5506 12.1496 14.3242 12.9914 14.3988 13.8341C14.4733 14.6767 14.8439 15.4658 15.4448 16.0612C15.2251 15.6157 15.1608 15.1094 15.2623 14.623C15.3638 14.1367 15.6252 13.6984 16.0049 13.3779C16.0049 13.3779 18.4529 12.0179 17.8545 10.3491C17.6916 9.83253 17.4888 9.32941 17.2481 8.84423C17.1844 8.66016 17.1658 8.46355 17.1936 8.27079C17.2214 8.07803 17.295 7.89473 17.4081 7.7362C17.5908 7.4262 17.8504 7.16856 18.1617 6.98818C17.0916 6.89209 16.0199 7.15427 15.1149 7.73351C14.21 8.31275 13.5232 9.17622 13.1624 10.1883M15.5544 10.2275L16.0345 9.96585L15.8025 10.4579L16.2025 10.8307L15.6624 10.7635L15.4312 11.2547L15.3336 10.7219L14.7928 10.6539L15.2728 10.3915L15.1712 9.85625L15.5544 10.2275Z" fill="white"/>
<path d="M21.2249 11.8829C21.2249 11.8829 17.0744 11.8029 16.168 15.5198C18.1064 12.7742 20.5985 13.8982 20.5985 13.8982L20.5481 14.039C19.7459 13.7713 18.8749 13.7963 18.0895 14.1098C17.3041 14.4232 16.655 15.0046 16.2576 15.751C16.6214 15.4129 17.088 15.2065 17.5829 15.1646C18.0778 15.1226 18.5725 15.2477 18.988 15.5198C18.988 15.5198 20.9961 17.4751 22.4193 16.4231C22.8671 16.1182 23.2907 15.7793 23.6866 15.4094C23.8446 15.2959 24.0276 15.2221 24.2202 15.1943C24.4128 15.1664 24.6093 15.1853 24.793 15.2494C25.1426 15.3354 25.4642 15.5101 25.7266 15.7566C25.511 14.7039 24.9519 13.7526 24.1371 13.0519C23.3224 12.3512 22.2981 11.9409 21.2249 11.8853M21.8737 14.1886L22.2625 14.571L21.7241 14.491L21.4841 14.979L21.3929 14.443L20.8561 14.363L21.3361 14.1118L21.2465 13.5742L21.6345 13.9574L22.1145 13.7046L21.8737 14.1886Z" fill="white"/>
</g>
</g>
<defs>
<clipPath id="clip0_583_7138">
<rect width="32.0016" height="32" fill="white" transform="translate(0.00585938)"/>
</clipPath>
</defs>
</svg>
