<svg width="24" height="24" viewBox="0 0 24 24" fill="none" xmlns="http://www.w3.org/2000/svg">
<g clip-path="url(#clip0_8918_95334)">
<mask id="mask0_8918_95334" style="mask-type:luminance" maskUnits="userSpaceOnUse" x="0" y="0" width="24" height="25">
<path d="M12.0009 0H11.7351C8.85486 0.0600045 7.37455 0.285621 6.00405 0.757257C4.67832 1.21283 3.48484 1.98719 2.52859 3.01223C1.73505 3.93404 1.12743 5.00074 0.739256 6.15346C0.282444 7.59841 0.0398486 9.1025 0.0192015 10.6178C3.80008e-08 11.2136 0 11.2958 0 12.0009C0 12.706 3.80008e-08 12.7876 0.0192015 13.381C0.0398917 14.8963 0.282486 16.4004 0.739256 17.8453C1.12619 18.9993 1.73324 20.0673 2.52679 20.9902C3.48246 22.0149 4.67533 22.7891 6.00045 23.2445C7.37095 23.7156 8.84946 23.9424 11.7315 24.0018H12.2631C15.1433 23.9418 16.6236 23.7156 17.9935 23.2445C19.3202 22.7898 20.5146 22.0155 21.4714 20.9902C22.265 20.0684 22.8726 19.0017 23.2607 17.8489C23.7172 16.4039 23.9598 14.8999 23.9808 13.3846C24 12.7888 24 12.7066 24 12.0045C24 11.3024 24 11.2172 23.9808 10.6214C23.9599 9.10613 23.7173 7.60208 23.2607 6.15706C22.8723 5.00444 22.2647 3.93779 21.4714 3.01583C20.5155 1.98932 19.3217 1.21369 17.9953 0.757257C16.6254 0.285621 15.1463 0.0588044 12.2649 0H12.0009Z" fill="white"/>
</mask>
<g mask="url(#mask0_8918_95334)">
<path d="M40.4337 -0.97168H-2.95312V27.9319H40.4337V-0.97168Z" fill="#19307A"/>
<path d="M3.87278 11.6543L4.28562 12.8832L5.50911 12.438L4.80045 13.5246L5.91354 14.1991L4.61684 14.3257L4.78065 15.611L3.87278 14.6815L2.96432 15.611L3.12873 14.3257L1.83203 14.1991L2.94511 13.5246L2.23586 12.438L3.45995 12.8832L3.87278 11.6543Z" fill="white"/>
<path d="M15.9293 8.39746L16.152 9.06171L16.812 8.82169L16.4292 9.40914L17.0292 9.77456L16.3278 9.84237L16.4166 10.5372L15.9257 10.0344L15.4343 10.5372L15.5237 9.84237L14.8223 9.77456L15.4223 9.40914L15.0389 8.82169L15.6989 9.06171L15.9293 8.39746Z" fill="white"/>
<path d="M12.392 -0.347168H-4.62109V10.6487H12.392V-0.347168Z" fill="#19307A"/>
<path d="M6.21388 6.55811H5.0918V7.13475L10.4538 10.6486H12.3925V10.6456L6.21388 6.55811Z" fill="white"/>
<path d="M7.32422 6.55844L12.3928 9.91029V9.52926L7.85706 6.55664L7.32422 6.55844Z" fill="white"/>
<path d="M-0.114755 6.55844L-4.62109 9.48726V10.6369L1.66378 6.55664L-0.114755 6.55844Z" fill="white"/>
<path d="M2.67789 6.63037L-3.51758 10.6489H-2.74412L2.67789 7.12601V6.63037Z" fill="white"/>
<path d="M0.572296 3.74473L-4.62109 0.367676V0.768506L-0.0823531 3.74473H0.572296Z" fill="white"/>
<path d="M7.87937 3.74455L12.3917 0.812731V-0.339355L6.11523 3.74455H7.87937Z" fill="white"/>
<path d="M2.67924 3.74454V3.1637L-2.67856 -0.347168H-4.5957L1.69577 3.74454H2.67924Z" fill="white"/>
<path d="M5.0918 3.68153L11.2807 -0.347168H10.5102L5.0918 3.1745V3.68153Z" fill="white"/>
<path d="M2.67845 6.55811H1.66378L-4.62109 10.6366V10.6486H-3.51701L2.67845 6.62831V6.55811Z" fill="#FF0102"/>
<path d="M5.0918 3.74454H6.11667L12.3925 -0.339367V-0.347168H11.2807L5.0918 3.68153V3.74454Z" fill="#FF0102"/>
<path d="M6.21289 6.55811L12.3934 10.6456V9.90996L7.32477 6.55811H6.21289Z" fill="#FF0102"/>
<path d="M1.69498 3.74454L-4.59649 -0.347168H-4.62109V0.367486L0.572296 3.74454H1.69498Z" fill="#FF0102"/>
<path d="M3.15849 5.98291H-4.62109V6.55835H2.67845V10.6489H3.15849V5.98291Z" fill="white"/>
<path d="M4.63477 4.29418H12.3927V3.74454H5.0914V-0.347168H4.63477V4.29418Z" fill="white"/>
<path d="M5.0914 6.55835H12.3921V5.98291H4.63477V10.6489H5.0914V6.55835Z" fill="white"/>
<path d="M3.15849 4.29418V-0.347168H2.67845V3.74454H-4.62109V4.29418H3.15849Z" fill="white"/>
<path d="M4.6346 5.98271H12.3926V4.29358H4.6346V-0.347168H3.15849V4.29358H-4.62109V5.98271H3.15849V10.6487H4.6346V5.98271Z" fill="#FF0102"/>
</g>
</g>
<defs>
<clipPath id="clip0_8918_95334">
<rect width="24" height="24.0018" fill="white"/>
</clipPath>
</defs>
</svg>
