<svg width="32" height="32" viewBox="0 0 32 32" fill="none" xmlns="http://www.w3.org/2000/svg">
<g clip-path="url(#clip0_583_7022)">
<mask id="mask0_583_7022" style="mask-type:luminance" maskUnits="userSpaceOnUse" x="0" y="0" width="32" height="32">
<path d="M15.9972 0.00239984H15.6436C11.8039 0.0823938 9.83046 0.383171 8.0034 1.01192C6.23548 1.61902 4.64404 2.65169 3.36935 4.0189C2.31134 5.24849 1.50155 6.6714 0.984726 8.20898C0.376229 10.1354 0.0528288 12.1405 0.0247982 14.1605C1.1026e-07 14.9549 0 15.0653 0 16.0044C0 16.9435 1.1026e-07 17.0531 0.0247982 17.8443C0.0528197 19.8646 0.376219 21.8699 0.984726 23.7966C1.50183 25.3334 2.31161 26.7554 3.36935 27.9843C4.64409 29.3513 6.23553 30.3837 8.0034 30.9905C9.83046 31.6192 11.8015 31.9208 15.6436 32H16.3524C20.1921 31.92 22.1655 31.6192 23.9918 30.9905C25.7597 30.3837 27.3511 29.3513 28.6259 27.9843C29.6836 26.7553 30.4937 25.3333 31.0113 23.7966C31.6203 21.87 31.9437 19.8646 31.9712 17.8443C31.996 17.0499 31.996 16.9411 31.996 16.0044C31.996 15.0677 31.996 14.9549 31.9712 14.1605C31.9436 12.1405 31.6202 10.1353 31.0113 8.20898C30.4935 6.67263 29.6835 5.25091 28.6259 4.0221C27.3516 2.65274 25.7598 1.61811 23.991 1.00952C22.1647 0.380771 20.1929 0.0783941 16.3516 0L15.9972 0.00239984Z" fill="white"/>
</mask>
<g mask="url(#mask0_583_7022)">
<path d="M54.4668 29.2188H-8.24609V31.757H54.4668V29.2188Z" fill="#D11242"/>
<path d="M54.4668 26.6797H-8.24609V29.2163H54.4668V26.6797Z" fill="white"/>
<path d="M54.4668 24.1406H-8.24609V26.678H54.4668V24.1406Z" fill="#D11242"/>
<path d="M54.4668 21.6094H-8.24609V24.1468H54.4668V21.6094Z" fill="white"/>
<path d="M54.4668 19.0703H-8.24609V21.6085H54.4668V19.0703Z" fill="#D11242"/>
<path d="M54.4668 16.5312H-8.24609V19.0687H54.4668V16.5312Z" fill="white"/>
<path d="M54.4664 13.9922H16.8389V16.5288H54.4664V13.9922Z" fill="#D11242"/>
<path d="M54.4664 11.4609H16.8389V13.9975H54.4664V11.4609Z" fill="white"/>
<path d="M54.4664 8.92188H16.8389V11.4601H54.4664V8.92188Z" fill="#D11242"/>
<path d="M54.4664 6.38281H16.8389V8.91942H54.4664V6.38281Z" fill="white"/>
<path d="M54.4664 3.85156H16.8389V6.38897H54.4664V3.85156Z" fill="#D11242"/>
<path d="M54.4664 1.3125H16.8389V3.85071H54.4664V1.3125Z" fill="white"/>
<path d="M54.4664 -1.22656H16.8389V1.31005H54.4664V-1.22656Z" fill="#D11242"/>
<path d="M16.8392 -1.22656H-8.24609V16.5321H16.8392V-1.22656Z" fill="#002D62"/>
<path d="M-0.400727 3.02938L-0.203941 2.42143L-0.720703 2.04545H-0.080751L0.116835 1.4375L0.31442 2.04545H0.954372L0.43681 2.42143L0.634395 3.02938L0.117634 2.65341L-0.400727 3.02938Z" fill="white"/>
<path d="M1.68912 1.25674L1.8867 0.647989L1.36914 0.272817H2.00909L2.20668 -0.335938L2.40426 0.272817H3.04421L2.52745 0.647989L2.72504 1.25674L2.20748 0.880771L1.68912 1.25674Z" fill="white"/>
<path d="M3.77896 3.02938L3.97575 2.42143L3.45898 2.04545H4.09894L4.29732 1.4375L4.49411 2.04545H5.13406L4.6173 2.42143L4.81488 3.02938L4.29812 2.65341L3.77896 3.02938Z" fill="white"/>
<path d="M5.86978 1.25674L6.06737 0.647989L5.5498 0.272817H6.18976L6.38654 -0.335938L6.58493 0.272817H7.22488L6.70732 0.647989L6.9049 1.25674L6.38734 0.880771L5.86978 1.25674Z" fill="white"/>
<path d="M7.95963 3.02938L8.15721 2.42143L7.63965 2.04545H8.2796L8.47639 1.4375L8.67477 2.04545H9.31472L8.79716 2.42143L8.99475 3.02938L8.47239 2.65341L7.95963 3.02938Z" fill="white"/>
<path d="M10.0496 1.25674L10.2472 0.647989L9.73047 0.272817H10.3704L10.568 -0.335938L10.7656 0.272817H11.4055L10.8888 0.647989L11.0856 1.25674L10.568 0.880771L10.0496 1.25674Z" fill="white"/>
<path d="M12.1395 3.02938L12.3371 2.42143L11.8203 2.04545H12.4603L12.6579 1.4375L12.8562 2.04545H13.4962L12.9778 2.42143L13.1754 3.02938L12.6579 2.65341L12.1395 3.02938Z" fill="white"/>
<path d="M14.2321 1.25053L14.4297 0.641776L13.9121 0.265004H14.5521L14.7496 -0.34375L14.9472 0.265004H15.5872L15.0688 0.640176L15.2664 1.24893L14.7488 0.872959L14.2321 1.25053Z" fill="white"/>
<path d="M-0.400727 6.58327L-0.203941 5.97611L-0.720703 5.59934H-0.080751L0.116835 4.99219L0.31442 5.59934H0.954372L0.43681 5.97611L0.634395 6.58327L0.117634 6.2073L-0.400727 6.58327Z" fill="white"/>
<path d="M1.68912 4.80983L1.8867 4.20268L1.36914 3.8259H2.00909L2.20668 3.21875L2.40426 3.8259H3.04421L2.52745 4.20268L2.72504 4.80983L2.20748 4.43386L1.68912 4.80983Z" fill="white"/>
<path d="M3.77896 6.58327L3.97575 5.97611L3.45898 5.59934H4.09894L4.29732 4.99219L4.49411 5.59934H5.13406L4.6173 5.97611L4.81488 6.58327L4.29652 6.2113L3.77896 6.58327Z" fill="white"/>
<path d="M5.86978 4.80983L6.06737 4.20268L5.5498 3.8259H6.18976L6.38654 3.21875L6.58493 3.8259H7.22488L6.70732 4.20268L6.9049 4.80983L6.38734 4.43386L5.86978 4.80983Z" fill="white"/>
<path d="M7.95963 6.58327L8.15721 5.97611L7.63965 5.59934H8.2796L8.47639 4.99219L8.67477 5.59934H9.31472L8.79716 5.97611L8.99475 6.58327L8.47239 6.2113L7.95963 6.58327Z" fill="white"/>
<path d="M10.0496 4.80983L10.2472 4.20268L9.73047 3.8259H10.3704L10.568 3.21875L10.7656 3.8259H11.4055L10.8888 4.20268L11.0856 4.80983L10.568 4.43386L10.0496 4.80983Z" fill="white"/>
<path d="M12.1395 6.58327L12.3371 5.97611L11.8203 5.59934H12.4603L12.6579 4.99219L12.8562 5.59934H13.4962L12.9778 5.97611L13.1754 6.58327L12.6579 6.2073L12.1395 6.58327Z" fill="white"/>
<path d="M14.2321 4.80983L14.4297 4.20268L13.9121 3.8259H14.5521L14.7496 3.21875L14.9472 3.8259H15.5872L15.0688 4.20268L15.2664 4.80983L14.7488 4.43386L14.2321 4.80983Z" fill="white"/>
<path d="M-0.400727 10.138L-0.203941 9.5308L-0.720703 9.15403H-0.080751L0.116835 8.54688L0.31442 9.15403H0.954372L0.43681 9.5308L0.634395 10.138L0.117634 9.76278L-0.400727 10.138Z" fill="white"/>
<path d="M1.68912 8.36372L1.8867 7.75656L1.36914 7.37979H2.00909L2.20668 6.77344L2.40426 7.38059H3.04421L2.52745 7.75736L2.72504 8.36452L2.20748 7.98935L1.68912 8.36372Z" fill="white"/>
<path d="M3.77896 10.138L3.97575 9.5308L3.45898 9.15403H4.09894L4.29732 8.54688L4.49411 9.15403H5.13406L4.6173 9.5308L4.81488 10.138L4.29812 9.76278L3.77896 10.138Z" fill="white"/>
<path d="M5.86978 8.36372L6.06737 7.75656L5.5498 7.37979H6.18976L6.38654 6.77344L6.58493 7.38059H7.22488L6.70732 7.75736L6.9049 8.36452L6.38734 7.98935L5.86978 8.36372Z" fill="white"/>
<path d="M7.95963 10.138L8.15721 9.5308L7.63965 9.15403H8.2796L8.47639 8.54688L8.67477 9.15403H9.31472L8.79716 9.5308L8.99475 10.138L8.47719 9.76278L7.95963 10.138Z" fill="white"/>
<path d="M10.0496 8.36372L10.2472 7.75656L9.73047 7.37979H10.3704L10.5672 6.77344L10.7648 7.38059H11.4047L10.888 7.75736L11.0848 8.36452L10.5672 7.98935L10.0496 8.36372Z" fill="white"/>
<path d="M12.1395 10.138L12.3371 9.5308L11.8203 9.15403H12.4603L12.6579 8.54688L12.8562 9.15403H13.4962L12.9778 9.5308L13.1754 10.138L12.6579 9.76278L12.1395 10.138Z" fill="white"/>
<path d="M14.2321 8.36372L14.4297 7.75656L13.9121 7.37979H14.5521L14.7472 6.77344L14.9448 7.38059H15.5848L15.0664 7.75736L15.264 8.36452L14.7464 7.98935L14.2321 8.36372Z" fill="white"/>
<path d="M-0.400727 13.6934L-0.203941 13.0855L-0.720703 12.7095H-0.080751L0.116835 12.1016L0.31442 12.7095H0.954372L0.43681 13.0855L0.634395 13.6934L0.117634 13.3175L-0.400727 13.6934Z" fill="white"/>
<path d="M1.68912 11.9208L1.8867 11.3129L1.36914 10.9369H2.00909L2.20668 10.3281L2.40426 10.9369H3.04421L2.52745 11.3129L2.72504 11.9208L2.20748 11.5448L1.68912 11.9208Z" fill="white"/>
<path d="M3.77896 13.6934L3.97575 13.0855L3.45898 12.7095H4.09894L4.29732 12.1016L4.49411 12.7095H5.13406L4.6173 13.0855L4.81488 13.6934L4.29812 13.3175L3.77896 13.6934Z" fill="white"/>
<path d="M5.86978 11.9208L6.06737 11.3129L5.5498 10.9369H6.18976L6.38654 10.3281L6.58493 10.9369H7.22488L6.70732 11.3129L6.9049 11.9208L6.38734 11.5448L5.86978 11.9208Z" fill="white"/>
<path d="M7.95963 13.6934L8.15721 13.0855L7.63965 12.7095H8.2796L8.47639 12.1016L8.67477 12.7095H9.31472L8.79716 13.0855L8.99475 13.6934L8.47719 13.3175L7.95963 13.6934Z" fill="white"/>
<path d="M10.0496 11.9208L10.2472 11.3129L9.73047 10.9369H10.3704L10.568 10.3281L10.7656 10.9369H11.4055L10.8888 11.3129L11.0856 11.9208L10.568 11.5448L10.0496 11.9208Z" fill="white"/>
<path d="M12.1395 13.6934L12.3371 13.0855L11.8203 12.7095H12.4603L12.6579 12.1016L12.8562 12.7095H13.4962L12.9778 13.0855L13.1754 13.6934L12.6579 13.3175L12.1395 13.6934Z" fill="white"/>
<path d="M14.2321 11.9162L14.4297 11.3082L13.9121 10.9291H14.5521L14.7496 10.3203L14.9472 10.9291H15.5872L15.0688 11.305L15.2664 11.913L14.7488 11.537L14.2321 11.9162Z" fill="white"/>
<path d="M1.68912 15.4739L1.8867 14.8667L1.36914 14.4908H2.00909L2.20668 13.8828L2.40426 14.4908H3.04421L2.52745 14.8667L2.72504 15.4739L2.20748 15.0979L1.68912 15.4739Z" fill="white"/>
<path d="M5.86978 15.4739L6.06737 14.8667L5.5498 14.4908H6.18976L6.38654 13.8828L6.58493 14.4908H7.22488L6.70732 14.8667L6.9049 15.4739L6.38734 15.0979L5.86978 15.4739Z" fill="white"/>
<path d="M10.0496 15.4739L10.2472 14.8667L9.73047 14.4908H10.3704L10.568 13.8828L10.7656 14.4908H11.4055L10.8888 14.8667L11.0856 15.4739L10.568 15.0979L10.0496 15.4739Z" fill="white"/>
<path d="M14.2321 15.4739L14.4297 14.8667L13.9121 14.4908H14.5521L14.7496 13.8828L14.9472 14.4908H15.5872L15.0688 14.8667L15.2664 15.4739L14.7488 15.0979L14.2321 15.4739Z" fill="white"/>
</g>
</g>
<defs>
<clipPath id="clip0_583_7022">
<rect width="31.996" height="32" fill="white"/>
</clipPath>
</defs>
</svg>
