<svg width="32" height="32" viewBox="0 0 32 32" fill="none" xmlns="http://www.w3.org/2000/svg">
<g clip-path="url(#clip0_8918_95380)">
<mask id="mask0_8918_95380" style="mask-type:luminance" maskUnits="userSpaceOnUse" x="0" y="0" width="33" height="32">
<path d="M16.0012 0H15.6468C11.8067 0.080002 9.83385 0.38161 8.0074 1.01043C6.23936 1.6173 4.64775 2.64979 3.37288 4.0169C2.31458 5.24585 1.50419 6.66805 0.986425 8.205C0.377686 10.1313 0.0542481 12.1363 0.0264007 14.1564C-5.96061e-09 14.9508 0 15.0604 0 16.0004C0 16.9404 -5.96061e-09 17.05 0.0264007 17.8444C0.0541244 19.8641 0.377291 21.8689 0.985625 23.795C1.50357 25.3316 2.31395 26.7535 3.37208 27.9823C4.6469 29.3496 6.2385 30.3824 8.0066 30.9896C9.83305 31.6184 11.8051 31.92 15.646 32H16.3556C20.1957 31.92 22.1694 31.6184 23.9966 30.9896C25.7644 30.3828 27.3556 29.3499 28.6295 27.9823C29.6878 26.7537 30.4982 25.3317 31.016 23.795C31.6246 21.8687 31.948 19.8636 31.976 17.8436C32.0016 17.0492 32.0016 16.9388 32.0016 15.9996C32.0016 15.0604 32.0016 14.95 31.976 14.1556C31.9481 12.1356 31.6246 10.1305 31.016 8.2042C30.4985 6.66711 29.6881 5.24485 28.6295 4.0161C27.3554 2.64899 25.7643 1.61671 23.9966 1.01043C22.1694 0.38161 20.1973 0.079202 16.3556 0H16.0012Z" fill="white"/>
</mask>
<g mask="url(#mask0_8918_95380)">
<path d="M40.785 -0.205566H-7.87305V32.2064H40.785V-0.205566Z" fill="#FF0710"/>
<path d="M21.9683 20.1855C21.9683 20.1855 20.6571 16.2446 16.8482 16.6374C20.0826 17.5446 19.8594 20.2719 19.8594 20.2719H19.7098C19.6938 19.426 19.3787 18.6131 18.8205 17.9774C18.2622 17.3417 17.4969 16.9242 16.6602 16.799C17.1008 17.0289 17.4517 17.3999 17.6569 17.8526C17.8621 18.3053 17.9097 18.8137 17.7922 19.2967C17.7922 19.2967 16.6234 21.8439 18.0922 22.8335C18.5288 23.1537 18.9897 23.4393 19.4706 23.688C19.6309 23.7987 19.7621 23.9463 19.8533 24.1184C19.9445 24.2905 19.993 24.482 19.9946 24.6768C20.0303 25.0351 19.9733 25.3965 19.829 25.7264C20.7492 25.1704 21.4585 24.3245 21.8457 23.3216C22.2329 22.3187 22.2761 21.2156 21.9683 20.1855ZM20.017 21.5695L19.7874 22.0631L19.6818 21.5295L19.1418 21.4639L19.6218 21.1983L19.5162 20.6639L19.9162 21.0351L20.3914 20.7711L20.1626 21.2647L20.5627 21.6351L20.017 21.5695Z" fill="white"/>
<path d="M14.2313 23.5301C14.2313 23.5301 17.721 21.2804 16.3977 17.6899C16.3177 21.05 13.6265 21.51 13.6265 21.51L13.5889 21.3644C14.404 21.1387 15.1128 20.6316 15.5898 19.9331C16.0667 19.2345 16.281 18.3897 16.1945 17.5483C16.0811 18.0321 15.809 18.464 15.4216 18.7752C15.0342 19.0863 14.5537 19.2588 14.0569 19.2652C14.0569 19.2652 11.3008 18.7644 10.7064 20.4316C10.5049 20.9343 10.3425 21.4519 10.2208 21.9797C10.1534 22.1624 10.043 22.3262 9.89908 22.4573C9.75512 22.5885 9.58174 22.6831 9.39356 22.7333C9.05552 22.8571 8.69129 22.8918 8.33594 22.8341C9.1022 23.5875 10.0971 24.0649 11.1643 24.1911C12.2315 24.3174 13.3103 24.0854 14.2313 23.5317M12.4072 21.9829L11.872 21.8829L12.3632 21.6492L12.2928 21.1092L12.6672 21.5044L13.1577 21.2716L12.8985 21.7516L13.2721 22.1477L12.7376 22.0477L12.4776 22.5277L12.4072 21.9829Z" fill="white"/>
<path d="M9.25709 17.3868C9.25709 17.3868 12.622 19.8205 15.4844 17.2812C12.3276 18.4348 10.9195 16.0876 10.9195 16.0876L11.0411 16.0004C11.5473 16.6778 12.2772 17.154 13.1012 17.3444C13.9252 17.5348 14.79 17.4271 15.542 17.0404C15.0503 17.1107 14.5492 17.0141 14.1188 16.7661C13.6884 16.5181 13.3535 16.133 13.1676 15.6724C13.1676 15.6724 12.6308 12.9211 10.8619 12.9739C10.3204 12.969 9.77933 13.0059 9.24349 13.0843C9.049 13.088 8.85646 13.0449 8.68214 12.9586C8.50781 12.8722 8.35681 12.7452 8.24187 12.5883C8.00311 12.3181 7.83782 11.9911 7.76186 11.6387C7.33931 12.627 7.25679 13.7277 7.52726 14.768C7.79773 15.8083 8.40587 16.7294 9.25629 17.3868M10.0347 15.1228L9.93311 14.5875L10.3331 14.9612L10.8131 14.6987L10.5803 15.1908L10.9803 15.5644L10.4411 15.4964L10.2091 15.9876L10.1075 15.4532L9.5667 15.386L10.0347 15.1228Z" fill="white"/>
<path d="M13.1629 10.185C13.1629 10.185 11.8909 14.1387 15.191 16.0763C13.1205 13.4291 14.9118 11.3642 14.9118 11.3642L15.0318 11.453C14.5447 12.1447 14.3184 12.9865 14.3929 13.8292C14.4675 14.6719 14.8381 15.4609 15.439 16.0563C15.2192 15.6108 15.155 15.1045 15.2565 14.6182C15.358 14.1318 15.6194 13.6935 15.999 13.3731C15.999 13.3731 18.4471 12.013 17.8486 10.3442C17.6857 9.82765 17.4829 9.32453 17.2422 8.83934C17.1786 8.65528 17.1599 8.45866 17.1877 8.26591C17.2156 8.07315 17.2891 7.88985 17.4022 7.73131C17.5849 7.42131 17.8445 7.16368 18.1559 6.9833C17.0857 6.88721 16.014 7.14938 15.1091 7.72862C14.2042 8.30786 13.5173 9.17134 13.1565 10.1834M15.5486 10.2226L16.0286 9.96097L15.7966 10.453L16.1966 10.8258L15.6566 10.7586L15.4254 11.2498L15.3278 10.717L14.787 10.649L15.267 10.3866L15.1654 9.85137L15.5486 10.2226Z" fill="white"/>
<path d="M21.219 11.882C21.219 11.882 17.0685 11.802 16.1621 15.5189C18.1006 12.7732 20.5926 13.8972 20.5926 13.8972L20.5422 14.038C19.7401 13.7703 18.869 13.7954 18.0836 14.1088C17.2982 14.4222 16.6492 15.0037 16.2517 15.7501C16.6156 15.412 17.0822 15.2055 17.5771 15.1636C18.072 15.1217 18.5667 15.2468 18.9822 15.5189C18.9822 15.5189 20.9902 17.4741 22.4135 16.4221C22.8612 16.1172 23.2849 15.7783 23.6807 15.4085C23.8387 15.2949 24.0218 15.2211 24.2144 15.1933C24.4069 15.1654 24.6034 15.1844 24.7871 15.2485C25.1368 15.3344 25.4583 15.5091 25.7208 15.7557C25.5051 14.7029 24.946 13.7516 24.1313 13.0509C23.3165 12.3503 22.2922 11.94 21.219 11.8844M21.8679 14.1876L22.2567 14.57L21.7182 14.49L21.4782 14.978L21.387 14.442L20.8502 14.362L21.3302 14.1108L21.2406 13.5732L21.6286 13.9564L22.1087 13.7036L21.8679 14.1876Z" fill="white"/>
</g>
</g>
<defs>
<clipPath id="clip0_8918_95380">
<rect width="32.0016" height="32" fill="white"/>
</clipPath>
</defs>
</svg>
