<svg width="32" height="32" viewBox="0 0 32 32" fill="none" xmlns="http://www.w3.org/2000/svg">
<g clip-path="url(#clip0_583_7438)">
<mask id="mask0_583_7438" style="mask-type:luminance" maskUnits="userSpaceOnUse" x="0" y="0" width="32" height="32">
<path d="M16 0H15.6456C11.8058 0.079996 9.83231 0.381581 8.0052 1.01035C6.23724 1.61661 4.64589 2.64912 3.37183 4.0166C2.314 5.24543 1.5037 6.66718 0.985551 8.20359C0.377375 10.1304 0.0539761 12.1358 0.0255992 14.1561C4.32112e-07 14.9505 0 15.0592 0 15.996C0 16.9328 4.32112e-07 17.0447 0.0255992 17.8399C0.0539167 19.86 0.377318 21.8651 0.985551 23.7916C1.50278 25.3284 2.31317 26.7504 3.37183 27.9786C4.64522 29.3482 6.23704 30.3822 8.006 30.9889C9.83311 31.6184 11.805 31.9192 15.6464 31.9992H16.3552C20.195 31.9192 22.1677 31.6184 23.9948 30.9889C25.7629 30.3825 27.3543 29.3497 28.6282 27.9818C29.6866 26.7534 30.4969 25.3315 31.0145 23.7948C31.6231 21.8684 31.9465 19.8632 31.9744 17.8431C32 17.0479 32 16.94 32 15.9992C32 15.0584 32 14.9505 31.9744 14.1593C31.9464 12.1389 31.623 10.1335 31.0145 8.20679C30.496 6.67052 29.6857 5.24883 28.6282 4.0198C27.3538 2.65265 25.7626 1.62019 23.9948 1.01355C22.1653 0.381581 20.195 0.079996 16.3544 0H16Z" fill="white"/>
</mask>
<g mask="url(#mask0_583_7438)">
<path d="M42.0003 16.0078H-7.0332V32.3358H42.0003V16.0078Z" fill="white"/>
<path d="M42.0003 -0.328125H-7.0332V16.0047H42.0003V-0.328125Z" fill="#FF142B"/>
<path d="M8.16895 1.48246L8.16932 1.48233C9.92377 0.87849 11.8363 0.579724 15.6513 0.5H16.3495C20.1651 0.579719 22.0761 0.878448 23.8331 1.48233C25.5195 2.06279 27.0375 3.04873 28.2536 4.35342C29.2657 5.53005 30.041 6.89116 30.5368 8.36196C31.1301 10.2404 31.4452 12.1956 31.4721 14.1653L31.472 14.1653L31.4723 14.1751C31.4984 14.9612 31.4984 15.0687 31.4984 15.9993V16.0024V16.0057C31.4984 16.9361 31.4984 17.0396 31.4723 17.8257L31.4722 17.8257L31.4721 17.8355C31.4453 19.8055 31.1302 21.761 30.5368 23.6397C30.0412 25.1107 29.2659 26.4721 28.2538 27.6488C27.0367 28.9524 25.5179 29.937 23.8311 30.5159L23.8307 30.5161C22.0762 31.1199 20.1645 31.4187 16.3495 31.4984H15.6512C11.8348 31.4195 9.92384 31.1199 8.16932 30.5161L8.16888 30.5159C6.48219 29.9372 4.96369 28.9525 3.74703 27.6488C2.73363 26.4712 1.9573 25.1088 1.46078 23.6365C0.867802 21.7577 0.552723 19.8022 0.525548 17.8322H0.525634L0.525334 17.8229C0.5 17.0399 0.5 16.9354 0.5 16.0023V15.9992V15.9959C0.5 15.0633 0.5 14.9585 0.527685 14.1729L0.5278 14.1729L0.527948 14.1622C0.555187 12.1925 0.870258 10.2373 1.46315 8.35879C1.95957 6.88811 2.73507 5.52706 3.7471 4.35028C4.96372 3.04636 6.48221 2.0615 8.16895 1.48246Z" stroke="#F6F6F6"/>
</g>
</g>
<defs>
<clipPath id="clip0_583_7438">
<rect width="32" height="31.9992" fill="white"/>
</clipPath>
</defs>
</svg>
