<svg width="32" height="32" viewBox="0 0 32 32" fill="none" xmlns="http://www.w3.org/2000/svg">
<g clip-path="url(#clip0_583_8322)">
<mask id="mask0_583_8322" style="mask-type:luminance" maskUnits="userSpaceOnUse" x="0" y="0" width="32" height="33">
<path d="M15.9996 0.0078125H15.6452C11.8053 0.0878105 9.83255 0.389403 8.0054 1.01819C6.23777 1.62523 4.64656 2.65766 3.37192 4.02451C2.31335 5.25334 1.5032 6.67585 0.986375 8.21321C0.376946 10.139 0.0535061 12.1438 0.0263993 14.1635C-5.96032e-09 14.9586 0 15.0682 0 16.0082C0 16.9482 -5.96032e-09 17.0562 0.0263993 17.8482C0.0535344 19.8684 0.376972 21.8737 0.986375 23.8C1.50365 25.3372 2.31375 26.7596 3.37192 27.9887C4.64684 29.3551 6.23799 30.3872 8.0054 30.9942C9.83255 31.6238 11.8037 31.9254 15.6452 32.0046H16.3548C20.1947 31.9246 22.1682 31.6238 23.9946 30.9942C25.7622 30.3876 27.3535 29.3554 28.6281 27.9887C29.6863 26.7595 30.4966 25.3371 31.0144 23.8C31.6231 21.8735 31.9465 19.8683 31.9744 17.8482C32 17.0538 32 16.945 32 16.0082C32 15.0714 32 14.9586 31.9744 14.1635C31.9465 12.1438 31.623 10.1392 31.0144 8.21321C30.4967 6.67592 29.686 5.25349 28.6273 4.02451C27.3529 2.65733 25.7616 1.62485 23.9938 1.01819C22.1674 0.389403 20.1947 0.0870105 16.3548 0.0078125H15.9996Z" fill="white"/>
</mask>
<g mask="url(#mask0_583_8322)">
<path d="M40.1234 -0.0625H-8.125V7.9725H40.1234V-0.0625Z" fill="#EE161F"/>
<path d="M40.1234 24.0469H-8.125V32.0819H40.1234V24.0469Z" fill="#EE161F"/>
<path d="M40.1234 7.96875H-8.125V24.0395H40.1234V7.96875Z" fill="white"/>
<path d="M15.7796 7.96875C15.6196 8.75513 13.6589 9.8087 13.9909 10.0767C14.1509 9.9007 14.5829 10.1343 14.3309 10.3239C14.08 10.4969 13.817 10.6515 13.5437 10.7863C13.0581 11.0583 12.5221 11.3527 13.4285 11.4655C13.6237 11.6743 13.3485 12.0254 13.0885 11.9455C12.9338 11.9692 12.7886 12.0353 12.669 12.1364C12.5494 12.2374 12.4601 12.3696 12.4109 12.5182C12.2653 12.971 9.547 13.819 10.887 14.1326C11.4589 13.899 12.2821 13.7478 12.0525 14.6678C11.7173 15.5806 10.5886 15.4974 10.047 16.1789C9.82254 16.4189 9.57938 16.6407 9.3198 16.8421C9.3566 17.6973 10.3718 16.9149 10.7294 16.6917C11.5149 16.5133 11.4198 17.6461 10.7478 17.7237C10.0261 18.1058 9.37469 18.6079 8.82142 19.2085C8.70542 19.4485 8.38543 19.3757 8.21343 19.5413C8.10063 19.7501 8.38223 19.8613 8.55102 19.8397C9.51788 19.6328 10.4439 19.2676 11.2918 18.7589C13.3205 19.0917 9.79739 20.294 9.25981 20.39C8.99021 20.3148 8.78702 20.7948 9.08301 20.8804C9.40154 20.9436 9.72915 20.9461 10.0486 20.8876C11.0081 20.6404 11.9394 20.2946 12.8277 19.8557C15.0677 19.7029 13.4925 22.4956 12.3781 23.014C11.9433 23.1538 11.5293 23.3513 11.147 23.6012C10.827 23.7076 11.307 24.1427 11.379 23.7972C11.4845 23.6785 11.6154 23.5851 11.7618 23.5237C11.9083 23.4624 12.0667 23.4347 12.2253 23.4428C13.9917 23.3436 13.5053 22.1404 15.3669 22.4828C15.5836 22.3844 15.9228 22.442 15.9796 22.7084C16.0828 23.0196 16.4044 23.1612 16.6588 23.3276C16.7508 23.4572 17.0588 23.7908 17.1276 23.4964C16.9516 22.5668 18.6884 23.214 18.9052 23.6988C19.03 23.8708 19.3052 24.1667 19.5068 23.9388C19.7355 23.4212 17.6628 22.7068 17.6716 21.4908C17.6164 20.8588 17.4244 19.2253 18.4996 19.6125C20.7795 20.7276 20.8347 19.1173 23.6114 21.1172C25.2114 20.87 21.6435 19.1973 21.2819 18.8981C21.2206 18.8757 21.1667 18.8367 21.1263 18.7854C21.086 18.7341 21.0608 18.6725 21.0536 18.6077C21.0463 18.5428 21.0573 18.4772 21.0854 18.4183C21.1134 18.3593 21.1574 18.3094 21.2123 18.2741C21.8715 17.8117 22.4235 18.6925 23.0939 18.6421C23.3875 18.5501 23.2451 18.1261 22.9827 18.0941C22.2347 17.6941 21.8051 16.7685 20.9371 16.5925C20.7624 16.5619 20.5845 16.5528 20.4075 16.5653C20.2419 16.3853 20.4627 16.1101 20.6771 16.1325C21.0099 16.0845 22.8307 16.3221 22.4883 15.7566C21.8524 15.5018 21.1934 15.3094 20.5203 15.1822C20.2235 15.1646 20.2603 14.7742 20.5203 14.731C20.9547 14.7558 21.4003 14.9086 21.8515 14.939C22.4475 14.5718 20.5643 14.0166 20.3203 13.6318C19.8483 13.2766 19.4196 12.867 18.942 12.5198C18.4508 12.415 18.166 11.8351 18.862 11.8799C19.2953 12.0887 19.7669 12.2064 20.2475 12.2254C20.5019 12.0654 20.1387 11.9647 20.0075 11.9095C19.6768 11.715 19.3615 11.4954 19.0644 11.2527C18.8076 11.0327 19.2828 10.9327 19.4468 11.0207C19.7195 11.1351 19.7507 10.7367 19.5467 10.6367C17.942 9.30952 16.518 10.0903 15.7772 7.97035M13.9917 11.0183C14.2717 11.0271 14.2317 11.5319 13.9533 11.4983C13.6853 11.4807 13.7013 10.9647 13.9917 11.0183ZM16.6316 11.2903C16.9044 11.2415 16.962 11.7391 16.69 11.7623C16.406 11.8127 16.3012 11.2591 16.6316 11.2903ZM15.858 11.3551C16.4644 11.6983 15.526 12.1382 15.1757 11.9751C15.0077 11.7975 15.2501 11.5351 15.4373 11.4775C15.5812 11.4487 15.7132 11.3839 15.858 11.3551ZM17.6396 11.3551C17.6949 11.3858 17.7391 11.4333 17.7659 11.4906C17.7926 11.548 17.8005 11.6124 17.7884 11.6745C17.7764 11.7367 17.7449 11.7934 17.6987 11.8366C17.6524 11.8798 17.5936 11.9073 17.5308 11.9151C17.0972 11.9007 17.2252 11.2711 17.6396 11.3551ZM14.6333 11.8879C15.0125 12.2686 14.2149 12.8982 13.8717 12.6574C13.7749 12.271 14.3293 11.9966 14.6333 11.8879ZM16.8732 12.9278C16.9308 12.9665 16.9748 13.0224 16.999 13.0874C17.0231 13.1525 17.0263 13.2235 17.0079 13.2905C16.9895 13.3574 16.9505 13.4169 16.8965 13.4605C16.8425 13.5041 16.7761 13.5296 16.7068 13.5334C16.3524 13.3782 16.5916 12.9926 16.8764 12.927M15.9868 12.9774C16.2492 13.0998 16.0484 13.5374 15.7844 13.4742C15.3845 13.3142 15.6164 12.943 15.9868 12.9774ZM17.9068 13.2278C17.9784 13.2094 18.0535 13.2093 18.1251 13.2277C18.1967 13.246 18.2625 13.2822 18.3164 13.3328C18.3703 13.3834 18.4105 13.4468 18.4333 13.5171C18.4561 13.5875 18.4607 13.6624 18.4468 13.735C17.9988 14.4246 16.8212 13.3854 17.9068 13.2278ZM13.6597 13.303C14.4357 13.223 13.7629 14.315 13.3181 13.7918C13.1909 13.579 13.3949 13.2206 13.6581 13.3038L13.6597 13.303ZM12.5629 13.487C12.6901 13.5195 12.8069 13.5839 12.9024 13.674C12.9978 13.7642 13.0688 13.8771 13.1085 14.0022C12.9469 14.983 11.5757 13.5086 12.5613 13.4878L12.5629 13.487ZM19.1228 14.5142C19.1914 14.5043 19.2614 14.5169 19.3222 14.5502C19.383 14.5836 19.4314 14.6357 19.46 14.6989C19.4886 14.7621 19.4959 14.8328 19.4808 14.9005C19.4657 14.9682 19.4291 15.0291 19.3764 15.0742C18.9372 15.4062 18.5052 14.5734 19.1236 14.515L19.1228 14.5142ZM15.3973 15.047C15.6428 15.0782 15.5636 15.503 15.3365 15.4886C15.0965 15.4438 15.1485 15.023 15.3973 15.047ZM14.1525 15.2726C14.3533 15.131 14.6109 15.4766 14.4445 15.6374C14.2453 15.7782 13.9861 15.4382 14.1525 15.2726ZM16.1316 15.3142C16.79 15.6782 16.4588 16.6053 15.9412 15.9078C15.8997 15.802 15.896 15.6852 15.9307 15.577C15.9653 15.4689 16.0363 15.376 16.1316 15.3142ZM16.8228 15.7246C17.122 15.6494 17.014 16.2741 16.7644 16.0573C16.7293 16.0051 16.7158 15.9412 16.7267 15.8792C16.7376 15.8172 16.772 15.7618 16.8228 15.7246ZM12.4845 16.1589C12.6829 16.1013 12.9709 16.1589 13.0261 16.3893C12.9461 16.8501 12.1909 16.9157 11.8005 16.9725C10.9694 16.2413 11.7965 16.1469 12.4845 16.1589ZM19.214 17.1373C20.2539 17.2333 19.014 18.2813 18.4364 17.7069C18.3972 17.3005 18.8964 17.1685 19.214 17.1373ZM20.6331 17.4445C21.5795 17.6045 20.5651 18.6989 20.0203 18.1453C19.8755 17.7517 20.3403 17.5589 20.6331 17.4445ZM13.4965 17.8797C14.0277 17.7661 14.2581 19.0045 13.6301 18.7245C13.5213 18.5509 13.2693 17.9861 13.4965 17.8797ZM15.5364 18.0325C15.8108 17.9141 16.166 18.2421 16.0164 18.5205C15.6876 18.9261 15.3693 18.3773 15.5372 18.0333L15.5364 18.0325ZM14.5437 18.2101C14.6101 18.2015 14.6776 18.2112 14.7389 18.2381C14.8003 18.265 14.8531 18.3082 14.8917 18.3629C14.9303 18.4177 14.9532 18.4819 14.958 18.5487C14.9628 18.6155 14.9493 18.6824 14.9189 18.7421C14.6445 18.7661 14.5013 18.4405 14.5437 18.2101Z" fill="#007A50"/>
</g>
</g>
<defs>
<clipPath id="clip0_583_8322">
<rect width="32" height="31.9968" fill="white" transform="translate(0 0.0078125)"/>
</clipPath>
</defs>
</svg>
