<svg width="32" height="32" viewBox="0 0 32 32" fill="none" xmlns="http://www.w3.org/2000/svg">
<g clip-path="url(#clip0_583_7230)">
<mask id="mask0_583_7230" style="mask-type:luminance" maskUnits="userSpaceOnUse" x="-1" y="0" width="33" height="32">
<path d="M15.9972 0.000800313H15.6428C11.8028 0.0808183 9.83004 0.381686 8.00284 1.01063C6.23493 1.61732 4.64356 2.65008 3.36925 4.0177C2.31082 5.24666 1.50067 6.66923 0.983646 8.20665C0.374149 10.1334 0.0507015 12.1392 0.0236465 14.16C-0.00195346 14.9538 -0.00195312 15.0642 -0.00195312 16.0004C-0.00195312 16.9366 -0.00195346 17.051 0.0236465 17.8408C0.0508284 19.8615 0.374273 21.8673 0.983646 23.7942C1.50067 25.3316 2.31082 26.7541 3.36925 27.9831C4.64396 29.3504 6.23518 30.3834 8.00284 30.991C9.83004 31.6191 11.8012 31.9216 15.6428 32H16.3516C20.1916 31.92 22.166 31.6191 23.9924 30.991C25.7602 30.3836 27.3515 29.3506 28.626 27.9831C29.6828 26.7561 30.4921 25.336 31.0092 23.8014C31.6183 21.8745 31.9417 19.8687 31.9692 17.848C31.9956 17.0542 31.9956 16.9438 31.9956 16.0076C31.9956 15.0714 31.9956 14.9578 31.9692 14.1672C31.9418 12.1465 31.6184 10.1407 31.0092 8.21385C30.4922 6.67643 29.6821 5.25386 28.6236 4.02491C27.351 2.65454 25.7604 1.61899 23.9924 1.00983C22.166 0.380886 20.1932 0.0784176 16.3516 0L15.9972 0.000800313Z" fill="white"/>
</mask>
<g mask="url(#mask0_583_7230)">
<path d="M44.3385 -2.59375H-9.87109V33.5264H44.3385V-2.59375Z" fill="#FF1919"/>
<path d="M44.3385 13.2026H13.7401V-2.59375H8.09211V13.2026H-9.87109V17.6724H8.09211V33.5256H13.7401V17.6724H44.3385V13.2026Z" fill="white"/>
</g>
</g>
<defs>
<clipPath id="clip0_583_7230">
<rect width="31.9976" height="32" fill="white" transform="translate(-0.00195312)"/>
</clipPath>
</defs>
</svg>
