<svg width="32" height="32" viewBox="0 0 32 32" fill="none" xmlns="http://www.w3.org/2000/svg">
<g clip-path="url(#clip0_583_8610)">
<mask id="mask0_583_8610" style="mask-type:luminance" maskUnits="userSpaceOnUse" x="0" y="0" width="32" height="33">
<path d="M15.9992 0.0078125H15.6456C11.8056 0.0878125 9.832 0.389412 8.0056 1.01901C6.23732 1.62489 4.64559 2.65719 3.3712 4.02461C2.31294 5.25341 1.50281 6.67562 0.9856 8.21261C0.376125 10.139 0.0526781 12.1443 0.0256001 14.1646C5.06639e-08 14.959 0 15.0694 0 16.0086C0 16.9478 5.06639e-08 17.0574 0.0256001 17.8486C0.0525706 19.8697 0.376017 21.8759 0.9856 23.803C1.50235 25.3402 2.31253 26.7625 3.3712 27.991C4.64555 29.3587 6.23727 30.3912 8.0056 30.9974C9.832 31.627 11.804 31.9286 15.6456 32.0086H16.3536C20.1936 31.9286 22.168 31.627 23.9944 30.9974C25.7625 30.3909 27.3542 29.3583 28.6288 27.991C29.6872 26.7623 30.4973 25.3401 31.0144 23.803C31.6231 21.8762 31.9465 19.8707 31.9744 17.8502C32 17.0566 32 16.947 32 16.0102C32 15.0734 32 14.9606 31.9744 14.1662C31.9465 12.146 31.6231 10.1407 31.0144 8.21421C30.4969 6.67736 29.6868 5.25521 28.6288 4.02621C27.3543 2.65854 25.7627 1.62574 23.9944 1.01901C22.168 0.389412 20.196 0.0870125 16.3536 0.0078125H15.9992Z" fill="white"/>
</mask>
<g mask="url(#mask0_583_8610)">
<path d="M51.6409 20.6875H-3.2207V32.4339H51.6409V20.6875Z" fill="#D81E05"/>
<path d="M51.6409 -0.195312H-3.2207V11.5511H51.6409V-0.195312Z" fill="white"/>
<path d="M51.6401 10.6797H-3.2207V21.5565H51.6401V10.6797Z" fill="#0051BA"/>
<path d="M5.52596 7.47721C4.86916 7.52681 5.05236 8.32441 4.97316 8.77641C4.73876 11.8964 4.41796 15.1156 5.37316 18.1548C6.18748 20.5957 7.87042 22.6522 10.102 23.9332C10.6161 24.277 11.17 24.5572 11.7516 24.7676C12.3615 24.5441 12.9427 24.2487 13.4828 23.8876C15.6757 22.6039 17.3275 20.5671 18.1308 18.1564C19.0988 15.0668 18.754 11.7948 18.5204 8.62441C18.4852 8.18681 18.5516 7.43001 17.906 7.47881L5.52596 7.47721Z" fill="white"/>
<path d="M17.9786 7.96094H5.52577C5.02657 14.5649 4.20097 20.6185 11.7514 24.2729C19.3018 20.6185 18.4762 14.5649 17.9786 7.96094Z" fill="#D81E05"/>
<path d="M15.7032 13.7307C14.9199 13.9065 14.1216 14.0065 13.3192 14.0291H12.4392V12.4347H12.6304C13.4324 12.4572 14.2303 12.5579 15.0128 12.7355C14.7823 12.0968 14.7823 11.3975 15.0128 10.7587C14.2302 10.9357 13.4324 11.0362 12.6304 11.0587H12.4392V10.9547C12.4623 10.1572 12.563 9.3639 12.74 8.58594C12.098 8.81554 11.3963 8.81554 10.7544 8.58594C10.9313 9.3639 11.0321 10.1572 11.0552 10.9547V11.0587H10.8656C10.0636 11.0364 9.26568 10.9359 8.48318 10.7587C8.71361 11.3975 8.71361 12.0968 8.48318 12.7355C9.26558 12.5577 10.0635 12.4569 10.8656 12.4347H11.0552V14.0291H10.1832C9.3813 14.0065 8.58348 13.9065 7.80078 13.7307C8.03036 14.3691 8.03036 15.0676 7.80078 15.7059C8.5832 15.5282 9.38114 15.4274 10.1832 15.4051H11.0592V21.0603H12.4432V15.4035H13.3232C14.1258 15.4258 14.9242 15.5266 15.7072 15.7043C15.4752 15.0664 15.4752 14.3671 15.7072 13.7291" fill="white"/>
<path d="M16.5089 20.2226C16.5074 19.8987 16.4089 19.5826 16.2261 19.3151C16.0433 19.0477 15.7845 18.8411 15.4832 18.7221C15.1819 18.603 14.8519 18.5769 14.5356 18.6472C14.2194 18.7174 13.9314 18.8808 13.7089 19.1162C13.581 18.6961 13.3215 18.3281 12.9686 18.0667C12.6157 17.8052 12.1881 17.6641 11.7489 17.6641C11.3097 17.6641 10.8821 17.8052 10.5292 18.0667C10.1763 18.3281 9.9168 18.6961 9.78889 19.1162C9.56655 18.8817 9.2791 18.7192 8.96356 18.6495C8.64802 18.5798 8.31883 18.6061 8.0184 18.7251C7.71797 18.8441 7.46005 19.0504 7.27785 19.3173C7.09565 19.5842 6.99752 19.8995 6.99609 20.2226C6.99809 20.2891 7.0045 20.3554 7.01529 20.421C7.09529 20.5402 7.19049 20.6546 7.27849 20.7714H7.26969C7.31609 20.833 7.36889 20.8938 7.41689 20.9554C7.46489 21.017 7.52809 21.097 7.58569 21.1666C8.73362 22.49 10.1522 23.5515 11.7457 24.2794C13.3349 23.5579 14.751 22.5041 15.8985 21.189C15.9785 21.0962 16.0513 21.0002 16.1249 20.9058C16.1601 20.8602 16.1985 20.8162 16.2329 20.7714H16.2265C16.3153 20.653 16.4097 20.537 16.4913 20.417C16.5027 20.3528 16.5097 20.2878 16.5121 20.2226" fill="#0051BA"/>
<path d="M8.16934 1.49032L8.16972 1.49019C9.92426 0.886322 11.8369 0.587541 15.6521 0.507812H16.3503C20.1661 0.587535 22.0772 0.88628 23.8343 1.49019C25.5208 2.07068 27.0389 3.05667 28.2551 4.36143C29.2672 5.53811 30.0425 6.8993 30.5384 8.37016C31.1317 10.2487 31.4468 12.204 31.4736 14.1738L31.4736 14.1738L31.4739 14.1836C31.5 14.9697 31.5 15.0772 31.5 16.008V16.011V16.0143C31.5 16.9447 31.5 17.0483 31.4739 17.8344L31.4738 17.8344L31.4736 17.8442C31.4469 19.8143 31.1318 21.7699 30.5384 23.6487C30.0427 25.1198 29.2674 26.4812 28.2552 27.6581C27.038 28.9617 25.5192 29.9463 23.8323 30.5253L23.8319 30.5254C22.0773 31.1293 20.1655 31.4281 16.3503 31.5078H15.652C11.8354 31.4289 9.92433 31.1293 8.16972 30.5254L8.16928 30.5253C6.48251 29.9465 4.96392 28.9618 3.7472 27.658C2.73374 26.4803 1.95738 25.1178 1.46082 23.6455C0.86782 21.7666 0.552726 19.811 0.525549 17.8409H0.525635L0.525335 17.8316C0.5 17.0485 0.5 16.9441 0.5 16.0109V16.0078V16.0045C0.5 15.0718 0.5 14.967 0.527687 14.1814L0.527801 14.1814L0.527949 14.1707C0.55519 12.2009 0.870277 10.2456 1.4632 8.36701C1.95964 6.89625 2.73518 5.53513 3.74727 4.3583C4.96395 3.0543 6.48253 2.06939 8.16934 1.49032Z" stroke="#F6F6F6"/>
</g>
</g>
<defs>
<clipPath id="clip0_583_8610">
<rect width="32" height="32.0008" fill="white" transform="translate(0 0.0078125)"/>
</clipPath>
</defs>
</svg>
