<svg width="32" height="32" viewBox="0 0 32 32" fill="none" xmlns="http://www.w3.org/2000/svg">
<g clip-path="url(#clip0_8918_95389)">
<mask id="mask0_8918_95389" style="mask-type:luminance" maskUnits="userSpaceOnUse" x="0" y="0" width="32" height="32">
<path d="M15.9992 0H15.6456C11.8056 0.08001 9.832 0.381648 8.0048 1.01053C6.23671 1.61728 4.64511 2.6499 3.3704 4.0173C2.31271 5.24636 1.50264 6.66837 0.984799 8.20503C0.376146 10.1321 0.0527197 12.1378 0.0247993 14.1586C-6.52671e-07 14.9523 0 15.0627 0 15.9988C0 16.9349 -6.52671e-07 17.0493 0.0247993 17.843C0.0527264 19.8632 0.376154 21.8685 0.984799 23.795C1.50227 25.3318 2.31238 26.7539 3.3704 27.9827C4.64501 29.3506 6.23661 30.3837 8.0048 30.9911C9.832 31.6184 11.8032 31.9208 15.6456 32H16.3536C20.1936 31.92 22.1672 31.6184 23.9936 30.9911C25.7619 30.384 27.3535 29.3508 28.628 27.9827C29.6859 26.7552 30.4958 25.3341 31.0128 23.7982C31.6215 21.8728 31.9449 19.8686 31.9728 17.8494C31.9976 17.0557 31.9976 16.9453 31.9976 16.0052C31.9976 15.0651 31.9976 14.9555 31.9728 14.165C31.9452 12.1442 31.6218 10.1384 31.0128 8.21143C30.4956 6.67449 29.6854 5.25236 28.6272 4.0237C27.3526 2.65613 25.761 1.62347 23.9928 1.01693C22.1672 0.381648 20.1952 0.0792099 16.3536 0H15.9992Z" fill="white"/>
</mask>
<g mask="url(#mask0_8918_95389)">
<path fill-rule="evenodd" clip-rule="evenodd" d="M15.8926 15.0221C15.7119 15.301 15.5983 15.618 15.5607 15.9483C15.5231 16.2785 15.5625 16.6129 15.6758 16.9253C15.7321 16.9892 15.8044 17.0369 15.8852 17.0636C15.9661 17.0903 16.0526 17.095 16.1358 17.0773C16.2564 16.9822 16.3485 16.8558 16.4023 16.7119C16.456 16.568 16.4693 16.4122 16.4406 16.2613C16.3558 16.1277 16.2894 16.1061 16.2046 16.2197C16.0254 16.5837 15.9494 16.3341 15.935 16.1309C15.914 15.7888 15.9306 15.4454 15.9846 15.1069C16.0286 14.8173 15.9846 14.9053 15.8926 15.0221Z" fill="white"/>
<path d="M44.0407 -0.0727539H-12.0273V32.6113H44.0407V-0.0727539Z" fill="#3D9635"/>
<path fill-rule="evenodd" clip-rule="evenodd" d="M5.72796 10.3141C5.68076 10.9613 5.62236 12.1021 6.17436 12.2197C6.84076 12.2837 6.47276 11.0925 6.71436 10.8757C6.75996 10.7709 6.84476 10.7685 6.85116 10.9045V11.9141C6.84634 12.0277 6.8816 12.1393 6.95077 12.2296C7.01994 12.3198 7.11862 12.3828 7.22956 12.4077C7.40316 12.3941 7.52076 12.3997 7.58956 12.5677L7.66956 14.3165C7.66956 14.3165 8.07516 14.4341 8.09436 13.3341C8.05322 12.8988 8.03932 12.4615 8.05276 12.0245C8.05276 11.8997 8.21276 11.8925 8.32236 11.9533C8.49676 12.0749 8.57436 12.2277 8.84556 12.1677C9.25756 12.0541 9.50396 11.8525 9.51196 11.5373C9.49895 11.228 9.43544 10.9229 9.32396 10.6341C9.34156 10.5805 9.24396 10.4397 9.26156 10.3845C9.33596 10.5013 9.44876 10.4917 9.47436 10.3845C9.42882 10.1638 9.30205 9.96819 9.11916 9.83649C8.97276 9.70929 8.75916 9.73489 8.68076 10.0029C8.67145 10.3569 8.79083 10.7022 9.01676 10.9749C9.08822 11.1262 9.11778 11.2939 9.10236 11.4605C9.04786 11.4935 8.98305 11.505 8.92052 11.4929C8.85798 11.4808 8.80218 11.4458 8.76396 11.3949C8.76396 11.3949 8.43516 11.1493 8.43516 11.0949C8.52156 10.5349 8.45596 10.4757 8.40556 10.3197C8.37196 10.1069 8.27036 10.0397 8.18956 9.89249C8.10956 9.80609 7.99596 9.80609 7.94396 9.89249C7.82761 10.2283 7.83785 10.5949 7.97276 10.9237C8.04876 11.1469 8.16316 11.2861 8.11036 11.2861C8.06396 11.4117 7.97116 11.3845 7.90396 11.2373C7.82323 10.9281 7.78422 10.6096 7.78796 10.2901C7.75836 10.0413 7.72636 9.50929 7.56236 9.37409C7.46316 9.23729 7.31516 9.30449 7.26156 9.42769C7.2483 9.66934 7.25365 9.91166 7.27756 10.1525C7.37421 10.5335 7.44213 10.9213 7.48076 11.3125C7.49596 11.8629 7.16076 11.5525 7.17916 11.2797C7.24985 10.9321 7.24549 10.5734 7.16636 10.2277C7.11276 10.0869 7.04956 10.0533 6.91836 10.0773C6.81356 10.0693 6.54476 10.3621 6.46956 10.8485C6.43058 11.0046 6.39987 11.1627 6.37756 11.3221C6.33996 11.5725 6.17516 11.7493 6.05756 11.2861C5.95676 10.9493 5.89836 10.1197 5.72796 10.3141Z" fill="white"/>
<path fill-rule="evenodd" clip-rule="evenodd" d="M7.54069 12.9738C6.95269 13.261 6.38309 13.529 5.80469 13.8066C5.91521 13.5164 6.10058 13.2605 6.34198 13.0651C6.58337 12.8696 6.87218 12.7416 7.17909 12.6938C7.53509 12.7042 7.44549 12.8322 7.54069 12.9738Z" fill="white"/>
<path fill-rule="evenodd" clip-rule="evenodd" d="M9.75809 9.30273C9.72449 9.30753 9.68769 9.32674 9.64529 9.33714C9.6033 9.34836 9.56394 9.36777 9.52948 9.39427C9.49502 9.42076 9.46614 9.45381 9.4445 9.49152C9.42286 9.52922 9.40889 9.57083 9.4034 9.61396C9.39791 9.65708 9.401 9.70086 9.41249 9.74279C9.57889 10.7589 9.69009 11.5342 9.85729 12.5527C9.88289 12.672 9.78289 12.8304 9.65329 12.8136C9.43489 12.6656 9.38129 12.3639 9.00609 12.3783C8.8554 12.3984 8.71476 12.4652 8.60387 12.5692C8.49299 12.6732 8.4174 12.8093 8.38769 12.9584C8.33403 13.177 8.33403 13.4054 8.38769 13.6241C8.46136 13.7117 8.56081 13.7738 8.67187 13.8015C8.78292 13.8293 8.89989 13.8212 9.00609 13.7785C9.17089 13.7105 9.30609 13.5473 9.36369 13.5849C9.39889 13.6465 9.35809 14.1777 8.58929 14.5866C8.11489 14.7978 7.73889 14.8482 7.53569 14.4626C7.41009 14.2225 7.54609 13.3016 7.23649 13.5145C6.32049 15.8708 9.37969 16.1988 9.71649 13.6105C9.73889 13.5377 9.80769 13.4649 9.85649 13.4825C9.87649 13.4913 9.89489 13.5193 9.90209 13.5713C9.83009 15.9172 7.53649 16.0756 7.14609 15.3387C7.0542 15.0851 7.00894 14.8171 7.01249 14.5474C7.01018 14.4543 6.97665 14.3647 6.91729 14.293C6.82529 14.225 6.69889 14.4058 6.67249 14.7226C6.64388 14.9111 6.6345 15.1019 6.64449 15.2923C6.76689 17.1437 9.72049 16.3468 10.1997 14.8178C10.2958 14.3374 10.3227 13.8457 10.2797 13.3576H10.2869C10.5837 13.6721 10.9933 13.3976 11.0869 13.2896C11.0978 13.2735 11.1122 13.26 11.1289 13.25C11.1457 13.24 11.1644 13.2339 11.1838 13.232C11.2032 13.2301 11.2228 13.2325 11.2411 13.239C11.2595 13.2455 11.2762 13.2559 11.2901 13.2696C11.348 13.3112 11.4145 13.3392 11.4847 13.3513C11.5549 13.3635 11.627 13.3597 11.6955 13.3401C11.764 13.3204 11.8272 13.2855 11.8803 13.238C11.9334 13.1905 11.975 13.1315 12.0021 13.0656C12.0555 12.7749 12.0886 12.4808 12.1013 12.1855C11.987 12.2076 11.8782 12.2522 11.7813 12.3167C11.77 12.3282 11.7623 12.3426 11.7589 12.3583C11.7469 12.4423 11.7333 12.5263 11.7205 12.6119C11.7193 12.6181 11.7171 12.6241 11.7141 12.6296C11.7064 12.6405 11.6963 12.6495 11.6845 12.656C11.6325 12.6832 11.5421 12.6672 11.5365 12.5903C11.4661 12.2703 11.1733 12.2255 10.9965 12.7256C10.8773 12.8216 10.6597 12.84 10.6381 12.696C10.6669 12.3615 10.5325 12.3167 10.2621 12.4751C10.1749 11.8102 10.0885 11.179 10.0005 10.5157C10.1141 10.5117 10.2173 10.5957 10.3205 10.4653C10.2226 10.0682 10.0605 9.68985 9.84049 9.34514C9.83477 9.33835 9.82863 9.33194 9.82209 9.32594L9.81249 9.31954L9.80369 9.31394C9.79848 9.31185 9.79341 9.30944 9.78849 9.30673C9.77603 9.30485 9.76336 9.30485 9.75089 9.30673M8.93329 12.9416C8.96776 12.937 9.00273 12.9448 9.03202 12.9635C9.06131 12.9823 9.08301 13.0108 9.09329 13.044C9.10458 13.0732 9.10771 13.105 9.10236 13.1358C9.097 13.1667 9.08336 13.1955 9.06289 13.2192C9.04129 13.2496 8.95969 13.2368 8.90289 13.2368C8.87447 13.2395 8.84585 13.2341 8.82037 13.2212C8.79489 13.2084 8.77357 13.1885 8.75889 13.164C8.73889 13.1008 8.79889 13.04 8.82449 12.9936C8.82734 12.9875 8.83143 12.982 8.83649 12.9776C8.86453 12.956 8.89753 12.9417 8.93249 12.936" fill="white"/>
<path fill-rule="evenodd" clip-rule="evenodd" d="M11.8124 9.24849C11.74 9.25256 11.6693 9.27221 11.6052 9.30609C11.5315 9.36934 11.4838 9.45766 11.4714 9.55398C11.459 9.65031 11.4827 9.74782 11.538 9.82769C11.654 9.88129 11.7692 9.99889 11.6916 10.0677C11.3636 10.4189 10.5092 11.0037 10.4668 11.1077V11.1117V11.1157C10.6792 11.1444 10.8944 11.1444 11.1068 11.1157C11.4875 10.7913 11.8405 10.4356 12.162 10.0525C12.118 10.0141 12.0764 9.98529 12.03 9.94689C11.9836 9.90849 11.9868 9.86689 12.03 9.82129C12.0707 9.79181 12.1045 9.75373 12.1289 9.70974C12.1532 9.66574 12.1676 9.61692 12.1709 9.56675C12.1743 9.51658 12.1666 9.46628 12.1483 9.41943C12.13 9.37258 12.1016 9.33033 12.0652 9.29569C11.9838 9.25712 11.8944 9.23873 11.8044 9.24209M11.7636 9.55009C11.7966 9.55266 11.8282 9.56466 11.8545 9.58466C11.8809 9.60466 11.901 9.63181 11.9124 9.66289C11.9476 9.73729 11.9292 9.80849 11.8756 9.82289C11.822 9.83729 11.7484 9.78609 11.7156 9.71329C11.6828 9.64049 11.7004 9.56849 11.754 9.55329C11.7574 9.55247 11.761 9.55247 11.7644 9.55329" fill="white"/>
<path fill-rule="evenodd" clip-rule="evenodd" d="M19.8075 13.81C19.4923 13.1324 19.0555 12.4612 18.9163 12.2044C18.7771 11.9476 17.7283 10.4236 17.5731 10.2532C17.2331 9.84839 18.1275 10.422 17.4587 9.61799C17.2059 9.40119 17.1915 9.38759 16.9787 9.21079C16.8731 9.13079 16.6123 8.99639 16.5659 9.22519C16.545 9.38537 16.5534 9.54803 16.5907 9.70519C16.6593 9.85417 16.7499 9.99198 16.8595 10.114C17.973 11.5841 18.9496 13.153 19.7771 14.8012C19.9203 14.7324 19.8891 13.9212 19.8059 13.8116" fill="white"/>
<path fill-rule="evenodd" clip-rule="evenodd" d="M18.4232 16.0818C18.36 16.1498 18.5752 16.4491 18.8544 16.4483C19.1334 16.4028 19.3959 16.2862 19.6167 16.1098C19.8376 15.9334 20.0092 15.703 20.1152 15.441C20.27 15.2091 20.3681 14.9441 20.4016 14.6673C20.4501 13.3527 20.3448 12.0369 20.088 10.7468C20.0743 10.6556 20.0789 10.5625 20.1016 10.4731C20.1312 10.4371 20.2344 10.4731 20.2888 10.3835C20.3688 10.3035 20.0768 9.62503 19.9104 9.3666C19.8512 9.24899 19.8304 9.17298 19.732 9.3802C19.614 9.6079 19.5575 9.86245 19.568 10.1187C19.7912 11.6613 19.86 13.0111 20.0072 14.5553C20.0309 14.7148 19.9913 14.8773 19.8968 15.0081C19.487 15.466 18.9847 15.8324 18.4232 16.0818Z" fill="white"/>
<path fill-rule="evenodd" clip-rule="evenodd" d="M24.7399 16.0718C24.4031 16.2662 24.4031 16.4886 24.6751 16.4974C24.9454 16.5079 25.2142 16.4524 25.4584 16.3359C25.7025 16.2194 25.9147 16.0453 26.0767 15.8286C26.2097 15.559 26.2869 15.2654 26.3039 14.9652C26.3699 13.5482 26.2857 12.1281 26.0527 10.7287C26.025 10.5971 26.01 10.4631 26.0079 10.3287C26.0383 10.2487 26.1895 10.3383 26.2479 10.2487C26.3279 10.1686 25.8527 9.55817 25.6879 9.29733C25.6279 9.18212 25.6079 9.10451 25.5095 9.31254C25.4 9.54174 25.3662 9.79974 25.4127 10.0494C25.664 11.6333 25.821 13.2307 25.8831 14.8332C25.8695 14.9681 25.8386 15.1007 25.7911 15.2277C25.6577 15.4224 25.5032 15.6016 25.3303 15.7621C25.1783 15.8758 24.8503 15.9846 24.7479 16.0678" fill="white"/>
<path fill-rule="evenodd" clip-rule="evenodd" d="M24.9915 14.5686C24.9915 14.1774 24.9971 13.839 24.9835 13.5462C24.9699 13.2534 24.8363 12.1566 24.7923 11.9214C24.7483 11.6862 24.7035 11.3286 24.6323 11.0478C24.5986 10.8847 24.579 10.719 24.5739 10.5526C24.6019 10.4726 24.7059 10.5526 24.7579 10.463C24.6987 10.0265 24.5479 9.60753 24.3155 9.23339C24.2531 9.11819 24.1379 9.15339 23.9955 9.34379C23.8643 9.46619 23.9155 9.74379 23.9635 10.0094C24.3289 11.735 24.5067 13.4951 24.4939 15.259C24.4771 15.4014 24.9883 14.8374 24.9859 14.5686" fill="white"/>
<path fill-rule="evenodd" clip-rule="evenodd" d="M22.5121 12.4005C22.3001 12.3957 21.8585 11.9885 21.7289 11.7517C21.7095 11.6948 21.7018 11.6346 21.7063 11.5746C21.7109 11.5147 21.7276 11.4563 21.7553 11.4029C21.8353 11.3525 21.9537 11.2957 22.0433 11.3509C22.0433 11.3509 22.1361 11.4797 22.1185 11.4981C22.2337 11.5509 22.2825 11.5205 22.2945 11.4725C22.3025 11.3925 22.2593 11.3429 22.2593 11.2517C22.2649 11.2037 22.2845 11.1583 22.3157 11.1213C22.3468 11.0844 22.3882 11.0574 22.4346 11.0437C22.481 11.0301 22.5304 11.0304 22.5766 11.0446C22.6228 11.0588 22.6638 11.0864 22.6945 11.1237C22.7682 11.2575 22.8086 11.4071 22.8121 11.5597C22.8121 11.6301 22.6961 11.5469 22.6329 11.5597C22.5697 11.5725 22.5529 11.6517 22.5481 11.7197C22.5361 11.8973 22.5153 12.1813 22.5121 12.3981" fill="white"/>
<path fill-rule="evenodd" clip-rule="evenodd" d="M18.6136 15.0052C18.6391 14.3603 18.63 13.7144 18.5864 13.0705C18.5664 12.3272 18.4432 10.895 18.3864 10.655C18.3216 10.203 18.572 10.703 18.5384 10.4414C18.4227 10.0086 18.2083 9.60846 17.912 9.27244C17.8184 9.13802 17.8208 9.11242 17.672 9.30444C17.5747 9.5999 17.5812 9.9197 17.6904 10.211C17.8911 11.0793 18.023 11.9622 18.0848 12.8513C18.1475 13.7821 18.1553 14.7159 18.108 15.6476C18.268 15.6548 18.5216 15.3916 18.6112 15.0076" fill="white"/>
<path fill-rule="evenodd" clip-rule="evenodd" d="M25.7086 14.1506C25.3326 13.5282 24.7726 12.7954 24.6262 12.545C24.4798 12.2946 23.2054 10.4338 23.0446 10.269C22.5798 9.78338 23.2574 10.189 22.9566 9.81298C22.7921 9.6161 22.6082 9.43627 22.4078 9.27618C22.2974 9.20658 22.2318 9.07218 22.1958 9.30178C22.1765 9.5033 22.1711 9.70592 22.1798 9.90818C22.2068 10.0481 22.2699 10.1786 22.363 10.2866C23.6129 11.8018 24.7303 13.4217 25.703 15.1282C25.8454 15.0538 25.7982 14.2562 25.7086 14.1466" fill="white"/>
<path fill-rule="evenodd" clip-rule="evenodd" d="M21.2011 21.5181C21.1382 21.5285 21.0801 21.5581 21.0345 21.6027C20.989 21.6473 20.9582 21.7049 20.9464 21.7675C20.9347 21.8302 20.9424 21.895 20.9687 21.9531C20.9949 22.0112 21.0384 22.0599 21.0931 22.0925C17.6171 22.0925 12.2819 22.0333 11.1379 22.0333C10.4979 22.0333 8.47395 21.9581 8.43555 21.9581C8.65467 22.2406 8.94394 22.461 9.2746 22.5971C9.60526 22.7332 9.96578 22.7804 10.3203 22.7341C11.8651 22.7341 19.0187 22.7157 21.0539 22.7157C21.0031 22.8392 20.9882 22.9745 21.0108 23.1061C21.0334 23.2377 21.0928 23.3603 21.1819 23.4597L21.1891 23.4653L21.2035 23.4701H21.2075C21.3435 23.5029 21.4027 23.4053 21.4475 23.3349C21.9677 23.363 22.489 23.363 23.0091 23.3349C23.0843 23.4445 23.1603 23.5509 23.3051 23.5333C23.5587 23.4773 23.7579 23.4533 23.7651 22.9357C23.7651 22.9357 23.7403 22.0557 23.1627 22.1141C23.0267 22.1357 22.6451 22.1725 22.6451 22.1725C22.2019 22.1205 21.8763 22.1157 21.3795 22.0925C21.4251 22.0349 21.5051 21.7997 21.4075 21.7133C21.3905 21.7009 21.3713 21.6919 21.3508 21.687C21.3304 21.6821 21.3091 21.6812 21.2883 21.6845H21.2827H21.2771L21.2683 21.6749H21.2643C21.2403 21.6389 21.2259 21.5493 21.2099 21.5261H21.2051H21.2011V21.5181ZM21.4411 22.7709C21.9475 22.7957 22.4243 22.7757 22.9315 22.8005C22.9625 22.8361 22.9785 22.8822 22.9762 22.9293C22.974 22.9764 22.9537 23.0208 22.9195 23.0533L22.9099 23.0581H22.8979C22.7315 23.0525 22.6371 23.0477 22.4715 23.0453C22.4724 23.0368 22.4724 23.0282 22.4715 23.0197C22.4323 22.9045 22.1515 22.9125 22.0819 23.0021V23.0077V23.0149L22.0771 23.0229V23.0349V23.0493C21.8616 23.0619 21.6454 23.0566 21.4307 23.0333C21.3659 22.9533 21.3731 22.8061 21.4491 22.7709" fill="white"/>
<path fill-rule="evenodd" clip-rule="evenodd" d="M12.4048 9.77959C12.0664 10.7476 12.5992 11.8068 12.9648 11.6996C13.2312 11.8084 13.4008 11.2996 13.5104 10.7468C13.5856 10.5916 13.6416 10.5748 13.6792 10.654C13.6704 11.394 13.7328 11.5572 13.9192 11.7804C14.029 11.8776 14.1698 11.9325 14.3164 11.9353C14.463 11.9381 14.6058 11.8886 14.7192 11.7956L15.0488 11.4644C15.0843 11.4271 15.1329 11.405 15.1844 11.4028C15.2359 11.4005 15.2862 11.4183 15.3248 11.4524C15.4248 11.5436 15.4112 11.702 15.6264 11.8108C15.7389 11.8486 15.8595 11.8557 15.9756 11.8313C16.0918 11.807 16.1993 11.7521 16.2872 11.6724C16.408 11.4636 16.4376 11.394 16.492 11.314C16.58 11.2004 16.7256 11.2508 16.7256 11.2884C16.7128 11.3508 16.6264 11.4148 16.684 11.5284C16.7872 11.6084 16.8128 11.5556 16.872 11.538C17.0872 11.4364 17.2496 10.9684 17.2496 10.9684C17.2584 10.794 17.1608 10.8084 17.0968 10.8444C17.0168 10.8948 17.0104 10.9108 16.9264 10.9628C16.8216 10.9788 16.6184 11.0468 16.5168 10.8916C16.4444 10.6818 16.3838 10.4681 16.3352 10.2516C16.3352 10.238 16.1976 9.95319 16.3248 9.93719C16.3888 9.94599 16.5256 9.98359 16.5464 9.86999C16.6152 9.75479 16.4032 9.43879 16.2592 9.27799C16.2309 9.24398 16.1957 9.21637 16.1559 9.19698C16.1161 9.17758 16.0727 9.16685 16.0285 9.16549C15.9842 9.16413 15.9402 9.17217 15.8993 9.18908C15.8584 9.20599 15.8216 9.23139 15.7912 9.26359C15.6736 9.37159 15.6912 9.49319 15.6672 9.60759C15.6479 9.68868 15.6478 9.77316 15.667 9.85429C15.6862 9.93541 15.724 10.0109 15.7776 10.0748C15.9747 10.3497 16.0671 10.6858 16.0384 11.0228C16.0013 11.079 15.95 11.1245 15.8898 11.1546C15.8296 11.1848 15.7625 11.1987 15.6952 11.1948C15.6048 11.1748 15.4552 11.1356 15.3752 10.5548C15.3911 10.1007 15.333 9.64703 15.2032 9.21159C15.1352 9.03719 15.0872 8.86839 14.9224 9.16679C14.8519 9.2597 14.8061 9.36899 14.7893 9.48441C14.7725 9.59984 14.7853 9.71764 14.8264 9.82679C14.9526 10.1531 14.9893 10.5071 14.9328 10.8524C14.8749 10.9511 14.8088 11.0447 14.7352 11.1324C14.6842 11.1907 14.6137 11.2285 14.5369 11.2388C14.4601 11.2491 14.3822 11.2312 14.3176 11.1884C14.2496 11.1556 14.191 11.1063 14.1471 11.0449C14.1032 10.9835 14.0754 10.9121 14.0664 10.8372C14.0986 10.4589 14.0857 10.0781 14.028 9.70279C14.016 9.66983 13.9958 9.6405 13.9692 9.6176C13.9427 9.59471 13.9107 9.57901 13.8763 9.57203C13.842 9.56504 13.8064 9.567 13.773 9.57771C13.7396 9.58842 13.7095 9.60752 13.6856 9.63319C13.3615 9.99277 13.1452 10.4364 13.0616 10.9132C12.9656 11.2228 12.8624 11.1348 12.7904 11.0108C12.6152 10.846 12.604 9.56359 12.3904 9.77319" fill="white"/>
<path fill-rule="evenodd" clip-rule="evenodd" d="M13.5462 11.7793L13.5374 11.7849H13.5334C13.5102 11.8009 13.4822 11.8401 13.4246 11.8817C13.3246 11.9945 13.3078 12.0721 13.3126 12.2993C13.319 12.3233 13.5014 12.8305 13.6574 13.1873C13.7874 13.5731 13.8316 13.9826 13.787 14.3873C13.5202 14.9217 13.098 15.3629 12.5758 15.6529C12.4961 15.6883 12.4099 15.7067 12.3226 15.7067C12.2354 15.7067 12.1491 15.6883 12.0694 15.6529C12.0236 15.6208 11.987 15.5772 11.9633 15.5265C11.9396 15.4759 11.9296 15.4199 11.9342 15.3641C12.4616 15.0829 12.8875 14.6433 13.1518 14.1073C13.2727 13.8193 13.2847 13.4971 13.1854 13.2009C13.1562 13.045 13.0845 12.9003 12.9782 12.7825C13.0446 12.7513 13.2222 12.8817 13.2502 12.8001C13.1962 12.5583 13.0753 12.3366 12.9014 12.1601C12.8758 12.1291 12.844 12.1037 12.8081 12.0856C12.7722 12.0674 12.733 12.0568 12.6928 12.0545C12.6527 12.0522 12.6125 12.0582 12.5747 12.0721C12.537 12.086 12.5025 12.1075 12.4734 12.1353C12.3254 12.2153 12.2942 12.5097 12.3654 12.7673C12.4454 12.9609 12.6566 12.9929 12.8078 13.3841C12.8078 13.4081 12.859 13.6745 12.7822 13.7841C12.5167 14.1083 12.2098 14.3964 11.8694 14.6409V14.6449C11.8694 14.6297 11.8694 14.5889 11.8694 14.5249C11.8646 14.4073 11.9118 14.1425 11.907 14.0969C11.6446 14.2681 11.5598 14.7865 11.511 14.9393C10.8563 15.3055 10.2357 15.7296 9.65664 16.2065C9.42944 16.5609 11.2166 15.8009 11.4246 15.7081L11.4302 15.7137C11.4694 15.7577 11.4734 15.9089 11.5902 16.0449C11.7046 16.182 11.8555 16.2839 12.0254 16.3388C12.1953 16.3938 12.3772 16.3995 12.5502 16.3553C13.1212 16.1186 13.6072 15.7148 13.9446 15.1969C13.9974 15.1169 14.083 15.0585 14.1606 15.1169C14.3667 15.451 14.6589 15.7233 15.0066 15.9054C15.3544 16.0874 15.7447 16.1723 16.1366 16.1513C16.3614 15.8801 16.2542 15.7465 16.1638 15.6897C16.1366 15.6713 15.6838 15.4937 15.6126 15.3185C15.5678 15.1529 15.675 15.0097 15.891 14.9009C16.5088 14.8425 17.1195 14.7255 17.715 14.5513C17.7384 14.3316 17.8071 14.1191 17.9166 13.9273C17.9404 13.8818 17.9757 13.8435 18.019 13.8161C18.0201 13.8111 18.0201 13.8059 18.019 13.8009L17.9182 13.7409L15.935 13.7345C15.9159 13.7265 15.8974 13.7168 15.8798 13.7057V13.7009V13.6921V13.6865C15.8987 13.6706 15.9204 13.6584 15.9438 13.6505C16.4174 13.5873 17.259 13.4489 17.3158 12.6409C17.3319 12.5445 17.3265 12.4458 17.3001 12.3517C17.2736 12.2576 17.2268 12.1705 17.1628 12.0967C17.0989 12.0228 17.0195 11.9639 16.9302 11.9242C16.8409 11.8845 16.7439 11.8649 16.6462 11.867C16.5485 11.869 16.4525 11.8925 16.3649 11.9359C16.2774 11.9793 16.2005 12.0415 16.1397 12.118C16.0789 12.1944 16.0357 12.2834 16.0132 12.3785C15.9906 12.4736 15.9894 12.5725 16.0094 12.6681C15.9918 12.7777 16.047 12.9881 15.935 13.0129C15.2062 13.0817 14.4094 13.5361 14.3838 13.8641H14.3566C14.3213 13.8444 14.2928 13.8144 14.2751 13.7781C14.2574 13.7418 14.2512 13.7008 14.2574 13.6609C14.2233 13.0506 14.0451 12.4571 13.7374 11.9289C13.6334 11.8257 13.5894 11.7849 13.5606 11.7793H13.5462ZM16.4462 12.5033C16.5006 12.5022 16.5542 12.5167 16.6006 12.5449C16.633 12.5587 16.6611 12.5807 16.6823 12.6088C16.7035 12.6369 16.717 12.67 16.7214 12.7049V12.7105V12.7177V12.7289C16.7179 12.7335 16.7138 12.7378 16.7094 12.7417C16.6766 12.7614 16.6385 12.7707 16.6003 12.7684C16.562 12.7661 16.5253 12.7524 16.495 12.7289C16.4629 12.7145 16.4349 12.6924 16.4135 12.6644C16.3922 12.6365 16.3781 12.6037 16.3726 12.5689V12.5641C16.374 12.5576 16.3764 12.5514 16.3798 12.5457V12.5393C16.3824 12.536 16.3853 12.533 16.3886 12.5305C16.4032 12.5192 16.4207 12.5126 16.439 12.5113M14.5934 14.1857H14.6166C14.8901 14.2359 15.1668 14.2669 15.4446 14.2785C15.675 14.2953 15.791 14.4761 15.575 14.5505C15.359 14.6249 15.1582 14.6809 15.1574 14.9873C15.1846 15.1401 15.1798 15.2193 15.1574 15.2569L15.151 15.2649H15.147C15.1441 15.2675 15.1405 15.2695 15.1366 15.2705H15.1302C15.0758 15.2785 15.003 15.2297 14.9478 15.2025C14.8004 15.118 14.6742 15.001 14.5787 14.8604C14.4832 14.7199 14.421 14.5595 14.3966 14.3913C14.3953 14.3634 14.3997 14.3355 14.4096 14.3093C14.4194 14.2831 14.4345 14.2592 14.4539 14.2391C14.4733 14.2189 14.4966 14.203 14.5224 14.1921C14.5482 14.1813 14.5759 14.1758 14.6038 14.1761" fill="white"/>
<path fill-rule="evenodd" clip-rule="evenodd" d="M8.22798 9.79151C8.45838 9.90031 8.88638 9.85311 8.86798 9.48431C8.86798 9.45151 8.85838 9.34271 8.85598 9.31311C8.80958 9.20431 8.68238 9.23311 8.65358 9.34351C8.64398 9.38031 8.66878 9.43951 8.63518 9.45791C8.61758 9.47791 8.54318 9.46671 8.54718 9.36431C8.5427 9.33215 8.52972 9.30178 8.50958 9.27631C8.49425 9.26693 8.47622 9.26299 8.45838 9.26511C8.42798 9.26511 8.42798 9.27391 8.41038 9.30191C8.4007 9.32759 8.39477 9.35454 8.39278 9.38191C8.38798 9.41791 8.37518 9.42991 8.34798 9.43551C8.32078 9.44111 8.32478 9.43951 8.30078 9.42431C8.27678 9.40911 8.26798 9.40111 8.26798 9.37471C8.26853 9.34423 8.26366 9.31389 8.25358 9.28511C8.23924 9.2689 8.21974 9.25816 8.19838 9.25471C8.07358 9.25471 8.06478 9.39711 8.07198 9.45151C8.06318 9.46111 8.05678 9.71631 8.22638 9.78751" fill="white"/>
<path fill-rule="evenodd" clip-rule="evenodd" d="M14.9244 12.6239C15.154 12.7319 15.6964 12.6695 15.5644 12.3175C15.5644 12.2839 15.5564 12.1735 15.5524 12.1463C15.5068 12.0367 15.3796 12.0623 15.3508 12.1759C15.342 12.2111 15.3668 12.2719 15.334 12.2903C15.3148 12.3095 15.2412 12.2983 15.2444 12.1967C15.24 12.1643 15.2264 12.1337 15.2052 12.1087C15.1906 12.0988 15.1731 12.0943 15.1556 12.0959C15.1244 12.0959 15.1244 12.1055 15.1084 12.1335C15.0973 12.1605 15.0908 12.1892 15.0892 12.2183C15.0844 12.2535 15.0716 12.2679 15.0452 12.2719C15.0188 12.2759 15.0228 12.2719 14.9972 12.2615C14.9716 12.2511 14.9652 12.2383 14.9652 12.2103C14.9659 12.1801 14.961 12.15 14.9508 12.1215C14.9365 12.1046 14.9166 12.0936 14.8948 12.0903C14.7708 12.0903 14.7628 12.2343 14.7692 12.2871C14.7604 12.2967 14.7548 12.5527 14.9244 12.6239Z" fill="white"/>
<path fill-rule="evenodd" clip-rule="evenodd" d="M18.8308 11.4486C19.0588 11.559 19.4876 11.511 19.4708 11.1446C19.4708 11.111 19.4628 11.0022 19.4596 10.9718C19.4116 10.863 19.2852 10.8918 19.258 11.0022C19.2484 11.0398 19.2732 11.099 19.2388 11.1166C19.2204 11.135 19.1476 11.1238 19.1516 11.0222C19.1471 10.9902 19.1335 10.9603 19.1124 10.9358C19.098 10.925 19.0799 10.9204 19.062 10.923C19.03 10.923 19.03 10.9326 19.0132 10.959C19.0041 10.9865 18.9982 11.0149 18.9956 11.0438C18.9916 11.0806 18.9796 11.0934 18.9516 11.099C18.9236 11.1046 18.9284 11.103 18.9052 11.0862C18.882 11.0694 18.8724 11.0654 18.8724 11.0398C18.8723 11.0081 18.8674 10.9765 18.858 10.9462C18.8427 10.9314 18.8236 10.9212 18.8028 10.9166C18.6772 10.9166 18.6684 11.0598 18.6756 11.1134C18.666 11.1238 18.662 11.379 18.8316 11.4486" fill="white"/>
<path fill-rule="evenodd" clip-rule="evenodd" d="M20.8526 14.3937C20.7167 14.5889 20.6332 14.8158 20.6101 15.0526C20.587 15.2893 20.625 15.528 20.7206 15.7459C20.8118 15.9857 20.9865 16.1846 21.2126 16.3059C21.2488 16.3387 21.2916 16.3634 21.3381 16.3785C21.3846 16.3936 21.4337 16.3986 21.4823 16.3933C21.5309 16.388 21.5778 16.3725 21.62 16.3478C21.6621 16.3231 21.6986 16.2897 21.727 16.2499C21.9598 16.0099 21.967 15.3874 22.0734 15.265C22.0813 15.2263 22.1001 15.1906 22.1277 15.1623C22.1553 15.134 22.1904 15.1142 22.2289 15.1053C22.2674 15.0963 22.3077 15.0986 22.3449 15.1119C22.3822 15.1252 22.4148 15.1489 22.439 15.1802C22.5247 15.301 22.6387 15.3991 22.771 15.4658C22.8667 15.5623 22.9942 15.6207 23.1297 15.6301C23.2653 15.6396 23.3996 15.5994 23.5078 15.517C23.6928 15.4129 23.8323 15.2434 23.899 15.0418C23.9822 14.1105 23.9916 13.1742 23.927 12.2414C23.9198 12.1758 23.7006 11.0909 23.7006 11.0797C23.7006 11.0685 23.6726 10.526 23.6478 10.3972C23.6478 10.346 23.6318 10.33 23.6862 10.3364C23.7151 10.3663 23.75 10.3897 23.7886 10.4052C23.847 10.4164 23.899 10.3164 23.8638 10.2236C23.6814 9.8886 23.4998 9.5539 23.319 9.21945C23.2758 9.17625 23.219 9.12984 23.1494 9.23145C23.1073 9.26883 23.0735 9.31449 23.0499 9.36558C23.0264 9.41666 23.0137 9.47206 23.0126 9.52829C23.0294 9.76832 23.071 10.0084 23.0878 10.2484C23.1598 10.654 23.2342 11.0621 23.3054 11.4701C23.3726 12.3406 23.3918 13.1375 23.4598 14.0081C23.4494 14.3769 23.3366 14.8682 23.2278 14.9138C23.2278 14.9138 23.0638 15.0074 22.955 14.9026C22.8034 14.74 22.6693 14.5619 22.555 14.3713C22.5327 14.3407 22.5035 14.3158 22.4698 14.2987C22.4361 14.2815 22.3988 14.2726 22.361 14.2726C22.3231 14.2726 22.2858 14.2815 22.2521 14.2987C22.2184 14.3158 22.1892 14.3407 22.167 14.3713C21.8817 14.7672 21.6521 15.2004 21.4846 15.6587C21.4278 15.7483 21.2694 15.8243 21.0934 15.6515C20.8636 15.276 20.7783 14.8298 20.8534 14.3961" fill="white"/>
<path fill-rule="evenodd" clip-rule="evenodd" d="M18.9329 9.31421C19.0408 9.39387 19.1255 9.50089 19.1782 9.62423C19.231 9.74757 19.2498 9.88275 19.2329 10.0158C19.1929 10.2654 19.0849 10.5366 19.0057 10.5014C18.9265 10.4662 19.0649 10.2526 18.9825 10.0214C18.9377 9.87421 18.6625 9.60221 18.6873 9.52301C18.6289 9.35581 18.8057 9.28301 18.9329 9.31181" fill="white"/>
<path fill-rule="evenodd" clip-rule="evenodd" d="M21.5104 14.6406C21.5278 14.2755 21.5139 13.9096 21.4688 13.547C21.4552 13.255 21.1376 10.8854 21.0736 10.667C20.9936 10.2486 21.3832 10.611 21.34 10.367C21.2064 10.0606 20.8728 9.61335 20.7688 9.34775C20.7056 9.23415 20.732 9.13175 20.5912 9.31815C20.4696 9.65048 20.4263 10.0064 20.4648 10.3582C20.8598 11.9997 21.0704 13.6803 21.0928 15.3686C21.2528 15.3686 21.4352 15.0038 21.5128 14.6446" fill="white"/>
<path fill-rule="evenodd" clip-rule="evenodd" d="M25.007 9.90665C25.1934 9.99865 25.3022 10.5179 25.283 10.6667C25.2438 10.9379 25.1462 11.2267 25.075 11.1915C25.0038 11.1563 25.0894 10.7915 25.0526 10.6763C25.011 10.5163 24.7574 10.2219 24.7846 10.1347C24.7729 10.1034 24.7703 10.0694 24.7772 10.0367C24.7841 10.004 24.8001 9.97399 24.8235 9.95008C24.8468 9.92617 24.8764 9.90939 24.9089 9.9017C24.9414 9.89401 24.9754 9.89573 25.007 9.90665Z" fill="white"/>
<path fill-rule="evenodd" clip-rule="evenodd" d="M11.1411 13.7C11.3195 13.7688 11.4251 14.1504 11.4043 14.26C11.3699 14.4592 11.2739 14.6752 11.2067 14.6464C11.1395 14.6176 11.2211 14.3512 11.1851 14.2672C11.1715 14.0632 10.9235 13.9568 10.9291 13.8672C10.8811 13.7072 11.0315 13.6768 11.1411 13.7Z" fill="white"/>
<path fill-rule="evenodd" clip-rule="evenodd" d="M6.3729 9.19078C6.6353 9.27078 6.6513 9.65558 6.6321 9.76998C6.5961 9.97558 6.5041 10.198 6.4361 10.17C6.3681 10.142 6.4361 9.86358 6.3977 9.77638C6.3601 9.65318 6.1377 9.43158 6.1625 9.36438C6.1113 9.22598 6.2649 9.16518 6.3729 9.19078Z" fill="white"/>
<path fill-rule="evenodd" clip-rule="evenodd" d="M11.5719 11.0143C11.4716 11.0792 11.3999 11.1798 11.3712 11.2957C11.3425 11.4117 11.359 11.5342 11.4175 11.6383C11.4553 11.6866 11.5069 11.7225 11.5654 11.7411C11.6238 11.7598 11.6866 11.7605 11.7455 11.7431C11.9439 11.7679 12.0607 11.3719 12.0607 11.3719C12.0607 11.3719 12.0663 11.2607 11.8311 11.4711C11.7327 11.4887 11.7207 11.4535 11.6951 11.3975C11.6715 11.2934 11.6825 11.1844 11.7263 11.0871C11.7615 10.9903 11.6855 10.9463 11.5719 11.0143Z" fill="white"/>
<path fill-rule="evenodd" clip-rule="evenodd" d="M13.0861 9.04039C13.0007 9.09972 12.9289 9.17657 12.8755 9.26582C12.8221 9.35507 12.7884 9.45467 12.7765 9.55799C12.7693 9.69479 12.7437 9.69479 12.8333 9.78119C12.8989 9.87319 12.9629 9.86119 13.0925 9.79799C13.1251 9.77714 13.153 9.74984 13.1746 9.71778C13.1962 9.68573 13.211 9.64959 13.2181 9.61159C13.2501 9.45879 13.0581 9.68599 13.0293 9.51479C12.9869 9.35479 13.1093 9.28919 13.2301 9.13479C13.2301 9.02919 13.2301 8.95559 13.0861 9.04039Z" fill="white"/>
<path fill-rule="evenodd" clip-rule="evenodd" d="M14.3074 9.25648C14.259 9.45425 14.23 9.65628 14.221 9.85968C14.1858 10.0085 14.381 10.0725 14.4658 9.87888C14.5527 9.67136 14.5999 9.4494 14.605 9.22448C14.565 8.99568 14.4098 9.00368 14.3074 9.25648Z" fill="white"/>
<path fill-rule="evenodd" clip-rule="evenodd" d="M22.0036 13.1697C22.0316 13.1449 23.0892 12.3929 23.0892 12.3929C23.1964 12.3561 23.1692 12.7809 23.1236 12.7761C22.7957 13.0957 22.4173 13.359 22.0036 13.5553C21.9532 13.5937 21.898 13.2641 22.0036 13.1697Z" fill="white"/>
<path fill-rule="evenodd" clip-rule="evenodd" d="M22.9694 13.1666C23.1566 13.2586 23.2302 13.8026 23.2094 13.9522C23.2166 14.2394 23.0302 14.4706 22.959 14.4322C22.8878 14.3938 22.9662 14.0754 22.9286 13.9594C22.887 13.7994 22.7302 13.4978 22.7566 13.4098C22.7445 13.3789 22.7411 13.3453 22.7469 13.3126C22.7527 13.2799 22.7674 13.2495 22.7895 13.2246C22.8115 13.1998 22.8399 13.1815 22.8717 13.1719C22.9035 13.1622 22.9373 13.1615 22.9694 13.1698" fill="white"/>
<path fill-rule="evenodd" clip-rule="evenodd" d="M16.6759 15.5147C16.7634 15.4122 16.8659 15.3235 16.9799 15.2515C17.0135 15.2387 17.0499 15.2351 17.0854 15.2411C17.1209 15.2472 17.154 15.2627 17.1815 15.2859C17.1999 15.3915 17.1159 15.4883 17.1423 15.6283C17.1655 15.6843 17.1815 15.7475 17.2855 15.7235C17.4279 15.6195 17.6013 15.5667 17.7775 15.5739C17.9047 15.5811 17.9111 15.8003 17.8279 15.8027C17.597 15.8583 17.3724 15.9371 17.1575 16.0379C17.1272 16.0571 17.0912 16.0651 17.0556 16.0604C17.0201 16.0557 16.9873 16.0387 16.9631 16.0123C16.9432 15.9835 16.9311 15.95 16.9279 15.9151C16.9247 15.8803 16.9305 15.8451 16.9447 15.8131C16.9527 15.7019 16.9079 15.6411 16.8143 15.6531C16.7447 15.6907 16.6831 15.7155 16.6487 15.6347C16.6343 15.5755 16.6295 15.5475 16.6759 15.5147Z" fill="white"/>
<path fill-rule="evenodd" clip-rule="evenodd" d="M24.0836 15.8086C24.0981 15.8212 24.1098 15.8368 24.1178 15.8543C24.1258 15.8718 24.13 15.8909 24.13 15.9102C24.13 15.9294 24.1258 15.9485 24.1178 15.966C24.1098 15.9835 24.0981 15.9991 24.0836 16.0118C24.01 16.0814 23.9564 16.1182 23.882 16.1862C23.8484 16.247 23.8244 16.3374 23.9316 16.3646C24.13 16.4206 24.5876 16.1246 24.5876 16.1182C24.6104 16.0992 24.6268 16.0736 24.6344 16.045C24.642 16.0163 24.6404 15.9859 24.63 15.9582C24.5876 15.9102 24.49 15.9382 24.4236 15.9302C24.3924 15.9302 24.2924 15.9142 24.3436 15.8238C24.3775 15.7744 24.4044 15.7205 24.4236 15.6638C24.454 15.5966 24.4292 15.5494 24.3172 15.5134C24.2226 15.4981 24.1262 15.4981 24.0316 15.5134C23.9644 15.5294 23.9412 15.559 23.9292 15.6406C23.9332 15.7662 24.0092 15.7582 24.0892 15.8094" fill="white"/>
</g>
</g>
<defs>
<clipPath id="clip0_8918_95389">
<rect width="31.9976" height="32" fill="white"/>
</clipPath>
</defs>
</svg>
