<svg width="32" height="32" viewBox="0 0 32 32" fill="none" xmlns="http://www.w3.org/2000/svg">
<g clip-path="url(#clip0_583_7318)">
<mask id="mask0_583_7318" style="mask-type:luminance" maskUnits="userSpaceOnUse" x="0" y="0" width="32" height="32">
<path d="M15.9992 0H15.6448C11.8052 0.079992 9.83262 0.381562 8.0048 1.0095C6.23745 1.61673 4.64661 2.64936 3.37246 4.0164C2.31397 5.24437 1.50363 6.66593 0.986301 8.20238C0.3773 10.1281 0.053894 12.1327 0.0263974 14.1522C-5.95987e-09 14.9481 0 15.0569 0 15.9968C0 16.9367 -5.95987e-09 17.0455 0.0263974 17.8366C0.053876 19.8567 0.377281 21.8618 0.986301 23.788C1.50312 25.3271 2.31346 26.7514 3.37246 27.982C4.6467 29.3486 6.23756 30.3806 8.0048 30.9873C9.83262 31.6168 11.8036 31.9176 15.6448 31.9968H16.3544C20.194 31.9168 22.1666 31.6168 23.9936 30.9873C25.7611 30.3807 27.3522 29.3486 28.6267 27.982C29.6849 26.7529 30.4952 25.3306 31.0129 23.7936C31.6216 21.8673 31.945 19.8622 31.9728 17.8422C32 17.0479 32 16.9383 32 16.0024C32 15.0665 32 14.9537 31.9728 14.1578C31.9449 12.1383 31.6216 10.1338 31.0129 8.20798C30.4954 6.67087 29.6851 5.24855 28.6267 4.0196C27.3523 2.65253 25.7612 1.6199 23.9936 1.0127C22.1666 0.381562 20.1948 0.0791921 16.3544 0H15.9992Z" fill="white"/>
</mask>
<g mask="url(#mask0_583_7318)">
<path d="M3.08376 -0.359375H-0.755859L18.8022 12.7593H42.4614V10.5283H19.5101L3.08376 -0.359375Z" fill="white"/>
<path d="M-0.816406 32.4233H3.1328L19.4768 21.5372H42.4633V19.2734H18.8024L-0.816406 32.4233Z" fill="white"/>
<path d="M-6.78711 3.53906V6.27159L8.41697 16.0378L-6.78711 25.7824V28.4942L11.9198 16.0378L-6.78711 3.53906Z" fill="#F9B500"/>
<path d="M-6.78711 6.26562V25.7157L7.94182 16.0318L-6.78711 6.26562Z" fill="#12100B"/>
<path d="M-6.78711 6.26562L7.94182 16.0318L-6.78711 25.7157V25.7749L8.41697 16.0318L-6.78711 6.26562Z" fill="#12100B"/>
<path d="M3.13281 32.4252H42.4633V21.5391H19.4768L3.13281 32.4252Z" fill="#2C2E7F"/>
<path d="M58.8335 12.7537V19.2787H35.8566H18.8023L-0.816506 32.4254H-6.78711V28.4913L11.9206 16.0342L-6.78711 3.53544V-0.359375H-0.756512L18.8023 12.7593H35.8566V12.7521L58.8335 12.7537Z" fill="#007646"/>
<path d="M19.5103 10.5283H42.4616V-0.359375H3.08398L19.5103 10.5283Z" fill="#D92C23"/>
</g>
</g>
<defs>
<clipPath id="clip0_583_7318">
<rect width="32" height="31.9968" fill="white"/>
</clipPath>
</defs>
</svg>
