<svg width="32" height="32" viewBox="0 0 32 32" fill="none" xmlns="http://www.w3.org/2000/svg">
<g clip-path="url(#clip0_583_7123)">
<mask id="mask0_583_7123" style="mask-type:luminance" maskUnits="userSpaceOnUse" x="0" y="0" width="33" height="32">
<path d="M16.0055 0H15.6511C11.8107 0.080008 9.83609 0.381638 8.00951 1.0105C6.2417 1.61723 4.65046 2.64985 3.37624 4.0172C2.31761 5.24607 1.50713 6.66842 0.989605 8.20562C0.380124 10.1319 0.0566451 12.1372 0.0295092 14.1574C0.00390668 14.9519 0.00390625 15.0615 0.00390625 16.0016C0.00390625 16.9417 0.00390668 17.0505 0.0295092 17.8418C0.0566477 19.8623 0.380125 21.8678 0.989605 23.7944C1.50694 25.3317 2.31745 26.754 3.37624 27.9828C4.65037 29.3504 6.24162 30.3833 8.00951 30.9903C9.83609 31.6192 11.8091 31.9208 15.6511 32.0008H16.3599C20.2003 31.9208 22.1733 31.6192 23.9999 30.9903C25.7684 30.3836 27.3604 29.351 28.6356 27.9836C29.6918 26.7548 30.5006 25.3334 31.0174 23.7976C31.6265 21.8709 31.95 19.8654 31.9775 17.845C32.0039 17.0505 32.0039 16.9409 32.0039 16.0048C32.0039 15.0687 32.0039 14.9551 31.9775 14.1606C31.95 12.1404 31.6265 10.1352 31.0174 8.20882C30.4995 6.67196 29.6894 5.24972 28.6316 4.0204C27.3564 2.65301 25.7644 1.62041 23.9959 1.0137C22.1733 0.381638 20.2011 0.0792079 16.3599 0H16.0055Z" fill="white"/>
</mask>
<g mask="url(#mask0_583_7123)">
<path d="M-8.63316 -0.45605L-8.66602 32.3984L40.6557 32.4478L40.6886 -0.406729L-8.63316 -0.45605Z" fill="#FF3C30"/>
<path d="M24.5814 13.6281L18.4208 13.6217L18.4272 7.82591L13.6347 7.82031L13.6283 13.6161L7.46769 13.6089L7.46289 18.4038L13.6235 18.4102L13.6163 24.2059L18.4096 24.2108L18.416 18.4158L24.5766 18.4214L24.5814 13.6281Z" fill="white"/>
</g>
</g>
<defs>
<clipPath id="clip0_583_7123">
<rect width="32" height="32.0008" fill="white" transform="translate(0.00390625)"/>
</clipPath>
</defs>
</svg>
