<svg width="32" height="32" viewBox="0 0 32 32" fill="none" xmlns="http://www.w3.org/2000/svg">
<g clip-path="url(#clip0_583_8230)">
<mask id="mask0_583_8230" style="mask-type:luminance" maskUnits="userSpaceOnUse" x="0" y="0" width="32" height="33">
<path d="M15.9996 0.0078125H15.6452C11.8051 0.0878145 9.83145 0.389422 8.005 1.01744C6.23705 1.62482 4.6457 2.65788 3.37128 4.02551C2.3127 5.25426 1.50227 6.67652 0.984825 8.21362C0.375792 10.1396 0.0523468 12.1444 0.0248007 14.1642C1.10271e-07 14.9586 0 15.069 0 16.0082C0 16.9474 1.10271e-07 17.0578 0.0248007 17.8483C0.0522803 19.8683 0.375727 21.8734 0.984825 23.7996C1.50209 25.3368 2.31253 26.7591 3.37128 27.9877C4.64514 29.3557 6.23671 30.3883 8.005 30.9942C9.83145 31.623 11.8035 31.9254 15.6452 32.0054H16.354C20.1941 31.9254 22.1678 31.623 23.9942 30.9942C25.7625 30.3879 27.3543 29.3553 28.6287 27.9877C29.6872 26.759 30.4974 25.3367 31.0144 23.7996C31.6235 21.8734 31.9469 19.8683 31.9744 17.8483C32 17.0538 32 16.945 32 16.0082C32 15.0714 32 14.9586 31.9744 14.1642C31.9469 12.1444 31.6234 10.1396 31.0144 8.21362C30.4972 6.67656 29.687 5.25431 28.6287 4.02551C27.3534 2.65934 25.7619 1.62746 23.9942 1.02064C22.1678 0.389422 20.1957 0.0878145 16.354 0.0078125H15.9996Z" fill="white"/>
</mask>
<g mask="url(#mask0_583_8230)">
<path d="M-8.18164 -0.101562H24.0592L-8.18164 32.1144V-0.101562Z" fill="#00953A"/>
<path d="M-8.18164 32.1144L24.0592 -0.101562H40.1796L7.93876 32.1144H-8.18164Z" fill="#FFDE36"/>
<path d="M40.1811 -0.101562V32.1144H7.93945L40.1811 -0.101562Z" fill="#FF1F19"/>
</g>
</g>
<defs>
<clipPath id="clip0_583_8230">
<rect width="32" height="31.9976" fill="white" transform="translate(0 0.0078125)"/>
</clipPath>
</defs>
</svg>
