<svg width="32" height="32" viewBox="0 0 32 32" fill="none" xmlns="http://www.w3.org/2000/svg">
<g clip-path="url(#clip0_583_7237)">
<mask id="mask0_583_7237" style="mask-type:luminance" maskUnits="userSpaceOnUse" x="-1" y="0" width="33" height="32">
<path d="M15.9961 0H15.6417C11.8017 0.080016 9.82889 0.382477 8.00169 1.0114C6.23356 1.6177 4.6419 2.65017 3.36729 4.0176C2.30904 5.24665 1.49891 6.66914 0.981694 8.20644C0.372592 10.1335 0.049155 12.1395 0.0216942 14.1604C-0.00390582 14.9542 -0.00390625 15.0646 -0.00390625 16.0008C-0.00390625 16.937 -0.00390582 17.0506 0.0216942 17.8412C0.049173 19.8616 0.372611 21.867 0.981694 23.7936C1.49854 25.331 2.30871 26.7536 3.36729 27.9824C4.64159 29.3506 6.23331 30.3836 8.00169 30.9902C9.82889 31.6183 11.8001 31.92 15.6417 32H16.3505C20.1905 31.92 22.1633 31.6183 23.9905 30.9902C25.7589 30.3836 27.3506 29.3506 28.6249 27.9824C29.6835 26.7536 30.4937 25.331 31.0105 23.7936C31.6192 21.8669 31.9426 19.8615 31.9705 17.8412C31.9961 17.0474 31.9961 16.937 31.9961 16.0008C31.9961 15.0646 31.9961 14.951 31.9705 14.1604C31.9426 12.1396 31.6192 10.1336 31.0105 8.20644C30.4933 6.66914 29.6832 5.24665 28.6249 4.0176C27.3503 2.65017 25.7586 1.6177 23.9905 1.0114C22.1625 0.384077 20.1913 0.080016 16.3497 0H15.9961Z" fill="white"/>
</mask>
<g mask="url(#mask0_583_7237)">
<path d="M52.0882 -1.52344H-7.12305V32.9947H52.0882V-1.52344Z" fill="white"/>
<path fill-rule="evenodd" clip-rule="evenodd" d="M8.0918 -1.52344L16.7318 1.92765L8.0918 5.37874L16.7318 8.83304L8.0918 12.2833L16.7318 15.7336L8.0918 19.1879L16.7318 22.6382L8.0918 26.0901L16.7318 29.5444L8.0918 32.9947H52.0918V-1.52344H8.0918Z" fill="#BC0030"/>
<path d="M8.16544 1.48251L8.16581 1.48238C9.92036 0.878509 11.833 0.579728 15.6482 0.5H16.3464C20.1622 0.579723 22.0733 0.878467 23.8304 1.48238C25.5169 2.06287 27.035 3.04886 28.2512 4.35362C29.2633 5.5303 30.0386 6.89149 30.5345 8.36235C31.1278 10.2409 31.4429 12.1962 31.4697 14.166L31.4696 14.166L31.47 14.1758C31.4961 14.9619 31.4961 15.0694 31.4961 16.0001V16.0032V16.0065C31.4961 16.9369 31.4961 17.0405 31.47 17.8266L31.4699 17.8266L31.4697 17.8364C31.4429 19.8065 31.1278 21.7621 30.5345 23.6409C30.0388 25.112 29.2635 26.4734 28.2513 27.6502C27.0341 28.9539 25.5153 29.9385 23.8284 30.5175L23.828 30.5176C22.0734 31.1215 20.1616 31.4203 16.3464 31.5H15.6481C11.8315 31.4211 9.92042 31.1215 8.16581 30.5176L8.16537 30.5175C6.4786 29.9387 4.96002 28.954 3.74329 27.6502C2.72984 26.4725 1.95347 25.11 1.45692 23.6377C0.863914 21.7588 0.548819 19.8032 0.521643 17.8331H0.521729L0.521429 17.8238C0.496094 17.0407 0.496094 16.9363 0.496094 16.0031V16V15.9967C0.496094 15.064 0.496094 14.9592 0.52378 14.1736L0.523895 14.1736L0.524043 14.1629C0.551283 12.1931 0.86637 10.2378 1.4593 8.3592C1.95574 6.88844 2.73128 5.52732 3.74337 4.35048C4.96005 3.04649 6.47862 2.06158 8.16544 1.48251Z" stroke="#F6F6F6"/>
</g>
</g>
<defs>
<clipPath id="clip0_583_7237">
<rect width="32" height="32" fill="white" transform="translate(-0.00390625)"/>
</clipPath>
</defs>
</svg>
