<svg width="24" height="24" viewBox="0 0 24 24" fill="none" xmlns="http://www.w3.org/2000/svg">
<g clip-path="url(#clip0_8918_95365)">
<mask id="mask0_8918_95365" style="mask-type:luminance" maskUnits="userSpaceOnUse" x="0" y="0" width="24" height="24">
<path d="M11.9997 0H11.7339C8.85398 0.0599985 7.37442 0.286193 6.00405 0.757781C4.67833 1.21307 3.48492 1.98738 2.52894 3.01252C1.73501 3.93415 1.1274 5.00103 0.739781 6.15405C0.282709 7.59836 0.0401296 9.10196 0.0197995 10.6167C-4.47024e-09 11.2131 0 11.2953 0 12.0003C0 12.7053 -4.47024e-09 12.7863 0.0197995 13.3803C0.0401508 14.8954 0.282729 16.3994 0.739781 17.8442C1.12774 18.997 1.73531 20.0638 2.52894 20.9857C3.48513 22.0104 4.67849 22.7845 6.00405 23.2398C7.37442 23.712 8.85278 23.9382 11.7339 23.9976H12.2661C15.146 23.9376 16.6262 23.712 17.996 23.2398C19.3217 22.7848 20.5151 22.0107 21.4711 20.9857C22.2647 20.0638 22.8725 18.997 23.2608 17.8442C23.7173 16.3993 23.9599 14.8954 23.9808 13.3803C24 12.7845 24 12.7029 24 12.0003C24 11.2977 24 11.2131 23.9808 10.6167C23.9599 9.10201 23.7173 7.59851 23.2608 6.15405C22.8725 5.00108 22.2645 3.93426 21.4705 3.01252C20.5147 1.98714 19.3212 1.21278 17.9953 0.757781C16.6256 0.286193 15.146 0.0593985 12.2661 0H11.9997Z" fill="white"/>
</mask>
<g mask="url(#mask0_8918_95365)">
<path d="M30.0925 -0.0527344H-6.09375V5.97352H30.0925V-0.0527344Z" fill="#EE161F"/>
<path d="M30.0925 18.0269H-6.09375V24.0531H30.0925V18.0269Z" fill="#EE161F"/>
<path d="M30.0925 5.97363H-6.09375V18.0267H30.0925V5.97363Z" fill="white"/>
<path d="M11.8347 5.97314C11.7147 6.56293 10.2442 7.35311 10.4932 7.55411C10.6132 7.42211 10.9372 7.5973 10.7482 7.7395C10.56 7.86927 10.3627 7.98517 10.1578 8.08629C9.79358 8.29029 9.39159 8.51108 10.0714 8.59568C10.2178 8.75228 10.0114 9.01567 9.81638 8.95567C9.70032 8.9735 9.59143 9.02305 9.50176 9.09886C9.41208 9.17466 9.34509 9.27378 9.30819 9.38526C9.199 9.72485 7.16025 10.3608 8.16522 10.596C8.59421 10.4208 9.2116 10.3074 9.0394 10.9974C8.78801 11.682 7.94143 11.6196 7.53524 12.1308C7.36691 12.3108 7.18454 12.4771 6.98985 12.6282C7.01745 13.2696 7.77883 12.6828 8.04703 12.5154C8.63621 12.3816 8.56481 13.2312 8.06083 13.2894C7.51957 13.5759 7.03102 13.9525 6.61606 14.4029C6.52906 14.5829 6.28907 14.5283 6.16007 14.6525C6.07548 14.8091 6.28667 14.8925 6.41327 14.8763C7.13841 14.7212 7.83295 14.4473 8.46882 14.0657C9.99038 14.3153 7.34804 15.2171 6.94485 15.2891C6.74266 15.2327 6.59026 15.5927 6.81226 15.6569C7.05116 15.7043 7.29686 15.7061 7.53644 15.6623C8.25606 15.4769 8.95456 15.2175 9.62079 14.8883C11.3007 14.7737 10.1194 16.8683 9.2836 17.2571C8.95751 17.3619 8.64695 17.5101 8.36022 17.6975C8.12022 17.7773 8.48021 18.1036 8.53421 17.8444C8.61338 17.7555 8.71151 17.6854 8.82138 17.6394C8.93125 17.5934 9.05004 17.5726 9.169 17.5787C10.4938 17.5043 10.129 16.6019 11.5251 16.8587C11.6877 16.7849 11.9421 16.8281 11.9847 17.0279C12.0621 17.2613 12.3033 17.3675 12.4941 17.4923C12.5631 17.5895 12.7941 17.8396 12.8457 17.6189C12.7137 16.9217 14.0163 17.4071 14.1789 17.7707C14.2725 17.8996 14.4789 18.1216 14.6301 17.9506C14.8017 17.5625 13.2471 17.0267 13.2537 16.1147C13.2123 15.6407 13.0683 14.4155 13.8747 14.7059C15.5846 15.5423 15.626 14.3345 17.7086 15.8345C18.9086 15.6491 16.2326 14.3945 15.9614 14.1701C15.9154 14.1534 15.875 14.1241 15.8448 14.0856C15.8145 14.0472 15.7956 14.001 15.7902 13.9523C15.7847 13.9037 15.793 13.8545 15.814 13.8103C15.8351 13.7661 15.8681 13.7286 15.9092 13.7022C16.4036 13.3554 16.8176 14.0159 17.3204 13.9781C17.5406 13.9091 17.4338 13.5912 17.237 13.5672C16.676 13.2672 16.3538 12.573 15.7028 12.441C15.5718 12.418 15.4384 12.4112 15.3056 12.4206C15.1814 12.2856 15.347 12.0792 15.5078 12.096C15.7574 12.06 17.123 12.2382 16.8662 11.814C16.3893 11.6229 15.895 11.4786 15.3902 11.3832C15.1676 11.37 15.1952 11.0772 15.3902 11.0448C15.716 11.0634 16.0502 11.178 16.3886 11.2008C16.8356 10.9254 15.4232 10.509 15.2402 10.2204C14.8863 9.95405 14.5647 9.64685 14.2065 9.38646C13.8381 9.30786 13.6245 8.87287 14.1465 8.90647C14.4715 9.06313 14.8252 9.15135 15.1856 9.16567C15.3764 9.04567 15.1041 8.97007 15.0057 8.92867C14.7576 8.78281 14.5211 8.61813 14.2983 8.43608C14.1057 8.27109 14.4621 8.19609 14.5851 8.26209C14.7897 8.34789 14.8131 8.04909 14.6601 7.97409C13.4565 6.97872 12.3885 7.5643 11.8329 5.97434M10.4938 8.26029C10.7038 8.26689 10.6738 8.64548 10.465 8.62028C10.264 8.60708 10.276 8.22009 10.4938 8.26029ZM12.4737 8.46428C12.6783 8.42768 12.7215 8.80087 12.5175 8.81827C12.3045 8.85607 12.2259 8.44088 12.4737 8.46428ZM11.8935 8.51288C12.3483 8.77028 11.6445 9.10027 11.3817 8.97787C11.2557 8.84467 11.4375 8.64788 11.5779 8.60468C11.6859 8.58308 11.7849 8.53448 11.8935 8.51288ZM13.2297 8.51288C13.2712 8.53593 13.3044 8.57153 13.3244 8.61456C13.3445 8.6576 13.3504 8.70588 13.3413 8.75249C13.3323 8.7991 13.3087 8.84165 13.274 8.87405C13.2393 8.90645 13.1952 8.92704 13.1481 8.93287C12.8229 8.92207 12.9189 8.44988 13.2297 8.51288ZM10.975 8.91247C11.2593 9.19806 10.6612 9.67025 10.4038 9.48966C10.3312 9.19986 10.747 8.99407 10.975 8.91247ZM12.6549 9.69245C12.6981 9.72149 12.7311 9.76336 12.7492 9.81217C12.7674 9.86097 12.7697 9.91424 12.7559 9.96444C12.7421 10.0146 12.7129 10.0592 12.6724 10.0919C12.6319 10.1246 12.5821 10.1438 12.5301 10.1466C12.2643 10.0302 12.4437 9.74105 12.6573 9.69185M11.9901 9.72965C12.1869 9.82145 12.0363 10.1496 11.8383 10.1022C11.5383 9.98225 11.7123 9.70385 11.9901 9.72965ZM13.4301 9.91745C13.4838 9.9036 13.5401 9.90356 13.5938 9.91732C13.6475 9.93109 13.6969 9.95821 13.7373 9.99617C13.7777 10.0341 13.8079 10.0817 13.825 10.1344C13.8421 10.1872 13.8455 10.2434 13.8351 10.2978C13.4991 10.815 12.6159 10.0356 13.4301 9.91745ZM10.2448 9.97385C10.8268 9.91385 10.3222 10.7328 9.98858 10.3404C9.89318 10.1808 10.0462 9.91205 10.2436 9.97444L10.2448 9.97385ZM9.42219 10.1118C9.51758 10.1362 9.60519 10.1845 9.67677 10.2521C9.74836 10.3197 9.80156 10.4044 9.83138 10.4982C9.71018 11.2338 8.68181 10.128 9.42099 10.1124L9.42219 10.1118ZM14.3421 10.8822C14.3935 10.8748 14.446 10.8843 14.4916 10.9093C14.5373 10.9342 14.5735 10.9734 14.595 11.0207C14.6164 11.0681 14.6219 11.1212 14.6106 11.172C14.5993 11.2227 14.5718 11.2684 14.5323 11.3022C14.2029 11.5512 13.8789 10.9266 14.3427 10.8828L14.3421 10.8822ZM11.5479 11.2818C11.7321 11.3052 11.6727 11.6238 11.5023 11.613C11.3223 11.5794 11.3613 11.2638 11.5479 11.2818ZM10.6144 11.451C10.765 11.3448 10.9582 11.604 10.8334 11.7246C10.684 11.8302 10.4896 11.5752 10.6144 11.451ZM12.0987 11.4822C12.5925 11.7552 12.3441 12.4506 11.9559 11.9274C11.9248 11.8481 11.922 11.7605 11.948 11.6794C11.974 11.5982 12.0273 11.5286 12.0987 11.4822ZM12.6171 11.79C12.8415 11.7336 12.7605 12.2022 12.5733 12.0396C12.547 12.0004 12.5369 11.9525 12.545 11.906C12.5532 11.8595 12.579 11.8179 12.6171 11.79ZM9.36339 12.1158C9.51219 12.0726 9.72818 12.1158 9.76958 12.2886C9.70958 12.6342 9.1432 12.6834 8.85041 12.726C8.22702 12.1776 8.84741 12.1068 9.36339 12.1158ZM14.4105 12.8496C15.1904 12.9216 14.2605 13.7076 13.8273 13.2768C13.7979 12.972 14.1723 12.873 14.4105 12.8496ZM15.4748 13.08C16.1846 13.2 15.4238 14.0207 15.0153 13.6056C14.9067 13.3104 15.2552 13.1658 15.4748 13.08ZM10.1224 13.4064C10.5208 13.3212 10.6936 14.2499 10.2226 14.0399C10.141 13.9097 9.95198 13.4862 10.1224 13.4064ZM11.6523 13.521C11.8581 13.4322 12.1245 13.6782 12.0123 13.8869C11.7657 14.1911 11.5269 13.7796 11.6529 13.5216L11.6523 13.521ZM10.9078 13.6542C10.9576 13.6477 11.0082 13.655 11.0542 13.6752C11.1002 13.6954 11.1398 13.7277 11.1688 13.7688C11.1977 13.8098 11.2149 13.858 11.2185 13.9081C11.2221 13.9582 11.212 14.0084 11.1891 14.0531C10.9834 14.0711 10.876 13.8269 10.9078 13.6542Z" fill="#007A50"/>
</g>
</g>
<defs>
<clipPath id="clip0_8918_95365">
<rect width="24" height="23.9976" fill="white"/>
</clipPath>
</defs>
</svg>
