<svg width="32" height="32" viewBox="0 0 32 32" fill="none" xmlns="http://www.w3.org/2000/svg">
<g clip-path="url(#clip0_583_7431)">
<mask id="mask0_583_7431" style="mask-type:luminance" maskUnits="userSpaceOnUse" x="0" y="0" width="32" height="32">
<path d="M15.9992 0H15.6448C11.8052 0.079992 9.83262 0.381562 8.0048 1.0103C6.23731 1.61682 4.64636 2.64925 3.37246 4.0164C2.31438 5.24496 1.50409 6.6667 0.986301 8.20318C0.377731 10.1298 0.0543379 12.1351 0.0263974 14.1554C-5.95987e-09 14.9497 0 15.0585 0 15.9952C0 16.9319 -5.95987e-09 17.0439 0.0263974 17.839C0.0542872 19.8588 0.377683 21.8636 0.986301 23.7896C1.50318 25.3268 2.31356 26.7489 3.37246 27.9772C4.64618 29.3459 6.23744 30.3797 8.0056 30.9873C9.83342 31.6168 11.8052 31.9176 15.6456 31.9976H16.3552C20.1948 31.9176 22.1674 31.6168 23.9944 30.9873C25.7623 30.3807 27.3535 29.348 28.6275 27.9804C29.6862 26.7519 30.4965 25.3298 31.0137 23.7928C31.6219 21.8667 31.9453 19.8619 31.9736 17.8422C32 17.0471 32 16.9383 32 15.9984C32 15.0585 32 14.9497 31.9736 14.1586C31.9453 12.1384 31.6219 10.1331 31.0137 8.20638C30.4956 6.67004 29.6853 5.24835 28.6275 4.0196C27.3535 2.65226 25.7622 1.61982 23.9944 1.0135C22.1674 0.384762 20.1956 0.0831917 16.3552 0.00319973L15.9992 0Z" fill="white"/>
</mask>
<g mask="url(#mask0_583_7431)">
<path d="M54.1618 -0.742188H-5.72266V39.1506H54.1618V-0.742188Z" fill="#F20000"/>
<path d="M16.2314 -1.36719H-8.3125V14.9816H16.2314V-1.36719Z" fill="#0029CC"/>
<path d="M11.7856 9.17402C11.8752 8.75776 11.8752 8.32721 11.7856 7.91095L14.1445 8.54208L11.7856 9.17402ZM11.5008 3.96574L9.77299 5.69117C10.1789 5.8217 10.5523 6.03742 10.8681 6.32391L11.5008 3.96574ZM11.7088 7.62698L13.4358 5.89995L11.0753 6.53189C11.3623 6.84742 11.5783 7.22085 11.7088 7.62698ZM11.0753 10.5491L13.4358 11.181L11.7088 9.45479C11.578 9.86052 11.362 10.2336 11.0753 10.5491ZM9.48821 5.61598L8.85628 3.25781L8.22434 5.61598C8.64087 5.52639 9.07169 5.52639 9.48821 5.61598ZM8.22434 11.469L8.85628 13.8288L9.48821 11.4714C9.07169 11.561 8.64087 11.561 8.22434 11.4714M5.85978 8.54448C5.85913 8.33101 5.88139 8.11808 5.92617 7.90935L3.56641 8.54048L5.92617 9.17242C5.88118 8.96478 5.85839 8.75294 5.85818 8.54048M6.21094 13.1168L7.93797 11.3906C7.53232 11.2599 7.15905 11.0445 6.84288 10.7587L6.21094 13.1168ZM6.6357 6.53029L4.27514 5.89835L6.00616 7.62698C6.13661 7.22085 6.35265 6.84742 6.6397 6.53189M6.00616 9.45799L4.27913 11.1842L6.6397 10.5523C6.35299 10.2368 6.13699 9.86372 6.00616 9.45799ZM9.77539 11.3922L11.5032 13.1184L10.8705 10.7603C10.5544 11.0462 10.1811 11.2617 9.77539 11.3922ZM7.93957 5.69117L6.21254 3.96574L6.84448 6.32391C7.16041 6.03758 7.53373 5.82188 7.93957 5.69117ZM8.85628 5.89995C8.33439 5.9009 7.8245 6.05652 7.39103 6.34716C6.95756 6.63779 6.61996 7.05039 6.4209 7.53282C6.22184 8.01525 6.17025 8.54587 6.27265 9.05761C6.37504 9.56935 6.62683 10.0393 6.9962 10.408C7.36556 10.7766 7.83593 11.0276 8.34785 11.129C8.85978 11.2305 9.3903 11.178 9.87236 10.978C10.3544 10.7781 10.7664 10.4397 11.0563 10.0057C11.3461 9.57175 11.5008 9.06157 11.5008 8.53968C11.4991 7.83927 11.2198 7.1681 10.7241 6.67328C10.2284 6.17847 9.55669 5.90037 8.85628 5.89995Z" fill="white"/>
</g>
</g>
<defs>
<clipPath id="clip0_583_7431">
<rect width="32" height="31.9976" fill="white"/>
</clipPath>
</defs>
</svg>
