<svg width="32" height="32" viewBox="0 0 32 32" fill="none" xmlns="http://www.w3.org/2000/svg">
<g clip-path="url(#clip0_8918_95409)">
<mask id="mask0_8918_95409" style="mask-type:luminance" maskUnits="userSpaceOnUse" x="0" y="0" width="32" height="32">
<path d="M15.9996 0H15.6453C11.8059 0.08 9.83428 0.3808 8.0066 1.0104C6.2378 1.6164 4.64554 2.64897 3.37061 4.0168C2.31246 5.24541 1.5027 6.66769 0.986228 8.2048C0.376587 10.1308 0.0531888 12.136 0.0263954 14.156C-5.95942e-09 14.9504 0 15.06 0 16.0008C0 16.9416 -5.95942e-09 17.0488 0.0263954 17.8408C0.0531915 19.8611 0.376589 21.8665 0.986228 23.7928C1.5027 25.3304 2.31245 26.7532 3.37061 27.9824C4.64639 29.3509 6.23979 30.3838 8.0098 30.9896C9.83748 31.6192 11.8075 31.9208 15.6485 32H16.3571C20.1965 31.92 22.1697 31.6192 23.9958 30.9896C25.7639 30.3837 27.3552 29.3508 28.6286 27.9824C29.6866 26.754 30.4969 25.3324 31.0146 23.796C31.6231 21.8694 31.9464 19.8642 31.9744 17.844C32 17.0488 32 16.94 32 16.004C32 15.068 32 14.9536 31.9744 14.1592C31.9464 12.1393 31.623 10.1343 31.0146 8.208C30.4966 6.66956 29.6853 5.2462 28.6254 4.0168C27.3519 2.64872 25.7606 1.61606 23.9926 1.0104C22.1673 0.3808 20.1957 0.08 16.3539 0H15.9996Z" fill="white"/>
</mask>
<g mask="url(#mask0_8918_95409)">
<path d="M41.2259 10.7856H-8.30859V21.7872H41.2259V10.7856Z" fill="white"/>
<path d="M41.2259 21.7871H-8.30859V32.7887H41.2259V21.7871Z" fill="#DA0D15"/>
<path d="M41.2279 -0.215332H-8.30664V10.7863H41.2279V-0.215332Z" fill="#219E3F"/>
<path d="M38.5367 22.8351H38.7614V23.6247H37.6416V23.1007H36.9641V23.6247H36.7402V22.8383H37.86V23.3623H38.5319V23.1007H38.0839V22.8383H38.5319L38.5367 22.8351ZM37.1921 23.6215H37.4161V23.3599H37.1921V23.6215ZM39.2093 22.5735H39.6573V22.3119H36.7442V22.5735H39.2093ZM37.1921 22.0495H38.7614V21.7847H36.7442V22.0463H37.1921V22.0495ZM40.7787 21.7879H38.9854V22.0495H41.0026V21.7847L40.7787 21.7879ZM40.7787 22.5735V23.3591H40.5539V22.3119H40.3299V23.3591H40.106V22.3119H39.882V22.8351H38.9854V23.6247H39.6573V23.3623H39.2093V23.1007H39.882V23.6247H41.0018V22.3119H40.7779L40.7787 22.5735ZM33.8303 22.8351H33.6047V23.0975H34.0534V23.3591H33.3808V22.8351H32.261V23.6247H32.4849V23.1007H33.1576V23.6247H34.2774V22.8383H33.8295L33.8303 22.8351ZM32.7105 23.6215H32.9344V23.3599H32.7105V23.6215ZM34.7277 22.5735H35.1756V22.3119H32.261V22.5735H34.7245H34.7277ZM32.7105 22.0495H34.279V21.7847H32.261V22.0463H32.7097L32.7105 22.0495ZM36.2962 21.7879H34.5022V22.0495H36.5194V21.7847L36.2962 21.7879ZM36.2962 22.5735V23.3591H36.0723V22.3119H35.8443V23.3591H35.6196V22.3119H35.3956V22.8351H34.5022V23.6247H35.1748V23.3623H34.7245V23.1007H35.3964V23.6247H36.5162V22.3119H36.2922L36.2962 22.5735ZM29.3479 22.8351H29.1255V23.0975H29.5734V23.3591H28.9015V22.8351H27.7817V23.6247H28.0057V23.1007H28.6776V23.6247H29.7974V22.8383H29.3487L29.3479 22.8351ZM28.2281 23.6215H28.452V23.3599H28.2281V23.6215ZM30.2453 22.5735H30.694V22.3119H27.7785V22.5735H30.2453ZM28.2281 22.0495H29.7974V21.7847H27.7785V22.0463H28.2265L28.2281 22.0495ZM31.813 21.7847H30.0197V22.0463H32.037V21.7847H31.813ZM31.813 22.5703V23.3559H31.5883V22.3119H31.3651V23.3591H31.1412V22.3119H30.9172V22.8351H30.0197V23.6247H30.6924V23.3623H30.2453V23.1007H30.918V23.6247H32.0378V22.3119H31.8138L31.813 22.5703ZM24.8647 22.8319H24.6407V23.0943H25.0886V23.3559H24.4159V22.8319H23.2961V23.6247H23.5201V23.1007H24.1928V23.6247H25.3126V22.8383H24.8647V22.8319ZM23.7448 23.6183H23.9688V23.3567H23.7448V23.6183ZM25.7621 22.5703H26.21V22.3087H23.2953V22.5703H25.7621ZM23.7448 22.0463H25.3134V21.7847H23.2953V22.0463H23.744H23.7448ZM27.3306 21.7847H25.5365V22.0463H27.5538V21.7847H27.3306ZM27.3306 22.5703V23.3559H27.1067V22.3119H26.8827V23.3591H26.6587V22.3119H26.434V22.8351H25.5365V23.6247H26.2092V23.3623H25.7613V23.1007H26.4332V23.6247H27.553V22.3119H27.329L27.3306 22.5703ZM20.3822 22.8319H20.1583V23.0943H20.607V23.3559H19.9343V22.8319H18.8145V23.6247H19.0385V23.1007H19.7112V23.6247H20.831V22.8383H20.3822V22.8319ZM19.2624 23.6183H19.4864V23.3567H19.2624V23.6183ZM21.2797 22.5703H21.7284V22.3087H18.8129V22.5703H21.2781H21.2797ZM19.2624 22.0463H20.8318V21.7847H18.8129V22.0463H19.2608H19.2624ZM22.849 21.7847H21.0541V22.0463H23.0714V21.7847H22.849ZM22.849 22.5703V23.3559H22.625V22.3119H22.3987V23.3591H22.1747V22.3119H21.9508V22.8351H21.0541V23.6247H21.7268V23.3623H21.2781V23.1007H21.9508V23.6247H23.0706V22.3119H22.8466L22.849 22.5703ZM15.9006 22.8319H15.6767V23.0943H16.1246V23.3559H15.4479V22.8319H14.3281V23.6247H14.5521V23.1007H15.2247V23.6247H16.3445V22.8383H15.8966L15.9006 22.8319ZM14.7808 23.6183H15.0048V23.3567H14.7808V23.6183ZM16.7981 22.5703H17.246V22.3087H14.3281V22.5703H16.7941H16.7981ZM14.7808 22.0463H16.3493V21.7847H14.3281V22.0463H14.7768H14.7808ZM18.3666 21.7847H16.5677V22.0463H18.5857V21.7847H18.3666ZM18.3666 22.5703V23.3559H18.1426V22.3119H17.9187V23.3591H17.6947V22.3119H17.4699V22.8351H16.5677V23.6247H17.2404V23.3623H16.7925V23.1007H17.4643V23.6247H18.5841V22.3119H18.3594L18.3666 22.5703ZM11.4182 22.8319H11.1942V23.0943H11.643V23.3559H10.9687V22.8319H9.84888V23.6247H10.0728V23.1007H10.7455V23.6247H11.8653V22.8383H11.4166L11.4182 22.8319ZM10.2984 23.6183H10.5224V23.3567H10.2984V23.6183ZM12.3156 22.5703H12.7644V22.3087H9.84888V22.5703H12.3124H12.3156ZM10.2984 22.0463H11.8645V21.7847H9.84888V22.0463H10.2968H10.2984ZM13.885 21.7847H12.0885V22.0463H14.1057V21.7847H13.885ZM13.885 22.5703V23.3559H13.661V22.3119H13.4362V23.3591H13.2083V22.3119H12.9843V22.8351H12.0885V23.6247H12.7612V23.3623H12.3124V23.1007H12.9851V23.6247H14.1049V22.3119H13.881L13.885 22.5703ZM6.93659 22.8319H6.71262V23.0943H7.16055V23.3559H6.48786V22.8319H5.36806V23.6247H5.59282V23.1007H6.2647V23.6247H7.38451V22.8383H6.93659V22.8319ZM5.81678 23.6183H6.04074V23.3567H5.81678V23.6183ZM7.83403 22.5703H8.28195V22.3087H5.36406V22.5703H7.83003H7.83403ZM5.81678 22.0463H7.38531V21.7847H5.36406V22.0463H5.81278H5.81678ZM9.40256 21.7847H7.60927V22.0463H9.62652V21.7847H9.40256ZM9.40256 22.5703V23.3559H9.17859V22.3119H8.95463V23.3591H8.72907V22.3119H8.50431V22.8351H7.60927V23.6247H8.28115V23.3623H7.83323V23.1007H8.50511V23.6247H9.62492V22.3119H9.40015L9.40256 22.5703ZM2.45417 22.8319H2.23021V23.0943H2.67893V23.3559H2.00225V22.8319H0.882446V23.6247H1.10641V23.1007H1.77909V23.6247H2.89889V22.8383H2.45017L2.45417 22.8319ZM1.33437 23.6183H1.55833V23.3567H1.33437V23.6183ZM3.35161 22.5703H3.80033V22.3087H0.881647V22.5703H3.34682H3.35161ZM1.33437 22.0463H2.90369V21.7847H0.881647V22.0463H1.32957H1.33437ZM4.92094 21.7847H3.12285V22.0463H5.1401V21.7847H4.92094ZM4.92094 22.5703V23.3559H4.69698V22.3119H4.47222V23.3591H4.24826V22.3119H4.0243V22.8351H3.12285V23.6247H3.79554V23.3623H3.34682V23.1007H4.0195V23.6247H5.1393V22.3119H4.91534L4.92094 22.5703ZM-2.02744 22.8319H-2.25141V23.0943H-1.80348V23.3559H-2.47537V22.8319H-3.59517V23.6247H-3.37041V23.1007H-2.69853V23.6247H-1.57872V22.8383H-2.02664L-2.02744 22.8319ZM-3.14725 23.6183H-2.92329V23.3567H-3.14725V23.6183ZM-1.13 22.5703H-0.682079V22.3087H-3.60157V22.5703H-1.1356H-1.13ZM-3.14725 22.0463H-1.58432V21.7847H-3.60157V22.0463H-3.15285H-3.14725ZM0.438524 21.7847H-1.35956V22.0463H0.657685V21.7847H0.438524ZM0.438524 22.5703V23.3559H0.214563V22.3119H-0.00939751V23.3591H-0.233358V22.3119H-0.457319V22.8351H-1.35956V23.6247H-0.687678V23.3623H-1.1356V23.1007H-0.462918V23.6247H0.656886V22.3119H0.432125L0.438524 22.5703ZM-6.50986 22.8319H-6.73382V23.0943H-6.2851V23.3559H-6.96338V22.8319H-8.08398V23.6247H-7.86002V23.1007H-7.18814V23.6247H-6.06834V22.8383H-6.51546L-6.50986 22.8319ZM-7.63606 23.6247H-7.4121V23.3631H-7.63606V23.6247ZM-5.61882 22.5767H-5.17009V22.3151H-8.08398V22.5767H-5.61882ZM-7.63606 22.0495H-6.06834V21.7847H-8.08398V22.0463H-7.63606V22.0495ZM-4.04949 21.7847H-5.84278V22.0463H-3.82873V21.7847H-4.04949ZM-4.04949 22.5703V23.3559H-4.27345V22.3119H-4.49741V23.3591H-4.72217V22.3119H-4.94853V22.8351H-5.84278V23.6247H-5.17009V23.3623H-5.61882V23.1007H-4.94853V23.6247H-3.82873V22.3119H-4.05269L-4.04949 22.5703Z" fill="white"/>
<path d="M38.5367 9.47584H38.7614V10.2646H37.6416V9.74064H36.9641V10.2646H36.7402V9.47824H37.86V10.0022H38.5319V9.74064H38.0839V9.47824H38.5319L38.5367 9.47584ZM37.4169 9.99984H37.1929V10.2646H37.4169V9.99984ZM39.2101 9.21424H39.6581V8.95264H36.7442V9.21424H39.2101ZM-4.27345 10.5238H-5.84278V10.7862H-3.82873V10.5238H-4.27665H-4.27345ZM-6.51306 10.5238H-8.08398V10.7862H-6.06834V10.5238H-6.51546H-6.51306ZM40.7787 8.95264V9.99984H40.5539V8.95264H40.3299V9.99984H40.106V8.95264H39.882V9.47584H38.9854V10.2646H39.6573V10.0022H39.2093V9.74064H39.882V10.2646H41.0018V8.95264H40.7787ZM33.8303 9.47584H33.6047V9.73824H34.0534V9.99984H33.3808V9.47584H32.261V10.2646H32.4849V9.74064H33.1576V10.2646H34.2774V9.47824H33.8295L33.8303 9.47584ZM32.9336 9.99984H32.7097V10.2646H32.9336V9.99984ZM34.7269 9.21424H35.1748V8.95264H32.261V9.21424H34.7245H34.7269ZM0.208964 10.5238H-1.35956V10.7862H0.657685V10.5238H0.208964ZM-2.03064 10.5238H-3.60157V10.7862H-1.58432V10.5238H-2.03224H-2.03064ZM36.297 9.21424V9.99984H36.0731V8.95264H35.8443V9.99984H35.6196V8.95264H35.3956V9.47584H34.5022V10.2646H35.1748V10.0022H34.7245V9.74064H35.3964V10.2646H36.5162V8.95264H36.2922L36.297 9.21424ZM29.3487 9.47584H29.1255V9.73824H29.5734V9.99984H28.9015V9.47584H27.7817V10.2646H28.0057V9.74064H28.6776V10.2646H29.7974V9.47824H29.3487V9.47584ZM28.452 9.99984H28.2281V10.2646H28.452V9.99984ZM30.2453 9.21424H30.694V8.95264H27.7785V9.21424H30.2453ZM4.69218 10.5238H3.12285V10.7862H5.1401V10.5238H4.69218ZM2.45257 10.5238H0.881647V10.7862H2.89889V10.5238H2.45017H2.45257ZM31.8154 9.21424V9.99984H31.5907V8.95264H31.3651V9.99984H31.1412V8.95264H30.9172V9.47584H30.0197V10.2646H30.6924V10.0022H30.2453V9.74064H30.918V10.2646H32.0378V8.95264H31.8138L31.8154 9.21424ZM24.8671 9.47584H24.6431V9.73824H25.091V9.99984H24.4183V9.47584H23.2985V10.2646H23.5225V9.74064H24.1952V10.2646H25.315V9.47824H24.8671V9.47584ZM23.9704 9.99984H23.7464V10.2646H23.9704V9.99984ZM25.7637 9.21424H26.2116V8.95264H23.2953V9.21424H25.7613H25.7637ZM9.17459 10.5238H7.60927V10.7862H9.62652V10.5238H9.17779H9.17459ZM6.93499 10.5238H5.36406V10.7862H7.38131V10.5238H6.93339H6.93499ZM27.3314 9.21424V9.99984H27.1075V8.95264H26.8835V9.99984H26.6595V8.95264H26.4348V9.47584H25.5365V10.2646H26.2092V10.0022H25.7613V9.74064H26.4332V10.2646H27.553V8.95264H27.329L27.3314 9.21424ZM20.383 9.47584H20.1591V9.73824H20.6078V9.99984H19.9351V9.47584H18.8153V10.2646H19.0393V9.74064H19.712V10.2646H20.8318V9.47824H20.383V9.47584ZM19.4864 9.99984H19.2624V10.2646H19.4864V9.99984ZM21.2797 9.21424H21.7284V8.95264H18.8129V9.21424H21.2781H21.2797ZM13.6594 10.5238H12.0885V10.7862H14.1057V10.5238H13.6578H13.6594ZM11.4198 10.5238H9.84888V10.7862H11.8645V10.5238H11.4158H11.4198ZM22.8514 9.21424V9.99984H22.6274V8.95264H22.3987V9.99984H22.1747V8.95264H21.9508V9.47584H21.0541V10.2646H21.7268V10.0022H21.2781V9.74064H21.9508V10.2646H23.0706V8.95264H22.8466L22.8514 9.21424ZM15.903 9.47584H15.6791V9.73824H16.127V9.99984H15.4479V9.47584H14.3281V10.2646H14.5521V9.74064H15.2247V10.2646H16.3445V9.47824H15.8966L15.903 9.47584ZM15.0064 9.99984H14.7824V10.2646H15.0064V9.99984ZM16.7997 9.21424H17.2476V8.95264H14.3281V9.21424H16.7941H16.7997ZM18.1442 10.5238H16.5677V10.7862H18.5857V10.5238H18.137H18.1442ZM15.9046 10.5238H14.3281V10.7862H16.3453V10.5238H15.8974H15.9046ZM18.3698 9.21424V9.99984H18.1458V8.95264H17.9219V9.99984H17.6979V8.95264H17.4731V9.47584H16.5677V10.2646H17.2404V10.0022H16.7925V9.74064H17.4643V10.2646H18.5841V8.95264H18.3594L18.3698 9.21424ZM11.4214 9.47584H11.1974V9.73824H11.6462V9.99984H10.9687V9.47584H9.84888V10.2646H10.0728V9.74064H10.7455V10.2646H11.8653V9.47824H11.4166L11.4214 9.47584ZM10.5248 9.99984H10.3008V10.2646H10.5248V9.99984ZM12.318 9.21424H12.7668V8.95264H9.84888V9.21424H12.3124H12.318ZM22.629 10.5238H21.0541V10.7862H23.0714V10.5238H22.6234H22.629ZM20.3894 10.5238H18.8129V10.7862H20.8302V10.5238H20.3814H20.3894ZM13.8898 9.21424V9.99984H13.6658V8.95264H13.441V9.99984H13.2083V8.95264H12.9843V9.47584H12.0885V10.2646H12.7612V10.0022H12.3124V9.74064H12.9851V10.2646H14.1049V8.95264H13.881L13.8898 9.21424ZM6.94139 9.47584H6.71742V9.73824H7.16535V9.99984H6.49266V9.47584H5.37286V10.2646H5.59762V9.74064H6.2695V10.2646H7.38931V9.47824H6.94139V9.47584ZM6.04474 9.99984H5.82078V10.2646H6.04474V9.99984ZM7.83803 9.21424H8.28595V8.95264H5.36406V9.21424H7.83003H7.83803ZM27.1147 10.5238H25.5365V10.7862H27.5538V10.5238H27.1059H27.1147ZM24.875 10.5238H23.2953V10.7862H25.3126V10.5238H24.8647H24.875ZM9.39855 9.21424V9.99984H9.17459V8.95264H8.95063V9.99984H8.72907V8.95264H8.50431V9.47584H7.60927V10.2646H8.28115V10.0022H7.83323V9.74064H8.50511V10.2646H9.62492V8.95264H9.40015L9.39855 9.21424ZM2.45017 9.47584H2.22621V9.73824H2.67493V9.99984H2.00225V9.47584H0.882446V10.2646H1.10641V9.74064H1.77909V10.2646H2.89889V9.47824H2.45017V9.47584ZM1.55433 9.99984H1.33037V10.2646H1.55433V9.99984ZM3.34682 9.21424H3.79554V8.95264H0.881647V9.21424H3.34682ZM31.5883 10.5238H30.0197V10.7862H32.037V10.5238H31.5883ZM29.3487 10.5238H27.7785V10.7862H29.7958V10.5238H29.3471H29.3487ZM4.91614 9.21424V9.99984H4.69218V8.95264H4.46742V9.99984H4.24346V8.95264H4.0195V9.47584H3.12285V10.2646H3.79554V10.0022H3.34682V9.74064H4.0195V10.2646H5.1393V8.95264H4.91534L4.91614 9.21424ZM-2.03224 9.47584H-2.2562V9.73824H-1.80828V9.99984H-2.48017V9.47584H-3.59997V10.2646H-3.37521V9.74064H-2.70333V10.2646H-1.58352V9.47824H-2.03144L-2.03224 9.47584ZM-2.92889 9.99984H-3.15285V10.2646H-2.92889V9.99984ZM-1.1356 9.21424H-0.687678V8.95264H-3.60157V9.21424H-1.1356ZM36.0715 10.5238H34.5022V10.7862H36.5194V10.5238H36.0715ZM33.8319 10.5238H32.261V10.7862H34.2782V10.5238H33.8303H33.8319ZM0.432925 9.21424V9.99984H0.208964V8.95264H-0.0149965V9.99984H-0.238957V8.95264H-0.462918V9.47584H-1.35956V10.2646H-0.687678V10.0022H-1.1356V9.74064H-0.462918V10.2646H0.656886V8.95264H0.432125L0.432925 9.21424ZM-6.51546 9.47584H-6.73942V9.73824H-6.2907V9.99984H-6.96338V9.47584H-8.08398V10.2646H-7.86002V9.74064H-7.18814V10.2646H-6.06834V9.47824H-6.51546V9.47584ZM-7.4113 9.99984H-7.63526V10.2646H-7.4113V9.99984ZM-5.61882 9.21424H-5.17009V8.95264H-8.08398V9.21424H-5.61882ZM40.5539 10.5238H38.9854V10.7862H41.0026V10.5238H40.5539ZM38.3143 10.5238H36.7442V10.7862H38.7614V10.5238H38.3127H38.3143ZM-4.04949 9.21424V9.99984H-4.27345V8.95264H-4.49741V9.99984H-4.72217V8.95264H-4.94853V9.47584H-5.84278V10.2646H-5.17009V10.0022H-5.61882V9.74064H-4.94853V10.2646H-3.82873V8.95264H-4.05269L-4.04949 9.21424Z" fill="white"/>
<path d="M17.0366 18.7143C17.1118 18.6759 17.1854 18.6343 17.2566 18.5919C17.7341 18.3043 18.1344 17.9047 18.4228 17.4275C18.7112 16.9504 18.879 16.4102 18.9118 15.8536C18.9446 15.297 18.8413 14.7409 18.6108 14.2332C18.3804 13.7255 18.0298 13.2816 17.5893 12.9399C18.1665 13.7432 18.4066 14.7405 18.2582 15.7186C18.1098 16.6966 17.5846 17.5778 16.795 18.1735L16.9422 13.1503L16.5207 13.0495L16.4575 13.0343L16.3951 13.0495L15.9736 13.1503L16.1208 18.1735C15.3312 17.5778 14.806 16.6966 14.6576 15.7186C14.5092 14.7405 14.7493 13.7432 15.3265 12.9399C14.886 13.2816 14.5354 13.7255 14.3049 14.2332C14.0745 14.7409 13.9712 15.297 14.004 15.8536C14.0367 16.4102 14.2046 16.9504 14.493 17.4275C14.7814 17.9047 15.1817 18.3043 15.6592 18.5919C15.7312 18.6359 15.8048 18.6719 15.88 18.7143C15.4681 18.8622 15.0338 18.9377 14.5962 18.9375H14.5714C14.8945 19.0356 15.2304 19.0852 15.5681 19.0847C15.7616 19.0844 15.9547 19.068 16.1456 19.0359V19.1159L16.4551 19.4951L16.7646 19.1159V19.0359C16.9558 19.068 17.1492 19.0843 17.3429 19.0847C17.6803 19.0852 18.0159 19.0356 18.3388 18.9375H18.3148C17.8785 18.9374 17.4456 18.8619 17.035 18.7143" fill="#DA0D15"/>
<path d="M17.8594 12.9551C18.2742 13.2471 18.6248 13.621 18.8894 14.0539C19.154 14.4867 19.327 14.9692 19.3978 15.4715C19.4686 15.9739 19.4356 16.4854 19.3009 16.9745C19.1662 17.4636 18.9326 17.9198 18.6146 18.3151C19.1579 18.0541 19.6041 17.6269 19.8886 17.0955C20.1731 16.564 20.2811 15.9558 20.197 15.3589C20.1129 14.762 19.8411 14.2073 19.4208 13.7752C19.0006 13.343 18.4537 13.0558 17.8594 12.9551Z" fill="#DA0D15"/>
<path d="M15.9194 13.0053C16.0331 13.0055 16.1444 12.973 16.2401 12.9117C16.3358 12.8505 16.4119 12.763 16.4594 12.6598C16.5251 12.8032 16.645 12.9146 16.7929 12.9696C16.9408 13.0246 17.1044 13.0186 17.2478 12.953C17.3912 12.8873 17.5027 12.7673 17.5577 12.6195C17.6127 12.4716 17.6067 12.308 17.541 12.1646C17.5133 12.2873 17.4447 12.397 17.3464 12.4755C17.2481 12.5541 17.126 12.5969 17.0002 12.5969C16.8744 12.5969 16.7523 12.5541 16.654 12.4755C16.5557 12.397 16.4871 12.2873 16.4594 12.1646C16.4321 12.2875 16.3636 12.3974 16.2654 12.4762C16.1671 12.555 16.045 12.598 15.919 12.598C15.7931 12.598 15.6709 12.555 15.5726 12.4762C15.4744 12.3974 15.406 12.2875 15.3786 12.1646C15.3426 12.2417 15.324 12.3258 15.3242 12.411C15.3242 12.4891 15.3396 12.5664 15.3695 12.6386C15.3995 12.7108 15.4433 12.7763 15.4986 12.8315C15.5539 12.8867 15.6195 12.9305 15.6917 12.9603C15.7639 12.9902 15.8413 13.0055 15.9194 13.0053Z" fill="#DA0D15"/>
<path d="M15.0607 12.9551C14.4664 13.0558 13.9196 13.343 13.4993 13.7752C13.079 14.2073 12.8072 14.762 12.7231 15.3589C12.639 15.9558 12.747 16.564 13.0315 17.0955C13.316 17.6269 13.7622 18.0541 14.3055 18.3151C13.9873 17.9199 13.7535 17.4637 13.6187 16.9745C13.4839 16.4854 13.4508 15.9738 13.5216 15.4714C13.5924 14.969 13.7655 14.4865 14.0302 14.0537C14.295 13.6208 14.6457 13.2469 15.0607 12.9551Z" fill="#DA0D15"/>
</g>
</g>
<defs>
<clipPath id="clip0_8918_95409">
<rect width="32" height="32" fill="white"/>
</clipPath>
</defs>
</svg>
