<svg width="32" height="32" viewBox="0 0 32 32" fill="none" xmlns="http://www.w3.org/2000/svg">
<g clip-path="url(#clip0_583_8602)">
<mask id="mask0_583_8602" style="mask-type:luminance" maskUnits="userSpaceOnUse" x="0" y="0" width="32" height="33">
<path d="M16.0008 0.0078125H15.6464C11.8062 0.0878165 9.83169 0.388632 8.0052 1.01826C6.23711 1.62467 4.64562 2.65727 3.37137 4.02481C2.31302 5.25334 1.50283 6.67537 0.985649 8.21222C0.376954 10.1391 0.0535112 12.1447 0.025601 14.1653C-3.30822e-07 14.9598 0 15.0686 0 16.0054C0 16.9423 -3.30822e-07 17.0551 0.025601 17.8455C0.0529721 19.8674 0.376423 21.8744 0.985649 23.8026C1.50283 25.3397 2.31301 26.762 3.37137 27.9908C4.64578 29.3583 6.2372 30.3912 8.0052 30.9982C9.83169 31.627 11.8038 31.9294 15.6464 32.0086H16.3544C20.1946 31.9286 22.1683 31.627 23.9956 30.9982C25.7637 30.391 27.3554 29.3582 28.6302 27.9908C29.6883 26.7619 30.4982 25.3396 31.0152 23.8026C31.6238 21.8762 31.9473 19.8712 31.9752 17.8511C32 17.0575 32 16.9463 32 16.011C32 15.0758 32 14.9622 31.9752 14.1709C31.9473 12.1503 31.6239 10.1447 31.0152 8.21782C30.4982 6.68102 29.6883 5.25899 28.6302 4.03041C27.3559 2.66087 25.7639 1.62634 23.9948 1.01826C22.1683 0.388632 20.197 0.0862164 16.3544 0.0078125H16.0008Z" fill="white"/>
</mask>
<g mask="url(#mask0_583_8602)">
<path d="M40.4924 21.4141H-8.16602V32.2186H40.4924V21.4141Z" fill="#E4142C"/>
<path d="M40.4924 10.6094H-8.16602V21.4139H40.4924V10.6094Z" fill="#34A836"/>
<path d="M40.4924 -0.195312H-8.16602V10.6092H40.4924V-0.195312Z" fill="#FFCB00"/>
<path d="M20.4924 18.5574L27.516 13.4563H18.834L16.1498 5.20312L13.4665 13.4563H4.78125L11.8072 18.5574L9.12387 26.8106L16.1498 21.7096L23.1766 26.8106L20.4924 18.5574Z" fill="white"/>
</g>
</g>
<defs>
<clipPath id="clip0_583_8602">
<rect width="32" height="32.0008" fill="white" transform="translate(0 0.0078125)"/>
</clipPath>
</defs>
</svg>
