<svg width="32" height="32" viewBox="0 0 32 32" fill="none" xmlns="http://www.w3.org/2000/svg">
<g clip-path="url(#clip0_583_8622)">
<mask id="mask0_583_8622" style="mask-type:luminance" maskUnits="userSpaceOnUse" x="0" y="0" width="32" height="33">
<path d="M16.0008 0.0078125H15.6456C11.8056 0.0878125 9.8336 0.389412 8.0056 1.01901C6.23815 1.62399 4.64718 2.65551 3.3736 4.02221C2.31477 5.25044 1.50432 6.67245 0.9872 8.20941C0.378062 10.1358 0.0546238 12.1412 0.0272 14.1614C2.98023e-08 14.9558 0 15.0654 0 16.0054C0 16.9454 2.98023e-08 17.055 0.0272 17.8454C0.0546328 19.8654 0.378072 21.8705 0.9872 23.7966C1.50376 25.335 2.31424 26.7585 3.3736 27.9878C4.64735 29.3554 6.23854 30.388 8.0064 30.9942C9.8344 31.6238 11.8056 31.9278 15.6456 32.0078H16.3552C20.1952 31.9278 22.168 31.6262 23.9952 30.9966C25.7632 30.3902 27.3546 29.3577 28.6288 27.9902C29.6873 26.7616 30.4974 25.3393 31.0144 23.8022C31.6231 21.876 31.9465 19.871 31.9744 17.851C32 17.0574 32 16.9462 32 16.011C32 15.0758 32 14.9614 31.9744 14.167C31.9465 12.1468 31.6231 10.1415 31.0144 8.21501C30.4981 6.67632 29.6882 5.25241 28.6296 4.02221C27.3556 2.65449 25.7641 1.62189 23.996 1.01581C22.1688 0.386212 20.1968 0.0838125 16.356 0.0078125H16.0008Z" fill="white"/>
</mask>
<g mask="url(#mask0_583_8622)">
<path d="M-0.594727 26.0592V-0.46875H25.9653C27.2966 -0.468898 28.5974 -0.069641 29.6994 0.677395C30.8014 1.42443 31.654 2.48489 32.1469 3.72165C32.4453 4.50008 32.5964 5.32719 32.5925 6.16085V26.0592C32.5958 26.8929 32.4447 27.7199 32.1469 28.4984C31.6554 29.7374 30.8037 30.8006 29.7017 31.5504C28.5997 32.3003 27.2982 32.7024 25.9653 32.7048H-0.594727V26.0592Z" fill="#4289DB"/>
<path d="M16.008 8.82031L17.8152 14.3867H23.676L18.9344 17.8347L20.7496 23.4019L16.008 19.9619L11.2664 23.4019L13.0744 17.8347L8.33203 14.3867H14.1928L16.008 8.82031Z" fill="white"/>
</g>
</g>
<defs>
<clipPath id="clip0_583_8622">
<rect width="32" height="32" fill="white" transform="translate(0 0.0078125)"/>
</clipPath>
</defs>
</svg>
