<svg width="32" height="32" viewBox="0 0 32 32" fill="none" xmlns="http://www.w3.org/2000/svg">
<g clip-path="url(#clip0_583_8278)">
<mask id="mask0_583_8278" style="mask-type:luminance" maskUnits="userSpaceOnUse" x="0" y="0" width="32" height="33">
<path d="M15.9996 0.0078125H15.6453C11.8059 0.0878125 9.83428 0.388613 8.0066 1.01821C6.2378 1.62421 4.64554 2.65678 3.37061 4.02461C2.31246 5.25322 1.5027 6.6755 0.986228 8.21261C0.376587 10.1386 0.0531888 12.1438 0.0263954 14.1638C-5.95942e-09 14.9582 0 15.0678 0 16.0086C0 16.9494 -5.95942e-09 17.0566 0.0263954 17.8486C0.0531915 19.8689 0.376589 21.8743 0.986228 23.8006C1.5027 25.3382 2.31245 26.761 3.37061 27.9902C4.64639 29.3587 6.23979 30.3916 8.0098 30.9974C9.83748 31.627 11.8075 31.9286 15.6485 32.0078H16.3571C20.1965 31.9278 22.1697 31.627 23.9958 30.9974C25.7639 30.3915 27.3552 29.3586 28.6286 27.9902C29.6866 26.7619 30.4969 25.3402 31.0146 23.8038C31.6231 21.8773 31.9464 19.872 31.9744 17.8518C32 17.0566 32 16.9478 32 16.0118C32 15.0758 32 14.9614 31.9744 14.167C31.9464 12.1471 31.623 10.1421 31.0146 8.21581C30.4966 6.67737 29.6853 5.25402 28.6254 4.02461C27.3519 2.65653 25.7606 1.62387 23.9926 1.01821C22.1673 0.388613 20.1957 0.0878125 16.3539 0.0078125H15.9996Z" fill="white"/>
</mask>
<g mask="url(#mask0_583_8278)">
<path d="M41.2259 10.7891H-8.30859V21.7907H41.2259V10.7891Z" fill="white"/>
<path d="M41.2259 21.7891H-8.30859V32.7907H41.2259V21.7891Z" fill="#DA0D15"/>
<path d="M41.2279 -0.210938H-8.30664V10.7907H41.2279V-0.210938Z" fill="#219E3F"/>
<path d="M38.5367 22.8395H38.7614V23.6291H37.6416V23.1051H36.9641V23.6291H36.7402V22.8427H37.86V23.3667H38.5319V23.1051H38.0839V22.8427H38.5319L38.5367 22.8395ZM37.1921 23.6259H37.4161V23.3643H37.1921V23.6259ZM39.2093 22.5779H39.6573V22.3163H36.7442V22.5779H39.2093ZM37.1921 22.0539H38.7614V21.7891H36.7442V22.0507H37.1921V22.0539ZM40.7787 21.7923H38.9854V22.0539H41.0026V21.7891L40.7787 21.7923ZM40.7787 22.5779V23.3635H40.5539V22.3163H40.3299V23.3635H40.106V22.3163H39.882V22.8395H38.9854V23.6291H39.6573V23.3667H39.2093V23.1051H39.882V23.6291H41.0018V22.3163H40.7779L40.7787 22.5779ZM33.8303 22.8395H33.6047V23.1019H34.0534V23.3635H33.3808V22.8395H32.261V23.6291H32.4849V23.1051H33.1576V23.6291H34.2774V22.8427H33.8295L33.8303 22.8395ZM32.7105 23.6259H32.9344V23.3643H32.7105V23.6259ZM34.7277 22.5779H35.1756V22.3163H32.261V22.5779H34.7245H34.7277ZM32.7105 22.0539H34.279V21.7891H32.261V22.0507H32.7097L32.7105 22.0539ZM36.2962 21.7923H34.5022V22.0539H36.5194V21.7891L36.2962 21.7923ZM36.2962 22.5779V23.3635H36.0723V22.3163H35.8443V23.3635H35.6196V22.3163H35.3956V22.8395H34.5022V23.6291H35.1748V23.3667H34.7245V23.1051H35.3964V23.6291H36.5162V22.3163H36.2922L36.2962 22.5779ZM29.3479 22.8395H29.1255V23.1019H29.5734V23.3635H28.9015V22.8395H27.7817V23.6291H28.0057V23.1051H28.6776V23.6291H29.7974V22.8427H29.3487L29.3479 22.8395ZM28.2281 23.6259H28.452V23.3643H28.2281V23.6259ZM30.2453 22.5779H30.694V22.3163H27.7785V22.5779H30.2453ZM28.2281 22.0539H29.7974V21.7891H27.7785V22.0507H28.2265L28.2281 22.0539ZM31.813 21.7891H30.0197V22.0507H32.037V21.7891H31.813ZM31.813 22.5747V23.3603H31.5883V22.3163H31.3651V23.3635H31.1412V22.3163H30.9172V22.8395H30.0197V23.6291H30.6924V23.3667H30.2453V23.1051H30.918V23.6291H32.0378V22.3163H31.8138L31.813 22.5747ZM24.8647 22.8363H24.6407V23.0987H25.0886V23.3603H24.4159V22.8363H23.2961V23.6291H23.5201V23.1051H24.1928V23.6291H25.3126V22.8427H24.8647V22.8363ZM23.7448 23.6227H23.9688V23.3611H23.7448V23.6227ZM25.7621 22.5747H26.21V22.3131H23.2953V22.5747H25.7621ZM23.7448 22.0507H25.3134V21.7891H23.2953V22.0507H23.744H23.7448ZM27.3306 21.7891H25.5365V22.0507H27.5538V21.7891H27.3306ZM27.3306 22.5747V23.3603H27.1067V22.3163H26.8827V23.3635H26.6587V22.3163H26.434V22.8395H25.5365V23.6291H26.2092V23.3667H25.7613V23.1051H26.4332V23.6291H27.553V22.3163H27.329L27.3306 22.5747ZM20.3822 22.8363H20.1583V23.0987H20.607V23.3603H19.9343V22.8363H18.8145V23.6291H19.0385V23.1051H19.7112V23.6291H20.831V22.8427H20.3822V22.8363ZM19.2624 23.6227H19.4864V23.3611H19.2624V23.6227ZM21.2797 22.5747H21.7284V22.3131H18.8129V22.5747H21.2781H21.2797ZM19.2624 22.0507H20.8318V21.7891H18.8129V22.0507H19.2608H19.2624ZM22.849 21.7891H21.0541V22.0507H23.0714V21.7891H22.849ZM22.849 22.5747V23.3603H22.625V22.3163H22.3987V23.3635H22.1747V22.3163H21.9508V22.8395H21.0541V23.6291H21.7268V23.3667H21.2781V23.1051H21.9508V23.6291H23.0706V22.3163H22.8466L22.849 22.5747ZM15.9006 22.8363H15.6767V23.0987H16.1246V23.3603H15.4479V22.8363H14.3281V23.6291H14.5521V23.1051H15.2247V23.6291H16.3445V22.8427H15.8966L15.9006 22.8363ZM14.7808 23.6227H15.0048V23.3611H14.7808V23.6227ZM16.7981 22.5747H17.246V22.3131H14.3281V22.5747H16.7941H16.7981ZM14.7808 22.0507H16.3493V21.7891H14.3281V22.0507H14.7768H14.7808ZM18.3666 21.7891H16.5677V22.0507H18.5857V21.7891H18.3666ZM18.3666 22.5747V23.3603H18.1426V22.3163H17.9187V23.3635H17.6947V22.3163H17.4699V22.8395H16.5677V23.6291H17.2404V23.3667H16.7925V23.1051H17.4643V23.6291H18.5841V22.3163H18.3594L18.3666 22.5747ZM11.4182 22.8363H11.1942V23.0987H11.643V23.3603H10.9687V22.8363H9.84888V23.6291H10.0728V23.1051H10.7455V23.6291H11.8653V22.8427H11.4166L11.4182 22.8363ZM10.2984 23.6227H10.5224V23.3611H10.2984V23.6227ZM12.3156 22.5747H12.7644V22.3131H9.84888V22.5747H12.3124H12.3156ZM10.2984 22.0507H11.8645V21.7891H9.84888V22.0507H10.2968H10.2984ZM13.885 21.7891H12.0885V22.0507H14.1057V21.7891H13.885ZM13.885 22.5747V23.3603H13.661V22.3163H13.4362V23.3635H13.2083V22.3163H12.9843V22.8395H12.0885V23.6291H12.7612V23.3667H12.3124V23.1051H12.9851V23.6291H14.1049V22.3163H13.881L13.885 22.5747ZM6.93659 22.8363H6.71262V23.0987H7.16055V23.3603H6.48786V22.8363H5.36806V23.6291H5.59282V23.1051H6.2647V23.6291H7.38451V22.8427H6.93659V22.8363ZM5.81678 23.6227H6.04074V23.3611H5.81678V23.6227ZM7.83403 22.5747H8.28195V22.3131H5.36406V22.5747H7.83003H7.83403ZM5.81678 22.0507H7.38531V21.7891H5.36406V22.0507H5.81278H5.81678ZM9.40256 21.7891H7.60927V22.0507H9.62652V21.7891H9.40256ZM9.40256 22.5747V23.3603H9.17859V22.3163H8.95463V23.3635H8.72907V22.3163H8.50431V22.8395H7.60927V23.6291H8.28115V23.3667H7.83323V23.1051H8.50511V23.6291H9.62492V22.3163H9.40015L9.40256 22.5747ZM2.45417 22.8363H2.23021V23.0987H2.67893V23.3603H2.00225V22.8363H0.882446V23.6291H1.10641V23.1051H1.77909V23.6291H2.89889V22.8427H2.45017L2.45417 22.8363ZM1.33437 23.6227H1.55833V23.3611H1.33437V23.6227ZM3.35161 22.5747H3.80033V22.3131H0.881647V22.5747H3.34682H3.35161ZM1.33437 22.0507H2.90369V21.7891H0.881647V22.0507H1.32957H1.33437ZM4.92094 21.7891H3.12285V22.0507H5.1401V21.7891H4.92094ZM4.92094 22.5747V23.3603H4.69698V22.3163H4.47222V23.3635H4.24826V22.3163H4.0243V22.8395H3.12285V23.6291H3.79554V23.3667H3.34682V23.1051H4.0195V23.6291H5.1393V22.3163H4.91534L4.92094 22.5747ZM-2.02744 22.8363H-2.25141V23.0987H-1.80348V23.3603H-2.47537V22.8363H-3.59517V23.6291H-3.37041V23.1051H-2.69853V23.6291H-1.57872V22.8427H-2.02664L-2.02744 22.8363ZM-3.14725 23.6227H-2.92329V23.3611H-3.14725V23.6227ZM-1.13 22.5747H-0.682079V22.3131H-3.60157V22.5747H-1.1356H-1.13ZM-3.14725 22.0507H-1.58432V21.7891H-3.60157V22.0507H-3.15285H-3.14725ZM0.438524 21.7891H-1.35956V22.0507H0.657685V21.7891H0.438524ZM0.438524 22.5747V23.3603H0.214563V22.3163H-0.00939751V23.3635H-0.233358V22.3163H-0.457319V22.8395H-1.35956V23.6291H-0.687678V23.3667H-1.1356V23.1051H-0.462918V23.6291H0.656886V22.3163H0.432125L0.438524 22.5747ZM-6.50986 22.8363H-6.73382V23.0987H-6.2851V23.3603H-6.96338V22.8363H-8.08398V23.6291H-7.86002V23.1051H-7.18814V23.6291H-6.06834V22.8427H-6.51546L-6.50986 22.8363ZM-7.63606 23.6291H-7.4121V23.3675H-7.63606V23.6291ZM-5.61882 22.5811H-5.17009V22.3195H-8.08398V22.5811H-5.61882ZM-7.63606 22.0539H-6.06834V21.7891H-8.08398V22.0507H-7.63606V22.0539ZM-4.04949 21.7891H-5.84278V22.0507H-3.82873V21.7891H-4.04949ZM-4.04949 22.5747V23.3603H-4.27345V22.3163H-4.49741V23.3635H-4.72217V22.3163H-4.94853V22.8395H-5.84278V23.6291H-5.17009V23.3667H-5.61882V23.1051H-4.94853V23.6291H-3.82873V22.3163H-4.05269L-4.04949 22.5747Z" fill="white"/>
<path d="M38.5367 9.48414H38.7614V10.2729H37.6416V9.74894H36.9641V10.2729H36.7402V9.48654H37.86V10.0105H38.5319V9.74894H38.0839V9.48654H38.5319L38.5367 9.48414ZM37.4169 10.0081H37.1929V10.2729H37.4169V10.0081ZM39.2101 9.22254H39.6581V8.96094H36.7442V9.22254H39.2101ZM-4.27345 10.5321H-5.84278V10.7945H-3.82873V10.5321H-4.27665H-4.27345ZM-6.51306 10.5321H-8.08398V10.7945H-6.06834V10.5321H-6.51546H-6.51306ZM40.7787 8.96094V10.0081H40.5539V8.96094H40.3299V10.0081H40.106V8.96094H39.882V9.48414H38.9854V10.2729H39.6573V10.0105H39.2093V9.74894H39.882V10.2729H41.0018V8.96094H40.7787ZM33.8303 9.48414H33.6047V9.74654H34.0534V10.0081H33.3808V9.48414H32.261V10.2729H32.4849V9.74894H33.1576V10.2729H34.2774V9.48654H33.8295L33.8303 9.48414ZM32.9336 10.0081H32.7097V10.2729H32.9336V10.0081ZM34.7269 9.22254H35.1748V8.96094H32.261V9.22254H34.7245H34.7269ZM0.208964 10.5321H-1.35956V10.7945H0.657685V10.5321H0.208964ZM-2.03064 10.5321H-3.60157V10.7945H-1.58432V10.5321H-2.03224H-2.03064ZM36.297 9.22254V10.0081H36.0731V8.96094H35.8443V10.0081H35.6196V8.96094H35.3956V9.48414H34.5022V10.2729H35.1748V10.0105H34.7245V9.74894H35.3964V10.2729H36.5162V8.96094H36.2922L36.297 9.22254ZM29.3487 9.48414H29.1255V9.74654H29.5734V10.0081H28.9015V9.48414H27.7817V10.2729H28.0057V9.74894H28.6776V10.2729H29.7974V9.48654H29.3487V9.48414ZM28.452 10.0081H28.2281V10.2729H28.452V10.0081ZM30.2453 9.22254H30.694V8.96094H27.7785V9.22254H30.2453ZM4.69218 10.5321H3.12285V10.7945H5.1401V10.5321H4.69218ZM2.45257 10.5321H0.881647V10.7945H2.89889V10.5321H2.45017H2.45257ZM31.8154 9.22254V10.0081H31.5907V8.96094H31.3651V10.0081H31.1412V8.96094H30.9172V9.48414H30.0197V10.2729H30.6924V10.0105H30.2453V9.74894H30.918V10.2729H32.0378V8.96094H31.8138L31.8154 9.22254ZM24.8671 9.48414H24.6431V9.74654H25.091V10.0081H24.4183V9.48414H23.2985V10.2729H23.5225V9.74894H24.1952V10.2729H25.315V9.48654H24.8671V9.48414ZM23.9704 10.0081H23.7464V10.2729H23.9704V10.0081ZM25.7637 9.22254H26.2116V8.96094H23.2953V9.22254H25.7613H25.7637ZM9.17459 10.5321H7.60927V10.7945H9.62652V10.5321H9.17779H9.17459ZM6.93499 10.5321H5.36406V10.7945H7.38131V10.5321H6.93339H6.93499ZM27.3314 9.22254V10.0081H27.1075V8.96094H26.8835V10.0081H26.6595V8.96094H26.4348V9.48414H25.5365V10.2729H26.2092V10.0105H25.7613V9.74894H26.4332V10.2729H27.553V8.96094H27.329L27.3314 9.22254ZM20.383 9.48414H20.1591V9.74654H20.6078V10.0081H19.9351V9.48414H18.8153V10.2729H19.0393V9.74894H19.712V10.2729H20.8318V9.48654H20.383V9.48414ZM19.4864 10.0081H19.2624V10.2729H19.4864V10.0081ZM21.2797 9.22254H21.7284V8.96094H18.8129V9.22254H21.2781H21.2797ZM13.6594 10.5321H12.0885V10.7945H14.1057V10.5321H13.6578H13.6594ZM11.4198 10.5321H9.84888V10.7945H11.8645V10.5321H11.4158H11.4198ZM22.8514 9.22254V10.0081H22.6274V8.96094H22.3987V10.0081H22.1747V8.96094H21.9508V9.48414H21.0541V10.2729H21.7268V10.0105H21.2781V9.74894H21.9508V10.2729H23.0706V8.96094H22.8466L22.8514 9.22254ZM15.903 9.48414H15.6791V9.74654H16.127V10.0081H15.4479V9.48414H14.3281V10.2729H14.5521V9.74894H15.2247V10.2729H16.3445V9.48654H15.8966L15.903 9.48414ZM15.0064 10.0081H14.7824V10.2729H15.0064V10.0081ZM16.7997 9.22254H17.2476V8.96094H14.3281V9.22254H16.7941H16.7997ZM18.1442 10.5321H16.5677V10.7945H18.5857V10.5321H18.137H18.1442ZM15.9046 10.5321H14.3281V10.7945H16.3453V10.5321H15.8974H15.9046ZM18.3698 9.22254V10.0081H18.1458V8.96094H17.9219V10.0081H17.6979V8.96094H17.4731V9.48414H16.5677V10.2729H17.2404V10.0105H16.7925V9.74894H17.4643V10.2729H18.5841V8.96094H18.3594L18.3698 9.22254ZM11.4214 9.48414H11.1974V9.74654H11.6462V10.0081H10.9687V9.48414H9.84888V10.2729H10.0728V9.74894H10.7455V10.2729H11.8653V9.48654H11.4166L11.4214 9.48414ZM10.5248 10.0081H10.3008V10.2729H10.5248V10.0081ZM12.318 9.22254H12.7668V8.96094H9.84888V9.22254H12.3124H12.318ZM22.629 10.5321H21.0541V10.7945H23.0714V10.5321H22.6234H22.629ZM20.3894 10.5321H18.8129V10.7945H20.8302V10.5321H20.3814H20.3894ZM13.8898 9.22254V10.0081H13.6658V8.96094H13.441V10.0081H13.2083V8.96094H12.9843V9.48414H12.0885V10.2729H12.7612V10.0105H12.3124V9.74894H12.9851V10.2729H14.1049V8.96094H13.881L13.8898 9.22254ZM6.94139 9.48414H6.71742V9.74654H7.16535V10.0081H6.49266V9.48414H5.37286V10.2729H5.59762V9.74894H6.2695V10.2729H7.38931V9.48654H6.94139V9.48414ZM6.04474 10.0081H5.82078V10.2729H6.04474V10.0081ZM7.83803 9.22254H8.28595V8.96094H5.36406V9.22254H7.83003H7.83803ZM27.1147 10.5321H25.5365V10.7945H27.5538V10.5321H27.1059H27.1147ZM24.875 10.5321H23.2953V10.7945H25.3126V10.5321H24.8647H24.875ZM9.39855 9.22254V10.0081H9.17459V8.96094H8.95063V10.0081H8.72907V8.96094H8.50431V9.48414H7.60927V10.2729H8.28115V10.0105H7.83323V9.74894H8.50511V10.2729H9.62492V8.96094H9.40015L9.39855 9.22254ZM2.45017 9.48414H2.22621V9.74654H2.67493V10.0081H2.00225V9.48414H0.882446V10.2729H1.10641V9.74894H1.77909V10.2729H2.89889V9.48654H2.45017V9.48414ZM1.55433 10.0081H1.33037V10.2729H1.55433V10.0081ZM3.34682 9.22254H3.79554V8.96094H0.881647V9.22254H3.34682ZM31.5883 10.5321H30.0197V10.7945H32.037V10.5321H31.5883ZM29.3487 10.5321H27.7785V10.7945H29.7958V10.5321H29.3471H29.3487ZM4.91614 9.22254V10.0081H4.69218V8.96094H4.46742V10.0081H4.24346V8.96094H4.0195V9.48414H3.12285V10.2729H3.79554V10.0105H3.34682V9.74894H4.0195V10.2729H5.1393V8.96094H4.91534L4.91614 9.22254ZM-2.03224 9.48414H-2.2562V9.74654H-1.80828V10.0081H-2.48017V9.48414H-3.59997V10.2729H-3.37521V9.74894H-2.70333V10.2729H-1.58352V9.48654H-2.03144L-2.03224 9.48414ZM-2.92889 10.0081H-3.15285V10.2729H-2.92889V10.0081ZM-1.1356 9.22254H-0.687678V8.96094H-3.60157V9.22254H-1.1356ZM36.0715 10.5321H34.5022V10.7945H36.5194V10.5321H36.0715ZM33.8319 10.5321H32.261V10.7945H34.2782V10.5321H33.8303H33.8319ZM0.432925 9.22254V10.0081H0.208964V8.96094H-0.0149965V10.0081H-0.238957V8.96094H-0.462918V9.48414H-1.35956V10.2729H-0.687678V10.0105H-1.1356V9.74894H-0.462918V10.2729H0.656886V8.96094H0.432125L0.432925 9.22254ZM-6.51546 9.48414H-6.73942V9.74654H-6.2907V10.0081H-6.96338V9.48414H-8.08398V10.2729H-7.86002V9.74894H-7.18814V10.2729H-6.06834V9.48654H-6.51546V9.48414ZM-7.4113 10.0081H-7.63526V10.2729H-7.4113V10.0081ZM-5.61882 9.22254H-5.17009V8.96094H-8.08398V9.22254H-5.61882ZM40.5539 10.5321H38.9854V10.7945H41.0026V10.5321H40.5539ZM38.3143 10.5321H36.7442V10.7945H38.7614V10.5321H38.3127H38.3143ZM-4.04949 9.22254V10.0081H-4.27345V8.96094H-4.49741V10.0081H-4.72217V8.96094H-4.94853V9.48414H-5.84278V10.2729H-5.17009V10.0105H-5.61882V9.74894H-4.94853V10.2729H-3.82873V8.96094H-4.05269L-4.04949 9.22254Z" fill="white"/>
<path d="M17.0366 18.7197C17.1118 18.6813 17.1854 18.6397 17.2566 18.5973C17.7341 18.3097 18.1344 17.91 18.4228 17.4329C18.7112 16.9558 18.879 16.4156 18.9118 15.859C18.9446 15.3024 18.8413 14.7462 18.6108 14.2386C18.3804 13.7309 18.0298 13.287 17.5893 12.9453C18.1665 13.7486 18.4066 14.7459 18.2582 15.724C18.1098 16.702 17.5846 17.5831 16.795 18.1789L16.9422 13.1557L16.5207 13.0549L16.4575 13.0397L16.3951 13.0549L15.9736 13.1557L16.1208 18.1789C15.3312 17.5831 14.806 16.702 14.6576 15.724C14.5092 14.7459 14.7493 13.7486 15.3265 12.9453C14.886 13.287 14.5354 13.7309 14.3049 14.2386C14.0745 14.7462 13.9712 15.3024 14.004 15.859C14.0367 16.4156 14.2046 16.9558 14.493 17.4329C14.7814 17.91 15.1817 18.3097 15.6592 18.5973C15.7312 18.6413 15.8048 18.6773 15.88 18.7197C15.4681 18.8676 15.0338 18.9431 14.5962 18.9429H14.5714C14.8945 19.0409 15.2304 19.0906 15.5681 19.0901C15.7616 19.0897 15.9547 19.0734 16.1456 19.0413V19.1213L16.4551 19.5005L16.7646 19.1213V19.0413C16.9558 19.0734 17.1492 19.0897 17.3429 19.0901C17.6803 19.0906 18.0159 19.041 18.3388 18.9429H18.3148C17.8785 18.9428 17.4456 18.8672 17.035 18.7197" fill="#DA0D15"/>
<path d="M17.8594 12.9609C18.2742 13.2529 18.6248 13.6269 18.8894 14.0597C19.154 14.4926 19.327 14.975 19.3978 15.4774C19.4686 15.9797 19.4356 16.4912 19.3009 16.9803C19.1662 17.4694 18.9326 17.9257 18.6146 18.3209C19.1579 18.0599 19.6041 17.6328 19.8886 17.1013C20.1731 16.5699 20.2811 15.9617 20.197 15.3648C20.1129 14.7679 19.8411 14.2132 19.4208 13.781C19.0006 13.3489 18.4537 13.0617 17.8594 12.9609Z" fill="#DA0D15"/>
<path d="M15.9194 13.0127C16.0331 13.0128 16.1444 12.9803 16.2401 12.919C16.3358 12.8578 16.4119 12.7703 16.4594 12.6671C16.5251 12.8105 16.645 12.922 16.7929 12.977C16.9408 13.0319 17.1044 13.0259 17.2478 12.9603C17.3912 12.8946 17.5027 12.7747 17.5577 12.6268C17.6127 12.4789 17.6067 12.3153 17.541 12.1719C17.5133 12.2946 17.4447 12.4043 17.3464 12.4829C17.2481 12.5614 17.126 12.6042 17.0002 12.6042C16.8744 12.6042 16.7523 12.5614 16.654 12.4829C16.5557 12.4043 16.4871 12.2946 16.4594 12.1719C16.4321 12.2948 16.3636 12.4048 16.2654 12.4836C16.1671 12.5624 16.045 12.6053 15.919 12.6053C15.7931 12.6053 15.6709 12.5624 15.5726 12.4836C15.4744 12.4048 15.406 12.2948 15.3786 12.1719C15.3426 12.249 15.324 12.3331 15.3242 12.4183C15.3242 12.4964 15.3396 12.5738 15.3695 12.6459C15.3995 12.7181 15.4433 12.7837 15.4986 12.8389C15.5539 12.8941 15.6195 12.9378 15.6917 12.9677C15.7639 12.9975 15.8413 13.0128 15.9194 13.0127Z" fill="#DA0D15"/>
<path d="M15.0607 12.9609C14.4664 13.0617 13.9196 13.3489 13.4993 13.781C13.079 14.2132 12.8072 14.7679 12.7231 15.3648C12.639 15.9617 12.747 16.5699 13.0315 17.1013C13.316 17.6328 13.7622 18.0599 14.3055 18.3209C13.9873 17.9258 13.7535 17.4695 13.6187 16.9804C13.4839 16.4913 13.4508 15.9797 13.5216 15.4773C13.5924 14.9749 13.7655 14.4923 14.0302 14.0595C14.295 13.6267 14.6457 13.2528 15.0607 12.9609Z" fill="#DA0D15"/>
</g>
</g>
<defs>
<clipPath id="clip0_583_8278">
<rect width="32" height="32" fill="white" transform="translate(0 0.0078125)"/>
</clipPath>
</defs>
</svg>
