<svg width="32" height="32" viewBox="0 0 32 32" fill="none" xmlns="http://www.w3.org/2000/svg">
<g clip-path="url(#clip0_583_8300)">
<mask id="mask0_583_8300" style="mask-type:luminance" maskUnits="userSpaceOnUse" x="0" y="0" width="32" height="33">
<path d="M15.9972 0.0078125H15.6428C11.8031 0.0878065 9.82966 0.389384 8.0026 1.01734C6.23563 1.62442 4.64543 2.65745 3.37255 4.02511C2.31416 5.25337 1.50406 6.67525 0.987125 8.212C0.378043 10.138 0.0546283 12.1429 0.0271975 14.1628C-4.47001e-07 14.9571 0 15.0667 0 16.0066C0 16.9465 -4.47001e-07 17.0561 0.0271975 17.8505C0.0546768 19.8706 0.37809 21.8757 0.987125 23.802C1.50443 25.3384 2.3145 26.7599 3.37255 27.9881C4.64638 29.356 6.23773 30.3888 8.0058 30.9951C9.83286 31.6238 11.8047 31.9254 15.646 32.0054H16.3548C20.1945 31.9254 22.1671 31.6238 23.995 30.9951C25.7631 30.3888 27.3544 29.356 28.6283 27.9881C29.6866 26.76 30.4969 25.3384 31.0145 23.802C31.6223 21.8755 31.9457 19.8705 31.9744 17.8505C32 17.0561 32 16.9465 32 16.0066C32 15.0667 32 14.9571 31.9744 14.1628C31.9458 12.143 31.6224 10.1383 31.0145 8.212C30.4973 6.67521 29.6869 5.25332 28.6283 4.02511C27.3535 2.65686 25.761 1.62405 23.9918 1.01814C22.1639 0.389384 20.1929 0.0878065 16.3516 0.0078125H15.9972Z" fill="white"/>
</mask>
<g mask="url(#mask0_583_8300)">
<path d="M54.3378 26.7031H-10.627V32.1123H54.3378V26.7031Z" fill="#09529C"/>
<path d="M54.3378 25.8047H-10.627V26.7062H54.3378V25.8047Z" fill="white"/>
<path d="M54.3378 5.96875H-10.627V25.8041H54.3378V5.96875Z" fill="#E31921"/>
<path d="M11.966 8.73247C10.4718 8.53758 8.95395 8.8155 7.62565 9.52721C6.29736 10.2389 5.22527 11.3487 4.55984 12.7008C3.89442 14.0528 3.66907 15.5793 3.91543 17.066C4.16178 18.5527 4.86748 19.9249 5.93346 20.99C6.99944 22.0552 8.3722 22.7598 9.85906 23.005C11.3459 23.2503 12.8722 23.0237 14.2238 22.3573C15.5754 21.6908 16.6843 20.6178 17.395 19.289C18.1057 17.9602 18.3824 16.4421 18.1864 14.948C17.9785 13.3717 17.2561 11.9081 16.1314 10.7842C15.0067 9.66038 13.5425 8.93916 11.966 8.73247Z" fill="white"/>
<path d="M13.5675 16.7107L17.6776 13.7269H12.5971L11.0269 8.89844L9.45737 13.7269H4.37695L8.48705 16.7107L6.91676 21.5391L11.0269 18.5545L15.1377 21.5391L13.5675 16.7107Z" fill="#E31921"/>
<path d="M54.3378 5.0625H-10.627V5.96403H54.3378V5.0625Z" fill="white"/>
<path d="M54.3378 -0.34375H-10.627V5.06544H54.3378V-0.34375Z" fill="#09529C"/>
</g>
</g>
<defs>
<clipPath id="clip0_583_8300">
<rect width="32" height="31.9976" fill="white" transform="translate(0 0.0078125)"/>
</clipPath>
</defs>
</svg>
