<svg width="32" height="32" viewBox="0 0 32 32" fill="none" xmlns="http://www.w3.org/2000/svg">
<g clip-path="url(#clip0_583_7223)">
<mask id="mask0_583_7223" style="mask-type:luminance" maskUnits="userSpaceOnUse" x="-1" y="0" width="33" height="32">
<path d="M15.9996 0H15.6444C11.8042 0.080004 9.83134 0.381619 8.00405 1.01045C6.2359 1.61715 4.64442 2.65002 3.37022 4.0178C2.31206 5.2466 1.50166 6.66854 0.983696 8.20521C0.375369 10.1319 0.0519339 12.1372 0.0236478 14.1575C-0.00195346 14.952 -0.00195312 15.0624 -0.00195312 16.0016C-0.00195312 16.9408 -0.00195346 17.0513 0.0236478 17.8417C0.0520391 19.8622 0.37547 21.8678 0.983696 23.7948C1.50166 25.3315 2.31206 26.7534 3.37022 27.9822C4.64425 29.35 6.23581 30.3826 8.00405 30.9888C9.83134 31.6176 11.8034 31.92 15.6444 31.9992H16.3541C20.1943 31.9192 22.1672 31.6176 23.9952 30.9888C25.7633 30.3826 27.3546 29.35 28.6283 27.9822C29.6851 26.7542 30.4944 25.3334 31.0116 23.798C31.6206 21.8712 31.944 19.8655 31.9716 17.8449C31.9981 17.0513 31.998 16.9416 31.998 16.0048C31.998 15.068 31.9981 14.9551 31.9716 14.1607C31.9442 12.1404 31.6207 10.1349 31.0116 8.20841C30.4952 6.67076 29.6859 5.24768 28.6283 4.0178C27.3544 2.65003 25.7632 1.61715 23.9952 1.01045C22.1672 0.377619 20.1959 0.079204 16.3541 0H15.9996Z" fill="white"/>
</mask>
<g mask="url(#mask0_583_7223)">
<path d="M42.8793 -0.664062H-7.15039V32.6632H42.8793V-0.664062Z" fill="#FF3C30"/>
<path d="M42.8793 11.8014H15.4747V-0.664062H6.5943V11.8014H-7.15039V20.0882H6.5943V32.6632H15.4747V20.0882H42.8793V11.8014Z" fill="white"/>
<path d="M42.8793 13.7695H13.397V-0.664062H8.6768V13.7695H-7.15039V18.2329H8.6728V32.6632H13.393V18.2329H42.8793V13.7695Z" fill="#00357B"/>
</g>
</g>
<defs>
<clipPath id="clip0_583_7223">
<rect width="32" height="31.9992" fill="white" transform="translate(-0.00195312)"/>
</clipPath>
</defs>
</svg>
