<svg width="32" height="32" viewBox="0 0 32 32" fill="none" xmlns="http://www.w3.org/2000/svg">
<g clip-path="url(#clip0_583_7187)">
<mask id="mask0_583_7187" style="mask-type:luminance" maskUnits="userSpaceOnUse" x="0" y="0" width="32" height="32">
<path d="M15.9992 0H15.6456C11.8056 0.08001 9.832 0.381648 8.0048 1.01053C6.23671 1.61728 4.64511 2.6499 3.3704 4.0173C2.31271 5.24636 1.50264 6.66837 0.984799 8.20503C0.376146 10.1321 0.0527197 12.1378 0.0247993 14.1586C-6.52671e-07 14.9523 0 15.0627 0 15.9988C0 16.9349 -6.52671e-07 17.0493 0.0247993 17.843C0.0527264 19.8632 0.376154 21.8685 0.984799 23.795C1.50227 25.3318 2.31238 26.7539 3.3704 27.9827C4.64501 29.3506 6.23661 30.3837 8.0048 30.9911C9.832 31.6184 11.8032 31.9208 15.6456 32H16.3536C20.1936 31.92 22.1672 31.6184 23.9936 30.9911C25.7619 30.384 27.3535 29.3508 28.628 27.9827C29.6859 26.7552 30.4958 25.3341 31.0128 23.7982C31.6215 21.8728 31.9449 19.8686 31.9728 17.8494C31.9976 17.0557 31.9976 16.9453 31.9976 16.0052C31.9976 15.0651 31.9976 14.9555 31.9728 14.165C31.9452 12.1442 31.6218 10.1384 31.0128 8.21143C30.4956 6.67449 29.6854 5.25236 28.6272 4.0237C27.3526 2.65613 25.761 1.62347 23.9928 1.01693C22.1672 0.381648 20.1952 0.0792099 16.3536 0H15.9992Z" fill="white"/>
</mask>
<g mask="url(#mask0_583_7187)">
<path fill-rule="evenodd" clip-rule="evenodd" d="M15.8926 15.0241C15.7119 15.303 15.5983 15.62 15.5607 15.9502C15.5231 16.2804 15.5625 16.6148 15.6758 16.9273C15.7321 16.9911 15.8044 17.0388 15.8852 17.0656C15.9661 17.0923 16.0526 17.097 16.1358 17.0793C16.2564 16.9841 16.3485 16.8577 16.4023 16.7139C16.456 16.57 16.4693 16.4141 16.4406 16.2633C16.3558 16.1297 16.2894 16.1081 16.2046 16.2217C16.0254 16.5857 15.9494 16.3361 15.935 16.1329C15.914 15.7907 15.9306 15.4474 15.9846 15.1089C16.0286 14.8193 15.9846 14.9073 15.8926 15.0241Z" fill="white"/>
<path d="M44.0407 -0.0703125H-12.0273V32.6138H44.0407V-0.0703125Z" fill="#3D9635"/>
<path fill-rule="evenodd" clip-rule="evenodd" d="M5.72796 10.3126C5.68076 10.9598 5.62236 12.1006 6.17436 12.2182C6.84076 12.2822 6.47276 11.091 6.71436 10.8742C6.75996 10.7694 6.84476 10.767 6.85116 10.903V11.9126C6.84634 12.0262 6.8816 12.1379 6.95077 12.2281C7.01994 12.3183 7.11862 12.3814 7.22956 12.4062C7.40316 12.3926 7.52076 12.3982 7.58956 12.5662L7.66956 14.315C7.66956 14.315 8.07516 14.4326 8.09436 13.3326C8.05322 12.8974 8.03932 12.46 8.05276 12.023C8.05276 11.8982 8.21276 11.891 8.32236 11.9518C8.49676 12.0734 8.57436 12.2262 8.84556 12.1662C9.25756 12.0526 9.50396 11.851 9.51196 11.5358C9.49895 11.2265 9.43544 10.9214 9.32396 10.6326C9.34156 10.579 9.24396 10.4382 9.26156 10.383C9.33596 10.4998 9.44876 10.4902 9.47436 10.383C9.42882 10.1623 9.30205 9.96672 9.11916 9.83503C8.97276 9.70783 8.75916 9.73343 8.68076 10.0014C8.67145 10.3554 8.79083 10.7008 9.01676 10.9734C9.08822 11.1247 9.11778 11.2924 9.10236 11.459C9.04786 11.492 8.98305 11.5036 8.92052 11.4914C8.85798 11.4793 8.80218 11.4444 8.76396 11.3934C8.76396 11.3934 8.43516 11.1478 8.43516 11.0934C8.52156 10.5334 8.45596 10.4742 8.40556 10.3182C8.37196 10.1054 8.27036 10.0382 8.18956 9.89103C8.10956 9.80463 7.99596 9.80463 7.94396 9.89103C7.82761 10.2268 7.83785 10.5935 7.97276 10.9222C8.04876 11.1454 8.16316 11.2846 8.11036 11.2846C8.06396 11.4102 7.97116 11.383 7.90396 11.2358C7.82323 10.9267 7.78422 10.6081 7.78796 10.2886C7.75836 10.0398 7.72636 9.50783 7.56236 9.37263C7.46316 9.23583 7.31516 9.30302 7.26156 9.42622C7.2483 9.66788 7.25365 9.91019 7.27756 10.151C7.37421 10.5321 7.44213 10.9198 7.48076 11.311C7.49596 11.8614 7.16076 11.551 7.17916 11.2782C7.24985 10.9306 7.24549 10.572 7.16636 10.2262C7.11276 10.0854 7.04956 10.0518 6.91836 10.0758C6.81356 10.0678 6.54476 10.3606 6.46956 10.847C6.43058 11.0032 6.39987 11.1612 6.37756 11.3206C6.33996 11.571 6.17516 11.7478 6.05756 11.2846C5.95676 10.9478 5.89836 10.1182 5.72796 10.3126Z" fill="white"/>
<path fill-rule="evenodd" clip-rule="evenodd" d="M7.54069 12.9753C6.95269 13.2625 6.38309 13.5305 5.80469 13.8081C5.91521 13.5178 6.10058 13.262 6.34198 13.0666C6.58337 12.8711 6.87218 12.743 7.17909 12.6953C7.53509 12.7057 7.44549 12.8337 7.54069 12.9753Z" fill="white"/>
<path fill-rule="evenodd" clip-rule="evenodd" d="M9.75809 9.30469C9.72449 9.30949 9.68769 9.32869 9.64529 9.33909C9.6033 9.35031 9.56394 9.36973 9.52948 9.39622C9.49502 9.42272 9.46614 9.45577 9.4445 9.49347C9.42286 9.53117 9.40889 9.57279 9.4034 9.61591C9.39791 9.65903 9.401 9.70282 9.41249 9.74474C9.57889 10.7609 9.69009 11.5362 9.85729 12.5547C9.88289 12.6739 9.78289 12.8323 9.65329 12.8155C9.43489 12.6675 9.38129 12.3659 9.00609 12.3803C8.8554 12.4004 8.71476 12.4671 8.60387 12.5711C8.49299 12.6751 8.4174 12.8112 8.38769 12.9603C8.33403 13.179 8.33403 13.4074 8.38769 13.626C8.46136 13.7136 8.56081 13.7758 8.67187 13.8035C8.78292 13.8312 8.89989 13.8232 9.00609 13.7804C9.17089 13.7124 9.30609 13.5492 9.36369 13.5868C9.39889 13.6484 9.35809 14.1797 8.58929 14.5885C8.11489 14.7998 7.73889 14.8502 7.53569 14.4645C7.41009 14.2245 7.54609 13.3036 7.23649 13.5164C6.32049 15.8727 9.37969 16.2007 9.71649 13.6124C9.73889 13.5396 9.80769 13.4668 9.85649 13.4844C9.87649 13.4932 9.89489 13.5212 9.90209 13.5732C9.83009 15.9191 7.53649 16.0775 7.14609 15.3406C7.0542 15.0871 7.00894 14.819 7.01249 14.5493C7.01018 14.4563 6.97665 14.3666 6.91729 14.2949C6.82529 14.2269 6.69889 14.4077 6.67249 14.7246C6.64388 14.913 6.6345 15.1039 6.64449 15.2942C6.76689 17.1457 9.72049 16.3488 10.1997 14.8198C10.2958 14.3393 10.3227 13.8476 10.2797 13.3596H10.2869C10.5837 13.674 10.9933 13.3996 11.0869 13.2916C11.0978 13.2755 11.1122 13.2619 11.1289 13.252C11.1457 13.242 11.1644 13.2358 11.1838 13.2339C11.2032 13.232 11.2228 13.2344 11.2411 13.2409C11.2595 13.2474 11.2762 13.2579 11.2901 13.2716C11.348 13.3132 11.4145 13.3411 11.4847 13.3533C11.5549 13.3655 11.627 13.3616 11.6955 13.342C11.764 13.3224 11.8272 13.2875 11.8803 13.24C11.9334 13.1924 11.975 13.1335 12.0021 13.0676C12.0555 12.7768 12.0886 12.4828 12.1013 12.1874C11.987 12.2096 11.8782 12.2542 11.7813 12.3187C11.77 12.3301 11.7623 12.3446 11.7589 12.3603C11.7469 12.4443 11.7333 12.5283 11.7205 12.6139C11.7193 12.6201 11.7171 12.626 11.7141 12.6315C11.7064 12.6425 11.6963 12.6515 11.6845 12.6579C11.6325 12.6851 11.5421 12.6691 11.5365 12.5923C11.4661 12.2723 11.1733 12.2275 10.9965 12.7275C10.8773 12.8235 10.6597 12.8419 10.6381 12.6979C10.6669 12.3635 10.5325 12.3187 10.2621 12.4771C10.1749 11.8122 10.0885 11.1809 10.0005 10.5176C10.1141 10.5136 10.2173 10.5976 10.3205 10.4672C10.2226 10.0702 10.0605 9.6918 9.84049 9.34709C9.83477 9.34031 9.82863 9.33389 9.82209 9.32789L9.81249 9.32149L9.80369 9.31589C9.79848 9.3138 9.79341 9.3114 9.78849 9.30869C9.77603 9.3068 9.76336 9.3068 9.75089 9.30869M8.93329 12.9435C8.96776 12.939 9.00273 12.9467 9.03202 12.9655C9.06131 12.9842 9.08301 13.0127 9.09329 13.046C9.10458 13.0752 9.10771 13.1069 9.10236 13.1378C9.097 13.1686 9.08336 13.1975 9.06289 13.2212C9.04129 13.2516 8.95969 13.2388 8.90289 13.2388C8.87447 13.2415 8.84585 13.2361 8.82037 13.2232C8.79489 13.2103 8.77357 13.1905 8.75889 13.166C8.73889 13.1028 8.79889 13.042 8.82449 12.9955C8.82734 12.9894 8.83143 12.984 8.83649 12.9795C8.86453 12.9579 8.89753 12.9436 8.93249 12.9379" fill="white"/>
<path fill-rule="evenodd" clip-rule="evenodd" d="M11.8124 9.24898C11.74 9.25305 11.6693 9.27269 11.6052 9.30658C11.5315 9.36983 11.4838 9.45814 11.4714 9.55447C11.459 9.6508 11.4827 9.74831 11.538 9.82818C11.654 9.88178 11.7692 9.99938 11.6916 10.0682C11.3636 10.4194 10.5092 11.0042 10.4668 11.1082V11.1122V11.1162C10.6792 11.1449 10.8944 11.1449 11.1068 11.1162C11.4875 10.7918 11.8405 10.4361 12.162 10.053C12.118 10.0146 12.0764 9.98578 12.03 9.94738C11.9836 9.90898 11.9868 9.86738 12.03 9.82178C12.0707 9.7923 12.1045 9.75422 12.1289 9.71022C12.1532 9.66623 12.1676 9.61741 12.1709 9.56724C12.1743 9.51706 12.1666 9.46676 12.1483 9.41992C12.13 9.37307 12.1016 9.33082 12.0652 9.29618C11.9838 9.2576 11.8944 9.23922 11.8044 9.24258M11.7636 9.55058C11.7966 9.55315 11.8282 9.56515 11.8545 9.58515C11.8809 9.60515 11.901 9.6323 11.9124 9.66338C11.9476 9.73778 11.9292 9.80898 11.8756 9.82338C11.822 9.83778 11.7484 9.78658 11.7156 9.71378C11.6828 9.64098 11.7004 9.56898 11.754 9.55378C11.7574 9.55296 11.761 9.55296 11.7644 9.55378" fill="white"/>
<path fill-rule="evenodd" clip-rule="evenodd" d="M19.8075 13.8134C19.4923 13.1358 19.0555 12.4646 18.9163 12.2078C18.7771 11.951 17.7283 10.427 17.5731 10.2566C17.2331 9.85181 18.1275 10.4254 17.4587 9.62141C17.2059 9.40461 17.1915 9.39101 16.9787 9.21421C16.8731 9.13421 16.6123 8.99981 16.5659 9.22861C16.545 9.38879 16.5534 9.55145 16.5907 9.70861C16.6593 9.85759 16.7499 9.9954 16.8595 10.1174C17.973 11.5875 18.9496 13.1565 19.7771 14.8046C19.9203 14.7358 19.8891 13.9246 19.8059 13.815" fill="white"/>
<path fill-rule="evenodd" clip-rule="evenodd" d="M18.4232 16.0814C18.36 16.1494 18.5752 16.4486 18.8544 16.4478C19.1334 16.4023 19.3959 16.2857 19.6167 16.1093C19.8376 15.9329 20.0092 15.7025 20.1152 15.4405C20.27 15.2086 20.3681 14.9436 20.4016 14.6668C20.4501 13.3522 20.3448 12.0364 20.088 10.7463C20.0743 10.6551 20.0789 10.562 20.1016 10.4727C20.1312 10.4366 20.2344 10.4727 20.2888 10.383C20.3688 10.303 20.0768 9.62455 19.9104 9.36611C19.8512 9.2485 19.8304 9.17249 19.732 9.37971C19.614 9.60741 19.5575 9.86196 19.568 10.1182C19.7912 11.6608 19.86 13.0106 20.0072 14.5548C20.0309 14.7143 19.9913 14.8768 19.8968 15.0076C19.487 15.4655 18.9847 15.832 18.4232 16.0814Z" fill="white"/>
<path fill-rule="evenodd" clip-rule="evenodd" d="M24.7399 16.0767C24.4031 16.2711 24.4031 16.4935 24.6751 16.5023C24.9454 16.5127 25.2142 16.4573 25.4584 16.3408C25.7025 16.2243 25.9147 16.0502 26.0767 15.8334C26.2097 15.5639 26.2869 15.2702 26.3039 14.9701C26.3699 13.553 26.2857 12.1329 26.0527 10.7336C26.025 10.602 26.01 10.468 26.0079 10.3335C26.0383 10.2535 26.1895 10.3431 26.2479 10.2535C26.3279 10.1735 25.8527 9.56305 25.6879 9.30222C25.6279 9.187 25.6079 9.10939 25.5095 9.31742C25.4 9.54662 25.3662 9.80462 25.4127 10.0543C25.664 11.6382 25.821 13.2356 25.8831 14.8381C25.8695 14.973 25.8386 15.1056 25.7911 15.2326C25.6577 15.4272 25.5032 15.6065 25.3303 15.767C25.1783 15.8806 24.8503 15.9895 24.7479 16.0727" fill="white"/>
<path fill-rule="evenodd" clip-rule="evenodd" d="M24.9915 14.573C24.9915 14.1818 24.9971 13.8434 24.9835 13.5506C24.9699 13.2578 24.8363 12.161 24.7923 11.9258C24.7483 11.6906 24.7035 11.333 24.6323 11.0522C24.5986 10.8891 24.579 10.7234 24.5739 10.557C24.6019 10.477 24.7059 10.557 24.7579 10.4674C24.6987 10.0309 24.5479 9.61192 24.3155 9.23779C24.2531 9.12259 24.1379 9.15779 23.9955 9.34819C23.8643 9.47059 23.9155 9.74819 23.9635 10.0138C24.3289 11.7394 24.5067 13.4995 24.4939 15.2634C24.4771 15.4058 24.9883 14.8418 24.9859 14.573" fill="white"/>
<path fill-rule="evenodd" clip-rule="evenodd" d="M22.5121 12.4059C22.3001 12.4011 21.8585 11.9939 21.7289 11.7571C21.7095 11.7002 21.7018 11.64 21.7063 11.58C21.7109 11.52 21.7276 11.4616 21.7553 11.4083C21.8353 11.3579 21.9537 11.3011 22.0433 11.3563C22.0433 11.3563 22.1361 11.4851 22.1185 11.5035C22.2337 11.5563 22.2825 11.5259 22.2945 11.4779C22.3025 11.3979 22.2593 11.3483 22.2593 11.2571C22.2649 11.2091 22.2845 11.1637 22.3157 11.1267C22.3468 11.0897 22.3882 11.0627 22.4346 11.0491C22.481 11.0354 22.5304 11.0357 22.5766 11.05C22.6228 11.0642 22.6638 11.0917 22.6945 11.1291C22.7682 11.2629 22.8086 11.4124 22.8121 11.5651C22.8121 11.6355 22.6961 11.5523 22.6329 11.5651C22.5697 11.5779 22.5529 11.6571 22.5481 11.7251C22.5361 11.9027 22.5153 12.1867 22.5121 12.4035" fill="white"/>
<path fill-rule="evenodd" clip-rule="evenodd" d="M18.6136 15.011C18.6391 14.3661 18.63 13.7203 18.5864 13.0764C18.5664 12.3331 18.4432 10.9009 18.3864 10.6609C18.3216 10.2088 18.572 10.7089 18.5384 10.4472C18.4227 10.0144 18.2083 9.61432 17.912 9.2783C17.8184 9.14388 17.8208 9.11828 17.672 9.3103C17.5747 9.60575 17.5812 9.92556 17.6904 10.2168C17.8911 11.0852 18.023 11.968 18.0848 12.8571C18.1475 13.788 18.1553 14.7217 18.108 15.6535C18.268 15.6607 18.5216 15.3975 18.6112 15.0134" fill="white"/>
<path fill-rule="evenodd" clip-rule="evenodd" d="M25.7086 14.1569C25.3326 13.5345 24.7726 12.8017 24.6262 12.5513C24.4798 12.3009 23.2054 10.4401 23.0446 10.2753C22.5798 9.78972 23.2574 10.1953 22.9566 9.81932C22.7921 9.62245 22.6082 9.44261 22.4078 9.28252C22.2974 9.21292 22.2318 9.07852 22.1958 9.30812C22.1765 9.50965 22.1711 9.71226 22.1798 9.91452C22.2068 10.0545 22.2699 10.185 22.363 10.2929C23.6129 11.8082 24.7303 13.428 25.703 15.1345C25.8454 15.0601 25.7982 14.2625 25.7086 14.1529" fill="white"/>
<path fill-rule="evenodd" clip-rule="evenodd" d="M21.2011 21.5234C21.1382 21.5339 21.0801 21.5635 21.0345 21.6081C20.989 21.6527 20.9582 21.7102 20.9464 21.7729C20.9347 21.8356 20.9424 21.9003 20.9687 21.9585C20.9949 22.0166 21.0384 22.0652 21.0931 22.0978C17.6171 22.0978 12.2819 22.0386 11.1379 22.0386C10.4979 22.0386 8.47395 21.9634 8.43555 21.9634C8.65467 22.246 8.94394 22.4663 9.2746 22.6025C9.60526 22.7386 9.96578 22.7858 10.3203 22.7394C11.8651 22.7394 19.0187 22.721 21.0539 22.721C21.0031 22.8445 20.9882 22.9799 21.0108 23.1115C21.0334 23.2431 21.0928 23.3656 21.1819 23.465L21.1891 23.4706L21.2035 23.4754H21.2075C21.3435 23.5082 21.4027 23.4106 21.4475 23.3402C21.9677 23.3684 22.489 23.3684 23.0091 23.3402C23.0843 23.4498 23.1603 23.5562 23.3051 23.5386C23.5587 23.4826 23.7579 23.4586 23.7651 22.941C23.7651 22.941 23.7403 22.061 23.1627 22.1194C23.0267 22.141 22.6451 22.1778 22.6451 22.1778C22.2019 22.1258 21.8763 22.121 21.3795 22.0978C21.4251 22.0402 21.5051 21.805 21.4075 21.7186C21.3905 21.7062 21.3713 21.6973 21.3508 21.6924C21.3304 21.6874 21.3091 21.6866 21.2883 21.6898H21.2827H21.2771L21.2683 21.6802H21.2643C21.2403 21.6442 21.2259 21.5546 21.2099 21.5314H21.2051H21.2011V21.5234ZM21.4411 22.7762C21.9475 22.801 22.4243 22.781 22.9315 22.8058C22.9625 22.8414 22.9785 22.8876 22.9762 22.9346C22.974 22.9817 22.9537 23.0261 22.9195 23.0586L22.9099 23.0634H22.8979C22.7315 23.0578 22.6371 23.053 22.4715 23.0506C22.4724 23.0421 22.4724 23.0335 22.4715 23.025C22.4323 22.9098 22.1515 22.9178 22.0819 23.0074V23.013V23.0202L22.0771 23.0282V23.0402V23.0546C21.8616 23.0673 21.6454 23.0619 21.4307 23.0386C21.3659 22.9586 21.3731 22.8114 21.4491 22.7762" fill="white"/>
<path fill-rule="evenodd" clip-rule="evenodd" d="M12.4048 9.78398C12.0664 10.752 12.5992 11.8112 12.9648 11.704C13.2312 11.8128 13.4008 11.304 13.5104 10.7512C13.5856 10.596 13.6416 10.5792 13.6792 10.6584C13.6704 11.3984 13.7328 11.5616 13.9192 11.7848C14.029 11.882 14.1698 11.9369 14.3164 11.9397C14.463 11.9425 14.6058 11.893 14.7192 11.8L15.0488 11.4688C15.0843 11.4315 15.1329 11.4094 15.1844 11.4072C15.2359 11.4049 15.2862 11.4227 15.3248 11.4568C15.4248 11.548 15.4112 11.7064 15.6264 11.8152C15.7389 11.853 15.8595 11.8601 15.9756 11.8357C16.0918 11.8114 16.1993 11.7565 16.2872 11.6768C16.408 11.468 16.4376 11.3984 16.492 11.3184C16.58 11.2048 16.7256 11.2552 16.7256 11.2928C16.7128 11.3552 16.6264 11.4192 16.684 11.5328C16.7872 11.6128 16.8128 11.56 16.872 11.5424C17.0872 11.4408 17.2496 10.9728 17.2496 10.9728C17.2584 10.7984 17.1608 10.8128 17.0968 10.8488C17.0168 10.8992 17.0104 10.9152 16.9264 10.9672C16.8216 10.9832 16.6184 11.0512 16.5168 10.896C16.4444 10.6862 16.3838 10.4725 16.3352 10.256C16.3352 10.2424 16.1976 9.95758 16.3248 9.94158C16.3888 9.95038 16.5256 9.98798 16.5464 9.87438C16.6152 9.75918 16.4032 9.44318 16.2592 9.28238C16.2309 9.24838 16.1957 9.22076 16.1559 9.20137C16.1161 9.18198 16.0727 9.17125 16.0285 9.16989C15.9842 9.16852 15.9402 9.17657 15.8993 9.19348C15.8584 9.21039 15.8216 9.23578 15.7912 9.26798C15.6736 9.37598 15.6912 9.49758 15.6672 9.61198C15.6479 9.69307 15.6478 9.77756 15.667 9.85868C15.6862 9.9398 15.724 10.0153 15.7776 10.0792C15.9747 10.354 16.0671 10.6902 16.0384 11.0272C16.0013 11.0834 15.95 11.1289 15.8898 11.159C15.8296 11.1892 15.7625 11.2031 15.6952 11.1992C15.6048 11.1792 15.4552 11.14 15.3752 10.5592C15.3911 10.1051 15.333 9.65143 15.2032 9.21598C15.1352 9.04158 15.0872 8.87278 14.9224 9.17118C14.8519 9.2641 14.8061 9.37338 14.7893 9.48881C14.7725 9.60423 14.7853 9.72203 14.8264 9.83118C14.9526 10.1575 14.9893 10.5115 14.9328 10.8568C14.8749 10.9555 14.8088 11.0491 14.7352 11.1368C14.6842 11.1951 14.6137 11.2329 14.5369 11.2432C14.4601 11.2535 14.3822 11.2356 14.3176 11.1928C14.2496 11.16 14.191 11.1107 14.1471 11.0493C14.1032 10.9879 14.0754 10.9165 14.0664 10.8416C14.0986 10.4633 14.0857 10.0825 14.028 9.70719C14.016 9.67423 13.9958 9.64489 13.9692 9.622C13.9427 9.5991 13.9107 9.58341 13.8763 9.57642C13.842 9.56944 13.8064 9.57139 13.773 9.5821C13.7396 9.59281 13.7095 9.61192 13.6856 9.63758C13.3615 9.99717 13.1452 10.4408 13.0616 10.9176C12.9656 11.2272 12.8624 11.1392 12.7904 11.0152C12.6152 10.8504 12.604 9.56798 12.3904 9.77758" fill="white"/>
<path fill-rule="evenodd" clip-rule="evenodd" d="M13.5462 11.7812L13.5374 11.7868H13.5334C13.5102 11.8028 13.4822 11.8421 13.4246 11.8837C13.3246 11.9965 13.3078 12.0741 13.3126 12.3013C13.319 12.3253 13.5014 12.8324 13.6574 13.1892C13.7874 13.5751 13.8316 13.9846 13.787 14.3892C13.5202 14.9237 13.098 15.3649 12.5758 15.6549C12.4961 15.6903 12.4099 15.7086 12.3226 15.7086C12.2354 15.7086 12.1491 15.6903 12.0694 15.6549C12.0236 15.6227 11.987 15.5792 11.9633 15.5285C11.9396 15.4778 11.9296 15.4218 11.9342 15.3661C12.4616 15.0849 12.8875 14.6453 13.1518 14.1092C13.2727 13.8212 13.2847 13.499 13.1854 13.2029C13.1562 13.047 13.0845 12.9022 12.9782 12.7844C13.0446 12.7532 13.2222 12.8837 13.2502 12.8021C13.1962 12.5603 13.0753 12.3385 12.9014 12.162C12.8758 12.1311 12.844 12.1057 12.8081 12.0875C12.7722 12.0694 12.733 12.0588 12.6928 12.0565C12.6527 12.0541 12.6125 12.0601 12.5747 12.074C12.537 12.0879 12.5025 12.1094 12.4734 12.1373C12.3254 12.2173 12.2942 12.5117 12.3654 12.7693C12.4454 12.9629 12.6566 12.9949 12.8078 13.3861C12.8078 13.4101 12.859 13.6765 12.7822 13.7861C12.5167 14.1103 12.2098 14.3983 11.8694 14.6428V14.6468C11.8694 14.6316 11.8694 14.5909 11.8694 14.5269C11.8646 14.4093 11.9118 14.1444 11.907 14.0988C11.6446 14.27 11.5598 14.7885 11.511 14.9412C10.8563 15.3075 10.2357 15.7316 9.65664 16.2084C9.42944 16.5628 11.2166 15.8029 11.4246 15.7101L11.4302 15.7157C11.4694 15.7596 11.4734 15.9108 11.5902 16.0468C11.7046 16.1839 11.8555 16.2859 12.0254 16.3408C12.1953 16.3957 12.3772 16.4014 12.5502 16.3573C13.1212 16.1205 13.6072 15.7167 13.9446 15.1988C13.9974 15.1188 14.083 15.0605 14.1606 15.1188C14.3667 15.4529 14.6589 15.7253 15.0066 15.9073C15.3544 16.0893 15.7447 16.1743 16.1366 16.1532C16.3614 15.882 16.2542 15.7484 16.1638 15.6916C16.1366 15.6732 15.6838 15.4956 15.6126 15.3204C15.5678 15.1548 15.675 15.0116 15.891 14.9028C16.5088 14.8445 17.1195 14.7274 17.715 14.5532C17.7384 14.3336 17.8071 14.1211 17.9166 13.9292C17.9404 13.8838 17.9757 13.8454 18.019 13.818C18.0201 13.813 18.0201 13.8079 18.019 13.8029L17.9182 13.7428L15.935 13.7364C15.9159 13.7284 15.8974 13.7188 15.8798 13.7077V13.7028V13.6941V13.6885C15.8987 13.6725 15.9204 13.6603 15.9438 13.6525C16.4174 13.5893 17.259 13.4509 17.3158 12.6429C17.3319 12.5465 17.3265 12.4477 17.3001 12.3537C17.2736 12.2596 17.2268 12.1725 17.1628 12.0986C17.0989 12.0247 17.0195 11.9658 16.9302 11.9261C16.8409 11.8864 16.7439 11.8669 16.6462 11.8689C16.5485 11.871 16.4525 11.8945 16.3649 11.9379C16.2774 11.9813 16.2005 12.0434 16.1397 12.1199C16.0789 12.1964 16.0357 12.2854 16.0132 12.3804C15.9906 12.4755 15.9894 12.5744 16.0094 12.67C15.9918 12.7796 16.047 12.99 15.935 13.0148C15.2062 13.0836 14.4094 13.5381 14.3838 13.8661H14.3566C14.3213 13.8464 14.2928 13.8164 14.2751 13.78C14.2574 13.7437 14.2512 13.7028 14.2574 13.6629C14.2233 13.0526 14.0451 12.459 13.7374 11.9309C13.6334 11.8277 13.5894 11.7868 13.5606 11.7812H13.5462ZM16.4462 12.5053C16.5006 12.5042 16.5542 12.5186 16.6006 12.5469C16.633 12.5607 16.6611 12.5827 16.6823 12.6108C16.7035 12.6388 16.717 12.672 16.7214 12.7069V12.7125V12.7197V12.7309C16.7179 12.7355 16.7138 12.7398 16.7094 12.7437C16.6766 12.7633 16.6385 12.7727 16.6003 12.7704C16.562 12.7681 16.5253 12.7543 16.495 12.7309C16.4629 12.7165 16.4349 12.6943 16.4135 12.6664C16.3922 12.6384 16.3781 12.6056 16.3726 12.5709V12.566C16.374 12.5596 16.3764 12.5533 16.3798 12.5476V12.5412C16.3824 12.5379 16.3853 12.535 16.3886 12.5324C16.4032 12.5212 16.4207 12.5145 16.439 12.5132M14.5934 14.1876H14.6166C14.8901 14.2378 15.1668 14.2688 15.4446 14.2804C15.675 14.2973 15.791 14.478 15.575 14.5524C15.359 14.6268 15.1582 14.6828 15.1574 14.9892C15.1846 15.142 15.1798 15.2212 15.1574 15.2588L15.151 15.2668H15.147C15.1441 15.2695 15.1405 15.2714 15.1366 15.2724H15.1302C15.0758 15.2804 15.003 15.2316 14.9478 15.2044C14.8004 15.1199 14.6742 15.0029 14.5787 14.8624C14.4832 14.7218 14.421 14.5614 14.3966 14.3932C14.3953 14.3653 14.3997 14.3374 14.4096 14.3112C14.4194 14.2851 14.4345 14.2612 14.4539 14.241C14.4733 14.2209 14.4966 14.2049 14.5224 14.1941C14.5482 14.1833 14.5759 14.1778 14.6038 14.178" fill="white"/>
<path fill-rule="evenodd" clip-rule="evenodd" d="M8.22798 9.79688C8.45838 9.90568 8.88638 9.85848 8.86798 9.48968C8.86798 9.45688 8.85838 9.34808 8.85598 9.31848C8.80958 9.20968 8.68238 9.23848 8.65358 9.34888C8.64398 9.38568 8.66878 9.44488 8.63518 9.46328C8.61758 9.48328 8.54318 9.47208 8.54718 9.36968C8.5427 9.33753 8.52972 9.30715 8.50958 9.28168C8.49425 9.27231 8.47622 9.26836 8.45838 9.27048C8.42798 9.27048 8.42798 9.27928 8.41038 9.30728C8.4007 9.33296 8.39477 9.35991 8.39278 9.38728C8.38798 9.42328 8.37518 9.43528 8.34798 9.44088C8.32078 9.44648 8.32478 9.44488 8.30078 9.42968C8.27678 9.41448 8.26798 9.40648 8.26798 9.38008C8.26853 9.3496 8.26366 9.31926 8.25358 9.29048C8.23924 9.27427 8.21974 9.26353 8.19838 9.26008C8.07358 9.26008 8.06478 9.40248 8.07198 9.45688C8.06318 9.46648 8.05678 9.72168 8.22638 9.79288" fill="white"/>
<path fill-rule="evenodd" clip-rule="evenodd" d="M14.9244 12.6259C15.154 12.7339 15.6964 12.6715 15.5644 12.3195C15.5644 12.2859 15.5564 12.1755 15.5524 12.1483C15.5068 12.0387 15.3796 12.0643 15.3508 12.1779C15.342 12.2131 15.3668 12.2739 15.334 12.2923C15.3148 12.3115 15.2412 12.3003 15.2444 12.1987C15.24 12.1662 15.2264 12.1357 15.2052 12.1107C15.1906 12.1008 15.1731 12.0962 15.1556 12.0979C15.1244 12.0979 15.1244 12.1075 15.1084 12.1355C15.0973 12.1625 15.0908 12.1912 15.0892 12.2203C15.0844 12.2555 15.0716 12.2699 15.0452 12.2739C15.0188 12.2779 15.0228 12.2739 14.9972 12.2635C14.9716 12.2531 14.9652 12.2403 14.9652 12.2123C14.9659 12.1821 14.961 12.152 14.9508 12.1235C14.9365 12.1066 14.9166 12.0955 14.8948 12.0923C14.7708 12.0923 14.7628 12.2363 14.7692 12.2891C14.7604 12.2987 14.7548 12.5547 14.9244 12.6259Z" fill="white"/>
<path fill-rule="evenodd" clip-rule="evenodd" d="M18.8308 11.4515C19.0588 11.5619 19.4876 11.5139 19.4708 11.1475C19.4708 11.1139 19.4628 11.0051 19.4596 10.9747C19.4116 10.8659 19.2852 10.8947 19.258 11.0051C19.2484 11.0427 19.2732 11.1019 19.2388 11.1195C19.2204 11.1379 19.1476 11.1267 19.1516 11.0251C19.1471 10.9932 19.1335 10.9632 19.1124 10.9387C19.098 10.928 19.0799 10.9234 19.062 10.9259C19.03 10.9259 19.03 10.9355 19.0132 10.9619C19.0041 10.9894 18.9982 11.0179 18.9956 11.0467C18.9916 11.0835 18.9796 11.0963 18.9516 11.1019C18.9236 11.1075 18.9284 11.1059 18.9052 11.0891C18.882 11.0723 18.8724 11.0683 18.8724 11.0427C18.8723 11.011 18.8674 10.9794 18.858 10.9491C18.8427 10.9344 18.8236 10.9241 18.8028 10.9195C18.6772 10.9195 18.6684 11.0627 18.6756 11.1163C18.666 11.1267 18.662 11.3819 18.8316 11.4515" fill="white"/>
<path fill-rule="evenodd" clip-rule="evenodd" d="M20.8526 14.3952C20.7167 14.5904 20.6332 14.8173 20.6101 15.054C20.587 15.2908 20.625 15.5295 20.7206 15.7473C20.8118 15.9872 20.9865 16.186 21.2126 16.3074C21.2488 16.3402 21.2916 16.3649 21.3381 16.38C21.3846 16.395 21.4337 16.4001 21.4823 16.3948C21.5309 16.3895 21.5778 16.374 21.62 16.3493C21.6621 16.3246 21.6986 16.2912 21.727 16.2514C21.9598 16.0114 21.967 15.3889 22.0734 15.2665C22.0813 15.2277 22.1001 15.1921 22.1277 15.1638C22.1553 15.1355 22.1904 15.1157 22.2289 15.1067C22.2674 15.0978 22.3077 15.1001 22.3449 15.1134C22.3822 15.1267 22.4148 15.1504 22.439 15.1817C22.5247 15.3025 22.6387 15.4005 22.771 15.4673C22.8667 15.5638 22.9942 15.6222 23.1297 15.6316C23.2653 15.641 23.3996 15.6008 23.5078 15.5185C23.6928 15.4143 23.8323 15.2448 23.899 15.0432C23.9822 14.112 23.9916 13.1756 23.927 12.2429C23.9198 12.1773 23.7006 11.0924 23.7006 11.0812C23.7006 11.0699 23.6726 10.5275 23.6478 10.3987C23.6478 10.3475 23.6318 10.3315 23.6862 10.3379C23.7151 10.3678 23.75 10.3912 23.7886 10.4067C23.847 10.4179 23.899 10.3179 23.8638 10.225C23.6814 9.89007 23.4998 9.55536 23.319 9.22092C23.2758 9.17771 23.219 9.13131 23.1494 9.23292C23.1073 9.2703 23.0735 9.31596 23.0499 9.36704C23.0264 9.41812 23.0137 9.47352 23.0126 9.52976C23.0294 9.76979 23.071 10.0098 23.0878 10.2498C23.1598 10.6555 23.2342 11.0635 23.3054 11.4716C23.3726 12.3421 23.3918 13.139 23.4598 14.0095C23.4494 14.3784 23.3366 14.8696 23.2278 14.9152C23.2278 14.9152 23.0638 15.0088 22.955 14.904C22.8034 14.7414 22.6693 14.5634 22.555 14.3728C22.5327 14.3422 22.5035 14.3173 22.4698 14.3001C22.4361 14.283 22.3988 14.274 22.361 14.274C22.3231 14.274 22.2858 14.283 22.2521 14.3001C22.2184 14.3173 22.1892 14.3422 22.167 14.3728C21.8817 14.7687 21.6521 15.2018 21.4846 15.6601C21.4278 15.7497 21.2694 15.8257 21.0934 15.6529C20.8636 15.2775 20.7783 14.8313 20.8534 14.3976" fill="white"/>
<path fill-rule="evenodd" clip-rule="evenodd" d="M18.9329 9.31323C19.0408 9.39289 19.1255 9.49992 19.1782 9.62325C19.231 9.74659 19.2498 9.88177 19.2329 10.0148C19.1929 10.2644 19.0849 10.5356 19.0057 10.5004C18.9265 10.4652 19.0649 10.2516 18.9825 10.0204C18.9377 9.87323 18.6625 9.60123 18.6873 9.52203C18.6289 9.35483 18.8057 9.28203 18.9329 9.31083" fill="white"/>
<path fill-rule="evenodd" clip-rule="evenodd" d="M21.5104 14.644C21.5278 14.2789 21.5139 13.913 21.4688 13.5504C21.4552 13.2584 21.1376 10.8888 21.0736 10.6704C20.9936 10.252 21.3832 10.6144 21.34 10.3704C21.2064 10.064 20.8728 9.61677 20.7688 9.35117C20.7056 9.23757 20.732 9.13517 20.5912 9.32157C20.4696 9.6539 20.4263 10.0098 20.4648 10.3616C20.8598 12.0032 21.0704 13.6837 21.0928 15.372C21.2528 15.372 21.4352 15.0072 21.5128 14.648" fill="white"/>
<path fill-rule="evenodd" clip-rule="evenodd" d="M25.007 9.90812C25.1934 10.0001 25.3022 10.5193 25.283 10.6681C25.2438 10.9393 25.1462 11.2281 25.075 11.1929C25.0038 11.1577 25.0894 10.7929 25.0526 10.6777C25.011 10.5177 24.7574 10.2233 24.7846 10.1361C24.7729 10.1048 24.7703 10.0709 24.7772 10.0382C24.7841 10.0055 24.8001 9.97545 24.8235 9.95154C24.8468 9.92763 24.8764 9.91086 24.9089 9.90317C24.9414 9.89548 24.9754 9.89719 25.007 9.90812Z" fill="white"/>
<path fill-rule="evenodd" clip-rule="evenodd" d="M11.1411 13.7015C11.3195 13.7703 11.4251 14.1519 11.4043 14.2615C11.3699 14.4607 11.2739 14.6767 11.2067 14.6479C11.1395 14.6191 11.2211 14.3527 11.1851 14.2687C11.1715 14.0647 10.9235 13.9583 10.9291 13.8687C10.8811 13.7087 11.0315 13.6783 11.1411 13.7015Z" fill="white"/>
<path fill-rule="evenodd" clip-rule="evenodd" d="M6.3729 9.19322C6.6353 9.27322 6.6513 9.65802 6.6321 9.77242C6.5961 9.97802 6.5041 10.2004 6.4361 10.1724C6.3681 10.1444 6.4361 9.86602 6.3977 9.77882C6.3601 9.65562 6.1377 9.43402 6.1625 9.36682C6.1113 9.22842 6.2649 9.16762 6.3729 9.19322Z" fill="white"/>
<path fill-rule="evenodd" clip-rule="evenodd" d="M11.5719 11.0172C11.4716 11.0821 11.3999 11.1828 11.3712 11.2987C11.3425 11.4146 11.359 11.5371 11.4175 11.6412C11.4553 11.6896 11.5069 11.7254 11.5654 11.7441C11.6238 11.7628 11.6866 11.7634 11.7455 11.746C11.9439 11.7708 12.0607 11.3748 12.0607 11.3748C12.0607 11.3748 12.0663 11.2636 11.8311 11.474C11.7327 11.4916 11.7207 11.4564 11.6951 11.4004C11.6715 11.2963 11.6825 11.1874 11.7263 11.09C11.7615 10.9932 11.6855 10.9492 11.5719 11.0172Z" fill="white"/>
<path fill-rule="evenodd" clip-rule="evenodd" d="M13.0861 9.04479C13.0007 9.10412 12.9289 9.18097 12.8755 9.27022C12.8221 9.35947 12.7884 9.45907 12.7765 9.56238C12.7693 9.69918 12.7437 9.69918 12.8333 9.78558C12.8989 9.87758 12.9629 9.86558 13.0925 9.80238C13.1251 9.78153 13.153 9.75424 13.1746 9.72218C13.1962 9.69012 13.211 9.65398 13.2181 9.61598C13.2501 9.46318 13.0581 9.69038 13.0293 9.51918C12.9869 9.35918 13.1093 9.29359 13.2301 9.13919C13.2301 9.03359 13.2301 8.95999 13.0861 9.04479Z" fill="white"/>
<path fill-rule="evenodd" clip-rule="evenodd" d="M14.3074 9.25941C14.259 9.45718 14.23 9.65921 14.221 9.86261C14.1858 10.0114 14.381 10.0754 14.4658 9.88181C14.5527 9.67429 14.5999 9.45232 14.605 9.22741C14.565 8.99861 14.4098 9.00661 14.3074 9.25941Z" fill="white"/>
<path fill-rule="evenodd" clip-rule="evenodd" d="M22.0036 13.1697C22.0316 13.1449 23.0892 12.3929 23.0892 12.3929C23.1964 12.3561 23.1692 12.7809 23.1236 12.7761C22.7957 13.0957 22.4173 13.359 22.0036 13.5553C21.9532 13.5937 21.898 13.2641 22.0036 13.1697Z" fill="white"/>
<path fill-rule="evenodd" clip-rule="evenodd" d="M22.9694 13.1666C23.1566 13.2586 23.2302 13.8026 23.2094 13.9522C23.2166 14.2394 23.0302 14.4706 22.959 14.4322C22.8878 14.3938 22.9662 14.0754 22.9286 13.9594C22.887 13.7994 22.7302 13.4978 22.7566 13.4098C22.7445 13.3789 22.7411 13.3453 22.7469 13.3126C22.7527 13.2799 22.7674 13.2495 22.7895 13.2246C22.8115 13.1998 22.8399 13.1815 22.8717 13.1719C22.9035 13.1622 22.9373 13.1615 22.9694 13.1698" fill="white"/>
<path fill-rule="evenodd" clip-rule="evenodd" d="M16.6759 15.5186C16.7634 15.4161 16.8659 15.3274 16.9799 15.2554C17.0135 15.2426 17.0499 15.239 17.0854 15.245C17.1209 15.2511 17.154 15.2666 17.1815 15.2898C17.1999 15.3954 17.1159 15.4922 17.1423 15.6322C17.1655 15.6882 17.1815 15.7514 17.2855 15.7274C17.4279 15.6234 17.6013 15.5707 17.7775 15.5778C17.9047 15.585 17.9111 15.8042 17.8279 15.8066C17.597 15.8622 17.3724 15.941 17.1575 16.0418C17.1272 16.061 17.0912 16.069 17.0556 16.0643C17.0201 16.0597 16.9873 16.0426 16.9631 16.0162C16.9432 15.9874 16.9311 15.9539 16.9279 15.919C16.9247 15.8842 16.9305 15.849 16.9447 15.817C16.9527 15.7058 16.9079 15.645 16.8143 15.657C16.7447 15.6946 16.6831 15.7194 16.6487 15.6386C16.6343 15.5794 16.6295 15.5514 16.6759 15.5186Z" fill="white"/>
<path fill-rule="evenodd" clip-rule="evenodd" d="M24.0836 15.8144C24.0981 15.827 24.1098 15.8426 24.1178 15.8602C24.1258 15.8777 24.13 15.8968 24.13 15.916C24.13 15.9353 24.1258 15.9543 24.1178 15.9719C24.1098 15.9894 24.0981 16.005 24.0836 16.0176C24.01 16.0872 23.9564 16.124 23.882 16.192C23.8484 16.2528 23.8244 16.3432 23.9316 16.3704C24.13 16.4264 24.5876 16.1304 24.5876 16.124C24.6104 16.1051 24.6268 16.0795 24.6344 16.0508C24.642 16.0221 24.6404 15.9918 24.63 15.964C24.5876 15.916 24.49 15.944 24.4236 15.936C24.3924 15.936 24.2924 15.92 24.3436 15.8296C24.3775 15.7802 24.4044 15.7264 24.4236 15.6696C24.454 15.6024 24.4292 15.5552 24.3172 15.5192C24.2226 15.504 24.1262 15.504 24.0316 15.5192C23.9644 15.5352 23.9412 15.5648 23.9292 15.6464C23.9332 15.772 24.0092 15.764 24.0892 15.8152" fill="white"/>
</g>
</g>
<defs>
<clipPath id="clip0_583_7187">
<rect width="31.9976" height="32" fill="white"/>
</clipPath>
</defs>
</svg>
