<svg width="32" height="32" viewBox="0 0 32 32" fill="none" xmlns="http://www.w3.org/2000/svg">
<g clip-path="url(#clip0_583_7154)">
<mask id="mask0_583_7154" style="mask-type:luminance" maskUnits="userSpaceOnUse" x="0" y="0" width="33" height="32">
<path d="M16.0039 0H15.6495C11.8095 0.08 9.83591 0.3808 8.00871 1.0096C6.2412 1.61699 4.65001 2.64939 3.37511 4.016C2.31713 5.245 1.50703 6.66715 0.989506 8.204C0.38047 10.1305 0.0570337 12.1358 0.0295063 14.156C0.0039063 14.9504 0.00390625 15.06 0.00390625 16C0.00390625 16.94 0.0039063 17.0488 0.0295063 17.84C0.0570912 19.8602 0.380526 21.8655 0.989506 23.792C1.50538 25.3305 2.31472 26.7544 3.37271 27.9848C4.64683 29.351 6.23721 30.3832 8.00391 30.9904C9.83111 31.6184 11.8023 31.9208 15.6447 32H16.3535C20.1935 31.92 22.1671 31.6184 23.9935 30.9904C25.7623 30.3841 27.3547 29.3519 28.6303 27.9848C29.6883 26.7558 30.4984 25.3337 31.0159 23.7968C31.6245 21.8702 31.9479 19.865 31.9759 17.8448C32.0015 17.0504 32.0015 16.9408 32.0015 16.0048C32.0015 15.0688 32.0015 14.9552 31.9759 14.1608C31.948 12.1406 31.6245 10.1353 31.0159 8.2088C30.4981 6.67209 29.688 5.25 28.6303 4.0208C27.3558 2.65223 25.7642 1.61813 23.9959 1.0096C22.1695 0.3808 20.1975 0.0784 16.3559 0H16.0039Z" fill="white"/>
</mask>
<g mask="url(#mask0_583_7154)">
<path d="M53.9112 -1.29688H-3.93359V37.2383H53.9112V-1.29688Z" fill="#19307A"/>
<path d="M5.16611 15.5391L5.71651 17.1775L7.34771 16.5839L6.40291 18.0327L7.88691 18.9319L6.15811 19.1007L6.37651 20.8143L5.16611 19.5751L3.95491 20.8143L4.17411 19.1007L2.44531 18.9319L3.92931 18.0327L2.98371 16.5839L4.61571 17.1775L5.16611 15.5391Z" fill="white"/>
<path d="M21.2416 11.1953L21.5384 12.0809L22.4184 11.7609L21.908 12.5441L22.708 13.0313L21.7728 13.1217L21.8912 14.0481L21.2368 13.3777L20.5816 14.0481L20.7008 13.1217L19.7656 13.0313L20.5656 12.5441L20.0544 11.7609L20.9344 12.0809L21.2416 11.1953Z" fill="white"/>
<path d="M16.5261 -0.460938H-6.15625V14.1991H16.5261V-0.460938Z" fill="#19307A"/>
<path d="M8.28897 8.74219H6.79297V9.51099L13.9418 14.1958H16.5266V14.1918L8.28897 8.74219Z" fill="white"/>
<path d="M9.76758 8.74459L16.5252 13.2134V12.7054L10.478 8.74219L9.76758 8.74459Z" fill="white"/>
<path d="M-0.14825 8.74459L-6.15625 12.6494V14.1822L2.22295 8.74219L-0.14825 8.74459Z" fill="white"/>
<path d="M3.57641 8.83594L-4.68359 14.1935H-3.65239L3.57641 9.49674V8.83594Z" fill="white"/>
<path d="M0.767749 4.99459L-6.15625 0.492188V1.02659L-0.10505 4.99459H0.767749Z" fill="white"/>
<path d="M10.5102 4.99168L16.5262 1.08288V-0.453125L8.1582 4.99168H10.5102Z" fill="white"/>
<path d="M3.57615 4.99426V4.21986L-3.56705 -0.460938H-6.12305L2.26495 4.99426H3.57615Z" fill="white"/>
<path d="M6.79297 4.91026L15.0442 -0.460938H14.017L6.79297 4.23426V4.91026Z" fill="white"/>
<path d="M3.57575 8.74219H2.22295L-6.15625 14.1798V14.1958H-4.68425L3.57575 8.83579V8.74219Z" fill="#FF0102"/>
<path d="M6.79297 4.99426H8.15937L16.5266 -0.450537V-0.460938H15.0442L6.79297 4.91026V4.99426Z" fill="#FF0102"/>
<path d="M8.28906 8.74219L16.5291 14.1918V13.211L9.77146 8.74219H8.28906Z" fill="#FF0102"/>
<path d="M2.26455 4.99426L-6.12345 -0.460938H-6.15625V0.491863L0.767749 4.99426H2.26455Z" fill="#FF0102"/>
<path d="M4.21575 7.97656H-6.15625V8.74376H3.57575V14.1974H4.21575V7.97656Z" fill="white"/>
<path d="M6.18359 5.72706H16.5268V4.99426H6.79239V-0.460938H6.18359V5.72706Z" fill="white"/>
<path d="M6.79239 8.74376H16.526V7.97656H6.18359V14.1974H6.79239V8.74376Z" fill="white"/>
<path d="M4.21575 5.72706V-0.460938H3.57575V4.99426H-6.15625V5.72706H4.21575Z" fill="white"/>
<path d="M6.18375 7.97826H16.5269V5.72626H6.18375V-0.460938H4.21575V5.72626H-6.15625V7.97826H4.21575V14.1991H6.18375V7.97826Z" fill="#FF0102"/>
</g>
</g>
<defs>
<clipPath id="clip0_583_7154">
<rect width="31.9976" height="32" fill="white" transform="translate(0.00390625)"/>
</clipPath>
</defs>
</svg>
