<svg width="24" height="24" viewBox="0 0 24 24" fill="none" xmlns="http://www.w3.org/2000/svg">
<g clip-path="url(#clip0_8918_95360)">
<mask id="mask0_8918_95360" style="mask-type:luminance" maskUnits="userSpaceOnUse" x="0" y="0" width="24" height="25">
<path d="M12.0012 0H11.7336C8.85344 0.060003 7.37377 0.285614 6.0027 0.756638C4.67775 1.21238 3.48498 1.98648 2.52913 3.01095C1.73536 3.93235 1.12773 4.99887 0.739837 6.15151C0.282674 7.59633 0.0400759 9.10044 0.019801 10.6157C-4.47057e-09 11.211 0 11.2932 0 11.9958C0 12.6984 -4.47057e-09 12.783 0.019801 13.3789C0.0400739 14.894 0.282673 16.3979 0.739837 17.8425C1.12723 18.9968 1.73489 20.065 2.52913 20.9878C3.48498 22.0134 4.67853 22.788 6.0045 23.2434C7.37557 23.712 8.85344 23.9406 11.7336 24.0006H12.2658C15.146 23.9406 16.6256 23.7144 17.9955 23.2434C19.3219 22.7885 20.5157 22.0138 21.4715 20.9878C22.2652 20.0662 22.8729 18.9995 23.2608 17.8467C23.7176 16.402 23.9602 14.8981 23.9808 13.3831C24 12.7872 24 12.705 24 12C24 11.295 24 11.2128 23.9808 10.6199C23.9602 9.10467 23.7176 7.60061 23.2608 6.15571C22.8739 5.00172 22.2669 3.93374 21.4733 3.01095C20.5172 1.98518 19.3235 1.21037 17.9973 0.754838C16.6274 0.285614 15.1484 0.059403 12.2676 0H12.0012Z" fill="white"/>
</mask>
<g mask="url(#mask0_8918_95360)">
<path fill-rule="evenodd" clip-rule="evenodd" d="M30.2694 -0.169434H-6.26758V7.94357H30.2694V-0.169434Z" fill="#FFCC00"/>
<path d="M30.2694 16.0566H-6.26758V24.1696H30.2694V16.0566Z" fill="#E3001C"/>
<path d="M30.2694 7.94336H-6.26758V16.0564H30.2694V7.94336Z" fill="#002DA6"/>
<path fill-rule="evenodd" clip-rule="evenodd" d="M10.4615 8.57227L10.8257 9.2401L11.5727 9.09789L11.0495 9.64992L11.4161 10.3166L10.7285 9.98954L10.2076 10.5434L10.306 9.78973L9.61781 9.46571L10.366 9.3265L10.4615 8.57227ZM19.2483 13.5159L19.0419 14.2479L18.281 14.275L18.9141 14.695L18.7047 15.4312L19.3047 14.9602L19.9359 15.385L19.6725 14.6716L20.2725 14.2035L19.5087 14.2311L19.2483 13.5159ZM18.7437 11.5754L18.0422 11.8706L17.5472 11.291L17.6114 12.0482L16.9088 12.3411L17.6498 12.5139L17.7098 13.2717L18.1034 12.6213L18.8439 12.7971L18.3464 12.2216L18.7437 11.5754ZM16.4036 9.60732L15.8401 10.1185L15.1801 9.73812L15.4921 10.4318L14.9269 10.9406L15.6829 10.8578L15.9931 11.5526L16.1479 10.808L16.9046 10.7288L16.2445 10.3514L16.4036 9.60732ZM13.5414 8.57227L13.173 9.2401L12.4254 9.09789L12.9486 9.64992L12.5826 10.3166L13.2696 9.98954L13.7904 10.5434L13.695 9.79093L14.3832 9.46691L13.635 9.3277L13.5414 8.57227ZM4.75337 13.5159L4.95978 14.2479L5.72002 14.275L5.08698 14.695L5.29639 15.4312L4.69636 14.9602L4.06513 15.385L4.32855 14.6716L3.72852 14.2035L4.48875 14.2335L4.75337 13.5159ZM5.25739 11.5754L5.95883 11.8706L6.45265 11.291L6.39265 12.0512L7.09468 12.3441L6.35365 12.5169L6.29364 13.2747L5.90002 12.6243L5.15959 12.8001L5.65701 12.2246L5.25739 11.5754ZM7.59751 9.60732L8.16094 10.1185L8.82097 9.73812L8.50896 10.4318L9.07418 10.9406L8.31815 10.8578L8.00853 11.5526L7.85372 10.811L7.09708 10.7318L7.75712 10.3544L7.59751 9.60732Z" fill="#F4F4F4"/>
</g>
</g>
<defs>
<clipPath id="clip0_8918_95360">
<rect width="24" height="24.0006" fill="white"/>
</clipPath>
</defs>
</svg>
