<svg width="32" height="32" viewBox="0 0 32 32" fill="none" xmlns="http://www.w3.org/2000/svg">
<g clip-path="url(#clip0_583_7076)">
<mask id="mask0_583_7076" style="mask-type:luminance" maskUnits="userSpaceOnUse" x="-1" y="0" width="33" height="32">
<path d="M15.6429 0C11.8034 0.08 9.83006 0.3808 8.00309 1.0096C6.23555 1.61638 4.64462 2.6492 3.37087 4.0168C2.31253 5.24541 1.50199 6.6673 0.98397 8.204C0.375414 10.1305 0.0520279 12.1358 0.0240905 14.156C-0.00390599 14.9504 -0.00390625 15.0608 -0.00390625 16C-0.00390625 16.9392 -0.0039062 17.0488 0.0216906 17.84C0.0495616 19.8605 0.372949 21.866 0.981571 23.7928C1.49971 25.3312 2.31111 26.7545 3.37087 27.984C4.64467 29.3514 6.2356 30.3839 8.00309 30.9904C9.83006 31.6192 11.8018 31.9208 15.6429 32H16.3516C20.1912 31.92 22.1637 31.6192 23.9907 30.9904C25.7583 30.3837 27.3495 29.3512 28.6237 27.984C29.6823 26.7554 30.4926 25.3331 31.0098 23.796C31.6188 21.8693 31.9422 19.8637 31.9697 17.8432C31.9961 17.0488 31.9961 16.94 31.9961 16.0032C31.9961 15.0664 31.9961 14.9536 31.9697 14.1592C31.9422 12.139 31.6188 10.1337 31.0098 8.2072C30.4924 6.6704 29.6821 5.24846 28.6237 4.02C27.3506 2.65171 25.7602 1.61783 23.9931 1.0096C22.1637 0.3808 20.192 0.08 16.3516 0H15.6429Z" fill="white"/>
</mask>
<g mask="url(#mask0_583_7076)">
<path d="M36.5578 0H-4.56348V32H36.5578V0Z" fill="white"/>
<path d="M15.994 7.97656C17.6193 7.97704 19.208 8.45951 20.5592 9.36297C21.9104 10.2664 22.9634 11.5503 23.585 13.0523C24.2066 14.5542 24.369 16.2068 24.0515 17.801C23.7341 19.3952 22.9511 20.8595 21.8016 22.0087C20.6521 23.1579 19.1877 23.9404 17.5935 24.2573C15.9994 24.5742 14.3471 24.4111 12.8455 23.7889C11.344 23.1666 10.0607 22.113 9.15789 20.7613C8.25507 19.4096 7.77328 17.8205 7.77344 16.195C7.77429 14.015 8.64075 11.9246 10.1823 10.3835C11.7239 8.84232 13.8143 7.97656 15.994 7.97656Z" fill="#ED1C2F"/>
<path d="M8.16544 1.48251L8.16581 1.48238C9.92036 0.878509 11.833 0.579728 15.6482 0.5H16.3464C20.1622 0.579723 22.0733 0.878467 23.8304 1.48238C25.5169 2.06287 27.035 3.04886 28.2512 4.35362C29.2633 5.5303 30.0386 6.89149 30.5345 8.36235C31.1278 10.2409 31.4429 12.1962 31.4697 14.166L31.4696 14.166L31.47 14.1758C31.4961 14.9619 31.4961 15.0694 31.4961 16.0001V16.0032V16.0065C31.4961 16.9369 31.4961 17.0405 31.47 17.8266L31.4699 17.8266L31.4697 17.8364C31.4429 19.8065 31.1278 21.7621 30.5345 23.6409C30.0388 25.112 29.2635 26.4734 28.2513 27.6502C27.0341 28.9539 25.5153 29.9385 23.8284 30.5175L23.828 30.5176C22.0734 31.1215 20.1616 31.4203 16.3464 31.5H15.6481C11.8315 31.4211 9.92042 31.1215 8.16581 30.5176L8.16537 30.5175C6.4786 29.9387 4.96002 28.954 3.74329 27.6502C2.72984 26.4725 1.95347 25.11 1.45692 23.6377C0.863914 21.7588 0.548819 19.8032 0.521643 17.8331H0.521729L0.521429 17.8238C0.496094 17.0407 0.496094 16.9363 0.496094 16.0031V16V15.9967C0.496094 15.064 0.496094 14.9592 0.52378 14.1736L0.523895 14.1736L0.524043 14.1629C0.551283 12.1931 0.86637 10.2378 1.4593 8.3592C1.95574 6.88844 2.73128 5.52732 3.74337 4.35048C4.96005 3.04649 6.47862 2.06158 8.16544 1.48251Z" stroke="#F6F6F6"/>
</g>
</g>
<defs>
<clipPath id="clip0_583_7076">
<rect width="32" height="32" fill="white" transform="translate(-0.00390625)"/>
</clipPath>
</defs>
</svg>
