<svg width="32" height="32" viewBox="0 0 32 32" fill="none" xmlns="http://www.w3.org/2000/svg">
<g clip-path="url(#clip0_583_8330)">
<mask id="mask0_583_8330" style="mask-type:luminance" maskUnits="userSpaceOnUse" x="0" y="0" width="32" height="33">
<path d="M15.9992 0.0078125H15.6448C11.805 0.0878245 9.83231 0.39027 8.0052 1.01916C6.23714 1.62421 4.64546 2.65586 3.37103 4.02282C2.31262 5.25135 1.5025 6.67355 0.985551 8.21064C0.376633 10.1371 0.0532143 12.1425 0.0255987 14.1627C2.98008e-09 14.9573 0 15.0669 0 16.0078C0 16.9488 2.98008e-09 17.0568 0.0255987 17.8481C0.0530302 19.8684 0.376453 21.8737 0.985551 23.8002C1.5029 25.3373 2.31298 26.7597 3.37103 27.9888C4.64531 29.3567 6.23695 30.3894 8.0052 30.9957C9.83231 31.6254 11.8042 31.927 15.6448 32.0062H16.3536C20.1934 31.9262 22.1669 31.6254 23.994 30.9957C25.7619 30.3892 27.3532 29.3565 28.6274 27.9888C29.6857 26.7598 30.4961 25.3374 31.0136 23.8002C31.6224 21.8736 31.9458 19.8683 31.9736 17.8481C32 17.0536 32 16.944 32 16.0078C32 15.0717 32 14.9573 31.9736 14.1627C31.9456 12.1425 31.6222 10.1372 31.0136 8.21064C30.4964 6.67351 29.686 5.25131 28.6274 4.02282C27.3535 2.65488 25.7621 1.62213 23.994 1.01596C22.1669 0.39027 20.1982 0.0878245 16.3536 0.0078125H15.9992Z" fill="white"/>
</mask>
<g mask="url(#mask0_583_8330)">
<path d="M-0.121094 25.8014V-0.296869H25.9696C27.2798 -0.298674 28.5603 0.0931766 29.6452 0.827895C30.7301 1.56261 31.5693 2.60632 32.0541 3.82375C32.3512 4.58927 32.505 5.40294 32.5077 6.22411V25.8014C32.5066 26.6589 32.3366 27.5078 32.0074 28.2996C31.6782 29.0913 31.1963 29.8104 30.5891 30.4158C29.9819 31.0212 29.2614 31.5009 28.4688 31.8277C27.6762 32.1544 26.8269 32.3217 25.9696 32.32H-0.121094V25.8014Z" fill="#254AA3"/>
<path d="M9.94495 6.44531L10.3505 7.68205H11.6505L10.5953 8.45001L11.0009 9.68595L9.94495 8.91799L8.8898 9.68595L9.29458 8.45001L8.24023 7.68205H9.54657L9.94495 6.44531Z" fill="white"/>
<path d="M22.2329 6.44531L22.6392 7.68205H23.9384L22.8832 8.44281L23.288 9.68595L22.2329 8.91799L21.1777 9.68595L21.5825 8.44281L20.5273 7.68205H21.8273L22.2329 6.44531Z" fill="white"/>
<path d="M26.1176 7.875L26.5176 9.11174H27.8247L26.7696 9.8797L27.1744 11.1156L26.1176 10.3549L25.0625 11.1156L25.4673 9.8797L24.4121 9.11174H25.7176L26.1176 7.875Z" fill="white"/>
<path d="M6.05858 7.875L6.46416 9.11174H7.7641L6.71535 9.8797L7.11533 11.1156L6.05938 10.3549L5.01064 11.1156L5.41062 9.8797L4.35547 9.11174H5.6602L6.05858 7.875Z" fill="white"/>
<path d="M14.0262 5.72656L14.4262 6.9625H15.7333L14.6781 7.73126L15.0837 8.9672L14.0278 8.19924L12.9726 8.9672L13.3774 7.73126L12.3223 6.9625H13.6214L14.0262 5.72656Z" fill="white"/>
<path d="M18.1508 5.72656L18.5564 6.9625H19.8563L18.8076 7.73126L19.2076 8.9672L18.1524 8.19924L17.1037 8.9672L17.5037 7.73126L16.4453 6.9625H17.7524L18.1508 5.72656Z" fill="white"/>
<path d="M14.9638 10.9131C14.9782 10.9267 14.831 10.9267 14.8174 11.0035C14.8038 11.0803 14.671 11.0739 14.671 11.1364C14.671 11.1988 14.4886 11.2484 14.4886 11.2484L14.2438 11.2276C14.2438 11.2276 14.223 11.1476 14.1878 11.1852C14.1541 11.2125 14.1121 11.2274 14.0686 11.2276L13.9087 11.2132C13.9087 11.2132 13.7487 11.2132 13.7687 11.2764C13.7887 11.3396 13.8735 11.3812 13.9223 11.43C13.9418 11.4441 13.9573 11.4632 13.9672 11.4853C13.977 11.5073 13.9808 11.5316 13.9783 11.5556C13.9783 11.6044 13.9359 11.6188 13.9359 11.6468C13.9359 11.6748 13.9295 11.7652 14.0271 11.7652H14.2438C14.2868 11.7754 14.3271 11.7945 14.3622 11.8213C14.4046 11.8629 14.391 11.9749 14.391 11.9749C14.391 11.9749 14.2646 11.9893 14.335 12.0589C14.4054 12.1285 14.4678 12.2477 14.5166 12.2477C14.564 12.2484 14.6102 12.2626 14.6498 12.2885C14.6895 12.3144 14.7209 12.351 14.7406 12.3941C14.7481 12.4371 14.7463 12.4812 14.7354 12.5234C14.7245 12.5656 14.7047 12.605 14.6774 12.639L14.5582 12.7574C14.551 12.7646 14.3622 12.7502 14.3622 12.7926C14.3768 12.844 14.3981 12.8932 14.4254 12.939C14.4254 12.939 14.5446 12.9462 14.5446 13.0022C14.5446 13.0582 14.4398 13.0822 14.4814 13.1279C14.5093 13.177 14.5262 13.2316 14.531 13.2879C14.4926 13.2914 14.456 13.3059 14.4254 13.3295C14.391 13.3575 14.2366 13.3367 14.2366 13.3991C14.2131 13.4894 14.1779 13.5763 14.1318 13.6575C14.1318 13.6575 13.9431 13.6927 13.9431 13.6575C13.9431 13.6223 13.9575 13.5599 13.8807 13.5599C13.8039 13.5599 13.7207 13.5527 13.7207 13.6295C13.7207 13.7063 13.5735 13.7279 13.5455 13.8048C13.5175 13.8816 13.4135 14.0352 13.4135 14.0352C13.4135 14.0352 13.1895 13.9656 13.1607 13.9656C13.1319 13.9656 13.1263 14.0208 13.0703 14.0768C13.0143 14.1328 12.9167 14.2168 12.9167 14.2168C12.9079 14.217 12.8993 14.219 12.8914 14.2226C12.8834 14.2263 12.8763 14.2316 12.8704 14.2381C12.8646 14.2446 12.8601 14.2523 12.8573 14.2606C12.8546 14.2689 12.8535 14.2777 12.8543 14.2864V14.4056C12.8543 14.4681 12.9943 14.4617 12.9943 14.5521C12.9943 14.6425 12.9095 14.6217 12.9943 14.7057C13.0791 14.7897 13.1119 14.7857 13.1471 14.8521C13.1823 14.9185 13.2591 14.9321 13.2943 14.9993C13.3295 15.0665 13.1959 15.1386 13.1959 15.1594C13.1959 15.1802 12.9167 15.1105 12.8671 15.1594C12.8154 15.2079 12.7688 15.2615 12.7279 15.3194C12.7279 15.3338 12.5679 15.2778 12.5247 15.369C12.4821 15.4452 12.4193 15.508 12.3431 15.5506C12.2751 15.539 12.2091 15.5177 12.1471 15.4874C12.1199 15.4594 12.036 15.4074 11.98 15.4314C11.9093 15.4558 11.8368 15.4745 11.7632 15.4874C11.7202 15.502 11.6756 15.5114 11.6304 15.5154C11.5744 15.5154 11.4136 15.4242 11.4136 15.4594C11.376 15.5481 11.329 15.6326 11.2736 15.7114C11.2736 15.7114 11.1936 15.725 11.1616 15.6898C11.1296 15.6546 11.0816 15.585 11.0568 15.6098C11.032 15.6346 10.924 15.6938 10.9104 15.7082C10.8968 15.7226 10.8824 15.6938 10.8192 15.757C10.756 15.8203 10.6728 15.8755 10.6728 15.9523C10.6728 16.0291 10.5256 16.1123 10.4632 16.1123C10.4008 16.1123 10.26 16.1195 10.3296 16.1923C10.3992 16.2651 10.2392 16.3251 10.2392 16.3739C10.2392 16.4227 10.268 16.458 10.204 16.458C10.14 16.458 10.0784 16.514 9.98085 16.486C9.88326 16.458 9.74086 16.4299 9.74086 16.4299C9.74086 16.4299 9.72727 16.4019 9.66087 16.4019C9.59447 16.4019 9.43688 16.4652 9.37368 16.4019C9.31049 16.3387 9.33209 16.3179 9.24809 16.2763C9.16409 16.2347 9.1081 16.1363 9.0081 16.2059C8.92758 16.2791 8.83201 16.3337 8.72812 16.3659C8.66492 16.3659 8.58092 16.3867 8.58092 16.446C8.58092 16.5052 8.53213 16.5372 8.46173 16.558C8.39133 16.5788 8.31534 16.638 8.35693 16.7252C8.39853 16.8124 8.25934 16.8852 8.27694 16.9492C8.30325 17.0233 8.34654 17.0901 8.40333 17.1445C8.45293 17.1933 8.35453 17.2845 8.49373 17.3261C8.63292 17.3677 8.71772 17.3261 8.82251 17.3685C8.89758 17.3847 8.96876 17.4155 9.0321 17.4589C9.11168 17.5073 9.19957 17.5404 9.29129 17.5565C9.29129 17.5565 9.45848 17.6893 9.45848 17.7245C9.45848 17.7597 9.47288 17.7453 9.39608 17.8222C9.32397 17.9087 9.26073 18.0022 9.20729 18.1014C9.20729 18.1014 9.17929 18.3182 9.23529 18.3742C9.29129 18.4302 9.26969 18.5695 9.26969 18.6047C9.26969 18.6399 9.15209 18.6847 9.18969 18.7231C9.22729 18.7615 9.26969 18.8495 9.30889 18.8831C9.34808 18.9167 9.26729 18.9255 9.36568 19.0231C9.43334 19.0898 9.51547 19.1399 9.60567 19.1696C9.71962 19.2032 9.82645 19.2574 9.92086 19.3296C9.98249 19.3864 10.0219 19.4632 10.0321 19.5464C10.0592 19.6292 10.1071 19.7035 10.1712 19.7624C10.2 19.7905 10.1368 19.8889 10.1712 19.9305C10.2056 19.9721 10.3256 19.9441 10.3256 19.9793C10.3256 20.0145 10.1656 20.0593 10.304 20.1329C10.4424 20.2065 10.4232 20.1681 10.48 20.2241C10.5074 20.2449 10.5285 20.2729 10.5408 20.305C10.5531 20.3371 10.5561 20.372 10.5496 20.4057C10.5352 20.4618 10.4304 20.517 10.4304 20.5594C10.4335 20.63 10.4578 20.698 10.5 20.7546C10.5424 20.797 10.5424 20.741 10.5984 20.7898C10.6386 20.8771 10.6555 20.9733 10.6472 21.069C10.6472 21.1395 10.5912 21.1947 10.6472 21.2507C10.7032 21.3067 10.6536 21.4323 10.7032 21.4747C10.7528 21.5171 10.696 21.5723 10.8144 21.5931C10.9007 21.6004 10.9874 21.6004 11.0736 21.5931C11.1432 21.5931 11.1576 21.6211 11.22 21.6211C11.309 21.6038 11.3959 21.577 11.4792 21.5411C11.5768 21.5131 11.6048 21.4155 11.6816 21.5411C11.7584 21.6667 11.6952 21.6947 11.8288 21.7299C11.9624 21.7652 12.0943 21.7299 12.1223 21.7996C12.1503 21.8692 12.1495 21.9596 12.1919 22.002C12.2343 22.0444 12.2719 21.9396 12.4015 22.0228C12.5311 22.106 12.5207 22.0508 12.6183 22.142C12.7159 22.2332 13.0583 22.5893 13.1287 22.6589C13.1991 22.7285 13.1983 22.7989 13.2823 22.8893C13.3663 22.9797 13.4015 22.8893 13.3735 23.0429C13.3455 23.1966 13.2759 23.2182 13.3735 23.3222C13.4711 23.4262 13.4535 23.5534 13.4919 23.6022C13.5303 23.651 13.6455 23.8951 13.6111 23.9303C13.5767 23.9655 13.5199 23.9719 13.5479 24.0495C13.5759 24.1271 13.5063 24.2095 13.5271 24.2935C13.5479 24.3775 13.5063 24.4335 13.5687 24.4896C13.6311 24.5456 13.6959 24.5696 13.7783 24.6432C13.8607 24.7168 13.9055 24.7232 13.9055 24.8312C13.9055 24.9392 13.7455 25.0128 13.8975 25.2089C14.0494 25.4049 14.1278 25.5161 14.163 25.5513C14.1982 25.5865 14.191 25.6769 14.191 25.6769C14.191 25.6769 14.0934 25.7121 14.1214 25.7401C14.1494 25.7681 14.2014 25.8866 14.163 25.9218C14.1074 25.9765 14.0583 26.0374 14.0167 26.1034C14.0167 26.1242 13.9327 26.173 13.9119 26.1834C13.871 26.2312 13.8263 26.2756 13.7783 26.3162C13.7567 26.3611 13.7461 26.4105 13.7473 26.4603C13.7486 26.5101 13.7617 26.5589 13.7855 26.6027C13.8559 26.7075 13.9183 26.7499 13.9535 26.8195C13.9887 26.8891 13.8975 26.9379 14.0231 26.9379C14.1486 26.9379 14.115 26.9243 14.1982 26.8891C14.2814 26.8539 14.3166 26.7779 14.3582 26.7779C14.4091 26.7853 14.456 26.8098 14.491 26.8475C14.5254 26.8827 14.5398 26.9379 14.5814 26.9379C14.6609 26.9425 14.7404 26.9282 14.8134 26.8963C14.931 26.8475 14.8262 26.8163 15.043 26.7363C15.2598 26.6563 15.2326 26.6563 15.267 26.5763C15.3014 26.4963 15.347 26.4162 15.427 26.4162C15.507 26.4162 15.4758 26.2482 15.5174 26.2482C15.559 26.2482 15.651 26.213 15.5662 26.1682C15.4994 26.125 15.4365 26.076 15.3782 26.0218C15.3815 25.9512 15.3908 25.8811 15.4062 25.8122C15.427 25.7321 15.3638 25.7001 15.3638 25.6369C15.3638 25.5737 15.315 25.4977 15.315 25.4273V25.2177C15.315 25.1905 15.1958 25.1065 15.2798 25.0152C15.3638 24.924 15.3598 24.876 15.3598 24.876C15.3641 24.7627 15.3977 24.6524 15.4574 24.556C15.5374 24.476 15.451 24.4231 15.5974 24.3743C15.6722 24.3334 15.757 24.3141 15.8422 24.3183C15.9378 24.3074 16.0256 24.2598 16.0869 24.1855C16.1429 24.1231 16.1285 24.1295 16.2333 24.1295C16.3381 24.1295 16.3733 24.1647 16.4645 24.1295C16.5065 24.1133 16.5448 24.0889 16.5772 24.0577C16.6096 24.0265 16.6355 23.9892 16.6533 23.9479C16.6533 23.9199 16.8133 23.6334 16.9813 23.6614C17.1493 23.6894 17.1005 23.8015 17.2749 23.683C17.4493 23.5646 17.3029 23.4382 17.5829 23.4382C17.8629 23.4382 17.8557 23.4238 18.0021 23.3334C18.1484 23.243 18.1068 23.1734 18.2116 23.1238C18.3578 23.0507 18.5098 22.9899 18.666 22.9421C18.7148 22.9421 18.7364 23.0221 18.7932 23.0221C18.85 23.0221 18.8732 22.9589 19.0028 23.0429C19.1324 23.127 19.03 23.1758 19.1484 23.2878C19.2668 23.3998 19.358 23.3366 19.3796 23.483C19.3942 23.5882 19.421 23.6913 19.4596 23.7903C19.5084 23.8951 19.3796 23.9719 19.4596 24.0559C19.5197 24.118 19.5977 24.1597 19.6828 24.1751C19.8633 24.1853 20.0444 24.1711 20.2211 24.1327C20.2643 24.0911 20.1723 23.9167 20.2843 24.0279C20.3963 24.1391 20.4307 24.1263 20.4659 24.0983C20.5011 24.0703 20.3859 23.7903 20.3539 23.7558C20.3407 23.7086 20.3383 23.6589 20.3469 23.6106C20.3555 23.5622 20.3749 23.5164 20.4035 23.4766C20.4511 23.4352 20.483 23.3787 20.4939 23.3166C20.4939 23.2886 20.3819 23.0645 20.5779 22.9741C20.7739 22.8837 20.7315 22.9325 20.7947 22.8693C20.8579 22.8061 20.8363 22.7437 20.9275 22.6525C21.0187 22.5613 21.0459 22.5269 21.0459 22.5269C21.0459 22.5269 21.1507 22.4365 21.2211 22.4781C21.2915 22.5197 21.2003 22.6245 21.3611 22.6245C21.3917 22.6236 21.4218 22.6161 21.4493 22.6025C21.4768 22.5889 21.501 22.5694 21.5202 22.5456C21.5395 22.5217 21.5533 22.4939 21.5608 22.4641C21.5682 22.4344 21.5692 22.4034 21.5635 22.3732C21.5427 22.2684 21.4659 22.2196 21.5635 22.1708C21.6611 22.122 21.6267 22.1004 21.7107 22.1004C21.7947 22.1004 21.8571 22.0452 21.9131 22.094C21.9691 22.1428 21.9931 22.1844 22.0667 22.1844C22.1402 22.1844 22.0738 22.3444 22.1786 22.4012C22.2834 22.4581 22.4306 22.4917 22.4722 22.4501C22.5138 22.4084 22.5418 22.5301 22.605 22.422C22.6682 22.314 22.6194 22.2828 22.685 22.2124C22.7005 22.202 22.7132 22.188 22.722 22.1715C22.7308 22.1551 22.7354 22.1367 22.7354 22.118C22.7354 22.0993 22.7308 22.081 22.722 22.0645C22.7132 22.048 22.7005 22.034 22.685 22.0236C22.6476 21.9705 22.628 21.9069 22.629 21.842C22.629 21.842 22.549 21.7099 22.5242 21.7307C22.4994 21.7515 22.5042 21.8356 22.4338 21.7724C22.3634 21.7091 22.3074 21.7027 22.3074 21.6395C22.3074 21.5763 22.245 21.5211 22.2658 21.4651C22.2845 21.416 22.2942 21.364 22.2946 21.3115L22.3914 21.1155C22.3914 21.1155 22.4618 21.053 22.4962 21.0874C22.5306 21.1219 22.5762 21.2419 22.629 21.1435C22.6818 21.045 22.6778 20.8922 22.7834 20.9338C22.889 20.9754 22.8538 21.0138 22.9298 21.0138C23.0058 21.0138 23.0634 21.049 23.133 20.9794C23.2026 20.9098 23.105 20.8746 23.2378 20.7394C23.3706 20.6042 23.4474 20.6346 23.3914 20.5434C23.3354 20.4522 23.2586 20.4177 23.2586 20.3617C23.2586 20.3057 23.1466 20.0417 23.1882 19.9985C23.2298 19.9553 23.3842 19.9921 23.4754 19.9009C23.5666 19.8097 23.5314 19.7889 23.6082 19.7192C23.685 19.6496 23.7546 19.5656 23.7682 19.5512C23.7787 19.5183 23.7953 19.4877 23.817 19.4608C23.845 19.4256 23.7466 19.2376 23.817 19.2376C23.8874 19.2376 23.7818 19.1256 23.8514 19.0623C23.9117 19.0114 23.9805 18.9713 24.0546 18.9439H24.2081C24.2232 18.8847 24.2469 18.8281 24.2785 18.7759C24.3062 18.6564 24.3062 18.5322 24.2785 18.4126C24.247 18.3715 24.2201 18.327 24.1985 18.2798L24.3521 18.1894L24.4321 18.1094L24.5377 18.0046C24.5577 17.9838 24.4881 17.9134 24.5721 17.9134C24.6561 17.9134 24.7401 17.9622 24.7401 17.8334C24.7462 17.7955 24.742 17.7568 24.7279 17.7211C24.7139 17.6855 24.6904 17.6543 24.6601 17.6309C24.6113 17.5749 24.4857 17.4565 24.4657 17.4285C24.4457 17.4005 24.3457 17.2957 24.3321 17.2821C24.3185 17.2685 24.2521 17.2605 24.1993 17.2677C24.1465 17.2749 23.9194 17.2325 23.8986 17.2469C23.8778 17.2613 23.7938 17.2821 23.7938 17.3517C23.7966 17.3756 23.7943 17.3998 23.787 17.4227C23.7797 17.4456 23.7675 17.4667 23.7514 17.4845C23.7234 17.5125 23.6714 17.5749 23.6186 17.5749C23.5658 17.5749 23.4722 17.5541 23.4514 17.5053C23.4293 17.4505 23.4106 17.3944 23.3954 17.3373C23.3954 17.3093 23.3738 17.2189 23.297 17.2397C23.2265 17.2635 23.1522 17.274 23.0778 17.2709C23.0778 17.2709 22.9378 17.2429 22.9106 17.1909C22.8958 17.1407 22.8885 17.0887 22.889 17.0364L22.7498 16.8972C22.7431 16.879 22.7305 16.8636 22.7139 16.8534C22.6974 16.8432 22.6779 16.8389 22.6586 16.8412C22.5786 16.8412 22.4986 16.8692 22.4626 16.8692C22.4141 16.8617 22.3647 16.8617 22.3162 16.8692C22.2458 16.8828 22.1274 16.7892 22.0994 16.7644C22.0715 16.7396 21.8899 16.7292 21.8899 16.7292C21.8899 16.7292 21.7851 16.6596 21.7427 16.7012C21.7003 16.7428 21.5827 16.7644 21.5827 16.7156C21.5842 16.6978 21.5808 16.6799 21.5728 16.664C21.5648 16.648 21.5526 16.6346 21.5374 16.6251C21.5223 16.6157 21.5048 16.6106 21.487 16.6105C21.4691 16.6104 21.4516 16.6152 21.4363 16.6244C21.3555 16.658 21.2708 16.6817 21.1843 16.6948C21.1219 16.6948 21.0099 16.6732 21.0099 16.6036C21.0099 16.534 21.0795 16.4852 21.1219 16.45C21.1643 16.4147 21.2019 16.4083 21.2019 16.3699C21.2019 16.3315 21.1459 16.3075 21.1747 16.2651C21.197 16.2073 21.2063 16.1453 21.2019 16.0835C21.2019 16.0419 21.2579 15.9859 21.2819 15.9651C21.3059 15.9443 21.3659 15.9443 21.3659 15.9443C21.3659 15.9443 21.4283 15.8251 21.3659 15.7899C21.3035 15.7546 21.3379 15.6714 21.3515 15.6362C21.3651 15.601 21.3379 15.581 21.3875 15.5314C21.4371 15.4818 21.3723 15.469 21.4675 15.4338C21.5627 15.3986 21.5587 15.3538 21.5307 15.2874C21.4669 15.2161 21.3804 15.1691 21.2859 15.1546C21.2435 15.1546 21.1595 15.2106 21.1259 15.2106C21.0766 15.215 21.0273 15.2026 20.9859 15.1754C20.9507 15.1402 20.9059 15.0633 20.8667 15.0849C20.8275 15.1066 20.7339 15.0777 20.7339 15.0425C20.7339 15.0073 20.7171 14.9025 20.6827 14.9025C20.6483 14.9025 20.3251 14.7905 20.2827 14.8321C20.2403 14.8737 20.2027 15.0281 20.1227 14.9441C20.064 14.8825 20.0122 14.8147 19.9684 14.7417L19.8428 14.6161C19.8079 14.5746 19.7808 14.5272 19.7628 14.4761C19.7424 14.4356 19.7111 14.4018 19.6724 14.3784C19.6724 14.3784 19.6788 14.3152 19.6788 14.2872C19.6788 14.2592 19.6236 14.1968 19.6444 14.148C19.6652 14.0992 19.6508 14.1056 19.658 14.008C19.6652 13.9104 19.6236 13.896 19.6236 13.8336C19.6236 13.7711 19.6092 13.7007 19.6092 13.6303C19.6092 13.5599 19.5292 13.4983 19.5044 13.4767C19.4796 13.4551 19.4068 13.4215 19.3788 13.4423C19.3508 13.4631 19.3084 13.4631 19.2988 13.5327C19.2892 13.6023 19.194 13.6583 19.166 13.6303C19.138 13.6023 19.0676 13.5679 19.0676 13.5327C19.0604 13.4977 19.0463 13.4645 19.026 13.4351C19.026 13.4351 19.054 13.3303 18.9772 13.2887C18.9004 13.2471 18.8516 13.2463 18.866 13.1767C18.8797 13.112 18.8797 13.0453 18.866 12.9806C18.8516 12.9254 18.7812 12.8622 18.7812 12.8206C18.7812 12.779 18.8164 12.7574 18.8372 12.7014C18.858 12.6454 18.942 12.6038 18.8796 12.5414C18.8337 12.4959 18.7915 12.447 18.7532 12.3949C18.718 12.3669 18.6068 12.3253 18.5788 12.3533C18.5508 12.3813 18.4524 12.2973 18.4316 12.2549C18.4108 12.2125 18.3516 12.1365 18.3132 12.1925C18.2748 12.2485 18.2852 12.3045 18.2148 12.3461C18.1492 12.3823 18.0816 12.4149 18.0125 12.4437C17.9917 12.4437 17.8869 12.3181 17.8869 12.3181C17.8458 12.2728 17.799 12.233 17.7477 12.1997C17.6981 12.1781 17.5933 12.1085 17.5717 12.1085C17.5501 12.1085 17.2997 12.1085 17.2581 12.1501C17.2165 12.1917 17.1597 12.2413 17.1597 12.2413C17.1085 12.2229 17.0592 12.1995 17.0125 12.1717C16.9789 12.1501 16.8525 12.1293 16.8525 12.0805C16.8525 12.0317 16.8181 11.9621 16.7725 11.9621C16.7269 11.9621 16.6925 11.8917 16.6181 11.8917C16.5483 11.8788 16.4831 11.8476 16.4293 11.8013C16.4157 11.7804 16.2133 11.8013 16.2133 11.8013C16.2133 11.8013 16.1333 11.71 16.0797 11.71C16.0262 11.71 15.8494 11.71 15.9198 11.6404C15.9902 11.5708 15.9998 11.5148 16.0461 11.5148C16.0925 11.5148 16.0749 11.5004 16.0949 11.4308C16.1149 11.3612 16.0949 11.2844 16.1749 11.2844C16.2203 11.292 16.2669 11.2847 16.3077 11.2636C16.3773 11.2356 16.4677 11.1091 16.4125 11.0539C16.3596 11.01 16.3034 10.9702 16.2445 10.9347C16.2237 10.9139 16.0909 10.7955 16.0909 10.7395C16.0909 10.6835 15.9654 10.6595 15.9654 10.6131C15.9654 10.5667 15.9022 10.5507 15.8326 10.5715C15.763 10.5923 15.6222 10.5579 15.651 10.6411C15.6798 10.7243 15.7414 10.7675 15.6854 10.7883C15.6294 10.8091 15.539 10.7883 15.5174 10.8091C15.4958 10.8299 15.399 10.6835 15.3286 10.7603C15.2793 10.805 15.2192 10.8362 15.1542 10.8507C15.1542 10.8507 15.0566 10.7883 15.0422 10.7955C15.0278 10.8027 14.8822 10.8299 14.9622 10.9139" fill="#FFDE36"/>
</g>
</g>
<defs>
<clipPath id="clip0_583_8330">
<rect width="32" height="31.9984" fill="white" transform="translate(0 0.0078125)"/>
</clipPath>
</defs>
</svg>
