<svg width="32" height="32" viewBox="0 0 32 32" fill="none" xmlns="http://www.w3.org/2000/svg">
<g clip-path="url(#clip0_583_7338)">
<mask id="mask0_583_7338" style="mask-type:luminance" maskUnits="userSpaceOnUse" x="0" y="0" width="32" height="32">
<path d="M16 0.0078125H15.6432C11.8034 0.0878085 9.83071 0.387793 8.0036 1.01656C6.23641 1.62344 4.64571 2.65588 3.37183 4.02281C2.31397 5.25193 1.50368 6.67394 0.985551 8.2106C0.377285 10.1371 0.0538816 12.1422 0.0255984 14.1623C-3.30789e-07 14.9567 0 15.0655 0 16.0022C0 16.939 -3.30789e-07 17.0518 0.0255984 17.8469C0.0538793 19.8667 0.377283 21.8716 0.985551 23.7978C1.50296 25.3348 2.31333 26.757 3.37183 27.9856C4.64594 29.3536 6.23721 30.3869 8.0052 30.9943C9.83231 31.6238 11.8042 31.9246 15.6448 32.0038H16.3544C20.1942 31.9238 22.1669 31.6238 23.994 30.9943C25.7619 30.3875 27.3532 29.3548 28.6274 27.9872C29.6859 26.7586 30.4962 25.3364 31.0136 23.7994C31.6223 21.8733 31.9457 19.8684 31.9736 17.8485C32 17.0534 32 16.9446 32 16.0038C32 15.0631 32 14.9551 31.9736 14.1639C31.9457 12.1438 31.6223 10.1386 31.0136 8.2122C30.4955 6.67554 29.6852 5.25353 28.6274 4.02441C27.3532 2.65708 25.7619 1.6246 23.994 1.01816C22.1669 0.387794 20.195 0.0870086 16.3544 0.0078125H16Z" fill="white"/>
</mask>
<g mask="url(#mask0_583_7338)">
<path d="M40.982 -0.6875H-9.23633V32.766H40.982V-0.6875Z" fill="white"/>
<path d="M40.982 21.6172H-9.23633V32.7694H40.982V21.6172Z" fill="#23AE49"/>
<path d="M40.982 -0.6875H-9.23633V10.4623H40.982V-0.6875Z" fill="#F89C4D"/>
<path d="M15.2901 11.6166C14.4156 11.7322 13.595 12.1045 12.932 12.6864C12.2691 13.2684 11.7936 14.0338 11.5656 14.8859C11.3376 15.7381 11.3674 16.6387 11.6513 17.4739C11.9351 18.3091 12.4602 19.0414 13.1602 19.5783C13.8602 20.1151 14.7036 20.4323 15.5838 20.4898C16.4641 20.5473 17.3416 20.3425 18.1055 19.9014C18.8694 19.4602 19.4853 18.8024 19.8754 18.0112C20.2655 17.2201 20.4122 16.331 20.297 15.4564C20.2206 14.8755 20.0303 14.3153 19.7373 13.8079C19.4442 13.3004 19.0541 12.8557 18.5891 12.4992C18.1241 12.1426 17.5935 11.8811 17.0274 11.7297C16.4614 11.5782 15.871 11.5398 15.2901 11.6166ZM16.3812 19.9066C15.616 20.0073 14.838 19.8788 14.1457 19.5374C13.4535 19.1959 12.8781 18.6568 12.4922 17.9883C12.1064 17.3198 11.9275 16.5518 11.9782 15.7816C12.0288 15.0114 12.3068 14.2735 12.7769 13.6613C13.2469 13.049 13.888 12.59 14.6191 12.3421C15.3501 12.0943 16.1382 12.0689 16.8837 12.269C17.6291 12.4691 18.2985 12.8858 18.8072 13.4664C19.3158 14.047 19.6408 14.7655 19.7411 15.5308C19.875 16.5565 19.5965 17.5934 18.9665 18.4138C18.3365 19.2343 17.4067 19.7712 16.3812 19.9066Z" fill="#271D70"/>
<path d="M15.7701 15.2644C15.6167 15.2845 15.4727 15.3496 15.3564 15.4515C15.24 15.5534 15.1565 15.6876 15.1165 15.837C15.0764 15.9864 15.0816 16.1444 15.1314 16.2908C15.1812 16.4373 15.2733 16.5657 15.3961 16.6598C15.5188 16.7538 15.6668 16.8094 15.8211 16.8193C15.9755 16.8293 16.1294 16.7932 16.2632 16.7156C16.397 16.6381 16.5049 16.5226 16.573 16.3837C16.6412 16.2449 16.6666 16.0889 16.646 15.9356C16.6186 15.7306 16.5109 15.5448 16.3468 15.419C16.1826 15.2932 15.9752 15.2376 15.7701 15.2644Z" fill="#271D70"/>
<path d="M15.3633 12.1719L15.8017 14.4774L15.8153 15.5973L15.5369 14.5142L15.3633 12.1719Z" fill="#271D70"/>
<path d="M16.3817 19.9074L15.9433 17.6043L15.9297 16.4844L16.2097 17.5707L16.3817 19.9074Z" fill="#271D70"/>
<path d="M14.377 12.4297L15.3985 14.5416L15.7001 15.6207L15.1505 14.6432L14.377 12.4297Z" fill="#271D70"/>
<path d="M17.3677 19.6474L16.347 17.5339L16.043 16.4531L16.5941 17.4331L17.3677 19.6474Z" fill="#271D70"/>
<path d="M13.4961 12.9453L15.0288 14.7204L15.6016 15.6876L14.816 14.882L13.4961 12.9453Z" fill="#271D70"/>
<path d="M18.2508 19.1329L16.7181 17.357L16.1445 16.3906L16.9309 17.1906L18.2508 19.1329Z" fill="#271D70"/>
<path d="M12.2637 14.5469L14.4804 15.318L15.4603 15.8692L14.378 15.5668L12.2637 14.5469Z" fill="#271D70"/>
<path d="M19.483 17.5333L17.2664 16.7621L16.2832 16.2109L17.3655 16.5149L19.483 17.5333Z" fill="#271D70"/>
<path d="M12 15.5312L14.3415 15.7016L15.4302 15.9784L14.3103 15.9696L12 15.5312Z" fill="#271D70"/>
<path d="M19.7455 16.5465L17.4032 16.3729L16.3145 16.0938L17.44 16.1105L19.7455 16.5465Z" fill="#271D70"/>
<path d="M12.2637 17.5349L14.378 16.5149L15.4603 16.2109L14.4804 16.7621L12.2637 17.5349Z" fill="#271D70"/>
<path d="M19.483 14.5469L17.3695 15.5668L16.2832 15.8732L17.2624 15.322L19.483 14.5469Z" fill="#271D70"/>
<path d="M12.7754 18.4156L14.5513 16.8837L15.5193 16.3125L14.7193 17.0981L12.7754 18.4156Z" fill="#271D70"/>
<path d="M18.9712 13.6641L17.1929 15.1976L16.2266 15.7688L17.0265 14.9848L18.9712 13.6641Z" fill="#271D70"/>
<path d="M14.377 19.6474L15.1505 17.4331L15.7001 16.4531L15.4017 17.5339L14.377 19.6474Z" fill="#271D70"/>
<path d="M17.3677 12.4297L16.5949 14.6456L16.043 15.6231L16.3462 14.544L17.3677 12.4297Z" fill="#271D70"/>
<path d="M15.3633 19.9098L15.5369 17.5707L15.8153 16.4844L15.8017 17.6043L15.3633 19.9098Z" fill="#271D70"/>
<path d="M16.3817 12.1719L16.2097 14.5142L15.9297 15.6021L15.9433 14.4822L16.3817 12.1719Z" fill="#271D70"/>
<path d="M19.7439 15.5312L17.4384 15.9696L16.3145 15.9784L17.4032 15.7016L19.7439 15.5312Z" fill="#271D70"/>
<path d="M12 16.5441L14.3071 16.1081L15.427 16.0938L14.3383 16.3729L12 16.5441Z" fill="#271D70"/>
<path d="M18.9711 18.4156L17.0304 17.0981L16.2305 16.3125L17.1968 16.8837L18.9711 18.4156Z" fill="#271D70"/>
<path d="M12.7754 13.6641L14.7153 14.9848L15.5153 15.7688L14.5473 15.1976L12.7754 13.6641Z" fill="#271D70"/>
<path d="M13.4961 19.1305L14.816 17.1906L15.6016 16.3906L15.0288 17.357L13.4961 19.1305Z" fill="#271D70"/>
<path d="M18.2508 12.9453L16.9309 14.882L16.1445 15.6876L16.7181 14.7204L18.2508 12.9453Z" fill="#271D70"/>
<path d="M14.8098 12.0799C14.7602 12.0941 14.718 12.1271 14.6923 12.172C14.6666 12.2168 14.6594 12.2699 14.6722 12.3199C14.679 12.3446 14.6906 12.3678 14.7063 12.3881C14.722 12.4084 14.7416 12.4253 14.7639 12.438C14.7862 12.4508 14.8107 12.4589 14.8362 12.4621C14.8616 12.4653 14.8875 12.4635 14.9122 12.4567C14.9372 12.4503 14.9607 12.439 14.9812 12.4234C15.0017 12.4077 15.0189 12.3882 15.0318 12.3658C15.0446 12.3434 15.0528 12.3187 15.0559 12.2931C15.059 12.2675 15.0569 12.2415 15.0498 12.2167C15.0365 12.1664 15.0037 12.1234 14.9587 12.0971C14.9138 12.0709 14.8602 12.0635 14.8098 12.0767" fill="#271D70"/>
<path d="M16.831 19.6158C16.7936 19.6258 16.7599 19.6467 16.7344 19.6758C16.7088 19.7049 16.6924 19.7409 16.6873 19.7793C16.6821 19.8177 16.6885 19.8568 16.7056 19.8916C16.7227 19.9263 16.7497 19.9553 16.7832 19.9747C16.8167 19.9942 16.8553 20.0032 16.8939 20.0008C16.9326 19.9983 16.9697 19.9845 17.0005 19.961C17.0313 19.9375 17.0544 19.9053 17.067 19.8687C17.0795 19.832 17.0809 19.7925 17.071 19.755C17.0575 19.7048 17.0247 19.662 16.9797 19.6359C16.9347 19.6099 16.8813 19.6026 16.831 19.6158Z" fill="#271D70"/>
<path d="M13.8223 12.4867C13.7775 12.513 13.7448 12.5558 13.7314 12.606C13.7179 12.6561 13.7247 12.7096 13.7503 12.7547C13.7634 12.7769 13.7807 12.7963 13.8012 12.8117C13.8217 12.8272 13.8451 12.8384 13.87 12.8448C13.8949 12.8512 13.9209 12.8526 13.9463 12.849C13.9718 12.8453 13.9962 12.8367 14.0183 12.8235C14.0405 12.8112 14.06 12.7945 14.0757 12.7744C14.0913 12.7544 14.1027 12.7314 14.1093 12.7068C14.1159 12.6823 14.1174 12.6567 14.1139 12.6315C14.1103 12.6063 14.1018 12.5821 14.0887 12.5603C14.0762 12.5379 14.0593 12.5182 14.0391 12.5023C14.0188 12.4865 13.9957 12.4748 13.9709 12.468C13.9461 12.4611 13.9202 12.4592 13.8947 12.4625C13.8692 12.4657 13.8446 12.4739 13.8223 12.4867Z" fill="#271D70"/>
<path d="M17.7273 19.2447C17.6821 19.2708 17.6491 19.3137 17.6356 19.3641C17.6221 19.4145 17.6292 19.4683 17.6553 19.5134C17.6827 19.5555 17.7253 19.5853 17.7741 19.5969C17.823 19.6085 17.8744 19.6009 17.9178 19.5756C17.9612 19.5504 17.9933 19.5094 18.0074 19.4613C18.0215 19.4131 18.0166 19.3613 17.9936 19.3167C17.9679 19.2718 17.9253 19.239 17.8754 19.2255C17.8254 19.212 17.7721 19.2189 17.7273 19.2447Z" fill="#271D70"/>
<path d="M12.9735 13.1448C12.9553 13.1629 12.9408 13.1844 12.931 13.208C12.9211 13.2317 12.916 13.2571 12.916 13.2828C12.916 13.3084 12.9211 13.3338 12.931 13.3575C12.9408 13.3812 12.9553 13.4027 12.9735 13.4208C12.9915 13.4395 13.013 13.4544 13.0369 13.4647C13.0607 13.475 13.0863 13.4805 13.1123 13.4807C13.1382 13.481 13.164 13.476 13.188 13.4662C13.2121 13.4564 13.2339 13.4419 13.2522 13.4236C13.2706 13.4052 13.2851 13.3834 13.2949 13.3593C13.3047 13.3353 13.3097 13.3096 13.3094 13.2836C13.3092 13.2576 13.3037 13.232 13.2934 13.2082C13.2831 13.1843 13.2682 13.1628 13.2495 13.1448C13.2316 13.1262 13.2102 13.1114 13.1865 13.1013C13.1628 13.0912 13.1373 13.0859 13.1115 13.0859C13.0857 13.0859 13.0602 13.0912 13.0365 13.1013C13.0128 13.1114 12.9913 13.1262 12.9735 13.1448Z" fill="#271D70"/>
<path d="M18.4966 18.659C18.46 18.6956 18.4395 18.7452 18.4395 18.797C18.4395 18.8488 18.46 18.8984 18.4966 18.935C18.5336 18.9711 18.5833 18.9912 18.635 18.9912C18.6867 18.9912 18.7363 18.9711 18.7734 18.935C18.7915 18.9168 18.8059 18.8953 18.8157 18.8715C18.8254 18.8478 18.8305 18.8224 18.8304 18.7967C18.8304 18.771 18.8253 18.7456 18.8154 18.7219C18.8056 18.6982 18.7912 18.6767 18.773 18.6586C18.7548 18.6405 18.7332 18.6261 18.7095 18.6163C18.6858 18.6065 18.6604 18.6015 18.6347 18.6016C18.609 18.6016 18.5836 18.6067 18.5599 18.6165C18.5362 18.6264 18.5147 18.6408 18.4966 18.659Z" fill="#271D70"/>
<path d="M12.3206 13.9874C12.295 14.0326 12.2882 14.0861 12.3017 14.1362C12.3152 14.1864 12.3478 14.2292 12.3926 14.2554C12.4261 14.2745 12.4645 14.2832 12.5029 14.2805C12.5413 14.2778 12.5781 14.2638 12.6086 14.2403C12.6391 14.2167 12.6619 14.1847 12.6742 14.1482C12.6865 14.1117 12.6877 14.0724 12.6777 14.0352C12.6677 13.998 12.647 13.9646 12.618 13.9391C12.5891 13.9137 12.5533 13.8974 12.5151 13.8923C12.4769 13.8872 12.4381 13.8935 12.4035 13.9105C12.3689 13.9274 12.3401 13.9542 12.3206 13.9874Z" fill="#271D70"/>
<path d="M19.0815 17.893C19.062 17.9263 19.0528 17.9647 19.055 18.0032C19.0573 18.0417 19.0709 18.0787 19.0942 18.1095C19.1175 18.1403 19.1494 18.1635 19.1859 18.1762C19.2223 18.1888 19.2617 18.1904 19.2991 18.1807C19.3364 18.1709 19.3701 18.1503 19.3957 18.1215C19.4214 18.0927 19.4379 18.0569 19.4432 18.0186C19.4485 17.9804 19.4424 17.9414 19.4256 17.9067C19.4087 17.872 19.382 17.843 19.3487 17.8234C19.304 17.7974 19.2508 17.7902 19.2008 17.8032C19.1507 17.8162 19.1078 17.8485 19.0815 17.893Z" fill="#271D70"/>
<path d="M11.911 14.9806C11.8975 15.0307 11.9045 15.0841 11.9304 15.129C11.9563 15.174 11.9989 15.2068 12.049 15.2202C12.0991 15.2337 12.1524 15.2267 12.1974 15.2009C12.2423 15.175 12.2751 15.1323 12.2886 15.0822C12.2953 15.0574 12.297 15.0316 12.2937 15.0061C12.2903 14.9807 12.282 14.9561 12.2692 14.9339C12.2564 14.9116 12.2393 14.8921 12.219 14.8765C12.1986 14.8608 12.1754 14.8493 12.1506 14.8427C12.1258 14.836 12.0999 14.8343 12.0745 14.8376C12.049 14.8409 12.0245 14.8492 12.0022 14.862C11.98 14.8748 11.9605 14.8919 11.9448 14.9123C11.9292 14.9326 11.9177 14.9559 11.911 14.9806Z" fill="#271D70"/>
<path d="M19.4553 17.0007C19.4478 17.0255 19.4455 17.0516 19.4485 17.0774C19.4515 17.1032 19.4598 17.1281 19.4727 17.1505C19.4857 17.173 19.5031 17.1926 19.5239 17.2081C19.5447 17.2236 19.5685 17.2347 19.5937 17.2407C19.6184 17.2478 19.6443 17.2499 19.6698 17.2469C19.6953 17.2439 19.72 17.2359 19.7423 17.2232C19.7647 17.2105 19.7843 17.1935 19.8 17.1732C19.8157 17.1528 19.8271 17.1295 19.8337 17.1047C19.8403 17.0799 19.8419 17.054 19.8384 17.0286C19.835 17.0032 19.8266 16.9787 19.8137 16.9565C19.8009 16.9344 19.7837 16.9149 19.7633 16.8994C19.7429 16.8838 19.7197 16.8724 19.6949 16.8659C19.6701 16.8593 19.6443 16.8577 19.6188 16.8611C19.5934 16.8645 19.5689 16.8729 19.5468 16.8858C19.5246 16.8987 19.5052 16.9158 19.4896 16.9362C19.4741 16.9566 19.4627 16.9799 19.4561 17.0047" fill="#271D70"/>
<path d="M11.7715 16.0373C11.771 16.0762 11.7821 16.1143 11.8034 16.1469C11.8246 16.1794 11.855 16.2049 11.8908 16.2201C11.9266 16.2353 11.9661 16.2395 12.0042 16.2323C12.0424 16.225 12.0776 16.2065 12.1052 16.1792C12.1329 16.1519 12.1518 16.1169 12.1595 16.0789C12.1673 16.0408 12.1635 16.0013 12.1488 15.9653C12.134 15.9293 12.1089 15.8986 12.0766 15.877C12.0443 15.8553 12.0064 15.8438 11.9675 15.8438C11.9159 15.8437 11.8664 15.8641 11.8297 15.9003C11.7931 15.9365 11.7721 15.9858 11.7715 16.0373Z" fill="#271D70"/>
<path d="M19.584 16.0373C19.5837 16.076 19.5949 16.1139 19.6161 16.1462C19.6374 16.1785 19.6677 16.2038 19.7034 16.2188C19.739 16.2338 19.7783 16.2379 19.8163 16.2306C19.8542 16.2232 19.8892 16.2048 19.9166 16.1775C19.9441 16.1503 19.9628 16.1155 19.9705 16.0776C19.9782 16.0397 19.9744 16.0004 19.9597 15.9646C19.9449 15.9289 19.9199 15.8983 19.8878 15.8768C19.8557 15.8552 19.8179 15.8438 19.7792 15.8438C19.7277 15.8437 19.6783 15.8641 19.6417 15.9004C19.6052 15.9366 19.5844 15.9858 19.584 16.0373Z" fill="#271D70"/>
<path d="M11.9108 17.0969C11.9241 17.1469 11.9567 17.1897 12.0015 17.2157C12.0462 17.2417 12.0995 17.2489 12.1496 17.2357C12.1997 17.2224 12.2424 17.1898 12.2684 17.145C12.2945 17.1002 12.3016 17.0469 12.2884 16.9969C12.2751 16.9468 12.2425 16.904 12.1977 16.878C12.153 16.852 12.0997 16.8448 12.0496 16.8581C11.9995 16.8713 11.9568 16.9039 11.9307 16.9487C11.9047 16.9935 11.8975 17.0468 11.9108 17.0969Z" fill="#271D70"/>
<path d="M19.4559 15.083C19.47 15.1328 19.503 15.1751 19.5478 15.2008C19.5927 15.2266 19.6459 15.2337 19.6959 15.2206C19.7207 15.214 19.744 15.2024 19.7644 15.1868C19.7847 15.1711 19.8018 15.1515 19.8146 15.1292C19.8274 15.1069 19.8356 15.0823 19.8389 15.0568C19.8421 15.0313 19.8403 15.0054 19.8335 14.9806C19.8268 14.9559 19.8154 14.9326 19.7997 14.9123C19.7841 14.8919 19.7645 14.8748 19.7423 14.862C19.7201 14.8492 19.6955 14.8409 19.67 14.8376C19.6446 14.8343 19.6187 14.836 19.5939 14.8427C19.5691 14.8493 19.5459 14.8608 19.5255 14.8765C19.5052 14.8921 19.4881 14.9116 19.4753 14.9339C19.4625 14.9561 19.4542 14.9807 19.4509 15.0061C19.4475 15.0316 19.4493 15.0582 19.4559 15.083Z" fill="#271D70"/>
<path d="M12.3207 18.088C12.3398 18.1217 12.3684 18.149 12.4029 18.1664C12.4375 18.1838 12.4765 18.1905 12.5149 18.1858C12.5533 18.181 12.5894 18.1648 12.6186 18.1395C12.6479 18.1141 12.6689 18.0806 12.679 18.0433C12.6892 18.0059 12.688 17.9664 12.6757 17.9297C12.6633 17.8931 12.6403 17.8609 12.6096 17.8373C12.5789 17.8137 12.5419 17.7998 12.5033 17.7973C12.4647 17.7948 12.4262 17.8038 12.3927 17.8232C12.3706 17.8359 12.3511 17.8527 12.3355 17.8729C12.3199 17.893 12.3084 17.9161 12.3017 17.9407C12.295 17.9653 12.2933 17.991 12.2965 18.0163C12.2998 18.0415 12.308 18.0659 12.3207 18.088Z" fill="#271D70"/>
<path d="M19.0825 14.183C19.1018 14.2165 19.1305 14.2435 19.1651 14.2607C19.1997 14.2778 19.2386 14.2843 19.2769 14.2794C19.3151 14.2744 19.3511 14.2582 19.3802 14.2329C19.4093 14.2075 19.4302 14.174 19.4403 14.1367C19.4503 14.0995 19.4491 14.06 19.4368 14.0235C19.4245 13.9869 19.4015 13.9548 19.371 13.9312C19.3404 13.9076 19.3035 13.8937 19.265 13.8911C19.2264 13.8885 19.188 13.8974 19.1545 13.9166C19.1097 13.9424 19.0769 13.9849 19.0634 14.0349C19.0499 14.0848 19.0568 14.1381 19.0825 14.183Z" fill="#271D70"/>
<path d="M12.9724 18.9398C12.9904 18.9585 13.012 18.9735 13.0358 18.9838C13.0596 18.9941 13.0853 18.9995 13.1112 18.9997C13.1372 19 13.1629 18.9951 13.187 18.9853C13.211 18.9755 13.2328 18.9609 13.2512 18.9426C13.2695 18.9242 13.284 18.9024 13.2939 18.8784C13.3037 18.8543 13.3086 18.8286 13.3083 18.8026C13.3081 18.7767 13.3026 18.751 13.2924 18.7272C13.2821 18.7034 13.2671 18.6818 13.2484 18.6638C13.2116 18.6284 13.1623 18.6089 13.1112 18.6094C13.0601 18.6099 13.0113 18.6304 12.9751 18.6665C12.939 18.7027 12.9185 18.7515 12.918 18.8026C12.9175 18.8537 12.937 18.903 12.9724 18.9398Z" fill="#271D70"/>
<path d="M18.4962 13.4188C18.5333 13.4548 18.5829 13.475 18.6346 13.475C18.6863 13.475 18.736 13.4548 18.773 13.4188C18.8002 13.3914 18.8187 13.3567 18.8262 13.3188C18.8336 13.281 18.8297 13.2418 18.8149 13.2062C18.8001 13.1706 18.7751 13.1402 18.743 13.1188C18.7109 13.0974 18.6732 13.0859 18.6346 13.0859C18.5961 13.0859 18.5584 13.0974 18.5263 13.1188C18.4942 13.1402 18.4692 13.1706 18.4544 13.2062C18.4396 13.2418 18.4357 13.281 18.4431 13.3188C18.4506 13.3567 18.4691 13.3914 18.4962 13.4188Z" fill="#271D70"/>
<path d="M13.8221 19.5891C13.8441 19.6021 13.8685 19.6107 13.8939 19.6143C13.9192 19.6179 13.9451 19.6164 13.9698 19.6099C13.9946 19.6034 14.0179 19.5921 14.0382 19.5766C14.0586 19.5611 14.0757 19.5417 14.0885 19.5195C14.1144 19.4746 14.1214 19.4213 14.108 19.3713C14.0945 19.3212 14.0618 19.2786 14.0169 19.2527C13.972 19.2268 13.9187 19.2198 13.8687 19.2332C13.8187 19.2467 13.776 19.2794 13.7501 19.3243C13.7246 19.369 13.7179 19.4219 13.7314 19.4716C13.7449 19.5212 13.7775 19.5634 13.8221 19.5891Z" fill="#271D70"/>
<path d="M17.7278 12.8228C17.7497 12.8362 17.774 12.8451 17.7994 12.8489C17.8248 12.8527 17.8507 12.8513 17.8756 12.8449C17.9004 12.8385 17.9238 12.8271 17.9441 12.8115C17.9645 12.7959 17.9815 12.7763 17.9942 12.754C18.0085 12.7317 18.0182 12.7067 18.0225 12.6806C18.0269 12.6545 18.0259 12.6277 18.0197 12.602C18.0134 12.5763 18.0019 12.5521 17.986 12.5309C17.97 12.5097 17.95 12.492 17.927 12.4789C17.904 12.4657 17.8785 12.4574 17.8522 12.4544C17.8259 12.4514 17.7992 12.4538 17.7739 12.4614C17.7485 12.469 17.7249 12.4817 17.7046 12.4987C17.6843 12.5158 17.6677 12.5367 17.6558 12.5604C17.6427 12.5822 17.6341 12.6064 17.6307 12.6316C17.6272 12.6568 17.6289 12.6825 17.6356 12.707C17.6423 12.7315 17.654 12.7544 17.6698 12.7743C17.6857 12.7942 17.7054 12.8107 17.7278 12.8228Z" fill="#271D70"/>
<path d="M14.8103 19.9944C14.8478 20.0047 14.8874 20.0035 14.9242 19.9912C14.961 19.9789 14.9933 19.956 15.017 19.9253C15.0408 19.8946 15.0549 19.8576 15.0575 19.8189C15.0602 19.7802 15.0513 19.7415 15.032 19.7079C15.0127 19.6742 14.9839 19.6471 14.9491 19.6298C14.9144 19.6126 14.8753 19.606 14.8368 19.611C14.7983 19.616 14.7622 19.6323 14.733 19.6578C14.7038 19.6833 14.6828 19.717 14.6727 19.7544C14.6593 19.8045 14.6662 19.8579 14.692 19.9028C14.7178 19.9478 14.7603 19.9808 14.8103 19.9944Z" fill="#271D70"/>
<path d="M16.832 12.454C16.8693 12.464 16.9086 12.4628 16.9452 12.4504C16.9817 12.4381 17.0138 12.4152 17.0373 12.3846C17.0609 12.3541 17.0748 12.3172 17.0774 12.2788C17.0801 12.2403 17.0712 12.2019 17.052 12.1684C17.0328 12.135 17.0042 12.1079 16.9696 12.0908C16.9351 12.0736 16.8963 12.067 16.858 12.0719C16.8197 12.0768 16.7838 12.0929 16.7547 12.1182C16.7256 12.1435 16.7046 12.1768 16.6944 12.214C16.6876 12.2388 16.6858 12.2647 16.6891 12.2902C16.6923 12.3157 16.7006 12.3403 16.7134 12.3626C16.7261 12.3849 16.7432 12.4044 16.7636 12.4201C16.7839 12.4358 16.8072 12.4473 16.832 12.454Z" fill="#271D70"/>
<path d="M15.8737 20.1326C15.9123 20.1324 15.95 20.1208 15.9819 20.0993C16.0139 20.0777 16.0388 20.0472 16.0535 20.0115C16.0681 19.9758 16.0719 19.9366 16.0643 19.8988C16.0566 19.861 16.038 19.8263 16.0107 19.7991C15.9833 19.7719 15.9486 19.7533 15.9107 19.7459C15.8729 19.7384 15.8337 19.7423 15.798 19.7571C15.7624 19.7719 15.732 19.7969 15.7106 19.829C15.6892 19.8611 15.6777 19.8988 15.6777 19.9374C15.6776 19.9631 15.6826 19.9886 15.6925 20.0124C15.7023 20.0362 15.7167 20.0578 15.735 20.0759C15.7532 20.0941 15.7748 20.1084 15.7987 20.1182C15.8225 20.1279 15.848 20.1328 15.8737 20.1326Z" fill="#271D70"/>
<path d="M15.8737 12.3263C15.9121 12.326 15.9496 12.3143 15.9814 12.2927C16.0131 12.2711 16.0378 12.2406 16.0522 12.205C16.0667 12.1694 16.0703 12.1303 16.0625 12.0927C16.0548 12.0551 16.0361 12.0206 16.0087 11.9936C15.9814 11.9666 15.9467 11.9483 15.909 11.941C15.8713 11.9337 15.8322 11.9378 15.7968 11.9527C15.7614 11.9676 15.7312 11.9926 15.71 12.0246C15.6888 12.0567 15.6776 12.0943 15.6777 12.1327C15.6778 12.1583 15.683 12.1836 15.6929 12.2072C15.7028 12.2308 15.7173 12.2522 15.7355 12.2702C15.7537 12.2882 15.7753 12.3024 15.799 12.312C15.8227 12.3216 15.8481 12.3265 15.8737 12.3263Z" fill="#271D70"/>
</g>
</g>
<defs>
<clipPath id="clip0_583_7338">
<rect width="32" height="31.996" fill="white" transform="translate(0 0.0078125)"/>
</clipPath>
</defs>
</svg>
