<svg width="32" height="32" viewBox="0 0 32 32" fill="none" xmlns="http://www.w3.org/2000/svg">
<g clip-path="url(#clip0_583_8180)">
<mask id="mask0_583_8180" style="mask-type:luminance" maskUnits="userSpaceOnUse" x="0" y="0" width="32" height="32">
<path d="M15.9972 0H15.6428C11.8025 0.080006 9.82954 0.383229 8.0022 1.01048C6.23436 1.61749 4.64296 2.65003 3.36825 4.0171C2.31112 5.2466 1.50204 6.66915 0.985674 8.20621C0.376958 10.1321 0.053503 12.1367 0.0256016 14.1563C-3.30831e-07 14.9515 0 15.0619 0 16.0012C0 16.9405 -3.30831e-07 17.0517 0.0256016 17.8413C0.0534963 19.8614 0.37695 21.8666 0.985674 23.793C1.50315 25.3299 2.31362 26.752 3.37225 27.9805C4.64498 29.3495 6.23505 30.3843 8.0022 30.9935C9.82954 31.6208 11.8017 31.9232 15.6428 32.0024H16.3524C20.1927 31.9224 22.1657 31.6208 23.993 30.9935C25.7611 30.3862 27.3525 29.3531 28.6269 27.9853C29.6859 26.757 30.4964 25.3349 31.0135 23.7978C31.6219 21.8713 31.9453 19.8662 31.9736 17.8461C32 17.0525 32 16.9421 32 16.006C32 15.0699 32 14.9563 31.9736 14.1611C31.9453 12.1415 31.6218 10.137 31.0135 8.21102C30.4964 6.67345 29.6859 5.2508 28.6269 4.0219C27.3522 2.65483 25.7608 1.62229 23.993 1.01528C22.1657 0.388029 20.1935 0.0856065 16.3524 0.00480039L15.9972 0Z" fill="white"/>
</mask>
<g mask="url(#mask0_583_8180)">
<path d="M41.8909 -1.25H-9.89453V33.2494H41.8909V-1.25Z" fill="white"/>
<path d="M11.0544 12.7109C10.6177 13.3665 10.4593 14.1687 10.6141 14.941C10.7689 15.7133 11.2241 16.3926 11.8797 16.8292C12.5352 17.2659 13.3374 17.4243 14.1097 17.2695C14.8821 17.1148 15.5613 16.6595 15.998 16.004C16.4405 15.3627 17.1174 14.9209 17.8826 14.7741C18.6479 14.6272 19.4401 14.787 20.0887 15.219C20.7372 15.6509 21.1899 16.3205 21.3493 17.0832C21.5087 17.8459 21.362 18.6407 20.9407 19.2962C20.0608 20.5915 18.7049 21.4869 17.1682 21.7877C15.6314 22.0884 14.038 21.77 12.7348 20.9019C11.4315 20.0338 10.5238 18.6862 10.2091 17.1522C9.8944 15.6182 10.1982 14.0221 11.0544 12.7109Z" fill="#00437B"/>
<path d="M21.3845 20.1873C21.8211 19.5318 21.9794 18.7298 21.8247 17.9576C21.6699 17.1854 21.2147 16.5064 20.5593 16.0698C19.9038 15.6332 19.1018 15.4749 18.3296 15.6296C17.5574 15.7844 16.8784 16.2396 16.4418 16.895C16.0051 17.5506 15.3259 18.0058 14.5535 18.1606C13.7812 18.3154 12.979 18.157 12.3235 17.7203C11.6679 17.2836 11.2127 16.6044 11.0579 15.8321C10.9031 15.0597 11.0615 14.2575 11.4982 13.602C12.3781 12.3067 13.734 11.4113 15.2708 11.1106C16.8075 10.8099 18.4009 11.1282 19.7042 11.9963C21.0074 12.8644 21.9152 14.212 22.2298 15.746C22.5445 17.28 22.2407 18.8762 21.3845 20.1873Z" fill="#DA1A32"/>
<path d="M24.5074 21.9688L22.9961 24.2313L23.821 24.7802L25.3315 22.5168L24.5074 21.9688Z" fill="#1D1D1B"/>
<path d="M26.2954 19.29L24.7871 21.5547L25.6115 22.1037L27.1198 19.839L26.2954 19.29Z" fill="#1D1D1B"/>
<path d="M25.7469 22.7905L24.2363 25.0547L25.0603 25.6044L26.5708 23.3402L25.7469 22.7905Z" fill="#1D1D1B"/>
<path d="M27.5332 20.1181L26.0234 22.3828L26.8469 22.9318L28.3567 20.6671L27.5332 20.1181Z" fill="#1D1D1B"/>
<path d="M23.276 21.142L21.7656 23.4062L22.5896 23.9559L24.1 21.6916L23.276 21.142Z" fill="#1D1D1B"/>
<path d="M25.0611 18.47L23.5508 20.7344L24.3748 21.284L25.8851 19.0196L25.0611 18.47Z" fill="#1D1D1B"/>
<path d="M6.93508 18.4656L6.11133 19.0156L9.40808 23.9535L10.2318 23.4035L6.93508 18.4656Z" fill="#1D1D1B"/>
<path d="M4.4686 20.116L3.64453 20.6641L6.9324 25.6078L7.75647 25.0598L4.4686 20.116Z" fill="#1D1D1B"/>
<path d="M7.48542 21.9664L6.66211 22.5156L8.17163 24.7786L8.99494 24.2294L7.48542 21.9664Z" fill="#1D1D1B"/>
<path d="M5.70036 19.2877L4.87695 19.8359L6.38483 22.1005L7.20824 21.5522L5.70036 19.2877Z" fill="#1D1D1B"/>
<path d="M23.826 7.21602L23.002 7.76562L26.2965 12.705L27.1205 12.1554L23.826 7.21602Z" fill="#1D1D1B"/>
<path d="M26.8449 9.06814L26.0215 9.61719L27.5315 11.8817L28.3549 11.3327L26.8449 9.06814Z" fill="#1D1D1B"/>
<path d="M25.0604 6.39659L24.2363 6.94531L25.7442 9.20985L26.5683 8.66113L25.0604 6.39659Z" fill="#1D1D1B"/>
<path d="M24.3748 10.716L23.5508 11.2656L25.0612 13.5299L25.8852 12.9802L24.3748 10.716Z" fill="#1D1D1B"/>
<path d="M22.5917 8.03789L21.7676 8.58594L23.2744 10.8516L24.0985 10.3036L22.5917 8.03789Z" fill="#1D1D1B"/>
<path d="M9.40487 8.04213L6.11328 12.9844L6.93699 13.533L10.2286 8.59072L9.40487 8.04213Z" fill="#1D1D1B"/>
<path d="M8.17034 7.21616L4.87695 12.1562L5.70108 12.7057L8.99446 7.76557L8.17034 7.21616Z" fill="#1D1D1B"/>
<path d="M6.93416 6.39369L3.64258 11.3359L4.46629 11.8845L7.75787 6.94228L6.93416 6.39369Z" fill="#1D1D1B"/>
<path d="M8.16995 1.48259L8.17032 1.48246C9.925 0.878538 11.8378 0.579734 15.6532 0.5H16.3516C20.1676 0.579729 22.0789 0.878496 23.8361 1.48246C25.5228 2.06299 27.0409 3.04906 28.2572 4.35392C29.2694 5.5307 30.0448 6.89199 30.5407 8.36298C31.1341 10.2416 31.4492 12.1971 31.476 14.1671L31.476 14.1671L31.4763 14.1769C31.5024 14.963 31.5024 15.0706 31.5024 16.0013V16.0044V16.0077C31.5024 16.9382 31.5024 17.0418 31.4763 17.8279L31.4762 17.8279L31.476 17.8377C31.4492 19.808 31.1341 21.7637 30.5407 23.6427C30.045 25.1139 29.2697 26.4754 28.2573 27.6523C27.0401 28.9561 25.5211 29.9408 23.8341 30.5198L23.8337 30.5199C22.079 31.1239 20.167 31.4227 16.3516 31.5024H15.6532C11.8363 31.4235 9.92507 31.1239 8.17032 30.5199L8.16988 30.5198C6.48297 29.9409 4.96427 28.9562 3.74745 27.6523C2.73392 26.4745 1.95749 25.1119 1.4609 23.6394C0.867849 21.7604 0.55273 19.8047 0.525551 17.8344H0.525637L0.525337 17.8252C0.5 17.042 0.5 16.9375 0.5 16.0043V16.0012V15.9979C0.5 15.0652 0.5 14.9603 0.527689 14.1747L0.527803 14.1747L0.527951 14.164C0.555194 12.194 0.870305 10.2386 1.46328 8.35982C1.95975 6.88894 2.73536 5.52772 3.74753 4.35079C4.9643 3.04669 6.48299 2.0617 8.16995 1.48259Z" stroke="#F6F6F6"/>
</g>
</g>
<defs>
<clipPath id="clip0_583_8180">
<rect width="32" height="32.0024" fill="white"/>
</clipPath>
</defs>
</svg>
