<svg width="24" height="24" viewBox="0 0 24 24" fill="none" xmlns="http://www.w3.org/2000/svg">
<g clip-path="url(#clip0_8918_95336)">
<mask id="mask0_8918_95336" style="mask-type:luminance" maskUnits="userSpaceOnUse" x="0" y="0" width="24" height="24">
<path d="M12.0012 0H11.7348C8.85464 0.060003 7.37497 0.286214 6.0045 0.757838C4.67839 1.21286 3.48478 1.98751 2.52913 3.01335C1.73551 3.93495 1.12771 5.0014 0.739237 6.15391C0.282991 7.59895 0.0404153 9.10292 0.0192007 10.6181C-2.48117e-07 11.214 0 11.2968 0 12.0012C0 12.7056 -2.48117e-07 12.7884 0.0192007 13.3813C0.0404942 14.8967 0.283068 16.4008 0.739237 17.8461C1.12771 18.9986 1.73551 20.0651 2.52913 20.9867C3.48465 22.0125 4.67832 22.787 6.0045 23.2416C7.37497 23.7132 8.85404 23.94 11.7348 23.9994H12.267C15.1472 23.9394 16.6268 23.7132 17.9979 23.2416C19.3239 22.787 20.5174 22.0125 21.4727 20.9867C22.2653 20.0657 22.8723 19 23.2602 17.8485C23.7169 16.4034 23.9595 14.8991 23.9802 13.3837C24 12.7884 24 12.7062 24 12.0036C24 11.301 24 11.2164 23.9802 10.6205C23.9596 9.10527 23.717 7.60121 23.2602 6.15631C22.8729 5.00307 22.2659 3.93576 21.4727 3.01335C20.5173 1.98752 19.3238 1.21286 17.9979 0.757838C16.6268 0.283214 15.1484 0.059403 12.267 0H12.0012Z" fill="white"/>
</mask>
<g mask="url(#mask0_8918_95336)">
<path d="M32.1609 -0.496582H-5.36133V24.4989H32.1609V-0.496582Z" fill="#FF3C30"/>
<path d="M32.1609 8.85249H11.6075V-0.496582H4.94719V8.85249H-5.36133V15.0676H4.94719V24.4989H11.6075V15.0676H32.1609V8.85249Z" fill="white"/>
<path d="M32.1609 10.3286H10.0492V-0.496582H6.50907V10.3286H-5.36133V13.6761H6.50607V24.4989H10.0462V13.6761H32.1609V10.3286Z" fill="#00357B"/>
</g>
</g>
<defs>
<clipPath id="clip0_8918_95336">
<rect width="24" height="23.9994" fill="white"/>
</clipPath>
</defs>
</svg>
