<svg width="32" height="32" viewBox="0 0 32 32" fill="none" xmlns="http://www.w3.org/2000/svg">
<g clip-path="url(#clip0_8918_95393)">
<mask id="mask0_8918_95393" style="mask-type:luminance" maskUnits="userSpaceOnUse" x="0" y="0" width="32" height="32">
<path d="M16.0008 0H15.6464C11.8062 0.080004 9.83249 0.381619 8.0052 1.01125C6.23684 1.61671 4.64519 2.64914 3.37137 4.017C2.31258 5.24626 1.50212 6.66911 0.984849 8.20681C0.376174 10.1332 0.0527297 12.1383 0.0248013 14.1583C1.49019e-08 14.9519 0 15.0624 0 16.0032C0 16.944 1.49019e-08 17.0521 0.0248013 17.8433C0.0527321 19.8636 0.376175 21.8689 0.984849 23.7956C1.50268 25.3326 2.31309 26.7548 3.37137 27.9838C4.64568 29.3513 6.23715 30.3839 8.0052 30.9904C9.83249 31.6192 11.8046 31.9216 15.6464 31.9992H16.3544C20.1946 31.9192 22.1675 31.6192 23.994 30.9904C25.7624 30.3837 27.3544 29.3511 28.6294 27.9838C29.6872 26.7547 30.4971 25.3325 31.0144 23.7956C31.6242 21.8692 31.9476 19.8637 31.9744 17.8433C32 17.0489 32 16.9384 32 16.0032C32 15.068 32 14.9519 31.9744 14.1583C31.9476 12.1382 31.6241 10.1329 31.0144 8.20681C30.4974 6.66976 29.6875 5.24747 28.6294 4.0186C27.3552 2.65053 25.7633 1.61762 23.9948 1.01125C22.1683 0.381619 20.1946 0.079204 16.3544 0H16.0008Z" fill="white"/>
</mask>
<g mask="url(#mask0_8918_95393)">
<path d="M53.6642 -0.0336914H-0.527344V18.016H53.6642V-0.0336914Z" fill="#FF1228"/>
<path d="M53.6642 18.0161H-0.527344V36.0658H53.6642V18.0161Z" fill="white"/>
<path d="M6.87107 9.22284C6.85247 8.12843 7.17204 7.05494 7.78615 6.14888C8.40026 5.24281 9.279 4.54832 10.3024 4.16019C9.58372 3.97352 8.83349 3.94199 8.10164 4.0677C7.3698 4.19342 6.67309 4.4735 6.05787 4.88931C5.44264 5.30513 4.92298 5.84715 4.53345 6.47934C4.14391 7.11154 3.89343 7.81942 3.79865 8.55591C3.70387 9.29241 3.76696 10.0406 3.98374 10.7509C4.20052 11.4611 4.56601 12.117 5.05591 12.6751C5.54581 13.2331 6.1489 13.6804 6.82507 13.9874C7.50124 14.2943 8.23501 14.4537 8.97758 14.4551C9.42461 14.4552 9.86973 14.3968 10.3016 14.2815C9.27874 13.8939 8.40036 13.2 7.78639 12.2947C7.17243 11.3893 6.85278 10.3166 6.87107 9.22284Z" fill="white"/>
<path d="M12.6078 4.96338L12.8966 5.90983H13.8342L13.0726 6.49546L13.3622 7.4427L12.6046 6.85627L11.8469 7.4427L12.1357 6.49546L11.3789 5.90983H12.315L12.6078 4.96338Z" fill="white"/>
<path d="M15.5405 7.15088L15.8301 8.09813H16.7669L16.0093 8.68456L16.2981 9.6318L15.5405 9.04697L14.7828 9.6318L15.074 8.68696L14.3164 8.10053H15.2533L15.5405 7.15088Z" fill="white"/>
<path d="M9.66982 7.15088L9.95864 8.09813H10.8963L10.1378 8.68456L10.4275 9.6318L9.66982 9.04697L8.91138 9.6318L9.201 8.68456L8.44336 8.09813H9.38021L9.66982 7.15088Z" fill="white"/>
<path d="M10.8718 10.6069L11.1622 11.5534H12.0983L11.3414 12.139L11.6334 13.0871L10.875 12.5014L10.1134 13.0871L10.4038 12.139L9.64453 11.5534H10.5814L10.8718 10.6069Z" fill="white"/>
<path d="M14.421 10.6069L14.7106 11.5534H15.6474L14.889 12.139L15.1786 13.0871L14.421 12.5014L13.6625 13.0871L13.953 12.139L13.1953 11.5534H14.1314L14.421 10.6069Z" fill="white"/>
<path d="M15.6476 0C11.8079 0.080004 9.83446 0.380819 8.0074 1.00965C6.23977 1.61646 4.64876 2.64933 3.37495 4.017C2.31655 5.24568 1.50597 6.66763 0.987926 8.20441C0.379339 10.1311 0.055937 12.1364 0.0279982 14.1567C2.59261e-07 14.9511 0 15.0616 0 16.0008C0 16.94 5.06602e-08 17.0497 0.0255981 17.8409C0.0534705 19.8615 0.376874 21.8671 0.985526 23.794C1.50369 25.3324 2.31513 26.7558 3.37495 27.9854C4.64881 29.3528 6.23982 30.3854 8.0074 30.992C9.83446 31.6208 11.8063 31.9224 15.6476 32.0016H16.3564C20.1961 31.9216 22.1687 31.6208 23.9958 30.992C25.7635 30.3852 27.3548 29.3527 28.6291 27.9854C29.6876 26.7567 30.498 25.3344 31.0153 23.7972C31.6243 21.8704 31.9477 19.8647 31.9752 17.8441C32.0016 17.0497 32.0016 16.9408 32.0016 16.004C32.0016 15.0672 32.0016 14.9543 31.9752 14.1599C31.9477 12.1396 31.6242 10.1342 31.0153 8.20761C30.4978 6.67074 29.6875 5.24872 28.6291 4.0202C27.3558 2.65184 25.7654 1.61791 23.9982 1.00965C22.1687 0.380819 20.1969 0.080004 16.3564 0H15.6476Z" stroke="#F6F6F6"/>
</g>
</g>
<defs>
<clipPath id="clip0_8918_95393">
<rect width="32" height="31.9992" fill="white"/>
</clipPath>
</defs>
</svg>
