<svg width="32" height="32" viewBox="0 0 32 32" fill="none" xmlns="http://www.w3.org/2000/svg">
<g clip-path="url(#clip0_583_7330)">
<mask id="mask0_583_7330" style="mask-type:luminance" maskUnits="userSpaceOnUse" x="0" y="0" width="32" height="32">
<path d="M15.9984 0H15.6432C11.8032 0.08 9.8304 0.3816 8.0032 1.0096C6.23529 1.61656 4.64395 2.64934 3.3696 4.0168C2.31187 5.2457 1.50228 6.66791 0.9856 8.2048C0.376551 10.131 0.0531138 12.136 0.0256004 14.156C4.32134e-07 14.9512 0 15.06 0 16.0008C0 16.9416 4.32134e-07 17.0496 0.0256004 17.8408C0.0531738 19.861 0.376609 21.8663 0.9856 23.7928C1.50313 25.3297 2.31323 26.7518 3.3712 27.9808C4.6456 29.348 6.23694 30.3805 8.0048 30.9872C9.832 31.616 11.8032 31.9176 15.6448 31.9968H16.3544C20.1944 31.9168 22.1672 31.616 23.9944 30.9872C25.7624 30.3807 27.3538 29.3482 28.628 27.9808C29.6862 26.7518 30.4966 25.3297 31.0144 23.7928C31.623 21.8663 31.9465 19.861 31.9744 17.8408C32 17.0464 32 16.936 32 16.0008C32 15.0656 32 14.9512 31.9744 14.156C31.9465 12.136 31.6231 10.1311 31.0144 8.2048C30.497 6.66774 29.6866 5.24552 28.628 4.0168C27.3529 2.6504 25.761 1.61897 23.9928 1.0136C22.1656 0.3816 20.1936 0.0792 16.3528 0H15.9984Z" fill="white"/>
</mask>
<g mask="url(#mask0_583_7330)">
<path d="M40.4233 -0.585938H-9.6543V32.7741H40.4233V-0.585938Z" fill="white"/>
<path d="M40.4233 21.6562H-9.6543V32.7747H40.4233V21.6562Z" fill="#DF352A"/>
<path d="M40.4233 10.5391H-9.6543V21.6591H40.4233V10.5391Z" fill="#074E9F"/>
<path d="M8.16934 1.48251L8.16972 1.48238C9.92426 0.878509 11.8369 0.579728 15.6521 0.5H16.3503C20.1661 0.579723 22.0772 0.878467 23.8343 1.48238C25.5208 2.06287 27.0389 3.04886 28.2551 4.35362C29.2672 5.5303 30.0425 6.89149 30.5384 8.36235C31.1317 10.2409 31.4468 12.1962 31.4736 14.166L31.4736 14.166L31.4739 14.1758C31.5 14.9619 31.5 15.0694 31.5 16.0001V16.0032V16.0065C31.5 16.9369 31.5 17.0405 31.4739 17.8266L31.4738 17.8266L31.4736 17.8364C31.4469 19.8065 31.1318 21.7621 30.5384 23.6409C30.0427 25.112 29.2674 26.4734 28.2552 27.6502C27.038 28.9539 25.5192 29.9385 23.8323 30.5175L23.8319 30.5176C22.0773 31.1215 20.1655 31.4203 16.3503 31.5H15.652C11.8354 31.4211 9.92433 31.1215 8.16972 30.5176L8.16928 30.5175C6.48251 29.9387 4.96392 28.954 3.7472 27.6502C2.73374 26.4725 1.95738 25.11 1.46082 23.6377C0.86782 21.7588 0.552726 19.8032 0.525549 17.8331H0.525635L0.525335 17.8238C0.5 17.0407 0.5 16.9363 0.5 16.0031V16V15.9967C0.5 15.064 0.5 14.9592 0.527687 14.1736L0.527801 14.1736L0.527949 14.1629C0.55519 12.1931 0.870277 10.2378 1.4632 8.3592C1.95964 6.88844 2.73518 5.52732 3.74727 4.35048C4.96395 3.04649 6.48253 2.06158 8.16934 1.48251Z" stroke="#F6F6F6"/>
</g>
</g>
<defs>
<clipPath id="clip0_583_7330">
<rect width="32" height="31.9968" fill="white"/>
</clipPath>
</defs>
</svg>
