<svg width="32" height="32" viewBox="0 0 32 32" fill="none" xmlns="http://www.w3.org/2000/svg">
<g clip-path="url(#clip0_583_8698)">
<mask id="mask0_583_8698" style="mask-type:luminance" maskUnits="userSpaceOnUse" x="0" y="0" width="32" height="33">
<path d="M16.0008 0.0078125H15.6464C11.8062 0.0878165 9.83169 0.388632 8.0052 1.01666C6.23733 1.62471 4.64603 2.65801 3.37137 4.02561C2.31312 5.25482 1.50296 6.67735 0.985649 8.21462C0.376907 10.141 0.0534609 12.1461 0.0256013 14.1661C-2.08627e-08 14.9606 0 15.0702 0 16.0102C0 16.9503 -2.08627e-08 17.0591 0.0256013 17.8503C0.0537522 19.8709 0.377189 21.8764 0.985649 23.8034C1.50324 25.3398 2.31339 26.7615 3.37137 27.99C4.6454 29.3578 6.23696 30.3905 8.0052 30.9966C9.83169 31.6262 11.8038 31.9278 15.6464 32.007H16.3544C20.1946 31.927 22.1683 31.6262 23.9956 30.9966C25.764 30.3903 27.3558 29.3577 28.6302 27.99C29.6879 26.7615 30.4978 25.3398 31.0152 23.8034C31.6232 21.8763 31.9467 19.8708 31.9752 17.8503C32 17.0559 32 16.9471 32 16.0102C32 15.0734 32 14.9606 31.9752 14.1661C31.9469 12.1461 31.6235 10.1411 31.0152 8.21462C30.4981 6.67741 29.6882 5.25488 28.6302 4.02561C27.3549 2.65876 25.7634 1.62606 23.9956 1.01826C22.1683 0.388632 20.197 0.0870165 16.3544 0.0078125H16.0008Z" fill="white"/>
</mask>
<g mask="url(#mask0_583_8698)">
<path d="M55.0888 -0.210938H-0.382812V10.5664H55.0888V-0.210938Z" fill="#C0003B"/>
<path d="M55.0888 10.5625H-0.382812V21.3414H55.0888V10.5625Z" fill="white"/>
<path d="M55.0888 21.3438H-0.382812V32.1211H55.0888V21.3438Z" fill="black"/>
<path fill-rule="evenodd" clip-rule="evenodd" d="M-0.382812 -0.210938V32.1219L21.1895 15.9555L-0.382812 -0.210938Z" fill="#2F742E"/>
</g>
</g>
<defs>
<clipPath id="clip0_583_8698">
<rect width="32" height="31.9992" fill="white" transform="translate(0 0.0078125)"/>
</clipPath>
</defs>
</svg>
