<svg width="24" height="24" viewBox="0 0 24 24" fill="none" xmlns="http://www.w3.org/2000/svg">
<g clip-path="url(#clip0_658_3025)">
<mask id="mask0_658_3025" style="mask-type:luminance" maskUnits="userSpaceOnUse" x="0" y="0" width="24" height="25">
<path d="M11.9994 0.0018001H11.7342C8.85404 0.0618031 7.37377 0.287414 6.0033 0.759038C4.67719 1.21442 3.48347 1.98901 2.52733 3.01455C1.73372 3.93686 1.1263 5.00417 0.738637 6.15751C0.282207 7.60251 0.0396266 9.10651 0.018601 10.6217C8.27056e-08 11.2176 0 11.3004 0 12.0048C0 12.7092 8.27056e-08 12.7914 0.018601 13.3849C0.0396197 14.9003 0.2822 16.4045 0.738637 17.8497C1.12651 19.0024 1.73392 20.0691 2.52733 20.9909C3.4835 22.0162 4.67723 22.7906 6.0033 23.2458C7.37377 23.7174 8.85224 23.9436 11.7342 24.003H12.2658C15.146 23.943 16.6262 23.7174 17.9961 23.2458C19.3222 22.7906 20.5159 22.0162 21.4721 20.9909C22.2655 20.069 22.8731 19.0023 23.2614 17.8497C23.7182 16.4046 23.9608 14.9003 23.9814 13.3849C24 12.789 24 12.7074 24 12.0048C24 11.3022 24 11.2176 23.9814 10.6217C23.9607 9.10648 23.7181 7.60243 23.2614 6.15751C22.873 5.0051 22.2654 3.93867 21.4721 3.01695C20.5162 1.9898 19.3223 1.21373 17.9955 0.757238C16.6256 0.285614 15.1466 0.0588029 12.2652 0L11.9994 0.0018001Z" fill="white"/>
</mask>
<g mask="url(#mask0_658_3025)">
<path d="M40.8531 21.9141H-6.1875V23.818H40.8531V21.9141Z" fill="#D11242"/>
<path d="M40.8531 20.0117H-6.1875V21.9144H40.8531V20.0117Z" fill="white"/>
<path d="M40.8531 18.1094H-6.1875V20.0127H40.8531V18.1094Z" fill="#D11242"/>
<path d="M40.8531 16.2031H-6.1875V18.1064H40.8531V16.2031Z" fill="white"/>
<path d="M40.8531 14.3008H-6.1875V16.2047H40.8531V14.3008Z" fill="#D11242"/>
<path d="M40.8531 12.3984H-6.1875V14.3017H40.8531V12.3984Z" fill="white"/>
<path d="M40.8531 10.4961H12.6289V12.3988H40.8531V10.4961Z" fill="#D11242"/>
<path d="M40.8531 8.59375H12.6289V10.4964H40.8531V8.59375Z" fill="white"/>
<path d="M40.8531 6.69141H12.6289V8.5953H40.8531V6.69141Z" fill="#D11242"/>
<path d="M40.8531 4.78906H12.6289V6.69176H40.8531V4.78906Z" fill="white"/>
<path d="M40.8531 2.88281H12.6289V4.78611H40.8531V2.88281Z" fill="#D11242"/>
<path d="M40.8531 0.980469H12.6289V2.88436H40.8531V0.980469Z" fill="white"/>
<path d="M40.8531 -0.921875H12.6289V0.98082H40.8531V-0.921875Z" fill="#D11242"/>
<path d="M12.6288 -0.921875H-6.1875V12.3988H12.6288V-0.921875Z" fill="#002D62"/>
<path d="M-0.302956 2.27218L-0.155349 1.81616L-0.542969 1.53415H-0.0629446L0.0852632 1.07812L0.23347 1.53415H0.713495L0.325275 1.81616L0.473482 2.27218L0.0858629 1.99017L-0.302956 2.27218Z" fill="white"/>
<path d="M1.26345 0.936847L1.41166 0.480224L1.02344 0.19881H1.50346L1.65167 -0.257812L1.79988 0.19881H2.2799L1.89228 0.480224L2.04049 0.936847L1.65227 0.654833L1.26345 0.936847Z" fill="white"/>
<path d="M2.83376 2.27218L2.98137 1.81616L2.59375 1.53415H3.07377L3.22258 1.07812L3.37019 1.53415H3.85021L3.46259 1.81616L3.6108 2.27218L3.22318 1.99017L2.83376 2.27218Z" fill="white"/>
<path d="M4.40017 0.936847L4.54838 0.480224L4.16016 0.19881H4.64018L4.78779 -0.257812L4.9366 0.19881H5.41662L5.0284 0.480224L5.17661 0.936847L4.78839 0.654833L4.40017 0.936847Z" fill="white"/>
<path d="M5.96658 2.27218L6.11478 1.81616L5.72656 1.53415H6.20659L6.35419 1.07812L6.503 1.53415H6.98303L6.59481 1.81616L6.74301 2.27218L6.35119 1.99017L5.96658 2.27218Z" fill="white"/>
<path d="M7.53629 0.936847L7.68449 0.480224L7.29688 0.19881H7.7769L7.92511 -0.257812L8.07331 0.19881H8.55334L8.16572 0.480224L8.31333 0.936847L7.92511 0.654833L7.53629 0.936847Z" fill="white"/>
<path d="M9.10269 2.27218L9.2509 1.81616L8.86328 1.53415H9.34331L9.49151 1.07812L9.64032 1.53415H10.1203L9.73153 1.81616L9.87973 2.27218L9.49151 1.99017L9.10269 2.27218Z" fill="white"/>
<path d="M10.6736 0.938047L10.8218 0.481424L10.4336 0.19881H10.9136L11.0618 -0.257812L11.21 0.19881H11.6901L11.3012 0.480224L11.4494 0.936847L11.0612 0.654833L10.6736 0.938047Z" fill="white"/>
<path d="M-0.302956 4.93565L-0.155349 4.48022L-0.542969 4.19761H-0.0629446L0.0852632 3.74219L0.23347 4.19761H0.713495L0.325275 4.48022L0.473482 4.93565L0.0858629 4.65363L-0.302956 4.93565Z" fill="white"/>
<path d="M1.26345 3.60362L1.41166 3.14819L1.02344 2.86558H1.50346L1.65167 2.41016L1.79988 2.86558H2.2799L1.89228 3.14819L2.04049 3.60362L1.65227 3.3216L1.26345 3.60362Z" fill="white"/>
<path d="M2.83376 4.93565L2.98137 4.48022L2.59375 4.19761H3.07377L3.22258 3.74219L3.37019 4.19761H3.85021L3.46259 4.48022L3.6108 4.93565L3.22198 4.65663L2.83376 4.93565Z" fill="white"/>
<path d="M4.40017 3.60362L4.54838 3.14819L4.16016 2.86558H4.64018L4.78779 2.41016L4.9366 2.86558H5.41662L5.0284 3.14819L5.17661 3.60362L4.78839 3.3216L4.40017 3.60362Z" fill="white"/>
<path d="M5.96658 4.93565L6.11478 4.48022L5.72656 4.19761H6.20659L6.35419 3.74219L6.503 4.19761H6.98303L6.59481 4.48022L6.74301 4.93565L6.35119 4.65663L5.96658 4.93565Z" fill="white"/>
<path d="M7.53629 3.60362L7.68449 3.14819L7.29688 2.86558H7.7769L7.92511 2.41016L8.07331 2.86558H8.55334L8.16572 3.14819L8.31333 3.60362L7.92511 3.3216L7.53629 3.60362Z" fill="white"/>
<path d="M9.10269 4.93565L9.2509 4.48022L8.86328 4.19761H9.34331L9.49151 3.74219L9.64032 4.19761H10.1203L9.73153 4.48022L9.87973 4.93565L9.49151 4.65363L9.10269 4.93565Z" fill="white"/>
<path d="M10.6736 3.60362L10.8218 3.14819L10.4336 2.86558H10.9136L11.0618 2.41016L11.21 2.86558H11.6901L11.3012 3.14819L11.4494 3.60362L11.0612 3.3216L10.6736 3.60362Z" fill="white"/>
<path d="M-0.302956 7.60362L-0.155349 7.14819L-0.542969 6.86558H-0.0629446L0.0852632 6.41016L0.23347 6.86558H0.713495L0.325275 7.14819L0.473482 7.60362L0.0858629 7.3222L-0.302956 7.60362Z" fill="white"/>
<path d="M1.26345 6.27098L1.41166 5.81556L1.02344 5.53295H1.50346L1.65167 5.07812L1.79988 5.53355H2.2799L1.89228 5.81616L2.04049 6.27158L1.65227 5.99017L1.26345 6.27098Z" fill="white"/>
<path d="M2.83376 7.60362L2.98137 7.14819L2.59375 6.86558H3.07377L3.22258 6.41016L3.37019 6.86558H3.85021L3.46259 7.14819L3.6108 7.60362L3.22318 7.3222L2.83376 7.60362Z" fill="white"/>
<path d="M4.40017 6.27098L4.54838 5.81556L4.16016 5.53295H4.64018L4.78779 5.07812L4.9366 5.53355H5.41662L5.0284 5.81616L5.17661 6.27158L4.78839 5.99017L4.40017 6.27098Z" fill="white"/>
<path d="M5.96658 7.60362L6.11478 7.14819L5.72656 6.86558H6.20659L6.35419 6.41016L6.503 6.86558H6.98303L6.59481 7.14819L6.74301 7.60362L6.35479 7.3222L5.96658 7.60362Z" fill="white"/>
<path d="M7.53629 6.27098L7.68449 5.81556L7.29688 5.53295H7.7769L7.92451 5.07812L8.07271 5.53355H8.55274L8.16512 5.81616L8.31273 6.27158L7.92451 5.99017L7.53629 6.27098Z" fill="white"/>
<path d="M9.10269 7.60362L9.2509 7.14819L8.86328 6.86558H9.34331L9.49151 6.41016L9.64032 6.86558H10.1203L9.73153 7.14819L9.87973 7.60362L9.49151 7.3222L9.10269 7.60362Z" fill="white"/>
<path d="M10.6736 6.27098L10.8218 5.81556L10.4336 5.53295H10.9136L11.06 5.07812L11.2082 5.53355H11.6883L11.2994 5.81616L11.4476 6.27158L11.0594 5.99017L10.6736 6.27098Z" fill="white"/>
<path d="M-0.302956 10.2722L-0.155349 9.81616L-0.542969 9.53415H-0.0629446L0.0852632 9.07812L0.23347 9.53415H0.713495L0.325275 9.81616L0.473482 10.2722L0.0858629 9.99017L-0.302956 10.2722Z" fill="white"/>
<path d="M1.26345 8.94075L1.41166 8.48473L1.02344 8.20272H1.50346L1.65167 7.74609L1.79988 8.20272H2.2799L1.89228 8.48473L2.04049 8.94075L1.65227 8.65874L1.26345 8.94075Z" fill="white"/>
<path d="M2.83376 10.2722L2.98137 9.81616L2.59375 9.53415H3.07377L3.22258 9.07812L3.37019 9.53415H3.85021L3.46259 9.81616L3.6108 10.2722L3.22318 9.99017L2.83376 10.2722Z" fill="white"/>
<path d="M4.40017 8.94075L4.54838 8.48473L4.16016 8.20272H4.64018L4.78779 7.74609L4.9366 8.20272H5.41662L5.0284 8.48473L5.17661 8.94075L4.78839 8.65874L4.40017 8.94075Z" fill="white"/>
<path d="M5.96658 10.2722L6.11478 9.81616L5.72656 9.53415H6.20659L6.35419 9.07812L6.503 9.53415H6.98303L6.59481 9.81616L6.74301 10.2722L6.35479 9.99017L5.96658 10.2722Z" fill="white"/>
<path d="M7.53629 8.94075L7.68449 8.48473L7.29688 8.20272H7.7769L7.92511 7.74609L8.07331 8.20272H8.55334L8.16572 8.48473L8.31333 8.94075L7.92511 8.65874L7.53629 8.94075Z" fill="white"/>
<path d="M9.10269 10.2722L9.2509 9.81616L8.86328 9.53415H9.34331L9.49151 9.07812L9.64032 9.53415H10.1203L9.73153 9.81616L9.87973 10.2722L9.49151 9.99017L9.10269 10.2722Z" fill="white"/>
<path d="M10.6736 8.93925L10.8218 8.48322L10.4336 8.19881H10.9136L11.0618 7.74219L11.21 8.19881H11.6901L11.3012 8.48082L11.4494 8.93685L11.0612 8.65483L10.6736 8.93925Z" fill="white"/>
<path d="M1.26345 11.6075L1.41166 11.1521L1.02344 10.8701H1.50346L1.65167 10.4141L1.79988 10.8701H2.2799L1.89228 11.1521L2.04049 11.6075L1.65227 11.3255L1.26345 11.6075Z" fill="white"/>
<path d="M4.40017 11.6075L4.54838 11.1521L4.16016 10.8701H4.64018L4.78779 10.4141L4.9366 10.8701H5.41662L5.0284 11.1521L5.17661 11.6075L4.78839 11.3255L4.40017 11.6075Z" fill="white"/>
<path d="M7.53629 11.6075L7.68449 11.1521L7.29688 10.8701H7.7769L7.92511 10.4141L8.07331 10.8701H8.55334L8.16572 11.1521L8.31333 11.6075L7.92511 11.3255L7.53629 11.6075Z" fill="white"/>
<path d="M10.6736 11.6075L10.8218 11.1521L10.4336 10.8701H10.9136L11.0618 10.4141L11.21 10.8701H11.6901L11.3012 11.1521L11.4494 11.6075L11.0612 11.3255L10.6736 11.6075Z" fill="white"/>
</g>
</g>
<defs>
<clipPath id="clip0_658_3025">
<rect width="24" height="24.003" fill="white"/>
</clipPath>
</defs>
</svg>
