<svg width="32" height="32" viewBox="0 0 32 32" fill="none" xmlns="http://www.w3.org/2000/svg">
<g clip-path="url(#clip0_583_8215)">
<mask id="mask0_583_8215" style="mask-type:luminance" maskUnits="userSpaceOnUse" x="0" y="0" width="32" height="33">
<path d="M15.9988 0.0078125H15.6436C11.8039 0.0878165 9.83206 0.388631 8.0042 1.01666C6.23684 1.62445 4.646 2.65748 3.37175 4.02481C2.31313 5.25306 1.503 6.67517 0.986326 8.21222C0.377401 10.1385 0.0539899 12.1436 0.026398 14.1637C-5.96002e-09 14.9582 0 15.0686 0 16.0078C0 16.9471 -5.96002e-09 17.0575 0.026398 17.8479C0.0538568 19.8685 0.377269 21.8742 0.986326 23.801C1.503 25.3381 2.31313 26.7602 3.37175 27.9884C4.64584 29.3558 6.23675 30.3886 8.0042 30.9958C9.83206 31.6238 11.8031 31.9262 15.6436 32.0054H16.3532C20.1929 31.9254 22.1655 31.6238 23.9926 30.9958C25.7604 30.3888 27.3516 29.3559 28.6259 27.9884C29.6841 26.7607 30.4949 25.3399 31.0137 23.8042C31.6224 21.8773 31.9458 19.8717 31.9736 17.8511C32 17.0575 32 16.9479 32 16.011C32 15.0742 32 14.9614 31.9736 14.1669C31.9457 12.1469 31.6223 10.1418 31.0137 8.21542C30.4958 6.67875 29.6855 5.25681 28.6275 4.02801C27.353 2.6605 25.7619 1.62744 23.9942 1.01986C22.1655 0.388632 20.1945 0.0870165 16.3532 0.0078125H15.9988Z" fill="white"/>
</mask>
<g mask="url(#mask0_583_8215)">
<path d="M40.4197 21.375H-8.42383V32.2227H40.4197V21.375Z" fill="black"/>
<path d="M40.4197 10.5234H-8.42383V21.3712H40.4197V10.5234Z" fill="white"/>
<path d="M40.4197 -0.320312H-8.42383V10.5274H40.4197V-0.320312Z" fill="#CE1126"/>
<path d="M20.5928 13.7934C20.5552 13.7414 20.5776 13.739 20.7312 13.7814C20.8356 13.8234 20.9495 13.8359 21.0605 13.8175C21.1716 13.7992 21.2754 13.7507 21.3608 13.6774L21.516 13.5462L21.6991 13.6398C21.7724 13.6835 21.8543 13.7108 21.9391 13.7198C22.0556 13.6531 22.1416 13.5438 22.1791 13.415C22.1727 13.3254 22.2495 13.3478 22.2855 13.447C22.3033 13.4919 22.3117 13.54 22.3101 13.5883C22.3085 13.6366 22.2969 13.6841 22.2761 13.7277C22.2553 13.7714 22.2257 13.8102 22.1892 13.8419C22.1527 13.8736 22.11 13.8974 22.0639 13.9118C21.9565 13.9357 21.8442 13.9242 21.7439 13.879C21.5735 13.819 21.5439 13.8198 21.4584 13.8854C21.3573 13.9579 21.2375 13.9998 21.1133 14.0062C20.989 14.0125 20.8656 13.9831 20.7576 13.9214C20.6953 13.8898 20.6393 13.8472 20.592 13.7958M21.5447 13.1141C21.5607 12.8597 21.5359 12.7845 21.4264 12.7501C21.3648 12.7309 21.3408 12.7445 21.3184 12.8133C21.3149 12.9828 21.3566 13.1501 21.4392 13.2982C21.5016 13.3782 21.5319 13.3222 21.5447 13.1141ZM14.862 15.3407C14.4621 15.5695 13.8653 15.6023 13.8661 16.2311C12.9974 16.2711 11.9695 16.3015 11.0423 16.2839C11.3551 15.8839 13.0686 14.215 13.5381 13.7462C13.6181 13.6998 13.7357 13.7182 13.8277 13.6774C13.6925 13.6078 13.3942 13.2205 13.4166 13.0653C12.6638 13.795 11.8039 14.571 11.6815 14.6934C10.4544 15.9183 10.4768 15.9039 10.2944 16.0831C10.2944 16.3231 10.2984 16.6503 10.2984 16.8079H14.5341C14.7437 16.8079 14.4869 16.0743 14.7565 16.0743C15.0388 16.0743 14.9444 16.6471 14.9444 17.0039C13.1382 17.0039 11.2303 17.0167 9.46085 17.0167V15.8775C9.24378 16.1118 8.97431 16.2914 8.67451 16.4015C8.8945 16.4439 8.9089 16.7823 8.8841 17.0695C8.14015 17.0887 7.13783 17.1823 7.41621 16.3367C7.16094 16.5309 6.87484 16.6807 6.56987 16.7799C6.93453 17.2493 7.10622 17.8403 7.04984 18.432C6.90505 18.7768 6.50268 18.8632 6.2627 19.1128C6.41794 19.1604 6.58149 19.1747 6.74264 19.1548C6.90378 19.1348 7.0589 19.081 7.19784 18.997C7.33678 18.9129 7.45641 18.8005 7.5489 18.667C7.64139 18.5335 7.70467 18.382 7.73458 18.2224H15.654C15.654 17.588 15.654 16.7095 15.654 16.1263C15.59 15.6391 15.0732 15.6639 14.8676 15.3407M25.7356 18.2208C25.7476 17.8208 25.4213 17.3184 25.3693 16.8063C25.1765 16.9287 25.0917 17.1575 24.6869 17.0687V13.8686C24.7221 13.7086 24.8557 13.6518 24.8973 13.5022C24.5806 13.3852 24.2809 13.2265 24.0062 13.0301V18.2168L25.7356 18.2208ZM23.4022 13.2181V18.2144H19.4281C19.3689 17.1743 19.3593 16.1039 20.5688 16.3343V15.9111C20.532 15.8391 20.4656 15.9287 20.4496 15.8351C20.6416 15.6431 20.7072 15.5951 21.2272 15.1398C21.2272 15.6879 21.2368 16.9799 21.2368 16.9799H21.6951C21.6951 16.9799 21.6991 14.815 21.6991 14.7398C21.6991 14.7398 22.3287 14.2094 22.3287 14.1886V16.9775H22.7735C22.7735 15.9151 22.7599 14.8374 22.7599 13.8494C22.9952 13.6611 23.208 13.4463 23.3942 13.2093M20.5608 16.8567C20.512 16.6791 20.1305 16.7471 20.1992 16.9463C20.284 17.0743 20.5744 17.0719 20.5608 16.8567ZM8.69451 18.568C8.64705 18.568 8.60065 18.5821 8.56119 18.6085C8.52172 18.6348 8.49096 18.6723 8.4728 18.7162C8.45463 18.76 8.44988 18.8083 8.45914 18.8549C8.4684 18.9014 8.49126 18.9442 8.52482 18.9777C8.55838 19.0113 8.60114 19.0342 8.64769 19.0434C8.69425 19.0527 8.7425 19.0479 8.78635 19.0298C8.8302 19.0116 8.86768 18.9808 8.89405 18.9414C8.92042 18.9019 8.93449 18.8555 8.93449 18.808C8.93449 18.7444 8.90921 18.6833 8.8642 18.6383C8.8192 18.5933 8.75816 18.568 8.69451 18.568ZM16.8659 17.0743V13.8742C16.9003 13.7142 17.0339 13.6574 17.0763 13.5078C16.7593 13.3908 16.4593 13.2321 16.1844 13.0357V18.2232H17.9146C17.9258 17.8232 17.6002 17.32 17.5474 16.8087C17.3555 16.9303 17.2699 17.1591 16.8659 17.0703" fill="#007A3D"/>
</g>
</g>
<defs>
<clipPath id="clip0_583_8215">
<rect width="32" height="31.9976" fill="white" transform="translate(0 0.0078125)"/>
</clipPath>
</defs>
</svg>
