<svg width="28" height="28" viewBox="0 0 28 28" fill="none" xmlns="http://www.w3.org/2000/svg">
<path d="M14.0325 3.50049C13.4866 3.50049 12.9071 3.6687 12.2623 4.01451L4.31045 8.95568C3.79409 9.45128 3.5 10.1628 3.5 10.9257V21.873C3.5 23.3218 4.573 24.5005 5.89189 24.5005H22.1081C23.427 24.5005 24.5 23.3218 24.5 21.873V10.9257C24.5 10.1628 24.2059 9.45128 23.6895 8.95568L15.7228 4.00525C15.125 3.66565 14.5719 3.50049 14.0325 3.50049ZM14.0325 2.00049C14.8404 2.00049 15.6487 2.23308 16.4908 2.71651L24.5989 7.75475C25.4941 8.54093 26 9.69399 26 10.9257V21.873C26 24.153 24.2616 26.0005 22.1081 26.0005H5.89189C3.73838 26.0005 2 24.153 2 21.873V10.9257C2 9.69399 2.50595 8.54093 3.40108 7.75475L11.5092 2.71651C12.3738 2.24575 13.203 2.00049 14.0325 2.00049Z" fill="#111111"/>
<path d="M8.99902 21H18.999" stroke="#111111" stroke-width="1.5" stroke-linecap="round"/>
</svg>
