<svg width="36" height="36" viewBox="0 0 36 36" fill="none" xmlns="http://www.w3.org/2000/svg">
<path d="M18.0736 25.395C18.0736 25.395 8.83163 24.73 4.95963 20.883C4.76469 20.6916 4.62375 20.452 4.55105 20.1887C4.47836 19.9253 4.47649 19.6474 4.54563 19.383C5.33063 16.371 6.61163 5.72703 18.0736 5.79303C29.4266 5.72703 30.8956 16.415 31.4676 19.406C31.517 19.6605 31.5019 19.9234 31.4236 20.1705C31.3454 20.4177 31.2065 20.6413 31.0196 20.821C29.6466 22.145 26.6746 25.107 18.0736 25.395Z" fill="#111111"/>
<path d="M16.8444 32.6339C14.9211 32.399 13.0907 31.6726 11.5296 30.5249C9.96845 29.3771 8.72926 27.8466 7.93138 26.0809C7.7278 26.2339 7.48989 26.3349 7.23838 26.3749C6.04638 26.5589 4.87438 25.2749 4.62238 23.5079C4.37038 21.7409 5.13238 20.1609 6.32238 19.9779C6.41432 19.9637 6.50741 19.9584 6.60038 19.9619C6.61484 18.9441 6.74161 17.9309 6.97838 16.9409C7.00571 16.5516 7.04305 16.1516 7.09038 15.7409C7.84138 9.26991 13.9744 7.14891 16.4004 6.55991C17.0543 6.39909 17.7322 6.35944 18.4004 6.44291C20.2881 6.66349 22.1042 7.29683 23.7198 8.29799C25.3353 9.29915 26.7107 10.6436 27.7484 12.2359C28.3256 13.1567 28.6489 14.2138 28.6854 15.2999C28.7024 15.7569 28.7144 16.2999 28.7134 16.9079C28.9334 17.8167 29.0604 18.7455 29.0924 19.6799C29.2838 19.6334 29.4825 19.6246 29.6774 19.6539C30.8704 19.8379 31.6314 21.4179 31.3774 23.1849C31.1234 24.9519 29.9544 26.2349 28.7624 26.0519C28.4651 26.0025 28.1877 25.8701 27.9624 25.6699C27.1485 27.6849 25.7671 29.4202 23.9859 30.6651C22.2047 31.91 20.1003 32.611 17.9284 32.6829H17.8284C17.4998 32.6835 17.1713 32.6671 16.8444 32.6339Z" fill="#FAD7C4"/>
<path d="M12.3389 21.6329C12.3389 20.7389 12.7729 20.0129 13.3099 20.0129C13.8469 20.0129 14.2809 20.7379 14.2809 21.6329C14.2809 22.5279 13.8469 23.2529 13.3099 23.2529C12.7729 23.2529 12.3389 22.5279 12.3389 21.6329Z" fill="black"/>
<path d="M21.7227 21.6329C21.7227 20.7389 22.1567 20.0129 22.6937 20.0129C23.2307 20.0129 23.6637 20.7379 23.6637 21.6329C23.6637 22.5279 23.2297 23.2529 22.6937 23.2529C22.1577 23.2529 21.7227 22.5279 21.7227 21.6329Z" fill="black"/>
<path d="M5.11931 20.5501C5.41031 17.0131 7.04931 6.94015 18.2423 6.95415C18.2423 6.95415 30.4653 5.97015 31.1673 20.8201C31.1666 20.9104 31.1383 20.9983 31.0861 21.0719C31.0339 21.1455 30.9604 21.2014 30.8755 21.2319C30.7906 21.2624 30.6983 21.2662 30.6112 21.2426C30.5241 21.219 30.4463 21.1693 30.3883 21.1001C28.8583 19.3101 24.8673 17.6941 18.2413 17.6941C11.4663 17.6941 7.51931 19.2301 5.87631 20.8671C5.81477 20.9311 5.73531 20.975 5.64837 20.993C5.56143 21.011 5.47108 21.0023 5.38919 20.968C5.30729 20.9337 5.23769 20.8755 5.18952 20.8009C5.14136 20.7263 5.11688 20.6389 5.11931 20.5501Z" fill="#111111"/>
<path opacity="0.5" d="M9.33887 25.0129C9.33887 24.4609 10.2389 24.0129 11.3389 24.0129C12.4389 24.0129 13.3389 24.4609 13.3389 25.0129C13.3389 25.5649 12.4389 26.0129 11.3389 26.0129C10.2389 26.0129 9.33887 25.5649 9.33887 25.0129Z" fill="#FF7B7B"/>
<path opacity="0.5" d="M22.3389 25.0129C22.3389 24.4609 23.2389 24.0129 24.3389 24.0129C25.4389 24.0129 26.3389 24.4609 26.3389 25.0129C26.3389 25.5649 25.4389 26.0129 24.3389 26.0129C23.2389 26.0129 22.3389 25.5649 22.3389 25.0129Z" fill="#FF7B7B"/>
<path d="M5.87725 15.4706C7.1473 16.7408 7.60802 15.9768 7.60802 15.9768L9.47761 13.3045C10.1048 12.2074 11.0763 11.3478 12.2417 10.859C12.9352 10.5621 13.6878 10.4291 14.441 10.4702C15.1943 10.5114 15.9279 10.7257 16.5849 11.0963L24.3038 15.5528C24.3038 15.5528 25.699 16.3583 27.1515 13.8425C28.897 10.8193 26.2217 7.93293 23.8973 6.59093C21.5729 5.24893 19.4204 4.67709 16.8633 5.88423C15.2325 5.58514 13.5491 5.79472 12.0415 6.48456C10.5338 7.1744 9.27468 8.31114 8.43483 9.74069C5.52933 14.7732 5.87725 15.4706 5.87725 15.4706Z" fill="#111111"/>
<path d="M11.3019 16.459C11.3127 16.4158 11.3377 16.3774 11.3728 16.3499C11.408 16.3225 11.4513 16.3076 11.4959 16.3076C11.5404 16.3076 11.5837 16.3225 11.6189 16.3499C11.654 16.3774 11.679 16.4158 11.6899 16.459L12.4339 19.434C12.4413 19.4635 12.4419 19.4943 12.4357 19.5241C12.4294 19.5539 12.4164 19.5819 12.3977 19.6059C12.379 19.6299 12.3551 19.6494 12.3277 19.6627C12.3003 19.6761 12.2703 19.683 12.2399 19.683H10.7519C10.7214 19.683 10.6914 19.6761 10.664 19.6627C10.6366 19.6494 10.6127 19.6299 10.594 19.6059C10.5753 19.5819 10.5623 19.5539 10.556 19.5241C10.5498 19.4943 10.5504 19.4635 10.5579 19.434L11.3019 16.459Z" fill="#FAD7C4"/>
<path d="M24.3019 16.459C24.3127 16.4158 24.3377 16.3774 24.3728 16.3499C24.408 16.3225 24.4513 16.3076 24.4959 16.3076C24.5404 16.3076 24.5837 16.3225 24.6189 16.3499C24.654 16.3774 24.679 16.4158 24.6899 16.459L25.4339 19.434C25.4413 19.4635 25.4419 19.4943 25.4357 19.5241C25.4294 19.5539 25.4164 19.5819 25.3977 19.6059C25.379 19.6299 25.3551 19.6494 25.3277 19.6627C25.3003 19.6761 25.2703 19.683 25.2399 19.683H23.7519C23.7214 19.683 23.6914 19.6761 23.664 19.6627C23.6366 19.6494 23.6127 19.6299 23.594 19.6059C23.5753 19.5819 23.5623 19.5539 23.556 19.5241C23.5498 19.4943 23.5504 19.4635 23.5579 19.434L24.3019 16.459Z" fill="#FAD7C4"/>
<path d="M17.8019 15.959C17.8127 15.9158 17.8377 15.8774 17.8728 15.8499C17.908 15.8225 17.9513 15.8076 17.9959 15.8076C18.0404 15.8076 18.0837 15.8225 18.1189 15.8499C18.154 15.8774 18.179 15.9158 18.1899 15.959L18.9339 18.934C18.9413 18.9635 18.9419 18.9943 18.9357 19.0241C18.9294 19.0539 18.9164 19.0819 18.8977 19.1059C18.879 19.1299 18.8551 19.1494 18.8277 19.1627C18.8003 19.1761 18.7703 19.183 18.7399 19.183H17.2519C17.2214 19.183 17.1914 19.1761 17.164 19.1627C17.1366 19.1494 17.1127 19.1299 17.094 19.1059C17.0753 19.0819 17.0623 19.0539 17.056 19.0241C17.0498 18.9943 17.0504 18.9635 17.0579 18.934L17.8019 15.959Z" fill="#FAD7C4"/>
</svg>
