<svg width="36" height="36" viewBox="0 0 36 36" fill="none" xmlns="http://www.w3.org/2000/svg">
<path d="M7.6464 11.2179L7.34572 11.5121C7.22982 11.6288 7.09152 11.7209 6.93912 11.7828C6.78673 11.8447 6.62339 11.8751 6.45894 11.8722C6.29449 11.8693 6.13232 11.8332 5.98218 11.766C5.83205 11.6988 5.69705 11.602 5.58531 11.4813C5.35537 11.2346 5.23025 10.9082 5.23637 10.5709C5.24248 10.2337 5.37935 9.91205 5.6181 9.67382L8.60338 6.71607C8.7192 6.59923 8.85749 6.50706 9.00989 6.4451C9.1623 6.38315 9.32567 6.35269 9.49017 6.35557C9.65466 6.35845 9.81687 6.39461 9.96701 6.46187C10.1172 6.52912 10.2521 6.62608 10.3638 6.7469C10.5937 6.99364 10.7188 7.32005 10.7127 7.65727C10.7066 7.99449 10.5697 8.31615 10.331 8.55439L10.0355 8.84716L12.0195 10.9641L9.63208 13.3279L7.6464 11.2179Z" fill="#0C629C"/>
<path d="M6.13836 20.307C6.1045 16.9754 7.39526 13.7667 9.7268 11.3866C12.0583 9.00646 15.2397 7.64982 18.5714 7.61499C21.903 7.64982 25.0844 9.00646 27.4159 11.3866C29.7474 13.7667 31.0382 16.9754 31.0044 20.307C31.0385 23.6388 29.7478 26.8477 27.4163 29.2281C25.0847 31.6084 21.9032 32.9652 18.5714 33C15.2396 32.9652 12.058 31.6084 9.72644 29.2281C7.39488 26.8477 6.10423 23.6388 6.13836 20.307Z" fill="#6EC4F6"/>
<path d="M8.39996 20.3081C8.37196 17.5821 9.42787 14.9567 11.3354 13.0092C13.243 11.0617 15.846 9.95159 18.572 9.9231C21.2981 9.95133 23.9013 11.0613 25.8091 13.0088C27.7169 14.9564 28.7729 17.582 28.745 20.3081C28.7727 23.034 27.7165 25.6594 25.8088 27.6067C23.901 29.554 21.2979 30.6639 18.572 30.6921C15.8462 30.6636 13.2433 29.5537 11.3358 27.6064C9.42825 25.6591 8.37223 23.0339 8.39996 20.3081Z" fill="#EFF9FF"/>
<path d="M26.0257 21.4621C26.663 21.4621 27.1797 20.9454 27.1797 20.3081C27.1797 19.6707 26.663 19.1541 26.0257 19.1541H15.8037C15.1664 19.1541 14.6497 19.6707 14.6497 20.3081C14.6497 20.9454 15.1664 21.4621 15.8037 21.4621H26.0257Z" fill="#0C629C"/>
<path d="M16.3117 20.307C16.3085 20.007 16.3645 19.7093 16.4764 19.4309C16.5883 19.1525 16.754 18.8989 16.964 18.6846C17.1739 18.4702 17.4241 18.2994 17.7001 18.1817C17.9761 18.0641 18.2726 18.002 18.5727 17.999C18.8726 18.0022 19.169 18.0643 19.4449 18.182C19.7208 18.2997 19.9708 18.4706 20.1807 18.6849C20.3906 18.8992 20.5561 19.1528 20.668 19.4311C20.7799 19.7094 20.8358 20.0071 20.8327 20.307C20.8388 20.9126 20.6041 21.4959 20.1803 21.9285C19.7565 22.3611 19.1782 22.6077 18.5727 22.614C18.2727 22.611 17.9763 22.549 17.7003 22.4314C17.4244 22.3138 17.1743 22.1431 16.9643 21.9288C16.7544 21.7146 16.5887 21.4611 16.4767 21.1828C16.3647 20.9046 16.3086 20.607 16.3117 20.307Z" fill="#2B9CDE"/>
<path d="M20.8325 3H16.3115V8.769H20.8325V3Z" fill="#6EC4F6"/>
<path d="M22.4909 3H14.6499C13.6939 3 12.9189 3.775 12.9189 4.731C12.9189 5.687 13.6939 6.462 14.6499 6.462H22.4909C23.4469 6.462 24.2219 5.687 24.2219 4.731C24.2219 3.775 23.4469 3 22.4909 3Z" fill="#2B9CDE"/>
</svg>
