<svg width="28" height="28" viewBox="0 0 28 28" fill="none" xmlns="http://www.w3.org/2000/svg">
<path d="M21 4H8C5.79086 4 4 5.79086 4 8V20C4 22.2091 5.79086 24 8 24H21C23.2091 24 25 22.2091 25 20V8C25 5.79086 23.2091 4 21 4Z" stroke="#111111" stroke-width="1.2" stroke-linecap="round" stroke-linejoin="round"/>
<path d="M6.71875 10.2227V17.9997H8.07175V12.6287H8.13575L10.2988 17.9787H11.2987L13.4537 12.6497H13.5288V17.9997H14.8717V10.2227H13.1528L10.8427 15.8727H10.7428L8.43275 10.2227H6.71875ZM15.5547 10.2227L18.3907 15.0887V17.9997H19.7907V15.0887L22.6158 10.2227H21.0328L19.1207 13.6597H19.0457L17.1327 10.2227H15.5547Z" fill="#111111"/>
</svg>
