<svg width="24" height="24" viewBox="0 0 24 24" fill="none" xmlns="http://www.w3.org/2000/svg">
<path d="M17.2093 3.79812C16.4473 3.31938 15.5267 3.16223 14.649 3.36111C13.7714 3.55999 13.0084 4.09871 12.5273 4.85915L12.2153 5.35915L11.9032 4.85915C11.6656 4.4819 11.356 4.15513 10.9921 3.89761C10.6281 3.64008 10.217 3.45684 9.78215 3.3583C9.34733 3.25976 8.89735 3.24792 8.45793 3.32339C8.01852 3.39886 7.59827 3.56015 7.22124 3.79812C6.83389 4.0267 6.4974 4.33203 6.23235 4.6954C5.96729 5.05876 5.77928 5.4725 5.67992 5.91116C5.58056 6.34981 5.57192 6.80412 5.65453 7.24624C5.73713 7.68836 5.90922 8.10895 6.16026 8.48214C6.16026 8.48214 12.1673 15.1211 12.2143 15.1211C12.2613 15.1211 18.2683 8.48214 18.2683 8.48214C18.5346 8.11406 18.7194 7.69349 18.8105 7.24844C18.9016 6.80338 18.8969 6.34406 18.7967 5.90096C18.6966 5.45786 18.5032 5.04112 18.2295 4.67855C17.9558 4.31598 17.608 4.01586 17.2093 3.79812Z" fill="#DF5856"/>
<path d="M12.926 22.728V19.302C12.8769 18.8116 12.9585 18.3169 13.1626 17.8683C13.3667 17.4197 13.6861 17.0331 14.0881 16.748C15.5483 15.829 16.8767 14.7159 18.037 13.439C19.257 11.988 19.7211 12.858 19.7211 12.858C20.1115 11.9571 20.3283 10.9905 20.36 10.009C20.36 8.55603 20.766 8.20898 21.192 8.20898C21.618 8.20898 22.006 8.76901 22.006 10.109C22.0657 11.715 21.9158 13.3218 21.5601 14.889C21.0443 16.27 20.1927 17.5007 19.082 18.47C18.037 19.34 17.1091 19.845 17.1091 20.755V22.728" fill="#F3DAC0"/>
<path d="M11.072 22.7281V19.3021C11.1212 18.8118 11.0398 18.3172 10.8359 17.8686C10.632 17.42 10.3128 17.0334 9.91102 16.7481C8.45083 15.8291 7.1223 14.716 5.96198 13.4391C4.74198 11.9881 4.27796 12.8582 4.27796 12.8582C3.88802 11.9584 3.67126 10.9932 3.63898 10.0131C3.63898 8.56012 3.23301 8.21313 2.80701 8.21313C2.38101 8.21313 1.99299 8.77316 1.99299 10.1132C1.93329 11.7191 2.0832 13.3259 2.43897 14.8931C2.95464 16.2741 3.80633 17.5049 4.917 18.4741C5.962 19.3441 6.88996 19.8492 6.88996 20.7592V22.7321" fill="#F3DAC0"/>
</svg>
