<svg width="36" height="36" viewBox="0 0 36 36" fill="none" xmlns="http://www.w3.org/2000/svg">
<path d="M18.0006 20.0681C19.7685 20.0682 21.4805 20.6868 22.8403 21.8166C24.2 22.9464 25.1217 24.5162 25.4456 26.2541C25.5127 26.6404 25.7134 26.9908 26.0126 27.2442C26.3118 27.4975 26.6906 27.6376 27.0826 27.6401H31.8456C32.0801 27.6404 32.3121 27.5912 32.5262 27.4956C32.7404 27.4001 32.9319 27.2603 33.0883 27.0856C33.2447 26.9108 33.3623 26.7049 33.4336 26.4815C33.5048 26.2581 33.528 26.0221 33.5016 25.7891C33.0471 21.9977 31.2187 18.5045 28.3625 15.9702C25.5062 13.4359 21.8201 12.0364 18.0016 12.0364C14.1831 12.0364 10.4971 13.4359 7.64081 15.9702C4.78454 18.5045 2.95618 21.9977 2.50163 25.7891C2.47544 26.0221 2.49875 26.258 2.57004 26.4813C2.64134 26.7047 2.759 26.9105 2.91533 27.0852C3.07166 27.26 3.26314 27.3997 3.47722 27.4953C3.6913 27.5909 3.92317 27.6403 4.15763 27.6401H9.51163C9.75278 27.6384 9.98481 27.5477 10.1633 27.3855C10.3417 27.2233 10.454 27.001 10.4786 26.7611C10.6941 24.9175 11.5791 23.2172 12.9656 21.9832C14.3521 20.7491 16.1435 20.0673 17.9996 20.0671" fill="#D10F0F"/>
<path d="M31.8443 28.1319H27.0813C26.5757 28.1283 26.0873 27.9478 25.7008 27.6218C25.3143 27.2957 25.0541 26.8447 24.9653 26.3469C24.6533 24.6819 23.7551 23.1838 22.4335 22.1242C21.1118 21.0645 19.4543 20.5135 17.7613 20.5709C16.0683 20.6284 14.4519 21.2905 13.2052 22.4373C11.9584 23.584 11.1638 25.1396 10.9653 26.8219C10.9263 27.1807 10.7564 27.5126 10.4883 27.7543C10.2201 27.9959 9.87231 28.1303 9.51134 28.1319H4.15534C3.85152 28.1323 3.55105 28.0685 3.27369 27.9445C2.99633 27.8205 2.74837 27.6392 2.54613 27.4124C2.34388 27.1857 2.19193 26.9188 2.10027 26.6291C2.00861 26.3394 1.97933 26.0337 2.01434 25.7319C2.48317 21.8218 4.36882 18.2192 7.31455 15.6056C10.2603 12.9919 14.0618 11.5486 17.9998 11.5486C21.9379 11.5486 25.7394 12.9919 28.6851 15.6056C31.6309 18.2192 33.5165 21.8218 33.9853 25.7319C34.0203 26.0317 33.9914 26.3354 33.9006 26.6233C33.8097 26.9111 33.659 27.1764 33.4583 27.4019C33.2557 27.6298 33.0072 27.8123 32.729 27.9372C32.4508 28.0622 32.1493 28.1268 31.8443 28.1269M18.0003 19.5809C19.8825 19.5798 21.7056 20.2379 23.1533 21.4407C24.6009 22.6436 25.5817 24.3154 25.9253 26.1659C25.9725 26.4395 26.1141 26.688 26.3255 26.8681C26.5369 27.0483 26.8046 27.1487 27.0823 27.1519H31.8453C32.0127 27.1516 32.1782 27.1157 32.3307 27.0468C32.4833 26.9778 32.6195 26.8773 32.7303 26.7519C32.8404 26.6299 32.9229 26.4857 32.9724 26.329C33.0219 26.1724 33.0373 26.0069 33.0173 25.8439C32.5789 22.1693 30.8084 18.783 28.041 16.3262C25.2736 13.8694 21.7015 12.5125 18.0008 12.5125C14.3002 12.5125 10.728 13.8694 7.96065 16.3262C5.19326 18.783 3.42275 22.1693 2.98434 25.8439C2.96429 26.0069 2.97954 26.1724 3.02906 26.3291C3.07858 26.4858 3.16121 26.6299 3.27134 26.7519C3.382 26.8773 3.51801 26.9778 3.6704 27.0468C3.82279 27.1157 3.98808 27.1515 4.15534 27.1519H9.51134C9.63237 27.1495 9.74832 27.1028 9.83717 27.0206C9.92603 26.9383 9.9816 26.8264 9.99334 26.7059C10.2211 24.7426 11.1629 22.9317 12.6394 21.6178C14.1158 20.304 16.0239 19.579 18.0003 19.5809Z" fill="#111111"/>
<path d="M17.653 7.77897L14.991 22.489C14.8938 23.026 15.0132 23.5797 15.323 24.029L17.709 27.489C17.7415 27.536 17.7849 27.5744 17.8355 27.601C17.8861 27.6275 17.9424 27.6414 17.9995 27.6414C18.0567 27.6414 18.113 27.6275 18.1636 27.601C18.2142 27.5744 18.2576 27.536 18.29 27.489L20.673 24.031C20.9836 23.5812 21.1036 23.0269 21.007 22.489L18.348 7.77897C18.3335 7.6974 18.2907 7.62356 18.2271 7.57037C18.1636 7.51718 18.0834 7.48804 18.0005 7.48804C17.9177 7.48804 17.8374 7.51718 17.7739 7.57037C17.7104 7.62356 17.6676 7.6974 17.653 7.77897Z" fill="white"/>
<path d="M18.0039 28.1279C17.8678 28.128 17.7337 28.095 17.6131 28.0318C17.4926 27.9685 17.3892 27.8769 17.3119 27.7649L14.9239 24.3059C14.7337 24.0318 14.5995 23.7229 14.529 23.3969C14.4584 23.0708 14.453 22.7341 14.5129 22.4059L17.1719 7.69189C17.2071 7.49804 17.3092 7.32268 17.4604 7.19641C17.6116 7.07014 17.8024 7.00098 17.9994 7.00098C18.1964 7.00098 18.3872 7.07014 18.5384 7.19641C18.6896 7.32268 18.7917 7.49804 18.8269 7.69189L21.4859 22.4009C21.5458 22.7291 21.5403 23.0658 21.4698 23.3919C21.3992 23.7179 21.2651 24.0268 21.0749 24.3009L18.6919 27.7589C18.6146 27.8709 18.5112 27.9625 18.3907 28.0258C18.2701 28.089 18.136 28.122 17.9999 28.1219M18.0039 8.60089L15.4729 22.5759C15.4357 22.7791 15.439 22.9877 15.4826 23.1897C15.5262 23.3917 15.6092 23.5831 15.7269 23.7529L17.9999 27.0529L20.2729 23.7529C20.3906 23.5831 20.4736 23.3917 20.5172 23.1897C20.5608 22.9877 20.5641 22.7791 20.5269 22.5759L18.0039 8.60089Z" fill="#111111"/>
</svg>
