<svg width="24" height="24" viewBox="0 0 24 24" fill="none" xmlns="http://www.w3.org/2000/svg">
<mask id="mask0_542_6618" style="mask-type:luminance" maskUnits="userSpaceOnUse" x="2" y="2" width="20" height="20">
<path d="M21.25 2.75V21.25H2.75V2.75H21.25Z" fill="white" stroke="white"/>
</mask>
<g mask="url(#mask0_542_6618)">
<path d="M16 12C16 12.7911 15.7654 13.5645 15.3259 14.2223C14.8864 14.8801 14.2617 15.3928 13.5308 15.6955C12.7998 15.9983 11.9956 16.0775 11.2197 15.9231C10.4437 15.7688 9.731 15.3878 9.17159 14.8284C8.61218 14.269 8.23122 13.5563 8.07688 12.7804C7.92254 12.0044 8.00175 11.2002 8.3045 10.4693C8.60725 9.73836 9.11994 9.11364 9.77774 8.67412C10.4355 8.23459 11.2089 8 12 8C13.0609 8 14.0783 8.42142 14.8284 9.17157C15.5786 9.92172 16 10.9391 16 12ZM16 12V13.5C16 14.163 16.2634 14.7989 16.7323 15.2678C17.2011 15.7366 17.837 16 18.5 16C19.1631 16 19.7989 15.7366 20.2678 15.2678C20.7366 14.7989 21 14.163 21 13.5V12C21.006 9.97571 20.3323 8.00799 19.087 6.41207C17.8417 4.81615 16.0968 3.68438 14.1317 3.19809C12.1667 2.71179 10.0953 2.89909 8.24943 3.73C6.40352 4.56091 4.88991 5.98733 3.95108 7.78076C3.01224 9.57418 2.70252 11.6308 3.07151 13.6212C3.44051 15.6116 4.46688 17.4205 5.9862 18.7582C7.50552 20.0959 9.42986 20.885 11.4509 20.999C13.472 21.113 15.4729 20.5454 17.133 19.387" stroke="#111111" stroke-width="1.5" stroke-linecap="round" stroke-linejoin="round"/>
</g>
</svg>
