<svg width="28" height="28" viewBox="0 0 28 28" fill="none" xmlns="http://www.w3.org/2000/svg">
<path d="M14 4C16.209 4 18 6.239 18 9V12C18 14.761 16 17 14 17C12 17 10 14.761 10 12V9C10 6.239 11.791 4 14 4Z" stroke="#3CBD61" stroke-width="1.25" stroke-linecap="round"/>
<path d="M8 9.00632H20C20.4854 8.9662 20.9672 9.11832 21.3413 9.42985C21.7155 9.74138 21.9521 10.1874 22 10.6716L23 21.4932C22.928 22.2194 22.5731 22.8882 22.0118 23.3554C21.4506 23.8226 20.7281 24.0507 20 23.9905H8C7.27194 24.0507 6.54938 23.8226 5.98816 23.3554C5.42694 22.8882 5.07204 22.2194 5 21.4932L6 10.6716C6.04794 10.1874 6.28451 9.74138 6.65867 9.42985C7.03282 9.11832 7.51458 8.9662 8 9.00632Z" fill="#3CBD61" stroke="#3CBD61" stroke-width="1.25" stroke-linecap="round" stroke-linejoin="round"/>
</svg>
