<svg width="24" height="24" viewBox="0 0 24 24" fill="none" xmlns="http://www.w3.org/2000/svg">
<path d="M12 22C13.9778 22 15.9112 21.4135 17.5557 20.3147C19.2002 19.2159 20.4819 17.6541 21.2388 15.8269C21.9957 13.9996 22.1937 11.9889 21.8079 10.0491C21.422 8.10927 20.4696 6.32746 19.0711 4.92894C17.6725 3.53041 15.8907 2.578 13.9509 2.19215C12.0111 1.8063 10.0004 2.00434 8.17317 2.76121C6.3459 3.51809 4.78412 4.79983 3.6853 6.44432C2.58649 8.08881 2 10.0222 2 12C2 14.6522 3.05357 17.1957 4.92893 19.0711C6.8043 20.9464 9.34784 22 12 22Z" stroke="#111111" stroke-width="1.5" stroke-linecap="round" stroke-linejoin="round"/>
<path d="M18.3105 12H17.8105" stroke="#111111" stroke-width="1.5" stroke-linecap="round" stroke-linejoin="round"/>
<path d="M6.18945 12H5.68945" stroke="#111111" stroke-width="1.5" stroke-linecap="round" stroke-linejoin="round"/>
<path d="M16.4614 7.53906L16.1074 7.89306" stroke="#111111" stroke-width="1.5" stroke-linecap="round" stroke-linejoin="round"/>
<path d="M7.53906 7.53906L7.89306 7.89306" stroke="#111111" stroke-width="1.5" stroke-linecap="round" stroke-linejoin="round"/>
<path d="M12 5.68945V6.18945" stroke="#111111" stroke-width="1.5" stroke-linecap="round" stroke-linejoin="round"/>
<path d="M14.4139 12.8429H9.91394C9.22358 12.8429 8.66394 13.4025 8.66394 14.0929V16.5929C8.66394 17.2833 9.22358 17.8429 9.91394 17.8429H14.4139C15.1043 17.8429 15.6639 17.2833 15.6639 16.5929V14.0929C15.6639 13.4025 15.1043 12.8429 14.4139 12.8429Z" stroke="#111111" stroke-width="1.5" stroke-linecap="round" stroke-linejoin="round"/>
<path d="M10.1449 12.583V11.333C10.1803 10.8366 10.4103 10.3742 10.7849 10.0465C11.1594 9.71875 11.6482 9.55218 12.1449 9.58296C12.6416 9.55218 13.1304 9.71875 13.5049 10.0465C13.8795 10.3742 14.1095 10.8366 14.1449 11.333V12.583" stroke="#111111" stroke-width="1.5" stroke-linecap="round" stroke-linejoin="round"/>
</svg>
