<svg width="36" height="36" viewBox="0 0 36 36" fill="none" xmlns="http://www.w3.org/2000/svg">
<path d="M16 31.004C23.1797 31.004 29 25.1828 29 18.002C29 10.8212 23.1797 5 16 5C8.8203 5 3 10.8212 3 18.002C3 25.1828 8.8203 31.004 16 31.004Z" fill="#0C629C"/>
<path d="M9 18.258C9 15.548 10.322 14 12.434 14C13.1006 13.9339 13.7683 14.1139 14.3113 14.506C14.8543 14.8982 15.2351 15.4754 15.382 16.129H14.059C13.9568 15.7862 13.7391 15.4893 13.4429 15.2888C13.1467 15.0883 12.7902 14.9965 12.434 15.029C11.075 15.029 10.286 16.083 10.286 17.835H10.386C10.6518 17.494 10.9947 17.2209 11.3865 17.0382C11.7784 16.8555 12.2079 16.7684 12.64 16.784C12.995 16.76 13.3512 16.8078 13.6873 16.9246C14.0235 17.0413 14.3326 17.2245 14.5964 17.4634C14.8602 17.7022 15.0731 17.9917 15.2225 18.3147C15.3719 18.6376 15.4547 18.9873 15.466 19.343C15.466 20.849 14.217 22.01 12.325 22C10.7 21.989 9 21.139 9 18.258ZM14.168 19.365C14.1579 19.1383 14.1024 18.9161 14.0048 18.7113C13.9071 18.5066 13.7693 18.3235 13.5996 18.1731C13.4298 18.0226 13.2315 17.9078 13.0165 17.8355C12.8015 17.7631 12.5742 17.7347 12.348 17.752C11.882 17.7211 11.4224 17.8737 11.0674 18.1771C10.7123 18.4806 10.4901 18.9108 10.448 19.376C10.4826 19.8382 10.6974 20.2685 11.0459 20.574C11.3945 20.8796 11.8492 21.0362 12.312 21.01C12.5425 21.0269 12.7741 20.9975 12.9931 20.9235C13.2121 20.8495 13.4141 20.7324 13.5871 20.579C13.7601 20.4257 13.9006 20.2393 14.0004 20.0308C14.1001 19.8223 14.1571 19.5959 14.168 19.365Z" fill="white" stroke="white" stroke-width="0.5" stroke-linecap="round" stroke-linejoin="round"/>
<path d="M16.8984 19.8599H18.1984C18.2906 20.2217 18.5111 20.5378 18.8188 20.7493C19.1265 20.9608 19.5006 21.0534 19.8714 21.0099C20.0989 21.0308 20.3283 21.0051 20.5455 20.9343C20.7627 20.8635 20.9632 20.7491 21.1346 20.5981C21.3061 20.447 21.4449 20.2626 21.5425 20.0561C21.6401 19.8495 21.6946 19.6252 21.7024 19.3969C21.692 19.1626 21.634 18.9329 21.532 18.7218C21.4301 18.5106 21.2862 18.3224 21.1093 18.1686C20.9323 18.0147 20.7259 17.8984 20.5027 17.8268C20.2794 17.7552 20.0439 17.7297 19.8104 17.7519C19.5156 17.7196 19.2176 17.7663 18.9468 17.8872C18.676 18.0081 18.4422 18.1988 18.2694 18.4399H17.0074L17.5784 14.1099H22.5524V15.1179H18.6824L18.3904 17.3009H18.4764C18.9509 16.9434 19.5326 16.7576 20.1264 16.7739C20.4877 16.7446 20.8512 16.7895 21.1945 16.9057C21.5378 17.022 21.8537 17.2071 22.1229 17.4498C22.3921 17.6925 22.6089 17.9877 22.76 18.3172C22.9111 18.6466 22.9932 19.0035 23.0014 19.3659C23.0014 20.9029 21.7014 21.9999 19.8724 21.9999C18.2104 21.9999 16.9604 21.0999 16.8994 19.8609" fill="white"/>
<path d="M16.8984 19.8599H18.1984C18.2906 20.2217 18.5111 20.5378 18.8188 20.7493C19.1265 20.9608 19.5006 21.0534 19.8714 21.0099C20.0989 21.0308 20.3283 21.0051 20.5455 20.9343C20.7627 20.8635 20.9632 20.7491 21.1346 20.5981C21.3061 20.447 21.4449 20.2626 21.5425 20.0561C21.6401 19.8495 21.6946 19.6252 21.7024 19.3969C21.692 19.1626 21.634 18.9329 21.532 18.7218C21.4301 18.5106 21.2862 18.3224 21.1093 18.1686C20.9323 18.0147 20.7259 17.8984 20.5027 17.8268C20.2794 17.7552 20.0439 17.7297 19.8104 17.7519C19.5156 17.7196 19.2176 17.7663 18.9468 17.8872C18.676 18.0081 18.4422 18.1988 18.2694 18.4399H17.0074L17.5784 14.1099H22.5524V15.1179H18.6824L18.3904 17.3009H18.4764C18.9509 16.9434 19.5326 16.7576 20.1264 16.7739C20.4877 16.7446 20.8512 16.7895 21.1945 16.9057C21.5378 17.022 21.8537 17.2071 22.1229 17.4498C22.3921 17.6925 22.6089 17.9877 22.76 18.3172C22.9111 18.6466 22.9932 19.0035 23.0014 19.3659C23.0014 20.9029 21.7014 21.9999 19.8724 21.9999C18.2104 21.9999 16.9604 21.0999 16.8994 19.8609" stroke="white" stroke-width="0.5" stroke-linecap="round" stroke-linejoin="round"/>
<path d="M34.002 26C34.002 27.3845 33.5914 28.7378 32.8222 29.889C32.0531 31.0401 30.9598 31.9373 29.6807 32.4672C28.4017 32.997 26.9942 33.1356 25.6363 32.8655C24.2785 32.5954 23.0312 31.9287 22.0522 30.9497C21.0732 29.9708 20.4066 28.7235 20.1365 27.3656C19.8664 26.0078 20.005 24.6003 20.5348 23.3212C21.0646 22.0421 21.9618 20.9489 23.113 20.1797C24.2641 19.4105 25.6175 19 27.002 19C28.8585 19 30.6389 19.7375 31.9517 21.0503C33.2645 22.363 34.002 24.1435 34.002 26Z" fill="#F2690F"/>
<path d="M26.4613 29.3481V24.0251L25.2073 25.2941C25.157 25.3455 25.0967 25.3862 25.0302 25.4137C24.9637 25.4412 24.8923 25.4549 24.8203 25.4541C24.6783 25.4534 24.542 25.3983 24.4393 25.3001C24.3879 25.2497 24.347 25.1896 24.3189 25.1233C24.2907 25.057 24.276 24.9858 24.2754 24.9138C24.2748 24.8418 24.2885 24.7704 24.3156 24.7037C24.3427 24.637 24.3827 24.5763 24.4333 24.5251L26.5863 22.3431C26.688 22.2408 26.8259 22.1828 26.9701 22.1817C27.1143 22.1805 27.2531 22.2364 27.3563 22.3371L29.5663 24.5201C29.6668 24.622 29.7233 24.7594 29.7235 24.9025C29.7237 25.0457 29.6677 25.1832 29.5675 25.2854C29.4674 25.3877 29.3311 25.4465 29.1879 25.4493C29.0448 25.452 28.9063 25.3985 28.8023 25.3001L27.5503 24.0651V29.3481C27.5453 29.4151 27.5271 29.4804 27.4967 29.5404C27.4664 29.6003 27.4245 29.6537 27.3735 29.6975C27.3225 29.7412 27.2634 29.7745 27.1995 29.7953C27.1357 29.8162 27.0683 29.8243 27.0013 29.8191C26.8674 29.8276 26.7355 29.7829 26.6344 29.6947C26.5333 29.6065 26.4711 29.4819 26.4613 29.3481Z" fill="white" stroke="white" stroke-width="0.5" stroke-linecap="round"/>
</svg>
