<svg width="24" height="24" viewBox="0 0 24 24" fill="none" xmlns="http://www.w3.org/2000/svg">
<path d="M3 9.67505V18.975C3 19.5055 3.21071 20.0142 3.58579 20.3893C3.96086 20.7643 4.46957 20.975 5 20.975H19C19.5304 20.975 20.0391 20.7643 20.4142 20.3893C20.7893 20.0142 21 19.5055 21 18.975V9.67505" stroke="white" stroke-width="1.5" stroke-linecap="round" stroke-linejoin="round"/>
<path d="M9.11794 14.854L3.58594 20.386" stroke="white" stroke-width="1.5" stroke-linecap="round" stroke-linejoin="round"/>
<path d="M20.4101 20.4111L14.8811 14.8821" stroke="white" stroke-width="1.5" stroke-linecap="round" stroke-linejoin="round"/>
<path d="M5.99993 6.59399L3.88593 8.01599C3.61389 8.19898 3.39101 8.44604 3.2369 8.73542C3.0828 9.02481 3.0022 9.34764 3.0022 9.67549C3.0022 10.0034 3.0828 10.3262 3.2369 10.6156C3.39101 10.9049 3.61389 11.152 3.88593 11.335L9.76093 15.286C10.4227 15.7314 11.2022 15.9693 11.9999 15.9693C12.7976 15.9693 13.5772 15.7314 14.2389 15.286L20.1139 11.335C20.386 11.152 20.6088 10.9049 20.763 10.6156C20.9171 10.3262 20.9977 10.0034 20.9977 9.67549C20.9977 9.34764 20.9171 9.02481 20.763 8.73542C20.6088 8.44604 20.386 8.19898 20.1139 8.01599L17.9999 6.59399" stroke="white" stroke-width="1.5" stroke-linecap="round" stroke-linejoin="round"/>
<path d="M18 12.757V3.87402C18 3.60881 17.8946 3.35445 17.7071 3.16692C17.5196 2.97938 17.2652 2.87402 17 2.87402H7C6.73478 2.87402 6.48043 2.97938 6.29289 3.16692C6.10536 3.35445 6 3.60881 6 3.87402V12.757" stroke="white" stroke-width="1.5" stroke-linecap="round" stroke-linejoin="round"/>
<path d="M9 6.47192H15" stroke="white" stroke-width="1.5" stroke-linecap="round" stroke-linejoin="round"/>
<path d="M9 9.97192H15" stroke="white" stroke-width="1.5" stroke-linecap="round" stroke-linejoin="round"/>
</svg>
