<svg width="36" height="36" viewBox="0 0 36 36" fill="none" xmlns="http://www.w3.org/2000/svg">
<path d="M30 8H6C4.34315 8 3 9.34315 3 11V29C3 30.6569 4.34315 32 6 32H30C31.6569 32 33 30.6569 33 29V11C33 9.34315 31.6569 8 30 8Z" fill="#19A854"/>
<path d="M29 15H7C5.89543 15 5 15.8954 5 17V28C5 29.1046 5.89543 30 7 30H29C30.1046 30 31 29.1046 31 28V17C31 15.8954 30.1046 15 29 15Z" fill="white"/>
<path d="M14 6.5C14 5.67157 13.3284 5 12.5 5C11.6716 5 11 5.67157 11 6.5V11.5C11 12.3284 11.6716 13 12.5 13C13.3284 13 14 12.3284 14 11.5V6.5Z" fill="#0B6A46"/>
<path d="M25 6.5C25 5.67157 24.3284 5 23.5 5C22.6716 5 22 5.67157 22 6.5V11.5C22 12.3284 22.6716 13 23.5 13C24.3284 13 25 12.3284 25 11.5V6.5Z" fill="#0B6A46"/>
<path d="M10.3516 21.911H11.1356C11.2788 21.9247 11.4233 21.9076 11.5594 21.8608C11.6955 21.8141 11.82 21.7388 11.9246 21.64C12.0971 21.4226 12.183 21.149 12.1656 20.872C12.174 20.7354 12.1553 20.5985 12.1107 20.4691C12.0661 20.3397 11.9964 20.2204 11.9056 20.118C11.803 20.0236 11.6823 19.9513 11.5507 19.9054C11.4191 19.8594 11.2796 19.8409 11.1406 19.851C10.8664 19.8395 10.5983 19.9336 10.3916 20.114C10.2957 20.2006 10.2201 20.3072 10.17 20.4262C10.1199 20.5453 10.0965 20.6739 10.1016 20.803H9.01558L9.00657 20.775C8.99436 20.5283 9.0402 20.2821 9.14041 20.0563C9.24063 19.8306 9.39241 19.6314 9.58357 19.475C10.0151 19.1148 10.5649 18.9274 11.1266 18.949C11.6954 18.9194 12.2557 19.097 12.7036 19.449C12.9028 19.6265 13.0593 19.8469 13.1613 20.0935C13.2633 20.3401 13.3082 20.6066 13.2926 20.873C13.2896 21.1714 13.1977 21.4621 13.0286 21.708C12.843 21.9845 12.582 22.2021 12.2766 22.335C12.6204 22.441 12.9184 22.6598 13.1226 22.956C13.3055 23.239 13.4002 23.57 13.3946 23.907C13.4073 24.1828 13.3563 24.4579 13.2457 24.7109C13.1351 24.9639 12.9677 25.188 12.7566 25.366C12.2944 25.7325 11.716 25.921 11.1266 25.897C10.5599 25.9152 10.004 25.7387 9.55157 25.397C9.34322 25.2358 9.17834 25.0252 9.07184 24.7842C8.96533 24.5433 8.92056 24.2796 8.94157 24.017L8.95157 23.986H10.0366C10.0314 24.1215 10.0555 24.2565 10.1073 24.3818C10.1591 24.507 10.2373 24.6197 10.3366 24.712C10.5582 24.9029 10.8444 25.0016 11.1366 24.988C11.4378 25.0048 11.7337 24.9037 11.9616 24.706C12.0651 24.6013 12.1454 24.4759 12.1971 24.338C12.2488 24.2002 12.2708 24.0529 12.2616 23.906C12.2743 23.7546 12.2564 23.6022 12.209 23.4579C12.1616 23.3136 12.0856 23.1803 11.9856 23.066C11.7467 22.8672 11.4393 22.7703 11.1296 22.796H10.3516V21.911Z" fill="#111111"/>
<path d="M18.243 22.7631C17.1699 22.9484 16.0819 23.0338 14.993 23.0181H14.416V19.0771H15.266V22.3181C16.236 22.3182 17.2042 22.2352 18.16 22.0701L18.243 22.7631ZM20.352 25.1801V25.8721H15.332V23.5801H16.181V25.1801H20.352ZM19.313 21.5591H17.336V20.8861H19.315V20.1511H17.336V19.4751H19.315V18.5681H20.165V24.0681H19.315L19.313 21.5591Z" fill="#111111"/>
<path d="M24.0205 25.9329V20.3567L22.9209 21.4797C22.826 21.5728 22.6984 21.6252 22.5654 21.6252C22.4325 21.6252 22.3049 21.5728 22.21 21.4797C22.1157 21.386 22.0627 21.2591 22.0615 21.1262C22.0604 20.9933 22.1115 20.8651 22.2041 20.7698L24.1768 18.7698C24.2716 18.6766 24.3993 18.6245 24.5322 18.6233C24.665 18.6252 24.7905 18.6773 24.8858 18.7698L26.9131 20.7639C27.0081 20.8574 27.0625 20.9852 27.0635 21.1184C27.0645 21.2517 27.0125 21.3799 26.919 21.4749C26.8255 21.5698 26.6987 21.6232 26.5654 21.6243C26.4322 21.6253 26.303 21.5732 26.208 21.4797L25.0225 20.3098V25.928C25.0225 26.0606 24.9698 26.1877 24.876 26.2815C24.7822 26.3753 24.6551 26.428 24.5225 26.428C24.3899 26.428 24.2627 26.3753 24.169 26.2815C24.0752 26.1877 24.0225 26.0606 24.0225 25.928L24.0205 25.9329Z" fill="#111111"/>
</svg>
