<svg width="32" height="32" viewBox="0 0 32 32" fill="none" xmlns="http://www.w3.org/2000/svg">
<path d="M25 2.99902H3C1.89543 2.99902 1 3.89445 1 4.99902V19.999C1 21.1036 1.89543 21.999 3 21.999H25C26.1046 21.999 27 21.1036 27 19.999V4.99902C27 3.89445 26.1046 2.99902 25 2.99902Z" fill="#8295F1"/>
<path d="M27 8.46899H1V11.888H27V8.46899Z" fill="#4859AE"/>
<path d="M22.2459 10.5C23.9666 10.5 25.6487 11.0102 27.0794 11.9662C28.5101 12.9222 29.6252 14.2809 30.2836 15.8707C30.9421 17.4604 31.1144 19.2097 30.7787 20.8973C30.443 22.5849 29.6144 24.1351 28.3977 25.3518C27.181 26.5685 25.6308 27.3971 23.9432 27.7328C22.2555 28.0685 20.5063 27.8962 18.9166 27.2378C17.3268 26.5793 15.9681 25.4642 15.0121 24.0335C14.0561 22.6028 13.5459 20.9207 13.5459 19.2C13.5459 16.8926 14.4625 14.6797 16.0941 13.0482C17.7256 11.4166 19.9385 10.5 22.2459 10.5Z" fill="#F8C315"/>
<path d="M22.2461 15.4109V16.2599" stroke="white" stroke-width="1.2" stroke-linecap="round"/>
<path d="M19.4072 21.979C20.237 22.6283 21.2606 22.9804 22.3142 22.979H22.4272C24.0672 22.979 25.0842 22.179 25.0842 20.879V20.859C25.0842 19.801 24.3922 19.238 22.6142 18.852C21.6962 18.639 21.2642 18.485 21.2642 17.998V17.978C21.2642 17.688 21.4942 17.35 22.1412 17.35C22.5874 17.3574 23.0274 17.4557 23.4342 17.639C23.541 17.6822 23.6551 17.7043 23.7702 17.704C23.9195 17.7035 24.0664 17.6668 24.1984 17.5972C24.3304 17.5275 24.4436 17.4269 24.5282 17.304L24.8282 16.882C24.1074 16.368 23.2436 16.0927 22.3582 16.095C22.3049 16.095 22.2512 16.095 22.1972 16.095H22.1912C20.6522 16.095 19.6582 16.908 19.6582 18.16V18.175C19.6582 19.399 20.5382 19.832 22.1582 20.202C23.0582 20.407 23.4812 20.586 23.4812 21.045V21.065C23.4812 21.219 23.4102 21.723 22.5032 21.723C21.9451 21.7216 21.395 21.5905 20.8962 21.34C20.7066 21.2426 20.4896 21.2123 20.2806 21.2541C20.0716 21.2958 19.8828 21.4072 19.7452 21.57L19.4072 21.979Z" fill="white"/>
<path d="M22.2461 22.9099V23.7589" stroke="white" stroke-width="1.2" stroke-linecap="round"/>
</svg>
