<svg width="24" height="24" viewBox="0 0 24 24" fill="none" xmlns="http://www.w3.org/2000/svg">
<path d="M14.248 8.71484C14.5345 8.42852 14.9987 8.42843 15.2852 8.71484C15.5716 9.00126 15.5715 9.46547 15.2852 9.75195L13.0371 12L15.2852 14.248C15.5715 14.5345 15.5716 14.9987 15.2852 15.2852C14.9987 15.5716 14.5345 15.5715 14.248 15.2852L12 13.0371L9.75195 15.2852C9.46547 15.5715 9.00126 15.5716 8.71484 15.2852C8.42843 14.9987 8.42852 14.5345 8.71484 14.248L10.9629 12L8.71484 9.75195C8.42852 9.46547 8.42843 9.00126 8.71484 8.71484C9.00126 8.42843 9.46547 8.42852 9.75195 8.71484L12 10.9629L14.248 8.71484Z" fill="#D3D3D3"/>
<path d="M22 12C22 6.47715 17.5228 2 12 2C6.47715 2 2 6.47715 2 12C2 17.5228 6.47715 22 12 22C17.5228 22 22 17.5228 22 12Z" stroke="#D3D3D3" stroke-width="1.5" stroke-linecap="round" stroke-linejoin="round"/>
</svg>
