<svg width="40" height="40" viewBox="0 0 40 40" fill="none" xmlns="http://www.w3.org/2000/svg">
<g clip-path="url(#clip0_8925_97063)">
<path d="M0 20V22.3C0 24.8 0.4 27.3 1.2 29.7C1.8 31.6 2.9 33.4 4.2 34.9C5.8 36.6 7.8 37.9 10 38.7C12.3 39.5 14.7 39.9 19.5 40H20.4C25.2 40 27.7 39.5 30 38.7C32.2 37.9 34.2 36.7 35.8 34.9C37.1 33.4 38.1 31.6 38.8 29.7C39.6 27.3 40 24.8 40 22.3V17.7C40 15.2 39.6 12.7 38.8 10.3C38.2 8.4 37.1 6.6 35.8 5.1C34.2 3.4 32.2 2.1 30 1.3C27.7 0.5 25.3 0.1 20.5 0H19.6C14.8 0.1 12.3 0.5 10 1.3C7.8 2.1 5.8 3.3 4.2 5.1C2.9 6.6 1.9 8.4 1.2 10.3C0.5 12.7 0 15.2 0 17.7V20Z" fill="#7E7266"/>
<path d="M0 20V22.3C0 24.8 0.4 27.3 1.2 29.7C1.8 31.6 2.9 33.4 4.2 34.9C5.8 36.6 7.8 37.9 10 38.7C12.3 39.5 14.7 39.9 19.5 40H20.4C25.2 40 27.7 39.5 30 38.7C32.2 37.9 34.2 36.7 35.8 34.9C37.1 33.4 38.1 31.6 38.8 29.7C39.6 27.3 40 24.8 40 22.3V17.7C40 15.2 39.6 12.7 38.8 10.3C38.2 8.4 37.1 6.6 35.8 5.1C34.2 3.4 32.2 2.1 30 1.3C27.7 0.5 25.3 0.1 20.5 0H19.6C14.8 0.1 12.3 0.5 10 1.3C7.8 2.1 5.8 3.3 4.2 5.1C2.9 6.6 1.9 8.4 1.2 10.3C0.5 12.7 0 15.2 0 17.7V20Z" fill="#60584C"/>
<path d="M32.0008 20.2H31.8008C31.0008 19.3 29.8008 18.9 28.7008 19.1C27.7008 19.1 26.8008 19.5 26.0008 20V17.8C26.0008 17.4 26.0008 17.1 25.8008 16.8C25.8008 16.8 25.7008 16.7 25.6008 16.7C25.2008 16.7 24.7008 16.9 24.3008 17.1V17.3C24.3008 17.9 24.1008 18.4 24.0008 19C23.8008 20.6 23.8008 22 24.0008 23.4C24.0008 23.5 24.3008 23.7 24.4008 23.8C24.8008 23.8 25.2008 23.8 25.6008 23.6H25.7008C25.8008 23.6 25.9008 23.5 25.9008 23.4V23C26.2008 21.8 27.2008 20.8 28.5008 20.5C29.1008 20.4 29.8008 20.5 30.2008 21C30.3008 21.6 30.2008 22.2 29.9008 22.7C29.5008 23.4 28.8008 24 28.0008 24.2C27.0008 24.5 26.0008 24.7 25.0008 24.6L23.9008 23.9C22.9008 23.2 21.9008 22.5 20.8008 22C20.5008 21.9 20.3008 21.7 20.1008 21.5H20.0008C19.4008 20.9 18.3008 20.2 17.3008 19.6L16.8008 19.3C16.8008 19.2 17.4008 18.8 17.4008 18.8C17.9008 18.6 18.3008 18.3 18.7008 18H18.8008L20.8008 16.9C22.7008 16 24.5008 14.8 26.1008 13.5V12.4C26.1008 12.4 26.1008 12.3 25.9008 12.2C24.7008 12.2 23.6008 12.8 22.8008 13.6C22.6008 13.8 22.4008 13.9 22.2008 14H22.0008C20.8008 14.7 18.2008 16.4 16.9008 17.2C17.0008 15.4 17.3008 13.7 17.6008 11.9V11.7L17.4008 11.4V11.2H17.3008C17.1008 11.1 16.9008 11.1 16.6008 11.2H16.3008C16.3008 11.3 15.9008 11.4 15.9008 11.4C15.9008 11.4 15.8008 11.4 15.7008 11.5C15.0008 13.5 14.5008 15.6 14.4008 17.7C13.4008 17.1 12.4008 16.5 11.3008 16C11.0008 16 10.8008 15.8 10.6008 15.7L10.1008 15.4L9.30078 14.9H9.10078C8.70078 15 8.30078 15.3 8.00078 15.7V16.2C8.70078 16.8 9.40078 17.3 10.2008 17.7L11.2008 18.3L12.8008 19.2L13.1008 19.4H13.3008V19.5L10.4008 21.4L8.90078 22.4C8.60078 22.6 8.30078 22.7 8.00078 22.8C7.70078 22.8 7.50078 23.1 7.30078 23.4V23.5H7.40078L7.60078 23.7H7.80078C7.80078 23.8 8.00078 23.8 8.00078 23.8C8.50078 23.8 9.00078 23.6 9.40078 23.3C10.1008 23 11.9008 21.9 12.7008 21.4L13.0008 21.2C13.2008 21.2 13.3008 21.2 13.4008 21C13.6008 20.8 13.9008 20.7 14.1008 20.6H14.3008C14.3008 22.5 14.4008 24.3 14.7008 26.1C14.9008 26.5 15.0008 26.9 15.1008 27.4L15.4008 28.4C15.7008 28.6 16.1008 28.7 16.4008 28.7V27.1C16.3008 25.4 16.2008 23 16.2008 21.3C16.5008 21.3 17.7008 22.1 17.7008 22.1C19.8008 23.5 23.1008 25.6 25.0008 26.1H25.3008L25.6008 25.9C25.7008 25.8 25.8008 25.6 25.8008 25.4C27.8008 25.4 29.6008 24.6 31.0008 23.1C31.4008 22.5 31.7008 21.9 31.7008 21.1C31.7008 20.7 31.6008 20.2 31.3008 19.9" fill="white"/>
</g>
<defs>
<clipPath id="clip0_8925_97063">
<rect width="40" height="40" fill="white"/>
</clipPath>
</defs>
</svg>
