<svg width="40" height="40" viewBox="0 0 40 40" fill="none" xmlns="http://www.w3.org/2000/svg">
<g clip-path="url(#clip0_8925_97069)">
<path d="M0 20C0 21.1776 0 21.3084 0.0280636 22.3084C0.1029 24.5234 0.336763 27.0654 1.22544 29.7476C1.8522 31.6449 3.03087 33.6916 4.20954 34.9813C5.70629 36.6261 7.77361 37.9718 10.0094 38.7382C12.2919 39.5232 14.7615 39.9064 19.5603 40H20.449C25.2573 39.8971 27.7175 39.5232 30 38.7382C32.2358 37.9718 34.2938 36.6261 35.7904 34.9813C36.9693 33.6823 38.1479 31.6449 38.7746 29.7476C39.6632 27.0654 39.9064 24.514 39.9718 22.3084C40 21.3178 40 21.1776 40 20C40 18.8224 40 18.6916 39.9718 17.6916C39.8971 15.4766 39.6632 12.9346 38.7746 10.2523C38.1479 8.35514 36.9693 6.30839 35.7904 5.01868C34.2938 3.37383 32.2264 2.02804 30 1.26168C27.7175 0.476636 25.2479 0.0934579 20.449 0H19.5603C14.7521 0.102804 12.2919 0.476636 10.0094 1.26168C7.77361 2.02804 5.71561 3.37383 4.20954 5.01868C3.03087 6.31775 1.8522 8.35514 1.22544 10.2523C0.346118 12.9346 0.1029 15.4766 0.0280636 17.6916C0 18.6823 0 18.8224 0 20Z" fill="#1D62E5"/>
<path d="M19.4869 8.58309C13.1795 8.87077 8.2999 14.2134 8.58407 20.5173C8.86822 26.8212 14.2109 31.7043 20.5183 31.4166C26.8221 31.129 31.7018 25.7898 31.4176 19.4824C31.1334 13.1821 25.7908 8.29894 19.4869 8.58309ZM20.8234 19.6754C22.8546 21.5487 23.9666 22.5554 23.9666 22.5554C27.5483 25.5372 26.324 28.2629 24.9559 29.2101C23.914 29.9327 22.7564 30.273 21.2409 30.3537C21.1041 30.3712 20.855 30.2941 20.8445 30.052C20.834 29.7924 21.2128 29.7293 21.2128 29.7293C24.5945 29.0628 23.6053 26.8457 22.4091 25.7161C21.9074 25.239 17.1997 21.1803 17.1997 21.1803C12.713 17.318 13.0708 14.3011 13.0708 14.3011C13.2883 10.5897 16.5367 9.67059 18.9958 9.88105C19.2834 9.90562 19.4448 10.081 19.3922 10.3231C19.3396 10.5827 18.9572 10.6037 18.9572 10.6037C18.1749 10.6493 17.4768 10.73 16.9436 11.0878C14.9616 12.4208 15.5474 14.687 18.1889 17.2093C18.5222 17.5285 18.873 17.8617 19.2343 18.202C19.2343 18.202 19.764 18.6686 20.8199 19.6754H20.8234ZM19.2905 29.2697C19.3115 29.631 18.431 29.7889 17.4277 29.6907C16.1648 29.5679 14.6564 29.168 13.3444 28.0349C12.1376 26.9895 11.3905 25.5548 11.0256 24.2954C10.6538 23.0044 10.4994 21.4925 11.1133 21.6118C11.3028 21.6504 11.629 22.4783 11.9833 23.0816C12.3481 23.706 12.6498 24.0498 12.927 24.2603C13.0533 24.3551 13.4847 23.3974 14.1126 22.8536C14.4775 22.5519 14.8774 22.4502 14.9405 23.3482C15.0177 24.4498 14.8213 25.7582 15.1405 25.7582C15.4422 25.7582 16.1192 25.5337 17.6066 25.4074C18.1644 25.3583 18.4836 25.4636 17.9504 26.2178C17.6838 26.5931 17.326 27.1228 16.4841 27.7262C17.7469 28.9119 19.2659 28.7681 19.294 29.2697H19.2905ZM20.2867 17.7495C20.192 17.3776 20.1675 16.9111 20.2446 16.3147C20.4025 15.0659 20.7393 14.4801 21.1216 13.5153C21.6373 12.2174 20.385 11.4562 20.5919 10.9791C20.8761 10.3336 21.7741 11.1544 22.7704 11.2141C23.6299 11.2632 24.149 11.2176 24.819 11.3088C25.7066 11.4281 26.773 11.7298 27.2431 12.284C27.6781 12.7927 27.0151 13.4136 26.2153 13.0242C25.6329 12.7401 24.8962 12.9155 25.3277 13.5223C25.8469 14.1012 26.096 14.1152 26.6221 14.2555C28.078 14.6379 28.106 16.0306 27.1238 16.7532C26.0013 17.5741 24.8682 17.2338 24.4121 15.6237C24.1841 14.8203 23.6158 14.4134 23.037 14.6414C22.4582 14.8694 22.802 15.9253 23.2405 16.904C24.121 19.1492 21.9355 19.072 21.6794 19.0439C20.5183 18.7984 20.2832 17.746 20.2832 17.746L20.2867 17.7495Z" fill="white"/>
</g>
<defs>
<clipPath id="clip0_8925_97069">
<rect width="40" height="40" fill="white"/>
</clipPath>
</defs>
</svg>
