<svg width="40" height="40" viewBox="0 0 40 40" fill="none" xmlns="http://www.w3.org/2000/svg">
<g clip-path="url(#clip0_8925_97057)">
<path d="M0 20C0 21.1776 0 21.3084 0.028057 22.3084C0.102876 24.5234 0.336685 27.0654 1.22516 29.7477C1.85176 31.6449 3.03016 33.6916 4.20857 34.9813C5.70493 36.6261 7.77179 37.9718 10.007 38.7382C12.289 39.5232 14.758 39.9064 19.5557 40H20.4443C25.2514 39.8971 27.711 39.5232 29.993 38.7382C32.2282 37.9718 34.2857 36.6261 35.7914 34.9813C36.97 33.6823 38.1482 31.6449 38.775 29.7477C39.6632 27.0654 39.9064 24.514 39.9718 22.3084C40 21.3178 40 21.1776 40 20C40 18.8224 40 18.6823 39.9718 17.6916C39.8971 15.4766 39.6632 12.9346 38.775 10.2523C38.1482 8.35514 36.97 6.30839 35.7914 5.01868C34.2951 3.37383 32.2282 2.02804 29.993 1.26168C27.711 0.476636 25.242 0.0934579 20.4443 0H19.5557C14.7486 0.102804 12.289 0.476636 10.007 1.26168C7.77179 2.02804 5.71429 3.37383 4.20857 5.01868C3.03016 6.31775 1.85176 8.35514 1.22516 10.2523C0.346037 12.9346 0.102876 15.4766 0.028057 17.6916C0 18.6823 0 18.8224 0 20Z" fill="#04A86C"/>
<path d="M26.3785 13.269C25.7104 14.2456 25.346 14.749 24.273 15.917C26.1254 14.8094 26.6315 14.7389 28.3523 13.7422C28.99 14.6886 29.1621 16.8835 29.1823 18.6254C29.7391 17.5178 30.4172 13.3696 30.1338 12.6145C31.1663 11.9399 31.1663 11.6781 31.4295 11.2251C30.397 11.3157 29.8099 11.3358 29.2431 11.507C27.8158 10.631 24.8702 9.73493 22.4712 9.55371C23.2203 9.86582 26.2671 11.517 26.6517 12.0305C25.0423 12.242 21.9651 13.1481 20.4062 13.9637C22.1878 13.571 24.6779 13.3696 26.3886 13.279L26.3785 13.269Z" fill="white"/>
<path d="M21.083 26.8714C20.6275 27.4755 20.2529 27.9286 19.7468 28.4824C18.8965 28.7139 18.2183 28.8046 17.3984 28.8046C17.9045 29.0663 18.4107 29.2274 18.937 29.3281C18.4107 29.8114 17.945 30.1537 17.4389 30.4759C18.3094 30.2745 19.433 29.902 20.2833 29.4086C20.7186 29.4187 21.1639 29.4087 21.4575 29.3483C21.3867 29.0865 21.3259 28.8952 21.255 28.5629C22.0547 27.9488 22.6317 27.395 23.2795 26.7305C22.5811 27.2238 21.9737 27.5964 21.1741 27.9789C21.1336 27.6064 21.1133 27.2842 21.0931 26.8714H21.083Z" fill="white"/>
<path d="M11.3871 21.4446C11.3871 21.4446 13.9683 19.0584 15.0817 18.4543C15.0817 18.4543 15.6486 20.3975 16.0535 21.3641C16.0535 21.3641 16.4179 19.1189 17.005 17.8301C17.005 17.8301 17.1669 17.7294 17.997 17.6489C18.8169 17.5784 19.9708 17.528 22.1977 17.9106C22.1977 17.9106 20.153 16.6219 17.6326 16.2796C17.7338 15.9372 18.0881 15.2022 18.4018 14.8096C17.9362 14.88 16.6305 15.464 15.7599 16.1386C15.7599 16.1386 15.183 16.0681 14.2213 16.0983C13.2597 16.1386 11.9944 16.3802 11.4984 16.5816C12.4398 16.6219 13.7253 16.8535 14.2213 17.3468C14.2213 17.3468 12.784 18.6356 11.377 21.4446H11.3871Z" fill="white"/>
<path d="M11.6694 27.637C12.0945 28.5633 12.5399 29.1875 13.2687 29.8923C13.0966 29.2882 13.0663 28.7949 13.127 28.1606C14.0481 28.4224 14.8073 28.5734 15.8398 28.6036C14.8478 28.2411 14.1392 27.8182 13.3699 27.0933C13.6028 26.459 13.876 25.9556 14.3012 25.3213C13.5015 25.432 12.9245 25.5327 12.2362 25.6636C11.6795 24.687 11.4264 23.7405 11.143 22.4316C10.981 23.811 10.9304 24.8179 11.1228 25.9254C10.485 26.0965 10.0397 26.2375 9.52344 26.4691C10.2523 26.9121 10.8495 27.2645 11.6694 27.637Z" fill="white"/>
<path d="M21.2451 28.5628C21.316 28.8951 21.3767 29.0964 21.4476 29.3482C21.1439 29.4086 20.7087 29.4287 20.2734 29.4086C19.4231 29.9019 18.2995 30.2744 17.429 30.4758C17.9351 30.1536 18.4007 29.8113 18.9271 29.328C18.4007 29.2173 17.8845 29.0663 17.3885 28.8045C18.2185 28.8045 18.8866 28.7138 19.7369 28.4823C20.243 27.9285 20.6175 27.4654 21.073 26.8713C21.0933 27.2942 21.1135 27.6063 21.154 27.9789C21.9537 27.5963 22.561 27.2137 23.2595 26.7304C22.6015 27.3949 22.0347 27.9487 21.235 28.5628H21.2451ZM22.4598 9.53351C24.8588 9.71472 27.8044 10.6209 29.2317 11.4868C29.7985 11.3156 30.3856 11.2955 31.4181 11.2049C31.1549 11.6579 31.1549 11.9197 30.1224 12.5943C30.4058 13.3494 29.7277 17.4976 29.1709 18.6052C29.1507 16.8633 28.9786 14.6684 28.3409 13.722C26.6302 14.7188 26.114 14.7993 24.2616 15.8968C25.3447 14.7288 25.7091 14.2355 26.367 13.2488C24.6564 13.3394 22.1663 13.5508 20.3847 13.9334C21.9435 13.1179 25.0208 12.2117 26.6302 12.0003C26.2455 11.4868 23.2089 9.82551 22.4497 9.52344L22.4598 9.53351ZM11.5074 16.5713C11.9933 16.37 13.2586 16.1283 14.2303 16.088C15.1919 16.0578 15.7689 16.1283 15.7689 16.1283C16.6394 15.4437 17.9452 14.8698 18.4109 14.7993C18.0971 15.192 17.7327 15.9269 17.6416 16.2693C20.162 16.6116 22.2068 17.9004 22.2068 17.9004C19.9798 17.5077 18.8259 17.5681 18.006 17.6386C17.1759 17.7191 17.014 17.8198 17.014 17.8198C16.4269 19.1086 16.0625 21.3538 16.0625 21.3538C15.6576 20.3873 15.0907 18.444 15.0907 18.444C13.9773 19.0381 11.3961 21.4344 11.3961 21.4344C12.8031 18.6253 14.2404 17.3365 14.2404 17.3365C13.7445 16.8432 12.4589 16.6116 11.5175 16.5713H11.5074ZM11.143 22.4211C11.4264 23.73 11.6795 24.6764 12.2362 25.653C12.9245 25.5222 13.5117 25.4215 14.3012 25.3107C13.876 25.945 13.6028 26.4484 13.3699 27.0828C14.1494 27.8077 14.8579 28.2306 15.8398 28.593C14.8073 28.5628 14.038 28.4118 13.127 28.15C13.0663 28.7843 13.0966 29.2777 13.2687 29.8818C12.5399 29.1669 12.0945 28.5528 11.6694 27.6265C10.8495 27.2539 10.2523 26.9015 9.52344 26.4585C10.0397 26.2269 10.4952 26.086 11.1228 25.9148C10.9304 24.8073 10.981 23.8005 11.143 22.4211Z" fill="white"/>
</g>
<defs>
<clipPath id="clip0_8925_97057">
<rect width="40" height="40" fill="white"/>
</clipPath>
</defs>
</svg>
