<svg width="40" height="40" viewBox="0 0 40 40" fill="none" xmlns="http://www.w3.org/2000/svg">
<g clip-path="url(#clip0_8925_97072)">
<path d="M0 20C0 21.1776 0 21.3084 0.0280636 22.3084C0.1029 24.5234 0.336763 27.0654 1.22544 29.7476C1.8522 31.6449 3.03087 33.6916 4.20954 34.9813C5.70629 36.6261 7.77361 37.9718 10.0094 38.7382C12.2919 39.5232 14.7615 39.9064 19.5603 40H20.449C25.2573 39.8971 27.7175 39.5232 30 38.7382C32.2358 37.9718 34.2938 36.6261 35.7904 34.9813C36.9693 33.6823 38.1479 31.6449 38.7746 29.7476C39.6632 27.0654 39.9064 24.514 39.9718 22.3084C40 21.3178 40 21.1776 40 20C40 18.8224 40 18.6916 39.9718 17.6916C39.8971 15.4766 39.6632 12.9346 38.7746 10.2523C38.1479 8.35514 36.9693 6.30839 35.7904 5.01868C34.2938 3.37383 32.2264 2.02804 30 1.26168C27.7175 0.476636 25.2479 0.0934579 20.449 0H19.5603C14.7521 0.102804 12.2919 0.476636 10.0094 1.26168C7.77361 2.02804 5.71561 3.37383 4.20954 5.01868C3.03087 6.31775 1.8522 8.35514 1.22544 10.2523C0.346118 12.9346 0.1029 15.4766 0.0280636 17.6916C0 18.6823 0 18.8224 0 20Z" fill="#009DAD"/>
<mask id="mask0_8925_97072" style="mask-type:luminance" maskUnits="userSpaceOnUse" x="5" y="17" width="30" height="7">
<path d="M35.0003 17.1426H5.35742V23.214H35.0003V17.1426Z" fill="white"/>
</mask>
<g mask="url(#mask0_8925_97072)">
<path d="M12.761 18.2949C11.7791 18.2949 10.9941 19.0904 10.9941 20.0632C10.9941 20.1562 11.0326 20.2493 11.1005 20.3158C11.1683 20.3822 11.2611 20.4199 11.3584 20.4199H14.1659C14.2609 20.4199 14.3559 20.3822 14.4237 20.3158C14.4916 20.2493 14.5301 20.1585 14.5301 20.0632C14.5301 19.0882 13.7451 18.2949 12.7632 18.2949M11.7814 19.7064C11.8719 19.3054 12.313 18.9819 12.761 18.9796C13.2089 18.9796 13.5957 19.2921 13.7406 19.7064H11.7814Z" fill="#FDC500"/>
<path d="M14.2185 20.6966C14.0737 20.5925 13.8135 20.6213 13.7095 20.7565C13.4877 21.0467 13.1484 21.2174 12.7616 21.2174C12.3747 21.2174 12.0331 21.0467 11.8136 20.7565C11.7119 20.6213 11.4494 20.5903 11.3046 20.6966C11.144 20.8141 11.1101 21.049 11.23 21.2085C11.5784 21.6694 12.1349 21.9708 12.7616 21.9708C13.3882 21.9708 13.947 21.6694 14.2931 21.2085C14.413 21.0512 14.3791 20.8141 14.2185 20.6966Z" fill="#FDC500"/>
<path d="M7.44868 17.5654C7.15911 17.5654 6.92383 17.7959 6.92383 18.0795C6.92383 18.3631 7.15911 18.5936 7.44868 18.5958C7.74051 18.5958 7.97354 18.3653 7.97354 18.0795C7.97354 17.7936 7.73826 17.5654 7.44868 17.5654Z" fill="white"/>
<path d="M18.8415 20.1344C18.8415 19.6247 18.6357 19.1661 18.2986 18.8403C17.9615 18.5124 17.4955 18.3196 16.9842 18.3174C16.9842 18.3174 16.9706 18.3174 16.9684 18.3174C16.3801 18.3174 15.9119 18.6586 15.9141 18.6675C15.8915 18.4991 15.706 18.3484 15.516 18.3462C15.292 18.3484 15.1178 18.5212 15.1133 18.734V22.8222C15.1155 23.0394 15.292 23.2122 15.5092 23.2144C15.7331 23.2122 15.9096 23.0394 15.9119 22.8244V21.6079C16.2309 21.8627 16.5611 21.9625 16.9525 21.9669H16.9774C17.4909 21.9669 17.9592 21.7741 18.2986 21.4462C18.6311 21.1227 18.837 20.6684 18.8415 20.1632V20.1344ZM16.9774 21.2002C16.3801 21.1936 15.9186 20.7659 15.9119 20.1432C15.9186 19.5228 16.3801 19.093 16.9774 19.0863C17.5905 19.0952 18.0316 19.5095 18.0407 20.1432C18.0316 20.7748 17.5905 21.1891 16.9751 21.198" fill="white"/>
<path d="M27.9604 18.7916C27.6595 18.4969 27.2387 18.3174 26.7704 18.3174C26.7704 18.3174 26.7591 18.3174 26.7568 18.3174C26.293 18.3174 25.8723 18.4969 25.5737 18.7916C25.2728 19.0863 25.0918 19.4962 25.0918 19.9438V21.5525C25.094 21.7697 25.2705 21.9403 25.4899 21.9447C25.7139 21.9425 25.8904 21.7697 25.8927 21.5547V19.9394C25.9039 19.4497 26.2343 19.1062 26.7704 19.0952C27.302 19.104 27.6346 19.4497 27.6437 19.9416V21.5547C27.6459 21.7719 27.8224 21.9425 28.0418 21.947C28.2658 21.9447 28.4423 21.7719 28.4445 21.5592V19.9483C28.4445 19.5007 28.2658 19.0907 27.9649 18.796" fill="white"/>
<path d="M23.986 18.8534C23.986 18.8534 23.848 18.7271 23.8457 18.7293C23.5268 18.4722 23.1128 18.3193 22.6558 18.3193C22.6558 18.3193 22.6445 18.3193 22.6422 18.3193C22.1196 18.3193 21.649 18.5232 21.3165 18.8556C20.9839 19.1857 20.7871 19.6444 20.7871 20.143V20.1474C20.7871 20.646 20.9839 21.1047 21.3188 21.437C21.649 21.7672 22.1196 21.9711 22.6445 21.9733H22.6942C22.6942 21.9733 23.3209 21.9578 23.7168 21.5944L23.7304 21.6476C23.7733 21.8204 23.9272 21.9445 24.1149 21.9467C24.3389 21.9445 24.5154 21.7717 24.5176 21.5567V20.1253C24.5131 19.6333 24.3163 19.1835 23.9883 18.8556M22.6513 21.1999C22.0291 21.1933 21.5948 20.759 21.5857 20.143C21.5948 19.527 22.0291 19.0949 22.6513 19.0883C23.2734 19.0949 23.7077 19.5292 23.7168 20.1452C23.7077 20.759 23.2756 21.1933 22.6513 21.1999Z" fill="white"/>
<path d="M6.15828 17.5499C6.15828 17.3349 5.97728 17.1621 5.75785 17.1621C5.53842 17.1621 5.36196 17.3349 5.35742 17.5477V21.5539C5.35742 21.7689 5.53842 21.9417 5.75785 21.9417C5.97728 21.9417 6.15374 21.7689 6.15828 21.5561V17.5499Z" fill="white"/>
<path d="M20.2149 17.5499C20.2149 17.3349 20.0339 17.1621 19.8145 17.1621C19.595 17.1621 19.4186 17.3349 19.4141 17.5477V21.5539C19.4141 21.7689 19.595 21.9417 19.8145 21.9417C20.0339 21.9417 20.2104 21.7689 20.2149 21.5561V17.5499Z" fill="white"/>
<path d="M7.84548 19.4229C7.84548 19.208 7.66448 19.0352 7.44505 19.0352C7.22563 19.0352 7.04916 19.208 7.04688 19.4207V21.5546C7.04688 21.7695 7.22788 21.9423 7.4473 21.9423C7.66677 21.9423 7.84323 21.7695 7.84773 21.5568C7.84773 21.5546 7.84773 19.4229 7.84773 19.4229" fill="white"/>
<path d="M34.4126 21.9421C34.4126 21.9421 34.433 21.9421 34.442 21.9421C34.6547 21.9421 34.8334 21.7826 34.8492 21.5721C34.865 21.3505 34.709 21.1776 34.4714 21.1444C34.0914 21.0469 34.123 20.6702 34.123 20.5218V19.3806H34.5913C34.8175 19.3806 35.0008 19.2011 35.0008 18.9817C35.0008 18.7624 34.8175 18.5829 34.5913 18.5829H34.123V17.5414C34.123 17.3199 33.9398 17.1426 33.7135 17.1426C33.4873 17.1426 33.3041 17.3221 33.3041 17.5414V18.5784H33.0869C32.8607 18.5784 32.6797 18.7579 32.6797 18.9773C32.6797 19.1967 32.8629 19.3762 33.0869 19.3762H33.3041V20.7788C33.3041 20.9095 33.3878 21.9377 34.4081 21.9377" fill="white"/>
<path d="M10.2823 18.5804C10.5086 18.5804 10.6895 18.7599 10.6895 18.9793C10.6895 19.1986 10.5063 19.3781 10.2823 19.3781H9.80045V21.5408C9.80045 21.7624 9.6172 21.9419 9.39323 21.9419C9.16927 21.9419 8.98377 21.7624 8.98377 21.5408V19.3781H8.76659C8.54034 19.3781 8.35938 19.1986 8.35938 18.9793C8.35938 18.7599 8.54259 18.5804 8.76659 18.5804H8.98377C8.99055 18.4674 8.97923 17.9268 9.24166 17.621C9.34345 17.5035 9.45205 17.3816 9.5923 17.3063C9.78234 17.2044 9.99048 17.1623 10.2167 17.1446C10.4429 17.129 10.6375 17.293 10.6533 17.5146C10.6692 17.734 10.5018 17.9268 10.2755 17.9423C10.1194 17.9534 9.95427 18.0664 9.89545 18.1771C9.85702 18.2503 9.80045 18.3589 9.80045 18.5804H10.2823Z" fill="white"/>
<path d="M30.7239 18.2949C29.742 18.2949 28.957 19.0904 28.957 20.0632C28.957 20.1562 28.9955 20.2493 29.0634 20.3158C29.1312 20.3822 29.224 20.4199 29.3212 20.4199H32.1287C32.2238 20.4199 32.3188 20.3822 32.3867 20.3158C32.4545 20.2493 32.493 20.1585 32.493 20.0632C32.493 19.0882 31.708 18.2949 30.7261 18.2949M29.7443 19.7064C29.8348 19.3054 30.2759 18.9819 30.7239 18.9796C31.1718 18.9796 31.5587 19.2921 31.7035 19.7064H29.7443Z" fill="#FDC500"/>
<path d="M32.1814 20.6966C32.0366 20.5925 31.7764 20.6213 31.6724 20.7565C31.4506 21.0467 31.1113 21.2174 30.7245 21.2174C30.3376 21.2174 29.996 21.0467 29.7766 20.7565C29.6747 20.6213 29.4123 20.5903 29.2675 20.6966C29.1069 20.8141 29.073 21.049 29.1929 21.2085C29.5413 21.6694 30.0978 21.9708 30.7245 21.9708C31.3511 21.9708 31.9099 21.6694 32.256 21.2085C32.3759 21.0512 32.342 20.8141 32.1814 20.6966Z" fill="#FDC500"/>
</g>
</g>
<defs>
<clipPath id="clip0_8925_97072">
<rect width="40" height="40" fill="white"/>
</clipPath>
</defs>
</svg>
