<svg width="40" height="40" viewBox="0 0 40 40" fill="none" xmlns="http://www.w3.org/2000/svg">
<g clip-path="url(#clip0_8925_97070)">
<path d="M0 20C0 21.17 0 21.31 0.0300075 22.31C0.060015 24.83 0.470118 27.34 1.23031 29.75C1.88047 31.67 2.89072 33.45 4.21105 34.98C5.80145 36.69 7.79195 37.98 10.0025 38.74C12.2831 39.53 14.7537 39.9 19.5549 40H20.4451C25.2463 39.9 27.7169 39.52 29.9975 38.74C32.208 37.98 34.1985 36.69 35.7889 34.98C37.1093 33.45 38.1295 31.67 38.7697 29.75C39.5299 27.34 39.94 24.84 39.97 22.31C40 21.32 40 21.18 40 20C40 18.82 40 18.69 39.97 17.7C39.94 15.17 39.5299 12.67 38.7697 10.26C38.1195 8.34 37.1093 6.56 35.7889 5.02C34.1985 3.31 32.208 2.02 29.9975 1.26C27.7169 0.47 25.2463 0.1 20.4451 0H19.5549C14.7537 0.1 12.2831 0.48 10.0025 1.26C7.79195 2.02 5.80145 3.31 4.21105 5.02C2.89072 6.56 1.87047 8.33 1.23031 10.26C0.470118 12.66 0.0700175 15.17 0.0300075 17.69C0 18.68 0 18.82 0 20Z" fill="#1D8097"/>
<path d="M19.6297 29.36H10.9797V15.61C10.8497 13.73 11.8897 11.97 13.5997 11.18C14.6497 10.69 15.7997 10.45 16.9497 10.51V13.11C16.1797 13.05 15.4097 13.2 14.7197 13.52C13.9897 13.86 13.5297 14.61 13.5697 15.42V15.55V26.76H17.0097V21.61H22.4997V24.21H19.6097V29.36H19.6297Z" fill="white"/>
<path d="M22.5503 29.4902H22.5103V26.8902H22.5503C26.0203 26.8902 26.3703 24.5302 26.4103 24.0602C26.5803 22.8902 26.3203 21.7002 25.7003 20.7002L25.0303 19.9302L25.6303 19.0902C25.8703 18.6002 25.9803 18.0702 25.9703 17.5302V13.2602H22.5303V18.3702H17.0703V15.7702H19.9203V10.6602H28.5703V17.5002C28.5703 18.2702 28.4503 19.0402 28.1803 19.7702C28.8803 21.1502 29.1703 22.7102 29.0103 24.2502C28.9103 26.0502 27.4403 29.5002 22.5603 29.5002" fill="white"/>
</g>
<defs>
<clipPath id="clip0_8925_97070">
<rect width="40" height="40" fill="white"/>
</clipPath>
</defs>
</svg>
