<svg width="40" height="40" viewBox="0 0 40 40" fill="none" xmlns="http://www.w3.org/2000/svg">
<g clip-path="url(#clip0_8925_97077)">
<path d="M0 20C0 21.1776 0 21.3084 0.028057 22.3084C0.102876 24.5234 0.336685 27.0654 1.22516 29.7476C1.85176 31.6449 3.03016 33.6916 4.20857 34.9813C5.70493 36.6261 7.77179 37.9718 10.007 38.7382C12.289 39.5232 14.758 39.9064 19.5557 40H20.4443C25.2514 39.8971 27.711 39.5232 29.993 38.7382C32.2282 37.9718 34.2857 36.6261 35.7914 34.9813C36.97 33.6823 38.1482 31.6449 38.775 29.7476C39.6632 27.0654 39.9064 24.514 39.9718 22.3084C40 21.3178 40 21.1776 40 20C40 18.8224 40 18.6823 39.9718 17.6916C39.8971 15.4766 39.6632 12.9346 38.775 10.2523C38.1482 8.35514 36.97 6.30839 35.7914 5.01868C34.2951 3.37383 32.2282 2.02804 29.993 1.26168C27.711 0.476636 25.242 0.0934579 20.4443 0H19.5557C14.7486 0.102804 12.289 0.476636 10.007 1.26168C7.77179 2.02804 5.71429 3.37383 4.20857 5.01868C3.03016 6.31775 1.85176 8.35514 1.22516 10.2523C0.346037 12.9346 0.102876 15.4766 0.028057 17.6916C0 18.6823 0 18.8224 0 20Z" fill="#1861A0"/>
<path d="M27.7319 12.1426C27.4583 12.1426 27.0903 12.2275 26.6186 12.3973C24.609 13.0955 22.8164 14.2559 21.1748 15.9165L20.0332 17.2656L20.4766 17.8978C21.2314 18.9639 22.0239 20.7659 22.3919 22.2849C22.6183 23.1529 22.7032 23.7001 22.741 24.5964C22.741 24.7473 22.7504 24.9077 22.7598 25.0775C22.7598 25.2474 22.7598 25.4361 22.7598 25.6437C22.7598 26.7192 22.7787 27.9551 22.6655 27.9551H28.0527L28.3546 27.6438C28.5433 27.3702 28.5716 26.4079 28.5716 19.9923C28.5716 13.5766 28.5527 12.6238 28.3452 12.3879C28.1942 12.2275 28.0055 12.1426 27.7225 12.1426H27.7319Z" fill="white"/>
<path d="M12.3146 12.1426C12.041 12.1426 11.8523 12.2086 11.6825 12.3596C11.4372 12.5766 11.4277 13.0011 11.4277 19.9639C11.4277 26.4079 11.4561 27.3702 11.6447 27.6438L11.8617 27.9551H17.2112C21.3436 27.9551 22.589 27.9174 22.6739 27.7853C22.7305 27.691 22.7777 26.7286 22.7682 25.6531C22.7588 24.0209 22.6928 23.4548 22.3909 22.2943C21.7304 19.7469 20.4851 17.4543 18.683 15.7372C17.1169 14.2465 15.3243 13.0672 13.3902 12.3973C12.9278 12.2369 12.5788 12.152 12.3052 12.152L12.3146 12.1426Z" fill="white"/>
<path d="M20.0322 17.2568L19.6925 17.6719C19.0887 18.4079 17.9848 20.8609 17.6169 22.2855C17.3149 23.446 17.2489 24.0121 17.2395 25.6537C17.2395 26.7293 17.2112 27.9558 17.3244 27.9558H22.6739C22.7871 27.9558 22.7776 26.7198 22.7682 25.6443C22.7588 24.0121 22.6739 23.4554 22.3908 22.2855C22.0229 20.7666 21.2303 18.9645 20.4756 17.8984L20.0322 17.2663V17.2568Z" fill="#1861A0"/>
<path d="M20.0327 18.4355L19.7496 18.8035C19.259 19.4639 18.3533 21.6434 18.0514 22.9076C17.8061 23.9454 17.7495 24.4455 17.7401 25.8984C17.7401 26.8608 17.7212 27.9457 17.8061 27.9457H22.1838C22.2781 27.9457 22.2687 26.8513 22.2593 25.889C22.2499 24.436 22.1838 23.936 21.9479 22.8982C21.646 21.549 21.0045 19.9451 20.3818 19.0016L20.0233 18.4355H20.0327Z" fill="white"/>
</g>
<defs>
<clipPath id="clip0_8925_97077">
<rect width="40" height="40" fill="white"/>
</clipPath>
</defs>
</svg>
