<svg width="40" height="40" viewBox="0 0 40 40" fill="none" xmlns="http://www.w3.org/2000/svg">
<g clip-path="url(#clip0_8925_97073)">
<path d="M0 20C0 21.1776 0 21.3084 0.0280636 22.3084C0.1029 24.5234 0.336763 27.0654 1.22544 29.7476C1.8522 31.6449 3.03087 33.6916 4.20954 34.9813C5.70629 36.6261 7.77361 37.9718 10.0094 38.7382C12.2919 39.5232 14.7615 39.9064 19.5603 40H20.449C25.2573 39.8971 27.7175 39.5232 30 38.7382C32.2358 37.9718 34.2938 36.6261 35.7904 34.9813C36.9693 33.6823 38.1479 31.6449 38.7746 29.7476C39.6632 27.0654 39.9064 24.514 39.9718 22.3084C40 21.3178 40 21.1776 40 20C40 18.8224 40 18.6916 39.9718 17.6916C39.8971 15.4766 39.6632 12.9346 38.7746 10.2523C38.1479 8.35514 36.9693 6.30839 35.7904 5.01868C34.2938 3.37383 32.2264 2.02804 30 1.26168C27.7175 0.476636 25.2479 0.0934579 20.449 0H19.5603C14.7521 0.102804 12.2919 0.476636 10.0094 1.26168C7.77361 2.02804 5.71561 3.37383 4.20954 5.01868C3.03087 6.31775 1.8522 8.35514 1.22544 10.2523C0.346118 12.9346 0.1029 15.4766 0.0280636 17.6916C0 18.6823 0 18.8224 0 20Z" fill="#0099D9"/>
<mask id="mask0_8925_97073" style="mask-type:luminance" maskUnits="userSpaceOnUse" x="3" y="15" width="34" height="10">
<path d="M36.0706 15.3574H3.92773V24.286H36.0706V15.3574Z" fill="white"/>
</mask>
<g mask="url(#mask0_8925_97073)">
<path d="M23.4357 18.3592C22.3287 19.4658 22.3287 21.2591 23.4357 22.3656L24.9755 23.9046C25.4845 24.4134 26.3116 24.4134 26.8206 23.9046L24.352 21.4372C23.7539 20.8394 23.7539 19.8728 24.352 19.275C24.95 18.6772 25.9171 18.6772 26.5152 19.275L31.1343 23.8919C31.6432 24.4006 32.4704 24.4006 32.9794 23.8919L27.4314 18.3465C26.3243 17.24 24.5301 17.24 23.423 18.3465" fill="white"/>
<path d="M28.9832 16.8206C27.0236 14.8619 23.8551 14.8619 21.8955 16.8206C19.9359 18.7793 19.9359 21.9462 21.8955 23.905C22.4045 24.4137 23.2316 24.4137 23.7406 23.905L22.8117 22.9765C21.3356 21.552 21.2974 19.2117 22.7226 17.7363C24.1478 16.261 26.4892 16.2228 27.9652 17.6473C28.0034 17.6727 28.0289 17.7109 28.0543 17.7363L34.2131 23.8922C34.7221 24.401 35.5492 24.401 36.0582 23.8922L28.9705 16.8079L28.9832 16.8206Z" fill="white"/>
<path d="M24.9741 19.8988C24.7196 20.1532 24.7196 20.5729 24.9741 20.8273L28.0535 23.9052C28.5625 24.4139 29.3896 24.4139 29.8986 23.9052L25.8903 19.8988C25.6358 19.6444 25.2159 19.6444 24.9614 19.8988" fill="white"/>
<path d="M16.5631 18.3592C17.6702 19.4657 17.6702 21.2591 16.5631 22.3656L15.0234 23.9046C14.5145 24.4133 13.6873 24.4133 13.1784 23.9046L15.647 21.4371C16.245 20.8393 16.245 19.8727 15.647 19.2749C15.0489 18.6772 14.0818 18.6772 13.4837 19.2749L8.86464 23.8918C8.35564 24.4006 7.52853 24.4006 7.01953 23.8918L12.5548 18.3592C13.6619 17.2527 15.4561 17.2527 16.5631 18.3592Z" fill="white"/>
<path d="M11.0154 16.8206C12.9751 14.8619 16.1436 14.8619 18.1032 16.8206C20.0628 18.7793 20.0628 21.9462 18.1032 23.905C17.5942 24.4137 16.7671 24.4137 16.2581 23.905L17.187 22.9765C18.6503 21.552 18.6758 19.199 17.2506 17.7363C15.8254 16.2737 13.4713 16.2482 12.008 17.6727C11.9825 17.6982 11.9698 17.7109 11.9444 17.7363L5.77284 23.905C5.26384 24.4137 4.43673 24.4137 3.92773 23.905L11.0154 16.8206Z" fill="white"/>
<path d="M15.0104 19.8988C15.2649 20.1532 15.2649 20.5729 15.0104 20.8273L11.931 23.9052C11.422 24.4139 10.5949 24.4139 10.0859 23.9052L14.0943 19.8988C14.3488 19.6444 14.7687 19.6444 15.0232 19.8988" fill="white"/>
</g>
</g>
<defs>
<clipPath id="clip0_8925_97073">
<rect width="40" height="40" fill="white"/>
</clipPath>
</defs>
</svg>
