<svg width="40" height="40" viewBox="0 0 40 40" fill="none" xmlns="http://www.w3.org/2000/svg">
<g clip-path="url(#clip0_8925_97056)">
<path d="M0 20.005C0 21.1747 0 21.3147 0.0300075 22.3144C0.060015 24.8338 0.470118 27.3432 1.23031 29.7526C1.88047 31.6721 2.89072 33.4516 4.21105 34.9813C5.80145 36.6908 7.79195 37.9805 10.0025 38.7403C12.2831 39.5301 14.7537 39.9 19.5549 40H20.4451C25.2463 39.9 27.7169 39.5201 29.9975 38.7403C32.208 37.9805 34.1985 36.6908 35.7889 34.9813C37.1093 33.4416 38.1295 31.6721 38.7697 29.7526C39.5299 27.3432 39.94 24.8438 39.97 22.3144C40 21.3247 40 21.1847 40 20.005C40 18.8253 40 18.6953 39.97 17.7056C39.94 15.1862 39.5299 12.6768 38.7697 10.2674C38.1195 8.34791 37.1093 6.56836 35.7889 5.02874C34.1985 3.31917 32.208 2.02949 29.9975 1.26968C27.7169 0.47988 25.2463 0.099975 20.4451 0H19.5549C14.7537 0.099975 12.2831 0.47988 10.0025 1.25969C7.79195 2.0195 5.80145 3.30917 4.21105 5.01875C2.89072 6.55836 1.87047 8.32792 1.23031 10.2574C0.470118 12.6768 0.0700175 15.1762 0.0300075 17.7056C0 18.6953 0 18.8353 0 20.005Z" fill="#E72511"/>
<path d="M32.8453 22.7147H27.2501V15.7266H25.3691V24.2147H33.9287L32.8453 22.7147Z" fill="white"/>
<path d="M12.2508 15.7139C12.1556 15.8448 6.17941 24.071 6.07227 24.202H8.16752L9.84609 21.8924H12.608V20.4163H10.9175L13.1913 17.2853V24.202H15.0604V15.7139H12.2508Z" fill="white"/>
<path d="M23.8568 20.2025C23.6306 19.8692 23.333 19.5954 22.9758 19.4168C23.3925 19.0359 23.6068 18.5001 23.583 17.9406C23.6068 17.3216 23.3449 16.7263 22.8806 16.3335C22.3568 15.9168 21.702 15.7025 21.0353 15.7382H16.5234V24.2263H21.2139C22.0115 24.262 22.7973 24.012 23.4163 23.5239C23.9639 23.0478 24.2734 22.3573 24.2496 21.6311C24.2496 21.1311 24.1187 20.643 23.8449 20.2263M18.3806 17.2382H20.6663C20.952 17.2263 21.2258 17.3096 21.452 17.4763C21.7973 17.8216 21.8092 18.393 21.4639 18.7501C21.2615 18.9168 20.9996 19.0001 20.7377 18.9882H18.3806V17.2382ZM21.9639 22.4287C21.6663 22.643 21.3092 22.7501 20.9401 22.7382H18.3806V20.4763H20.8925C21.2734 20.4525 21.6425 20.5716 21.952 20.7978C22.202 21.0001 22.333 21.3096 22.321 21.6311C22.333 21.9406 22.202 22.2382 21.9639 22.4406" fill="white"/>
</g>
<defs>
<clipPath id="clip0_8925_97056">
<rect width="40" height="40" fill="white"/>
</clipPath>
</defs>
</svg>
