<svg width="40" height="40" viewBox="0 0 40 40" fill="none" xmlns="http://www.w3.org/2000/svg">
<g clip-path="url(#clip0_13473_63799)">
<mask id="mask0_13473_63799" style="mask-type:luminance" maskUnits="userSpaceOnUse" x="0" y="0" width="40" height="40">
<path d="M40 0H0V40H40V0Z" fill="white"/>
</mask>
<g mask="url(#mask0_13473_63799)">
<path d="M0 20.0004C0 21.1742 0 21.3129 0.0325 22.3042C0.0658407 24.8315 0.469723 27.3403 1.23125 29.7504C1.87792 31.6713 2.89077 33.4487 4.21375 34.9841C5.80566 36.6908 7.79272 37.9799 10 38.7379C13.096 39.6756 16.3242 40.102 19.5575 40.0004H20.4425C23.6737 40.1013 26.8997 39.6749 29.9938 38.7379C32.2038 37.9793 34.1931 36.6884 35.7863 34.9791C37.1086 33.4453 38.121 31.6696 38.7675 29.7504C39.5284 27.3423 39.9323 24.8356 39.9662 22.3104C40 21.3129 40 21.1742 40 20.0004C40 18.8267 40 18.6879 39.9675 17.6966C39.9338 15.1692 39.5295 12.6604 38.7675 10.2504C38.121 8.32942 37.1081 6.55204 35.785 5.01665C34.1919 3.30846 32.2024 2.0192 29.9925 1.2629C26.8992 0.324565 23.6734 -0.101889 20.4425 0.000400499H19.5575C16.3241 -0.10262 13.0957 0.323842 10 1.2629C7.7918 2.02155 5.8045 3.3125 4.21375 5.02165C2.89153 6.55581 1.87874 8.33138 1.23125 10.2504C0.470153 12.6589 0.0662748 15.166 0.0325 17.6917C0 18.6879 0 18.8267 0 20.0004Z" fill="#1D93DC"/>
<path d="M31.3261 18.5381C31.4778 19.0107 31.5545 19.5042 31.5536 20.0006C31.5536 24.0631 26.3811 27.3581 20.0011 27.3581C18.2734 27.3669 16.5543 27.114 14.9023 26.6081C15.9548 25.5893 17.1598 24.6918 20.4186 24.3143C23.7073 23.9393 31.5436 23.5518 31.3273 18.5418" fill="white"/>
<path d="M26.1016 17.7588C26.1016 17.1163 25.5828 16.79 24.5303 16.79C24.3441 16.79 24.1291 16.8 23.9053 16.8188C23.8138 17.4595 23.7812 18.1072 23.8078 18.7538V19.0763H24.1003C25.4428 19.0763 26.1016 18.5688 26.1016 17.7588Z" fill="white"/>
<path d="M12.788 16.7501C12.4814 16.7482 12.1756 16.7817 11.8767 16.8501C11.8088 17.5144 11.7842 18.1825 11.803 18.8501V20.2626C11.803 21.1451 11.8217 21.6926 11.8467 21.8988C11.8942 22.2263 12.1342 22.3038 12.9167 22.3038C14.4267 22.3038 15.2742 21.3038 15.2742 19.5826C15.2742 17.7813 14.3817 16.7538 12.7867 16.7538" fill="white"/>
<path d="M29.8191 17.6141C29.7569 17.0293 29.5653 16.4657 29.2583 15.9641C28.9513 15.4625 28.5365 15.0355 28.0441 14.7141C25.5995 13.3052 22.8176 12.5883 19.9966 12.6403C13.6216 12.6403 8.44531 15.9378 8.44531 19.9966C8.44531 22.8891 11.0703 25.3928 14.8766 26.5978C15.7878 24.9066 18.1078 24.0978 21.9441 23.3978C22.9607 23.226 23.9668 22.9973 24.9578 22.7128H24.8528C24.3016 22.7128 23.7916 22.6553 23.3378 22.6553H22.6003C22.8591 22.4166 22.8691 21.4841 22.8691 19.8178V19.4178C22.8691 17.6778 22.8691 16.6991 22.6003 16.4466H23.5128C24.2066 16.4466 24.8553 16.3791 25.4741 16.3791C26.5603 16.3791 27.1441 16.8241 27.1441 17.5516C27.1441 18.2466 26.5791 18.7891 25.4653 19.1291C26.7741 19.2666 27.4903 19.8791 27.4903 20.8066C27.4937 21.1966 27.3581 21.575 27.1078 21.8741C27.9445 21.5299 28.6542 20.9354 29.1398 20.1721C29.6254 19.4088 29.8631 18.514 29.8203 17.6103M12.9903 22.7141C12.3728 22.7141 11.8466 22.6653 11.4053 22.6653H10.7803C11.0504 21.7452 11.1291 20.7795 11.0116 19.8278V19.4278C11.1345 18.4319 11.0558 17.4215 10.7803 16.4566H11.4528C12.2166 16.4566 12.8891 16.3391 13.4978 16.3391C13.8785 16.321 14.2586 16.3864 14.6113 16.5307C14.9641 16.675 15.281 16.8948 15.5398 17.1746C15.7987 17.4543 15.9931 17.7874 16.1096 18.1503C16.2261 18.5132 16.2617 18.8972 16.2141 19.2753C16.2635 19.7204 16.2159 20.1709 16.0745 20.5959C15.9331 21.0208 15.7012 21.41 15.395 21.7367C15.0887 22.0634 14.7152 22.3198 14.3003 22.4884C13.8854 22.6569 13.4389 22.7335 12.9916 22.7128M21.7916 21.3178C21.765 21.7526 21.7995 22.1889 21.8941 22.6141C20.9066 22.6766 20.2066 22.7816 19.7916 22.7816C19.3751 22.8344 18.9521 22.7925 18.5541 22.659C18.1562 22.5255 17.7934 22.3039 17.493 22.0107C17.1926 21.7175 16.9623 21.3603 16.8192 20.9657C16.6761 20.571 16.6239 20.1492 16.6666 19.7316C16.6473 19.2561 16.7317 18.7821 16.9137 18.3424C17.0958 17.9027 17.3713 17.5079 17.7211 17.1852C18.0709 16.8625 18.4866 16.6198 18.9395 16.4737C19.3924 16.3276 19.8717 16.2816 20.3441 16.3391C20.8287 16.3442 21.3124 16.3834 21.7916 16.4566L21.7816 17.5903C21.5641 17.3297 21.2901 17.1219 20.9804 16.9829C20.6707 16.8439 20.3334 16.7772 19.9941 16.7878C18.5403 16.7878 17.6191 17.8503 17.6191 19.5753C17.5773 19.935 17.6156 20.2995 17.7312 20.6426C17.8467 20.9858 18.0368 21.2991 18.2876 21.5602C18.5384 21.8213 18.8439 22.0238 19.1822 22.153C19.5204 22.2823 19.883 22.3351 20.2441 22.3078C20.474 22.3114 20.7035 22.2849 20.9266 22.2291C20.9797 21.8507 21.004 21.4687 20.9991 21.0866C21.0611 20.5623 20.9817 20.031 20.7691 19.5478H22.0016C21.794 20.1137 21.7216 20.7203 21.7903 21.3191" fill="white"/>
<path d="M23.798 20.6263C23.7801 21.1217 23.8099 21.6177 23.8868 22.1075C23.938 22.2637 24.2418 22.3575 24.7518 22.3575C24.9582 22.3878 25.1689 22.372 25.3686 22.3113C25.5682 22.2506 25.752 22.1464 25.9066 22.0062C26.0612 21.866 26.1829 21.6933 26.2629 21.5006C26.3429 21.3078 26.3792 21.0997 26.3693 20.8913C26.3693 19.9913 25.7205 19.4375 24.4843 19.4375H23.798V20.6263Z" fill="white"/>
</g>
</g>
<defs>
<clipPath id="clip0_13473_63799">
<rect width="40" height="40" fill="white"/>
</clipPath>
</defs>
</svg>
