<svg width="48" height="48" viewBox="0 0 48 48" fill="none" xmlns="http://www.w3.org/2000/svg">
<path d="M42 25.1639C42 33.6019 31.549 39.8699 26.565 42.3869C25.7711 42.7881 24.894 42.9971 24.0045 42.9971C23.115 42.9971 22.2379 42.7881 21.444 42.3869C16.462 39.8719 6 33.5869 6 25.1589V12.9799C6.0094 12.4262 6.22103 11.8952 6.59497 11.4868C6.96891 11.0784 7.47932 10.8209 8.03 10.7629C12.8001 10.4033 17.3757 8.72212 21.244 5.9079C22.0422 5.31897 23.0081 5.00122 24 5.00122C24.9919 5.00122 25.9578 5.31897 26.756 5.9079C30.6243 8.72212 35.1999 10.4033 39.97 10.7629C40.5207 10.8209 41.0311 11.0784 41.405 11.4868C41.779 11.8952 41.9906 12.4262 42 12.9799V25.1639Z" fill="#E97192"/>
<path d="M30 24H18C17.4477 24 17 24.4477 17 25C17 25.5523 17.4477 26 18 26H30C30.5523 26 31 25.5523 31 25C31 24.4477 30.5523 24 30 24Z" fill="white"/>
<path d="M25 31V19C25 18.4477 24.5523 18 24 18C23.4477 18 23 18.4477 23 19V31C23 31.5523 23.4477 32 24 32C24.5523 32 25 31.5523 25 31Z" fill="white"/>
</svg>
