<svg width="36" height="36" viewBox="0 0 36 36" fill="none" xmlns="http://www.w3.org/2000/svg">
<path d="M17.9994 21.0152C19.8471 21.0164 21.6301 21.6959 23.01 22.9246C24.3899 24.1534 25.2708 25.846 25.4854 27.6812C25.51 27.92 25.6219 28.1414 25.7996 28.3028C25.9773 28.4643 26.2083 28.5545 26.4484 28.5562H32.5324C32.6658 28.5562 32.7977 28.5288 32.9201 28.4758C33.0426 28.4228 33.1528 28.3453 33.2441 28.248C33.3353 28.1508 33.4057 28.0358 33.4508 27.9103C33.4959 27.7847 33.5148 27.6513 33.5064 27.5182C33.2366 23.5884 31.4853 19.9075 28.6062 17.2193C25.7271 14.5311 21.9349 13.0359 17.9959 13.0359C14.0569 13.0359 10.2647 14.5311 7.38559 17.2193C4.50649 19.9075 2.75513 23.5884 2.48537 27.5182C2.4769 27.6513 2.4958 27.7847 2.54091 27.9103C2.58603 28.0358 2.6564 28.1508 2.74767 28.248C2.83894 28.3453 2.94919 28.4228 3.0716 28.4758C3.19401 28.5288 3.32598 28.5562 3.45937 28.5562H9.54537C9.78546 28.5545 10.0165 28.4643 10.1942 28.3028C10.3719 28.1414 10.4838 27.92 10.5084 27.6812C10.7231 25.8451 11.6046 24.1518 12.9856 22.923C14.3666 21.6941 16.1508 21.0152 17.9994 21.0152Z" fill="#E6E6E6"/>
<path d="M32.5382 29.041H26.4532C26.0948 29.039 25.7495 28.9056 25.483 28.666C25.2164 28.4263 25.0471 28.0972 25.0072 27.741C24.8068 26.0228 23.9822 24.4381 22.6902 23.2879C21.3981 22.1378 19.7285 21.5023 17.9987 21.5023C16.2689 21.5023 14.5993 22.1378 13.3072 23.2879C12.0151 24.4381 11.1906 26.0228 10.9902 27.741C10.9503 28.0972 10.781 28.4263 10.5144 28.666C10.2479 28.9056 9.90261 29.039 9.54419 29.041H3.46119C3.26098 29.0415 3.06279 29.0009 2.87893 28.9217C2.69506 28.8425 2.52944 28.7263 2.39235 28.5804C2.25526 28.4345 2.14962 28.262 2.08198 28.0735C2.01435 27.8851 1.98617 27.6848 1.99919 27.485C2.26971 23.4266 4.07267 19.6228 7.04283 16.844C10.013 14.0653 13.9283 12.5193 17.9957 12.5193C22.0631 12.5193 25.9784 14.0653 28.9485 16.844C31.9187 19.6228 33.7217 23.4266 33.9922 27.485C34.0052 27.6844 33.9771 27.8844 33.9097 28.0726C33.8423 28.2608 33.7371 28.4331 33.6004 28.5789C33.4637 28.7248 33.2986 28.841 33.1152 28.9205C32.9318 29 32.7341 29.041 32.5342 29.041M17.9992 20.528C19.9681 20.5263 21.8689 21.2489 23.3394 22.5582C24.8099 23.8675 25.7473 25.6721 25.9732 27.628C25.9847 27.7481 26.0399 27.8598 26.1285 27.9419C26.217 28.0239 26.3325 28.0706 26.4532 28.073H32.5372C32.6041 28.073 32.6704 28.0593 32.7318 28.0326C32.7933 28.006 32.8486 27.9671 32.8944 27.9183C32.9403 27.8695 32.9756 27.8118 32.9983 27.7488C33.0209 27.6858 33.0304 27.6188 33.0262 27.552C32.7715 23.7398 31.0775 20.167 28.2873 17.557C25.4972 14.947 21.8193 13.495 17.9987 13.495C14.1781 13.495 10.5002 14.947 7.71003 17.557C4.91984 20.167 3.22587 23.7398 2.97119 27.552C2.96695 27.6188 2.97645 27.6858 2.99911 27.7488C3.02177 27.8118 3.0571 27.8695 3.10292 27.9183C3.14875 27.9671 3.20409 28.006 3.26554 28.0326C3.32698 28.0593 3.39323 28.073 3.46019 28.073H9.54519C9.66585 28.0706 9.78142 28.0239 9.86992 27.9419C9.95842 27.8598 10.0137 27.7481 10.0252 27.628C10.251 25.6721 11.1885 23.8675 12.659 22.5582C14.1295 21.2489 16.0303 20.5263 17.9992 20.528Z" fill="#111111"/>
<path d="M17.9987 13.009C15.3978 13.0064 12.8381 13.6599 10.5567 14.909C10.4359 14.9759 10.3306 15.0677 10.2479 15.1783C10.1652 15.2889 10.1069 15.4158 10.0769 15.5506C10.047 15.6854 10.046 15.8251 10.0741 15.9603C10.1021 16.0956 10.1586 16.2233 10.2397 16.335L13.8527 21.31C13.9838 21.4889 14.172 21.6177 14.3863 21.675C14.6005 21.7323 14.8279 21.7146 15.0307 21.625C16.1095 21.1625 17.2814 20.9583 18.4531 21.0287C19.6247 21.099 20.7638 21.4419 21.7795 22.0301C22.7952 22.6184 23.6596 23.4356 24.3037 24.4169C24.9478 25.3981 25.354 26.5162 25.4897 27.682C25.5146 27.9207 25.6266 28.1418 25.8042 28.303C25.9819 28.4643 26.2128 28.5544 26.4527 28.556H32.5367C32.6701 28.556 32.8021 28.5287 32.9245 28.4757C33.0469 28.4227 33.1572 28.3452 33.2484 28.2479C33.3397 28.1506 33.4101 28.0357 33.4552 27.9101C33.5003 27.7846 33.5192 27.6512 33.5107 27.518C33.2474 23.5833 31.4987 19.8956 28.6186 17.2017C25.7385 14.5078 21.9423 13.0091 17.9987 13.009Z" fill="#D44B10"/>
<path d="M32.5377 29.0411H26.4537C26.0952 29.0391 25.75 28.9057 25.4834 28.6661C25.2169 28.4264 25.0476 28.0973 25.0077 27.7411C24.8804 26.6505 24.5003 25.6046 23.8976 24.6868C23.2949 23.769 22.4862 23.0046 21.536 22.4543C20.5858 21.9041 19.5203 21.5833 18.4242 21.5175C17.3282 21.4516 16.2319 21.6426 15.2227 22.0751C14.9186 22.2089 14.5779 22.2347 14.2572 22.1481C13.9365 22.0615 13.655 21.8678 13.4597 21.5991L9.84667 16.6241C9.72479 16.4565 9.63997 16.2649 9.59786 16.062C9.55574 15.8591 9.5573 15.6496 9.60242 15.4474C9.64754 15.2451 9.73519 15.0548 9.85955 14.8891C9.9839 14.7233 10.1421 14.586 10.3237 14.4861C12.6852 13.1973 15.3332 12.5236 18.0235 12.5271C20.7138 12.5307 23.36 13.2113 25.7182 14.5063C28.0763 15.8014 30.0706 17.6691 31.5171 19.9374C32.9637 22.2058 33.8161 24.8017 33.9957 27.4861C34.0087 27.6855 33.9806 27.8855 33.9132 28.0737C33.8458 28.2619 33.7405 28.4342 33.6039 28.58C33.4672 28.7259 33.3021 28.8421 33.1187 28.9216C32.9353 29.0011 32.7375 29.0411 32.5377 29.0411ZM17.9997 20.5281C19.9686 20.5264 21.8693 21.249 23.3398 22.5583C24.8103 23.8676 25.7478 25.6721 25.9737 27.6281C25.9852 27.7482 26.0404 27.8599 26.1289 27.942C26.2174 28.024 26.333 28.0707 26.4537 28.0731H32.5377C32.6046 28.0731 32.6709 28.0593 32.7323 28.0327C32.7938 28.0061 32.8491 27.9672 32.8949 27.9184C32.9408 27.8696 32.9761 27.8119 32.9987 27.7489C33.0214 27.6859 33.0309 27.6189 33.0267 27.5521C32.8588 25.0299 32.0587 22.5905 30.7001 20.4589C29.3415 18.3272 27.4682 16.5719 25.2528 15.3547C23.0373 14.1375 20.5511 13.4976 18.0233 13.494C15.4956 13.4904 13.0076 14.1232 10.7887 15.3341C10.7283 15.3667 10.6756 15.412 10.6344 15.4669C10.5931 15.5218 10.5642 15.585 10.5497 15.6521C10.5335 15.7207 10.5325 15.792 10.5466 15.8611C10.5608 15.9302 10.5898 15.9953 10.6317 16.0521L14.2447 21.0281C14.311 21.1174 14.4059 21.1813 14.5135 21.2093C14.6212 21.2374 14.7352 21.2277 14.8367 21.1821C15.8348 20.7517 16.9107 20.5304 17.9977 20.5321" fill="#111111"/>
<path d="M17.6534 8.7741L15.0054 23.4251C14.9089 23.9601 15.0279 24.5115 15.3364 24.9591L17.7104 28.4031C17.7427 28.4499 17.786 28.4882 17.8364 28.5146C17.8869 28.5411 17.9429 28.5549 17.9999 28.5549C18.0568 28.5549 18.1129 28.5411 18.1633 28.5146C18.2137 28.4882 18.257 28.4499 18.2894 28.4031L20.6634 24.9591C20.9719 24.5115 21.0909 23.9601 20.9944 23.4251L18.3454 8.7741C18.3303 8.69337 18.2874 8.62046 18.2242 8.568C18.161 8.51553 18.0815 8.48682 17.9994 8.48682C17.9172 8.48682 17.8377 8.51553 17.7745 8.568C17.7113 8.62046 17.6685 8.69337 17.6534 8.7741Z" fill="white"/>
<path d="M17.9995 29.0411C17.8638 29.041 17.7302 29.008 17.6101 28.9447C17.4901 28.8815 17.3872 28.79 17.3105 28.6781L14.9365 25.2351C14.7462 24.9611 14.6121 24.6521 14.5419 24.326C14.4717 23.9999 14.4668 23.6631 14.5275 23.3351L17.1765 8.6881C17.211 8.49465 17.3124 8.31951 17.4631 8.19335C17.6137 8.06718 17.804 7.99805 18.0005 7.99805C18.197 7.99805 18.3872 8.06718 18.5379 8.19335C18.6885 8.31951 18.79 8.49465 18.8245 8.6881L21.4725 23.3381C21.533 23.6661 21.528 24.0029 21.4579 24.329C21.3877 24.6551 21.2536 24.964 21.0635 25.2381L18.6845 28.6781C18.6075 28.7897 18.5046 28.881 18.3846 28.9441C18.2646 29.0071 18.131 29.0401 17.9955 29.0401M17.9955 9.5911L15.4845 23.5111C15.4475 23.7135 15.4509 23.9212 15.4943 24.1223C15.5377 24.3234 15.6203 24.514 15.7375 24.6831L18.0005 27.9671L20.2635 24.6831C20.3806 24.514 20.4632 24.3234 20.5067 24.1223C20.5501 23.9212 20.5534 23.7135 20.5165 23.5111L17.9955 9.5911Z" fill="#111111"/>
</svg>
