<svg width="36" height="36" viewBox="0 0 36 36" fill="none" xmlns="http://www.w3.org/2000/svg">
<path d="M30 8H6C4.34315 8 3 9.34315 3 11V29C3 30.6569 4.34315 32 6 32H30C31.6569 32 33 30.6569 33 29V11C33 9.34315 31.6569 8 30 8Z" fill="#8295F1"/>
<path d="M29 15H7C5.89543 15 5 15.8954 5 17V28C5 29.1046 5.89543 30 7 30H29C30.1046 30 31 29.1046 31 28V17C31 15.8954 30.1046 15 29 15Z" fill="white"/>
<path d="M14 6.5C14 5.67157 13.3284 5 12.5 5C11.6716 5 11 5.67157 11 6.5V11.5C11 12.3284 11.6716 13 12.5 13C13.3284 13 14 12.3284 14 11.5V6.5Z" fill="#4859AE"/>
<path d="M25 6.5C25 5.67157 24.3284 5 23.5 5C22.6716 5 22 5.67157 22 6.5V11.5C22 12.3284 22.6716 13 23.5 13C24.3284 13 25 12.3284 25 11.5V6.5Z" fill="#4859AE"/>
<path d="M11.6572 25.6661H10.5302V19.9831H9.15723V19.1541L11.6572 18.9131V25.6661Z" fill="#111111"/>
<path d="M18.0272 22.631C16.9541 22.8163 15.8661 22.9017 14.7772 22.886H14.2002V18.945H15.0502V22.186C16.0202 22.1856 16.9883 22.1027 17.9442 21.938L18.0272 22.631ZM20.1362 25.048V25.74H15.1162V23.447H15.9652V25.047L20.1362 25.048ZM19.0972 21.426H17.1202V20.754H19.0992V20.019H17.1202V19.342H19.0992V18.436H19.9492V23.936H19.0992L19.0972 21.426Z" fill="#111111"/>
<path d="M23.8041 25.808V20.23L22.7011 21.354C22.6076 21.449 22.4802 21.5031 22.3469 21.5042C22.2135 21.5053 22.0852 21.4535 21.9901 21.36C21.895 21.2665 21.841 21.139 21.8399 21.0057C21.8387 20.8724 21.8906 20.744 21.9841 20.649L23.9571 18.649C24.0514 18.5557 24.1783 18.5028 24.3109 18.5017C24.4435 18.5006 24.5713 18.5513 24.6671 18.643L26.6941 20.643C26.7891 20.7365 26.843 20.8638 26.844 20.9971C26.845 21.1303 26.7931 21.2585 26.6996 21.3535C26.6061 21.4484 26.4787 21.5023 26.3455 21.5034C26.2123 21.5044 26.0841 21.4525 25.9891 21.359L24.8041 20.189V25.808C24.8041 25.9406 24.7514 26.0678 24.6577 26.1615C24.5639 26.2553 24.4367 26.308 24.3041 26.308C24.1715 26.308 24.0443 26.2553 23.9506 26.1615C23.8568 26.0678 23.8041 25.9406 23.8041 25.808Z" fill="#111111"/>
</svg>
