<svg width="36" height="36" viewBox="0 0 36 36" fill="none" xmlns="http://www.w3.org/2000/svg">
<path d="M18.0764 22.712C18.0764 22.712 8.17738 22.077 4.44838 18.404C4.26139 18.2227 4.12584 17.9949 4.05557 17.7441C3.9853 17.4932 3.98282 17.2282 4.04838 16.976C4.80138 14.098 7.03838 3.93705 18.0764 4.00005C29.0084 3.93705 31.4204 14.14 31.9764 16.994C32.0239 17.2373 32.0094 17.4886 31.934 17.7248C31.8587 17.9609 31.725 18.1743 31.5454 18.345C30.2234 19.609 26.3614 22.436 18.0784 22.711" fill="#0B6A46"/>
<path d="M19.4362 29.6881H6.90918L7.68318 14.7201L16.5092 14.2781V14.1321L17.9712 14.2051L19.4332 14.1321V14.2781L28.2612 14.7191L29.0342 29.6881H19.4362Z" fill="#111111"/>
<path d="M16.8454 31.951C14.922 31.7161 13.0916 30.9897 11.5305 29.842C9.96943 28.6942 8.73024 27.1638 7.93236 25.3981C7.72878 25.5511 7.49087 25.652 7.23936 25.6921C6.04736 25.8761 4.87536 24.5921 4.62336 22.8251C4.37136 21.0581 5.13336 19.4781 6.32336 19.2951C6.4153 19.2809 6.50839 19.2755 6.60136 19.2791C6.61582 18.2612 6.74258 17.2481 6.97936 16.2581C7.00669 15.8687 7.04402 15.4687 7.09136 15.0581C7.84136 8.58705 13.9754 6.46605 16.4004 5.87705C17.0543 5.71623 17.7321 5.67657 18.4004 5.76005C20.2881 5.98063 22.1042 6.61397 23.7197 7.61513C25.3353 8.61629 26.7107 9.96073 27.7484 11.5531C28.3256 12.4738 28.6489 13.5309 28.6854 14.6171C28.7024 15.074 28.7144 15.6171 28.7134 16.2251C28.9334 17.1338 29.0603 18.0626 29.0924 18.9971C29.2838 18.9505 29.4825 18.9417 29.6774 18.9711C30.8704 19.1551 31.6314 20.7351 31.3774 22.5021C31.1234 24.2691 29.9544 25.5521 28.7624 25.3691C28.465 25.3196 28.1877 25.1872 27.9624 24.9871C27.1485 27.002 25.7671 28.7373 23.9859 29.9823C22.2046 31.2272 20.1003 31.9282 17.9284 32.0001H17.8284C17.5001 32.0006 17.172 31.9843 16.8454 31.951Z" fill="#FAD7C4"/>
<path d="M12.3398 20.9501C12.3398 20.0561 12.7738 19.3301 13.3108 19.3301C13.8478 19.3301 14.2818 20.0551 14.2818 20.9501C14.2818 21.8451 13.8478 22.5701 13.3108 22.5701C12.7738 22.5701 12.3398 21.8451 12.3398 20.9501Z" fill="black"/>
<path d="M21.7236 20.9501C21.7236 20.0561 22.1576 19.3301 22.6946 19.3301C23.2316 19.3301 23.6646 20.0551 23.6646 20.9501C23.6646 21.8451 23.2306 22.5701 22.6946 22.5701C22.1586 22.5701 21.7236 21.8451 21.7236 20.9501Z" fill="black"/>
<path d="M7.02349 16.091C7.04616 15.8183 7.07349 15.5416 7.10549 15.261C7.85349 8.67898 13.9835 6.52198 16.4015 5.92398C17.0549 5.76004 17.7332 5.71968 18.4015 5.80498C20.2969 6.03433 22.1177 6.68177 23.7324 7.70054C25.3471 8.71931 26.7154 10.084 27.7385 11.696C28.3148 12.6356 28.6364 13.7092 28.6715 14.811C28.6855 15.203 28.6965 15.66 28.6995 16.164C28.8378 16.7236 28.9407 17.2914 29.0075 17.864C26.0875 19.076 21.7385 18.101 18.0985 15.138C17.0727 14.3061 16.1555 13.3486 15.3685 12.288C14.564 13.6505 13.5557 14.8817 12.3785 15.939C10.7317 17.4634 8.756 18.5882 6.60449 19.226C6.62346 18.1684 6.76405 17.1165 7.02349 16.091Z" fill="#111111"/>
<path d="M6.49843 17.7302C6.75343 14.5772 8.19143 5.59815 18.0114 5.61015C18.0114 5.61015 28.7354 4.73315 29.3514 17.9701C29.3521 18.0498 29.3282 18.1278 29.2828 18.1933C29.2375 18.2588 29.173 18.3087 29.0981 18.3361C29.0233 18.3635 28.9418 18.3671 28.8649 18.3463C28.7879 18.3255 28.7193 18.2815 28.6684 18.2201C27.375 16.7239 25.7653 15.5336 23.9556 14.7355C22.1459 13.9374 20.1815 13.5513 18.2044 13.6052C16.1636 13.5707 14.1364 13.9427 12.2407 14.6993C10.345 15.4559 8.61872 16.582 7.16243 18.0121C7.10843 18.0691 7.03832 18.1082 6.96149 18.1242C6.88466 18.1402 6.80478 18.1323 6.73255 18.1016C6.66032 18.0709 6.59918 18.0189 6.55734 17.9525C6.5155 17.8861 6.49494 17.8085 6.49843 17.7302Z" fill="#19A854"/>
</svg>
