<svg width="32" height="32" viewBox="0 0 32 32" fill="none" xmlns="http://www.w3.org/2000/svg">
<path d="M5.65219 27.6689H26.3732L27.0732 23.2869H4.9502L5.65219 27.6689Z" fill="#F89D15"/>
<path d="M28.4468 12.095C22.5608 19.01 18.3028 11.476 16.7068 7.802H15.3238C13.7238 11.476 9.46976 19.01 3.58476 12.095L2.80176 12.454C3.86276 17.814 4.53076 21.176 4.94976 23.286H27.0798C27.4968 21.175 28.1658 17.813 29.2258 12.454L28.4468 12.095Z" fill="#F8C315"/>
<path d="M18.0279 6.35998C18.0253 6.75751 17.9051 7.14538 17.6824 7.47468C17.4597 7.80398 17.1445 8.05997 16.7765 8.21036C16.4085 8.36076 16.0043 8.39883 15.6147 8.31978C15.2251 8.24073 14.8676 8.04809 14.5873 7.76616C14.3071 7.48422 14.1166 7.12562 14.0398 6.73556C13.9631 6.3455 14.0036 5.94145 14.1561 5.57436C14.3087 5.20727 14.5666 4.89358 14.8972 4.67284C15.2278 4.4521 15.6164 4.33419 16.0139 4.33398C16.2793 4.33451 16.5419 4.38736 16.7868 4.48951C17.0317 4.59166 17.254 4.7411 17.4411 4.92928C17.6282 5.11747 17.7763 5.3407 17.877 5.5862C17.9777 5.83169 18.029 6.09464 18.0279 6.35998Z" fill="#F8C315"/>
<path d="M4.36477 10.7059C4.36201 11.1032 4.24169 11.4908 4.01897 11.8198C3.79626 12.1488 3.48113 12.4045 3.11331 12.5547C2.74549 12.7048 2.34144 12.7428 1.95211 12.6636C1.56277 12.5845 1.20558 12.3919 0.925551 12.11C0.645526 11.8282 0.455208 11.4698 0.37859 11.0799C0.301972 10.6901 0.342483 10.2863 0.495016 9.91947C0.647549 9.55262 0.905276 9.23914 1.23571 9.01855C1.56614 8.79796 1.95448 8.68014 2.35177 8.67993C2.61703 8.68059 2.87956 8.73353 3.12434 8.83574C3.36912 8.93795 3.59135 9.08741 3.77832 9.27558C3.96528 9.46376 4.11331 9.68694 4.21394 9.93237C4.31457 10.1778 4.36583 10.4407 4.36477 10.7059Z" fill="#F8C315"/>
<path d="M31.687 10.7059C31.6843 11.1033 31.5639 11.491 31.3411 11.82C31.1183 12.149 30.8031 12.4048 30.4351 12.5549C30.0672 12.705 29.663 12.7428 29.2736 12.6635C28.8842 12.5842 28.5271 12.3914 28.2471 12.1093C27.9672 11.8273 27.777 11.4687 27.7006 11.0787C27.6242 10.6888 27.665 10.2849 27.8179 9.91808C27.9707 9.55127 28.2287 9.23793 28.5594 9.01758C28.8901 8.79723 29.2787 8.67974 29.676 8.67993C29.9412 8.68059 30.2036 8.73355 30.4483 8.83578C30.693 8.93801 30.9151 9.08751 31.1019 9.27571C31.2887 9.4639 31.4365 9.6871 31.5369 9.93253C31.6373 10.1779 31.6884 10.4408 31.687 10.7059Z" fill="#F8C315"/>
</svg>
