<svg width="56" height="56" viewBox="0 0 56 56" fill="none" xmlns="http://www.w3.org/2000/svg">
<g clip-path="url(#clip0_9412_78659)">
<path d="M0 28C0 29.6486 0 29.8318 0.039289 31.2318C0.14406 34.3327 0.471469 37.8916 1.71562 41.6467C2.59308 44.3028 4.24322 47.1682 5.89335 48.9739C7.9888 51.2765 10.883 53.1605 14.0131 54.2335C17.2086 55.3325 20.666 55.869 27.3845 56H28.6287C35.3601 55.856 38.8045 55.3325 42 54.2335C45.1301 53.1605 48.0112 51.2765 50.1065 48.9739C51.757 47.1552 53.407 44.3028 54.2845 41.6467C55.5285 37.8916 55.869 34.3196 55.9605 31.2318C56 29.8449 56 29.6486 56 28C56 26.3514 56 26.1682 55.9605 24.7682C55.856 21.6673 55.5285 18.1084 54.2845 14.3532C53.407 11.6972 51.757 8.83175 50.1065 7.02615C48.0112 4.72337 45.117 2.83925 42 1.76636C38.8045 0.66729 35.347 0.130841 28.6287 0H27.3845C20.653 0.143925 17.2086 0.66729 14.0131 1.76636C10.883 2.83925 8.00185 4.72337 5.89335 7.02615C4.24322 8.84485 2.59308 11.6972 1.71562 14.3532C0.484565 18.1084 0.14406 21.6673 0.039289 24.7682C0 26.1551 0 26.3514 0 28Z" fill="#E82118"/>
<mask id="mask0_9412_78659" style="mask-type:luminance" maskUnits="userSpaceOnUse" x="6" y="21" width="44" height="13">
<path d="M49.5 21H6.5V33.4222H49.5V21Z" fill="white"/>
</mask>
<g mask="url(#mask0_9412_78659)">
<path d="M15.7345 25.0456C15.2619 25.0143 14.7895 25.1082 14.3649 25.3178C13.9402 25.5275 13.5784 25.8455 13.316 26.2398C13.0838 25.8438 12.7444 25.5215 12.3369 25.3102C11.9294 25.0989 11.4704 25.0072 11.0129 25.0456C10.5785 25.0381 10.1486 25.1342 9.75875 25.3261C9.3689 25.518 9.0305 25.8 8.7715 26.1489V25.2768H6.5V32.8879H8.88265V28.5153C8.87365 28.3514 8.8972 28.1873 8.95185 28.0326C9.00655 27.8778 9.0913 27.7353 9.2012 27.6134C9.31115 27.4915 9.44405 27.3925 9.59235 27.3222C9.7407 27.2519 9.9015 27.2115 10.0654 27.2035C10.0995 27.2018 10.1336 27.2018 10.1677 27.2035C10.4778 27.1811 10.7841 27.2823 11.0199 27.4848C11.2558 27.6874 11.402 27.975 11.4267 28.2849C11.4304 28.3534 11.4286 28.422 11.4211 28.4902V32.9009H13.7736V28.5064C13.7667 28.3426 13.7923 28.1791 13.8488 28.0252C13.9051 27.8713 13.9913 27.73 14.1024 27.6094C14.2134 27.4889 14.3472 27.3914 14.496 27.3226C14.6448 27.2538 14.8055 27.215 14.9693 27.2084C15.0042 27.2084 15.04 27.2084 15.0757 27.2084C15.2458 27.1955 15.4167 27.2203 15.5762 27.2811C15.7356 27.3418 15.8796 27.4371 15.9979 27.56C16.1163 27.683 16.206 27.8305 16.2608 27.9922C16.3155 28.1538 16.3338 28.3255 16.3144 28.495V32.9058H18.6175V27.975C18.65 27.6233 18.6125 27.2685 18.5072 26.9314C18.4019 26.5942 18.2308 26.2812 18.004 26.0104C17.7772 25.7396 17.4989 25.5163 17.1854 25.3535C16.8719 25.1907 16.5293 25.0916 16.1773 25.0618C16.0303 25.0447 15.8823 25.0393 15.7345 25.0456Z" fill="white"/>
<path d="M30.3962 26.3015V25.2696H28.0898V32.8807H30.4724V29.5546C30.4724 28.0392 31.3356 27.4884 32.2912 27.4884C32.5412 27.4865 32.7907 27.512 33.0351 27.5646V25.2656C32.8303 25.2129 32.6195 25.1873 32.4081 25.1893C32.003 25.1728 31.6012 25.2678 31.2464 25.4639C30.8917 25.66 30.5976 25.9498 30.3962 26.3015Z" fill="white"/>
<path d="M36.2404 25.2754H33.8594V32.8865H36.2404V25.2754Z" fill="white"/>
<path d="M40.5515 23.0498H38.4196V24.029C38.4349 24.1765 38.4208 24.3256 38.3782 24.4677C38.3356 24.6097 38.2654 24.742 38.1715 24.8568C38.0777 24.9716 37.962 25.0668 37.8313 25.1367C37.7005 25.2067 37.5572 25.2501 37.4096 25.2645C37.344 25.27 37.2781 25.27 37.2125 25.2645H36.8223V27.3016H38.2014V30.5636C38.1839 30.8697 38.2271 31.1762 38.3285 31.4656C38.4299 31.755 38.5875 32.0215 38.7922 32.2498C38.9968 32.4781 39.2445 32.6638 39.5211 32.7961C39.7977 32.9284 40.0977 33.0048 40.4039 33.0208C40.539 33.0305 40.6748 33.028 40.8095 33.0135C41.2331 33.0339 41.656 32.9608 42.0482 32.7994V30.8694C41.8424 30.9165 41.6323 30.9421 41.4212 30.9457C40.9044 30.9457 40.558 30.7769 40.558 30.1498V27.3024H42.0791V25.2727H40.5515V23.0498Z" fill="white"/>
<path d="M35.0348 21C34.6268 21.0022 34.2362 21.1662 33.9489 21.4559C33.6615 21.7457 33.5008 22.1376 33.502 22.5456C33.5031 22.9537 33.666 23.3446 33.9549 23.6327C34.2439 23.9209 34.6353 24.0827 35.0434 24.0827C35.4514 24.0827 35.8427 23.9209 36.1317 23.6327C36.4206 23.3446 36.5835 22.9537 36.5846 22.5456C36.5858 22.1376 36.4251 21.7457 36.1377 21.4559C35.8504 21.1662 35.4599 21.0022 35.0519 21H35.0348Z" fill="white"/>
<path d="M23.3256 24.9969C22.2519 25.0325 21.2355 25.49 20.4969 26.2701C19.7582 27.0502 19.3569 28.09 19.3798 29.164C19.4028 30.2381 19.8482 31.2598 20.6195 32.0076C21.3908 32.7554 22.4258 33.1691 23.5 33.1588C24.2159 33.2063 24.9296 33.0386 25.5494 32.6772C26.1692 32.3157 26.6666 31.7771 26.9778 31.1307L25.0081 30.4006C24.861 30.6556 24.644 30.8632 24.3827 30.9988C24.1213 31.1344 23.8265 31.1922 23.5333 31.1656C23.1012 31.194 22.6746 31.0557 22.3414 30.779C22.0082 30.5024 21.7937 30.1086 21.7421 29.6786H27.2253C27.2603 29.4368 27.2766 29.1927 27.274 28.9485C27.3188 28.4731 27.2691 27.9936 27.1278 27.5375C26.9866 27.0815 26.7565 26.6578 26.4508 26.291C26.1451 25.9243 25.7699 25.6216 25.3467 25.4005C24.9236 25.1793 24.4608 25.0441 23.9852 25.0026C23.7659 24.9817 23.5452 24.9798 23.3256 24.9969ZM21.7842 28.1559C21.8323 27.7807 22.0213 27.4378 22.3128 27.1968C22.6043 26.9558 22.9765 26.8346 23.3541 26.8579C23.7218 26.8096 24.0937 26.9086 24.3888 27.1333C24.6839 27.3581 24.8783 27.6903 24.9295 28.0577C24.9295 28.0901 24.9368 28.125 24.9384 28.1591L21.7842 28.1559Z" fill="white"/>
<path d="M45.8788 30.8491L49.4369 27.1888V25.2734H43.059V27.3104H46.3534L42.9648 30.8329V32.8845H49.4994V30.8475L45.8788 30.8491Z" fill="white"/>
</g>
</g>
<defs>
<clipPath id="clip0_9412_78659">
<rect width="56" height="56" fill="white"/>
</clipPath>
</defs>
</svg>
