<svg width="56" height="56" viewBox="0 0 56 56" fill="none" xmlns="http://www.w3.org/2000/svg">
<g clip-path="url(#clip0_9412_78653)">
<path d="M0 28C0 29.638 0 29.834 0.0420105 31.234C0.084021 34.762 0.658165 38.276 1.72243 41.65C2.63266 44.338 4.04701 46.83 5.89547 48.972C8.12203 51.366 10.9087 53.172 14.0035 54.236C17.1963 55.342 20.6552 55.86 27.3768 56H28.6232C35.3448 55.86 38.8037 55.328 41.9965 54.236C45.0913 53.172 47.878 51.366 50.1045 48.972C51.953 46.83 53.3813 44.338 54.2776 41.65C55.3418 38.276 55.916 34.776 55.958 31.234C56 29.848 56 29.652 56 28C56 26.348 56 26.166 55.958 24.78C55.916 21.238 55.3418 17.738 54.2776 14.364C53.3673 11.676 51.953 9.184 50.1045 7.028C47.878 4.634 45.0913 2.828 41.9965 1.764C38.8037 0.658 35.3448 0.14 28.6232 0H27.3768C20.6552 0.14 17.1963 0.672 14.0035 1.764C10.9087 2.828 8.12203 4.634 5.89547 7.028C4.04701 9.184 2.61865 11.662 1.72243 14.364C0.658165 17.724 0.0980245 21.238 0.0420105 24.766C0 26.152 0 26.348 0 28Z" fill="#1D8097"/>
<path d="M27.4827 41.1038H15.3727V21.8538C15.1907 19.2218 16.6467 16.7578 19.0407 15.6518C20.5107 14.9658 22.1207 14.6298 23.7307 14.7138V18.3538C22.6527 18.2698 21.5747 18.4798 20.6087 18.9278C19.5867 19.4038 18.9427 20.4538 18.9987 21.5878V21.7698V37.4638H23.8147V30.2538H31.5007V33.8938H27.4547V41.1038H27.4827Z" fill="white"/>
<path d="M31.5704 41.2858H31.5144V37.6458H31.5704C36.4284 37.6458 36.9184 34.3418 36.9744 33.6838C37.2124 32.0458 36.8484 30.3798 35.9804 28.9798L35.0424 27.9018L35.8824 26.7258C36.2184 26.0398 36.3724 25.2978 36.3584 24.5418V18.5638H31.5424V25.7178H23.8984V22.0778H27.8884V14.9238H39.9984V24.4998C39.9984 25.5778 39.8304 26.6558 39.4524 27.6778C40.4324 29.6098 40.8384 31.7938 40.6144 33.9498C40.4744 36.4698 38.4164 41.2998 31.5844 41.2998" fill="white"/>
</g>
<defs>
<clipPath id="clip0_9412_78653">
<rect width="56" height="56" fill="white"/>
</clipPath>
</defs>
</svg>
