<svg width="56" height="56" viewBox="0 0 56 56" fill="none" xmlns="http://www.w3.org/2000/svg">
<g clip-path="url(#clip0_9412_78662)">
<path d="M0 28C0 29.6486 0 29.8318 0.039289 31.2318C0.14406 34.3327 0.471469 37.8916 1.71562 41.6467C2.59308 44.3028 4.24322 47.1682 5.89335 48.9739C7.9888 51.2765 10.883 53.1605 14.0131 54.2335C17.2086 55.3325 20.666 55.869 27.3845 56H28.6287C35.3601 55.856 38.8045 55.3325 42 54.2335C45.1301 53.1605 48.0112 51.2765 50.1065 48.9739C51.757 47.1552 53.407 44.3028 54.2845 41.6467C55.5285 37.8916 55.869 34.3196 55.9605 31.2318C56 29.8449 56 29.6486 56 28C56 26.3514 56 26.1682 55.9605 24.7682C55.856 21.6673 55.5285 18.1084 54.2845 14.3532C53.407 11.6972 51.757 8.83175 50.1065 7.02615C48.0112 4.72337 45.117 2.83925 42 1.76636C38.8045 0.66729 35.347 0.130841 28.6287 0H27.3845C20.653 0.143925 17.2086 0.66729 14.0131 1.76636C10.883 2.83925 8.00185 4.72337 5.89335 7.02615C4.24322 8.84485 2.59308 11.6972 1.71562 14.3532C0.484565 18.1084 0.14406 21.6673 0.039289 24.7682C0 26.1551 0 26.3514 0 28Z" fill="#003CDC"/>
<path d="M11.7603 27.8787L12.6679 26.6471C11.9941 26.3229 11.3066 25.8303 10.8013 25.1688C10.2954 24.5339 9.9586 23.7561 9.9586 22.8353V21.7726H8.2727V22.8613C8.2727 23.7948 7.94855 24.6247 7.43 25.3378C6.9114 26.0636 6.22385 26.6343 5.49805 27.0487L6.5092 28.2288C7.0926 27.8786 7.66275 27.4377 8.12975 26.9324C8.58405 26.4525 8.94645 25.9212 9.16695 25.4154C9.6988 26.4005 10.5159 27.2044 11.7603 27.8787ZM15.0796 25.5839H16.9594V24.2225H15.0796V21.5H13.4718V28.3452H15.0796V25.5839ZM8.2727 33.7775H15.0791V28.8122H8.2727V33.7775ZM13.4712 30.1735V32.4296H9.86725V30.1735H13.4712ZM23.5841 28.0859L24.4916 26.8288C23.8046 26.4786 23.1176 26.0121 22.6378 25.3894C22.1325 24.78 21.8211 24.0281 21.8211 23.0557V21.7726H20.1092V23.0818C20.1092 23.9633 19.8111 24.7411 19.3313 25.4154C18.8515 26.1024 18.1385 26.6991 17.3479 27.2171L18.3457 28.4233C18.9684 28.0471 19.5258 27.5546 19.9923 27.0748C20.4466 26.595 20.7962 26.0897 20.9907 25.6227C21.1979 26.0376 21.5481 26.4913 22.0018 26.9191C22.4561 27.3733 23.0135 27.775 23.5841 28.0859ZM25.8141 28.41H27.4219V21.5H25.8141V23.6525H23.5453V25.0786H25.8141V28.41ZM27.227 31.107C27.227 30.2771 26.8901 29.5769 26.3327 29.0715C25.7621 28.5662 24.9714 28.2676 24.0379 28.2676C23.1043 28.2676 22.3265 28.5657 21.7691 29.0715C21.1984 29.5769 20.8743 30.2771 20.8743 31.107C20.8743 31.9753 21.1984 32.6756 21.7691 33.1814C22.3265 33.6612 23.1043 33.946 24.0379 33.946C24.9714 33.946 25.7621 33.6607 26.3327 33.1814C26.8901 32.6756 27.227 31.9753 27.227 31.107ZM25.6457 31.107C25.6457 32.0013 24.9714 32.5975 24.0379 32.5975C23.1043 32.5975 22.4561 32.0013 22.4561 31.107C22.4561 30.225 23.1043 29.6289 24.0379 29.6289C24.5044 29.6289 24.8933 29.7845 25.1914 30.0438C25.3353 30.181 25.4498 30.3459 25.5279 30.5287C25.606 30.7115 25.6461 30.9083 25.6457 31.107ZM33.8522 28.1901L34.7724 26.9711C33.4239 26.1412 32.6205 24.8968 32.6205 23.1726V21.941H31.0127V23.1987C31.0127 24.1317 30.7662 24.9096 30.3645 25.5711C29.9495 26.2449 29.3661 26.7895 28.7312 27.2693L29.7418 28.4748C30.6758 27.8138 31.4792 26.9064 31.8554 26.0249C32.0499 26.4398 32.348 26.8671 32.7109 27.2432C33.0471 27.6086 33.431 27.9271 33.8522 28.1901ZM37.5338 28.5396H39.0896V21.5H37.5338V24.145H36.5487V21.6297H34.9929V28.0471H36.5487V25.493H37.5338V28.5396ZM38.9987 31.2622C38.9987 30.4716 38.6491 29.7846 38.0784 29.3048C37.5078 28.825 36.6911 28.5396 35.7576 28.5396C34.8112 28.5396 33.9946 28.8255 33.4239 29.3048C32.8405 29.7846 32.4909 30.4716 32.4909 31.2622C32.4909 32.0921 32.8405 32.7925 33.4239 33.2718C33.9946 33.7388 34.8112 34.0108 35.7576 34.0108C36.6916 34.0108 37.5083 33.7388 38.0784 33.2718C38.6491 32.792 38.9987 32.0921 38.9987 31.2622ZM37.3781 31.2622C37.3781 32.1049 36.7044 32.6496 35.7576 32.6496C34.7724 32.6496 34.0854 32.1049 34.0854 31.2622C34.0854 30.4328 34.7724 29.8754 35.7576 29.8754C36.7044 29.8754 37.3781 30.4328 37.3781 31.2622ZM48.9038 28.3325H50.4985V21.5H48.9038V22.9133H46.583V21.9671H41.0215V27.5673H46.583V26.7251H48.9038V28.3325ZM50.304 31.107C50.304 30.2771 49.967 29.5769 49.4097 29.0715C48.8391 28.5662 48.0484 28.2676 47.1148 28.2676C46.1813 28.2676 45.4034 28.5657 44.846 29.0715C44.2754 29.5769 43.9513 30.2771 43.9513 31.107C43.9513 31.9753 44.2754 32.6756 44.846 33.1814C45.4034 33.6612 46.1813 33.946 47.1148 33.946C48.0484 33.946 48.8391 33.6607 49.4097 33.1814C49.967 32.6756 50.304 31.9753 50.304 31.107ZM48.7221 31.107C48.7221 32.0013 48.0484 32.5975 47.1143 32.5975C46.1813 32.5975 45.533 32.0013 45.533 31.107C45.533 30.225 46.1813 29.6289 47.1148 29.6289C47.5813 29.6289 47.9703 29.7845 48.2684 30.0438C48.4123 30.181 48.5267 30.3459 48.6048 30.5287C48.6829 30.7115 48.7225 30.9083 48.7221 31.107ZM44.9757 23.3151V26.2061H42.616V23.3151H44.9757ZM48.9038 24.2746V25.3633H46.583V24.2746H48.9038Z" fill="white"/>
</g>
<defs>
<clipPath id="clip0_9412_78662">
<rect width="56" height="56" fill="white"/>
</clipPath>
</defs>
</svg>
