<svg width="56" height="56" viewBox="0 0 56 56" fill="none" xmlns="http://www.w3.org/2000/svg">
<g clip-path="url(#clip0_9412_78134)">
<mask id="mask0_9412_78134" style="mask-type:luminance" maskUnits="userSpaceOnUse" x="0" y="0" width="56" height="56">
<path d="M56 0H0V56H56V0Z" fill="white"/>
</mask>
<g mask="url(#mask0_9412_78134)">
<path d="M0 28.0019C0 29.6506 0 29.8337 0.0392798 31.2337C0.144026 34.3346 0.471357 37.8935 1.71522 41.6487C2.59247 44.3047 4.24222 47.1701 5.89197 48.9758C7.9869 51.2784 10.8805 53.1628 14.0098 54.2355C17.2045 55.3348 20.6612 55.8709 27.378 56.002H28.6219C35.3518 55.8579 38.7954 55.3348 41.9901 54.2355C45.1194 53.1628 47.9999 51.2784 50.1081 48.9758C51.7575 47.1571 53.4074 44.3047 54.2846 41.6487C55.5284 37.8935 55.869 34.3215 55.9605 31.2337C56 29.8468 56 29.6506 56 28.0019C56 26.3533 56 26.1701 55.9605 24.7702C55.856 21.6692 55.5284 18.1104 54.2846 14.3552C53.4074 11.6991 51.7575 8.8337 50.1081 7.02813C48.013 4.72531 45.1194 2.8412 41.9901 1.76831C38.7954 0.669242 35.3388 0.132794 28.6219 0.00195312H27.378C20.6481 0.145878 17.2045 0.669242 14.0098 1.76831C10.8805 2.8412 8.00001 4.72531 5.89197 7.02813C4.24222 8.8468 2.59247 11.6991 1.71522 14.3552C0.484451 18.1104 0.144026 21.6692 0.0392798 24.7702C0 26.1571 0 26.3533 0 28.0019Z" fill="#E3333F"/>
<path d="M44.4557 32.6372L41.1962 28.7129H41.17L40.293 30.7404C40.293 30.7404 40.293 30.7666 40.293 30.7797L41.7198 32.5849C41.8245 32.7157 41.9293 32.7549 42.0994 32.7549" fill="white"/>
<path d="M42.1378 23.2578C40.7633 23.2578 40.0303 23.6764 39.6114 24.5529L37.0195 30.5178C36.8624 30.871 36.6399 31.0411 36.1818 31.0411V23.3494C36.1818 23.3494 36.1425 23.2578 36.077 23.2578H34.1789C34.1789 23.2578 34.0742 23.2971 34.0742 23.3494V32.5716C34.0742 32.6631 34.1528 32.7416 34.2575 32.7416H36.3912C37.7657 32.7416 38.394 32.323 38.8129 31.4466L41.3655 25.5601C41.5749 25.1415 41.8629 24.9584 42.4651 24.9584" fill="white"/>
<path d="M19.2177 28.0068C19.977 27.7059 20.6184 27.0388 20.6184 25.9269C20.6184 24.2656 19.0999 23.2715 17.2935 23.2715H11.6647C11.6647 23.2715 11.56 23.3107 11.56 23.363V24.8674C11.56 24.8674 11.5992 24.9589 11.6647 24.9589H16.9008C17.7385 24.9589 18.3145 25.4429 18.3145 26.0446C18.3145 26.6464 17.7385 27.1304 16.9008 27.1304H13.7853V26.0054C13.7853 26.0054 13.746 25.9138 13.6806 25.9138H11.6516C11.6516 25.9138 11.5469 25.9531 11.5469 26.0054V32.6506C11.5469 32.6506 11.5861 32.7421 11.6516 32.7421H17.2018C19.2701 32.7421 20.7624 31.8396 20.7624 29.982C20.7624 29.0664 20.1864 28.3208 19.2177 28.0068ZM17.0055 31.0939H13.7853V28.8702H17.0055C17.8694 28.8702 18.4585 29.3672 18.4585 29.982C18.4585 30.5969 17.8694 31.0939 17.0055 31.0939Z" fill="white"/>
<path d="M24.3362 25.9131H22.425C22.425 25.9131 22.3203 25.9523 22.3203 26.0047V32.6498C22.3203 32.6498 22.3596 32.7414 22.425 32.7414H24.3362C24.3362 32.7414 24.4409 32.7022 24.4409 32.6498V26.0047C24.4409 26.0047 24.4017 25.9131 24.3362 25.9131Z" fill="white"/>
<path d="M32.1642 23.2582H30.2661C30.2661 23.2582 30.1614 23.2975 30.1614 23.3498V31.0414C29.7163 31.0414 29.4938 30.8714 29.3367 30.5182L26.7448 24.5532C26.3259 23.6768 25.5929 23.2582 24.2184 23.2582H22.425C22.425 23.2582 22.3203 23.2975 22.3203 23.3498V24.8541C22.3203 24.8541 22.3596 24.9457 22.425 24.9457H23.8781C24.4802 24.9457 24.7813 25.1288 24.9776 25.5474L27.5302 31.4339C27.9491 32.3103 28.5775 32.7289 29.9519 32.7289H32.0856C32.1773 32.7289 32.2558 32.6504 32.2558 32.5588V23.3367C32.2558 23.3367 32.2165 23.2451 32.1511 23.2451" fill="white"/>
</g>
</g>
<defs>
<clipPath id="clip0_9412_78134">
<rect width="56" height="56" fill="white"/>
</clipPath>
</defs>
</svg>
