<svg width="56" height="56" viewBox="0 0 56 56" fill="none" xmlns="http://www.w3.org/2000/svg">
<g clip-path="url(#clip0_13473_63837)">
<mask id="mask0_13473_63837" style="mask-type:luminance" maskUnits="userSpaceOnUse" x="0" y="0" width="56" height="56">
<path d="M56 0H0V56H56V0Z" fill="white"/>
</mask>
<g mask="url(#mask0_13473_63837)">
<path d="M0 27.9996C0 29.6428 0 29.8371 0.0455 31.2248C0.092177 34.7631 0.657612 38.2754 1.72375 41.6496C2.62909 44.3388 4.04707 46.8271 5.89925 48.9768C8.12792 51.3661 10.9098 53.1708 14 54.2321C18.3344 55.5448 22.8539 56.1418 27.3805 55.9996H28.6195C33.1432 56.1408 37.6596 55.5438 41.9913 54.2321C45.0853 53.1701 47.8704 51.3628 50.1007 48.9698C51.952 46.8224 53.3694 44.3365 54.2745 41.6496C55.3398 38.2782 55.9052 34.7689 55.9528 31.2336C56 29.8371 56 29.6428 56 27.9996C56 26.3563 56 26.1621 55.9545 24.7743C55.9073 21.236 55.3413 17.7236 54.2745 14.3496C53.3694 11.6602 51.9514 9.17188 50.099 7.02233C47.8687 4.63087 45.0834 2.8259 41.9895 1.76708C37.6589 0.453415 33.1427 -0.143622 28.6195 -0.000415865H27.3805C22.8538 -0.144644 18.334 0.452402 14 1.76708C10.9085 2.82919 8.1263 4.63652 5.89925 7.02933C4.04814 9.17715 2.63024 11.6629 1.72375 14.3496C0.658214 17.7215 0.0927847 21.2314 0.0455 24.7673C0 26.1621 0 26.3563 0 27.9996Z" fill="#1D93DC"/>
<path d="M43.8565 25.9521C44.0689 26.6138 44.1764 27.3047 44.175 27.9996C44.175 33.6871 36.9335 38.3001 28.0015 38.3001C25.5828 38.3125 23.176 37.9585 20.8633 37.2501C22.3368 35.8239 24.0238 34.5674 28.586 34.0389C33.1903 33.5139 44.161 32.9714 43.8583 25.9574" fill="white"/>
<path d="M36.5422 24.8621C36.5422 23.9626 35.8159 23.5059 34.3424 23.5059C34.0817 23.5059 33.7807 23.5199 33.4674 23.5461C33.3393 24.443 33.2936 25.3498 33.3309 26.2551V26.7066H33.7404C35.6199 26.7066 36.5422 25.9961 36.5422 24.8621Z" fill="white"/>
<path d="M17.9032 23.4493C17.4739 23.4466 17.0458 23.4936 16.6274 23.5893C16.5324 24.5194 16.4979 25.4547 16.5242 26.3893V28.3668C16.5242 29.6023 16.5504 30.3688 16.5854 30.6576C16.6519 31.1161 16.9879 31.2246 18.0834 31.2246C20.1974 31.2246 21.3839 29.8246 21.3839 27.4148C21.3839 24.8931 20.1344 23.4546 17.9014 23.4546" fill="white"/>
<path d="M41.7475 24.6584C41.6604 23.8397 41.3922 23.0506 40.9624 22.3484C40.5326 21.6462 39.9519 21.0484 39.2625 20.5984C35.8401 18.6258 31.9454 17.6222 27.996 17.6951C19.071 17.6951 11.8242 22.3116 11.8242 27.9939C11.8242 32.0434 15.4992 35.5486 20.828 37.2356C22.1037 34.8679 25.3517 33.7356 30.7225 32.7556C32.1457 32.515 33.5543 32.1948 34.9417 31.7966H34.7947C34.023 31.7966 33.309 31.7161 32.6737 31.7161H31.6412C32.0035 31.3819 32.0175 30.0764 32.0175 27.7436V27.1836C32.0175 24.7476 32.0175 23.3774 31.6412 23.0239H32.9187C33.89 23.0239 34.7982 22.9294 35.6645 22.9294C37.1852 22.9294 38.0025 23.5524 38.0025 24.5709C38.0025 25.5439 37.2115 26.3034 35.6522 26.7794C37.4845 26.9719 38.4872 27.8294 38.4872 29.1279C38.4919 29.6738 38.3021 30.2036 37.9517 30.6224C39.123 30.1405 40.1167 29.3082 40.7965 28.2396C41.4763 27.1709 41.8091 25.9182 41.7492 24.6531M18.1872 31.7984C17.3227 31.7984 16.586 31.7301 15.9682 31.7301H15.0932C15.4714 30.442 15.5816 29.09 15.417 27.7576V27.1976C15.589 25.8033 15.4789 24.3887 15.0932 23.0379H16.0347C17.104 23.0379 18.0455 22.8734 18.8977 22.8734C19.4307 22.848 19.9628 22.9395 20.4567 23.1416C20.9505 23.3436 21.3942 23.6513 21.7566 24.043C22.1189 24.4347 22.3912 24.901 22.5542 25.409C22.7173 25.9171 22.7672 26.4547 22.7005 26.9841C22.7697 27.6072 22.703 28.238 22.505 28.8328C22.3071 29.4277 21.9825 29.9726 21.5537 30.43C21.1249 30.8874 20.6021 31.2464 20.0212 31.4823C19.4404 31.7183 18.8153 31.8255 18.189 31.7966M30.509 29.8436C30.4718 30.4523 30.5201 31.0631 30.6525 31.6584C29.27 31.7459 28.29 31.8929 27.709 31.8929C27.126 31.9668 26.5338 31.9081 25.9766 31.7212C25.4194 31.5344 24.9116 31.2241 24.491 30.8137C24.0704 30.4032 23.748 29.903 23.5476 29.3506C23.3473 28.7981 23.2743 28.2075 23.334 27.6229C23.307 26.9572 23.4251 26.2936 23.68 25.678C23.9349 25.0625 24.3206 24.5097 24.8103 24.0579C25.3 23.6062 25.882 23.2663 26.5161 23.0617C27.1502 22.8572 27.8211 22.7929 28.4825 22.8734C29.161 22.8805 29.8382 22.9355 30.509 23.0379L30.495 24.6251C30.1905 24.2602 29.8069 23.9694 29.3733 23.7747C28.9397 23.58 28.4675 23.4866 27.9925 23.5016C25.9572 23.5016 24.6675 24.9891 24.6675 27.4041C24.609 27.9076 24.6626 28.4179 24.8244 28.8983C24.9862 29.3787 25.2522 29.8174 25.6034 30.1829C25.9546 30.5485 26.3823 30.8319 26.8558 31.0129C27.3293 31.1938 27.837 31.2678 28.3425 31.2296C28.6644 31.2345 28.9856 31.1975 29.298 31.1194C29.3724 30.5896 29.4063 30.0548 29.3995 29.5199C29.4863 28.7859 29.3751 28.0421 29.0775 27.3656H30.803C30.5123 28.1578 30.411 29.007 30.5072 29.8454" fill="white"/>
<path d="M33.3176 28.8762C33.2926 29.5698 33.3342 30.2642 33.4418 30.9499C33.5136 31.1687 33.9388 31.2999 34.6528 31.2999C34.9419 31.3424 35.2368 31.3203 35.5164 31.2352C35.7959 31.1502 36.0532 31.0043 36.2696 30.8081C36.4861 30.6118 36.6565 30.3701 36.7685 30.1002C36.8805 29.8303 36.9313 29.539 36.9173 29.2472C36.9173 27.9872 36.0091 27.2119 34.2783 27.2119H33.3176V28.8762Z" fill="white"/>
</g>
</g>
<defs>
<clipPath id="clip0_13473_63837">
<rect width="56" height="56" fill="white"/>
</clipPath>
</defs>
</svg>
