<svg width="56" height="56" viewBox="0 0 56 56" fill="none" xmlns="http://www.w3.org/2000/svg">
<g clip-path="url(#clip0_9412_78655)">
<path d="M0 28C0 29.6486 0 29.8318 0.039289 31.2318C0.14406 34.3327 0.471469 37.8916 1.71562 41.6467C2.59308 44.3028 4.24322 47.1682 5.89335 48.9739C7.9888 51.2765 10.883 53.1605 14.0131 54.2335C17.2086 55.3325 20.666 55.869 27.3845 56H28.6287C35.3601 55.856 38.8045 55.3325 42 54.2335C45.1301 53.1605 48.0112 51.2765 50.1065 48.9739C51.757 47.1552 53.407 44.3028 54.2845 41.6467C55.5285 37.8916 55.869 34.3196 55.9605 31.2318C56 29.8449 56 29.6486 56 28C56 26.3514 56 26.1682 55.9605 24.7682C55.856 21.6673 55.5285 18.1084 54.2845 14.3532C53.407 11.6972 51.757 8.83175 50.1065 7.02615C48.0112 4.72337 45.117 2.83925 42 1.76636C38.8045 0.66729 35.347 0.130841 28.6287 0H27.3845C20.653 0.143925 17.2086 0.66729 14.0131 1.76636C10.883 2.83925 8.00185 4.72337 5.89335 7.02615C4.24322 8.84485 2.59308 11.6972 1.71562 14.3532C0.484565 18.1084 0.14406 21.6673 0.039289 24.7682C0 26.1551 0 26.3514 0 28Z" fill="#009DAD"/>
<mask id="mask0_9412_78655" style="mask-type:luminance" maskUnits="userSpaceOnUse" x="7" y="24" width="42" height="9">
<path d="M49 24H7.5V32.5H49V24Z" fill="white"/>
</mask>
<g mask="url(#mask0_9412_78655)">
<path d="M17.8661 25.6133C16.4916 25.6133 15.3926 26.727 15.3926 28.0888C15.3926 28.2191 15.4464 28.3494 15.5414 28.4425C15.6364 28.5355 15.7663 28.5883 15.9025 28.5883H19.833C19.966 28.5883 20.099 28.5355 20.194 28.4425C20.2891 28.3494 20.3429 28.2222 20.3429 28.0888C20.3429 26.7239 19.2439 25.6133 17.8693 25.6133M16.4947 27.5894C16.6214 27.0279 17.239 26.575 17.8661 26.5719C18.4933 26.5719 19.0348 27.0093 19.2376 27.5894H16.4947Z" fill="#FDC500"/>
<path d="M19.9055 28.9761C19.7028 28.8303 19.3386 28.8706 19.1929 29.0599C18.8825 29.4662 18.4074 29.7051 17.8658 29.7051C17.3242 29.7051 16.846 29.4662 16.5387 29.0599C16.3962 28.8706 16.0288 28.8272 15.8261 28.9761C15.6013 29.1405 15.5537 29.4693 15.7216 29.6927C16.2094 30.338 16.9885 30.7599 17.8658 30.7599C18.7431 30.7599 19.5254 30.338 20.01 29.6927C20.1779 29.4724 20.1304 29.1405 19.9055 28.9761Z" fill="#FDC500"/>
<path d="M10.4262 24.5928C10.0208 24.5928 9.69141 24.9154 9.69141 25.3125C9.69141 25.7095 10.0208 26.0322 10.4262 26.0353C10.8348 26.0353 11.161 25.7126 11.161 25.3125C11.161 24.9123 10.8316 24.5928 10.4262 24.5928Z" fill="white"/>
<path d="M26.3758 28.1883C26.3758 27.4748 26.0876 26.8327 25.6157 26.3767C25.1438 25.9175 24.4913 25.6476 23.7755 25.6445C23.7755 25.6445 23.7565 25.6445 23.7534 25.6445C22.9299 25.6445 22.2743 26.1223 22.2775 26.1347C22.2458 25.8989 21.9861 25.688 21.72 25.6849C21.4065 25.688 21.1626 25.9299 21.1562 26.2278V31.9513C21.1594 32.2553 21.4065 32.4973 21.7105 32.5004C22.0241 32.4973 22.2711 32.2553 22.2743 31.9544V30.2513C22.7208 30.608 23.1833 30.7476 23.7312 30.7538H23.766C24.485 30.7538 25.1406 30.484 25.6157 30.0248C26.0813 29.5719 26.3695 28.936 26.3758 28.2287V28.1883ZM23.766 29.6805C22.9299 29.6712 22.2838 29.0725 22.2743 28.2007C22.2838 27.3321 22.9299 26.7303 23.766 26.721C24.6244 26.7334 25.242 27.3135 25.2546 28.2007C25.242 29.0849 24.6243 29.665 23.7628 29.6774" fill="white"/>
<path d="M39.143 26.3084C38.7217 25.8958 38.1326 25.6445 37.477 25.6445C37.477 25.6445 37.4612 25.6445 37.458 25.6445C36.8087 25.6445 36.2196 25.8958 35.8016 26.3084C35.3803 26.721 35.127 27.2949 35.127 27.9215V30.1737C35.1301 30.4778 35.3772 30.7166 35.6844 30.7228C35.9979 30.7197 36.245 30.4778 36.2482 30.1768V27.9153C36.264 27.2298 36.7264 26.7489 37.477 26.7334C38.2213 26.7458 38.6869 27.2298 38.6996 27.9184V30.1768C38.7027 30.4809 38.9498 30.7197 39.257 30.7259C39.5706 30.7228 39.8176 30.4809 39.8208 30.183V27.9278C39.8208 27.3011 39.5706 26.7272 39.1493 26.3146" fill="white"/>
<path d="M33.5781 26.3951C33.5781 26.3951 33.3849 26.2183 33.3817 26.2214C32.9351 25.8615 32.3555 25.6475 31.7157 25.6475C31.7157 25.6475 31.6999 25.6475 31.6967 25.6475C30.9651 25.6475 30.3063 25.9329 29.8407 26.3982C29.3752 26.8604 29.0996 27.5026 29.0996 28.2006V28.2068C29.0996 28.9048 29.3752 29.5469 29.8439 30.0123C30.3063 30.4745 30.9651 30.7599 31.6999 30.763H31.7696C31.7696 30.763 32.6469 30.7413 33.2012 30.2325L33.2202 30.307C33.2803 30.549 33.4957 30.7227 33.7586 30.7258C34.0721 30.7227 34.3192 30.4807 34.3224 30.1798V28.1758C34.316 27.4871 34.0405 26.8573 33.5812 26.3982M31.7094 29.6803C30.8384 29.671 30.2303 29.063 30.2176 28.2006C30.2303 27.3382 30.8384 26.7333 31.7094 26.724C32.5804 26.7333 33.1885 27.3413 33.2012 28.2037C33.1885 29.063 32.5836 29.671 31.7094 29.6803Z" fill="white"/>
<path d="M8.6212 24.5712C8.6212 24.2703 8.3678 24.0283 8.0606 24.0283C7.7534 24.0283 7.50635 24.2703 7.5 24.5681V30.1769C7.5 30.4778 7.7534 30.7198 8.0606 30.7198C8.3678 30.7198 8.61485 30.4778 8.6212 30.18V24.5712Z" fill="white"/>
<path d="M28.2989 24.5712C28.2989 24.2703 28.0455 24.0283 27.7383 24.0283C27.4311 24.0283 27.184 24.2703 27.1777 24.5681V30.1769C27.1777 30.4778 27.4311 30.7198 27.7383 30.7198C28.0455 30.7198 28.2926 30.4778 28.2989 30.18V24.5712Z" fill="white"/>
<path d="M10.9833 27.1923C10.9833 26.8914 10.7299 26.6494 10.4227 26.6494C10.1155 26.6494 9.86843 26.8914 9.86523 27.1892V30.1766C9.86523 30.4775 10.1186 30.7195 10.4258 30.7195C10.7331 30.7195 10.9801 30.4775 10.9864 30.1797C10.9864 30.1766 10.9864 27.1923 10.9864 27.1923" fill="white"/>
<path d="M48.1761 30.7194C48.1761 30.7194 48.2046 30.7194 48.2173 30.7194C48.515 30.7194 48.7652 30.496 48.7874 30.2013C48.8095 29.891 48.591 29.6491 48.2584 29.6026C47.7264 29.4661 47.7706 28.9387 47.7706 28.7309V27.1332H48.4263C48.743 27.1332 48.9996 26.882 48.9996 26.5748C48.9996 26.2677 48.743 26.0164 48.4263 26.0164H47.7706V24.5584C47.7706 24.2482 47.5141 24 47.1974 24C46.8807 24 46.6241 24.2513 46.6241 24.5584V26.0102H46.3201C46.0033 26.0102 45.75 26.2615 45.75 26.5686C45.75 26.8757 46.0065 27.127 46.3201 27.127H46.6241V29.0907C46.6241 29.2737 46.7414 30.7132 48.1698 30.7132" fill="white"/>
<path d="M14.3952 26.0136C14.712 26.0136 14.9653 26.2649 14.9653 26.572C14.9653 26.8791 14.7088 27.1304 14.3952 27.1304H13.7206V30.1581C13.7206 30.4683 13.4641 30.7196 13.1505 30.7196C12.837 30.7196 12.5773 30.4683 12.5773 30.1581V27.1304H12.2732C11.9565 27.1304 11.7031 26.8791 11.7031 26.572C11.7031 26.2649 11.9596 26.0136 12.2732 26.0136H12.5773C12.5868 25.8554 12.5709 25.0984 12.9383 24.6703C13.0808 24.5059 13.2329 24.3353 13.4292 24.2298C13.6953 24.0871 13.9867 24.0282 14.3034 24.0034C14.6201 23.9816 14.8925 24.2112 14.9147 24.5214C14.9368 24.8285 14.7025 25.0984 14.3857 25.1201C14.1672 25.1357 13.936 25.2939 13.8536 25.449C13.7998 25.5513 13.7206 25.7034 13.7206 26.0136H14.3952Z" fill="white"/>
<path d="M43.0146 25.6133C41.64 25.6133 40.541 26.727 40.541 28.0888C40.541 28.2191 40.5949 28.3494 40.6899 28.4425C40.7849 28.5355 40.9147 28.5883 41.0509 28.5883H44.9814C45.1145 28.5883 45.2475 28.5355 45.3425 28.4425C45.4375 28.3494 45.4914 28.2222 45.4914 28.0888C45.4914 26.7239 44.3923 25.6133 43.0178 25.6133M41.6432 27.5894C41.7699 27.0279 42.3875 26.575 43.0146 26.5719C43.6417 26.5719 44.1833 27.0093 44.386 27.5894H41.6432Z" fill="#FDC500"/>
<path d="M45.0539 28.9761C44.8512 28.8303 44.487 28.8706 44.3413 29.0599C44.0309 29.4662 43.5558 29.7051 43.0142 29.7051C42.4726 29.7051 41.9944 29.4662 41.6872 29.0599C41.5446 28.8706 41.1772 28.8272 40.9745 28.9761C40.7497 29.1405 40.7021 29.4693 40.87 29.6927C41.3578 30.338 42.1369 30.7599 43.0142 30.7599C43.8915 30.7599 44.6738 30.338 45.1584 29.6927C45.3263 29.4724 45.2788 29.1405 45.0539 28.9761Z" fill="#FDC500"/>
</g>
</g>
<defs>
<clipPath id="clip0_9412_78655">
<rect width="56" height="56" fill="white"/>
</clipPath>
</defs>
</svg>
