<svg width="56" height="56" viewBox="0 0 56 56" fill="none" xmlns="http://www.w3.org/2000/svg">
<g clip-path="url(#clip0_9412_78123)">
<path d="M0 28C0 29.6486 0 29.8318 0.0392798 31.2318C0.144026 34.3327 0.471358 37.8916 1.71522 41.6467C2.59247 44.3028 4.24223 47.1682 5.892 48.9739C7.9869 51.2765 10.8805 53.1605 14.0098 54.2335C17.2046 55.3325 20.6612 55.869 27.378 56H28.622C35.3519 55.856 38.7954 55.3325 41.9902 54.2335C45.1194 53.1605 48 51.2765 50.108 48.9739C51.758 47.1552 53.3945 44.3028 54.285 41.6467C55.5285 37.8916 55.869 34.3196 55.9605 31.2318C56 29.8449 56 29.6486 56 28C56 26.3514 56 26.1682 55.9605 24.7682C55.856 21.6673 55.5285 18.1084 54.285 14.3532C53.3945 11.6972 51.758 8.83175 50.108 7.02615C48.0131 4.72337 45.1194 2.83925 41.9902 1.76636C38.7954 0.66729 35.3388 0.130841 28.622 0H27.378C20.6612 0.143925 17.2046 0.66729 14.0098 1.76636C10.8805 2.83925 8 4.72337 5.892 7.02615C4.24223 8.84485 2.59247 11.6972 1.71522 14.3532C0.484452 18.1084 0.144026 21.6673 0.0392798 24.7682C0 26.1551 0 26.3514 0 28Z" fill="#0480CC"/>
<path d="M13 28.4054C13 28.1776 13.1842 27.9782 13.4109 27.9782L21.2192 27.9355C21.4459 27.9355 21.6443 28.1206 21.6443 28.3484C21.6443 28.4054 21.6443 28.4623 21.6159 28.505L17.7757 38.1015C17.7189 38.2439 17.563 38.3578 17.393 38.3578C17.2796 38.3578 17.1804 38.3008 17.0954 38.2439C17.0954 38.2439 17.0812 38.2439 17.0812 38.2296C14.6722 35.6526 13.1417 32.2212 13 28.4196V28.4054Z" fill="white"/>
<path d="M21.2627 40.9204L25.8966 29.3591C25.8966 29.3591 25.8966 29.3591 25.8966 29.3449C26.2226 28.5048 27.0445 27.8926 28.0081 27.8926C28.9151 27.8926 29.6945 28.4052 30.0629 29.174L34.9377 40.8492C34.9377 40.8492 34.9661 40.9631 34.9661 41.0201C34.9661 41.1767 34.881 41.3048 34.7677 41.3903C34.7677 41.3903 34.7677 41.3903 34.7535 41.3903C32.7696 42.4012 30.5022 42.9707 28.1215 42.9992C25.7266 43.0134 23.4734 42.4724 21.4611 41.4899C21.3336 41.4188 21.2344 41.2764 21.2344 41.1198C21.2344 41.0628 21.2344 41.0201 21.2627 40.9631" fill="white"/>
<path d="M34.4117 28.4196C34.4117 28.4196 34.3833 28.3057 34.3691 28.2487C34.3691 28.0209 34.5534 27.8216 34.7801 27.8216L42.5883 27.7646C42.8151 27.7646 42.9993 27.9497 42.9993 28.1775C42.9284 31.9791 41.4405 35.4389 39.0597 38.0587C38.9747 38.1299 38.8755 38.1869 38.7622 38.1869C38.5921 38.1869 38.4362 38.0872 38.3795 37.9306L34.4117 28.3911V28.4196Z" fill="white"/>
<path d="M41.7951 23.465L32.6549 23.5361H32.6123C32.4565 23.5361 32.3147 23.4222 32.2581 23.2799L31.5212 21.5144C30.515 18.9088 30.0332 16.4171 30.0332 14.1248V13.4271C30.0332 13.1993 30.2033 13 30.4442 13H30.5009H30.515C35.9425 13.9255 40.3922 17.784 42.1636 22.9097C42.1636 22.9097 42.1778 22.9951 42.1778 23.052C42.1778 23.2799 41.9935 23.465 41.7668 23.465" fill="white"/>
<path d="M24.3797 21.5569L23.6712 23.3367C23.6145 23.4648 23.5011 23.5645 23.3736 23.593H23.3311H23.2886L14.1341 23.6642C13.8932 23.6642 13.709 23.4791 13.709 23.237C13.709 23.1943 13.709 23.1516 13.7373 23.1089C15.4378 17.9689 19.8308 14.025 25.2583 13.0283C25.2583 13.0283 25.3008 13.0283 25.315 13.0283C25.5418 13.0283 25.7401 13.2134 25.7401 13.4412V14.1531C25.7827 16.4455 25.3434 18.9371 24.3656 21.5569" fill="white"/>
</g>
<defs>
<clipPath id="clip0_9412_78123">
<rect width="56" height="56" fill="white"/>
</clipPath>
</defs>
</svg>
