<svg width="24" height="24" viewBox="0 0 24 24" fill="none" xmlns="http://www.w3.org/2000/svg">
<g clip-path="url(#clip0_8918_95361)">
<mask id="mask0_8918_95361" style="mask-type:luminance" maskUnits="userSpaceOnUse" x="0" y="0" width="24" height="24">
<path d="M11.9997 0H11.7339C8.85445 0.06 7.37571 0.2856 6.00495 0.7578C4.67835 1.2123 3.48415 1.98672 2.52796 3.0126C1.73434 3.93406 1.12703 5.00077 0.739671 6.1536C0.28244 7.59811 0.0398916 9.10197 0.0197965 10.617C-4.46957e-09 11.2128 0 11.295 0 12.0006C0 12.7062 -4.46957e-09 12.7866 0.0197965 13.3806C0.0398936 14.8958 0.282442 16.3999 0.739671 17.8446C1.12703 18.9978 1.73434 20.0649 2.52796 20.9868C3.4848 22.0132 4.67985 22.7878 6.00735 23.2422C7.37811 23.7144 8.85565 23.9406 11.7363 24H12.2679C15.1473 23.94 16.6273 23.7144 17.9968 23.2422C19.3229 22.7878 20.5164 22.0131 21.4714 20.9868C22.265 20.0655 22.8726 18.9993 23.2609 17.847C23.7173 16.4021 23.9598 14.8982 23.9808 13.383C24 12.7866 24 12.705 24 12.003C24 11.301 24 11.2152 23.9808 10.6194C23.9598 9.10445 23.7173 7.60071 23.2609 6.156C22.8725 5.00217 22.2639 3.93465 21.469 3.0126C20.514 1.98654 19.3205 1.21205 17.9944 0.7578C16.6255 0.2856 15.1467 0.06 12.2655 0H11.9997Z" fill="white"/>
</mask>
<g mask="url(#mask0_8918_95361)">
<path d="M30.9204 8.08887H-6.23047V16.3401H30.9204V8.08887Z" fill="white"/>
<path d="M30.9204 16.3403H-6.23047V24.5915H30.9204V16.3403Z" fill="#DA0D15"/>
<path d="M30.9204 -0.161621H-6.23047V8.08958H30.9204V-0.161621Z" fill="#219E3F"/>
<path d="M28.903 17.1262H29.0716V17.7184H28.2317V17.3254H27.7236V17.7184H27.5556V17.1286H28.3955V17.5216H28.8994V17.3254H28.5634V17.1286H28.8994L28.903 17.1262ZM27.8946 17.716H28.0625V17.5198H27.8946V17.716ZM29.4075 16.93H29.7434V16.7338H27.5586V16.93H29.4075ZM27.8946 16.537H29.0716V16.3384H27.5586V16.5346H27.8946V16.537ZM30.5845 16.3408H29.2395V16.537H30.7525V16.3384L30.5845 16.3408ZM30.5845 16.93V17.5192H30.4159V16.7338H30.2479V17.5192H30.08V16.7338H29.912V17.1262H29.2395V17.7184H29.7434V17.5216H29.4075V17.3254H29.912V17.7184H30.7519V16.7338H30.5839L30.5845 16.93ZM25.3732 17.1262H25.204V17.323H25.5406V17.5192H25.0361V17.1262H24.1962V17.7184H24.3642V17.3254H24.8687V17.7184H25.7085V17.1286H25.3726L25.3732 17.1262ZM24.5333 17.716H24.7013V17.5198H24.5333V17.716ZM26.0463 16.93H26.3822V16.7338H24.1962V16.93H26.0439H26.0463ZM24.5333 16.537H25.7097V16.3384H24.1962V16.5346H24.5327L24.5333 16.537ZM27.2227 16.3408H25.8771V16.537H27.39V16.3384L27.2227 16.3408ZM27.2227 16.93V17.5192H27.0547V16.7338H26.8837V17.5192H26.7152V16.7338H26.5472V17.1262H25.8771V17.7184H26.3816V17.5216H26.0439V17.3254H26.5478V17.7184H27.3876V16.7338H27.2197L27.2227 16.93ZM22.0114 17.1262H21.8446V17.323H22.1806V17.5192H21.6766V17.1262H20.8368V17.7184H21.0048V17.3254H21.5087V17.7184H22.3485V17.1286H22.012L22.0114 17.1262ZM21.1715 17.716H21.3395V17.5198H21.1715V17.716ZM22.6845 16.93H23.021V16.7338H20.8344V16.93H22.6845ZM21.1715 16.537H22.3485V16.3384H20.8344V16.5346H21.1703L21.1715 16.537ZM23.8603 16.3384H22.5153V16.5346H24.0282V16.3384H23.8603ZM23.8603 16.9276V17.5168H23.6917V16.7338H23.5243V17.5192H23.3564V16.7338H23.1884V17.1262H22.5153V17.7184H23.0198V17.5216H22.6845V17.3254H23.189V17.7184H24.0288V16.7338H23.8609L23.8603 16.9276ZM18.649 17.1238H18.481V17.3206H18.8169V17.5168H18.3124V17.1238H17.4726V17.7184H17.6406V17.3254H18.1451V17.7184H18.9849V17.1286H18.649V17.1238ZM17.8091 17.7136H17.9771V17.5174H17.8091V17.7136ZM19.3221 16.9276H19.658V16.7314H17.472V16.9276H19.3221ZM17.8091 16.5346H18.9855V16.3384H17.472V16.5346H17.8085H17.8091ZM20.4985 16.3384H19.1529V16.5346H20.6658V16.3384H20.4985ZM20.4985 16.9276V17.5168H20.3305V16.7338H20.1625V17.5192H19.9945V16.7338H19.826V17.1262H19.1529V17.7184H19.6574V17.5216H19.3215V17.3254H19.8254V17.7184H20.6652V16.7338H20.4973L20.4985 16.9276ZM15.2872 17.1238H15.1192V17.3206H15.4557V17.5168H14.9512V17.1238H14.1114V17.7184H14.2793V17.3254H14.7839V17.7184H15.6237V17.1286H15.2872V17.1238ZM14.4473 17.7136H14.6153V17.5174H14.4473V17.7136ZM15.9602 16.9276H16.2968V16.7314H14.1102V16.9276H15.959H15.9602ZM14.4473 16.5346H15.6243V16.3384H14.1102V16.5346H14.4461H14.4473ZM17.1372 16.3384H15.7911V16.5346H17.304V16.3384H17.1372ZM17.1372 16.9276V17.5168H16.9693V16.7338H16.7995V17.5192H16.6315V16.7338H16.4636V17.1262H15.7911V17.7184H16.2956V17.5216H15.959V17.3254H16.4636V17.7184H17.3034V16.7338H17.1354L17.1372 16.9276ZM11.926 17.1238H11.758V17.3206H12.0939V17.5168H11.5864V17.1238H10.7466V17.7184H10.9145V17.3254H11.419V17.7184H12.2589V17.1286H11.923L11.926 17.1238ZM11.0861 17.7136H11.2541V17.5174H11.0861V17.7136ZM12.599 16.9276H12.935V16.7314H10.7466V16.9276H12.596H12.599ZM11.0861 16.5346H12.2625V16.3384H10.7466V16.5346H11.0831H11.0861ZM13.7754 16.3384H12.4263V16.5346H13.9398V16.3384H13.7754ZM13.7754 16.9276V17.5168H13.6075V16.7338H13.4395V17.5192H13.2715V16.7338H13.1029V17.1262H12.4263V17.7184H12.9308V17.5216H12.5948V17.3254H13.0987V17.7184H13.9386V16.7338H13.77L13.7754 16.9276ZM8.56414 17.1238H8.39617V17.3206H8.73271V17.5168H8.227V17.1238H7.38715V17.7184H7.55512V17.3254H8.05963V17.7184H8.89948V17.1286H8.56294L8.56414 17.1238ZM7.72429 17.7136H7.89226V17.5174H7.72429V17.7136ZM9.23722 16.9276H9.57376V16.7314H7.38715V16.9276H9.23482H9.23722ZM7.72429 16.5346H8.89888V16.3384H7.38715V16.5346H7.72309H7.72429ZM10.4142 16.3384H9.06685V16.5346H10.5798V16.3384H10.4142ZM10.4142 16.9276V17.5168H10.2462V16.7338H10.0777V17.5192H9.9067V16.7338H9.73873V17.1262H9.06685V17.7184H9.57136V17.5216H9.23482V17.3254H9.73933V17.7184H10.5792V16.7338H10.4112L10.4142 16.9276ZM5.20293 17.1238H5.03496V17.3206H5.3709V17.5168H4.86639V17.1238H4.02653V17.7184H4.1951V17.3254H4.69902V17.7184H5.53887V17.1286H5.20293V17.1238ZM4.36308 17.7136H4.53104V17.5174H4.36308V17.7136ZM5.87601 16.9276H6.21195V16.7314H4.02353V16.9276H5.87301H5.87601ZM4.36308 16.5346H5.53947V16.3384H4.02353V16.5346H4.36007H4.36308ZM7.0524 16.3384H5.70744V16.5346H7.22038V16.3384H7.0524ZM7.0524 16.9276V17.5168H6.88443V16.7338H6.71646V17.5192H6.54729V16.7338H6.37872V17.1262H5.70744V17.7184H6.21135V17.5216H5.87541V17.3254H6.37932V17.7184H7.21918V16.7338H7.0506L7.0524 16.9276ZM1.84112 17.1238H1.67315V17.3206H2.00969V17.5168H1.50218V17.1238H0.662323V17.7184H0.830294V17.3254H1.33481V17.7184H2.17466V17.1286H1.83812L1.84112 17.1238ZM1.00126 17.7136H1.16923V17.5174H1.00126V17.7136ZM2.5142 16.9276H2.85074V16.7314H0.661724V16.9276H2.5106H2.5142ZM1.00126 16.5346H2.17826V16.3384H0.661724V16.5346H0.997664H1.00126ZM3.69119 16.3384H2.34263V16.5346H3.85556V16.3384H3.69119ZM3.69119 16.9276V17.5168H3.52322V16.7338H3.35465V17.5192H3.18668V16.7338H3.01871V17.1262H2.34263V17.7184H2.84714V17.5216H2.5106V17.3254H3.01511V17.7184H3.85496V16.7338H3.68699L3.69119 16.9276ZM-1.52009 17.1238H-1.68807V17.3206H-1.35212V17.5168H-1.85604V17.1238H-2.69589V17.7184H-2.52732V17.3254H-2.02341V17.7184H-1.18355V17.1286H-1.5195L-1.52009 17.1238ZM-2.35995 17.7136H-2.19198V17.5174H-2.35995V17.7136ZM-0.847013 16.9276H-0.511071V16.7314H-2.70069V16.9276H-0.851212H-0.847013ZM-2.35995 16.5346H-1.18775V16.3384H-2.70069V16.5346H-2.36415H-2.35995ZM0.329381 16.3384H-1.01918V16.5346H0.493752V16.3384H0.329381ZM0.329381 16.9276V17.5168H0.161411V16.7338H-0.00655985V17.5192H-0.17453V16.7338H-0.342501V17.1262H-1.01918V17.7184H-0.515271V17.5216H-0.851212V17.3254H-0.346701V17.7184H0.493153V16.7338H0.324582L0.329381 16.9276ZM-4.88191 17.1238H-5.04988V17.3206H-4.71334V17.5168H-5.22205V17.1238H-6.0625V17.7184H-5.89453V17.3254H-5.39062V17.7184H-4.55076V17.1286H-4.88611L-4.88191 17.1238ZM-5.72656 17.7184H-5.55859V17.5222H-5.72656V17.7184ZM-4.21362 16.9324H-3.87708V16.7362H-6.0625V16.9324H-4.21362ZM-5.72656 16.537H-4.55076V16.3384H-6.0625V16.5346H-5.72656V16.537ZM-3.03663 16.3384H-4.38159V16.5346H-2.87106V16.3384H-3.03663ZM-3.03663 16.9276V17.5168H-3.2046V16.7338H-3.37257V17.5192H-3.54114V16.7338H-3.71091V17.1262H-4.38159V17.7184H-3.87708V17.5216H-4.21362V17.3254H-3.71091V17.7184H-2.87106V16.7338H-3.03903L-3.03663 16.9276Z" fill="white"/>
<path d="M28.903 7.10676H29.0716V7.69836H28.2317V7.30536H27.7236V7.69836H27.5556V7.10856H28.3955V7.50156H28.8994V7.30536H28.5634V7.10856H28.8994L28.903 7.10676ZM28.0631 7.49976H27.8952V7.69836H28.0631V7.49976ZM29.4081 6.91056H29.744V6.71436H27.5586V6.91056H29.4081ZM-3.2046 7.89276H-4.38159V8.08956H-2.87106V7.89276H-3.207H-3.2046ZM-4.88431 7.89276H-6.0625V8.08956H-4.55076V7.89276H-4.88611H-4.88431ZM30.5845 6.71436V7.49976H30.4159V6.71436H30.2479V7.49976H30.08V6.71436H29.912V7.10676H29.2395V7.69836H29.7434V7.50156H29.4075V7.30536H29.912V7.69836H30.7519V6.71436H30.5845ZM25.3732 7.10676H25.204V7.30356H25.5406V7.49976H25.0361V7.10676H24.1962V7.69836H24.3642V7.30536H24.8687V7.69836H25.7085V7.10856H25.3726L25.3732 7.10676ZM24.7007 7.49976H24.5327V7.69836H24.7007V7.49976ZM26.0457 6.91056H26.3816V6.71436H24.1962V6.91056H26.0439H26.0457ZM0.157211 7.89276H-1.01918V8.08956H0.493752V7.89276H0.157211ZM-1.52249 7.89276H-2.70069V8.08956H-1.18775V7.89276H-1.52369H-1.52249ZM27.2233 6.91056V7.49976H27.0553V6.71436H26.8837V7.49976H26.7152V6.71436H26.5472V7.10676H25.8771V7.69836H26.3816V7.50156H26.0439V7.30536H26.5478V7.69836H27.3876V6.71436H27.2197L27.2233 6.91056ZM22.012 7.10676H21.8446V7.30356H22.1806V7.49976H21.6766V7.10676H20.8368V7.69836H21.0048V7.30536H21.5087V7.69836H22.3485V7.10856H22.012V7.10676ZM21.3395 7.49976H21.1715V7.69836H21.3395V7.49976ZM22.6845 6.91056H23.021V6.71436H20.8344V6.91056H22.6845ZM3.51962 7.89276H2.34263V8.08956H3.85556V7.89276H3.51962ZM1.83992 7.89276H0.661724V8.08956H2.17466V7.89276H1.83812H1.83992ZM23.8621 6.91056V7.49976H23.6935V6.71436H23.5243V7.49976H23.3564V6.71436H23.1884V7.10676H22.5153V7.69836H23.0198V7.50156H22.6845V7.30536H23.189V7.69836H24.0288V6.71436H23.8609L23.8621 6.91056ZM18.6508 7.10676H18.4828V7.30356H18.8187V7.49976H18.3142V7.10676H17.4744V7.69836H17.6424V7.30536H18.1469V7.69836H18.9867V7.10856H18.6508V7.10676ZM17.9783 7.49976H17.8103V7.69836H17.9783V7.49976ZM19.3233 6.91056H19.6592V6.71436H17.472V6.91056H19.3215H19.3233ZM6.88143 7.89276H5.70744V8.08956H7.22038V7.89276H6.88383H6.88143ZM5.20173 7.89276H4.02353V8.08956H5.53647V7.89276H5.20053H5.20173ZM20.4991 6.91056V7.49976H20.3311V6.71436H20.1631V7.49976H19.9951V6.71436H19.8266V7.10676H19.1529V7.69836H19.6574V7.50156H19.3215V7.30536H19.8254V7.69836H20.6652V6.71436H20.4973L20.4991 6.91056ZM15.2878 7.10676H15.1198V7.30356H15.4563V7.49976H14.9518V7.10676H14.112V7.69836H14.2799V7.30536H14.7845V7.69836H15.6243V7.10856H15.2878V7.10676ZM14.6153 7.49976H14.4473V7.69836H14.6153V7.49976ZM15.9602 6.91056H16.2968V6.71436H14.1102V6.91056H15.959H15.9602ZM10.245 7.89276H9.06685V8.08956H10.5798V7.89276H10.2438H10.245ZM8.56534 7.89276H7.38715V8.08956H8.89888V7.89276H8.56234H8.56534ZM17.139 6.91056V7.49976H16.9711V6.71436H16.7995V7.49976H16.6315V6.71436H16.4636V7.10676H15.7911V7.69836H16.2956V7.50156H15.959V7.30536H16.4636V7.69836H17.3034V6.71436H17.1354L17.139 6.91056ZM11.9277 7.10676H11.7598V7.30356H12.0957V7.49976H11.5864V7.10676H10.7466V7.69836H10.9145V7.30536H11.419V7.69836H12.2589V7.10856H11.923L11.9277 7.10676ZM11.2553 7.49976H11.0873V7.69836H11.2553V7.49976ZM12.6002 6.91056H12.9362V6.71436H10.7466V6.91056H12.596H12.6002ZM13.6087 7.89276H12.4263V8.08956H13.9398V7.89276H13.6033H13.6087ZM11.929 7.89276H10.7466V8.08956H12.2595V7.89276H11.9236H11.929ZM13.7778 6.91056V7.49976H13.6099V6.71436H13.4419V7.49976H13.2739V6.71436H13.1053V7.10676H12.4263V7.69836H12.9308V7.50156H12.5948V7.30536H13.0987V7.69836H13.9386V6.71436H13.77L13.7778 6.91056ZM8.56654 7.10676H8.39857V7.30356H8.73511V7.49976H8.227V7.10676H7.38715V7.69836H7.55512V7.30536H8.05963V7.69836H8.89948V7.10856H8.56294L8.56654 7.10676ZM7.89406 7.49976H7.72609V7.69836H7.89406V7.49976ZM9.23902 6.91056H9.57556V6.71436H7.38715V6.91056H9.23482H9.23902ZM16.9723 7.89276H15.7911V8.08956H17.304V7.89276H16.9681H16.9723ZM15.2926 7.89276H14.1102V8.08956H15.6231V7.89276H15.2866H15.2926ZM10.4178 6.91056V7.49976H10.2498V6.71436H10.0813V7.49976H9.9067V6.71436H9.73873V7.10676H9.06685V7.69836H9.57136V7.50156H9.23482V7.30536H9.73933V7.69836H10.5792V6.71436H10.4112L10.4178 6.91056ZM5.20653 7.10676H5.03856V7.30356H5.3745V7.49976H4.86999V7.10676H4.03013V7.69836H4.1987V7.30536H4.70262V7.69836H5.54247V7.10856H5.20653V7.10676ZM4.53405 7.49976H4.36607V7.69836H4.53405V7.49976ZM5.87901 6.91056H6.21495V6.71436H4.02353V6.91056H5.87301H5.87901ZM20.3365 7.89276H19.1529V8.08956H20.6658V7.89276H20.3299H20.3365ZM18.6568 7.89276H17.472V8.08956H18.9849V7.89276H18.649H18.6568ZM7.0494 6.91056V7.49976H6.88143V6.71436H6.71346V7.49976H6.54729V6.71436H6.37872V7.10676H5.70744V7.69836H6.21135V7.50156H5.87541V7.30536H6.37932V7.69836H7.21918V6.71436H7.0506L7.0494 6.91056ZM1.83812 7.10676H1.67015V7.30356H2.00669V7.49976H1.50218V7.10676H0.662323V7.69836H0.830294V7.30536H1.33481V7.69836H2.17466V7.10856H1.83812V7.10676ZM1.16623 7.49976H0.998264V7.69836H1.16623V7.49976ZM2.5106 6.91056H2.84714V6.71436H0.661724V6.91056H2.5106ZM23.6917 7.89276H22.5153V8.08956H24.0282V7.89276H23.6917ZM22.012 7.89276H20.8344V8.08956H22.3473V7.89276H22.0108H22.012ZM3.68759 6.91056V7.49976H3.51962V6.71436H3.35105V7.49976H3.18308V6.71436H3.01511V7.10676H2.34263V7.69836H2.84714V7.50156H2.5106V7.30536H3.01511V7.69836H3.85496V6.71436H3.68699L3.68759 6.91056ZM-1.52369 7.10676H-1.69167V7.30356H-1.35572V7.49976H-1.85964V7.10676H-2.69949V7.69836H-2.53092V7.30536H-2.02701V7.69836H-1.18715V7.10856H-1.52309L-1.52369 7.10676ZM-2.19618 7.49976H-2.36415V7.69836H-2.19618V7.49976ZM-0.851212 6.91056H-0.515271V6.71436H-2.70069V6.91056H-0.851212ZM27.0541 7.89276H25.8771V8.08956H27.39V7.89276H27.0541ZM25.3744 7.89276H24.1962V8.08956H25.7091V7.89276H25.3732H25.3744ZM0.325182 6.91056V7.49976H0.157211V6.71436H-0.0107589V7.49976H-0.17873V6.71436H-0.346701V7.10676H-1.01918V7.69836H-0.515271V7.50156H-0.851212V7.30536H-0.346701V7.69836H0.493153V6.71436H0.324582L0.325182 6.91056ZM-4.88611 7.10676H-5.05408V7.30356H-4.71754V7.49976H-5.22205V7.10676H-6.0625V7.69836H-5.89453V7.30536H-5.39062V7.69836H-4.55076V7.10856H-4.88611V7.10676ZM-5.55799 7.49976H-5.72596V7.69836H-5.55799V7.49976ZM-4.21362 6.91056H-3.87708V6.71436H-6.0625V6.91056H-4.21362ZM30.4159 7.89276H29.2395V8.08956H30.7525V7.89276H30.4159ZM28.7362 7.89276H27.5586V8.08956H29.0716V7.89276H28.735H28.7362ZM-3.03663 6.91056V7.49976H-3.2046V6.71436H-3.37257V7.49976H-3.54114V6.71436H-3.71091V7.10676H-4.38159V7.69836H-3.87708V7.50156H-4.21362V7.30536H-3.71091V7.69836H-2.87106V6.71436H-3.03903L-3.03663 6.91056Z" fill="white"/>
<path d="M12.7789 14.0354C12.8353 14.0066 12.8905 13.9754 12.9439 13.9436C13.302 13.7279 13.6023 13.4281 13.8186 13.0703C14.0349 12.7124 14.1608 12.3073 14.1853 11.8899C14.2099 11.4724 14.1324 11.0553 13.9596 10.6745C13.7868 10.2938 13.5238 9.96086 13.1934 9.70459C13.6264 10.3071 13.8064 11.055 13.6951 11.7886C13.5838 12.5221 13.1899 13.1829 12.5977 13.6298L12.7081 9.86239L12.392 9.78679L12.3446 9.77539L12.2978 9.78679L11.9817 9.86239L12.092 13.6298C11.4999 13.1829 11.106 12.5221 10.9947 11.7886C10.8833 11.055 11.0634 10.3071 11.4963 9.70459C11.166 9.96086 10.903 10.2938 10.7302 10.6745C10.5574 11.0553 10.4799 11.4724 10.5045 11.8899C10.529 12.3073 10.6549 12.7124 10.8712 13.0703C11.0875 13.4281 11.3877 13.7279 11.7459 13.9436C11.7999 13.9766 11.8551 14.0036 11.9115 14.0354C11.6026 14.1463 11.2768 14.2029 10.9486 14.2028H10.93C11.1724 14.2763 11.4243 14.3135 11.6775 14.3132C11.8226 14.3129 11.9675 14.3007 12.1106 14.2766V14.3366L12.3428 14.621L12.5749 14.3366V14.2766C12.7183 14.3006 12.8633 14.3129 13.0087 14.3132C13.2617 14.3135 13.5134 14.2763 13.7555 14.2028H13.7375C13.4104 14.2027 13.0856 14.146 12.7777 14.0354" fill="#DA0D15"/>
<path d="M13.3965 9.71631C13.7076 9.93531 13.9705 10.2158 14.169 10.5404C14.3674 10.865 14.4972 11.2269 14.5503 11.6036C14.6034 11.9804 14.5786 12.364 14.4776 12.7309C14.3766 13.0977 14.2014 13.4399 13.9629 13.7363C14.3704 13.5405 14.7051 13.2202 14.9184 12.8216C15.1318 12.423 15.2128 11.9669 15.1497 11.5192C15.0866 11.0715 14.8828 10.6555 14.5676 10.3314C14.2524 10.0073 13.8422 9.79186 13.3965 9.71631Z" fill="#DA0D15"/>
<path d="M11.9405 9.75413C12.0258 9.75423 12.1093 9.72986 12.181 9.68392C12.2528 9.63797 12.3099 9.57238 12.3455 9.49494C12.3948 9.60251 12.4848 9.68611 12.5956 9.72735C12.7065 9.76859 12.8293 9.76409 12.9368 9.71484C13.0444 9.66559 13.128 9.57562 13.1693 9.46473C13.2105 9.35384 13.206 9.23111 13.1567 9.12354C13.136 9.21559 13.0845 9.29784 13.0108 9.35677C12.9371 9.4157 12.8455 9.4478 12.7511 9.4478C12.6568 9.4478 12.5652 9.4157 12.4915 9.35677C12.4178 9.29784 12.3663 9.21559 12.3455 9.12354C12.325 9.21574 12.2737 9.2982 12.2 9.3573C12.1263 9.4164 12.0347 9.44861 11.9402 9.44861C11.8458 9.44861 11.7541 9.4164 11.6805 9.3573C11.6068 9.2982 11.5554 9.21574 11.5349 9.12354C11.5079 9.18138 11.494 9.24448 11.4941 9.30834C11.4941 9.36693 11.5057 9.42495 11.5281 9.47907C11.5506 9.5332 11.5835 9.58237 11.6249 9.62378C11.6664 9.66518 11.7156 9.69801 11.7698 9.72037C11.8239 9.74274 11.8819 9.75421 11.9405 9.75413Z" fill="#DA0D15"/>
<path d="M11.2956 9.71631C10.8498 9.79186 10.4397 10.0073 10.1245 10.3314C9.80928 10.6555 9.6054 11.0715 9.54232 11.5192C9.47924 11.9669 9.56025 12.423 9.77362 12.8216C9.98698 13.2202 10.3216 13.5405 10.7292 13.7363C10.4905 13.4399 10.3152 13.0977 10.214 12.7309C10.1129 12.3641 10.0881 11.9804 10.1412 11.6036C10.1943 11.2268 10.3241 10.8649 10.5227 10.5402C10.7212 10.2156 10.9843 9.9352 11.2956 9.71631Z" fill="#DA0D15"/>
</g>
</g>
<defs>
<clipPath id="clip0_8918_95361">
<rect width="24" height="24" fill="white"/>
</clipPath>
</defs>
</svg>
