<svg width="24" height="24" viewBox="0 0 24 24" fill="none" xmlns="http://www.w3.org/2000/svg">
<g clip-path="url(#clip0_8918_95363)">
<mask id="mask0_8918_95363" style="mask-type:luminance" maskUnits="userSpaceOnUse" x="0" y="0" width="24" height="24">
<path d="M11.9979 0H11.7321C8.85234 0.0599955 7.37225 0.286178 6.00195 0.757143C4.67672 1.21245 3.48407 1.98722 2.52941 3.01297C1.73562 3.93417 1.12804 5.00058 0.740344 6.15314C0.283532 7.59765 0.0409712 9.10132 0.0203981 10.6162C-3.35251e-07 11.212 0 11.2942 0 11.9991C0 12.704 -3.35251e-07 12.7862 0.0203981 13.382C0.0410076 14.8971 0.283567 16.4009 0.740344 17.8457C1.12832 18.9979 1.73587 20.0641 2.52941 20.9852C3.48478 22.0111 4.6783 22.7857 6.00435 23.2405C7.37465 23.712 8.85353 23.9382 11.7345 23.9982H12.2661C15.1459 23.9382 16.6254 23.712 17.9963 23.2405C19.3223 22.7857 20.5158 22.0111 21.4712 20.9852C22.2649 20.0641 22.8727 18.9979 23.2609 17.8457C23.7168 16.4007 23.9593 14.897 23.9808 13.382C24 12.7862 24 12.704 24 11.9991C24 11.2942 24 11.212 23.9808 10.6162C23.9593 9.1014 23.7168 7.59785 23.2609 6.15314C22.8729 5.00055 22.2652 3.93413 21.4712 3.01297C20.5151 1.98679 19.3207 1.21218 17.9939 0.757743C16.623 0.286179 15.1447 0.0599955 12.2637 0H11.9979Z" fill="white"/>
</mask>
<g mask="url(#mask0_8918_95363)">
<path d="M40.7528 20.0234H-7.9707V24.0803H40.7528V20.0234Z" fill="#09529C"/>
<path d="M40.7528 19.3472H-7.9707V20.0233H40.7528V19.3472Z" fill="white"/>
<path d="M40.7528 4.4707H-7.9707V19.3472H40.7528V4.4707Z" fill="#E31921"/>
<path d="M8.97404 6.54447C7.85333 6.39831 6.71497 6.60674 5.71875 7.14052C4.72253 7.6743 3.91846 8.50663 3.41939 9.52068C2.92033 10.5347 2.75132 11.6796 2.93608 12.7946C3.12085 13.9096 3.65012 14.9388 4.44961 15.7377C5.24909 16.5365 6.27866 17.065 7.39381 17.2489C8.50896 17.4328 9.6537 17.2629 10.6674 16.7631C11.681 16.2632 12.5127 15.4585 13.0458 14.4619C13.5788 13.4652 13.7863 12.3267 13.6393 11.2061C13.4834 10.0239 12.9416 8.92616 12.0981 8.08328C11.2545 7.2404 10.1564 6.69949 8.97404 6.54447Z" fill="white"/>
<path d="M10.1761 12.5276L13.2587 10.2898H9.44834L8.27063 6.66846L7.09352 10.2898H3.2832L6.36577 12.5276L5.18806 16.1489L8.27063 13.9105L11.3538 16.1489L10.1761 12.5276Z" fill="#E31921"/>
<path d="M40.7528 3.79492H-7.9707V4.47107H40.7528V3.79492Z" fill="white"/>
<path d="M40.7528 -0.262207H-7.9707V3.79469H40.7528V-0.262207Z" fill="#09529C"/>
</g>
</g>
<defs>
<clipPath id="clip0_8918_95363">
<rect width="24" height="23.9982" fill="white"/>
</clipPath>
</defs>
</svg>
