<svg width="24" height="24" viewBox="0 0 24 24" fill="none" xmlns="http://www.w3.org/2000/svg">
<g clip-path="url(#clip0_8918_95359)">
<mask id="mask0_8918_95359" style="mask-type:luminance" maskUnits="userSpaceOnUse" x="0" y="0" width="24" height="25">
<path d="M12.0003 0H11.7345C8.85442 0.0600015 7.37418 0.285607 6.00435 0.757219C4.6786 1.2129 3.48517 1.98744 2.52906 3.01268C1.73502 3.93439 1.12719 5.0013 0.739219 6.15435C0.282444 7.59882 0.0398601 9.10244 0.0192005 10.6173C3.79989e-08 11.2131 0 11.2959 0 12.0003C0 12.7047 3.79989e-08 12.7869 0.0192005 13.3803C0.039788 14.8958 0.282372 16.4 0.739219 17.845C1.12693 18.998 1.73479 20.0648 2.52906 20.9861C3.48409 22.0135 4.67778 22.7894 6.00435 23.2452C7.37418 23.7168 8.85322 23.9436 11.7345 24.003H12.2661C15.1462 23.943 16.6264 23.7168 17.9963 23.2452C19.3237 22.7903 20.5184 22.015 21.4745 20.9879C22.2675 20.0655 22.8743 18.9982 23.2614 17.845C23.7179 16.4001 23.9605 14.8961 23.9814 13.3809C24 12.7851 24 12.7035 24 12.0009C24 11.2983 24 11.2137 23.9814 10.6179C23.9604 9.10306 23.7179 7.59949 23.2614 6.15495C22.8739 5.00213 22.2672 3.93511 21.4745 3.01268C20.517 1.98685 19.3219 1.21229 17.9944 0.757219C16.6264 0.285607 15.1474 0.0594015 12.2661 0H12.0003Z" fill="white"/>
</mask>
<g mask="url(#mask0_8918_95359)">
<path d="M35.9144 -0.155273H-0.605469V16.1405H35.9144V-0.155273Z" fill="#E10E00"/>
<path d="M35.9144 16.1406H-0.605469V24.1568H35.9144V16.1406Z" fill="#1E8206"/>
<path d="M5.83389 -0.154297H-0.605469V24.1499H5.83389V-0.154297Z" fill="white"/>
<path d="M5.53555 0.174316H-0.308594V23.8269H5.53555V0.174316Z" fill="white"/>
<path fill-rule="evenodd" clip-rule="evenodd" d="M1.56987 22.55H1.79368V22.169H1.53987V21.797H1.34606V21.3716H1.11566V21.7526H0.855853V22.1654H0.623047V22.5752H0.878653V22.955H1.10666V23.3654H1.33286V22.9454H1.56987V22.55ZM1.33706 22.5698H1.07906V22.1654H1.33706V22.5698Z" fill="#E10E00"/>
<path fill-rule="evenodd" clip-rule="evenodd" d="M3.44727 1.83791H3.67887V2.25012H3.93988V2.63113H4.16968V2.20512H4.36469V1.83251H4.61489V1.4503H4.39349V1.05429H4.15768V0.634277H3.93148V1.04769H3.70227V1.4263H3.44727V1.83791ZM3.90328 1.4305H4.16128V1.83551H3.90328V1.4305Z" fill="#E10E00"/>
<path fill-rule="evenodd" clip-rule="evenodd" d="M0.626599 23.3654H0.386593V22.9706H0.130386V22.5439H-0.0742188V23.3546H0.199388V23.7932H-0.0742188V24.1592H0.843804V23.7668H0.626599V23.3654Z" fill="#E10E00"/>
<path fill-rule="evenodd" clip-rule="evenodd" d="M0.623047 1.83791H0.855853V2.25012H1.11566V2.63113H1.34606V2.20512H1.53987V1.83251H1.79368V1.4503H1.56987V1.05429H1.33286V0.634277H1.10666V1.04769H0.878653V1.4263H0.623047V1.83791ZM1.07846 1.4305H1.33646V1.83551H1.07846V1.4305Z" fill="#E10E00"/>
<path fill-rule="evenodd" clip-rule="evenodd" d="M0.144787 12.9981H0.353592V12.5841H0.622399V12.1587H0.853404V11.7735H0.627799V11.3931H0.387793V11.0157H0.156187V10.6064H-0.0742188V13.4001H0.144187L0.144787 12.9981Z" fill="#E10E00"/>
<path fill-rule="evenodd" clip-rule="evenodd" d="M0.130986 1.03396H0.387793V0.638546H0.627799V0.237136H0.845004V-0.155273H-0.0742188V0.211336H0.198788V0.649347H-0.0742188V1.45937H0.130386L0.130986 1.03396Z" fill="#E10E00"/>
<path fill-rule="evenodd" clip-rule="evenodd" d="M4.39349 22.55H4.61489V22.169H4.36469V21.797H4.16968V21.3716H3.93988V21.7526H3.67887V22.1654H3.44727V22.5752H3.70227V22.955H3.93148V23.3654H4.15768V22.9454H4.39349V22.55ZM4.16128 22.5698H3.90328V22.1654H4.16128V22.5698Z" fill="#E10E00"/>
<path fill-rule="evenodd" clip-rule="evenodd" d="M5.33117 13.4002V10.606H5.10076V11.0158H4.86856V11.3926H4.62855V11.773H4.40234V12.1588H4.63395V12.5842H4.90276V12.9982H5.11276V13.4002H5.33117Z" fill="#E10E00"/>
<path d="M4.84456 4.22852H4.59375V4.62633H4.84456V4.22852Z" fill="#E10E00"/>
<path d="M0.624453 4.229H0.373047V4.62621H0.624453V4.229Z" fill="#E10E00"/>
<path fill-rule="evenodd" clip-rule="evenodd" d="M4.38749 -0.155273V0.244937H4.6107V0.670347H4.8429V1.03876H5.07211V1.45217H5.31812V1.84158H5.09371V2.23819H4.87171V2.6552H4.6407V3.03261H4.41689V3.44482H4.14029V3.85403H3.92668V3.44002H3.69508V3.02061H3.44067V2.627H3.22466V2.24479H2.98466V1.84158H2.74765V1.45937H2.95286V1.03396H3.21146V0.638546H3.45147V0.237136H3.66867V-0.155273H2.74045V0.654147H2.50705V-0.155273H1.56442V0.244937H1.78823V0.670347H2.01983V1.03876H2.25024V1.45217H2.49505V1.84158H2.27364V2.23819H2.04923V2.6552H1.81763V3.03261H1.59322V3.44482H1.31782V3.85403H1.10361V3.44002H0.872005V3.02061H0.617599V2.627H0.403393V2.24479H0.163387V1.84158H-0.0742188V2.6048H0.198788V3.04341H-0.0742188V4.23444H0.160387V3.82643H0.386593V3.42382H0.609198V3.82643H0.843804V4.23444H1.10841V4.63645H0.843804V5.01386H0.609198V5.41767H0.386593V5.01386H0.160387V4.63645H-0.0742188V5.81128H0.178988V6.22469H-0.0742188V7.02571H0.121986V6.6249H0.387193V6.23609H0.623599V5.80228H0.850404V5.40807H1.09401V5.01446H1.32862V5.41647H1.57942V5.83648H1.79363V6.21389H2.05343V6.6261H2.27364V7.00771H2.50465V7.42772H2.73925V7.00771H2.96366V6.6261H3.19286V6.24089H3.44607V5.80828H3.68128V5.42487H3.88708V5.01386H4.17869V5.43747H4.40069V5.81728H4.6137V6.23189H4.8585V6.6189H5.09851V7.02931H5.32232V6.23789H5.07031V5.81428H5.32352V4.63645H5.06491V5.01386H4.8303V5.41767H4.6065V5.01386H4.37969V4.63645H4.14509V4.23444H4.37969V3.82643H4.6065V3.42382H4.8303V3.82643H5.06491V4.23444H5.32712V3.04101H5.06671V2.6048H5.32712V0.643947H5.07091V0.223936H5.33372V-0.155273H4.38749ZM2.25864 4.63645V5.01386H2.02403V5.41767H1.80203V5.01386H1.57342V4.63645H1.33942V4.23444H1.57342V3.82643H1.80203V3.42382H2.02403V3.82643H2.25864V4.23444H2.52325V4.63645H2.25864ZM2.75365 6.21989H2.48305V5.42487H2.75365V6.21989ZM3.92668 4.63645H3.66328V5.01386H3.42687V5.41767H3.20486V5.01386H2.97806V4.63645H2.74285V4.23444H2.97806V3.82643H3.20486V3.42382H3.42687V3.82643H3.66328V4.23444H3.92668V4.63645Z" fill="#E10E00"/>
<path d="M3.44221 4.22852H3.19141V4.62633H3.44221V4.22852Z" fill="#E10E00"/>
<path d="M2.04047 4.22852H1.78906V4.62633H2.04047V4.22852Z" fill="#E10E00"/>
<path d="M3.44221 19.373H3.19141V19.7733H3.44221V19.373Z" fill="#E10E00"/>
<path fill-rule="evenodd" clip-rule="evenodd" d="M5.07091 23.3576H5.32712V21.3986H5.06671V20.9612H5.32712V19.7653H5.06491V20.1733H4.8303V20.5753H4.6065V20.1733H4.37969V19.7653H4.14509V19.3627H4.37969V18.9859H4.6065V18.5797H4.8303V18.9859H5.06491V19.3627H5.32712V18.1867H5.07391V17.7631H5.32592V16.9723H5.10211V17.3833H4.86211V17.7691H4.6137V18.1843H4.40069V18.5653H4.17869V18.9889H3.88708V18.5785H3.68128V18.1951H3.44607V17.7589H3.19286V17.3731H2.96366V16.9933H2.74045V16.5732H2.50585V16.9933H2.27364V17.3731H2.05523V17.7853H1.79363V18.1627H1.57762V18.5827H1.32862V18.9853H1.09401V18.5929H0.850404V18.1993H0.623599V17.7649H0.387193V17.3773H0.121986V16.9765H-0.0742188V17.7775H0.178988V18.1909H-0.0742188V19.3651H0.160387V18.9883H0.386593V18.5821H0.609198V18.9883H0.843804V19.3651H1.10841V19.7653H0.843804V20.1733H0.609198V20.5753H0.386593V20.1733H0.160387V19.7653H-0.0742188V20.9588H0.198788V21.3962H-0.0742188V22.1588H0.160387V21.7562H0.400393V21.3722H0.617599V20.9786H0.872005V20.5585H1.10361V20.1493H1.31782V20.5597H1.59322V20.9696H1.81763V21.3446H2.04923V21.7646H2.27364V22.1624H2.49805V22.5506H2.25024V22.9646H2.01983V23.3336H1.78823V23.7536H1.56442V24.155H2.50705V23.345H2.74045V24.155H3.66688V23.7626H3.44967V23.3654H3.20966V22.9706H2.95286V22.544H2.74765V22.1636H2.98226V21.761H3.22226V21.377H3.43827V20.9834H3.69268V20.5633H3.92428V20.1493H4.13789V20.5597H4.41449V20.9696H4.6383V21.3446H4.87171V21.7646H5.09371V22.1624H5.31812V22.5506H5.07211V22.9646H4.8429V23.3336H4.6107V23.7536H4.38749V24.155H5.33372V23.7758H5.06971L5.07091 23.3576ZM2.52325 19.7653H2.25864V20.1733H2.02403V20.5753H1.80203V20.1733H1.57342V19.7653H1.33942V19.3627H1.57342V18.9859H1.80203V18.5797H2.02403V18.9859H2.25864V19.3627H2.52325V19.7653ZM2.48305 17.7775H2.75365V18.5725H2.48305V17.7775ZM3.92668 19.7653H3.66328V20.1733H3.42687V20.5753H3.20486V20.1733H2.97806V19.7653H2.74285V19.3627H2.97806V18.9859H3.20486V18.5797H3.42687V18.9859H3.66328V19.3627H3.92668V19.7653Z" fill="#E10E00"/>
<path d="M4.84456 19.373H4.59375V19.7733H4.84456V19.373Z" fill="#E10E00"/>
<path d="M2.04047 19.373H1.78906V19.7733H2.04047V19.373Z" fill="#E10E00"/>
<path d="M0.624453 19.373H0.373047V19.7733H0.624453V19.373Z" fill="#E10E00"/>
<path fill-rule="evenodd" clip-rule="evenodd" d="M0.132786 9.78697H0.390793V10.2166H0.609798V10.6018H0.845604V10.1926H1.09761V9.79957H1.33762V9.39816H1.55962V8.99615H1.78643V8.59954H2.04563V8.20533H1.80563V7.80092H1.57162V7.39111H0.858804V7.78472H1.33882V8.21853H1.11021V8.60494H0.866605V9.01115H0.615198V8.60914H0.396193V8.20833H0.139387V7.78832H-0.0742188V8.61094H0.173587V9.02495H-0.0742188V9.41737H0.132786V9.78697Z" fill="#E10E00"/>
<path fill-rule="evenodd" clip-rule="evenodd" d="M5.11989 8.2108H4.86549V8.61161H4.64708V9.01362H4.39447V8.60501H4.15027V8.2156H3.92406V7.78179H4.40407V7.38818H3.69306V7.79859H3.45845V8.2024H3.21484V8.59661H3.47465V8.99382H3.70266V9.39523H3.92586V9.79664H4.16587V10.1897H4.41667V10.5989H4.65248V10.2143H4.87089V9.78704H5.13129V9.41803H5.3347V9.02502H5.08449V8.61101H5.3347V7.78899H5.11869L5.11989 8.2108Z" fill="#E10E00"/>
<path fill-rule="evenodd" clip-rule="evenodd" d="M0.139387 15.7914H0.396193V15.3906H0.615198V14.9886H0.866605V15.393H1.11021V15.7818H1.33702V16.215H0.857004V16.6086H1.56862V16.2006H1.80263V15.7944H2.04263V15.402H1.78583V15.0036H1.55902V14.6051H1.33702V14.2019H1.09701V13.8113H0.845604V13.4033H0.609798V13.7867H0.390793V14.2151H0.132786V14.5853H-0.0742188V14.9784H0.173587V15.393H-0.0742188V16.215H0.139387V15.7914Z" fill="#E10E00"/>
<path fill-rule="evenodd" clip-rule="evenodd" d="M5.12964 14.2128H4.86864V13.7844H4.65083V13.4004H4.41503V13.8084H4.16422V14.1996H3.92421V14.6052H3.70161V15.006H3.4748V15.4044H3.2168V15.7975H3.4604V16.2037H3.69501V16.6117H4.40243V16.2181H3.92241V15.7813H4.14862V15.393H4.39283V14.988H4.64483V15.39H4.86384V15.7915H5.11824V16.2115H5.33485V15.39H5.08284V14.9754H5.33485V14.5824H5.12964V14.2128Z" fill="#E10E00"/>
<path fill-rule="evenodd" clip-rule="evenodd" d="M2.62477 9.0249H2.53057V9.40411H2.30076V9.79652H2.04276V10.2249H1.80695V10.6041H1.58734V10.9978H1.33594V12.985H1.56034V13.3936H1.82555V13.7836H2.04036V14.1802H2.28636V14.5864H2.50297V14.9651H2.74297V14.587H2.95898V14.1808H3.20498V13.7842H3.41919V13.3942H3.6844V12.985H3.9082V10.9954H3.655V10.6017H3.43719V10.2249H3.20198V9.79652H2.94398V9.40411H2.71357V9.0249H2.62477ZM1.80695 12.214H1.53694V11.785H1.80695V12.214ZM3.43059 11.785H3.6988V12.2122H3.43059V11.785ZM2.74657 14.2102H2.47777V13.7848H2.74657V14.2102ZM2.94758 10.9966V10.5849H3.22718V11.392H3.00098V11.812H2.72677V12.172H3.00098V12.5878H3.22718V13.3984H2.94758V12.982H2.73037V12.5914H2.51497V12.9808H2.28156V13.3882L2.03255 13.393V12.5782H2.27256V12.1708H2.52997V11.8108H2.27496V11.4034H2.03496V10.5885H2.28396V10.9972H2.51497V11.386H2.73217V10.996L2.94758 10.9966ZM2.74657 10.2003H2.47777V9.77432H2.74657V10.2003Z" fill="#E10E00"/>
</g>
</g>
<defs>
<clipPath id="clip0_8918_95359">
<rect width="24" height="24.003" fill="white"/>
</clipPath>
</defs>
</svg>
