<svg width="24" height="24" viewBox="0 0 24 24" fill="none" xmlns="http://www.w3.org/2000/svg">
<g clip-path="url(#clip0_8918_95358)">
<mask id="mask0_8918_95358" style="mask-type:luminance" maskUnits="userSpaceOnUse" x="0" y="0" width="24" height="24">
<path d="M11.9997 0H11.7339C8.85382 0.0600015 7.37358 0.286207 6.00375 0.757219C4.67779 1.21276 3.48428 1.98755 2.52846 3.01328C1.73452 3.93484 1.1267 5.00153 0.738618 6.15435C0.281844 7.59882 0.0392601 9.10244 0.0186005 10.6173C8.27035e-08 11.2131 0 11.2959 0 12.0003C0 12.7047 8.27035e-08 12.7875 0.0186005 13.3803C0.0392102 14.8954 0.281795 16.3992 0.738618 17.8438C1.12657 18.9967 1.7344 20.0635 2.52846 20.9849C3.48385 22.0109 4.67753 22.7854 6.00375 23.2398C7.37358 23.7114 8.85262 23.9382 11.7339 23.9982H12.2655C15.1456 23.9382 16.6258 23.7114 17.9956 23.2398C19.3219 22.7851 20.5157 22.0106 21.4715 20.9849C22.2654 20.0634 22.873 18.9967 23.2608 17.8438C23.7176 16.3992 23.9602 14.8954 23.9808 13.3803C24 12.7845 24 12.7029 24 12.0003C24 11.2977 24 11.2131 23.9808 10.6173C23.9601 9.10244 23.7176 7.59882 23.2608 6.15435C22.8729 5.00156 22.2653 3.93487 21.4715 3.01328C20.515 1.98865 19.3214 1.21474 17.9956 0.759619C16.6258 0.286207 15.1468 0.0600015 12.2655 0H11.9997Z" fill="white"/>
</mask>
<g mask="url(#mask0_8918_95358)">
<path d="M-6.13672 -0.0805664H18.0439L-6.13672 24.0814V-0.0805664Z" fill="#00953A"/>
<path d="M-6.13672 24.0814L18.0439 -0.0805664H30.1342L5.95358 24.0814H-6.13672Z" fill="#FFDE36"/>
<path d="M30.1343 -0.0805664V24.0814H5.95312L30.1343 -0.0805664Z" fill="#FF1F19"/>
</g>
</g>
<defs>
<clipPath id="clip0_8918_95358">
<rect width="24" height="23.9982" fill="white"/>
</clipPath>
</defs>
</svg>
