<svg width="32" height="32" viewBox="0 0 32 32" fill="none" xmlns="http://www.w3.org/2000/svg">
<g clip-path="url(#clip0_8918_95408)">
<mask id="mask0_8918_95408" style="mask-type:luminance" maskUnits="userSpaceOnUse" x="0" y="0" width="32" height="33">
<path d="M16.0016 0H15.6448C11.8046 0.080004 9.83169 0.380819 8.0036 1.00885C6.237 1.61651 4.64663 2.64864 3.37217 4.0146C2.31382 5.24313 1.50363 6.66516 0.98645 8.20201C0.376899 10.1284 0.0534346 12.1339 0.0264013 14.1543C-5.96076e-09 14.9479 0 15.0576 0 15.9944C0 16.9312 -5.96076e-09 17.0441 0.0264013 17.8385C0.0534319 19.8586 0.376898 21.8638 0.98645 23.79C1.50298 25.3291 2.31318 26.7533 3.37217 27.9838C4.64665 29.3512 6.23805 30.3841 8.006 30.9911C9.83409 31.616 11.8046 31.9208 15.6448 32.0008H16.3544C20.1946 31.9208 22.1675 31.6192 23.994 30.9911C25.7625 30.3847 27.3543 29.3518 28.6286 27.9838C29.687 26.755 30.4972 25.3327 31.0144 23.7956C31.6235 21.8693 31.9469 19.8642 31.9744 17.8441C32 17.0497 32 16.94 32 16C32 15.06 32 14.9503 31.9744 14.1599C31.9469 12.1396 31.6235 10.1341 31.0144 8.20761C30.4985 6.66897 29.6892 5.24499 28.631 4.0146C27.3563 2.6469 25.7646 1.61382 23.9964 1.00645C22.1699 0.380819 20.1978 0.079204 16.3568 0H16.0016Z" fill="white"/>
</mask>
<g mask="url(#mask0_8918_95408)">
<path fill-rule="evenodd" clip-rule="evenodd" d="M40.3606 -0.225586H-8.35547V10.5918H40.3606V-0.225586Z" fill="#FFCC00"/>
<path d="M40.3606 21.4092H-8.35547V32.2265H40.3606V21.4092Z" fill="#E3001C"/>
<path d="M40.3606 10.5918H-8.35547V21.4091H40.3606V10.5918Z" fill="#002DA6"/>
<path fill-rule="evenodd" clip-rule="evenodd" d="M13.9499 11.4302L14.4355 12.3206L15.4316 12.131L14.7339 12.867L15.2228 13.7559L14.3059 13.3199L13.6115 14.0583L13.7427 13.0535L12.825 12.6214L13.8227 12.4358L13.9499 11.4302ZM25.6657 18.0217L25.3905 18.9978L24.376 19.0338L25.2201 19.5938L24.9409 20.5754L25.7409 19.9474L26.5825 20.5138L26.2313 19.5626L27.0314 18.9386L26.0129 18.9754L25.6657 18.0217ZM24.9929 15.4344L24.0576 15.828L23.3976 15.0552L23.4832 16.0648L22.5463 16.4552L23.5344 16.6856L23.6144 17.6961L24.1392 16.8288L25.1265 17.0633L24.4632 16.296L24.9929 15.4344ZM21.8727 12.8102L21.1215 13.4919L20.2414 12.9847L20.6574 13.9095L19.9038 14.5879L20.9119 14.4775L21.3255 15.404L21.5319 14.4111L22.5407 14.3055L21.6607 13.8023L21.8727 12.8102ZM18.0565 11.4302L17.5653 12.3206L16.5684 12.131L17.2661 12.867L16.778 13.7559L17.6941 13.3199L18.3885 14.0583L18.2613 13.0551L19.179 12.623L18.1813 12.4374L18.0565 11.4302ZM6.33912 18.0217L6.61434 18.9978L7.62799 19.0338L6.78395 19.5938L7.06316 20.5754L6.26312 19.9474L5.42148 20.5138L5.7727 19.5626L4.97266 18.9386L5.98631 18.9786L6.33912 18.0217ZM7.01116 15.4344L7.94641 15.828L8.60484 15.0552L8.52483 16.0688L9.46088 16.4592L8.47283 16.6896L8.39283 17.7001L7.868 16.8328L6.88075 17.0673L7.54399 16.3L7.01116 15.4344ZM10.1313 12.8102L10.8826 13.4919L11.7626 12.9847L11.3466 13.9095L12.1002 14.5879L11.0922 14.4775L10.6793 15.404L10.4729 14.4151L9.46408 14.3095L10.3441 13.8063L10.1313 12.8102Z" fill="#F4F4F4"/>
</g>
</g>
<defs>
<clipPath id="clip0_8918_95408">
<rect width="32" height="32.0008" fill="white"/>
</clipPath>
</defs>
</svg>
