<svg width="24" height="24" viewBox="0 0 24 24" fill="none" xmlns="http://www.w3.org/2000/svg">
<g clip-path="url(#clip0_8918_95328)">
<mask id="mask0_8918_95328" style="mask-type:luminance" maskUnits="userSpaceOnUse" x="0" y="0" width="24" height="24">
<path d="M11.9994 0H11.7336C8.85376 0.059997 7.37423 0.284986 6.0033 0.756562C4.67779 1.21214 3.48463 1.98664 2.52887 3.01185C1.73512 3.93343 1.12736 5.00002 0.739163 6.15269C0.282947 7.59759 0.0403943 9.10141 0.019199 10.6165C2.23506e-09 11.2116 0 11.2944 0 11.9964C0 12.6984 2.23506e-09 12.7836 0.019199 13.3763C0.0403943 14.8914 0.282947 16.3952 0.739163 17.8401C1.12666 18.9949 1.73445 20.0636 2.52887 20.9869C3.48434 22.0124 4.67761 22.7867 6.0033 23.2416C7.37423 23.7132 8.85316 23.94 11.7336 23.9988H12.2658C15.1456 23.9388 16.6252 23.7132 17.9949 23.2416C19.3211 22.787 20.5148 22.0126 21.4705 20.9869C22.2641 20.0652 22.8718 18.9987 23.2602 17.8461C23.7168 16.4013 23.9593 14.8974 23.9802 13.3823C24 12.7872 24 12.7044 24 12.0024C24 11.3004 24 11.2146 23.9802 10.6225C23.9593 9.10738 23.7168 7.60351 23.2602 6.15869C22.8718 5.00612 22.2641 3.93958 21.4705 3.01785C20.5145 1.99236 19.3209 1.21783 17.9949 0.762562C16.6252 0.287986 15.1462 0.0587971 12.2658 0H11.9994Z" fill="white"/>
</mask>
<g mask="url(#mask0_8918_95328)">
<path d="M35.9655 -4.33154H-0.554688V25.6418H35.9655V-4.33154Z" fill="#E53226"/>
<path d="M5.47678 4.10596L6.15235 6.18365H8.33924L6.57053 7.46759L7.2443 9.54648L5.47678 8.26195L3.70447 9.54648L4.38064 7.46759L2.61133 6.18365H4.80122L5.47678 4.10596Z" fill="#FDDF2E"/>
<path d="M12.4639 8.11621L12.7141 8.80078L13.4425 8.77498L12.8683 9.22315L13.1185 9.90772L12.5137 9.50094L11.9401 9.95032L12.1405 9.25015L11.5352 8.84337L12.2641 8.81698L12.4639 8.11621Z" fill="#FDDF2E"/>
<path d="M12.0575 5.20801L12.5651 5.72998L13.2197 5.4096L12.8789 6.05397L13.3859 6.57594L12.6659 6.45115L12.3251 7.09491L12.2219 6.37495L11.502 6.24956L12.1559 5.92917L12.0575 5.20801Z" fill="#FDDF2E"/>
<path d="M9.73736 3.44709L10.4081 3.73208L10.8881 3.18311L10.8239 3.90787L11.4947 4.19345L10.7843 4.35665L10.7207 5.08201L10.3451 4.45804L9.63477 4.62123L10.1147 4.07166L9.73736 3.44709Z" fill="#FDDF2E"/>
<path d="M10.8484 10.1875L10.8142 10.9147L11.4964 11.1726L10.7938 11.3652L10.7596 12.0924L10.3594 11.4834L9.65625 11.6766L10.111 11.1079L9.71085 10.4995L10.393 10.7569L10.8484 10.1875Z" fill="#FDDF2E"/>
</g>
</g>
<defs>
<clipPath id="clip0_8918_95328">
<rect width="24" height="23.9988" fill="white"/>
</clipPath>
</defs>
</svg>
