<svg width="32" height="32" viewBox="0 0 32 32" fill="none" xmlns="http://www.w3.org/2000/svg">
<g clip-path="url(#clip0_8918_95407)">
<mask id="mask0_8918_95407" style="mask-type:luminance" maskUnits="userSpaceOnUse" x="0" y="0" width="32" height="33">
<path d="M16.0004 0H15.646C11.8059 0.080002 9.83225 0.38081 8.0058 1.00963C6.23813 1.6172 4.64689 2.64991 3.37208 4.0169C2.31336 5.24585 1.50292 6.6684 0.985625 8.2058C0.376593 10.1318 0.0531468 12.1366 0.0256007 14.1564C5.06652e-08 14.9508 0 15.0612 0 16.0004C0 16.9396 5.06652e-08 17.0492 0.0256007 17.8404C0.0530507 19.861 0.376496 21.8666 0.985625 23.7934C1.50257 25.3307 2.31305 26.7531 3.37208 27.9815C4.64546 29.3513 6.23703 30.3859 8.0058 30.9936C9.83225 31.6224 11.8043 31.9248 15.646 32.004H16.3548C20.1949 31.924 22.1686 31.6224 23.995 30.9936C25.7649 30.3871 27.3579 29.3533 28.6327 27.9839C29.69 26.754 30.499 25.3309 31.0152 23.7934C31.6238 21.8668 31.9473 19.8615 31.9752 17.8412C32 17.0468 32 16.938 32 16.0012C32 15.0644 32 14.9516 31.9752 14.1572C31.9473 12.1374 31.6238 10.1327 31.0152 8.2066C30.4986 6.6695 29.6896 5.24681 28.6327 4.0169C27.356 2.64914 25.7625 1.61638 23.9926 1.00963C22.1686 0.38081 20.1965 0.079202 16.3548 0H16.0004Z" fill="white"/>
</mask>
<g mask="url(#mask0_8918_95407)">
<mask id="mask1_8918_95407" style="mask-type:luminance" maskUnits="userSpaceOnUse" x="0" y="-1" width="32" height="33">
<path d="M16 -0.00390625H15.6456C11.8056 0.0760937 9.832 0.376894 8.0056 1.00569C6.23798 1.61325 4.64677 2.64594 3.372 4.01289C2.3133 5.24182 1.50289 6.66432 0.9856 8.20169C0.376583 10.1276 0.0531455 12.1324 0.0256001 14.1521C5.06639e-08 14.9465 0 15.0569 0 15.9961C0 16.9353 5.06639e-08 17.0449 0.0256001 17.8361C0.0530494 19.8566 0.376487 21.8622 0.9856 23.7889C1.50253 25.3262 2.31299 26.7485 3.372 27.9769C4.64534 29.3467 6.23688 30.3812 8.0056 30.9889C9.832 31.6177 11.804 31.9201 15.6456 31.9993H16.3544C20.1944 31.9193 22.168 31.6177 23.9944 30.9889C25.7643 30.3824 27.3572 29.3487 28.632 27.9793C29.6892 26.7494 30.4983 25.3264 31.0144 23.7889C31.623 21.8623 31.9465 19.8571 31.9744 17.8369C31.9992 17.0425 31.9992 16.9337 31.9992 15.9969C31.9992 15.0601 31.9992 14.9473 31.9744 14.1529C31.9465 12.1332 31.623 10.1285 31.0144 8.20249C30.4978 6.66543 29.6888 5.24277 28.632 4.01289C27.3553 2.64517 25.7619 1.61243 23.992 1.00569C22.168 0.376894 20.196 0.0752937 16.3544 -0.00390625H16Z" fill="white"/>
</mask>
<g mask="url(#mask1_8918_95407)">
<path d="M47.8834 -0.210938H-0.808594V21.5163H47.8834V-0.210938Z" fill="#E10E00"/>
<path d="M47.8834 21.5161H-0.808594V32.2041H47.8834V21.5161Z" fill="#1E8206"/>
<path d="M7.77701 -0.209961H-0.808594V32.1948H7.77701V-0.209961Z" fill="white"/>
<path d="M7.37989 0.228027H-0.412109V31.764H7.37989V0.228027Z" fill="white"/>
<path fill-rule="evenodd" clip-rule="evenodd" d="M2.09248 30.0619H2.39088V29.5539H2.05248V29.0579H1.79408V28.4907H1.48688V28.9987H1.14048V29.5491H0.830078V30.0955H1.17088V30.6019H1.47488V31.1491H1.77648V30.5891H2.09248V30.0619ZM1.78208 30.0883H1.43808V29.5491H1.78208V30.0883Z" fill="#E10E00"/>
<path fill-rule="evenodd" clip-rule="evenodd" d="M4.59375 2.4466H4.90255V2.9962H5.25055V3.5042H5.55695V2.9362H5.81695V2.4394H6.15055V1.9298H5.85535V1.4018H5.54095V0.841797H5.23935V1.393H4.93375V1.8978H4.59375V2.4466ZM5.20175 1.9034H5.54575V2.4434H5.20175V1.9034Z" fill="#E10E00"/>
<path fill-rule="evenodd" clip-rule="evenodd" d="M0.834791 31.1489H0.514791V30.6225H0.173191V30.0537H-0.0996094V31.1345H0.265191V31.7193H-0.0996094V32.2073H1.12439V31.6841H0.834791V31.1489Z" fill="#E10E00"/>
<path fill-rule="evenodd" clip-rule="evenodd" d="M0.830078 2.4466H1.14048V2.9962H1.48688V3.5042H1.79408V2.9362H2.05248V2.4394H2.39088V1.9298H2.09248V1.4018H1.77648V0.841797H1.47488V1.393H1.17088V1.8978H0.830078V2.4466ZM1.43728 1.9034H1.78128V2.4434H1.43728V1.9034Z" fill="#E10E00"/>
<path fill-rule="evenodd" clip-rule="evenodd" d="M0.192391 17.3265H0.470791V16.7745H0.829191V16.2073H1.13719V15.6937H0.836391V15.1865H0.516391V14.6833H0.207591V14.1377H-0.0996094V17.8625H0.191591L0.192391 17.3265Z" fill="#E10E00"/>
<path fill-rule="evenodd" clip-rule="evenodd" d="M0.173991 1.37466H0.516391V0.847463H0.83639V0.312262H1.12599V-0.210938H-0.0996094V0.277863H0.264391V0.861863H-0.0996094V1.94186H0.173191L0.173991 1.37466Z" fill="#E10E00"/>
<path fill-rule="evenodd" clip-rule="evenodd" d="M5.85535 30.0619H6.15055V29.5539H5.81695V29.0579H5.55695V28.4907H5.25055V28.9987H4.90255V29.5491H4.59375V30.0955H4.93375V30.6019H5.23935V31.1491H5.54095V30.5891H5.85535V30.0619ZM5.54575 30.0883H5.20175V29.5491H5.54575V30.0883Z" fill="#E10E00"/>
<path fill-rule="evenodd" clip-rule="evenodd" d="M7.10754 17.8628V14.1372H6.80034V14.6836H6.49074V15.186H6.17074V15.6932H5.86914V16.2076H6.17794V16.7748H6.53634V17.3268H6.81634V17.8628H7.10754Z" fill="#E10E00"/>
<path d="M6.4594 5.63379H6.125V6.16419H6.4594V5.63379Z" fill="#E10E00"/>
<path d="M0.831294 5.63477H0.496094V6.16437H0.831294V5.63477Z" fill="#E10E00"/>
<path fill-rule="evenodd" clip-rule="evenodd" d="M5.84919 -0.210938V0.322662H6.14679V0.889862H6.45639V1.38106H6.76199V1.93226H7.08999V2.45146H6.79079V2.98026H6.49479V3.53626H6.18679V4.03946H5.88839V4.58906H5.51959V5.13466H5.23479V4.58266H4.92599V4.02346H4.58679V3.49866H4.29879V2.98906H3.97879V2.45146H3.66279V1.94186H3.93639V1.37466H4.28119V0.847462H4.60119V0.312262H4.89079V-0.210938H3.65319V0.868262H3.34199V-0.210938H2.08519V0.322662H2.38359V0.889862H2.69239V1.38106H2.99959V1.93226H3.32599V2.45146H3.03079V2.98026H2.73159V3.53626H2.42279V4.03946H2.12359V4.58906H1.75639V5.13466H1.47079V4.58266H1.16199V4.02346H0.822791V3.49866H0.537191V2.98906H0.217191V2.45146H-0.0996094V3.46906H0.264391V4.05386H-0.0996094V5.64186H0.213191V5.09786H0.514791V4.56106H0.811591V5.09786H1.12439V5.64186H1.47719V6.17786H1.12439V6.68106H0.811591V7.21946H0.514791V6.68106H0.213191V6.17786H-0.0996094V7.74426H0.237991V8.29546H-0.0996094V9.36346H0.161991V8.82906H0.515591V8.31066H0.830791V7.73226H1.13319V7.20666H1.45799V6.68186H1.77079V7.21786H2.10519V7.77786H2.39079V8.28106H2.73719V8.83066H3.03079V9.33946H3.33879V9.89946H3.65159V9.33946H3.95079V8.83066H4.25639V8.31706H4.59399V7.74026H4.90759V7.22906H5.18199V6.68106H5.57079V7.24586H5.86679V7.75226H6.15079V8.30506H6.47719V8.82106H6.79719V9.36826H7.09559V8.31306H6.75959V7.74826H7.09719V6.17786H6.75239V6.68106H6.43959V7.21946H6.14119V6.68106H5.83879V6.17786H5.52599V5.64186H5.83879V5.09786H6.14119V4.56106H6.43959V5.09786H6.75239V5.64186H7.10199V4.05066H6.75479V3.46906H7.10199V0.854662H6.76039V0.294662H7.11079V-0.210938H5.84919ZM3.01079 6.17786V6.68106H2.69799V7.21946H2.40199V6.68106H2.09719V6.17786H1.78519V5.64186H2.09719V5.09786H2.40199V4.56106H2.69799V5.09786H3.01079V5.64186H3.36359V6.17786H3.01079ZM3.67079 8.28906H3.30999V7.22906H3.67079V8.28906ZM5.23479 6.17786H4.88359V6.68106H4.56839V7.21946H4.27239V6.68106H3.96999V6.17786H3.65639V5.64186H3.96999V5.09786H4.27239V4.56106H4.56839V5.09786H4.88359V5.64186H5.23479V6.17786Z" fill="#E10E00"/>
<path d="M4.58831 5.63379H4.25391V6.16419H4.58831V5.63379Z" fill="#E10E00"/>
<path d="M2.71801 5.63379H2.38281V6.16419H2.71801V5.63379Z" fill="#E10E00"/>
<path d="M4.58831 25.8257H4.25391V26.3593H4.58831V25.8257Z" fill="#E10E00"/>
<path fill-rule="evenodd" clip-rule="evenodd" d="M6.76039 31.1389H7.10199V28.5269H6.75479V27.9437H7.10199V26.3493H6.75239V26.8933H6.43959V27.4293H6.14119V26.8933H5.83879V26.3493H5.52599V25.8125H5.83879V25.3101H6.14119V24.7685H6.43959V25.3101H6.75239V25.8125H7.10199V24.2445H6.76439V23.6797H7.10039V22.6253H6.80199V23.1733H6.48199V23.6877H6.15079V24.2413H5.86679V24.7493H5.57079V25.3141H5.18199V24.7669H4.90759V24.2557H4.59399V23.6741H4.25639V23.1597H3.95079V22.6533H3.65319V22.0933H3.34039V22.6533H3.03079V23.1597H2.73959V23.7093H2.39079V24.2125H2.10279V24.7725H1.77079V25.3093H1.45799V24.7861H1.13319V24.2613H0.830791V23.6821H0.515591V23.1653H0.161991V22.6309H-0.0996094V23.6989H0.237991V24.2501H-0.0996094V25.8157H0.213191V25.3133H0.514791V24.7717H0.811591V25.3133H1.12439V25.8157H1.47719V26.3493H1.12439V26.8933H0.811591V27.4293H0.514791V26.8933H0.213191V26.3493H-0.0996094V27.9405H0.264391V28.5237H-0.0996094V29.5405H0.213191V29.0037H0.533191V28.4917H0.822791V27.9669H1.16199V27.4069H1.47079V26.8613H1.75639V27.4085H2.12359V27.9549H2.42279V28.4549H2.73159V29.0149H3.03079V29.5453H3.32999V30.0629H2.99959V30.6149H2.69239V31.1069H2.38359V31.6669H2.08519V32.2021H3.34199V31.1221H3.65319V32.2021H4.88839V31.6789H4.59879V31.1493H4.27879V30.6229H3.93639V30.0541H3.66279V29.5469H3.97559V29.0101H4.29559V28.4981H4.58359V27.9733H4.92279V27.4133H5.23159V26.8613H5.51639V27.4085H5.88519V27.9549H6.18359V28.4549H6.49479V29.0149H6.79079V29.5453H7.08999V30.0629H6.76199V30.6149H6.45639V31.1069H6.14679V31.6669H5.84919V32.2021H7.11079V31.6965H6.75879L6.76039 31.1389ZM3.36359 26.3493H3.01079V26.8933H2.69799V27.4293H2.40199V26.8933H2.09719V26.3493H1.78519V25.8125H2.09719V25.3101H2.40199V24.7685H2.69799V25.3101H3.01079V25.8125H3.36359V26.3493ZM3.30999 23.6989H3.67079V24.7589H3.30999V23.6989ZM5.23479 26.3493H4.88359V26.8933H4.56839V27.4293H4.27239V26.8933H3.96999V26.3493H3.65639V25.8125H3.96999V25.3101H4.27239V24.7685H4.56839V25.3101H4.88359V25.8125H5.23479V26.3493Z" fill="#E10E00"/>
<path d="M6.4594 25.8257H6.125V26.3593H6.4594V25.8257Z" fill="#E10E00"/>
<path d="M2.71801 25.8257H2.38281V26.3593H2.71801V25.8257Z" fill="#E10E00"/>
<path d="M0.831294 25.8257H0.496094V26.3593H0.831294V25.8257Z" fill="#E10E00"/>
<path fill-rule="evenodd" clip-rule="evenodd" d="M0.176391 13.045H0.520391V13.6178H0.812391V14.1314H1.12679V13.5858H1.46279V13.0618H1.78279V12.5266H2.07879V11.9906H2.38119V11.4618H2.72679V10.9362H2.40679V10.397H2.09479V9.85059H1.14439V10.3754H1.78439V10.9538H1.47959V11.469H1.15479V12.0106H0.819591V11.4746H0.527591V10.9402H0.185191V10.3802H-0.0996094V11.477H0.230791V12.029H-0.0996094V12.5522H0.176391V13.045Z" fill="#E10E00"/>
<path fill-rule="evenodd" clip-rule="evenodd" d="M6.82516 10.9435H6.48596V11.4779H6.19476V12.0139H5.85796V11.4691H5.53236V10.9499H5.23076V10.3715H5.87076V9.84668H4.92276V10.3939H4.60996V10.9323H4.28516V11.4579H4.63156V11.9875H4.93556V12.5227H5.23316V13.0579H5.55316V13.5819H5.88756V14.1275H6.20196V13.6147H6.49316V13.0451H6.84036V12.5531H7.11156V12.0291H6.77796V11.4771H7.11156V10.3811H6.82356L6.82516 10.9435Z" fill="#E10E00"/>
<path fill-rule="evenodd" clip-rule="evenodd" d="M0.185191 21.0507H0.527591V20.5163H0.819591V19.9803H1.15479V20.5195H1.47959V21.0379H1.78199V21.6155H1.14199V22.1403H2.09079V21.5963H2.40279V21.0547H2.72279V20.5315H2.38039V20.0003H2.07799V19.4691H1.78199V18.9315H1.46199V18.4107H1.12679V17.8667H0.812391V18.3779H0.520391V18.9491H0.176391V19.4427H-0.0996094V19.9667H0.230791V20.5195H-0.0996094V21.6155H0.185191V21.0507Z" fill="#E10E00"/>
<path fill-rule="evenodd" clip-rule="evenodd" d="M6.83751 18.946H6.48951V18.3748H6.19911V17.8628H5.88471V18.4068H5.55031V18.9284H5.23031V19.4692H4.93351V20.0036H4.63111V20.5348H4.28711V21.0588H4.61191V21.6004H4.92471V22.1444H5.86791V21.6196H5.22791V21.0372H5.52951V20.5196H5.85511V19.9796H6.19111V20.5156H6.48311V21.0508H6.82231V21.6108H7.11111V20.5156H6.77511V19.9628H7.11111V19.4388H6.83751V18.946Z" fill="#E10E00"/>
<path fill-rule="evenodd" clip-rule="evenodd" d="M3.4977 12.0293H3.3721V12.5349H3.0657V13.0581H2.7217V13.6293H2.4073V14.1349H2.1145V14.6597H1.7793V17.3093H2.0785V17.8541H2.4321V18.3741H2.7185V18.9029H3.0465V19.4445H3.3353V19.9493H3.6553V19.4453H3.9433V18.9037H4.2713V18.3749H4.5569V17.8549H4.9105V17.3093H5.2089V14.6565H4.8713V14.1317H4.5809V13.6293H4.2673V13.0581H3.9233V12.5349H3.6161V12.0293H3.4977ZM2.4073 16.2813H2.0473V15.7093H2.4073V16.2813ZM4.5721 15.7093H4.9297V16.2789H4.5721V15.7093ZM3.6601 18.9429H3.3017V18.3757H3.6601V18.9429ZM3.9281 14.6581V14.1093H4.3009V15.1853H3.9993V15.7453H3.6337V16.2253H3.9993V16.7797H4.3009V17.8605H3.9281V17.3053H3.6385V16.7845H3.3513V17.3037H3.0401V17.8469L2.7081 17.8533V16.7669H3.0281V16.2237H3.3713V15.7437H3.0313V15.2005H2.7113V14.1141H3.0433V14.6589H3.3513V15.1773H3.6409V14.6573L3.9281 14.6581ZM3.6601 13.5965H3.3017V13.0285H3.6601V13.5965Z" fill="#E10E00"/>
</g>
</g>
</g>
<defs>
<clipPath id="clip0_8918_95407">
<rect width="32" height="32.004" fill="white"/>
</clipPath>
</defs>
</svg>
