<svg width="24" height="24" viewBox="0 0 24 24" fill="none" xmlns="http://www.w3.org/2000/svg">
<g clip-path="url(#clip0_8918_95339)">
<mask id="mask0_8918_95339" style="mask-type:luminance" maskUnits="userSpaceOnUse" x="0" y="0" width="24" height="24">
<path d="M11.9997 0H11.7357C8.85578 0.0599985 7.37621 0.285593 6.00585 0.757781C4.67916 1.21185 3.48493 1.98609 2.52894 3.01192C1.73526 3.9335 1.12768 5.00013 0.739781 6.15285C0.282392 7.59771 0.0398063 9.10194 0.0197995 10.6173C-4.47024e-09 11.2125 0 11.2935 0 11.9973C0 12.7011 -4.47024e-09 12.7839 0.0197995 13.3809C0.0398976 14.8959 0.282482 16.3997 0.739781 17.8442C1.1274 18.9968 1.73502 20.0633 2.52894 20.9845C3.48448 22.0104 4.678 22.7852 6.00405 23.2404C7.37441 23.712 8.85278 23.9376 11.7339 23.9976H12.2661C15.146 23.9376 16.6256 23.712 17.9959 23.2404C19.322 22.7852 20.5155 22.0104 21.4711 20.9845C22.2649 20.0634 22.8727 18.9971 23.2608 17.8448C23.717 16.4 23.9595 14.8964 23.9808 13.3815C24 12.7815 24 12.7029 24 11.9979C24 11.2929 24 11.2113 23.9808 10.6179C23.9596 9.10264 23.7171 7.59858 23.2608 6.15345C22.8725 5.0008 22.2647 3.93422 21.4711 3.01252C20.5156 1.98694 19.322 1.21271 17.9959 0.758381C16.6256 0.285593 15.1466 0.0599985 12.2661 0H11.9997Z" fill="white"/>
</mask>
<g mask="url(#mask0_8918_95339)">
<path d="M35.6114 24.2824H-1.16406L-0.85387 12.0337H35.6114V24.2824Z" fill="#E80506"/>
<path d="M35.6114 12.0338H-0.85387L-1.16406 -0.214844H35.6114V12.0338Z" fill="#17108C"/>
<path d="M-1.16406 -0.214844L16.7365 12.0338L-1.16406 24.2825" fill="white"/>
<path d="M6.67814 12.034C6.69411 12.6302 6.47277 13.2085 6.06273 13.6417C5.65268 14.0749 5.08746 14.3277 4.49119 14.3445C3.90264 14.309 3.34983 14.0502 2.94565 13.6209C2.54147 13.1916 2.31641 12.6242 2.31641 12.0346C2.31641 11.4449 2.54147 10.8775 2.94565 10.4482C3.34983 10.0189 3.90264 9.76012 4.49119 9.72461C5.08751 9.74156 5.65273 9.99446 6.06276 10.4278C6.47279 10.8611 6.69411 11.4394 6.67814 12.0358" fill="#F9C900"/>
<path d="M4.49099 7.2124L4.0332 7.74819L4.2618 9.80074H4.71899L4.94758 7.74819L4.49099 7.2124Z" fill="#F9C900"/>
<path d="M5.06299 9.8607L5.44698 8.30914L5.19378 7.97314L4.90039 9.8007L5.06299 9.8607Z" fill="#F9C900"/>
<path d="M3.9205 9.8607L3.53711 8.30914L3.7897 7.97314L4.0837 9.8007L3.9205 9.8607Z" fill="#F9C900"/>
<path d="M7.73881 8.59717L7.05723 8.63377L5.84766 10.2579L6.00905 10.4295L6.17105 10.5987L7.70461 9.31775L7.73881 8.59717Z" fill="#F9C900"/>
<path d="M6.37503 10.8993L7.68419 10.0858L7.72919 9.65918L6.29883 10.7332L6.37503 10.8993Z" fill="#F9C900"/>
<path d="M5.56445 10.0448L6.33063 8.66064L6.73382 8.61084L5.72045 10.1228L5.56445 10.0448Z" fill="#F9C900"/>
<path d="M9.04213 12.0337L8.53455 11.5537L6.5918 11.7937V12.2779L8.53455 12.5179L9.04213 12.0337Z" fill="#F9C900"/>
<path d="M6.53711 12.639L8.00707 13.0434L8.32506 12.7758L6.59471 12.4668L6.53711 12.639Z" fill="#F9C900"/>
<path d="M6.53516 11.4317L8.00392 11.0249L8.32311 11.2919L6.59335 11.6051L6.53516 11.4317Z" fill="#F9C900"/>
<path d="M7.73746 15.4535L7.70326 14.7336L6.16909 13.4502L6.0077 13.6206L5.8457 13.7922L7.05647 15.4169L7.73746 15.4535Z" fill="#F9C900"/>
<path d="M5.56055 14.0047L6.32613 15.3901L6.72992 15.4399L5.71654 13.9243L5.56055 14.0047Z" fill="#F9C900"/>
<path d="M6.37127 13.1519L7.68044 13.9666L7.72604 14.3932L6.29688 13.3187L6.37127 13.1519Z" fill="#F9C900"/>
<path d="M4.4985 16.8567L4.95149 16.3168L4.71149 14.2666H4.4823H4.2549L4.03711 16.3204L4.4985 16.8567Z" fill="#F9C900"/>
<path d="M3.9115 14.2114L3.53711 15.7648L3.7927 16.1002L4.0759 14.2708L3.9115 14.2114Z" fill="#F9C900"/>
<path d="M5.05322 14.2026L5.44621 15.753L5.19542 16.0914L4.89062 14.2656L5.05322 14.2026Z" fill="#F9C900"/>
<path d="M1.25195 15.4219L1.93354 15.3907L3.16111 13.7815L3.00151 13.6087L2.84011 13.4365L1.29635 14.7013L1.25195 15.4219Z" fill="#F9C900"/>
<path d="M2.64125 13.1362L1.32128 13.9324L1.27148 14.3602L2.71145 13.3024L2.64125 13.1362Z" fill="#F9C900"/>
<path d="M3.44083 13.9987L2.66085 15.3786L2.25586 15.4218L3.28603 13.9219L3.44083 13.9987Z" fill="#F9C900"/>
<path d="M-0.0722656 12.0249L0.431122 12.5109L2.37627 12.2865V12.0465V11.8065L0.438322 11.5449L-0.0722656 12.0249Z" fill="#F9C900"/>
<path d="M2.43655 11.4429L0.970183 11.0229L0.650391 11.2875L2.37835 11.6121L2.43655 11.4429Z" fill="#F9C900"/>
<path d="M2.42978 12.6488L0.958017 13.0447L0.640625 12.7736L2.37578 12.4766L2.42978 12.6488Z" fill="#F9C900"/>
<path d="M1.24805 8.62012L1.28225 9.3401L2.81461 10.6247L2.9772 10.4543L3.1386 10.2839L1.92963 8.66032L1.24805 8.62012Z" fill="#F9C900"/>
<path d="M3.42223 10.0723L2.65725 8.68576L2.25586 8.63477L3.26803 10.1503L3.42223 10.0723Z" fill="#F9C900"/>
<path d="M2.61138 10.9223L1.30341 10.1099L1.25781 9.68213L2.68698 10.7585L2.61138 10.9223Z" fill="#F9C900"/>
<path d="M13.9445 13.2475L13.4435 12.4861L12.6035 12.7561L13.1339 12.0163L12.6311 11.2555L13.4603 11.5591L13.9907 10.8193L13.9733 11.7469L14.8025 12.0517L13.9625 12.3211L13.9445 13.2475Z" fill="#F9C900"/>
<path d="M1.41131 3.60382L0.554534 3.40223L0.109345 4.20141L0.0241474 3.27863L-0.832031 3.07884L-0.0274513 2.70744L-0.111449 1.78467L0.470536 2.48005L1.27512 2.10866L0.829927 2.90844L1.41131 3.60382Z" fill="#F9C900"/>
<path d="M1.26923 21.837L0.456252 21.4824L-0.113734 22.1874L-0.0429359 21.2646L-0.853516 20.9082L-0.000337064 20.6922L0.0692613 19.7646L0.52765 20.5554L1.38023 20.3394L0.810843 21.045L1.26923 21.837Z" fill="#F9C900"/>
<path d="M12.2559 0.5L13.2637 0.530273C15.4682 0.619089 16.6971 0.839353 17.835 1.23047V1.22949C19.0803 1.65815 20.2016 2.38623 21.0996 3.34961C21.7536 4.11076 22.2735 4.97653 22.6387 5.90918L22.7861 6.31445C23.2263 7.71004 23.4595 9.16269 23.4795 10.626V10.6357C23.499 11.2241 23.499 11.3028 23.499 12.002C23.499 12.7011 23.499 12.777 23.4795 13.3652V13.375C23.4596 14.8385 23.2264 16.2917 22.7861 17.6875C22.4202 18.7749 21.8472 19.7812 21.0996 20.6514C20.2569 21.554 19.2185 22.2498 18.0654 22.6855L17.833 22.7695C16.5344 23.2165 15.1145 23.4395 12.2559 23.499H11.7451C8.88558 23.4401 7.46654 23.2164 6.16797 22.7695H6.16699C4.92386 22.3429 3.80482 21.6172 2.90723 20.6572C2.24997 19.8939 1.72691 19.0259 1.36035 18.0898L1.21289 17.6846C0.772995 16.2889 0.539744 14.8363 0.519531 13.373L0.518555 13.3633C0.499601 12.7774 0.5 12.7008 0.5 12C0.5 11.2993 0.499803 11.2223 0.520508 10.6348V10.624C0.540742 9.16084 0.774972 7.7081 1.21484 6.3125C1.5824 5.2222 2.15665 4.21279 2.90723 3.34082C3.80458 2.38123 4.92434 1.65715 6.16699 1.23047L6.16797 1.22949C7.30416 0.838474 8.53366 0.619068 10.7383 0.530273L11.7451 0.5H12.2559Z" stroke="#F6F6F6"/>
</g>
</g>
<defs>
<clipPath id="clip0_8918_95339">
<rect width="24" height="23.9976" fill="white"/>
</clipPath>
</defs>
</svg>
