<svg width="24" height="24" viewBox="0 0 24 24" fill="none" xmlns="http://www.w3.org/2000/svg">
<g clip-path="url(#clip0_8918_95325)">
<mask id="mask0_8918_95325" style="mask-type:luminance" maskUnits="userSpaceOnUse" x="0" y="0" width="24" height="25">
<path d="M11.9994 0.0018001H11.7342C8.85404 0.0618031 7.37377 0.287414 6.0033 0.759038C4.67719 1.21442 3.48347 1.98901 2.52733 3.01455C1.73372 3.93686 1.1263 5.00417 0.738637 6.15751C0.282207 7.60251 0.0396266 9.10651 0.018601 10.6217C8.27056e-08 11.2176 0 11.3004 0 12.0048C0 12.7092 8.27056e-08 12.7914 0.018601 13.3849C0.0396197 14.9003 0.2822 16.4045 0.738637 17.8497C1.12651 19.0024 1.73392 20.0691 2.52733 20.9909C3.4835 22.0162 4.67723 22.7906 6.0033 23.2458C7.37377 23.7174 8.85224 23.9436 11.7342 24.003H12.2658C15.146 23.943 16.6262 23.7174 17.9961 23.2458C19.3222 22.7906 20.5159 22.0162 21.4721 20.9909C22.2655 20.069 22.8731 19.0023 23.2614 17.8497C23.7182 16.4046 23.9608 14.9003 23.9814 13.3849C24 12.789 24 12.7074 24 12.0048C24 11.3022 24 11.2176 23.9814 10.6217C23.9607 9.10648 23.7181 7.60243 23.2614 6.15751C22.873 5.0051 22.2654 3.93867 21.4721 3.01695C20.5162 1.9898 19.3223 1.21373 17.9955 0.757238C16.6256 0.285614 15.1466 0.0588029 12.2652 0L11.9994 0.0018001Z" fill="white"/>
</mask>
<g mask="url(#mask0_8918_95325)">
<path d="M40.855 21.9126H-6.18555V23.8165H40.855V21.9126Z" fill="#D11242"/>
<path d="M40.855 20.0103H-6.18555V21.9129H40.855V20.0103Z" fill="white"/>
<path d="M40.855 18.1069H-6.18555V20.0102H40.855V18.1069Z" fill="#D11242"/>
<path d="M40.855 16.2036H-6.18555V18.1069H40.855V16.2036Z" fill="white"/>
<path d="M40.855 14.3013H-6.18555V16.2052H40.855V14.3013Z" fill="#D11242"/>
<path d="M40.855 12.3979H-6.18555V14.3012H40.855V12.3979Z" fill="white"/>
<path d="M40.8551 10.4951H12.6309V12.3978H40.8551V10.4951Z" fill="#D11242"/>
<path d="M40.8551 8.59326H12.6309V10.496H40.8551V8.59326Z" fill="white"/>
<path d="M40.8551 6.68896H12.6309V8.59286H40.8551V6.68896Z" fill="#D11242"/>
<path d="M40.8551 4.78662H12.6309V6.68932H40.8551V4.78662Z" fill="white"/>
<path d="M40.8551 2.88379H12.6309V4.78708H40.8551V2.88379Z" fill="#D11242"/>
<path d="M40.8551 0.97998H12.6309V2.88388H40.8551V0.97998Z" fill="white"/>
<path d="M40.8551 -0.922852H12.6309V0.979844H40.8551V-0.922852Z" fill="#D11242"/>
<path d="M12.6308 -0.922852H-6.18555V12.3978H12.6308V-0.922852Z" fill="#002D62"/>
<path d="M-0.301003 2.26926L-0.153396 1.81323L-0.541016 1.53122H-0.0609915L0.0872163 1.0752L0.235424 1.53122H0.715448L0.327228 1.81323L0.475435 2.26926L0.087816 1.98724L-0.301003 2.26926Z" fill="white"/>
<path d="M1.26736 0.937335L1.41556 0.480713L1.02734 0.199299H1.50737L1.65558 -0.257324L1.80378 0.199299H2.28381L1.89619 0.480713L2.04439 0.937335L1.65617 0.655321L1.26736 0.937335Z" fill="white"/>
<path d="M2.83376 2.26926L2.98137 1.81323L2.59375 1.53122H3.07377L3.22258 1.0752L3.37019 1.53122H3.85021L3.46259 1.81323L3.6108 2.26926L3.22318 1.98724L2.83376 2.26926Z" fill="white"/>
<path d="M4.40212 0.937335L4.55033 0.480713L4.16211 0.199299H4.64213L4.78974 -0.257324L4.93855 0.199299H5.41857L5.03035 0.480713L5.17856 0.937335L4.79034 0.655321L4.40212 0.937335Z" fill="white"/>
<path d="M5.97048 2.26926L6.11869 1.81323L5.73047 1.53122H6.21049L6.3581 1.0752L6.50691 1.53122H6.98693L6.59871 1.81323L6.74692 2.26926L6.3551 1.98724L5.97048 2.26926Z" fill="white"/>
<path d="M7.53824 0.937335L7.68645 0.480713L7.29883 0.199299H7.77885L7.92706 -0.257324L8.07527 0.199299H8.55529L8.16767 0.480713L8.31528 0.937335L7.92706 0.655321L7.53824 0.937335Z" fill="white"/>
<path d="M9.10465 2.26926L9.25285 1.81323L8.86523 1.53122H9.34526L9.49347 1.0752L9.64227 1.53122H10.1223L9.73348 1.81323L9.88169 2.26926L9.49347 1.98724L9.10465 2.26926Z" fill="white"/>
<path d="M10.6756 0.937071L10.8238 0.480448L10.4355 0.197834H10.9156L11.0638 -0.258789L11.212 0.197834H11.692L11.3032 0.479248L11.4514 0.935871L11.0632 0.653857L10.6756 0.937071Z" fill="white"/>
<path d="M-0.301003 4.93662L-0.153396 4.4812L-0.541016 4.19859H-0.0609915L0.0872163 3.74316L0.235424 4.19859H0.715448L0.327228 4.4812L0.475435 4.93662L0.087816 4.65461L-0.301003 4.93662Z" fill="white"/>
<path d="M1.26736 3.60264L1.41556 3.14722L1.02734 2.8646H1.50737L1.65558 2.40918L1.80378 2.8646H2.28381L1.89619 3.14722L2.04439 3.60264L1.65617 3.32063L1.26736 3.60264Z" fill="white"/>
<path d="M2.83376 4.93662L2.98137 4.4812L2.59375 4.19859H3.07377L3.22258 3.74316L3.37019 4.19859H3.85021L3.46259 4.4812L3.6108 4.93662L3.22198 4.65761L2.83376 4.93662Z" fill="white"/>
<path d="M4.40212 3.60264L4.55033 3.14722L4.16211 2.8646H4.64213L4.78974 2.40918L4.93855 2.8646H5.41857L5.03035 3.14722L5.17856 3.60264L4.79034 3.32063L4.40212 3.60264Z" fill="white"/>
<path d="M5.97048 4.93662L6.11869 4.4812L5.73047 4.19859H6.21049L6.3581 3.74316L6.50691 4.19859H6.98693L6.59871 4.4812L6.74692 4.93662L6.3551 4.65761L5.97048 4.93662Z" fill="white"/>
<path d="M7.53824 3.60264L7.68645 3.14722L7.29883 2.8646H7.77885L7.92706 2.40918L8.07527 2.8646H8.55529L8.16767 3.14722L8.31528 3.60264L7.92706 3.32063L7.53824 3.60264Z" fill="white"/>
<path d="M9.10465 4.93662L9.25285 4.4812L8.86523 4.19859H9.34526L9.49347 3.74316L9.64227 4.19859H10.1223L9.73348 4.4812L9.88169 4.93662L9.49347 4.65461L9.10465 4.93662Z" fill="white"/>
<path d="M10.6756 3.60264L10.8238 3.14722L10.4355 2.8646H10.9156L11.0638 2.40918L11.212 2.8646H11.692L11.3032 3.14722L11.4514 3.60264L11.0632 3.32063L10.6756 3.60264Z" fill="white"/>
<path d="M-0.301003 7.60362L-0.153396 7.14819L-0.541016 6.86558H-0.0609915L0.0872163 6.41016L0.235424 6.86558H0.715448L0.327228 7.14819L0.475435 7.60362L0.087816 7.3222L-0.301003 7.60362Z" fill="white"/>
<path d="M1.26736 6.2705L1.41556 5.81507L1.02734 5.53246H1.50737L1.65558 5.07764L1.80378 5.53306H2.28381L1.89619 5.81567L2.04439 6.2711L1.65617 5.98968L1.26736 6.2705Z" fill="white"/>
<path d="M2.83376 7.60362L2.98137 7.14819L2.59375 6.86558H3.07377L3.22258 6.41016L3.37019 6.86558H3.85021L3.46259 7.14819L3.6108 7.60362L3.22318 7.3222L2.83376 7.60362Z" fill="white"/>
<path d="M4.40212 6.2705L4.55033 5.81507L4.16211 5.53246H4.64213L4.78974 5.07764L4.93855 5.53306H5.41857L5.03035 5.81567L5.17856 6.2711L4.79034 5.98968L4.40212 6.2705Z" fill="white"/>
<path d="M5.97048 7.60362L6.11869 7.14819L5.73047 6.86558H6.21049L6.3581 6.41016L6.50691 6.86558H6.98693L6.59871 7.14819L6.74692 7.60362L6.3587 7.3222L5.97048 7.60362Z" fill="white"/>
<path d="M7.53824 6.2705L7.68645 5.81507L7.29883 5.53246H7.77885L7.92646 5.07764L8.07467 5.53306H8.55469L8.16707 5.81567L8.31468 6.2711L7.92646 5.98968L7.53824 6.2705Z" fill="white"/>
<path d="M9.10465 7.60362L9.25285 7.14819L8.86523 6.86558H9.34526L9.49347 6.41016L9.64227 6.86558H10.1223L9.73348 7.14819L9.88169 7.60362L9.49347 7.3222L9.10465 7.60362Z" fill="white"/>
<path d="M10.6756 6.2705L10.8238 5.81507L10.4355 5.53246H10.9156L11.062 5.07764L11.2102 5.53306H11.6902L11.3014 5.81567L11.4496 6.2711L11.0614 5.98968L10.6756 6.2705Z" fill="white"/>
<path d="M-0.301003 10.2712L-0.153396 9.81518L-0.541016 9.53317H-0.0609915L0.0872163 9.07715L0.235424 9.53317H0.715448L0.327228 9.81518L0.475435 10.2712L0.087816 9.98919L-0.301003 10.2712Z" fill="white"/>
<path d="M1.26736 8.93782L1.41556 8.4818L1.02734 8.19979H1.50737L1.65558 7.74316L1.80378 8.19979H2.28381L1.89619 8.4818L2.04439 8.93782L1.65617 8.65581L1.26736 8.93782Z" fill="white"/>
<path d="M2.83376 10.2712L2.98137 9.81518L2.59375 9.53317H3.07377L3.22258 9.07715L3.37019 9.53317H3.85021L3.46259 9.81518L3.6108 10.2712L3.22318 9.98919L2.83376 10.2712Z" fill="white"/>
<path d="M4.40212 8.93782L4.55033 8.4818L4.16211 8.19979H4.64213L4.78974 7.74316L4.93855 8.19979H5.41857L5.03035 8.4818L5.17856 8.93782L4.79034 8.65581L4.40212 8.93782Z" fill="white"/>
<path d="M5.97048 10.2712L6.11869 9.81518L5.73047 9.53317H6.21049L6.3581 9.07715L6.50691 9.53317H6.98693L6.59871 9.81518L6.74692 10.2712L6.3587 9.98919L5.97048 10.2712Z" fill="white"/>
<path d="M7.53824 8.93782L7.68645 8.4818L7.29883 8.19979H7.77885L7.92706 7.74316L8.07527 8.19979H8.55529L8.16767 8.4818L8.31528 8.93782L7.92706 8.65581L7.53824 8.93782Z" fill="white"/>
<path d="M9.10465 10.2712L9.25285 9.81518L8.86523 9.53317H9.34526L9.49347 9.07715L9.64227 9.53317H10.1223L9.73348 9.81518L9.88169 10.2712L9.49347 9.98919L9.10465 10.2712Z" fill="white"/>
<path d="M10.6756 8.93827L10.8238 8.48225L10.4355 8.19783H10.9156L11.0638 7.74121L11.212 8.19783H11.692L11.3032 8.47985L11.4514 8.93587L11.0632 8.65386L10.6756 8.93827Z" fill="white"/>
<path d="M1.26736 11.6051L1.41556 11.1497L1.02734 10.8676H1.50737L1.65558 10.4116L1.80378 10.8676H2.28381L1.89619 11.1497L2.04439 11.6051L1.65617 11.3231L1.26736 11.6051Z" fill="white"/>
<path d="M4.40212 11.6051L4.55033 11.1497L4.16211 10.8676H4.64213L4.78974 10.4116L4.93855 10.8676H5.41857L5.03035 11.1497L5.17856 11.6051L4.79034 11.3231L4.40212 11.6051Z" fill="white"/>
<path d="M7.53824 11.6051L7.68645 11.1497L7.29883 10.8676H7.77885L7.92706 10.4116L8.07527 10.8676H8.55529L8.16767 11.1497L8.31528 11.6051L7.92706 11.3231L7.53824 11.6051Z" fill="white"/>
<path d="M10.6756 11.6051L10.8238 11.1497L10.4355 10.8676H10.9156L11.0638 10.4116L11.212 10.8676H11.692L11.3032 11.1497L11.4514 11.6051L11.0632 11.3231L10.6756 11.6051Z" fill="white"/>
</g>
</g>
<defs>
<clipPath id="clip0_8918_95325">
<rect width="24" height="24.003" fill="white"/>
</clipPath>
</defs>
</svg>
