<svg width="32" height="32" viewBox="0 0 32 32" fill="none" xmlns="http://www.w3.org/2000/svg">
<g clip-path="url(#clip0_8918_95419)">
<mask id="mask0_8918_95419" style="mask-type:luminance" maskUnits="userSpaceOnUse" x="0" y="0" width="32" height="32">
<path d="M16.0004 0H15.646C11.8059 0.080002 9.83224 0.381609 8.005 1.00963C6.23877 1.61778 4.64896 2.65046 3.37528 4.0169C2.31706 5.24607 1.50692 6.66857 0.989625 8.2058C0.380525 10.1317 0.0570778 12.1366 0.0296007 14.1564C0 14.9516 0 15.0628 0 16.0012C0 16.9396 2.98031e-09 17.0492 0.0256006 17.8412C0.0532552 19.8615 0.376697 21.8669 0.985625 23.7934C1.5028 25.3302 2.31296 26.7522 3.37128 27.9807C4.64499 29.3488 6.2366 30.3815 8.005 30.9872C9.83224 31.6168 11.8043 31.9184 15.646 31.9984H16.3548C20.1949 31.9184 22.1678 31.6168 23.9942 30.9872C25.763 30.3814 27.3551 29.3488 28.6295 27.9807C29.6876 26.7522 30.4975 25.3302 31.0144 23.7934C31.6236 21.8669 31.9471 19.8616 31.9744 17.8412C32 17.046 32 16.938 32 16.0012C32 15.0644 32 14.9516 31.9744 14.1564C31.9473 12.1365 31.6238 10.1317 31.0144 8.2058C30.4973 6.66863 29.6875 5.24614 28.6295 4.0169C27.3559 2.65077 25.7664 1.61814 24.0006 1.00963C22.1718 0.381609 20.2005 0.080002 16.3588 0H16.0004Z" fill="white"/>
</mask>
<g mask="url(#mask0_8918_95419)">
<path d="M55.6178 -0.297852H-0.400391V32.3534H55.6178V-0.297852Z" fill="#4A9318"/>
<path d="M55.6178 4.36621H-0.400391V27.6892H55.6178V4.36621Z" fill="#F6D128"/>
<path d="M55.6178 9.03027H-0.400391V23.0242H55.6178V9.03027Z" fill="#CB0423"/>
<path d="M55.6178 13.6963H-0.400391V18.3604H55.6178V13.6963Z" fill="black"/>
<path fill-rule="evenodd" clip-rule="evenodd" d="M-0.400391 -0.297852V32.3534H0.786839L22.5554 16.0282L0.786839 -0.297852H-0.400391Z" fill="black"/>
<path fill-rule="evenodd" clip-rule="evenodd" d="M-0.400391 -0.297852V32.3534L21.369 16.0282L-0.400391 -0.297852Z" fill="white"/>
<path fill-rule="evenodd" clip-rule="evenodd" d="M8.41073 7.73535L4.74023 15.1755L10.3196 17.9244L8.41073 7.73535Z" fill="#CB0423"/>
<path fill-rule="evenodd" clip-rule="evenodd" d="M8.41115 7.73535L12.0816 15.1755L6.50391 17.9244L8.41115 7.73535Z" fill="#CB0423"/>
<path fill-rule="evenodd" clip-rule="evenodd" d="M8.41013 7.73535L5.63086 15.5483L11.4918 17.6332L8.41013 7.73535Z" fill="#CB0423"/>
<path fill-rule="evenodd" clip-rule="evenodd" d="M8.41096 7.73535L11.1894 15.5483L5.33008 17.6332L8.41096 7.73535Z" fill="#CB0423"/>
<path fill-rule="evenodd" clip-rule="evenodd" d="M16.297 13.4625L8.09044 12.2705L7.19922 18.4275L16.297 13.4625Z" fill="#CB0423"/>
<path fill-rule="evenodd" clip-rule="evenodd" d="M0.523438 13.4625L8.73004 12.2705L9.62447 18.4251L0.523438 13.4625Z" fill="#CB0423"/>
<path fill-rule="evenodd" clip-rule="evenodd" d="M16.2977 13.4627L8.00785 13.2363L7.83984 19.4541L16.2977 13.4627Z" fill="#CB0423"/>
<path fill-rule="evenodd" clip-rule="evenodd" d="M0.523438 13.4627L8.81324 13.2339L8.98525 19.4516L0.523438 13.4627Z" fill="#CB0423"/>
<path fill-rule="evenodd" clip-rule="evenodd" d="M12.5988 21.794L11.1451 14.8179L7.65625 15.5451L12.5988 21.794Z" fill="#CB0423"/>
<path fill-rule="evenodd" clip-rule="evenodd" d="M12.5998 21.7938L6.41406 18.2545L8.18371 15.1616L12.5998 21.7938Z" fill="#CB0423"/>
<path fill-rule="evenodd" clip-rule="evenodd" d="M4.2207 21.7938L10.4065 18.2545L8.63921 15.1616L4.2207 21.7938Z" fill="#CB0423"/>
<path fill-rule="evenodd" clip-rule="evenodd" d="M4.2207 21.794L5.67434 14.8179L9.16403 15.5451L4.2207 21.794Z" fill="#CB0423"/>
<path fill-rule="evenodd" clip-rule="evenodd" d="M11.2584 21.2075C11.263 20.1458 11.4525 19.093 11.8184 18.0963C12.0235 17.5375 12.2722 16.9958 12.5624 16.4762C12.7083 16.4852 12.8523 16.514 12.9905 16.5618C13.4481 16.689 13.5737 16.665 13.5737 16.4522C13.5737 16.3314 13.1057 15.9146 10.8176 14.0002C9.27756 12.7097 8.01273 11.6921 7.94953 11.6921C7.92124 11.6933 7.89319 11.6864 7.86867 11.6723C7.84416 11.6581 7.82419 11.6372 7.81113 11.6121C7.79753 11.5697 7.72392 11.0705 7.65112 10.5017C7.60421 10.081 7.52721 9.66415 7.42072 9.25444C7.33863 9.08039 7.20665 8.93468 7.04155 8.83581C6.87645 8.73695 6.68568 8.68941 6.49349 8.69923C6.37608 8.67393 6.25477 8.67258 6.13683 8.69526C6.01889 8.71795 5.90673 8.76419 5.80708 8.83123C5.65506 8.92324 5.48347 8.97806 5.30626 8.99124C5.24257 8.98975 5.1792 9.00085 5.11981 9.02391C5.06041 9.04697 5.00615 9.08153 4.96014 9.12561C4.91413 9.16968 4.87728 9.22241 4.85169 9.28076C4.82611 9.33912 4.8123 9.40195 4.81105 9.46565V9.63765L5.21106 9.62565C5.43027 9.61925 5.54227 9.62565 5.45827 9.64405C5.17426 9.69845 5.28866 10.1001 5.62307 10.2201C5.98308 10.3489 5.96868 10.2729 5.96868 11.9609C6.0286 12.597 5.99138 13.2385 5.85828 13.8634C5.71307 14.395 5.71307 14.9558 5.85828 15.4874C5.91668 15.673 5.96548 15.845 5.96708 15.8698C5.85558 16.049 5.72842 16.2179 5.58707 16.3746C5.25388 16.7265 5.04002 17.1743 4.97586 17.6547C4.96571 17.762 4.92765 17.8649 4.86545 17.9531C4.79681 18.0501 4.75928 18.1658 4.75785 18.2846C4.75643 18.4035 4.79116 18.52 4.85745 18.6187C5.20109 19.5872 5.44398 20.5885 5.58227 21.6068C5.58227 21.7724 5.60867 21.7668 6.49189 21.5804C7.56896 21.4195 8.66227 21.3983 9.74478 21.5171C10.1392 21.5732 10.5984 21.658 10.7648 21.7036C11.2896 21.8484 11.2608 21.8772 11.2624 21.2003" fill="black"/>
<path fill-rule="evenodd" clip-rule="evenodd" d="M10.5386 21.5533C9.67111 21.3581 8.78053 21.2857 7.89292 21.3381C7.39291 21.3597 6.86809 21.3997 6.72729 21.4269L6.47208 21.4773L6.40888 21.0501C6.38059 20.9032 6.36533 20.7541 6.36328 20.6045C6.54104 20.5626 6.72108 20.5311 6.90249 20.5101C8.25615 20.3771 9.62111 20.4133 10.9658 20.6181L11.1458 20.6549V21.1685C11.1458 21.5429 11.1266 21.6797 11.0762 21.6741C11.0386 21.6693 10.7962 21.6149 10.5386 21.5533Z" fill="#FCFF2C"/>
<path fill-rule="evenodd" clip-rule="evenodd" d="M5.68845 21.5917C5.68845 21.4685 5.38204 19.9965 5.24844 19.4773C5.15723 19.1221 5.08203 18.8109 5.08203 18.7821C5.08203 18.7533 5.16203 18.7885 5.26764 18.8581C5.35321 18.9223 5.45222 18.9663 5.55724 18.9869C5.84125 18.9909 5.99645 19.4181 6.23726 20.8557C6.27166 21.0565 6.31006 21.2829 6.32446 21.3565C6.34686 21.4717 6.31566 21.4973 6.07166 21.5549C5.76365 21.6285 5.68845 21.6349 5.68845 21.5917Z" fill="#FCFF2C"/>
<path fill-rule="evenodd" clip-rule="evenodd" d="M11.0681 20.465C11.0513 20.4338 11.0737 20.3754 11.1193 20.3338C11.1857 20.2714 11.1993 20.2754 11.1993 20.353C11.1993 20.4674 11.1089 20.5426 11.0657 20.465" fill="#FCFF2C"/>
<path fill-rule="evenodd" clip-rule="evenodd" d="M6.63894 20.2304C6.78535 20.0704 6.78855 20.0656 6.90295 20.1816C7.01735 20.2976 7.01335 20.3016 6.91975 20.3416C6.8341 20.3708 6.74458 20.387 6.65414 20.3896H6.49414L6.63894 20.2304Z" fill="#FCFF2C"/>
<path fill-rule="evenodd" clip-rule="evenodd" d="M10.2757 20.3244C10.3052 20.2644 10.3495 20.2129 10.4045 20.1748C10.4973 20.1076 10.5245 20.1172 10.6101 20.2468L10.7093 20.3956H10.4797C10.3309 20.3956 10.2589 20.37 10.2733 20.3244" fill="#FCFF2C"/>
<path fill-rule="evenodd" clip-rule="evenodd" d="M10.766 20.2362C10.7182 20.183 10.6839 20.1191 10.666 20.0498C10.7511 20.0447 10.8364 20.053 10.9188 20.0746L11.1588 20.1194L11.0228 20.261L10.8868 20.4034L10.766 20.2362Z" fill="#FCFF2C"/>
<path fill-rule="evenodd" clip-rule="evenodd" d="M6.26135 20.2461C6.22054 20.1277 6.31655 20.0309 6.47415 20.0293C6.59975 20.0293 6.59655 20.0413 6.43415 20.2109C6.31015 20.3405 6.29495 20.3437 6.26135 20.2461Z" fill="#FCFF2C"/>
<path fill-rule="evenodd" clip-rule="evenodd" d="M7.54715 20.1353L7.69195 19.9673L7.83275 20.1033C7.91276 20.1833 7.98316 20.2473 7.99276 20.2513C7.89828 20.2694 7.8025 20.2798 7.70635 20.2825L7.40234 20.3033L7.54715 20.1353Z" fill="#FCFF2C"/>
<path fill-rule="evenodd" clip-rule="evenodd" d="M9.50041 20.2796L9.31641 20.2412L9.44841 20.1036L9.58121 19.9668L9.74122 20.1492C9.91482 20.3508 9.89562 20.3612 9.50041 20.2796Z" fill="#FCFF2C"/>
<path fill-rule="evenodd" clip-rule="evenodd" d="M7.0671 20.1195L6.9375 19.9659H7.13511C7.2348 19.9683 7.33423 19.9546 7.42951 19.9251C7.50951 19.8923 7.49991 19.9251 7.39591 20.0787C7.3542 20.1534 7.29852 20.2194 7.23191 20.2731C7.16746 20.2332 7.11147 20.181 7.0671 20.1195Z" fill="#FCFF2C"/>
<path fill-rule="evenodd" clip-rule="evenodd" d="M8.47206 20.0893L8.63206 19.9053L8.78646 20.0653C8.84396 20.1215 8.89593 20.1831 8.94167 20.2493C8.83834 20.2687 8.73302 20.2754 8.62806 20.2693H8.31445L8.47206 20.0893Z" fill="#FCFF2C"/>
<path fill-rule="evenodd" clip-rule="evenodd" d="M9.93349 20.1194L9.80469 19.9658H10.0623C10.3407 19.9658 10.3759 20.013 10.2223 20.1706C10.0927 20.301 10.0903 20.301 9.93669 20.1194" fill="#FCFF2C"/>
<path fill-rule="evenodd" clip-rule="evenodd" d="M8.0007 20.0571L7.87109 19.9043H8.46071L8.3311 20.0571C8.1711 20.2467 8.1599 20.2467 8.0007 20.0571Z" fill="#FCFF2C"/>
<path fill-rule="evenodd" clip-rule="evenodd" d="M8.99484 20.0571L8.86523 19.9043H9.45565L9.32605 20.0571C9.16604 20.2467 9.15484 20.2467 8.99484 20.0571Z" fill="#FCFF2C"/>
<path fill-rule="evenodd" clip-rule="evenodd" d="M10.7597 19.9034C10.6229 19.877 10.0749 19.8234 9.54128 19.7786C8.50833 19.7081 7.47087 19.7438 6.4452 19.885C6.2348 19.9138 6.18359 19.9018 6.18359 19.8282C6.18359 19.6682 7.28922 19.5674 8.99486 19.5674C9.82929 19.5674 10.6749 19.5906 10.8829 19.6186C11.2285 19.6658 11.2557 19.6802 11.2557 19.8178C11.2557 19.9778 11.2085 19.989 10.7597 19.9034Z" fill="#FCFF2C"/>
<path fill-rule="evenodd" clip-rule="evenodd" d="M6.47332 19.3826C6.54519 19.2992 6.63001 19.2279 6.72453 19.1714C6.79335 19.2062 6.85266 19.2573 6.89733 19.3202L7.02214 19.469L6.75493 19.5074C6.60772 19.529 6.43492 19.5562 6.37732 19.5714C6.29732 19.5898 6.31972 19.541 6.47332 19.3826Z" fill="#FCFF2C"/>
<path fill-rule="evenodd" clip-rule="evenodd" d="M6.07904 19.4098C6.03824 19.2874 6.04944 19.2498 6.14384 19.2122C6.21298 19.1852 6.28759 19.175 6.36144 19.1826C6.45185 19.1978 6.44145 19.2234 6.29664 19.3778L6.12864 19.557L6.07904 19.4098Z" fill="#FCFF2C"/>
<path fill-rule="evenodd" clip-rule="evenodd" d="M11.1992 19.482C11.1992 19.4532 11.2344 19.4124 11.2792 19.394C11.324 19.3756 11.3496 19.3884 11.3288 19.4492C11.2952 19.5452 11.2 19.57 11.2 19.482" fill="#FCFF2C"/>
<path fill-rule="evenodd" clip-rule="evenodd" d="M7.49601 19.2628C7.57601 19.1612 7.64482 19.0732 7.64482 19.0684C7.70665 19.1175 7.76493 19.171 7.81922 19.2284L7.99443 19.4012L7.67442 19.4212L7.34961 19.442L7.49601 19.2628Z" fill="#FCFF2C"/>
<path fill-rule="evenodd" clip-rule="evenodd" d="M10.4422 19.4308L10.207 19.4068L10.3758 19.2508L10.5438 19.0908L10.6798 19.2308C10.827 19.3852 10.8542 19.4796 10.7454 19.4628C10.7078 19.4572 10.5718 19.4412 10.4422 19.4284" fill="#FCFF2C"/>
<path fill-rule="evenodd" clip-rule="evenodd" d="M7.03305 19.2611L6.87305 19.1203L7.13705 19.0755C7.23038 19.0541 7.32642 19.0471 7.42186 19.0547C7.43306 19.0675 7.38586 19.1507 7.31706 19.2403L7.19146 19.4003L7.03305 19.2611Z" fill="#FCFF2C"/>
<path fill-rule="evenodd" clip-rule="evenodd" d="M9.44556 19.3626L9.31836 19.3234L9.45756 19.1762C9.57677 19.0514 9.61197 19.0418 9.68557 19.1098C9.74239 19.1661 9.79016 19.2309 9.82717 19.3018C9.87357 19.3994 9.85997 19.4138 9.72717 19.4082C9.63186 19.4039 9.53737 19.3886 9.44556 19.3626Z" fill="#FCFF2C"/>
<path fill-rule="evenodd" clip-rule="evenodd" d="M10.8397 19.2228L10.6797 19.0308L10.8173 19.0692C10.935 19.095 11.0552 19.1082 11.1757 19.1084H11.3965L11.2309 19.2596C11.1723 19.3187 11.1061 19.3698 11.0341 19.4116C10.9598 19.3592 10.8946 19.2948 10.8413 19.2212" fill="#FCFF2C"/>
<path fill-rule="evenodd" clip-rule="evenodd" d="M8.01018 19.2082C7.95942 19.1563 7.91945 19.0949 7.89258 19.0274C7.89258 19.005 8.03258 18.9858 8.20459 18.9858H8.51579L8.41179 19.1146C8.22699 19.3418 8.13898 19.361 8.01178 19.2082" fill="#FCFF2C"/>
<path fill-rule="evenodd" clip-rule="evenodd" d="M8.51893 19.1952C8.69654 19.0216 8.75894 19.0256 8.87334 19.2192C8.95334 19.352 8.95334 19.3528 8.65734 19.352H8.36133L8.51893 19.1952Z" fill="#FCFF2C"/>
<path fill-rule="evenodd" clip-rule="evenodd" d="M9.88697 19.1664L9.75977 18.9824H9.89577C9.99779 18.9861 10.0993 18.9989 10.199 19.0208L10.3686 19.0592L10.2126 19.2048C10.1594 19.2593 10.1001 19.3074 10.0358 19.348C9.98095 19.2915 9.93165 19.2299 9.88857 19.164" fill="#FCFF2C"/>
<path fill-rule="evenodd" clip-rule="evenodd" d="M8.99484 19.1429L8.86523 18.9893H9.45565L9.32605 19.1429C9.16604 19.3325 9.15484 19.3325 8.99484 19.1429Z" fill="#FCFF2C"/>
<path fill-rule="evenodd" clip-rule="evenodd" d="M6.04768 18.9395C6.09 18.8038 6.12525 18.666 6.15329 18.5267L6.21889 18.2203L6.8237 17.8827C7.11072 17.7281 7.38588 17.5524 7.64692 17.3571C7.76773 17.2531 7.89333 17.1491 7.92853 17.1283C8.72898 17.123 9.52858 17.1813 10.3198 17.3027C10.8646 17.3899 11.819 17.5787 11.851 17.6051C11.7999 17.8145 11.7379 18.0212 11.6654 18.2243C11.5558 18.5579 11.4558 18.8683 11.4438 18.9139C11.427 18.9771 11.3598 18.9875 11.1742 18.9563C9.67039 18.8092 8.15541 18.8175 6.6533 18.9811C6.08288 19.0731 5.99968 19.0667 6.04928 18.9379" fill="#FCFF2C"/>
<path fill-rule="evenodd" clip-rule="evenodd" d="M10.655 18.5619C10.7366 18.4779 10.7927 18.3726 10.8168 18.258C10.8409 18.1435 10.832 18.0244 10.7911 17.9148C10.7502 17.8051 10.679 17.7093 10.5858 17.6384C10.4926 17.5676 10.3812 17.5247 10.2646 17.5146C10.1871 17.5155 10.1106 17.5325 10.0399 17.5644C9.96929 17.5964 9.90606 17.6427 9.85424 17.7004C9.80242 17.7581 9.76315 17.8259 9.73891 17.8995C9.71467 17.9732 9.70598 18.0511 9.71341 18.1283C9.69868 18.243 9.72095 18.3594 9.77699 18.4606C9.83304 18.5618 9.91992 18.6425 10.025 18.6909C10.1301 18.7392 10.2478 18.7528 10.3611 18.7296C10.4745 18.7064 10.5774 18.6477 10.655 18.5619Z" fill="black"/>
<path fill-rule="evenodd" clip-rule="evenodd" d="M10.0612 18.5475C9.99245 18.4989 9.93692 18.4339 9.8997 18.3584C9.86247 18.2829 9.84471 18.1993 9.84805 18.1152C9.85139 18.031 9.87572 17.9491 9.91882 17.8768C9.96191 17.8044 10.0224 17.744 10.0948 17.7011C10.1638 17.6694 10.2399 17.6564 10.3155 17.6635C10.3911 17.6706 10.4635 17.6975 10.5254 17.7414C10.5872 17.7854 10.6365 17.8449 10.668 17.9139C10.6996 17.983 10.7124 18.0591 10.7052 18.1347C10.7059 18.2107 10.6874 18.2857 10.6513 18.3526C10.6153 18.4195 10.5629 18.4762 10.499 18.5175C10.4351 18.5587 10.3618 18.583 10.286 18.5883C10.2101 18.5935 10.1342 18.5795 10.0652 18.5475" fill="#FCFF2C"/>
<path fill-rule="evenodd" clip-rule="evenodd" d="M8.43848 18.5224C8.51568 18.4528 8.57474 18.3654 8.61058 18.2678C8.64641 18.1702 8.65793 18.0653 8.64415 17.9623C8.63036 17.8593 8.59168 17.7611 8.53145 17.6764C8.47123 17.5916 8.39126 17.5229 8.29848 17.476C8.2374 17.447 8.1712 17.4303 8.10367 17.4269C8.03613 17.4235 7.9686 17.4335 7.90492 17.4562C7.84124 17.479 7.78267 17.514 7.73256 17.5594C7.68244 17.6048 7.64177 17.6596 7.61286 17.7208C7.53251 17.8341 7.4963 17.9729 7.51103 18.1111C7.52576 18.2493 7.59042 18.3773 7.69287 18.4712C7.73235 18.5317 7.78535 18.5823 7.84769 18.6189C7.91003 18.6555 7.98001 18.6771 8.05213 18.6821C8.12424 18.687 8.19652 18.6752 8.26329 18.6475C8.33005 18.6198 8.38947 18.577 8.43688 18.5224" fill="black"/>
<path fill-rule="evenodd" clip-rule="evenodd" d="M7.9108 18.4946C7.82357 18.4419 7.75456 18.3638 7.71308 18.2708C7.67161 18.1777 7.65965 18.0741 7.67883 17.9741C7.69801 17.874 7.7474 17.7822 7.82034 17.7111C7.89329 17.6399 7.98629 17.5928 8.08681 17.5762C8.18533 17.5899 8.27723 17.6336 8.35001 17.7014C8.42278 17.7693 8.47289 17.8579 8.49353 17.9552C8.51416 18.0525 8.50431 18.1538 8.46532 18.2453C8.42633 18.3368 8.36009 18.4141 8.27561 18.4666C8.09961 18.5682 8.07801 18.5698 7.9108 18.4946Z" fill="#FCFF2C"/>
<path fill-rule="evenodd" clip-rule="evenodd" d="M5.79993 18.7668C5.87993 18.5404 5.86713 18.25 5.78153 18.25C5.73672 18.25 5.71032 18.33 5.71032 18.4644C5.7149 18.5667 5.6896 18.6682 5.63752 18.7564C5.57672 18.8196 5.56872 18.7708 5.59432 18.4804C5.61112 18.286 5.60392 18.1284 5.57832 18.1284C5.52872 18.1284 5.43272 18.4212 5.39752 18.6788C5.37752 18.83 5.37672 18.83 5.33112 18.6516C5.31338 18.582 5.3107 18.5093 5.32326 18.4386C5.33581 18.3678 5.36331 18.3005 5.40392 18.2412C5.47016 18.1133 5.51066 17.9735 5.52312 17.83C5.52312 17.6796 5.62792 17.534 6.13593 16.9844C6.47354 16.6196 6.86555 16.166 7.00876 15.9764C7.25596 15.6507 7.26796 15.6179 7.25836 15.2867C7.26231 15.1573 7.24749 15.0279 7.21436 14.9027C7.14956 14.8299 7.06396 15.2003 7.09756 15.4019C7.12956 15.5843 7.09756 15.6459 6.74075 16.0948C6.52634 16.3668 6.16234 16.7756 5.93273 17.0052C5.50952 17.43 5.35672 17.6588 5.35672 17.874C5.33907 18.0058 5.30326 18.1345 5.25031 18.2564C5.19965 18.3585 5.1744 18.4713 5.17671 18.5852C5.19591 18.6244 5.18311 18.6228 5.14231 18.5852C5.10151 18.5476 5.09191 18.446 5.13111 18.2516C5.15988 18.1475 5.16857 18.0389 5.15671 17.9316C5.09831 17.8252 5.02791 17.962 4.99671 18.2516C4.97671 18.4188 4.93911 18.5396 4.9127 18.5212C4.8327 18.466 4.8583 18.1652 4.95591 18.01C5.02386 17.8765 5.07056 17.7331 5.09431 17.5852C5.18275 17.1212 5.4014 16.6919 5.72473 16.3476C5.91833 16.1132 6.07673 15.9107 6.07673 15.9003C6.07673 15.8899 6.02553 15.7163 5.96313 15.5171C5.81815 14.9987 5.81015 14.4515 5.93993 13.9291C6.12334 13.4134 6.42469 12.9477 6.81995 12.5691C7.28716 12.0843 7.73037 11.7938 7.94558 11.829C8.13038 11.8602 13.4657 16.3228 13.4657 16.4476C13.4652 16.4597 13.4623 16.4715 13.4571 16.4825C13.4519 16.4934 13.4446 16.5032 13.4356 16.5112C13.4266 16.5193 13.416 16.5255 13.4046 16.5294C13.3931 16.5333 13.381 16.5348 13.3689 16.534C13.3153 16.534 11.9577 16.1228 10.352 15.6211C7.78558 14.8211 7.41677 14.6899 7.30556 14.5467C7.22969 14.4427 7.18749 14.3179 7.18462 14.1892C7.18176 14.0605 7.21839 13.934 7.28956 13.8267C7.34439 13.7563 7.38217 13.6741 7.39997 13.5867C7.39997 13.4515 7.12796 13.7979 7.07996 13.9995C7.05505 14.1344 7.06181 14.2733 7.09971 14.4052C7.13761 14.5371 7.20562 14.6584 7.29836 14.7595C7.65075 14.918 8.01378 15.0516 8.38479 15.1595C9.29361 15.4467 9.35522 15.4795 9.40402 15.6395C9.52002 16.026 9.13761 16.4748 8.5864 16.5996C8.3824 16.6532 8.19173 16.7486 8.02638 16.8796C7.59317 17.2545 7.11704 17.5768 6.60795 17.8396C6.448 17.9074 6.29523 17.991 6.15194 18.0892C6.087 18.214 6.04526 18.3495 6.02873 18.4892C5.96313 18.8684 5.93753 18.9276 5.83193 18.9276C5.77113 18.9276 5.76553 18.894 5.80793 18.7676" fill="#FCFF2C"/>
<path fill-rule="evenodd" clip-rule="evenodd" d="M11.3948 17.3568C10.6118 17.1851 9.81786 17.0675 9.01869 17.0048L8.13867 16.9248L8.46908 16.7912C8.66834 16.7095 8.86232 16.6155 9.04989 16.5096C9.1426 16.449 9.24638 16.4073 9.35527 16.387C9.46415 16.3667 9.57598 16.3681 9.68431 16.3912C10.1763 16.4312 10.5075 16.3336 10.6307 16.116C10.6819 16.0232 10.7315 15.9384 10.7387 15.9248C11.0324 15.9882 11.3222 16.0683 11.6068 16.1648L12.4596 16.4264L12.2948 16.7408C12.2036 16.9112 12.0884 17.1408 12.0396 17.252C11.9396 17.4736 11.9044 17.4808 11.3916 17.3544" fill="#FCFF2C"/>
<path fill-rule="evenodd" clip-rule="evenodd" d="M9.45508 16.2392C9.40868 16.208 9.41028 16.1672 9.46388 16.0856C9.50948 16.0168 9.55028 15.9992 9.57268 16.0392C9.62388 16.1312 9.53108 16.292 9.45508 16.2392Z" fill="#FCFF2C"/>
<path fill-rule="evenodd" clip-rule="evenodd" d="M9.65675 16.2275C9.65675 16.1475 9.69595 16.1475 9.73675 16.2275C9.75595 16.2619 9.74475 16.2891 9.71275 16.2891C9.70483 16.289 9.69702 16.2873 9.68977 16.2841C9.68252 16.281 9.67598 16.2764 9.67054 16.2706C9.66509 16.2649 9.66085 16.2581 9.65807 16.2507C9.65529 16.2433 9.65402 16.2354 9.65435 16.2275" fill="#FCFF2C"/>
<path fill-rule="evenodd" clip-rule="evenodd" d="M9.93359 16.1939C9.93359 16.1411 9.95839 16.1139 9.98879 16.1363C10.0608 16.1851 10.0608 16.2899 9.98879 16.2899C9.95839 16.2899 9.93359 16.2467 9.93359 16.1939Z" fill="#FCFF2C"/>
<path fill-rule="evenodd" clip-rule="evenodd" d="M10.1944 16.1914C10.167 16.1502 10.1531 16.1016 10.1544 16.0522C10.1544 15.9834 10.1696 15.977 10.2152 16.0266C10.2319 16.0451 10.2443 16.0671 10.2512 16.0911C10.2581 16.1151 10.2595 16.1404 10.2552 16.165C10.244 16.2042 10.216 16.2162 10.1944 16.1914Z" fill="#FCFF2C"/>
<path fill-rule="evenodd" clip-rule="evenodd" d="M9.75174 16.069C9.72479 16.0276 9.71061 15.9792 9.71094 15.9298C9.71094 15.861 9.72774 15.8498 9.77254 15.9034C9.78936 15.9221 9.80176 15.9443 9.80883 15.9684C9.81589 15.9925 9.81743 16.0178 9.81335 16.0426C9.80215 16.0818 9.77334 16.093 9.75174 16.069Z" fill="#FCFF2C"/>
<path fill-rule="evenodd" clip-rule="evenodd" d="M10.4 16.04C10.34 15.9336 10.408 15.9112 10.48 16.0128C10.524 16.0704 10.528 16.1056 10.4912 16.1056C10.4714 16.1028 10.4526 16.0954 10.4362 16.084C10.4198 16.0726 10.4063 16.0575 10.3968 16.04" fill="#FCFF2C"/>
<path fill-rule="evenodd" clip-rule="evenodd" d="M9.96404 15.9249C9.9567 15.9085 9.95507 15.8901 9.95942 15.8727C9.96377 15.8553 9.97385 15.8399 9.98804 15.8289C10.0192 15.8081 10.044 15.8345 10.044 15.8873C10.044 15.9945 10.0112 16.0105 9.96404 15.9249Z" fill="#FCFF2C"/>
<path fill-rule="evenodd" clip-rule="evenodd" d="M10.209 15.8257C10.209 15.7729 10.233 15.7457 10.2634 15.7681C10.3354 15.8177 10.3338 15.9217 10.2634 15.9217C10.233 15.9217 10.209 15.8785 10.209 15.8257Z" fill="#FCFF2C"/>
<path fill-rule="evenodd" clip-rule="evenodd" d="M9.54688 15.7715C9.54688 15.6635 9.57968 15.6483 9.62688 15.7339C9.63495 15.75 9.63696 15.7684 9.63256 15.7859C9.62815 15.8034 9.61762 15.8187 9.60288 15.8291C9.57168 15.8507 9.54688 15.8243 9.54688 15.7715Z" fill="#FCFF2C"/>
<path fill-rule="evenodd" clip-rule="evenodd" d="M9.76758 15.7027C9.76758 15.6499 9.79238 15.6227 9.82278 15.6451C9.89398 15.6939 9.89398 15.7987 9.82278 15.7987C9.79238 15.7987 9.76758 15.7555 9.76758 15.7027Z" fill="#FCFF2C"/>
<path fill-rule="evenodd" clip-rule="evenodd" d="M6.06123 12.7568C6.04523 12.4912 6.04523 11.8767 6.06123 11.3831C6.09243 10.3687 6.06843 10.2687 5.75722 10.1575C5.50361 10.0663 5.41161 9.9903 5.41161 9.8695C5.41161 9.78949 5.46841 9.78229 5.74682 9.8143C6.03883 9.8487 6.07963 9.8407 6.06683 9.75269C6.03963 9.59269 5.65322 9.47509 5.24441 9.49909C4.9244 9.51749 4.8836 9.50789 4.9052 9.41908C4.94064 9.3172 5.00774 9.22932 5.0967 9.16829C5.18565 9.10726 5.29179 9.07628 5.39961 9.07988C5.56546 9.05749 5.72605 9.00604 5.87402 8.92787C6.06127 8.82167 6.28014 8.78538 6.49164 8.82547C7.21166 8.86627 7.35086 9.07908 7.53966 10.4511C7.61327 10.9847 7.67327 11.4783 7.67487 11.5495C7.67487 11.6415 7.57487 11.7519 7.32126 11.9335C6.90506 12.2446 6.53778 12.6162 6.23163 13.036L6.09243 13.2408L6.06123 12.7568Z" fill="#FCFF2C"/>
<path fill-rule="evenodd" clip-rule="evenodd" d="M6.59869 9.5474C6.63704 9.51297 6.6617 9.46589 6.66817 9.41476C6.67463 9.36363 6.66246 9.31189 6.63389 9.269C6.55389 9.07699 6.46429 9.12019 6.50189 9.3322C6.52349 9.4578 6.50669 9.4874 6.41149 9.4874C6.31629 9.4874 6.29549 9.449 6.29549 9.2954C6.29549 9.14179 6.28268 9.11539 6.21548 9.18099C6.18986 9.20551 6.16963 9.2351 6.15608 9.26787C6.14253 9.30065 6.13596 9.33589 6.13679 9.37134C6.13762 9.40679 6.14582 9.44168 6.16089 9.47379C6.17595 9.50589 6.19754 9.53451 6.22428 9.5578C6.34189 9.70421 6.47709 9.70101 6.60189 9.5474" fill="black"/>
<path d="M16.3457 0.5L17.6914 0.540039C20.4297 0.650291 22.0533 0.912856 23.5029 1.37305L23.835 1.48242C25.5184 2.06187 27.034 3.04545 28.249 4.34668H28.25C29.1391 5.37876 29.8452 6.55339 30.3408 7.81934L30.541 8.36719C31.1333 10.2442 31.4477 12.1979 31.4746 14.166V14.1758C31.5008 14.9628 31.501 15.0703 31.501 16.0039C31.501 16.4708 31.5003 16.7298 31.4971 16.9707L31.4746 17.8271V17.8369C31.4478 19.8054 31.1334 21.7594 30.541 23.6367C30.0457 25.1085 29.2701 26.471 28.2578 27.6484C27.0403 28.9532 25.521 29.9392 23.833 30.5186H23.832C22.0768 31.1226 20.164 31.4214 16.3457 31.501H15.6572C11.8373 31.4222 9.92531 31.1227 8.16992 30.5186C6.48467 29.9403 4.96716 28.9563 3.75098 27.6543C2.73489 26.4745 1.95601 25.1095 1.45898 23.6338C0.866945 21.7564 0.552586 19.8024 0.525391 17.834V17.8242L0.50293 16.9697C0.499761 16.7287 0.5 16.4683 0.5 16C0.5 15.0646 0.499627 14.9603 0.527344 14.1738L0.52832 14.1631C0.555556 12.1949 0.869966 10.2414 1.46191 8.36426C1.95799 6.89266 2.7329 5.5301 3.74512 4.35254C4.88599 3.12912 6.29259 2.1862 7.85449 1.5957L8.16992 1.48242C9.70589 0.953779 11.363 0.658792 14.3115 0.540039L15.6572 0.5H16.3457Z" stroke="#F6F6F6"/>
</g>
</g>
<defs>
<clipPath id="clip0_8918_95419">
<rect width="32" height="31.9984" fill="white"/>
</clipPath>
</defs>
</svg>
