<svg width="32" height="32" viewBox="0 0 32 32" fill="none" xmlns="http://www.w3.org/2000/svg">
<g clip-path="url(#clip0_8918_95373)">
<mask id="mask0_8918_95373" style="mask-type:luminance" maskUnits="userSpaceOnUse" x="0" y="0" width="32" height="32">
<path d="M15.9972 0.00239984H15.6436C11.8039 0.0823938 9.83046 0.383171 8.0034 1.01192C6.23548 1.61902 4.64404 2.65169 3.36935 4.0189C2.31134 5.24849 1.50155 6.6714 0.984726 8.20898C0.376229 10.1354 0.0528288 12.1405 0.0247982 14.1605C1.1026e-07 14.9549 0 15.0653 0 16.0044C0 16.9435 1.1026e-07 17.0531 0.0247982 17.8443C0.0528197 19.8646 0.376219 21.8699 0.984726 23.7966C1.50183 25.3334 2.31161 26.7554 3.36935 27.9843C4.64409 29.3513 6.23553 30.3837 8.0034 30.9905C9.83046 31.6192 11.8015 31.9208 15.6436 32H16.3524C20.1921 31.92 22.1655 31.6192 23.9918 30.9905C25.7597 30.3837 27.3511 29.3513 28.6259 27.9843C29.6836 26.7553 30.4937 25.3333 31.0113 23.7966C31.6203 21.87 31.9437 19.8646 31.9712 17.8443C31.996 17.0499 31.996 16.9411 31.996 16.0044C31.996 15.0677 31.996 14.9549 31.9712 14.1605C31.9436 12.1405 31.6202 10.1353 31.0113 8.20898C30.4935 6.67263 29.6835 5.25091 28.6259 4.0221C27.3516 2.65274 25.7598 1.61811 23.991 1.00952C22.1647 0.380771 20.1929 0.0783941 16.3516 0L15.9972 0.00239984Z" fill="white"/>
</mask>
<g mask="url(#mask0_8918_95373)">
<path d="M54.4668 29.2129H-8.24609V31.7511H54.4668V29.2129Z" fill="#D11242"/>
<path d="M54.4668 26.6772H-8.24609V29.2139H54.4668V26.6772Z" fill="white"/>
<path d="M54.4668 24.1396H-8.24609V26.6771H54.4668V24.1396Z" fill="#D11242"/>
<path d="M54.4668 21.6021H-8.24609V24.1395H54.4668V21.6021Z" fill="white"/>
<path d="M54.4668 19.0654H-8.24609V21.6036H54.4668V19.0654Z" fill="#D11242"/>
<path d="M54.4668 16.5283H-8.24609V19.0657H54.4668V16.5283Z" fill="white"/>
<path d="M54.4674 13.9917H16.8398V16.5283H54.4674V13.9917Z" fill="#D11242"/>
<path d="M54.4674 11.4556H16.8398V13.9922H54.4674V11.4556Z" fill="white"/>
<path d="M54.4674 8.91748H16.8398V11.4557H54.4674V8.91748Z" fill="#D11242"/>
<path d="M54.4674 6.38086H16.8398V8.91747H54.4674V6.38086Z" fill="white"/>
<path d="M54.4674 3.84424H16.8398V6.38165H54.4674V3.84424Z" fill="#D11242"/>
<path d="M54.4674 1.30615H16.8398V3.84436H54.4674V1.30615Z" fill="white"/>
<path d="M54.4674 -1.23047H16.8398V1.30614H54.4674V-1.23047Z" fill="#D11242"/>
<path d="M16.8392 -1.23047H-8.24609V16.5282H16.8392V-1.23047Z" fill="#002D62"/>
<path d="M-0.400727 3.02499L-0.203941 2.41703L-0.720703 2.04106H-0.080751L0.116835 1.43311L0.31442 2.04106H0.954372L0.43681 2.41703L0.634395 3.02499L0.117634 2.64901L-0.400727 3.02499Z" fill="white"/>
<path d="M1.68912 1.24942L1.8867 0.640664L1.36914 0.265493H2.00909L2.20668 -0.343262L2.40426 0.265493H3.04421L2.52745 0.640664L2.72504 1.24942L2.20748 0.873447L1.68912 1.24942Z" fill="white"/>
<path d="M3.77896 3.02499L3.97575 2.41703L3.45898 2.04106H4.09894L4.29732 1.43311L4.49411 2.04106H5.13406L4.6173 2.41703L4.81488 3.02499L4.29812 2.64901L3.77896 3.02499Z" fill="white"/>
<path d="M5.8688 1.24942L6.06639 0.640664L5.54883 0.265493H6.18878L6.38556 -0.343262L6.58395 0.265493H7.2239L6.70634 0.640664L6.90393 1.24942L6.38636 0.873447L5.8688 1.24942Z" fill="white"/>
<path d="M7.9606 3.02499L8.15819 2.41703L7.64062 2.04106H8.28058L8.47736 1.43311L8.67575 2.04106H9.3157L8.79814 2.41703L8.99572 3.02499L8.47336 2.64901L7.9606 3.02499Z" fill="white"/>
<path d="M10.0496 1.24942L10.2472 0.640664L9.73047 0.265493H10.3704L10.568 -0.343262L10.7656 0.265493H11.4055L10.8888 0.640664L11.0856 1.24942L10.568 0.873447L10.0496 1.24942Z" fill="white"/>
<path d="M12.1395 3.02499L12.3371 2.41703L11.8203 2.04106H12.4603L12.6579 1.43311L12.8562 2.04106H13.4962L12.9778 2.41703L13.1754 3.02499L12.6579 2.64901L12.1395 3.02499Z" fill="white"/>
<path d="M14.2321 1.24955L14.4297 0.640799L13.9121 0.264028H14.5521L14.7496 -0.344727L14.9472 0.264028H15.5872L15.0688 0.639199L15.2664 1.24795L14.7488 0.871982L14.2321 1.24955Z" fill="white"/>
<path d="M-0.400727 6.58083L-0.203941 5.97367L-0.720703 5.5969H-0.080751L0.116835 4.98975L0.31442 5.5969H0.954372L0.43681 5.97367L0.634395 6.58083L0.117634 6.20485L-0.400727 6.58083Z" fill="white"/>
<path d="M1.68912 4.80251L1.8867 4.19535L1.36914 3.81858H2.00909L2.20668 3.21143L2.40426 3.81858H3.04421L2.52745 4.19535L2.72504 4.80251L2.20748 4.42653L1.68912 4.80251Z" fill="white"/>
<path d="M3.77896 6.58083L3.97575 5.97367L3.45898 5.5969H4.09894L4.29732 4.98975L4.49411 5.5969H5.13406L4.6173 5.97367L4.81488 6.58083L4.29652 6.20885L3.77896 6.58083Z" fill="white"/>
<path d="M5.8688 4.80251L6.06639 4.19535L5.54883 3.81858H6.18878L6.38556 3.21143L6.58395 3.81858H7.2239L6.70634 4.19535L6.90393 4.80251L6.38636 4.42653L5.8688 4.80251Z" fill="white"/>
<path d="M7.9606 6.58083L8.15819 5.97367L7.64062 5.5969H8.28058L8.47736 4.98975L8.67575 5.5969H9.3157L8.79814 5.97367L8.99572 6.58083L8.47336 6.20885L7.9606 6.58083Z" fill="white"/>
<path d="M10.0496 4.80251L10.2472 4.19535L9.73047 3.81858H10.3704L10.568 3.21143L10.7656 3.81858H11.4055L10.8888 4.19535L11.0856 4.80251L10.568 4.42653L10.0496 4.80251Z" fill="white"/>
<path d="M12.1395 6.58083L12.3371 5.97367L11.8203 5.5969H12.4603L12.6579 4.98975L12.8562 5.5969H13.4962L12.9778 5.97367L13.1754 6.58083L12.6579 6.20485L12.1395 6.58083Z" fill="white"/>
<path d="M14.2321 4.80251L14.4297 4.19535L13.9121 3.81858H14.5521L14.7496 3.21143L14.9472 3.81858H15.5872L15.0688 4.19535L15.2664 4.80251L14.7488 4.42653L14.2321 4.80251Z" fill="white"/>
<path d="M-0.400727 10.1365L-0.203941 9.52934L-0.720703 9.15256H-0.080751L0.116835 8.54541L0.31442 9.15256H0.954372L0.43681 9.52934L0.634395 10.1365L0.117634 9.76132L-0.400727 10.1365Z" fill="white"/>
<path d="M1.68912 8.35932L1.8867 7.75217L1.36914 7.3754H2.00909L2.20668 6.76904L2.40426 7.3762H3.04421L2.52745 7.75297L2.72504 8.36012L2.20748 7.98495L1.68912 8.35932Z" fill="white"/>
<path d="M3.77896 10.1365L3.97575 9.52934L3.45898 9.15256H4.09894L4.29732 8.54541L4.49411 9.15256H5.13406L4.6173 9.52934L4.81488 10.1365L4.29812 9.76132L3.77896 10.1365Z" fill="white"/>
<path d="M5.8688 8.35932L6.06639 7.75217L5.54883 7.3754H6.18878L6.38556 6.76904L6.58395 7.3762H7.2239L6.70634 7.75297L6.90393 8.36012L6.38636 7.98495L5.8688 8.35932Z" fill="white"/>
<path d="M7.9606 10.1365L8.15819 9.52934L7.64062 9.15256H8.28058L8.47736 8.54541L8.67575 9.15256H9.3157L8.79814 9.52934L8.99572 10.1365L8.47816 9.76132L7.9606 10.1365Z" fill="white"/>
<path d="M10.0496 8.35932L10.2472 7.75217L9.73047 7.3754H10.3704L10.5672 6.76904L10.7648 7.3762H11.4047L10.888 7.75297L11.0848 8.36012L10.5672 7.98495L10.0496 8.35932Z" fill="white"/>
<path d="M12.1395 10.1365L12.3371 9.52934L11.8203 9.15256H12.4603L12.6579 8.54541L12.8562 9.15256H13.4962L12.9778 9.52934L13.1754 10.1365L12.6579 9.76132L12.1395 10.1365Z" fill="white"/>
<path d="M14.2321 8.35932L14.4297 7.75217L13.9121 7.3754H14.5521L14.7472 6.76904L14.9448 7.3762H15.5848L15.0664 7.75297L15.264 8.36012L14.7464 7.98495L14.2321 8.35932Z" fill="white"/>
<path d="M-0.400727 13.6934L-0.203941 13.0855L-0.720703 12.7095H-0.080751L0.116835 12.1016L0.31442 12.7095H0.954372L0.43681 13.0855L0.634395 13.6934L0.117634 13.3175L-0.400727 13.6934Z" fill="white"/>
<path d="M1.68912 11.9159L1.8867 11.308L1.36914 10.932H2.00909L2.20668 10.3232L2.40426 10.932H3.04421L2.52745 11.308L2.72504 11.9159L2.20748 11.54L1.68912 11.9159Z" fill="white"/>
<path d="M3.77896 13.6934L3.97575 13.0855L3.45898 12.7095H4.09894L4.29732 12.1016L4.49411 12.7095H5.13406L4.6173 13.0855L4.81488 13.6934L4.29812 13.3175L3.77896 13.6934Z" fill="white"/>
<path d="M5.8688 11.9159L6.06639 11.308L5.54883 10.932H6.18878L6.38556 10.3232L6.58395 10.932H7.2239L6.70634 11.308L6.90393 11.9159L6.38636 11.54L5.8688 11.9159Z" fill="white"/>
<path d="M7.9606 13.6934L8.15819 13.0855L7.64062 12.7095H8.28058L8.47736 12.1016L8.67575 12.7095H9.3157L8.79814 13.0855L8.99572 13.6934L8.47816 13.3175L7.9606 13.6934Z" fill="white"/>
<path d="M10.0496 11.9159L10.2472 11.308L9.73047 10.932H10.3704L10.568 10.3232L10.7656 10.932H11.4055L10.8888 11.308L11.0856 11.9159L10.568 11.54L10.0496 11.9159Z" fill="white"/>
<path d="M12.1395 13.6934L12.3371 13.0855L11.8203 12.7095H12.4603L12.6579 12.1016L12.8562 12.7095H13.4962L12.9778 13.0855L13.1754 13.6934L12.6579 13.3175L12.1395 13.6934Z" fill="white"/>
<path d="M14.2321 11.9157L14.4297 11.3078L13.9121 10.9286H14.5521L14.7496 10.3198L14.9472 10.9286H15.5872L15.0688 11.3046L15.2664 11.9125L14.7488 11.5365L14.2321 11.9157Z" fill="white"/>
<path d="M1.68912 15.4715L1.8867 14.8643L1.36914 14.4883H2.00909L2.20668 13.8804L2.40426 14.4883H3.04421L2.52745 14.8643L2.72504 15.4715L2.20748 15.0955L1.68912 15.4715Z" fill="white"/>
<path d="M5.8688 15.4715L6.06639 14.8643L5.54883 14.4883H6.18878L6.38556 13.8804L6.58395 14.4883H7.2239L6.70634 14.8643L6.90393 15.4715L6.38636 15.0955L5.8688 15.4715Z" fill="white"/>
<path d="M10.0496 15.4715L10.2472 14.8643L9.73047 14.4883H10.3704L10.568 13.8804L10.7656 14.4883H11.4055L10.8888 14.8643L11.0856 15.4715L10.568 15.0955L10.0496 15.4715Z" fill="white"/>
<path d="M14.2321 15.4715L14.4297 14.8643L13.9121 14.4883H14.5521L14.7496 13.8804L14.9472 14.4883H15.5872L15.0688 14.8643L15.2664 15.4715L14.7488 15.0955L14.2321 15.4715Z" fill="white"/>
</g>
</g>
<defs>
<clipPath id="clip0_8918_95373">
<rect width="31.996" height="32" fill="white"/>
</clipPath>
</defs>
</svg>
