<svg width="56" height="56" viewBox="0 0 56 56" fill="none" xmlns="http://www.w3.org/2000/svg">
<g clip-path="url(#clip0_9412_77432)">
<path d="M0 28.0001C0 29.6487 0 29.8319 0.0392798 31.2319C0.144026 34.3329 0.471357 37.8917 1.71522 41.6469C2.59247 44.303 4.24222 47.1684 5.89197 48.974C7.9869 51.2769 10.8805 53.1608 14.0098 54.2341C17.2045 55.3328 20.6612 55.8565 27.378 56H28.6219C35.3518 55.8565 38.7954 55.3328 41.9901 54.2341C45.1194 53.1608 47.9999 51.2769 50.1081 48.974C51.7575 47.1553 53.4074 44.303 54.2846 41.6469C55.5284 37.8917 55.869 34.3198 55.9605 31.2319C56 29.845 56 29.6487 56 28.0001C56 26.3515 56 26.1683 55.9605 24.7683C55.856 21.6674 55.5284 18.1085 54.2846 14.3533C53.4074 11.6972 51.7575 8.83179 50.1081 7.02621C48.013 4.72338 45.1194 2.83926 41.9901 1.76636C38.7954 0.667293 35.3388 0.130841 28.6219 0H27.378C20.6481 0.143926 17.2045 0.667293 14.0098 1.76636C10.8805 2.83926 8.00001 4.72338 5.89197 7.02621C4.24222 8.8449 2.59247 11.6972 1.71522 14.3533C0.484451 18.1085 0.144026 21.6674 0.0392798 24.7683C0 26.1553 0 26.3515 0 28.0001Z" fill="#DF242E"/>
<path d="M45.4868 26.4108C44.5985 25.8941 43.7765 25.4172 42.9678 24.927C42.7557 24.7945 42.57 24.7813 42.3447 24.874C40.608 25.6292 38.8182 26.3048 37.1344 27.1527C32.8788 29.2989 28.981 32.0148 25.2424 34.9427C25.1761 34.9957 25.1231 35.0487 25.0568 35.1282C25.9451 35.8171 26.8201 36.4795 27.6686 37.1684C27.894 37.3539 28.0133 37.3142 28.2254 37.1684C30.1478 35.7111 32.0436 34.2008 34.0322 32.823C37.3466 30.531 40.8201 28.4776 44.519 26.8215C44.8239 26.689 45.1156 26.5566 45.5 26.3976M19.7272 31.3392C20.5094 31.8824 21.2652 32.3858 22.0076 32.9157C22.2197 33.0615 22.3522 33.0482 22.5511 32.9025C23.7045 32.0413 24.858 31.167 26.0379 30.3456C30.2538 27.4044 34.7216 24.9403 39.6401 23.3637C39.7197 23.3372 39.7728 23.2975 39.8921 23.2312C39.0701 22.8205 38.3012 22.4231 37.519 22.0521C37.3996 21.9991 37.2272 22.0124 37.0947 22.0521C35.517 22.5953 33.9261 23.0723 32.3882 23.7082C28.2784 25.4172 24.5265 27.7489 20.9603 30.3986C20.5493 30.7033 20.1383 31.0212 19.714 31.3524M14.8087 28.4908C15.5246 28.9015 16.1875 29.2592 16.8371 29.6567C17.0757 29.8024 17.2216 29.7891 17.447 29.6169C18.6137 28.7558 19.7936 27.9211 21 27.1262C22.3656 26.2253 25.2954 24.5826 25.3485 24.5296C24.6591 24.2249 23.9829 23.9334 23.3333 23.6154C23.0947 23.4962 22.9091 23.5227 22.6837 23.6419C20.536 24.8078 19.0113 25.6822 17.1022 26.9143C16.2538 27.4574 15.8428 27.7489 14.7955 28.4776M20.7348 22.6086C20.0455 22.3966 19.4489 22.1979 18.839 22.0521C18.6534 22.0124 18.4147 22.0256 18.2424 22.1051C17.0625 22.6616 15.9223 23.2445 14.7822 23.8672C13.4299 24.6223 10.606 26.3578 10.5 26.4373C11.1629 26.7288 11.786 27.0202 12.4223 27.2852C12.5151 27.325 12.6875 27.2852 12.7803 27.219C13.2046 26.954 13.6288 26.6625 14.0531 26.3976C16.1743 25.033 18.3485 23.7347 20.7348 22.6086ZM21.1061 20.82C21.3182 20.8863 21.4375 20.9128 21.5436 20.9525C23.2936 21.562 25.0568 22.0919 26.7538 22.8073C27.6022 23.165 28.0928 23.2842 28.928 22.8603C29.6704 22.5423 29.7765 22.4893 30.2405 22.2774C30.1079 22.1979 30.0417 22.1581 29.9754 22.1316C27.9205 21.2175 25.7992 20.5021 23.625 19.9457C23.5455 19.9192 23.4394 19.9059 23.3731 19.9457C22.644 20.2239 21.9148 20.5153 21.1061 20.82ZM34.7613 20.82C34.642 20.7538 32.3882 19.8529 31.3011 19.482C30.267 19.1243 29.2197 18.8063 28.1458 18.5413C28.053 18.5148 27.947 18.4884 27.8542 18.5016C27.5095 18.5943 27.1648 18.6871 26.8201 18.7798C26.4887 18.8726 26.1174 18.9785 25.7728 19.0713C25.9451 19.1243 27.2973 19.5085 27.9735 19.7204C29.4981 20.1974 31.0094 20.7538 32.481 21.3897C32.5738 21.4295 32.6932 21.4295 32.7993 21.3897C33.4224 21.2175 34.0455 21.032 34.7481 20.82" fill="white"/>
</g>
<defs>
<clipPath id="clip0_9412_77432">
<rect width="56" height="56" fill="white"/>
</clipPath>
</defs>
</svg>
