<svg width="56" height="56" viewBox="0 0 56 56" fill="none" xmlns="http://www.w3.org/2000/svg">
<g clip-path="url(#clip0_9412_77438)">
<path d="M0 28.0005C0 29.649 0 29.8325 0.0525 31.2325C0.144 34.3335 0.4845 37.8925 1.7285 41.6475C2.606 44.3035 4.2555 47.169 5.9055 48.9745C8.0005 51.2775 10.894 53.1615 14.01 54.2345C17.205 55.3335 20.6615 55.87 27.378 56.001H28.622C35.352 55.857 38.7955 55.3335 41.99 54.2345C45.1195 53.1615 48 51.2775 50.108 48.9745C51.758 47.156 53.4075 44.3035 54.285 41.6475C55.529 37.8925 55.8695 34.3205 55.961 31.2325C56.0005 29.8455 56.0005 29.6495 56.0005 28.0005C56.0005 26.3515 56.0005 26.1555 55.961 24.7685C55.8565 21.6675 55.529 18.1085 54.285 14.3535C53.408 11.6975 51.758 8.83199 50.108 7.02649C48.013 4.7235 45.1195 2.8395 41.99 1.7665C38.795 0.667498 35.3385 0.131 28.622 0H27.378C20.648 0.144 17.2045 0.667498 14.01 1.7665C10.8805 2.8395 8 4.7235 5.9055 7.02649C4.2555 8.84499 2.606 11.6975 1.7285 14.3535C0.4845 18.109 0.144 21.668 0.0525 24.7685C0 26.1555 0 26.3515 0 28.0005Z" fill="#0C7DCA"/>
<path d="M21.9299 33.498H13.5339C13.5059 33.342 13.4639 33.172 13.4499 32.9875C13.4079 29.529 13.3659 26.0705 13.3379 22.612C13.3379 22.3285 13.4079 21.946 13.5904 21.7615C16.2959 18.969 19.0149 16.205 21.9164 13.498V33.498H21.9299Z" fill="white"/>
<path d="M14.0604 34.2236H33.3334V42.5761C33.1544 42.5901 32.9619 42.6316 32.7554 42.6316C29.3964 42.6456 26.0374 42.6736 22.6649 42.6596C22.3484 42.6596 21.9354 42.5206 21.7149 42.2976C19.1269 39.5971 16.5524 36.8686 14.0469 34.2236" fill="white"/>
<path d="M22.7344 21.7785V13.3425H27.0844C29.1769 13.3425 31.2694 13.3145 33.3754 13.3425C33.6919 13.3425 34.0914 13.4815 34.3254 13.6905C36.9824 16.2935 39.6119 18.9245 42.2409 21.542C42.2684 21.57 42.2684 21.6255 42.3099 21.7645H22.7344V21.7785Z" fill="white"/>
<path d="M34.1024 42.5387V22.5527H42.6009C42.6009 22.6662 42.6289 22.8227 42.6289 22.9647C42.6429 26.4307 42.6709 29.9107 42.6709 33.3767C42.6709 33.7317 42.5164 34.1722 42.2634 34.4277C39.6364 37.1267 36.9819 39.8112 34.3409 42.4957C34.3129 42.5242 34.2424 42.5097 34.0879 42.5527" fill="white"/>
</g>
<defs>
<clipPath id="clip0_9412_77438">
<rect width="56" height="56" fill="white"/>
</clipPath>
</defs>
</svg>
