<svg width="56" height="56" viewBox="0 0 56 56" fill="none" xmlns="http://www.w3.org/2000/svg">
<g clip-path="url(#clip0_9412_77439)">
<path d="M0 27.9999C0 29.6485 0 29.8317 0.039289 31.2317C0.14406 34.3326 0.471469 37.8915 1.71562 41.6466C2.59308 44.3027 4.24322 47.1681 5.89335 48.9737C7.9888 51.2767 10.883 53.1605 14.0131 54.2333C17.2086 55.3325 20.666 55.8689 27.3845 56H28.6287C35.3601 55.8559 38.8045 55.3325 42 54.2333C45.1301 53.1605 48.0112 51.2767 50.1065 48.9737C51.757 47.155 53.407 44.3027 54.2845 41.6466C55.5285 37.8915 55.869 34.3196 55.9605 31.2317C56 29.8448 56 29.6485 56 27.9999C56 26.3513 56 26.1682 55.9605 24.7682C55.856 21.6672 55.5285 18.1084 54.2845 14.3532C53.407 11.6972 51.757 8.83175 50.1065 7.02614C48.0112 4.72335 45.117 2.83924 42 1.76635C38.8045 0.667287 35.347 0.130841 28.6287 0H27.3845C20.653 0.143925 17.2086 0.667287 14.0131 1.76635C10.883 2.83924 8.00185 4.72335 5.89335 7.02614C4.24322 8.84481 2.59308 11.6972 1.71562 14.3532C0.484565 18.1084 0.14406 21.6672 0.039289 24.7682C0 26.1551 0 26.3513 0 27.9999Z" fill="#002561"/>
<path d="M48.9963 37.8026C49.0209 37.6937 48.9273 37.3569 48.9027 37.243H48.8929V37.1985H48.883L48.8781 37.1539H48.8633V37.1143H48.8485V37.0846H48.8338V37.04H48.819L48.8042 36.9806H48.7895C48.7796 36.8419 48.6565 36.7231 48.5974 36.5993C48.5087 36.4309 48.3511 36.2923 48.2379 36.1487H48.2083L48.1492 36.0645H48.1197C48.1 36.0397 47.6666 35.5445 47.642 35.5495V35.5396C47.6173 35.5099 46.9032 34.8661 46.8884 34.8265H46.8638C46.7013 34.6334 46.3763 34.3561 46.2285 34.163C46.2088 34.163 46.1694 34.1382 46.1546 34.1234L46.1448 34.0887C46.1103 34.0639 46.0561 34.0491 46.0266 34.0144L46.0118 33.9847C45.9724 33.95 45.8985 33.9154 45.8542 33.8906V33.8758H45.8247V33.856C45.7459 33.7817 45.5784 33.6232 45.5045 33.544V33.5192L45.4602 33.4796V33.4697H45.4307L45.3174 33.3212H45.2879L45.2435 33.2568H45.214L45.1844 33.2073H45.1549L45.1253 33.1578H45.0958L45.081 33.1231H45.0564C45.0318 33.0934 44.8052 32.8507 44.7806 32.8408V32.8161L44.7461 32.7963V32.7715L44.7166 32.7517V32.7418L44.687 32.722V32.6972H44.6722L44.6279 32.618H44.5984C44.5787 32.5883 44.0222 32.0634 44.0172 32.0287L43.9631 32.004L43.9483 31.9743L43.8892 31.9495C43.7168 31.7415 43.4656 31.4939 43.2933 31.2859H43.2686L43.2243 31.2166H43.1997L43.1554 31.1522H43.1258L43.0963 31.1027L43.0667 31.0928L42.8648 30.8601H42.85L42.8353 30.8155L42.8057 30.7957V30.766C42.7515 30.766 41.9291 29.7707 41.8798 29.7608L41.865 29.7162L41.8404 29.7014V29.6716L41.806 29.6518V29.6221L41.7616 29.5924V29.5627L41.7321 29.5429V29.5181L41.6582 29.4538V29.429C41.6582 29.429 41.5745 29.3547 41.5745 29.3201H41.5449C41.4957 29.2161 41.3529 29.1269 41.2938 29.0329H41.2642L41.2051 28.9487H41.1756L41.1657 28.914H41.1362L41.1017 28.8645H41.0771L41.0574 28.8298C41.0574 28.8298 41.0278 28.8249 41.0278 28.8199V28.815V28.7902H41.013L40.9933 28.7704L40.8899 28.6169V28.602L40.8751 28.5921L40.8554 28.5624L40.8456 28.5278L40.821 28.5129V28.4881H40.8062L40.7914 28.4436L40.7619 28.4238V28.399L40.7225 28.3644L40.7028 28.3396V28.3247L40.6782 28.3049L40.6092 28.2009L40.5649 28.1762L40.5403 28.1514L40.5304 28.1069H40.5009V28.0771H40.4713C40.4467 28.0425 40.2497 27.8692 40.2448 27.8345H40.2201L40.2004 27.7949H40.1758L40.1463 27.7454L40.0921 27.7206L40.0773 27.6959L40.033 27.6711V27.6612L39.9443 27.6216V27.6067H39.9197V27.5869L39.836 27.5473V27.5374L39.7621 27.5077V27.4978H39.7326V27.478H39.6882V27.4582L39.6587 27.4483V27.4334H39.6144V27.4136H39.5848V27.3938L39.4863 27.3591V27.3443H39.442V27.3245L39.3829 27.3146V27.2997L39.309 27.2898V27.2749L39.2401 27.2601V27.2452L39.0086 27.1908V27.1809L38.3831 27.0868V27.0967L38.3043 27.0868V27.0967L38.2354 27.0868V27.0967H38.1911V27.1016L38.132 27.0868V27.1016L38.0729 27.0917V27.1066L38.0433 27.0967V27.1115H37.9596V27.1214H37.935V27.1264H37.8956V27.1313H37.8365V27.1462H37.7922V27.1511L37.7084 27.1611V27.1759L37.6838 27.166V27.1858H37.6247L37.6099 27.2106H37.5508L37.5361 27.2403H37.5016V27.2502H37.4622L37.4523 27.2799H37.4228L37.3982 27.3096L37.3686 27.2997L37.3391 27.3344H37.3095L37.2652 27.3789H37.2356C37.1716 27.3789 35.7188 28.2802 35.6449 28.2406V28.2554H35.6055L35.5907 28.2802H35.5612V28.2901C35.5513 28.2901 35.4085 28.3743 35.2755 28.4584L33.2662 29.4092C33.2416 29.3646 33.1874 29.2606 33.1874 29.221L33.1578 29.2012L33.1431 29.1418H33.1283L33.1135 29.0972L33.084 29.0774V29.0527L33.0544 29.0329V29.0081L33.0101 28.9734V28.9487L32.9707 28.914V28.8843L32.9067 28.8348V28.81H32.8919C32.8919 28.81 32.6358 28.4386 32.6161 28.4139H32.6013L32.5718 28.3247H32.557V28.3H32.5422V28.2703H32.5274V28.2406H32.5127V28.2108L32.4782 28.1762V28.1465C32.4487 28.1465 32.3649 27.9831 32.3502 27.9633V27.9385L32.3206 27.9187V27.8939L32.2763 27.8593V27.8296C32.2221 27.8147 32.0793 27.5176 32.0497 27.473H32.035V27.4285H32.0202L32.0005 27.3591H31.9857V27.3294H31.9709V27.2898H31.9562L31.9414 27.2304H31.9266V27.2007H31.9118V27.1561L31.8823 27.1412V27.1115H31.8675V27.0868H31.8527V27.0571L31.8232 27.0224V26.9976L31.7936 26.9729L31.7739 26.9135H31.7592L31.7444 26.8689L31.7148 26.8491V26.8243L31.6754 26.7897V26.7649L31.641 26.7451V26.7203L31.5966 26.6857L31.5819 26.6411H31.5671C31.5277 26.5817 31.444 26.4579 31.4095 26.3985H31.3947V26.3539H31.3799V26.3093H31.3652V26.2697H31.3504V26.2351H31.3356V26.1954H31.3209V26.1657H31.3061V26.1212H31.2913L31.2667 26.032H31.2519V26.0023H31.2322V25.9726H31.2174V25.9429H31.2027L31.1682 25.8538L31.1436 25.8389L31.1288 25.7795L31.0992 25.7597V25.7349H31.0845L31.0648 25.6903L31.0352 25.6755V25.6507L30.9958 25.6161V25.5913L30.9515 25.5566V25.5319L30.8776 25.4675V25.4428L30.6314 25.0912H30.6166L30.6018 25.0218H30.587L30.5723 24.9624H30.5575V24.9228H30.5427L30.523 24.8634H30.5082L30.4935 24.8089L30.4639 24.7891L30.4344 24.7049L30.4048 24.6851L30.39 24.6257L30.3605 24.6108V24.5811L30.3211 24.5465V24.5168L30.2915 24.497V24.4722L30.2472 24.4375V24.4128L30.1881 24.3633V24.3385L30.1192 24.2741V24.2494L29.868 23.8978H29.8532L29.8385 23.8384H29.8237V23.7987H29.8089L29.7794 23.7096H29.7695L29.7547 23.6502L29.7252 23.6353V23.6056H29.7104V23.5759L29.6759 23.5462V23.5165H29.6612L29.6464 23.4719L29.6168 23.4521V23.4274L29.5873 23.4125V23.3828L29.543 23.3481V23.3234L29.4986 23.2887V23.2639L29.4395 23.2144C29.4642 23.1798 29.1785 22.7539 29.1785 22.7291H29.1637L29.1342 22.64H29.1194V22.6152H29.1046V22.5855H29.0899V22.5558H29.0751V22.5261H29.0603V22.4964H29.0455V22.4667H29.0308V22.437H29.016L29.0061 22.4667C29.0111 22.4568 29.0209 22.4271 29.016 22.4172V22.4023H29.0012C29.0012 22.4023 29.0012 22.3974 29.0012 22.3924C29.0012 22.3924 29.0012 22.3924 29.0061 22.3924C29.0061 22.3825 29.1637 22.0359 29.1736 22.0161L29.2031 21.9963V21.9715L29.2327 21.9616V21.922H29.2425V21.8972H29.2573L29.2721 21.8527H29.2869V21.818H29.3016L29.3164 21.7685H29.3312L29.4839 21.2832H29.4937V21.2337H29.5085V21.1693H29.5233V21.095H29.538V21.0158H29.5528L29.5479 20.9019H29.5676V20.7434H29.5725C29.5725 20.7038 29.7055 20.0502 29.6956 20.0155H29.7104V19.9759H29.7252C29.7695 19.7135 29.7695 18.7627 29.7252 18.4953H29.7104V18.4408H29.6956V18.3963H29.6759V18.3517H29.6661L29.6218 18.1685H29.607V18.1388H29.5922L29.5774 18.0546H29.5627L29.543 17.9952H29.5331L29.3854 17.5396H29.3706L29.3558 17.4406H29.341V17.4009H29.3312V17.3564H29.3115V17.3267H29.2967V17.2821H29.2819V17.2524H29.2672V17.2128H29.2524L29.2179 17.1236H29.2081V17.0939H29.1933V17.0593H29.1785V17.0345H29.1637V16.9998H29.149V16.9751L29.1145 16.9404V16.9157H29.1046L29.0849 16.8711L29.0603 16.8513V16.8216H29.0455L29.0308 16.7721L29.0061 16.7572V16.7324L28.9569 16.6978V16.673C28.9323 16.6582 28.7107 16.4007 28.686 16.371V16.3462L28.6565 16.3264V16.3165H28.6269L28.5728 16.2323H28.5432L28.4989 16.1679H28.4693L28.4546 16.1333H28.425L28.4102 16.0986H28.3856L28.3708 16.0639H28.3413L28.3265 16.0293H28.297L28.2822 15.9946L28.2231 15.9699L28.2083 15.9401L28.1492 15.9154V15.9055L28.0606 15.8659V15.851H28.0162V15.8312L27.9571 15.8064V15.7916H27.9128V15.7718H27.8833V15.752H27.8389V15.7322L27.7946 15.7223V15.7074H27.7552V15.6876L27.7109 15.6777V15.6628L26.5831 15.4004V15.4103L26.5092 15.4004V15.4103L26.4501 15.4004V15.4103L26.391 15.4004V15.4152H26.3467V15.4202L26.3024 15.4103V15.4251H26.263V15.4301H26.1793V15.44H26.1497V15.4499L26.1103 15.44V15.4499H26.0512V15.4648H26.0069V15.4697L25.9232 15.4796V15.4945H25.8936V15.5044H25.8345L25.8197 15.5291H25.7606L25.7459 15.5589C25.736 15.544 25.4898 15.5935 25.475 15.5985V15.6133H25.4504V15.6183H25.4061V15.6232H25.3765V15.6282H25.3322V15.6331H25.2731V15.648H25.2288H25.1697V15.6678L25.1303 15.6579L25.1155 15.6826H25.0859V15.6876H25.0564V15.6975H25.0268L25.0022 15.7173H24.9727L24.9628 15.7371L24.8791 15.747V15.7619H24.8348L24.82 15.7965H24.7904L24.7757 15.8163L24.7461 15.8064V15.8213H24.7067L24.687 15.851H24.6575L24.6279 15.8807H24.6033L24.5442 15.9302H24.5146L24.4752 15.9699H24.4457L24.3324 16.0639H24.3029L24.2783 16.0937H24.2438V16.1283L24.1157 16.2125V16.2373L24.0566 16.267V16.2967L24.0025 16.3214V16.3462L23.9581 16.3611V16.3908L23.9286 16.4007V16.4254L23.8892 16.4452L23.8744 16.4948L23.8498 16.5047L23.835 16.5393H23.8202L23.8055 16.5888L23.7759 16.5987V16.6235H23.7661V16.6483L23.7365 16.673V16.6978L23.707 16.7077V16.7324H23.6922V16.7522L23.313 17.2672V17.292L23.2539 17.3217V17.3514H23.2243V17.3712H23.1948V17.4059L23.1504 17.4207L23.1357 17.4604H23.1061V17.495L23.0766 17.5049V17.5297L23.0372 17.5445L23.0224 17.5941L22.9978 17.604L22.983 17.6535H22.9535L22.9387 17.7129H22.9141V17.7476L22.8845 17.7674V17.7921H22.8697V17.8169H22.855V17.8417H22.8402V17.8664H22.8254L22.8008 17.9407H22.786L22.7712 18.0001H22.7565L22.7417 18.0496H22.7269V18.0843H22.7121V18.1091H22.6974L22.6678 18.218H22.653V18.2428H22.6383V18.2923H22.6235V18.3319H22.6136V18.3715H22.5989V18.4111H22.5841L22.4019 18.6637V18.6884L22.3625 18.7132V18.7379L22.3181 18.7577V18.7825L22.2886 18.7924V18.8172H22.259V18.8518L22.2246 18.8617V18.8865L22.1999 18.8964V18.9261H22.1704L22.1556 18.9806H22.1261V19.0152H22.1113V19.0351H22.0965V19.0598L22.067 19.0796V19.1044L22.0374 19.1143V19.139H22.0276V19.1638H22.0128V19.1985H21.9832V19.243H21.9685V19.2678H21.9537L21.9389 19.3124H21.9291V19.352H21.9143V19.3767H21.8995V19.4114H21.8848V19.4362H21.87V19.4758H21.8552V19.4956H21.8355V19.55H21.8257V19.5847H21.8109V19.6243L21.5991 19.9313V19.9561L21.5302 19.9957V20.0254L21.4908 20.0452V20.07H21.4563L21.4464 20.1146H21.4317V20.1393L21.4021 20.1492V20.174H21.3726V20.2086H21.343V20.2433H21.3135V20.278L21.2888 20.2879L21.2741 20.3324L21.2494 20.3423V20.382L21.2199 20.3919L21.1953 20.4661H21.1756V20.4909H21.1608V20.5157H21.146L21.1165 20.5899H21.1017V20.6246H21.0869V20.6494H21.0672L21.0574 20.6939H21.0426V20.7286H21.0278V20.7533H21.013L20.9983 20.8276H20.9835V20.8474H20.9687V20.887H20.9539V20.9267H20.9195V20.9613H20.9096V21.0108H20.8899L20.8948 21.0505H20.8801V21.0851H20.8653V21.1445C20.8505 21.1693 20.7225 21.3278 20.7225 21.3575L20.6634 21.3872V21.4119L20.624 21.4318L20.6338 21.4714H20.5994V21.506L20.5747 21.5159V21.5407L20.5452 21.5506V21.5754L20.5156 21.5853V21.61H20.4861L20.4713 21.6645L20.4467 21.6744L20.4319 21.7239L20.4024 21.7338V21.7586L20.3728 21.7784V21.8081H20.358L20.363 21.8329H20.3433V21.8576H20.3236L20.3285 21.8824H20.3088V21.9022H20.294V21.9319H20.2792V21.9517H20.2645L20.2349 22.021H20.2251V22.0606H20.2054L20.1906 22.1102H20.1758V22.1448H20.161V22.1696H20.1463L20.1216 22.2835H20.1069V22.3033H20.0872L19.9197 22.5608V22.5855L19.836 22.6351V22.6598L19.767 22.6994V22.7242L19.7079 22.7489V22.7737H19.6784L19.6636 22.8183H19.6538V22.843L19.6094 22.8628V22.8876L19.5799 22.8975L19.5651 22.947L19.5208 22.9619V22.9916H19.4962L19.4666 23.0758H19.442V23.1104L19.4125 23.1302V23.155H19.3977V23.1748H19.3829V23.1996H19.3681V23.2243H19.3534V23.2491H19.3386V23.2738H19.3238V23.2986H19.309L19.2795 23.3729H19.2647V23.4075H19.2499L19.2352 23.4571H19.2204V23.4967H19.2056V23.5165H19.1908L19.181 23.5908H19.1613V23.6155H19.1465L19.1317 23.6997H19.117V23.7195H19.1071L18.8953 23.9572V23.982L18.8264 24.0216V24.0463L18.7525 24.0859L18.7427 24.1355L18.6983 24.1553V24.18L18.654 24.1949L18.6392 24.2345L18.6097 24.2444V24.2692H18.5949V24.2939H18.5654L18.5555 24.3533L18.5161 24.3732L18.5013 24.4227H18.4718V24.4524L18.4423 24.4771V24.5019H18.4275V24.5267H18.4176V24.5514H18.4029V24.5762H18.3881V24.6009H18.3733V24.6207H18.3585V24.6455H18.3438V24.6703H18.329L18.3191 24.7198H18.2994V24.7396L17.9251 25.1506H17.9005L17.8562 25.1902H17.8463V25.215C17.8217 25.215 17.7872 25.2496 17.7725 25.2645H17.7577V25.2892H17.7429L17.7183 25.3338H17.6887V25.3536C17.669 25.3784 17.6099 25.4477 17.5705 25.4527V25.4824L17.5262 25.4972L17.5164 25.5517L17.472 25.5715V25.5963H17.4573V25.621L17.4326 25.6309L17.4129 25.6804H17.3883L17.3735 25.7399H17.3489V25.7745L17.3194 25.7943V25.824H17.3046V25.8488H17.2898V25.8686H17.2701V25.8884H17.2603V25.9132H17.2455V25.9379H17.2307V25.9577H17.216L17.1913 26.032H17.1716V26.0716H17.1569V26.0914H17.1421V26.1311H17.1273L17.0928 26.1707H17.0781L16.7235 26.6064V26.6312L16.6988 26.6411V26.656H16.6742V26.6906L16.6003 26.7302V26.76L16.5609 26.7798V26.8045L16.5166 26.8194V26.8441L16.4871 26.854V26.8837L16.4624 26.8937V26.9184H16.4378V26.9531H16.4083V26.9877H16.3935L16.3984 27.0125H16.3639L16.3541 27.0719H16.3196L16.3098 27.1313H16.2802V27.166L16.2556 27.1858V27.2155H16.2359V27.2353H16.2211V27.2601H16.2063V27.2848H16.1916V27.3096H16.1768L16.1473 27.3789H16.1325V27.4185H16.1177V27.4433H16.1029L16.0882 27.4879H16.0734L16.0438 27.5473L15.7483 27.8692H15.7237L15.6942 27.884V27.9137L15.64 27.9434V27.9682L15.571 28.0029V28.0326L15.4972 28.0722V28.097L15.4578 28.1168V28.1415L15.4184 28.1613V28.1861H15.3888V28.2207H15.3593V28.2554L15.3297 28.2653V28.295H15.3002L15.2854 28.3544H15.2558L15.2411 28.4139H15.2115C15.1967 28.4485 14.6008 29.2903 14.5811 29.3201V29.3448L14.5073 29.3844V29.4092L14.4383 29.4488V29.4736H14.4088V29.5082L14.3644 29.5231V29.5478L14.325 29.5677L14.3103 29.6172L14.2659 29.637L14.2512 29.6865H14.2216L14.2068 29.7311H14.197L14.1724 29.8053L14.1428 29.8152L14.1133 29.8895H14.0837C14.0689 29.9291 13.5174 30.4491 13.5272 30.4937L13.3893 30.5877V30.6125L13.3204 30.6521V30.6769L13.2465 30.7165L13.2317 30.7511H13.2071L13.1972 30.8106L13.1332 30.8403V30.865H13.1086V30.8997H13.079L13.0643 30.9443H13.0495L13.0396 30.9938C12.9707 31.0978 12.8131 31.177 12.7343 31.2612H12.7047L12.69 31.281H12.6604L12.6013 31.3305H12.5718L12.5472 31.3998H12.5176L12.429 31.4692H12.3994C12.3502 31.5187 12.2172 31.6771 12.1482 31.697V31.7217H12.1187V31.7415L12.0645 31.7712V31.796H12.0547L11.9808 31.8307H11.9512V31.8505C11.902 31.895 11.833 32.0089 11.769 32.0287L11.7395 32.0634V32.0882H11.7099V32.1228H11.6804V32.1525L11.6508 32.1773V32.202H11.6213V32.2367H11.6065V32.2615C11.5868 32.2714 11.5622 32.2961 11.5523 32.3159V32.3407C11.4735 32.3952 11.0992 32.6626 11.0401 32.722H10.9958L10.9416 32.7666V32.7913H10.9269L10.8284 32.8904H10.8136C10.7052 33.0389 10.395 33.2667 10.2374 33.3657H10.2078L10.1931 33.3855L10.1635 33.3756L10.1487 33.4004H10.1192V33.4053H10.0798L10.0699 33.4351H10.0404L10.0108 33.4697L9.98128 33.4598L9.95173 33.4945H9.92218L9.90741 33.5143L9.79414 33.5588V33.5836L9.65131 33.6529V33.6777L9.62669 33.6975H9.59714C9.59714 33.6975 9.50357 33.7668 9.48387 33.7767V33.8064L9.39522 33.8411V33.8708L9.34105 33.9005V33.9253L9.2721 33.9649V33.9897L9.20315 34.0293V34.054L9.16375 34.0738V34.1036L9.11943 34.1184L9.10465 34.1729L9.06033 34.1927V34.2174H9.03078V34.2521H9.00123L8.98645 34.2917H8.9766L8.94213 34.366H8.9175V34.3957H8.90273V34.4205H8.88796V34.4452L8.85841 34.465V34.4898L8.83378 34.4997L8.81901 34.5591L8.78946 34.569L8.77468 34.6334H8.76483V34.6582H8.75006L8.72051 34.7275H8.70081L8.69096 34.8018H8.67618L8.66141 34.8463H8.64664L8.62201 34.9602H8.60231V34.985H8.58754V35.0395H8.57276V35.0741H8.55799V35.1137H8.54321L8.52844 35.1979H8.51366V35.2474H8.49889V35.3118H8.48904L8.47919 35.4307H8.46441V35.5049H8.44964V35.5842H8.43486L8.41517 36.0645H8.40039L8.43486 36.5696H8.44964L8.46441 36.7627H8.47919V36.8469H8.49889V36.9014H8.50874V36.9558H8.52351L8.54321 37.0796H8.55306L8.57276 37.1787H8.58754V37.2183H8.60231V37.2628H8.62201V37.3173H8.63186V37.3421H8.64664V37.4015H8.66141V37.4312H8.67618L8.69588 37.5154H8.71066L8.72543 37.5748H8.74021V37.6144H8.75498L8.76976 37.6689H8.78453V37.7135L8.81408 37.7333V37.7729H8.82886V37.8026H8.83871V37.8323H8.85348V37.862H8.86826V37.8917H8.88303L8.8978 37.9511L8.92735 37.971L8.9569 38.0551L8.98645 38.07L9.016 38.1542L9.04063 38.174V38.1987L9.07018 38.2235V38.2483L9.09973 38.2681V38.2928H9.1145L9.12928 38.3374L9.15882 38.3572V38.382L9.19822 38.4166V38.4414L9.22777 38.4612V38.4859L9.2918 38.5404V38.5652L9.34597 38.6147V38.6395L9.44939 38.7385V38.7633C9.52327 38.8326 9.68579 39.0158 9.74981 39.1H9.77936L9.85323 39.199H9.88278L9.94188 39.2832H9.97143L10.001 39.3327H10.0305L10.0453 39.3674H10.0749L10.1044 39.4169H10.134L10.1487 39.4516L10.1881 39.4714V39.4862L10.2177 39.4912L10.2374 39.5209H10.2669L10.2965 39.5704L10.3556 39.5902L10.3703 39.6199L10.459 39.6645L10.4738 39.6942H10.5033L10.5329 39.7289H10.5624V39.7487H10.592V39.7685H10.6166V39.7883H10.6511L10.6658 39.8229L10.7102 39.8329V39.8428H10.7348V39.8626L10.7939 39.8873V39.8972H10.8382V39.917H10.8678V39.9368L10.9219 39.9616V39.9715L10.9663 39.9814V39.9913H10.9958V40.0111L11.0845 40.0408V40.0557H11.1288V40.0755H11.1534V40.0953L11.3406 40.1696V40.1844C11.5326 40.2587 12.0202 40.4419 12.2172 40.4667V40.4815L13.0741 40.6004V40.5855C13.1874 40.6152 13.3992 40.5657 13.5124 40.5855V40.5756H13.5568V40.5657L13.6011 40.5756V40.5608H13.6454L13.6996 40.5707V40.5558H13.7291V40.5509H13.8572V40.5311H13.8867V40.5212H13.9704V40.5113L14.0542 40.5014V40.4914H14.0837V40.4766L14.128 40.4914V40.4766L14.2118 40.4617V40.4518H14.2413V40.4419H14.3004L14.3152 40.4172H14.3447V40.4073L14.3743 40.4172L14.4038 40.3924H14.4334L14.4482 40.3726H14.5023L14.5171 40.3478H14.5762L14.5861 40.3231H14.6156L14.6402 40.2934H14.6993L14.724 40.2587H14.7535L14.7831 40.229L14.8175 40.2389L14.8274 40.2141H14.8569C14.8569 40.2141 14.8963 40.1844 14.916 40.1745V40.1646H14.9407L14.9899 40.125H15.0145C15.0441 40.125 15.8715 39.5506 15.9109 39.5555L15.9355 39.5655V39.5506H15.965L15.9798 39.5308H16.0094V39.5258H16.0635V39.4961L16.162 39.4714C16.162 39.4714 16.1817 39.4219 16.1965 39.402L16.2408 39.3822H16.2704C16.295 39.3426 16.3787 39.3179 16.428 39.308V39.2832C16.428 39.2832 16.5856 39.2188 16.5954 39.1842H16.6299L16.6545 39.1693V39.1445C16.7038 39.1099 16.9451 38.9217 16.9943 38.9019V38.8722L17.0337 38.8524L17.0485 38.8128H17.0731V38.793C17.0928 38.7682 17.1519 38.6989 17.1864 38.6939V38.6692L17.216 38.6593V38.6345C17.216 38.6345 17.2751 38.6246 17.2948 38.6196V38.5949L17.3194 38.5602L17.3489 38.5503V38.5256L17.3735 38.5157L17.3883 38.4661L17.4179 38.4562V38.4315C17.5361 38.2978 17.8266 37.9462 18.0138 37.9066L18.0286 37.8719H18.0532L18.068 37.8373L18.1665 37.7729V37.7481L18.265 37.6887V37.6639L18.3241 37.6342V37.6095L18.3536 37.5996V37.5847H18.3782V37.555H18.4078V37.5203L18.4521 37.5055V37.4807L18.4816 37.4708V37.4461L18.5063 37.4362V37.4114H18.5358V37.3767H18.5654V37.3421H18.59L18.6048 37.2876C18.6392 37.2975 18.8904 37.0103 18.915 37.0004L18.9298 36.9756H18.9446L18.9594 36.9558H18.984V36.9509L19.0431 36.9311V36.9063H19.0677V36.8964L19.1268 36.8667H19.1416V36.8419C19.1564 36.832 19.2647 36.7825 19.2696 36.7627H19.2992L19.5848 36.5003H19.6144V36.4804H19.6291L19.639 36.4458L19.6981 36.4161V36.3913L19.7424 36.3715V36.3467L19.7818 36.3319L19.7966 36.2824L19.8409 36.2626L19.8508 36.213L19.8902 36.1932L19.9049 36.1437L19.9296 36.1338L19.9443 36.0843H19.9739V36.0496L20.0034 36.0249V36.0001H20.0182V35.9754H20.033C20.033 35.9754 20.4861 35.5594 20.5009 35.5396H20.5304C20.5304 35.5396 20.6043 35.4653 20.6289 35.4703V35.4455L20.7816 35.3415V35.3118H20.8111V35.292L20.8407 35.2821V35.2573H20.8554L20.885 35.2128H20.9096V35.193C20.9293 35.1682 20.9884 35.0989 21.0278 35.0939L21.0377 35.0444L21.082 35.0246L21.0968 34.9701L21.1263 34.9602V34.9355L21.1559 34.9256V34.9008L21.1805 34.8909L21.1953 34.8414H21.2199V34.8067L21.2494 34.782V34.7572H21.2642V34.7374H21.279V34.7126L21.3085 34.6928V34.6681L21.3381 34.6582V34.6185H21.3529V34.5938H21.3676L21.4169 34.5294H21.4317V34.4898H21.4464V34.465H21.4612V34.4304H21.476L21.4858 34.3809H21.5006C21.5105 34.3016 21.7419 34.0392 21.7912 33.9748H21.8207V33.955L21.8749 33.9253V33.9005L21.9488 33.8609V33.8362L22.0079 33.8064V33.7767L22.0374 33.7668V33.7371L22.0768 33.7173V33.6926L22.1064 33.6826V33.6579L22.1359 33.648V33.6232H22.1605V33.5886L22.195 33.5787V33.5539L22.2246 33.544L22.2393 33.4945L22.264 33.4846V33.4598H22.2787V33.4301H22.2935V33.4103L22.3181 33.3905V33.3608H22.3477L22.3772 33.2865H22.392V33.2617H22.4068L22.4314 33.1875H22.4462V33.1528H22.461V33.128H22.4757L22.4905 33.0835H22.5053L22.5201 33.024H22.5348L22.5496 32.9498H22.5595L22.5742 32.9052H22.589V32.8557H22.6038C22.6038 32.8557 22.8402 32.5685 22.855 32.5487V32.519L22.9288 32.4793V32.4546L22.9978 32.415V32.3853L23.0421 32.3704L23.0569 32.3209L23.0864 32.311L23.1012 32.2714L23.1406 32.2516L23.1554 32.202L23.1948 32.1822L23.2095 32.1278H23.2391L23.2539 32.0733L23.2834 32.0634V32.0386L23.313 32.0188V31.9941H23.3277V31.9693H23.3425V31.9445H23.3573V31.9247L23.3819 31.9148V31.8802L23.4115 31.8703V31.8307H23.4262V31.8059H23.441V31.7811H23.4558L23.4853 31.7118H23.5001V31.6722H23.51V31.6524H23.5247L23.5395 31.588H23.5543L23.6035 31.484H23.6183V31.4593H23.6331V31.4097H23.6479L23.8596 31.1473V31.1225L23.9286 31.0829V31.0582L23.9877 31.0285V31.0037H24.0172V30.969L24.0566 30.9492V30.9245L24.101 30.9047L24.1157 30.8551L24.1601 30.8403V30.8155L24.1847 30.8056V30.7759H24.1995V30.7511L24.2241 30.7412L24.2389 30.6868H24.2684L24.2832 30.6422H24.2979V30.6075L24.3275 30.5976V30.5679L24.357 30.5481V30.5234H24.3718V30.4986H24.3866V30.4738H24.4014V30.454H24.4161L24.4457 30.3798H24.4555V30.3451H24.4752V30.3203H24.4851L24.4999 30.2708H24.5146C24.5393 30.2461 24.82 29.845 24.8692 29.8648V29.8351L24.9677 29.7756V29.7509L25.0219 29.6617V29.632H25.0564L25.0318 29.6122L25.0613 29.6023V29.5776H25.0909V29.5429L25.1303 29.5231V29.4983H25.1598L25.1746 29.4538H25.1894V29.429H25.214V29.3943L25.2435 29.3844V29.3646L25.2731 29.3498L25.2977 29.2804L25.3273 29.2705L25.3568 29.1963H25.3864L25.411 29.117H25.4307V29.0923H25.4208C25.4208 29.0923 25.4553 29.0774 25.4651 29.0824V29.0378H25.4799V29.013H25.4898L25.5095 28.9685H25.5193L25.5587 28.8992H25.5735V28.8744H25.5883V28.8397H25.603V28.815H25.6178V28.7803H25.6326V28.7407H25.6474L25.672 28.706H25.6818V28.6714H25.6966V28.6169H25.7114V28.5822H25.7262C25.7705 28.503 25.9084 28.3198 25.9773 28.2604V28.2356L26.0217 28.2158V28.1861H26.0364L26.0512 28.1514H26.0808V28.1168L26.1251 28.097L26.1399 28.0474L26.1793 28.0276V28.0029L26.2088 27.993L26.2384 27.9187L26.2679 27.9088V27.884L26.2925 27.8593V27.8345H26.3073V27.8097H26.3369V27.7602H26.3516V27.7355L26.3812 27.7256V27.6859H26.391V27.6612H26.4058L26.4354 27.5919H26.4501V27.5522H26.4649L26.4748 27.5077H26.4895V27.473H26.5043V27.4532H26.5191V27.4136H26.5339V27.3789H26.5486V27.3542H26.5634L26.5732 27.2799H26.5782L26.588 27.2848H26.593V27.2948H26.5831V27.2997L26.657 27.4086V27.4334L26.6865 27.4532V27.4829L26.7161 27.5027V27.5275L26.7407 27.5473V27.5721H26.7555L26.7702 27.6166L26.7998 27.6364V27.6661L26.8589 27.7157V27.7404L26.918 27.7899V27.8196C27.0657 27.9088 27.243 28.3941 27.3662 28.508L27.4006 28.5971H27.4105L27.4302 28.6417L27.4597 28.6565V28.6862L27.4893 28.7011V28.7258L27.5336 28.7605V28.7853L27.5779 28.8199V28.8496L27.6518 28.914V28.9388L27.9227 29.3201H27.9374L27.9571 29.3795H27.967V29.424H27.9818L28.0359 29.5181H28.0507L28.0655 29.5776L28.095 29.5974L28.1098 29.6518H28.1246V29.6815L28.1541 29.7014V29.7261L28.1837 29.7459V29.7707L28.2132 29.7954V29.8152L28.2477 29.8351V29.8598L28.2773 29.8796V29.9044L28.3117 29.9539V29.9787L28.4546 30.1272V30.152L28.5137 30.2015V30.2213C28.5777 30.2906 28.6959 30.4491 28.7501 30.5283H28.7599L28.7845 30.558H28.7993V30.5877H28.8141L28.8289 30.6472H28.8436L28.8584 30.7016L28.888 30.7214L28.9027 30.7759L28.9323 30.7908V30.8205L28.9618 30.8403V30.865L29.0111 30.9047V30.9245L29.0505 30.9641V30.9888C29.0505 30.9888 29.1243 31.0483 29.1243 31.0829C29.1588 31.0978 29.3016 31.2859 29.3312 31.3256H29.3213H29.3263C29.3115 31.3256 29.1046 31.3899 29.0899 31.3751V31.385H29.0603V31.3949H29.0357L29.0061 31.4097H28.9766L28.9618 31.4296H28.9372L28.9175 31.4494H28.8929L28.8781 31.4692H28.819L28.8042 31.4939L28.7747 31.484L28.7451 31.5187H28.7156L28.691 31.5484L28.6614 31.5385L28.6368 31.5732H28.6122L28.5974 31.588H28.4299V31.5979L28.3856 31.588V31.6029L28.3413 31.593V31.6078H28.1541V31.6227H28.1246V31.6326L28.0803 31.6227V31.6375H28.0261V31.6524H27.9818H27.9227V31.6722L27.8833 31.6623L27.8734 31.687H27.8439V31.697H27.8193V31.7019H27.7848L27.7552 31.7217H27.7306L27.7158 31.7415H27.6567V31.7613H27.6124L27.5976 31.791H27.5435L27.5287 31.8158H27.4991L27.4745 31.8455H27.445L27.4154 31.8752H27.3859L27.3366 31.9247H27.3071L27.2627 31.9644H27.2381L27.2086 31.9792V32.004L27.1396 32.0287L27.115 32.0634L27.0854 32.0733V32.0981C27.0854 32.0981 27.0263 32.108 27.0116 32.1228V32.1525L26.9574 32.1822V32.207L26.8884 32.2466V32.2714L26.8441 32.2912V32.3209L26.8047 32.3357V32.3655L26.7801 32.3754L26.7653 32.4199L26.7407 32.4298V32.4595H26.7111L26.6964 32.519L26.6668 32.5289V32.5536H26.657V32.5784H26.6422V32.6031L26.6176 32.6229V32.6477L26.593 32.6576V32.6972H26.5782L26.5634 32.7467H26.5437V32.7814H26.5339L26.5191 32.8309H26.5043V32.8705H26.4945V32.8904H26.4748L26.4354 33.0538H26.4206V33.0884H26.4058V33.1231H26.391C26.391 33.2172 26.3467 34.3462 26.3763 34.4007H26.391V34.4601H26.4058L26.4206 34.5591H26.4354V34.6037H26.4501V34.6433H26.4649L26.4945 34.782H26.5092L26.524 34.8364H26.5388V34.881H26.5536V34.9107H26.5683L26.5831 34.985H26.5979L26.6274 35.0741H26.6422V35.1038H26.657V35.1335H26.6717V35.1583L26.7013 35.193V35.2177L26.7259 35.2375L26.7456 35.297H26.7604L26.7752 35.3415L26.8047 35.3613V35.3861H26.8244L26.8392 35.4307L26.8687 35.4455V35.4752L26.9081 35.5099V35.5346L26.9525 35.5693V35.5941L26.982 35.6139V35.6287L27.0116 35.6485V35.6733L27.0854 35.7674H27.1101L27.2135 35.911H27.243C27.2677 35.9407 27.376 36.0942 27.4154 36.0942L27.445 36.1388H27.4745L27.5041 36.1883H27.5336L27.5632 36.2378H27.5927L27.6075 36.2725H27.637L27.6518 36.3071L27.6961 36.3269V36.3418L27.7552 36.3616L27.77 36.3913L27.8586 36.4359L27.8734 36.4656L27.9325 36.4904V36.5003H27.9571V36.5201L28.0458 36.5597V36.5745H28.0901V36.5943L28.1492 36.6191V36.629L28.1886 36.6389V36.6538H28.2182V36.6736L28.2576 36.6835V36.6983H28.2871V36.7181L28.3856 36.7478V36.7627L28.4299 36.7726V36.7875L28.5875 36.8419V36.8568L28.6614 36.8716V36.8865L28.7205 36.8964V36.9113L28.8042 36.9261V36.936L28.9224 36.9608V36.9756L29.0899 37.0103V37.0202L29.6218 37.1044V37.0945L29.735 37.1143V37.0994L29.804 37.1143V37.0994L29.8729 37.1143V37.0994L29.9271 37.1093V37.0994L29.9862 37.1093V37.0945L30.0453 37.1044V37.0945C30.0552 37.1242 30.5378 37.0252 30.5673 37.0202L30.587 36.9954H30.6314L30.6461 36.9806L30.7299 36.9707L30.7446 36.9459H30.7988L30.8136 36.9162H30.8678L30.8973 36.8815H30.9269L30.9367 36.8617H30.9663L30.9958 36.832H31.0254L31.0549 36.8023H31.0845L31.1386 36.7578C31.1485 36.7776 31.4243 36.6538 31.439 36.6538V36.6389L31.4834 36.6488V36.6389L31.5228 36.6488V36.634H31.5523V36.6241L31.6016 36.634V36.6241H31.6311V36.6092L31.6705 36.6241V36.6092L31.7542 36.5993V36.5844H31.7838V36.5745H31.8133V36.5646H31.838V36.5547L31.9266 36.5448L31.9365 36.5201H31.9956V36.5052H32.035L32.0497 36.4755H32.1088L32.1236 36.4507H32.1532L32.1827 36.421H32.2073L32.232 36.3913L32.2615 36.4012L32.3206 36.3418H32.3502C32.3797 36.2923 32.5521 36.2329 32.6062 36.2081V36.1982H32.6456H32.69V36.1932L32.7294 36.1784V36.1685L32.7737 36.1784V36.1635H32.7983V36.1586H32.8426V36.1536L32.9264 36.1388V36.1289H32.9559V36.119H32.9855V36.1091H33.015V36.0992H33.0446V36.0892H33.0741V36.0793H33.1037L33.1283 36.0645H33.1628L33.1726 36.0447H33.2317L33.2465 36.015H33.276V36.01C33.3745 36.0001 33.5174 35.906 33.6011 35.8565H33.6355C33.6799 35.8218 33.7882 35.7278 33.8424 35.703V35.6782L33.9113 35.6882L33.9803 35.6188H34.0098C34.0098 35.6188 34.0197 35.5842 34.0148 35.5743L34.0542 35.5842V35.5693L34.1379 35.5594V35.5445L34.1674 35.5544V35.5396H34.1921V35.5297H34.2512L34.2709 35.5049L34.3546 35.495V35.4851H34.3989L34.4137 35.4554H34.4432V35.4505H34.4826L34.4974 35.4207H34.527L34.5565 35.391H34.5811L34.6255 35.3514L34.655 35.3613L34.6993 35.3168H34.7289L34.8224 35.2326H34.8668V35.2029C34.9012 35.1732 34.98 35.1187 35.0194 35.0989V35.0741H35.0293L34.9899 35.0642V35.089H34.9111H34.985V35.0593H35.0244L35.0982 35.0196L35.113 34.9949H35.1376L35.1524 34.9751L35.2361 34.9652L35.2509 34.9404H35.2805V34.9305H35.31V34.9256H35.3396L35.3642 34.9107C35.374 34.9107 35.3937 34.9008 35.4036 34.8959H35.4085L35.4282 34.9008L35.4381 34.876H35.4725L35.4824 34.8562H35.5169L35.5267 34.8414H35.5563V34.8315H35.6006L35.6154 34.8067H35.6449L35.6892 34.7671H35.7188L35.773 34.7176H35.8025L35.901 34.6334H35.9305V34.6235L35.9749 34.6037L35.9897 34.5641L36.0881 34.5047V34.4799L36.1571 34.4403V34.4155H36.1866V34.3957H36.2162V34.3611L36.2507 34.3511V34.3214H36.2753V34.2868L36.3196 34.267C36.3344 34.2323 36.3787 34.1828 36.4181 34.1729L36.4329 34.1481H36.4624L36.4723 34.1036L36.5068 34.1135L36.5166 34.0887H36.5462L36.5609 34.0689H36.5905L36.6053 34.0491H36.6496L36.7087 33.9897H36.7382L36.7973 33.9352H36.822V33.9253L36.8515 33.9154V33.8906H36.8811L36.9352 33.8411H36.95V33.8213L37.0091 33.8015V33.7767L37.083 33.7322V33.7074L37.1371 33.6777V33.6529H37.1815V33.6282L37.2947 33.5539H37.3538L37.3637 33.5044H37.4228V33.4895H37.4622L37.477 33.4598H37.5016V33.4499H37.5459L37.5558 33.4252H37.5853L37.6099 33.3954H37.6395L37.6543 33.3756H37.669L37.6838 33.3558H37.7134V33.3509L37.7675 33.336V33.3113L38.0384 33.1379V33.1082L38.0778 33.0934V33.0637C38.0778 33.0637 38.1221 33.0389 38.1468 33.0191L38.2551 33.0736C38.2551 33.0736 38.2748 33.0983 38.2847 33.1033V33.128L38.4028 33.2419V33.2667L38.4472 33.3014V33.3162H38.4718L38.59 33.4598H38.6146L38.6737 33.539H38.7082L38.718 33.5737L38.7525 33.5836L38.7771 33.6282L38.8215 33.648L38.8362 33.6777H38.8609L38.8806 33.7124L38.9347 33.7371L38.9495 33.7718L38.9938 33.7916V33.8015L39.0776 33.8461L39.0923 33.8708L39.1514 33.9005V33.9154L39.2056 33.9352V33.95L39.2795 33.9748L39.2943 34.0045H39.3238L39.3534 34.054H39.3681V34.0887L39.4272 34.1382V34.163C39.4814 34.2125 39.5947 34.3462 39.6439 34.4056H39.6735L39.7276 34.4848H39.7621V34.4898C39.8754 34.5789 40.3285 35.0048 40.3974 35.1088V35.1385C40.688 35.4406 41.7075 36.3121 41.998 36.5745L42.0276 36.5844L42.0423 36.6092H42.0719L42.0965 36.6587L42.1507 36.6785L42.1655 36.7132L42.2246 36.733L42.2393 36.7627L42.3231 36.8023V36.8122L42.3526 36.8221V36.837H42.3822V36.8568L42.4708 36.9014V36.9162L42.9436 37.3074H42.9731L43.0372 37.3916H43.0618L43.0766 37.4263H43.1012L43.1357 37.4807H43.1652L43.18 37.5154L43.2243 37.5302V37.55H43.2489C43.2539 37.5847 43.3277 37.6144 43.3524 37.6243L43.3721 37.654L43.4312 37.6788V37.6937H43.4607V37.7085L43.5444 37.7531V37.7679H43.5937V37.7877L43.6479 37.8125V37.8274L44.0517 38.1393H44.0812L44.1404 38.2235H44.1699L44.8298 38.684L44.8742 38.7038V38.7187H44.9185V38.7385L44.9628 38.7484V38.7633L45.0219 38.7732V38.788L45.4356 39.0505V39.0604L45.5242 39.1049L45.539 39.1346L45.5981 39.1594V39.1743L45.6572 39.1941V39.2089H45.7015V39.2287L45.7557 39.2485V39.2634L45.8296 39.2881V39.303C46.002 39.3921 46.9081 39.6496 47.1199 39.6348V39.6199L47.1889 39.6348V39.6199L47.248 39.6298V39.615L47.3071 39.6249V39.61H47.3465H47.3859H47.4302V39.6051H47.4794V39.6001H47.5041V39.5902L47.5484 39.6001V39.5853H47.6075V39.5704L47.7355 39.5555L47.7503 39.5308L47.834 39.5209L47.8488 39.4961H47.9079V39.4813H47.9473L47.9621 39.4516H47.9867L48.0113 39.4268H48.0458L48.0704 39.3971H48.1L48.1443 39.3575H48.1689C48.2231 39.308 48.3413 39.2188 48.4102 39.1842V39.1544L48.4644 39.1247V39.095L48.5038 39.0752V39.0455L48.5432 39.0257V39.0009H48.5728L48.5875 38.9415H48.6171L48.6319 38.897H48.6466L48.6713 38.8227H48.686V38.7979H48.7008V38.7732H48.7156V38.7533H48.7304L48.755 38.684H48.7698V38.6494H48.7845V38.6246H48.7993V38.585H48.8141V38.5602H48.8288L48.8436 38.4711H48.8584V38.4364H48.8732V38.3869H48.8879V38.3374H48.9027V38.273H48.9175V38.2086H48.9323V38.1195H48.9421L48.9569 37.7778H48.9421L48.9963 37.8026ZM41.0869 28.8447L41.0968 28.8843L41.0918 28.8447H41.0721V28.8397H41.0968L41.0869 28.8447ZM35.6154 34.8216C35.6154 34.8216 35.6892 34.7721 35.7139 34.7572C35.6892 34.7721 35.6351 34.8018 35.6154 34.8216ZM35.7336 34.7522H35.7385H35.7286H35.7336Z" fill="white"/>
</g>
<defs>
<clipPath id="clip0_9412_77439">
<rect width="56" height="56" fill="white"/>
</clipPath>
</defs>
</svg>
