<svg width="56" height="56" viewBox="0 0 56 56" fill="none" xmlns="http://www.w3.org/2000/svg">
<g clip-path="url(#clip0_9412_78120)">
<path d="M0 28C0 29.6486 0 29.8318 0.039289 31.2318C0.14406 34.3327 0.471469 37.8916 1.71562 41.6467C2.59308 44.3028 4.24322 47.1682 5.89335 48.9739C7.9888 51.2765 10.883 53.1605 14.0131 54.2335C17.2086 55.3325 20.666 55.869 27.3845 56H28.6287C35.3601 55.856 38.8045 55.3325 42 54.2335C45.1301 53.1605 48.0112 51.2765 50.1065 48.9739C51.757 47.1552 53.407 44.3028 54.2845 41.6467C55.5285 37.8916 55.869 34.3196 55.9605 31.2318C56 29.8449 56 29.6486 56 28C56 26.3514 56 26.1682 55.9605 24.7682C55.856 21.6673 55.5285 18.1084 54.2845 14.3532C53.407 11.6972 51.757 8.83175 50.1065 7.02615C48.0112 4.72337 45.117 2.83925 42 1.76636C38.8045 0.66729 35.347 0.130841 28.6287 0H27.3845C20.653 0.143925 17.2086 0.66729 14.0131 1.76636C10.883 2.83925 8.00185 4.72337 5.89335 7.02615C4.24322 8.84485 2.59308 11.6972 1.71562 14.3532C0.484565 18.1084 0.14406 21.6673 0.039289 24.7682C0 26.1551 0 26.3514 0 28Z" fill="#D80029"/>
<mask id="mask0_9412_78120" style="mask-type:luminance" maskUnits="userSpaceOnUse" x="7" y="11" width="42" height="34">
<path d="M49 11.5H7V44.75H49V11.5Z" fill="white"/>
</mask>
<g mask="url(#mask0_9412_78120)">
<path d="M13.1792 35.9031C12.0111 35.3501 11.0521 34.9038 11.0521 34.0008C11.0521 33.3104 11.5972 32.8082 12.6761 32.8082C13.0308 32.8107 13.3846 32.8473 13.7323 32.9176C13.9028 32.9504 14.0757 32.9694 14.2493 32.9744C15.1908 32.9744 15.7228 32.4057 16.0763 31.3277L16.2234 30.8902C15.0521 30.4011 13.7966 30.1455 12.5274 30.1377C9.3345 30.1377 7.6501 32.2132 7.6501 34.3622C7.6188 35.2697 7.92565 36.1566 8.5111 36.8507C9.23165 37.6035 10.0968 38.2029 11.0548 38.6129C12.3673 39.2657 13.5563 39.7504 13.5563 40.7129C13.5563 41.5713 12.6814 42.0596 11.508 42.0596C10.3705 42.0046 9.26865 41.645 8.31775 41.0183L7 43.5252C8.43295 44.3589 10.0675 44.7827 11.725 44.7502C14.7 44.7502 16.9601 43.0203 16.9601 40.3603C16.9601 37.7143 14.8698 36.7334 13.1757 35.9031" fill="white"/>
<path d="M24.8325 37.1378L30.2365 30.4336H26.3865L22.0754 36.2199H22.0115V30.4344H18.8379V44.6374H19.0269C19.4278 44.6779 19.8327 44.6295 20.2128 44.4956C20.5928 44.3617 20.9387 44.1456 21.2257 43.8628C21.5127 43.5799 21.7338 43.2373 21.8733 42.8592C22.0127 42.4812 22.0671 42.077 22.0325 41.6756V38.4144H22.0964L26.4898 44.4598H30.5288L24.8325 37.1378Z" fill="white"/>
<path d="M30.4178 15.2196C29.6793 15.3414 29.0038 15.7095 28.5012 16.2642C27.9987 16.8189 27.6987 17.5274 27.6502 18.2743C27.6502 19.9228 28.9863 20.922 28.9898 23.0806C28.9991 23.7468 28.8345 24.4039 28.5123 24.987C28.19 25.5701 27.7213 26.0591 27.1523 26.4056C27.5391 26.3706 27.9634 26.3488 28.4289 26.347C28.9653 26.3391 29.5014 26.3719 30.0328 26.445L35.0457 20.2202C33.7855 18.3121 32.222 16.6227 30.4169 15.2188" fill="white"/>
<path d="M34.6292 32.0288C35.261 31.0348 35.3406 29.4511 35.394 27.8367C35.4535 26.3317 35.7632 25.1995 37.7565 25.1916C38.194 25.1916 38.6175 25.252 39.3778 25.2493C41.4956 25.2411 43.571 24.6551 45.3803 23.5545C42.2958 21.5419 38.7292 20.3908 35.0501 20.2207C34.764 21.0353 32.545 27.2811 32.377 27.7851C32.7188 28.1988 33.02 28.6445 33.2765 29.116C33.8321 30.0348 34.2866 31.0112 34.6318 32.0279" fill="white"/>
<path d="M24.0403 26.9271C23.7866 26.9271 23.6615 26.7583 23.6265 26.4625C23.5915 26.1668 22.3403 14.5625 22.1539 12.8073C22.1268 12.5509 22.0663 12.0793 22.0663 11.9113C22.061 11.8589 22.0669 11.806 22.0834 11.7561C22.1 11.7061 22.1269 11.6602 22.1624 11.6214C22.1979 11.5826 22.2412 11.5517 22.2895 11.5308C22.3378 11.5098 22.39 11.4994 22.4426 11.5C25.0779 11.993 27.5635 13.0887 29.7051 14.7016C28.9278 14.9023 28.237 15.3505 27.7369 15.9784C27.2369 16.6063 26.9547 17.3799 26.9331 18.1824C26.9392 20.0916 28.2902 21.1425 28.2972 23.0579C28.3077 26.1729 24.7692 26.9263 24.0368 26.9271" fill="white"/>
<path d="M34.9121 32.8567C34.954 32.9776 35.0061 33.0947 35.0679 33.2068C35.0956 33.2654 35.1393 33.3149 35.1939 33.3497C35.2486 33.3845 35.3119 33.4033 35.3767 33.4036C35.4763 33.3971 35.5735 33.371 35.6629 33.3266C35.9254 33.2033 46.3956 28.2726 47.9741 27.5359C48.2034 27.4248 48.6374 27.2288 48.78 27.1439C48.8439 27.1131 48.8981 27.0655 48.9368 27.0061C48.9755 26.9467 48.9972 26.8778 48.9996 26.807C48.9985 26.7337 48.9777 26.662 48.9392 26.5996C48.1087 25.5911 47.1298 24.7146 46.036 24C44.0611 25.2224 41.7915 25.8862 39.4691 25.9206C38.7044 25.9206 38.5311 25.8698 38.0079 25.8716C36.4836 25.8768 36.103 26.5366 36.047 27.8894C36.0374 28.1449 36.033 28.4888 36.0181 28.8659C36.0717 30.2786 35.6852 31.6731 34.9121 32.8567Z" fill="white"/>
</g>
</g>
<defs>
<clipPath id="clip0_9412_78120">
<rect width="56" height="56" fill="white"/>
</clipPath>
</defs>
</svg>
