<svg width="56" height="56" viewBox="0 0 56 56" fill="none" xmlns="http://www.w3.org/2000/svg">
<g clip-path="url(#clip0_9412_77410)">
<path d="M0 28C0 29.6486 0 29.8318 0.039289 31.2318C0.14406 34.3327 0.471469 37.8916 1.71562 41.6467C2.59308 44.3028 4.24322 47.1682 5.89335 48.9739C7.9888 51.2765 10.883 53.1605 14.0131 54.2335C17.2086 55.3325 20.666 55.869 27.3845 56H28.6287C35.3601 55.856 38.8045 55.3325 42 54.2335C45.1301 53.1605 48.0112 51.2765 50.1065 48.9739C51.757 47.1552 53.407 44.3028 54.2845 41.6467C55.5285 37.8916 55.869 34.3196 55.9605 31.2318C56 29.8449 56 29.6486 56 28C56 26.3514 56 26.1682 55.9605 24.7682C55.856 21.6673 55.5285 18.1084 54.2845 14.3532C53.407 11.6972 51.757 8.83175 50.1065 7.02615C48.0112 4.72337 45.117 2.83925 42 1.76636C38.8045 0.66729 35.347 0.130841 28.6287 0H27.3845C20.653 0.143925 17.2086 0.66729 14.0131 1.76636C10.883 2.83925 8.00185 4.72337 5.89335 7.02615C4.24322 8.84485 2.59308 11.6972 1.71562 14.3532C0.484565 18.1084 0.14406 21.6673 0.039289 24.7682C0 26.1551 0 26.3514 0 28Z" fill="#1585B4"/>
<path d="M17.3828 9.59088C16.8448 9.83743 16.3614 10.1888 15.961 10.6246C15.5606 11.0603 15.2512 11.5716 15.0509 12.1284L7.61343 33.2343C7.41888 33.7803 7.34108 34.3611 7.38493 34.9391C7.42878 35.5171 7.59338 36.0795 7.86803 36.5899C8.43903 37.6483 9.40523 38.438 10.556 38.787L34.9405 46.5194C36.1129 46.8909 37.3825 46.8046 38.4939 46.2779C39.0319 46.0318 39.5151 45.6805 39.9151 45.2447C40.3152 44.8089 40.6239 44.2974 40.8232 43.7404L48.2607 22.6372C48.4461 22.0793 48.5165 21.4897 48.4678 20.9038C48.4191 20.318 48.2522 19.7482 47.9772 19.2286C47.7022 18.709 47.3248 18.2505 46.8678 17.8808C46.4108 17.5111 45.8836 17.2378 45.318 17.0774L20.9335 9.34768C19.7616 8.97738 18.4931 9.06328 17.3819 9.58828" fill="white"/>
<path d="M29.3008 29.8655C27.9412 31.3029 26.267 32.4054 24.4095 33.0864L23.3079 33.4907V23.7082L24.3955 24.1063C26.2548 24.7828 27.932 25.8811 29.2955 27.3149C30.2682 25.8445 30.8412 24.1461 30.958 22.3869C31.0594 20.1105 30.4258 17.862 29.1509 15.9734C27.876 14.0848 26.0275 12.6563 23.8784 11.8991L20.3582 10.7923C19.6107 10.5465 18.7972 10.5991 18.0875 10.9391C17.3779 11.279 16.8271 11.8801 16.5502 12.6166L9.09175 33.7356C8.9732 34.102 8.93 34.4886 8.9648 34.872C8.9996 35.2555 9.11165 35.628 9.2942 35.967C9.47675 36.3061 9.726 36.6046 10.027 36.8447C10.328 37.0849 10.6745 37.2616 11.0456 37.3643L27.9716 42.7018C29.7426 40.9441 30.8116 38.6008 30.9781 36.1113C31.1207 33.9021 30.5312 31.7076 29.3008 29.8673M19.5182 34.0909H17.8356V23.1262H19.5182V34.0909Z" fill="#008AD3"/>
<path d="M28.3219 28.5896C27.3632 27.5231 26.2082 26.6512 24.9199 26.0215V31.1726C26.2107 30.54 27.3661 29.6633 28.3219 28.5896Z" fill="#EC4315"/>
<path d="M44.7773 18.4918L29.2461 13.5918C31.1905 15.5474 32.372 18.1334 32.5775 20.8834C32.7831 23.6335 31.9991 26.3664 30.367 28.5893C31.956 30.738 32.7507 33.3713 32.6157 36.0403C32.4807 38.7093 31.4244 41.2489 29.6267 43.2263L35.463 45.0638C36.2109 45.3079 37.0242 45.2539 37.7334 44.913C38.4425 44.5722 38.9927 43.9708 39.2692 43.2342L46.7295 22.1222C46.8473 21.7556 46.8898 21.369 46.8546 20.9856C46.8193 20.6021 46.7071 20.2297 46.5244 19.8907C46.3418 19.5517 46.0926 19.2531 45.7918 19.0127C45.491 18.7723 45.1448 18.5952 44.7738 18.4918M40.6613 34.0537L38.5613 34.0624L34.2476 28.5762L38.6278 23.0943L40.7427 23.0873L36.3537 28.5841L40.6613 34.0537Z" fill="#004593"/>
</g>
<defs>
<clipPath id="clip0_9412_77410">
<rect width="56" height="56" fill="white"/>
</clipPath>
</defs>
</svg>
