<svg width="56" height="56" viewBox="0 0 56 56" fill="none" xmlns="http://www.w3.org/2000/svg">
<g clip-path="url(#clip0_9412_78661)">
<path d="M0 28C0 29.6486 0 29.8317 0.0392889 31.2318C0.144059 34.3327 0.471467 37.8916 1.71562 41.6467C2.59307 44.3028 4.24321 47.1682 5.89334 48.9738C7.98876 51.2764 10.8831 53.1608 14.0131 54.2336C17.2085 55.3328 20.666 55.869 27.3844 56H28.6285C35.36 55.856 38.8044 55.3328 41.9999 54.2336C45.1299 53.1608 48.0111 51.2764 50.1063 48.9738C51.7565 47.1551 53.4068 44.3028 54.2842 41.6467C55.5283 37.8916 55.8689 34.3196 55.9605 31.2318C56 29.8449 56 29.6486 56 28C56 26.3514 56 26.1551 55.9605 24.7682C55.8559 21.6673 55.5283 18.1084 54.2842 14.3533C53.4068 11.6972 51.7565 8.83175 50.1063 7.02618C48.0111 4.72336 45.1168 2.83925 41.9999 1.76636C38.8044 0.667289 35.347 0.130841 28.6285 0H27.3844C20.6529 0.143925 17.2085 0.667289 14.0131 1.76636C10.8831 2.83925 8.00187 4.72336 5.89334 7.02618C4.24321 8.84485 2.59307 11.6972 1.71562 14.3533C0.484564 18.1084 0.144059 21.6673 0.0392889 24.7682C0 26.1551 0 26.3514 0 28Z" fill="#E78001"/>
<path d="M19.0693 20.7354C19.0019 21.1569 18.1121 27.1107 18.0312 27.6771H20.0264C20.0803 27.2556 20.9835 21.3018 21.0644 20.7354H19.0693Z" fill="white"/>
<path d="M35.3954 20.7354C35.328 21.1569 34.4383 27.1107 34.3574 27.6771H39.0353C39.0757 27.3742 39.197 26.5707 39.2644 26.1755H36.4335L36.6222 24.8978H39.197C39.251 24.5948 39.3453 23.8835 39.4127 23.5015H36.8379L37.0266 22.237H39.7902C39.8306 21.934 39.952 21.1305 40.0194 20.7485H35.4089L35.3954 20.7354Z" fill="white"/>
<path d="M13.1643 24.7007C13.1643 24.7007 14.836 21.0388 14.9708 20.7227H17.4782C17.4782 21.2101 17.1412 27.1639 17.1412 27.6645H15.3348L15.6313 22.8039C15.6313 22.8039 13.5957 27.3483 13.4609 27.6645H12.0319L11.3849 22.8039C11.3444 23.0278 10.6569 26.2682 10.2929 27.6645H8.5C8.68875 27.0454 10.0638 21.0915 10.1716 20.7227H12.5847L13.1509 24.7007H13.1643Z" fill="white"/>
<path d="M31.889 26.2682C31.889 26.2682 32.0238 27.401 32.0642 27.6645H33.9785C33.8707 27.098 32.8326 21.131 32.7518 20.7227H30.3252C30.1904 21.0125 27.4268 26.9795 27.0898 27.6645H29.0311C29.1389 27.4274 29.6242 26.2682 29.6242 26.2682H31.8755H31.889ZM30.1769 24.8324L31.3228 22.2506L31.7003 24.8324H30.1769Z" fill="white"/>
<path d="M23.8414 22.0394H24.2863C24.5964 22.0394 24.9334 22.0658 25.1356 22.3029C25.2839 22.4741 25.3378 22.698 25.2974 23.001C25.2974 23.001 25.23 23.5279 24.8795 23.6991C24.8795 23.6991 24.6233 23.8572 24.2054 23.8704H23.3022L25.0143 27.6771H26.9555L25.4861 24.7529C26.3758 24.5948 27.0634 24.3446 27.2386 23.0273C27.2656 22.8561 27.2791 22.698 27.2791 22.5531C27.2791 22.0658 27.1442 21.6706 26.8881 21.3808C26.4028 20.8539 25.5805 20.7354 24.9738 20.7354H22.2372C22.1698 21.1569 21.2801 27.1107 21.1992 27.664H23.0191C23.073 27.282 23.8549 22.0262 23.8549 22.0262" fill="white"/>
<path d="M47.4992 19.998C46.3398 24.6083 42.1608 27.1242 39.6938 28.4678L39.5859 28.3361C40.597 27.5589 44.0481 25.1088 45.1535 21.065L47.4857 19.998H47.4992Z" fill="white"/>
<path d="M30.7578 31.6287C30.7578 31.6287 30.825 31.6156 30.8653 31.6025C30.825 31.6025 30.7981 31.6156 30.7578 31.6287Z" fill="white"/>
<path d="M27.574 32.208C27.574 32.208 27.4934 32.208 27.4531 32.2342C27.4934 32.2342 27.5337 32.2211 27.574 32.208Z" fill="white"/>
<path d="M31.5254 31.4443C31.3905 31.4839 31.2423 31.5102 31.1074 31.5366C31.2423 31.4971 31.3905 31.4707 31.5254 31.4443Z" fill="white"/>
<path d="M34.6787 30.5879C34.4765 30.6538 34.2743 30.7065 34.0586 30.7724C34.2743 30.7065 34.4765 30.6406 34.6787 30.5879Z" fill="white"/>
<path d="M32.0235 31.3389C31.9292 31.365 31.8483 31.3781 31.7539 31.4043C31.8348 31.3781 31.9292 31.365 32.0235 31.3389Z" fill="white"/>
<path d="M25.8622 31.6019L25.3364 31.3516C25.1612 31.2462 24.7702 31.0355 24.7702 30.6535C24.7702 30.4691 24.8511 30.311 24.9724 30.2056C25.1342 30.0739 25.3903 30.0212 25.6599 30.0739C25.997 30.1266 26.4014 30.3374 26.8328 30.693C27.035 30.311 27.4259 29.5997 27.5742 29.3363C27.0754 28.9411 26.6036 28.7303 25.8756 28.6118C24.9859 28.4932 24.1366 28.6645 23.5435 29.0992C23.0312 29.468 22.7211 30.008 22.6402 30.6667C22.6268 30.772 22.6133 30.8906 22.6133 30.996C22.6133 31.3516 22.6942 31.6678 22.8559 31.9312C23.9344 31.9049 25.0668 31.8522 26.2127 31.76C26.1048 31.7073 25.997 31.6414 25.8756 31.5887" fill="white"/>
<path d="M33.9377 28.8623C33.8973 29.1521 33.749 30.061 33.6816 30.5089C35.0836 30.1269 36.7957 29.5868 38.3729 28.8623H33.9377Z" fill="white"/>
<path d="M34.6804 30.5884C34.4782 30.6542 34.2759 30.7069 34.0602 30.7728C34.0198 30.7859 33.9794 30.7991 33.9254 30.8123C33.8446 30.8386 33.7637 30.865 33.6693 30.8913C33.6289 30.8913 33.5749 30.9177 33.5345 30.9308C33.2514 31.0099 32.9548 31.0889 32.6448 31.1679C32.5908 31.1811 32.5369 31.1943 32.4695 31.2074C32.3886 31.2338 32.2943 31.247 32.2134 31.2733C32.146 31.2865 32.0786 31.2997 32.0246 31.326C31.9303 31.3392 31.8494 31.3655 31.755 31.3919C31.6741 31.405 31.5933 31.4314 31.5124 31.4445C31.3776 31.4841 31.2428 31.5104 31.0945 31.5368C31.0136 31.5499 30.9327 31.5763 30.8518 31.5894C30.8114 31.5894 30.7844 31.6026 30.744 31.6158C29.9216 31.8002 29.0589 31.9583 28.1287 32.1163C28.1152 32.1163 28.0882 32.1163 28.0748 32.1163C27.913 32.1427 27.7377 32.169 27.5625 32.1954H27.4412C27.2659 32.2349 27.0772 32.2744 26.9019 32.2876C26.8885 32.2876 26.875 32.2876 26.8615 32.2876C25.8774 32.4325 24.8259 32.551 23.7339 32.6432C23.5722 32.6564 23.3969 32.6696 23.2217 32.6827C23.2082 32.6827 23.1812 32.6827 23.1677 32.6827C23.006 32.6827 22.8307 32.7091 22.6555 32.7223C22.642 32.7223 22.615 32.7223 22.6016 32.7223C22.4263 32.7223 22.2511 32.7486 22.0758 32.7486C22.0623 32.7486 22.0488 32.7486 22.0354 32.7486C21.8601 32.7486 21.6714 32.7618 21.4961 32.7749H21.4826C20.5525 32.8145 19.6088 32.8408 18.6247 32.8408H18.5438C18.3281 32.8408 18.1124 32.8408 17.8833 32.8408C17.8428 32.8408 17.7889 32.8408 17.7485 32.8408C16.9531 32.8408 16.1442 32.8013 15.3084 32.7618H15.295C14.0412 32.6959 12.7336 32.5905 11.399 32.4456L12.9493 31.0626C12.9493 31.0626 13.8525 31.3128 15.0927 31.5368C14.8636 30.1932 14.6479 29.0208 14.6209 28.8496H12.1944C12.0461 29.1394 9.28253 35.1064 8.95898 35.7914H10.9002C11.0081 35.5543 11.6551 34.0658 11.6551 34.0658H13.6773C13.6773 34.0658 13.8795 35.5148 13.9199 35.7914H15.8342C15.7937 35.5675 15.605 34.5269 15.3893 33.3018C16.7509 33.3809 18.1259 33.394 19.3931 33.3677C19.4605 33.4731 19.4875 33.5785 19.4875 33.697C19.4875 33.7365 19.4875 33.776 19.4875 33.8287C19.4605 33.9868 19.3796 34.1185 19.2448 34.1976C18.9752 34.3688 18.5978 34.3293 18.3416 34.2898C17.7215 34.1844 17.2362 33.7365 16.8318 33.3677C16.5891 33.7497 16.0634 34.5664 15.8881 34.8298C16.6161 35.4621 17.4114 35.8573 18.2473 35.9626C19.0965 36.0812 19.9324 35.8968 20.5525 35.4621C21.0917 35.0801 21.4287 34.5269 21.5366 33.8419C21.5635 33.6443 21.577 33.4599 21.577 33.2887C22.9386 33.236 24.0844 33.1569 24.8124 33.0911C25.0551 33.2623 25.1764 33.4599 25.1764 33.6838C25.1764 33.7234 25.1764 33.7629 25.1764 33.8156C25.1494 33.9736 25.0685 34.1053 24.9337 34.1844C24.6641 34.3556 24.2867 34.3161 24.0305 34.2766C23.4104 34.1712 22.9251 33.7234 22.5207 33.3545C22.278 33.7365 21.7523 34.5532 21.577 34.8167C22.305 35.4489 23.1003 35.8441 23.9362 35.9495C24.7855 36.068 25.6213 35.8836 26.2414 35.4489C26.7806 35.0669 27.1311 34.5137 27.239 33.8287C27.3064 33.4467 27.2929 33.1174 27.1985 32.8145C27.5086 32.7749 27.8052 32.7223 28.0882 32.6827C27.8726 34.1449 27.6703 35.5016 27.6299 35.7519H32.3077C32.3482 35.4489 32.4695 34.6454 32.5369 34.2502H29.6925L29.8812 32.9725H32.456C32.4965 32.7091 32.5908 32.1032 32.6448 31.708C32.9953 31.6026 33.1705 31.5368 33.1705 31.5368C33.1705 31.5368 34.0468 31.2865 35.1657 30.8913C35.0039 31.9714 34.5051 35.2909 34.4377 35.7651H36.4598C36.5138 35.3567 37.2417 30.5488 37.2417 30.5488H38.7111C38.7516 30.2459 38.8999 29.2975 38.9538 28.8628C38.1989 29.2711 36.7564 29.9034 34.7073 30.5488" fill="white"/>
<path d="M20.8085 31.9444C20.6332 31.8126 20.431 31.6941 20.1884 31.6019L19.6626 31.3516H19.6491C19.4739 31.2462 19.0829 31.0355 19.0829 30.6535C19.0829 30.4691 19.1503 30.311 19.2852 30.2056C19.4469 30.0739 19.7031 30.0212 19.9727 30.0739C20.3232 30.1266 20.7141 30.3374 21.1455 30.693C21.3477 30.311 21.7387 29.5997 21.8869 29.3363C21.3882 28.9411 20.9163 28.7303 20.1884 28.6118C19.2986 28.4932 18.4493 28.6645 17.8562 29.0992C17.3439 29.468 17.0339 30.008 16.953 30.6667C16.9395 30.772 16.9395 30.8906 16.9395 30.996C16.9395 31.2989 16.9934 31.5755 17.1013 31.8127C17.1417 31.8127 17.1821 31.8127 17.2226 31.8127C18.1258 31.8785 19.366 31.9312 20.795 31.9444" fill="white"/>
<path d="M30.245 30.3644H33.0085C33.0624 30.0615 33.1703 29.258 33.2377 28.876H28.6407C28.6138 29.0604 28.4385 30.2327 28.2363 31.5763C28.8699 31.4973 29.5035 31.4051 30.1236 31.3128L30.2584 30.3776L30.245 30.3644Z" fill="white"/>
</g>
<defs>
<clipPath id="clip0_9412_78661">
<rect width="56" height="56" fill="white"/>
</clipPath>
</defs>
</svg>
