<svg width="24" height="24" viewBox="0 0 24 24" fill="none" xmlns="http://www.w3.org/2000/svg">
<g clip-path="url(#clip0_8918_95356)">
<mask id="mask0_8918_95356" style="mask-type:luminance" maskUnits="userSpaceOnUse" x="0" y="0" width="24" height="24">
<path d="M11.9991 0H11.7327C8.85293 0.060003 7.37405 0.285614 6.00315 0.756638C4.67763 1.21248 3.4845 1.98725 2.52881 3.01275C1.73485 3.93394 1.12725 5.00052 0.739744 6.15331C0.283051 7.59802 0.0404924 9.10187 0.0197985 10.6169C-4.47001e-09 11.2128 0 11.2956 0 12C0 12.7044 -4.47001e-09 12.7872 0.0197985 13.3801C0.0403926 14.8955 0.282952 16.3998 0.739744 17.8449C1.12725 18.9977 1.73485 20.0643 2.52881 20.9854C3.48438 22.011 4.67756 22.7856 6.00315 23.241C7.37405 23.712 8.85233 23.9388 11.7327 23.9982H12.2649C15.1447 23.9382 16.6242 23.712 17.9944 23.241C19.3203 22.7857 20.5137 22.0111 21.4694 20.9854C22.2631 20.0647 22.8712 18.999 23.2603 17.8473C23.7168 16.4021 23.9593 14.8979 23.9802 13.3825C24 12.7872 24 12.705 24 12.0024C24 11.2998 24 11.2152 23.9802 10.6193C23.9592 9.1043 23.7167 7.60049 23.2603 6.15571C22.8718 5.0032 22.2641 3.93675 21.4706 3.01515C20.5148 1.98951 19.3214 1.21472 17.9957 0.759038C16.6242 0.285614 15.1459 0.059403 12.2649 0H11.9991Z" fill="white"/>
</mask>
<g mask="url(#mask0_8918_95356)">
<path d="M30.3143 16.0225H-6.31836V24.1583H30.3143V16.0225Z" fill="black"/>
<path d="M30.3143 7.88672H-6.31836V16.0225H30.3143V7.88672Z" fill="white"/>
<path d="M30.3143 -0.248535H-6.31836V7.88727H30.3143V-0.248535Z" fill="#CE1126"/>
<path d="M15.4449 10.3382C15.4167 10.2992 15.4335 10.2974 15.5487 10.3292C15.6269 10.3607 15.7124 10.3701 15.7957 10.3563C15.8789 10.3426 15.9568 10.3062 16.0208 10.2512L16.1372 10.1528L16.2746 10.223C16.3295 10.2558 16.3909 10.2763 16.4546 10.283C16.5419 10.233 16.6065 10.151 16.6346 10.0544C16.6298 9.98718 16.6874 10.004 16.7144 10.0784C16.7277 10.1121 16.734 10.1482 16.7328 10.1844C16.7316 10.2206 16.7229 10.2562 16.7073 10.289C16.6917 10.3217 16.6695 10.3508 16.6421 10.3746C16.6148 10.3983 16.5828 10.4162 16.5482 10.427C16.4676 10.445 16.3834 10.4363 16.3082 10.4024C16.1804 10.3574 16.1582 10.358 16.094 10.4072C16.0182 10.4616 15.9284 10.493 15.8352 10.4978C15.742 10.5026 15.6494 10.4805 15.5684 10.4342C15.5218 10.4105 15.4797 10.3786 15.4443 10.34M16.1588 9.82877C16.1708 9.63796 16.1522 9.58156 16.07 9.55576C16.0238 9.54136 16.0058 9.55156 15.989 9.60316C15.9864 9.73026 16.0177 9.85576 16.0796 9.96678C16.1264 10.0268 16.1492 9.98478 16.1588 9.82877ZM11.1468 11.4987C10.8468 11.6703 10.3992 11.6949 10.3998 12.1665C9.74829 12.1965 8.97734 12.2193 8.282 12.2061C8.51658 11.9061 9.80168 10.6544 10.1539 10.3028C10.2139 10.268 10.302 10.2818 10.371 10.2512C10.2696 10.199 10.0459 9.90858 10.0627 9.79217C9.49811 10.3394 8.85315 10.9214 8.76136 11.0132C7.84103 11.9319 7.85783 11.9211 7.72104 12.0555C7.72104 12.2355 7.72404 12.4809 7.72404 12.5991H10.9008C11.058 12.5991 10.8654 12.0489 11.0676 12.0489C11.2794 12.0489 11.2086 12.4785 11.2086 12.7461C9.85388 12.7461 8.42299 12.7557 7.09589 12.7557V11.9013C6.93308 12.077 6.73098 12.2117 6.50613 12.2943C6.67112 12.3261 6.68192 12.5799 6.66332 12.7953C6.10536 12.8097 5.35362 12.8799 5.5624 12.2457C5.37095 12.3913 5.15637 12.5037 4.92765 12.5781C5.20114 12.9302 5.32991 13.3734 5.28762 13.8172C5.17903 14.0758 4.87725 14.1406 4.69727 14.3278C4.8137 14.3635 4.93636 14.3742 5.05722 14.3592C5.17808 14.3443 5.29442 14.3039 5.39862 14.2409C5.50283 14.1779 5.59255 14.0935 5.66192 13.9934C5.73129 13.8933 5.77875 13.7797 5.80118 13.66H11.7407C11.7407 13.1841 11.7407 12.5253 11.7407 12.0879C11.6927 11.7225 11.3052 11.7411 11.151 11.4987M19.302 13.6588C19.311 13.3587 19.0662 12.9819 19.0272 12.5979C18.8826 12.6897 18.819 12.8613 18.5154 12.7947V10.3946C18.5418 10.2746 18.642 10.232 18.6732 10.1198C18.4357 10.0321 18.2109 9.91301 18.0049 9.76577V13.6558L19.302 13.6588ZM17.5519 9.90678V13.654H14.5713C14.5269 12.8739 14.5197 12.0711 15.4269 12.2439V11.9265C15.3993 11.8725 15.3495 11.9397 15.3375 11.8695C15.4815 11.7255 15.5307 11.6895 15.9206 11.348C15.9206 11.7591 15.9278 12.7281 15.9278 12.7281H16.2716C16.2716 12.7281 16.2746 11.1044 16.2746 11.048C16.2746 11.048 16.7468 10.6502 16.7468 10.6346V12.7263H17.0803C17.0803 11.9295 17.0701 11.1212 17.0701 10.3802C17.2466 10.239 17.4063 10.0779 17.5459 9.90018M15.4209 12.6357C15.3843 12.5025 15.0981 12.5535 15.1497 12.7029C15.2133 12.7989 15.4311 12.7971 15.4209 12.6357ZM6.52113 13.9192C6.48553 13.9192 6.45073 13.9297 6.42113 13.9495C6.39154 13.9693 6.36847 13.9974 6.35484 14.0303C6.34122 14.0632 6.33766 14.0994 6.3446 14.1343C6.35155 14.1692 6.36869 14.2013 6.39386 14.2265C6.41903 14.2516 6.4511 14.2688 6.48601 14.2757C6.52093 14.2827 6.55712 14.2791 6.59001 14.2655C6.62289 14.2519 6.651 14.2288 6.67078 14.1992C6.69056 14.1696 6.70112 14.1348 6.70112 14.0992C6.70112 14.0514 6.68215 14.0057 6.6484 13.9719C6.61464 13.9381 6.56886 13.9192 6.52113 13.9192ZM12.6497 12.7989V10.3988C12.6755 10.2788 12.7757 10.2362 12.8075 10.124C12.5697 10.0363 12.3448 9.91721 12.1385 9.76997V13.6606H13.4362C13.4446 13.3605 13.2004 12.9831 13.1608 12.5997C13.0168 12.6909 12.9526 12.8625 12.6497 12.7959" fill="#007A3D"/>
</g>
</g>
<defs>
<clipPath id="clip0_8918_95356">
<rect width="24" height="23.9982" fill="white"/>
</clipPath>
</defs>
</svg>
