<svg width="32" height="32" viewBox="0 0 32 32" fill="none" xmlns="http://www.w3.org/2000/svg">
<g clip-path="url(#clip0_8918_95382)">
<mask id="mask0_8918_95382" style="mask-type:luminance" maskUnits="userSpaceOnUse" x="0" y="0" width="32" height="32">
<path d="M16 0H15.6456C11.8056 0.08 9.832 0.3808 8.0048 1.0096C6.23729 1.61699 4.64611 2.64939 3.3712 4.016C2.31323 5.245 1.50313 6.66715 0.9856 8.204C0.376564 10.1305 0.0531274 12.1358 0.0256 14.156C5.06639e-08 14.9504 0 15.06 0 16C0 16.94 5.06639e-08 17.0488 0.0256 17.84C0.0531849 19.8602 0.37662 21.8655 0.9856 23.792C1.50147 25.3305 2.31082 26.7544 3.3688 27.9848C4.64293 29.351 6.2333 30.3832 8 30.9904C9.8272 31.6184 11.7984 31.9208 15.6408 32H16.3496C20.1896 31.92 22.1632 31.6184 23.9896 30.9904C25.7584 30.3841 27.3508 29.3519 28.6264 27.9848C29.6844 26.7558 30.4945 25.3337 31.012 23.7968C31.6206 21.8702 31.944 19.865 31.972 17.8448C31.9976 17.0504 31.9976 16.9408 31.9976 16.0048C31.9976 15.0688 31.9976 14.9552 31.972 14.1608C31.9441 12.1406 31.6206 10.1353 31.012 8.2088C30.4942 6.67209 29.6841 5.25 28.6264 4.0208C27.3519 2.65223 25.7603 1.61813 23.992 1.0096C22.1656 0.3808 20.1936 0.0784 16.352 0H16Z" fill="white"/>
</mask>
<g mask="url(#mask0_8918_95382)">
<path d="M53.9073 -1.29541H-3.9375V37.2398H53.9073V-1.29541Z" fill="#19307A"/>
<path d="M5.16221 15.5381L5.71261 17.1765L7.34381 16.5829L6.39901 18.0317L7.88301 18.9309L6.15421 19.0997L6.37261 20.8133L5.16221 19.5741L3.95101 20.8133L4.17021 19.0997L2.44141 18.9309L3.92541 18.0317L2.97981 16.5829L4.61181 17.1765L5.16221 15.5381Z" fill="white"/>
<path d="M21.2377 11.1958L21.5345 12.0814L22.4145 11.7614L21.9041 12.5446L22.7041 13.0318L21.7689 13.1222L21.8873 14.0486L21.2329 13.3782L20.5777 14.0486L20.6969 13.1222L19.7617 13.0318L20.5617 12.5446L20.0505 11.7614L20.9305 12.0814L21.2377 11.1958Z" fill="white"/>
<path d="M16.5222 -0.462402H-6.16016V14.1976H16.5222V-0.462402Z" fill="#19307A"/>
<path d="M8.28506 8.74365H6.78906V9.51245L13.9379 14.1973H16.5227V14.1933L8.28506 8.74365Z" fill="white"/>
<path d="M9.76367 8.74361L16.5213 13.2124V12.7044L10.4741 8.74121L9.76367 8.74361Z" fill="white"/>
<path d="M-0.152156 8.74361L-6.16016 12.6484V14.1812L2.21904 8.74121L-0.152156 8.74361Z" fill="white"/>
<path d="M3.5725 8.83984L-4.6875 14.1974H-3.6563L3.5725 9.50064V8.83984Z" fill="white"/>
<path d="M0.763843 4.99263L-6.16016 0.490234V1.02463L-0.108956 4.99263H0.763843Z" fill="white"/>
<path d="M10.5063 4.99265L16.5223 1.08385V-0.452148L8.1543 4.99265H10.5063Z" fill="white"/>
<path d="M3.57225 4.9928V4.2184L-3.57095 -0.462402H-6.12695L2.26105 4.9928H3.57225Z" fill="white"/>
<path d="M6.78906 4.9088L15.0403 -0.462402H14.0131L6.78906 4.2328V4.9088Z" fill="white"/>
<path d="M3.57184 8.74365H2.21904L-6.16016 14.1813V14.1973H-4.68816L3.57184 8.83725V8.74365Z" fill="#FF0102"/>
<path d="M6.78906 4.9928H8.15546L16.5227 -0.452002V-0.462402H15.0403L6.78906 4.9088V4.9928Z" fill="#FF0102"/>
<path d="M8.28516 8.74365L16.5252 14.1933V13.2125L9.76756 8.74365H8.28516Z" fill="#FF0102"/>
<path d="M2.26064 4.9928L-6.12736 -0.462402H-6.16016V0.490398L0.763843 4.9928H2.26064Z" fill="#FF0102"/>
<path d="M4.21184 7.97656H-6.16016V8.74376H3.57184V14.1974H4.21184V7.97656Z" fill="white"/>
<path d="M6.17969 5.7256H16.5229V4.9928H6.78849V-0.462402H6.17969V5.7256Z" fill="white"/>
<path d="M6.78849 8.74376H16.5221V7.97656H6.17969V14.1974H6.78849V8.74376Z" fill="white"/>
<path d="M4.21184 5.7256V-0.462402H3.57184V4.9928H-6.16016V5.7256H4.21184Z" fill="white"/>
<path d="M6.17984 7.9768H16.523V5.7248H6.17984V-0.462402H4.21184V5.7248H-6.16016V7.9768H4.21184V14.1976H6.17984V7.9768Z" fill="#FF0102"/>
</g>
</g>
<defs>
<clipPath id="clip0_8918_95382">
<rect width="31.9976" height="32" fill="white"/>
</clipPath>
</defs>
</svg>
