<svg width="24" height="24" viewBox="0 0 24 24" fill="none" xmlns="http://www.w3.org/2000/svg">
<g clip-path="url(#clip0_8918_95369)">
<mask id="mask0_8918_95369" style="mask-type:luminance" maskUnits="userSpaceOnUse" x="0" y="0" width="24" height="25">
<path d="M11.9994 0H11.7342C8.8542 0.06 7.374 0.2862 6.0042 0.7584C4.67799 1.21281 3.48419 1.98704 2.5284 3.0126C1.73471 3.9342 1.12711 5.00086 0.7392 6.1536C0.282094 7.59836 0.0395086 9.10239 0.0192 10.6176C3.7998e-08 11.2134 0 11.2962 0 12.0006C0 12.705 3.7998e-08 12.7872 0.0192 13.3806C0.0394279 14.8964 0.282013 16.401 0.7392 17.8464C1.12676 18.9993 1.7344 20.066 2.5284 20.9874C3.48416 22.0131 4.67795 22.7876 6.0042 23.2422C7.374 23.7144 8.853 23.9406 11.7342 24.0006H12.2652C15.1452 23.9406 16.626 23.7144 17.9958 23.2422C19.3219 22.7873 20.5156 22.0129 21.4716 20.9874C22.2654 20.0659 22.873 18.9992 23.2608 17.8464C23.7173 16.4013 23.9599 14.8972 23.9808 13.3818C24 12.7866 24 12.7044 24 12.0018C24 11.2992 24 11.2146 23.9808 10.6188C23.9599 9.10364 23.7173 7.5997 23.2608 6.1548C22.8727 5.00216 22.2651 3.93555 21.4716 3.0138C20.5157 1.98805 19.322 1.21345 17.9958 0.7584C16.626 0.2862 15.147 0.0594 12.2652 0H11.9994Z" fill="white"/>
</mask>
<g mask="url(#mask0_8918_95369)">
<path d="M38.7302 15.5088H-2.41602V24.3186H38.7302V15.5088Z" fill="#D81E05"/>
<path d="M38.7302 -0.153809H-2.41602V8.65599H38.7302V-0.153809Z" fill="white"/>
<path d="M38.7296 8.00342H-2.41602V16.161H38.7296V8.00342Z" fill="#0051BA"/>
<path d="M4.14447 5.59863C3.65187 5.63583 3.78927 6.23403 3.72987 6.57303C3.55407 8.91303 3.31347 11.3274 4.02987 13.6068C4.64061 15.4375 5.90281 16.9798 7.57647 17.9406C7.96206 18.1985 8.37749 18.4086 8.81367 18.5664C9.27115 18.3988 9.70703 18.1772 10.1121 17.9064C11.7568 16.9436 12.9956 15.4161 13.5981 13.608C14.3241 11.2908 14.0655 8.83683 13.8903 6.45903C13.8639 6.13083 13.9137 5.56323 13.4295 5.59983L4.14447 5.59863Z" fill="white"/>
<path d="M13.4844 5.96631H4.14481C3.77041 10.9193 3.15121 15.4595 8.81401 18.2003C14.4768 15.4595 13.8576 10.9193 13.4844 5.96631Z" fill="#D81E05"/>
<path d="M11.7784 10.2917C11.1909 10.4235 10.5922 10.4985 9.99036 10.5155H9.33036V9.31971H9.47376C10.0753 9.33654 10.6737 9.4121 11.2606 9.54531C11.0877 9.06622 11.0877 8.5418 11.2606 8.06271C10.6737 8.19542 10.0752 8.27077 9.47376 8.28771H9.33036V8.20971C9.34769 7.61158 9.42325 7.01657 9.55596 6.43311C9.0745 6.60531 8.54823 6.60531 8.06676 6.43311C8.19948 7.01657 8.27504 7.61158 8.29236 8.20971V8.28771H8.15016C7.54867 8.27096 6.95023 8.1956 6.36336 8.06271C6.53619 8.5418 6.53619 9.06622 6.36336 9.54531C6.95016 9.41192 7.54862 9.33636 8.15016 9.31971H8.29236V10.5155H7.63836C7.03695 10.4985 6.43859 10.4236 5.85156 10.2917C6.02375 10.7705 6.02375 11.2943 5.85156 11.7731C6.43838 11.6398 7.03683 11.5642 7.63836 11.5475H8.29536V15.7889H9.33336V11.5463H9.99336C10.5953 11.563 11.1941 11.6386 11.7814 11.7719C11.6074 11.2934 11.6074 10.769 11.7814 10.2905" fill="white"/>
<path d="M12.3826 15.1577C12.3815 14.9147 12.3076 14.6777 12.1705 14.4771C12.0334 14.2765 11.8394 14.1216 11.6134 14.0323C11.3874 13.943 11.1399 13.9234 10.9027 13.9761C10.6655 14.0288 10.4496 14.1513 10.2826 14.3279C10.1867 14.0128 9.99207 13.7368 9.7274 13.5407C9.46273 13.3446 9.14205 13.2388 8.81265 13.2388C8.48325 13.2388 8.16257 13.3446 7.8979 13.5407C7.63322 13.7368 7.43857 14.0128 7.34265 14.3279C7.17589 14.152 6.9603 14.0301 6.72365 13.9778C6.48699 13.9255 6.2401 13.9453 6.01478 14.0346C5.78945 14.1238 5.59601 14.2785 5.45936 14.4787C5.32271 14.6788 5.24912 14.9153 5.24805 15.1577C5.24954 15.2076 5.25435 15.2573 5.26245 15.3065C5.32245 15.3959 5.39385 15.4817 5.45985 15.5693H5.45325C5.48805 15.6155 5.52765 15.6611 5.56365 15.7073C5.59965 15.7535 5.64705 15.8135 5.69025 15.8657C6.55119 16.8582 7.61516 17.6543 8.81025 18.2003C10.0022 17.6592 11.0642 16.8688 11.9248 15.8825C11.9848 15.8129 12.0394 15.7409 12.0946 15.6701C12.121 15.6359 12.1498 15.6029 12.1756 15.5693H12.1708C12.2374 15.4805 12.3082 15.3935 12.3694 15.3035C12.378 15.2553 12.3832 15.2066 12.385 15.1577" fill="#0051BA"/>
<path d="M12.2559 0.5L13.2637 0.530273C15.4684 0.619079 16.697 0.839345 17.835 1.23047V1.22949C19.0766 1.65684 20.1941 2.38274 21.0908 3.3418H21.0918C21.7493 4.10497 22.2721 4.97309 22.6387 5.90918L22.7861 6.31543C23.2262 7.7108 23.4605 9.16294 23.4805 10.626V10.6357C23.5 11.224 23.5 11.303 23.5 12.002C23.5 12.3515 23.5005 12.5457 23.498 12.7256L23.4805 13.3662V13.376C23.4605 14.8393 23.2263 16.2918 22.7861 17.6875C22.4201 18.7753 21.8475 19.7819 21.0996 20.6523C20.2008 21.6149 19.0796 22.342 17.834 22.7695H17.833C16.5344 23.2165 15.1146 23.4404 12.2559 23.5H11.7451C9.24305 23.4484 7.84375 23.2709 6.66309 22.9277L6.16797 22.7695C4.92609 22.3434 3.80733 21.6196 2.91016 20.6611C2.15756 19.788 1.58086 18.7771 1.21289 17.6846C0.773039 16.2889 0.539716 14.8363 0.519531 13.373L0.518555 13.3643L0.501953 12.7246C0.499596 12.5447 0.5 12.3503 0.5 12C0.5 11.2991 0.499793 11.2226 0.520508 10.6348V10.624C0.540743 9.16075 0.774933 7.70817 1.21484 6.3125C1.53675 5.35765 2.01804 4.46553 2.63672 3.67285L2.91016 3.33887C3.75105 2.44042 4.78641 1.74782 5.93555 1.31348L6.16797 1.23047C7.30423 0.839396 8.5336 0.619085 10.7383 0.530273L11.7451 0.5H12.2559Z" stroke="#F6F6F6"/>
</g>
</g>
<defs>
<clipPath id="clip0_8918_95369">
<rect width="24" height="24.0006" fill="white"/>
</clipPath>
</defs>
</svg>
