<svg width="24" height="24" viewBox="0 0 24 24" fill="none" xmlns="http://www.w3.org/2000/svg">
<g clip-path="url(#clip0_8918_95345)">
<mask id="mask0_8918_95345" style="mask-type:luminance" maskUnits="userSpaceOnUse" x="0" y="0" width="24" height="24">
<path d="M12.0006 0H11.7348C8.85464 0.060003 7.37437 0.286214 6.0039 0.758438C4.67763 1.21253 3.4839 1.98686 2.52853 3.01275C1.73443 3.93469 1.12659 5.00183 0.738637 6.15511C0.28213 7.59988 0.0395473 9.1037 0.0186009 10.6187C1.11764e-08 11.214 0 11.2968 0 12.0024C0 12.708 1.11764e-08 12.789 0.0186009 13.3825C0.0395491 14.8977 0.282131 16.4017 0.738637 17.8467C1.12701 18.9994 1.73482 20.0661 2.52853 20.9879C3.48426 22.0134 4.67787 22.7879 6.0039 23.2428C7.37437 23.7144 8.85344 23.9412 11.7348 23.9994H12.2658C15.146 23.9394 16.6256 23.7144 17.9955 23.2428C19.3218 22.7878 20.5158 22.0133 21.4721 20.9879C22.2654 20.066 22.8728 18.9994 23.2608 17.8467C23.7181 16.4019 23.9607 14.8978 23.9808 13.3825C24 12.7866 24 12.7038 24 12.0024C24 11.301 24 11.214 23.9808 10.6187C23.9607 9.10362 23.7181 7.59968 23.2608 6.15511C22.8731 5.00232 22.2657 3.9356 21.4721 3.01395C20.5164 1.9879 19.3225 1.21322 17.9961 0.758438C16.6262 0.286214 15.146 0.059403 12.2658 0H12.0006Z" fill="white"/>
</mask>
<g mask="url(#mask0_8918_95345)">
<path d="M40.2491 -0.0253906H-0.394531V13.5119H40.2491V-0.0253906Z" fill="#FF1228"/>
<path d="M40.2491 13.5117H-0.394531V27.049H40.2491V13.5117Z" fill="white"/>
<path d="M5.15477 6.91713C5.14082 6.09632 5.38049 5.2912 5.84108 4.61166C6.30166 3.93211 6.96071 3.41124 7.7283 3.12014C7.18925 2.98014 6.62659 2.95649 6.0777 3.05078C5.52881 3.14506 5.00629 3.35512 4.54487 3.66698C4.08344 3.97884 3.6937 4.38536 3.40155 4.85951C3.1094 5.33365 2.92154 5.86456 2.85045 6.41693C2.77937 6.9693 2.82669 7.53048 2.98927 8.06315C3.15185 8.59581 3.42597 9.08776 3.7934 9.50629C4.16082 9.92482 4.61314 10.2603 5.12027 10.4905C5.6274 10.7207 6.17772 10.8403 6.73465 10.8413C7.06992 10.8414 7.40376 10.7976 7.7277 10.7111C6.96052 10.4204 6.30174 9.90001 5.84126 9.221C5.38078 8.54199 5.14105 7.73744 5.15477 6.91713Z" fill="white"/>
<path d="M9.4568 3.72217L9.67341 4.432H10.3766L9.80542 4.87123L10.0226 5.58166L9.4544 5.14184L8.88617 5.58166L9.10278 4.87123L8.53516 4.432H9.23719L9.4568 3.72217Z" fill="white"/>
<path d="M11.6563 5.36279L11.8735 6.07323H12.5762L12.0079 6.51305L12.2246 7.22349L11.6563 6.78486L11.0881 7.22349L11.3065 6.51485L10.7383 6.07503H11.4409L11.6563 5.36279Z" fill="white"/>
<path d="M7.25188 5.36279L7.46849 6.07323H8.17172L7.60289 6.51305L7.82011 7.22349L7.25188 6.78486L6.68305 7.22349L6.90026 6.51305L6.33203 6.07323H7.03467L7.25188 5.36279Z" fill="white"/>
<path d="M8.15482 7.95508L8.37263 8.66491H9.07467L8.50704 9.10414L8.72605 9.81517L8.15722 9.37595L7.58599 9.81517L7.8038 9.10414L7.23438 8.66491H7.93701L8.15482 7.95508Z" fill="white"/>
<path d="M10.8177 7.95508L11.0349 8.66491H11.7375L11.1687 9.10414L11.3859 9.81517L10.8177 9.37595L10.2489 9.81517L10.4667 9.10414L9.89844 8.66491H10.6005L10.8177 7.95508Z" fill="white"/>
<path d="M12.2568 0.5L13.2646 0.530273C15.1542 0.606399 16.3268 0.779225 17.3398 1.07324L17.8359 1.23047C19.0775 1.65782 20.1951 2.38279 21.0918 3.3418H21.0928C21.8442 4.214 22.4196 5.22338 22.7871 6.31445C23.1723 7.53543 23.3996 8.79993 23.4639 10.0771L23.4814 10.627V10.6367C23.501 11.225 23.501 11.3037 23.501 12.0029C23.501 12.7022 23.501 12.778 23.4814 13.3662V13.376C23.464 14.6592 23.2818 15.9344 22.9404 17.1699L22.7871 17.6885C22.4202 18.7789 21.8452 19.7873 21.0947 20.6592C20.1968 21.6188 19.0781 22.3448 17.835 22.7715H17.834C16.5354 23.2184 15.1156 23.4414 12.2568 23.501H11.7461C9.24345 23.4494 7.84393 23.2719 6.66309 22.9287L6.16797 22.7715L5.93555 22.6875C4.78225 22.2517 3.74393 21.5555 2.90137 20.6523C2.15297 19.7814 1.57947 18.7739 1.21289 17.6855C0.773028 16.2898 0.539741 14.8373 0.519531 13.374L0.518555 13.3643C0.499601 12.7784 0.5 12.7018 0.5 12.001C0.5 11.3 0.499786 11.2227 0.520508 10.6348V10.624C0.54078 9.16103 0.775078 7.7089 1.21484 6.31348C1.58242 5.22306 2.15756 4.21385 2.9082 3.3418C3.74942 2.44223 4.7855 1.74924 5.93555 1.31445L6.16797 1.23047C7.30436 0.83935 8.53419 0.619078 10.7393 0.530273L11.7461 0.5H12.2568Z" stroke="#F6F6F6"/>
</g>
</g>
<defs>
<clipPath id="clip0_8918_95345">
<rect width="24" height="23.9994" fill="white"/>
</clipPath>
</defs>
</svg>
