<svg width="32" height="32" viewBox="0 0 32 32" fill="none" xmlns="http://www.w3.org/2000/svg">
<g clip-path="url(#clip0_8918_95414)">
<mask id="mask0_8918_95414" style="mask-type:luminance" maskUnits="userSpaceOnUse" x="0" y="0" width="32" height="32">
<path d="M15.9992 0H15.6448C11.805 0.080016 9.83231 0.382477 8.0052 1.0114C6.23714 1.61648 4.64546 2.64818 3.37103 4.0152C2.31262 5.2438 1.5025 6.66608 0.985551 8.20324C0.376633 10.1298 0.0532143 12.1353 0.0255987 14.1556C2.98008e-09 14.9502 0 15.0598 0 16.0008C0 16.9418 2.98008e-09 17.0498 0.0255987 17.8412C0.0530302 19.8616 0.376453 21.867 0.985551 23.7936C1.5029 25.3308 2.31298 26.7532 3.37103 27.9824C4.64531 29.3503 6.23695 30.3831 8.0052 30.9894C9.83231 31.6191 11.8042 31.9208 15.6448 32H16.3536C20.1934 31.92 22.1669 31.6191 23.994 30.9894C25.7619 30.3829 27.3532 29.3501 28.6274 27.9824C29.6857 26.7533 30.4961 25.3308 31.0136 23.7936C31.6224 21.8669 31.9458 19.8615 31.9736 17.8412C32 17.0466 32 16.937 32 16.0008C32 15.0646 32 14.9502 31.9736 14.1556C31.9456 12.1353 31.6222 10.1299 31.0136 8.20324C30.4964 6.66603 29.686 5.24375 28.6274 4.0152C27.3535 2.6472 25.7621 1.6144 23.994 1.0082C22.1669 0.382476 20.1982 0.080016 16.3536 0H15.9992Z" fill="white"/>
</mask>
<g mask="url(#mask0_8918_95414)">
<path d="M-0.121094 25.794V-0.305658H25.9696C27.2798 -0.307463 28.5603 0.0844071 29.6452 0.819162C30.7301 1.55392 31.5693 2.59768 32.0541 3.81517C32.3512 4.58072 32.505 5.39443 32.5077 6.21565V25.794C32.5066 26.6515 32.3366 27.5004 32.0074 28.2922C31.6782 29.084 31.1963 29.8031 30.5891 30.4085C29.9819 31.0139 29.2614 31.4937 28.4688 31.8205C27.6762 32.1472 26.8269 32.3145 25.9696 32.3129H-0.121094V25.794Z" fill="#254AA3"/>
<path d="M9.94495 6.43652L10.3505 7.67332H11.6505L10.5953 8.44132L11.0009 9.67732L9.94495 8.90932L8.8898 9.67732L9.29458 8.44132L8.24023 7.67332H9.54657L9.94495 6.43652Z" fill="white"/>
<path d="M22.2329 6.43652L22.6392 7.67332H23.9384L22.8832 8.43412L23.288 9.67732L22.2329 8.90932L21.1777 9.67732L21.5825 8.43412L20.5273 7.67332H21.8273L22.2329 6.43652Z" fill="white"/>
<path d="M26.1176 7.86768L26.5176 9.10448H27.8247L26.7696 9.87248L27.1744 11.1085L26.1176 10.3477L25.0625 11.1085L25.4673 9.87248L24.4121 9.10448H25.7176L26.1176 7.86768Z" fill="white"/>
<path d="M6.05858 7.86768L6.46416 9.10448H7.7641L6.71535 9.87248L7.11533 11.1085L6.05938 10.3477L5.01064 11.1085L5.41062 9.87248L4.35547 9.10448H5.6602L6.05858 7.86768Z" fill="white"/>
<path d="M14.0262 5.71631L14.4262 6.95231H15.7333L14.6781 7.72111L15.0837 8.95711L14.0278 8.18911L12.9726 8.95711L13.3774 7.72111L12.3223 6.95231H13.6214L14.0262 5.71631Z" fill="white"/>
<path d="M18.1508 5.71631L18.5564 6.95231H19.8563L18.8076 7.72111L19.2076 8.95711L18.1524 8.18911L17.1037 8.95711L17.5037 7.72111L16.4453 6.95231H17.7524L18.1508 5.71631Z" fill="white"/>
<path d="M14.9638 10.9078C14.9782 10.9214 14.831 10.9214 14.8174 10.9982C14.8038 11.075 14.671 11.0686 14.671 11.131C14.671 11.1934 14.4886 11.243 14.4886 11.243L14.2438 11.2222C14.2438 11.2222 14.223 11.1422 14.1878 11.1798C14.1541 11.2071 14.1121 11.2221 14.0686 11.2222L13.9087 11.2078C13.9087 11.2078 13.7487 11.2078 13.7687 11.271C13.7887 11.3343 13.8735 11.3759 13.9223 11.4247C13.9418 11.4388 13.9573 11.4579 13.9672 11.4799C13.977 11.502 13.9808 11.5263 13.9783 11.5503C13.9783 11.5991 13.9359 11.6135 13.9359 11.6415C13.9359 11.6695 13.9295 11.7599 14.0271 11.7599H14.2438C14.2868 11.7701 14.3271 11.7892 14.3622 11.8159C14.4046 11.8576 14.391 11.9696 14.391 11.9696C14.391 11.9696 14.2646 11.984 14.335 12.0536C14.4054 12.1232 14.4678 12.2424 14.5166 12.2424C14.564 12.2432 14.6102 12.2573 14.6498 12.2832C14.6895 12.3091 14.7209 12.3458 14.7406 12.3889C14.7481 12.4318 14.7463 12.4759 14.7354 12.5181C14.7245 12.5603 14.7047 12.5997 14.6774 12.6337L14.5582 12.7521C14.551 12.7593 14.3622 12.7449 14.3622 12.7873C14.3768 12.8387 14.3981 12.8879 14.4254 12.9338C14.4254 12.9338 14.5446 12.941 14.5446 12.997C14.5446 13.053 14.4398 13.077 14.4814 13.1226C14.5093 13.1717 14.5262 13.2263 14.531 13.2826C14.4926 13.2862 14.456 13.3006 14.4254 13.3242C14.391 13.3523 14.2366 13.3315 14.2366 13.3939C14.2131 13.4842 14.1779 13.5711 14.1318 13.6523C14.1318 13.6523 13.9431 13.6875 13.9431 13.6523C13.9431 13.6171 13.9575 13.5547 13.8807 13.5547C13.8039 13.5547 13.7207 13.5475 13.7207 13.6243C13.7207 13.7011 13.5735 13.7227 13.5455 13.7995C13.5175 13.8764 13.4135 14.03 13.4135 14.03C13.4135 14.03 13.1895 13.9604 13.1607 13.9604C13.1319 13.9604 13.1263 14.0156 13.0703 14.0716C13.0143 14.1276 12.9167 14.2116 12.9167 14.2116C12.9079 14.2118 12.8993 14.2138 12.8914 14.2175C12.8834 14.2211 12.8763 14.2264 12.8704 14.2329C12.8646 14.2394 12.8601 14.2471 12.8573 14.2554C12.8546 14.2637 12.8535 14.2725 12.8543 14.2812V14.4005C12.8543 14.4629 12.9943 14.4565 12.9943 14.5469C12.9943 14.6373 12.9095 14.6165 12.9943 14.7005C13.0791 14.7845 13.1119 14.7805 13.1471 14.847C13.1823 14.9134 13.2591 14.927 13.2943 14.9942C13.3295 15.0614 13.1959 15.1334 13.1959 15.1542C13.1959 15.175 12.9167 15.1054 12.8671 15.1542C12.8154 15.2027 12.7688 15.2563 12.7279 15.3142C12.7279 15.3287 12.5679 15.2726 12.5247 15.3639C12.4821 15.44 12.4193 15.5029 12.3431 15.5455C12.2751 15.5338 12.2091 15.5126 12.1471 15.4823C12.1199 15.4543 12.036 15.4023 11.98 15.4263C11.9093 15.4507 11.8368 15.4694 11.7632 15.4823C11.7202 15.4969 11.6756 15.5063 11.6304 15.5103C11.5744 15.5103 11.4136 15.4191 11.4136 15.4543C11.376 15.543 11.329 15.6275 11.2736 15.7063C11.2736 15.7063 11.1936 15.7199 11.1616 15.6847C11.1296 15.6495 11.0816 15.5799 11.0568 15.6047C11.032 15.6295 10.924 15.6887 10.9104 15.7031C10.8968 15.7175 10.8824 15.6887 10.8192 15.7519C10.756 15.8151 10.6728 15.8704 10.6728 15.9472C10.6728 16.024 10.5256 16.1072 10.4632 16.1072C10.4008 16.1072 10.26 16.1144 10.3296 16.1872C10.3992 16.26 10.2392 16.32 10.2392 16.3689C10.2392 16.4177 10.268 16.4529 10.204 16.4529C10.14 16.4529 10.0784 16.5089 9.98085 16.4809C9.88326 16.4529 9.74086 16.4249 9.74086 16.4249C9.74086 16.4249 9.72727 16.3969 9.66087 16.3969C9.59447 16.3969 9.43688 16.4601 9.37368 16.3969C9.31049 16.3337 9.33209 16.3128 9.24809 16.2712C9.16409 16.2296 9.1081 16.1312 9.0081 16.2008C8.92758 16.274 8.83201 16.3286 8.72812 16.3609C8.66492 16.3609 8.58092 16.3817 8.58092 16.4409C8.58092 16.5001 8.53213 16.5321 8.46173 16.5529C8.39133 16.5737 8.31534 16.6329 8.35693 16.7201C8.39853 16.8073 8.25934 16.8802 8.27694 16.9442C8.30325 17.0182 8.34654 17.0851 8.40333 17.1394C8.45293 17.1882 8.35453 17.2794 8.49373 17.321C8.63292 17.3627 8.71772 17.321 8.82251 17.3635C8.89758 17.3797 8.96876 17.4104 9.0321 17.4539C9.11168 17.5023 9.19957 17.5354 9.29129 17.5515C9.29129 17.5515 9.45848 17.6843 9.45848 17.7195C9.45848 17.7547 9.47288 17.7403 9.39608 17.8171C9.32397 17.9037 9.26073 17.9972 9.20729 18.0964C9.20729 18.0964 9.17929 18.3132 9.23529 18.3693C9.29129 18.4253 9.26969 18.5645 9.26969 18.5997C9.26969 18.6349 9.15209 18.6797 9.18969 18.7181C9.22729 18.7565 9.26969 18.8446 9.30889 18.8782C9.34808 18.9118 9.26729 18.9206 9.36568 19.0182C9.43334 19.0848 9.51547 19.1349 9.60567 19.1646C9.71962 19.1983 9.82645 19.2525 9.92086 19.3247C9.98249 19.3814 10.0219 19.4583 10.0321 19.5415C10.0592 19.6242 10.1071 19.6986 10.1712 19.7575C10.2 19.7855 10.1368 19.884 10.1712 19.9256C10.2056 19.9672 10.3256 19.9392 10.3256 19.9744C10.3256 20.0096 10.1656 20.0544 10.304 20.128C10.4424 20.2016 10.4232 20.1632 10.48 20.2192C10.5074 20.24 10.5285 20.268 10.5408 20.3001C10.5531 20.3322 10.5561 20.3671 10.5496 20.4009C10.5352 20.4569 10.4304 20.5121 10.4304 20.5545C10.4335 20.6251 10.4578 20.6931 10.5 20.7497C10.5424 20.7921 10.5424 20.7361 10.5984 20.7849C10.6386 20.8722 10.6555 20.9685 10.6472 21.0642C10.6472 21.1346 10.5912 21.1898 10.6472 21.2458C10.7032 21.3018 10.6536 21.4275 10.7032 21.4699C10.7528 21.5123 10.696 21.5675 10.8144 21.5883C10.9007 21.5956 10.9874 21.5956 11.0736 21.5883C11.1432 21.5883 11.1576 21.6163 11.22 21.6163C11.309 21.599 11.3959 21.5722 11.4792 21.5363C11.5768 21.5083 11.6048 21.4107 11.6816 21.5363C11.7584 21.6619 11.6952 21.6899 11.8288 21.7251C11.9624 21.7603 12.0943 21.7251 12.1223 21.7947C12.1503 21.8644 12.1495 21.9548 12.1919 21.9972C12.2343 22.0396 12.2719 21.9348 12.4015 22.018C12.5311 22.1012 12.5207 22.046 12.6183 22.1372C12.7159 22.2284 13.0583 22.5845 13.1287 22.6541C13.1991 22.7237 13.1983 22.7941 13.2823 22.8846C13.3663 22.975 13.4015 22.8846 13.3735 23.0382C13.3455 23.1918 13.2759 23.2134 13.3735 23.3174C13.4711 23.4215 13.4535 23.5487 13.4919 23.5975C13.5303 23.6463 13.6455 23.8904 13.6111 23.9256C13.5767 23.9608 13.5199 23.9672 13.5479 24.0448C13.5759 24.1224 13.5063 24.2048 13.5271 24.2888C13.5479 24.3729 13.5063 24.4289 13.5687 24.4849C13.6311 24.5409 13.6959 24.5649 13.7783 24.6385C13.8607 24.7121 13.9055 24.7185 13.9055 24.8266C13.9055 24.9346 13.7455 25.0082 13.8975 25.2042C14.0494 25.4003 14.1278 25.5115 14.163 25.5467C14.1982 25.5819 14.191 25.6723 14.191 25.6723C14.191 25.6723 14.0934 25.7075 14.1214 25.7355C14.1494 25.7635 14.2014 25.882 14.163 25.9172C14.1074 25.9719 14.0583 26.0328 14.0167 26.0988C14.0167 26.1196 13.9327 26.1684 13.9119 26.1788C13.871 26.2266 13.8263 26.2711 13.7783 26.3116C13.7567 26.3566 13.7461 26.4059 13.7473 26.4557C13.7486 26.5055 13.7617 26.5543 13.7855 26.5981C13.8559 26.7029 13.9183 26.7453 13.9535 26.8149C13.9887 26.8846 13.8975 26.9334 14.0231 26.9334C14.1486 26.9334 14.115 26.9198 14.1982 26.8846C14.2814 26.8494 14.3166 26.7733 14.3582 26.7733C14.4091 26.7807 14.456 26.8053 14.491 26.843C14.5254 26.8782 14.5398 26.9334 14.5814 26.9334C14.6609 26.9379 14.7404 26.9237 14.8134 26.8918C14.931 26.843 14.8262 26.8117 15.043 26.7317C15.2598 26.6517 15.2326 26.6517 15.267 26.5717C15.3014 26.4917 15.347 26.4117 15.427 26.4117C15.507 26.4117 15.4758 26.2436 15.5174 26.2436C15.559 26.2436 15.651 26.2084 15.5662 26.1636C15.4994 26.1204 15.4365 26.0714 15.3782 26.0172C15.3815 25.9466 15.3908 25.8765 15.4062 25.8075C15.427 25.7275 15.3638 25.6955 15.3638 25.6323C15.3638 25.5691 15.315 25.4931 15.315 25.4227V25.213C15.315 25.1858 15.1958 25.1018 15.2798 25.0106C15.3638 24.9194 15.3598 24.8714 15.3598 24.8714C15.3641 24.758 15.3977 24.6478 15.4574 24.5513C15.5374 24.4713 15.451 24.4185 15.5974 24.3697C15.6722 24.3288 15.757 24.3094 15.8422 24.3136C15.9378 24.3027 16.0256 24.2551 16.0869 24.1808C16.1429 24.1184 16.1285 24.1248 16.2333 24.1248C16.3381 24.1248 16.3733 24.16 16.4645 24.1248C16.5065 24.1086 16.5448 24.0842 16.5772 24.053C16.6096 24.0218 16.6355 23.9845 16.6533 23.9432C16.6533 23.9152 16.8133 23.6287 16.9813 23.6567C17.1493 23.6847 17.1005 23.7967 17.2749 23.6783C17.4493 23.5599 17.3029 23.4335 17.5829 23.4335C17.8629 23.4335 17.8557 23.4191 18.0021 23.3287C18.1484 23.2382 18.1068 23.1686 18.2116 23.119C18.3578 23.0459 18.5098 22.9852 18.666 22.9374C18.7148 22.9374 18.7364 23.0174 18.7932 23.0174C18.85 23.0174 18.8732 22.9542 19.0028 23.0382C19.1324 23.1222 19.03 23.171 19.1484 23.283C19.2668 23.3951 19.358 23.3319 19.3796 23.4783C19.3942 23.5835 19.421 23.6866 19.4596 23.7855C19.5084 23.8904 19.3796 23.9672 19.4596 24.0512C19.5197 24.1133 19.5977 24.155 19.6828 24.1704C19.8633 24.1806 20.0444 24.1664 20.2211 24.128C20.2643 24.0864 20.1723 23.912 20.2843 24.0232C20.3963 24.1344 20.4307 24.1216 20.4659 24.0936C20.5011 24.0656 20.3859 23.7855 20.3539 23.7511C20.3407 23.7038 20.3383 23.6542 20.3469 23.6059C20.3555 23.5575 20.3749 23.5117 20.4035 23.4719C20.4511 23.4305 20.483 23.374 20.4939 23.3118C20.4939 23.2838 20.3819 23.0598 20.5779 22.9694C20.7739 22.879 20.7315 22.9278 20.7947 22.8646C20.8579 22.8013 20.8363 22.7389 20.9275 22.6477C21.0187 22.5565 21.0459 22.5221 21.0459 22.5221C21.0459 22.5221 21.1507 22.4317 21.2211 22.4733C21.2915 22.5149 21.2003 22.6197 21.3611 22.6197C21.3917 22.6188 21.4218 22.6114 21.4493 22.5977C21.4768 22.5841 21.501 22.5647 21.5202 22.5408C21.5395 22.5169 21.5533 22.4891 21.5608 22.4594C21.5682 22.4296 21.5692 22.3986 21.5635 22.3685C21.5427 22.2636 21.4659 22.2148 21.5635 22.166C21.6611 22.1172 21.6267 22.0956 21.7107 22.0956C21.7947 22.0956 21.8571 22.0404 21.9131 22.0892C21.9691 22.138 21.9931 22.1796 22.0667 22.1796C22.1402 22.1796 22.0738 22.3397 22.1786 22.3965C22.2834 22.4533 22.4306 22.4869 22.4722 22.4453C22.5138 22.4037 22.5418 22.5253 22.605 22.4173C22.6682 22.3092 22.6194 22.278 22.685 22.2076C22.7005 22.1972 22.7132 22.1832 22.722 22.1667C22.7308 22.1503 22.7354 22.1319 22.7354 22.1132C22.7354 22.0945 22.7308 22.0762 22.722 22.0597C22.7132 22.0432 22.7005 22.0292 22.685 22.0188C22.6476 21.9657 22.628 21.9021 22.629 21.8372C22.629 21.8372 22.549 21.7051 22.5242 21.7259C22.4994 21.7467 22.5042 21.8308 22.4338 21.7675C22.3634 21.7043 22.3074 21.6979 22.3074 21.6347C22.3074 21.5715 22.245 21.5163 22.2658 21.4603C22.2845 21.4112 22.2942 21.3592 22.2946 21.3066L22.3914 21.1106C22.3914 21.1106 22.4618 21.0482 22.4962 21.0826C22.5306 21.117 22.5762 21.237 22.629 21.1386C22.6818 21.0402 22.6778 20.8874 22.7834 20.929C22.889 20.9706 22.8538 21.009 22.9298 21.009C23.0058 21.009 23.0634 21.0442 23.133 20.9746C23.2026 20.905 23.105 20.8698 23.2378 20.7345C23.3706 20.5993 23.4474 20.6297 23.3914 20.5385C23.3354 20.4473 23.2586 20.4129 23.2586 20.3569C23.2586 20.3008 23.1466 20.0368 23.1882 19.9936C23.2298 19.9504 23.3842 19.9872 23.4754 19.896C23.5666 19.8047 23.5314 19.7839 23.6082 19.7143C23.685 19.6447 23.7546 19.5607 23.7682 19.5463C23.7787 19.5134 23.7953 19.4827 23.817 19.4559C23.845 19.4207 23.7466 19.2326 23.817 19.2326C23.8874 19.2326 23.7818 19.1206 23.8514 19.0574C23.9117 19.0065 23.9805 18.9664 24.0546 18.939H24.2081C24.2232 18.8798 24.2469 18.8232 24.2785 18.7709C24.3062 18.6514 24.3062 18.5272 24.2785 18.4077C24.247 18.3665 24.2201 18.322 24.1985 18.2748L24.3521 18.1844L24.4321 18.1044L24.5377 17.9996C24.5577 17.9788 24.4881 17.9084 24.5721 17.9084C24.6561 17.9084 24.7401 17.9572 24.7401 17.8284C24.7462 17.7905 24.742 17.7518 24.7279 17.7161C24.7139 17.6805 24.6904 17.6493 24.6601 17.6259C24.6113 17.5699 24.4857 17.4515 24.4657 17.4235C24.4457 17.3955 24.3457 17.2906 24.3321 17.277C24.3185 17.2634 24.2521 17.2554 24.1993 17.2626C24.1465 17.2698 23.9194 17.2274 23.8986 17.2418C23.8778 17.2562 23.7938 17.277 23.7938 17.3467C23.7966 17.3705 23.7943 17.3948 23.787 17.4177C23.7797 17.4406 23.7675 17.4617 23.7514 17.4795C23.7234 17.5075 23.6714 17.5699 23.6186 17.5699C23.5658 17.5699 23.4722 17.5491 23.4514 17.5003C23.4293 17.4455 23.4106 17.3893 23.3954 17.3323C23.3954 17.3042 23.3738 17.2138 23.297 17.2346C23.2265 17.2584 23.1522 17.269 23.0778 17.2658C23.0778 17.2658 22.9378 17.2378 22.9106 17.1858C22.8958 17.1357 22.8885 17.0837 22.889 17.0314L22.7498 16.8922C22.7431 16.8739 22.7305 16.8585 22.7139 16.8483C22.6974 16.8382 22.6779 16.8339 22.6586 16.8362C22.5786 16.8362 22.4986 16.8642 22.4626 16.8642C22.4141 16.8567 22.3647 16.8567 22.3162 16.8642C22.2458 16.8778 22.1274 16.7841 22.0994 16.7593C22.0715 16.7345 21.8899 16.7241 21.8899 16.7241C21.8899 16.7241 21.7851 16.6545 21.7427 16.6961C21.7003 16.7377 21.5827 16.7593 21.5827 16.7105C21.5842 16.6927 21.5808 16.6749 21.5728 16.6589C21.5648 16.6429 21.5526 16.6295 21.5374 16.6201C21.5223 16.6106 21.5048 16.6056 21.487 16.6054C21.4691 16.6053 21.4516 16.6101 21.4363 16.6193C21.3555 16.653 21.2708 16.6766 21.1843 16.6897C21.1219 16.6897 21.0099 16.6681 21.0099 16.5985C21.0099 16.5289 21.0795 16.4801 21.1219 16.4449C21.1643 16.4097 21.2019 16.4033 21.2019 16.3649C21.2019 16.3264 21.1459 16.3024 21.1747 16.26C21.197 16.2022 21.2063 16.1402 21.2019 16.0784C21.2019 16.0368 21.2579 15.9808 21.2819 15.96C21.3059 15.9392 21.3659 15.9392 21.3659 15.9392C21.3659 15.9392 21.4283 15.8199 21.3659 15.7847C21.3035 15.7495 21.3379 15.6663 21.3515 15.6311C21.3651 15.5959 21.3379 15.5759 21.3875 15.5263C21.4371 15.4767 21.3723 15.4639 21.4675 15.4287C21.5627 15.3935 21.5587 15.3487 21.5307 15.2822C21.4669 15.2109 21.3804 15.164 21.2859 15.1494C21.2435 15.1494 21.1595 15.2054 21.1259 15.2054C21.0766 15.2098 21.0273 15.1974 20.9859 15.1702C20.9507 15.135 20.9059 15.0582 20.8667 15.0798C20.8275 15.1014 20.7339 15.0726 20.7339 15.0374C20.7339 15.0022 20.7171 14.8974 20.6827 14.8974C20.6483 14.8974 20.3251 14.7853 20.2827 14.827C20.2403 14.8686 20.2027 15.023 20.1227 14.939C20.064 14.8774 20.0122 14.8095 19.9684 14.7365L19.8428 14.6109C19.8079 14.5694 19.7808 14.522 19.7628 14.4709C19.7424 14.4305 19.7111 14.3966 19.6724 14.3733C19.6724 14.3733 19.6788 14.31 19.6788 14.282C19.6788 14.254 19.6236 14.1916 19.6444 14.1428C19.6652 14.094 19.6508 14.1004 19.658 14.0028C19.6652 13.9052 19.6236 13.8908 19.6236 13.8284C19.6236 13.7659 19.6092 13.6955 19.6092 13.6251C19.6092 13.5547 19.5292 13.4931 19.5044 13.4715C19.4796 13.4499 19.4068 13.4163 19.3788 13.4371C19.3508 13.4579 19.3084 13.4579 19.2988 13.5275C19.2892 13.5971 19.194 13.6531 19.166 13.6251C19.138 13.5971 19.0676 13.5627 19.0676 13.5275C19.0604 13.4925 19.0463 13.4593 19.026 13.4299C19.026 13.4299 19.054 13.325 18.9772 13.2834C18.9004 13.2418 18.8516 13.241 18.866 13.1714C18.8797 13.1068 18.8797 13.04 18.866 12.9754C18.8516 12.9202 18.7812 12.857 18.7812 12.8153C18.7812 12.7737 18.8164 12.7521 18.8372 12.6961C18.858 12.6401 18.942 12.5985 18.8796 12.5361C18.8337 12.4906 18.7915 12.4417 18.7532 12.3897C18.718 12.3617 18.6068 12.32 18.5788 12.3481C18.5508 12.3761 18.4524 12.292 18.4316 12.2496C18.4108 12.2072 18.3516 12.1312 18.3132 12.1872C18.2748 12.2432 18.2852 12.2992 18.2148 12.3409C18.1492 12.377 18.0816 12.4096 18.0125 12.4385C17.9917 12.4385 17.8869 12.3128 17.8869 12.3128C17.8458 12.2675 17.799 12.2277 17.7477 12.1944C17.6981 12.1728 17.5933 12.1032 17.5717 12.1032C17.5501 12.1032 17.2997 12.1032 17.2581 12.1448C17.2165 12.1864 17.1597 12.236 17.1597 12.236C17.1085 12.2176 17.0592 12.1943 17.0125 12.1664C16.9789 12.1448 16.8525 12.124 16.8525 12.0752C16.8525 12.0264 16.8181 11.9568 16.7725 11.9568C16.7269 11.9568 16.6925 11.8864 16.6181 11.8864C16.5483 11.8735 16.4831 11.8423 16.4293 11.7959C16.4157 11.7751 16.2133 11.7959 16.2133 11.7959C16.2133 11.7959 16.1333 11.7047 16.0797 11.7047C16.0262 11.7047 15.8494 11.7047 15.9198 11.6351C15.9902 11.5655 15.9998 11.5095 16.0461 11.5095C16.0925 11.5095 16.0749 11.4951 16.0949 11.4255C16.1149 11.3559 16.0949 11.279 16.1749 11.279C16.2203 11.2866 16.2669 11.2793 16.3077 11.2582C16.3773 11.2302 16.4677 11.1038 16.4125 11.0486C16.3596 11.0047 16.3034 10.9648 16.2445 10.9294C16.2237 10.9086 16.0909 10.7901 16.0909 10.7341C16.0909 10.6781 15.9654 10.6541 15.9654 10.6077C15.9654 10.5613 15.9022 10.5453 15.8326 10.5661C15.763 10.5869 15.6222 10.5525 15.651 10.6357C15.6798 10.7189 15.7414 10.7621 15.6854 10.7829C15.6294 10.8037 15.539 10.7829 15.5174 10.8037C15.4958 10.8245 15.399 10.6781 15.3286 10.7549C15.2793 10.7997 15.2192 10.8308 15.1542 10.8454C15.1542 10.8454 15.0566 10.7829 15.0422 10.7901C15.0278 10.7973 14.8822 10.8246 14.9622 10.9086" fill="#FFDE36"/>
</g>
</g>
<defs>
<clipPath id="clip0_8918_95414">
<rect width="32" height="32" fill="white"/>
</clipPath>
</defs>
</svg>
