<svg width="24" height="24" viewBox="0 0 24 24" fill="none" xmlns="http://www.w3.org/2000/svg">
<g clip-path="url(#clip0_8918_95340)">
<mask id="mask0_8918_95340" style="mask-type:luminance" maskUnits="userSpaceOnUse" x="0" y="0" width="24" height="24">
<path d="M12 0H11.7324C8.85256 0.059997 7.37303 0.284986 6.0027 0.756562C4.6773 1.21172 3.48428 1.98605 2.52887 3.01125C1.73548 3.93308 1.12776 4.9996 0.739163 6.15209C0.282964 7.59699 0.0404112 9.10081 0.0191988 10.6159C-2.48092e-07 11.2116 0 11.2932 0 11.9958C0 12.6984 -2.48092e-07 12.783 0.0191988 13.3793C0.0404095 14.8942 0.282963 16.3978 0.739163 17.8425C1.12722 18.9952 1.73499 20.0619 2.52887 20.9834C3.48445 22.0093 4.67791 22.7843 6.0039 23.2398C7.37423 23.712 8.85316 23.9376 11.7336 23.997H12.2658C15.1456 23.937 16.6252 23.712 17.9955 23.2398C19.3214 22.7848 20.5149 22.0102 21.4705 20.9846C22.2644 20.0631 22.8722 18.9964 23.2602 17.8437C23.7167 16.3991 23.9593 14.8954 23.9802 13.3805C24 12.7842 24 12.7026 24 11.997C24 11.2914 24 11.2104 23.9802 10.6171C23.9593 9.10199 23.7167 7.59812 23.2602 6.15329C22.8716 5.0008 22.2639 3.93428 21.4705 3.01245C20.5149 1.98695 19.3214 1.21259 17.9955 0.757762C16.6252 0.284986 15.1462 0.059397 12.2658 0H12Z" fill="white"/>
</mask>
<g mask="url(#mask0_8918_95340)">
<path d="M30.7379 -0.519043H-6.92578V24.5711H30.7379V-0.519043Z" fill="white"/>
<path d="M30.7379 16.207H-6.92578V24.5712H30.7379V16.207Z" fill="#23AE49"/>
<path d="M30.7379 -0.519043H-6.92578V7.84334H30.7379V-0.519043Z" fill="#F89C4D"/>
<path d="M11.4695 8.70903C10.8136 8.79573 10.1982 9.07495 9.70098 9.5114C9.20377 9.94785 8.84713 10.5219 8.67615 11.161C8.50517 11.8002 8.52753 12.4756 8.7404 13.102C8.95327 13.7284 9.3471 14.2777 9.87208 14.6803C10.3971 15.0829 11.0296 15.3208 11.6898 15.3639C12.35 15.4071 13.0082 15.2535 13.5811 14.9226C14.154 14.5917 14.6159 14.0984 14.9085 13.505C15.201 12.9116 15.3111 12.2448 15.2247 11.5889C15.1674 11.1532 15.0247 10.733 14.8049 10.3525C14.5851 9.97191 14.2925 9.63838 13.9438 9.37095C13.5951 9.10351 13.197 8.9074 12.7725 8.79382C12.348 8.68025 11.9052 8.65143 11.4695 8.70903ZM12.2879 14.9265C11.7139 15.0021 11.1304 14.9057 10.6113 14.6496C10.0921 14.3935 9.66049 13.9892 9.37112 13.4878C9.08174 12.9864 8.94757 12.4105 8.98557 11.8328C9.02357 11.2551 9.23203 10.7017 9.5846 10.2425C9.93716 9.78336 10.418 9.43907 10.9662 9.25319C11.5145 9.06732 12.1056 9.04822 12.6647 9.19832C13.2238 9.34841 13.7259 9.66095 14.1073 10.0964C14.4888 10.5319 14.7325 11.0707 14.8078 11.6447C14.9082 12.4139 14.6993 13.1916 14.2268 13.807C13.7544 14.4223 13.057 14.8249 12.2879 14.9265Z" fill="#271D70"/>
<path d="M11.8285 11.4449C11.7135 11.4599 11.6055 11.5088 11.5183 11.5852C11.431 11.6617 11.3684 11.7623 11.3383 11.8743C11.3083 11.9864 11.3122 12.1049 11.3495 12.2147C11.3868 12.3245 11.4559 12.4208 11.548 12.4914C11.6401 12.562 11.7511 12.6036 11.8668 12.6111C11.9826 12.6185 12.098 12.5915 12.1984 12.5333C12.2988 12.4752 12.3796 12.3885 12.4307 12.2844C12.4819 12.1802 12.5009 12.0633 12.4855 11.9483C12.4649 11.7945 12.3842 11.6552 12.261 11.5608C12.1379 11.4665 11.9824 11.4248 11.8285 11.4449Z" fill="#271D70"/>
<path d="M11.5234 9.12354L11.8522 10.8526L11.8624 11.6926L11.6536 10.8802L11.5234 9.12354Z" fill="#271D70"/>
<path d="M12.2882 14.9266L11.9594 13.1993L11.9492 12.3594L12.1592 13.1741L12.2882 14.9266Z" fill="#271D70"/>
<path d="M10.7852 9.32031L11.5513 10.9042L11.7775 11.7136L11.3653 10.9804L10.7852 9.32031Z" fill="#271D70"/>
<path d="M13.0268 14.7302L12.2612 13.145L12.0332 12.3345L12.4466 13.0694L13.0268 14.7302Z" fill="#271D70"/>
<path d="M10.123 9.70361L11.2726 11.0349L11.7022 11.7603L11.113 11.1561L10.123 9.70361Z" fill="#271D70"/>
<path d="M13.6891 14.3472L12.5396 13.0153L12.1094 12.2905L12.6991 12.8905L13.6891 14.3472Z" fill="#271D70"/>
<path d="M9.19922 10.9058L10.8617 11.4841L11.5967 11.8975L10.7849 11.6707L9.19922 10.9058Z" fill="#271D70"/>
<path d="M14.6128 13.1451L12.9503 12.5667L12.2129 12.1533L13.0246 12.3813L14.6128 13.1451Z" fill="#271D70"/>
<path d="M9.00195 11.6445L10.7581 11.7723L11.5746 11.9799L10.7347 11.9733L9.00195 11.6445Z" fill="#271D70"/>
<path d="M14.8096 12.4075L13.0529 12.2773L12.2363 12.0679L13.0805 12.0805L14.8096 12.4075Z" fill="#271D70"/>
<path d="M9.19922 13.1453L10.7849 12.3803L11.5967 12.1523L10.8617 12.5657L9.19922 13.1453Z" fill="#271D70"/>
<path d="M14.6128 10.9058L13.0277 11.6707L12.2129 11.9005L12.9473 11.4871L14.6128 10.9058Z" fill="#271D70"/>
<path d="M9.58203 13.8068L10.914 12.6579L11.6399 12.2295L11.04 12.8187L9.58203 13.8068Z" fill="#271D70"/>
<path d="M14.2304 10.2432L12.8966 11.3933L12.1719 11.8217L12.7718 11.2337L14.2304 10.2432Z" fill="#271D70"/>
<path d="M10.7852 14.7302L11.3653 13.0694L11.7775 12.3345L11.5537 13.145L10.7852 14.7302Z" fill="#271D70"/>
<path d="M13.0268 9.32031L12.4472 10.9822L12.0332 11.7154L12.2606 10.906L13.0268 9.32031Z" fill="#271D70"/>
<path d="M11.5234 14.9265L11.6536 13.1722L11.8624 12.3574L11.8522 13.1974L11.5234 14.9265Z" fill="#271D70"/>
<path d="M12.2882 9.12354L12.1592 10.8802L11.9492 11.6962L11.9594 10.8562L12.2882 9.12354Z" fill="#271D70"/>
<path d="M14.8104 11.6445L13.0812 11.9733L12.2383 11.9799L13.0548 11.7723L14.8104 11.6445Z" fill="#271D70"/>
<path d="M9.00195 12.4071L10.7323 12.0801L11.5722 12.0693L10.7557 12.2787L9.00195 12.4071Z" fill="#271D70"/>
<path d="M14.2293 13.8068L12.7738 12.8187L12.1738 12.2295L12.8986 12.6579L14.2293 13.8068Z" fill="#271D70"/>
<path d="M9.58203 10.2432L11.037 11.2337L11.6369 11.8217L10.911 11.3933L9.58203 10.2432Z" fill="#271D70"/>
<path d="M10.123 14.3469L11.113 12.892L11.7022 12.292L11.2726 13.0168L10.123 14.3469Z" fill="#271D70"/>
<path d="M13.6891 9.70361L12.6991 11.1561L12.1094 11.7603L12.5396 11.0349L13.6891 9.70361Z" fill="#271D70"/>
<path d="M11.1098 9.05602C11.0726 9.06669 11.0409 9.09146 11.0217 9.12507C11.0024 9.15868 10.997 9.19848 11.0066 9.23602C11.0117 9.25458 11.0204 9.27196 11.0322 9.28716C11.0439 9.30237 11.0586 9.3151 11.0753 9.32463C11.0921 9.33416 11.1105 9.3403 11.1296 9.3427C11.1487 9.3451 11.168 9.34371 11.1866 9.33861C11.2053 9.33382 11.2229 9.32532 11.2383 9.31361C11.2537 9.3019 11.2666 9.28722 11.2763 9.27043C11.2859 9.25365 11.292 9.23511 11.2944 9.2159C11.2967 9.19669 11.2951 9.17722 11.2898 9.15862C11.2798 9.12086 11.2552 9.08861 11.2215 9.06893C11.1878 9.04925 11.1476 9.04375 11.1098 9.05363" fill="#271D70"/>
<path d="M12.6247 14.7104C12.5966 14.7179 12.5714 14.7335 12.5522 14.7554C12.533 14.7772 12.5207 14.8042 12.5169 14.833C12.5131 14.8618 12.5179 14.8911 12.5307 14.9172C12.5435 14.9433 12.5637 14.965 12.5889 14.9796C12.614 14.9942 12.6429 15.001 12.6719 14.9991C12.7009 14.9973 12.7287 14.9869 12.7518 14.9693C12.7749 14.9516 12.7923 14.9275 12.8017 14.9C12.8111 14.8726 12.8122 14.8429 12.8047 14.8148C12.7946 14.7772 12.77 14.745 12.7362 14.7255C12.7025 14.7059 12.6624 14.7005 12.6247 14.7104Z" fill="#271D70"/>
<path d="M10.3682 9.36311C10.3346 9.38279 10.3101 9.41491 10.3 9.45253C10.2899 9.49014 10.295 9.53022 10.3142 9.56409C10.324 9.58071 10.337 9.59524 10.3524 9.60683C10.3678 9.61842 10.3853 9.62686 10.404 9.63166C10.4227 9.63645 10.4421 9.63751 10.4612 9.63477C10.4803 9.63203 10.4986 9.62555 10.5152 9.61569C10.5319 9.60642 10.5465 9.5939 10.5582 9.57887C10.5699 9.56383 10.5785 9.5466 10.5834 9.52818C10.5884 9.50977 10.5895 9.49055 10.5869 9.47168C10.5842 9.4528 10.5778 9.43465 10.568 9.4183C10.5586 9.40148 10.5459 9.3867 10.5308 9.37481C10.5156 9.36291 10.4982 9.35415 10.4796 9.34901C10.461 9.34388 10.4416 9.34248 10.4225 9.3449C10.4034 9.34732 10.3849 9.35351 10.3682 9.36311Z" fill="#271D70"/>
<path d="M13.2984 14.433C13.2645 14.4526 13.2398 14.4848 13.2296 14.5226C13.2195 14.5604 13.2248 14.6007 13.2444 14.6346C13.265 14.6661 13.2969 14.6885 13.3335 14.6972C13.3702 14.7059 13.4088 14.7002 13.4413 14.6812C13.4739 14.6623 13.4979 14.6316 13.5085 14.5955C13.5191 14.5593 13.5154 14.5205 13.4982 14.487C13.4788 14.4534 13.4469 14.4288 13.4094 14.4186C13.372 14.4085 13.332 14.4137 13.2984 14.433Z" fill="#271D70"/>
<path d="M9.73061 9.85274C9.71695 9.86629 9.70611 9.88241 9.69871 9.90018C9.69131 9.91794 9.6875 9.93699 9.6875 9.95623C9.6875 9.97547 9.69131 9.99453 9.69871 10.0123C9.70611 10.0301 9.71695 10.0462 9.73061 10.0597C9.7441 10.0738 9.76025 10.085 9.77813 10.0927C9.796 10.1004 9.81524 10.1045 9.83471 10.1047C9.85417 10.1049 9.87348 10.1012 9.89151 10.0938C9.90953 10.0865 9.92591 10.0756 9.93967 10.0618C9.95344 10.048 9.96432 10.0317 9.97169 10.0136C9.97905 9.99561 9.98274 9.9763 9.98255 9.95684C9.98235 9.93737 9.97828 9.91813 9.97056 9.90026C9.96284 9.88238 9.95164 9.86623 9.9376 9.85274C9.92421 9.83878 9.90815 9.82768 9.89036 9.82009C9.87257 9.8125 9.85344 9.80859 9.8341 9.80859C9.81477 9.80859 9.79563 9.8125 9.77784 9.82009C9.76006 9.82768 9.74399 9.83878 9.73061 9.85274Z" fill="#271D70"/>
<path d="M13.8729 13.9913C13.8455 14.0188 13.8301 14.056 13.8301 14.0948C13.8301 14.1336 13.8455 14.1709 13.8729 14.1983C13.9007 14.2254 13.938 14.2405 13.9767 14.2405C14.0155 14.2405 14.0527 14.2254 14.0805 14.1983C14.0941 14.1847 14.1049 14.1685 14.1122 14.1507C14.1196 14.1329 14.1233 14.1139 14.1233 14.0946C14.1233 14.0754 14.1195 14.0563 14.1121 14.0385C14.1047 14.0208 14.0939 14.0046 14.0802 13.991C14.0666 13.9774 14.0504 13.9667 14.0326 13.9593C14.0148 13.952 13.9958 13.9482 13.9765 13.9482C13.9573 13.9483 13.9382 13.9521 13.9204 13.9595C13.9027 13.9669 13.8865 13.9777 13.8729 13.9913Z" fill="#271D70"/>
<path d="M9.24195 10.4881C9.22273 10.522 9.21763 10.5621 9.22773 10.5997C9.23784 10.6373 9.26234 10.6694 9.29595 10.6891C9.32105 10.7034 9.34982 10.71 9.37864 10.708C9.40746 10.7059 9.43503 10.6954 9.45789 10.6778C9.48075 10.6601 9.49788 10.6361 9.50711 10.6087C9.51634 10.5813 9.51727 10.5518 9.50977 10.5239C9.50228 10.496 9.48669 10.471 9.46499 10.4519C9.44328 10.4329 9.41642 10.4206 9.38779 10.4168C9.35915 10.413 9.33003 10.4177 9.30408 10.4304C9.27813 10.4431 9.25651 10.4632 9.24195 10.4881Z" fill="#271D70"/>
<path d="M14.3131 13.4154C14.2984 13.4404 14.2915 13.4691 14.2932 13.498C14.2949 13.5269 14.3051 13.5547 14.3226 13.5778C14.3401 13.6008 14.364 13.6182 14.3913 13.6277C14.4187 13.6372 14.4482 13.6384 14.4763 13.6311C14.5043 13.6238 14.5295 13.6084 14.5487 13.5867C14.568 13.5651 14.5804 13.5382 14.5844 13.5096C14.5883 13.4809 14.5837 13.4517 14.5711 13.4256C14.5585 13.3996 14.5384 13.3778 14.5135 13.3632C14.4799 13.3437 14.4401 13.3382 14.4025 13.348C14.365 13.3578 14.3328 13.382 14.3131 13.4154Z" fill="#271D70"/>
<path d="M8.93472 11.2301C8.92462 11.2677 8.92985 11.3077 8.94926 11.3414C8.96867 11.3751 9.00067 11.3997 9.03822 11.4098C9.07577 11.4199 9.1158 11.4147 9.1495 11.3953C9.1832 11.3759 9.20781 11.3439 9.21791 11.3063C9.22291 11.2877 9.22421 11.2683 9.22171 11.2492C9.21922 11.2301 9.21299 11.2117 9.20338 11.195C9.19377 11.1783 9.18096 11.1637 9.1657 11.152C9.15044 11.1402 9.13301 11.1316 9.11442 11.1266C9.09582 11.1216 9.07642 11.1203 9.05733 11.1228C9.03824 11.1253 9.01982 11.1315 9.00314 11.1412C8.98645 11.1508 8.97182 11.1636 8.96008 11.1788C8.94834 11.1941 8.93973 11.2115 8.93472 11.2301Z" fill="#271D70"/>
<path d="M14.5939 12.7456C14.5883 12.7643 14.5866 12.7838 14.5888 12.8032C14.5911 12.8225 14.5973 12.8412 14.607 12.858C14.6167 12.8749 14.6298 12.8896 14.6454 12.9012C14.661 12.9128 14.6788 12.9211 14.6977 12.9256C14.7162 12.931 14.7356 12.9326 14.7548 12.9303C14.7739 12.9281 14.7924 12.922 14.8092 12.9125C14.826 12.903 14.8407 12.8903 14.8524 12.875C14.8642 12.8597 14.8728 12.8423 14.8777 12.8236C14.8826 12.805 14.8838 12.7856 14.8813 12.7666C14.8787 12.7475 14.8724 12.7291 14.8627 12.7125C14.8531 12.6959 14.8402 12.6813 14.8249 12.6697C14.8096 12.658 14.7922 12.6495 14.7736 12.6445C14.755 12.6396 14.7356 12.6384 14.7166 12.641C14.6975 12.6435 14.6791 12.6498 14.6625 12.6595C14.6459 12.6692 14.6313 12.682 14.6196 12.6973C14.608 12.7126 14.5994 12.73 14.5945 12.7486" fill="#271D70"/>
<path d="M8.83009 12.0246C8.82973 12.0537 8.83805 12.0823 8.85398 12.1067C8.86992 12.1311 8.89275 12.1503 8.91957 12.1617C8.9464 12.1731 8.97601 12.1762 9.00464 12.1708C9.03327 12.1653 9.05963 12.1514 9.08037 12.131C9.10111 12.1105 9.11529 12.0843 9.1211 12.0557C9.12692 12.0272 9.12412 11.9975 9.11305 11.9706C9.10198 11.9436 9.08314 11.9205 9.05893 11.9043C9.03472 11.8881 9.00623 11.8794 8.97708 11.8794C8.93841 11.8794 8.90129 11.8946 8.87377 11.9218C8.84626 11.949 8.83056 11.9859 8.83009 12.0246Z" fill="#271D70"/>
<path d="M14.6895 12.0246C14.6892 12.0536 14.6976 12.082 14.7135 12.1062C14.7295 12.1305 14.7523 12.1494 14.779 12.1607C14.8057 12.172 14.8352 12.175 14.8637 12.1695C14.8921 12.164 14.9183 12.1502 14.9389 12.1297C14.9595 12.1093 14.9736 12.0832 14.9793 12.0548C14.9851 12.0264 14.9823 11.9969 14.9712 11.97C14.9602 11.9432 14.9414 11.9203 14.9173 11.9042C14.8932 11.888 14.8649 11.8794 14.8358 11.8794C14.7972 11.8794 14.7602 11.8947 14.7328 11.9218C14.7053 11.949 14.6898 11.986 14.6895 12.0246Z" fill="#271D70"/>
<path d="M8.93457 12.8207C8.94451 12.8582 8.96897 12.8903 9.00256 12.9098C9.03614 12.9294 9.07611 12.9347 9.11366 12.9248C9.15121 12.9148 9.18328 12.8904 9.2028 12.8568C9.22232 12.8232 9.2277 12.7832 9.21776 12.7457C9.20781 12.7081 9.18335 12.6761 9.14977 12.6566C9.11618 12.637 9.07622 12.6317 9.03866 12.6416C9.00111 12.6515 8.96905 12.676 8.94953 12.7096C8.93 12.7432 8.92462 12.7831 8.93457 12.8207Z" fill="#271D70"/>
<path d="M14.5929 11.3064C14.6035 11.3438 14.6282 11.3755 14.6619 11.3948C14.6955 11.4141 14.7354 11.4194 14.7729 11.4096C14.7915 11.4046 14.809 11.396 14.8242 11.3842C14.8395 11.3724 14.8523 11.3578 14.8619 11.3411C14.8715 11.3243 14.8777 11.3059 14.8801 11.2868C14.8826 11.2676 14.8812 11.2482 14.8761 11.2296C14.8711 11.211 14.8625 11.1936 14.8508 11.1783C14.839 11.1631 14.8244 11.1503 14.8077 11.1407C14.791 11.1311 14.7726 11.1248 14.7535 11.1223C14.7344 11.1198 14.715 11.1211 14.6964 11.1261C14.6778 11.1311 14.6604 11.1397 14.6451 11.1515C14.6299 11.1632 14.6171 11.1779 14.6075 11.1945C14.5978 11.2112 14.5916 11.2296 14.5891 11.2487C14.5866 11.2678 14.5879 11.2878 14.5929 11.3064Z" fill="#271D70"/>
<path d="M9.24201 13.5616C9.25628 13.5869 9.27774 13.6074 9.30367 13.6204C9.3296 13.6335 9.35882 13.6385 9.38763 13.6349C9.41643 13.6313 9.44351 13.6192 9.46544 13.6002C9.48736 13.5812 9.50313 13.5561 9.51075 13.5281C9.51836 13.5001 9.51748 13.4704 9.50821 13.4429C9.49894 13.4154 9.4817 13.3913 9.45869 13.3736C9.43567 13.3559 9.40791 13.3454 9.37895 13.3436C9.34998 13.3417 9.32111 13.3485 9.296 13.363C9.27939 13.3725 9.2648 13.3852 9.25309 13.4003C9.24137 13.4154 9.23276 13.4327 9.22774 13.4511C9.22273 13.4696 9.2214 13.4888 9.22385 13.5078C9.2263 13.5268 9.23247 13.5451 9.24201 13.5616Z" fill="#271D70"/>
<path d="M14.3124 10.6343C14.3268 10.6594 14.3484 10.6797 14.3743 10.6926C14.4002 10.7054 14.4294 10.7103 14.4581 10.7066C14.4868 10.7029 14.5138 10.6908 14.5356 10.6717C14.5575 10.6527 14.5731 10.6276 14.5807 10.5996C14.5882 10.5717 14.5873 10.5421 14.5781 10.5147C14.5688 10.4872 14.5516 10.4631 14.5287 10.4455C14.5058 10.4278 14.4781 10.4173 14.4492 10.4154C14.4203 10.4134 14.3915 10.4201 14.3664 10.4345C14.3328 10.4539 14.3082 10.4858 14.298 10.5232C14.2879 10.5607 14.2931 10.6007 14.3124 10.6343Z" fill="#271D70"/>
<path d="M9.73029 14.199C9.74378 14.213 9.75994 14.2242 9.77781 14.232C9.79569 14.2397 9.81492 14.2438 9.83439 14.244C9.85386 14.2441 9.87317 14.2405 9.89119 14.2331C9.90922 14.2257 9.92559 14.2148 9.93936 14.2011C9.95313 14.1873 9.96401 14.1709 9.97137 14.1529C9.97873 14.1349 9.98242 14.1156 9.98223 14.0961C9.98204 14.0766 9.97796 14.0574 9.97024 14.0395C9.96253 14.0217 9.95132 14.0055 9.93728 13.992C9.90965 13.9655 9.87271 13.9508 9.83439 13.9512C9.79607 13.9516 9.75943 13.967 9.73233 13.994C9.70523 14.0211 9.68984 14.0578 9.68946 14.0961C9.68908 14.1344 9.70374 14.1714 9.73029 14.199Z" fill="#271D70"/>
<path d="M13.8727 10.0597C13.9005 10.0867 13.9377 10.1019 13.9765 10.1019C14.0152 10.1019 14.0525 10.0867 14.0803 10.0597C14.1007 10.0392 14.1145 10.0131 14.1201 9.98472C14.1257 9.95634 14.1227 9.92695 14.1116 9.90025C14.1005 9.87354 14.0818 9.85073 14.0577 9.83468C14.0337 9.81863 14.0054 9.81006 13.9765 9.81006C13.9476 9.81006 13.9193 9.81863 13.8952 9.83468C13.8712 9.85073 13.8524 9.87354 13.8413 9.90025C13.8302 9.92695 13.8272 9.95634 13.8328 9.98472C13.8384 10.0131 13.8523 10.0392 13.8727 10.0597Z" fill="#271D70"/>
<path d="M10.3681 14.6864C10.3846 14.6962 10.4029 14.7027 10.4219 14.7053C10.4409 14.708 10.4603 14.7069 10.4788 14.702C10.4974 14.6972 10.5149 14.6887 10.5301 14.6771C10.5454 14.6654 10.5582 14.6509 10.5678 14.6342C10.5873 14.6006 10.5925 14.5606 10.5824 14.5231C10.5724 14.4855 10.5478 14.4536 10.5141 14.4341C10.4805 14.4147 10.4405 14.4095 10.403 14.4196C10.3655 14.4296 10.3335 14.4542 10.3141 14.4878C10.295 14.5214 10.2899 14.5611 10.3 14.5983C10.3102 14.6355 10.3346 14.6672 10.3681 14.6864Z" fill="#271D70"/>
<path d="M13.2968 9.61561C13.3132 9.62568 13.3315 9.63234 13.3505 9.6352C13.3696 9.63805 13.389 9.63704 13.4077 9.63223C13.4263 9.62741 13.4438 9.61889 13.4591 9.60717C13.4744 9.59545 13.4871 9.58077 13.4966 9.56401C13.5074 9.5473 13.5146 9.52858 13.5179 9.50899C13.5212 9.48939 13.5204 9.46933 13.5157 9.45003C13.511 9.43073 13.5024 9.41259 13.4905 9.39672C13.4785 9.38084 13.4634 9.36757 13.4462 9.3577C13.429 9.34784 13.4099 9.34158 13.3901 9.33933C13.3704 9.33707 13.3504 9.33885 13.3314 9.34457C13.3124 9.35029 13.2947 9.35982 13.2795 9.37259C13.2642 9.38535 13.2518 9.40108 13.2428 9.41882C13.233 9.43517 13.2266 9.45334 13.224 9.47224C13.2214 9.49114 13.2226 9.51038 13.2277 9.52877C13.2327 9.54717 13.2415 9.56435 13.2533 9.57928C13.2652 9.59421 13.28 9.60656 13.2968 9.61561Z" fill="#271D70"/>
<path d="M11.1102 14.9948C11.1383 15.0025 11.168 15.0017 11.1956 14.9925C11.2232 14.9832 11.2474 14.966 11.2652 14.943C11.283 14.92 11.2936 14.8922 11.2956 14.8632C11.2976 14.8341 11.2909 14.8052 11.2765 14.7799C11.262 14.7547 11.2404 14.7343 11.2143 14.7214C11.1882 14.7084 11.1589 14.7035 11.1301 14.7073C11.1012 14.711 11.0741 14.7232 11.0522 14.7424C11.0303 14.7615 11.0146 14.7868 11.007 14.8149C10.9969 14.8524 11.0021 14.8924 11.0214 14.9262C11.0408 14.9599 11.0727 14.9846 11.1102 14.9948Z" fill="#271D70"/>
<path d="M12.626 9.33903C12.6539 9.34654 12.6834 9.34561 12.7108 9.33635C12.7382 9.32709 12.7623 9.30992 12.7799 9.28701C12.7976 9.26409 12.8081 9.23646 12.81 9.2076C12.812 9.17874 12.8054 9.14994 12.791 9.12485C12.7766 9.09975 12.7551 9.07948 12.7292 9.0666C12.7033 9.05371 12.6742 9.04879 12.6455 9.05245C12.6168 9.0561 12.5898 9.06818 12.568 9.08715C12.5461 9.10612 12.5304 9.13114 12.5228 9.15904C12.5177 9.17764 12.5163 9.19705 12.5188 9.21618C12.5212 9.2353 12.5274 9.25375 12.537 9.27048C12.5466 9.2872 12.5594 9.30187 12.5746 9.31363C12.5899 9.3254 12.6073 9.33403 12.626 9.33903Z" fill="#271D70"/>
<path d="M11.9068 15.0989C11.9357 15.0988 11.9639 15.0901 11.9879 15.074C12.0119 15.0578 12.0306 15.0349 12.0416 15.0082C12.0526 14.9814 12.0554 14.952 12.0497 14.9236C12.0439 14.8953 12.03 14.8692 12.0095 14.8488C11.989 14.8284 11.9629 14.8145 11.9345 14.8089C11.9061 14.8033 11.8767 14.8063 11.85 14.8174C11.8233 14.8285 11.8005 14.8472 11.7844 14.8713C11.7683 14.8953 11.7598 14.9236 11.7598 14.9525C11.7597 14.9718 11.7634 14.991 11.7708 15.0088C11.7782 15.0266 11.789 15.0428 11.8027 15.0565C11.8164 15.0701 11.8326 15.0808 11.8505 15.0881C11.8683 15.0954 11.8875 15.0991 11.9068 15.0989Z" fill="#271D70"/>
<path d="M11.9068 9.24373C11.9356 9.24349 11.9637 9.23472 11.9875 9.21853C12.0113 9.20234 12.0298 9.17946 12.0407 9.15276C12.0515 9.12607 12.0542 9.09676 12.0484 9.06854C12.0425 9.04033 12.0285 9.01446 12.008 8.99422C11.9875 8.97397 11.9615 8.96025 11.9332 8.95479C11.9049 8.94933 11.8756 8.95237 11.8491 8.96353C11.8225 8.97469 11.7999 8.99347 11.784 9.0175C11.7681 9.04153 11.7596 9.06973 11.7598 9.09854C11.7598 9.11773 11.7637 9.13672 11.7712 9.15442C11.7786 9.17212 11.7894 9.18817 11.8031 9.20166C11.8168 9.21515 11.8329 9.22582 11.8507 9.23303C11.8685 9.24025 11.8876 9.24389 11.9068 9.24373Z" fill="#271D70"/>
</g>
</g>
<defs>
<clipPath id="clip0_8918_95340">
<rect width="24" height="23.997" fill="white"/>
</clipPath>
</defs>
</svg>
