<svg width="24" height="24" viewBox="0 0 24 24" fill="none" xmlns="http://www.w3.org/2000/svg">
<g clip-path="url(#clip0_8918_95331)">
<mask id="mask0_8918_95331" style="mask-type:luminance" maskUnits="userSpaceOnUse" x="0" y="0" width="24" height="24">
<path d="M11.7342 0C8.85404 0.060003 7.37377 0.286214 6.0039 0.757838C4.67777 1.21287 3.484 1.98728 2.52793 3.01275C1.73407 3.93431 1.12643 5.00104 0.738637 6.15391C0.281878 7.59862 0.0392883 9.10247 0.0186004 10.6175C-4.89528e-07 11.2134 0 11.2962 0 12.0006C0 12.705 -4.89528e-07 12.7872 0.0186004 13.3807C0.0393265 14.8961 0.281914 16.4004 0.738637 17.8455C1.12657 18.9981 1.7342 20.0646 2.52793 20.986C3.484 22.0115 4.67777 22.7859 6.0039 23.241C7.37377 23.7126 8.85224 23.9382 11.7342 23.9988H12.2652C15.1454 23.9388 16.6262 23.7126 17.9961 23.241C19.3221 22.7859 20.5156 22.0115 21.4715 20.986C22.2652 20.0646 22.8728 18.9981 23.2608 17.8455C23.7175 16.4004 23.9601 14.8961 23.9808 13.3807C24 12.7848 24 12.7032 24 12.0006C24 11.298 24 11.2134 23.9808 10.6175C23.9601 9.10247 23.7175 7.59862 23.2608 6.15391C22.873 5.00104 22.2653 3.93431 21.4715 3.01275C20.5156 1.98729 19.3221 1.21287 17.9961 0.757838C16.6262 0.286214 15.149 0.060003 12.2652 0H11.7342Z" fill="white"/>
</mask>
<g mask="url(#mask0_8918_95331)">
<path d="M30.3316 0H-6.33203V24.0012H30.3316V0Z" fill="white"/>
<path d="M30.3321 0H21.166V24.0012H30.3321V0Z" fill="#EE312D"/>
<path d="M2.83403 0H-6.33203V24.0012H2.83403V0Z" fill="#EE312D"/>
<path d="M12.3429 19.7469L12.1712 16.4534C12.167 16.3574 12.201 16.2636 12.2658 16.1926C12.3306 16.1217 12.4209 16.0793 12.5169 16.0748C12.543 16.0737 12.5691 16.0753 12.5949 16.0796L15.8752 16.6562L15.433 15.4345C15.4147 15.3862 15.4122 15.3332 15.4258 15.2834C15.4394 15.2335 15.4684 15.1891 15.5086 15.1567L19.1028 12.249L18.2934 11.8709C18.239 11.8452 18.1959 11.8006 18.1719 11.7454C18.148 11.6902 18.1449 11.6282 18.1631 11.5709L18.873 9.38862L16.8035 9.82664C16.7474 9.83839 16.689 9.83041 16.6382 9.80406C16.5874 9.77771 16.5472 9.7346 16.5245 9.68203L16.1236 8.73998L14.5084 10.4717C14.4714 10.5106 14.4229 10.5365 14.37 10.5455C14.3171 10.5545 14.2628 10.5462 14.215 10.5217C14.1673 10.4973 14.1287 10.458 14.1051 10.4099C14.0815 10.3617 14.0742 10.3072 14.0841 10.2545L14.8642 6.23966L13.6155 6.95969C13.5586 6.99277 13.4908 7.002 13.4271 6.98536C13.3634 6.96873 13.3088 6.92758 13.2753 6.87089L13.2681 6.85649L11.9984 4.36816L10.7312 6.85649C10.7017 6.91533 10.6501 6.96007 10.5876 6.98088C10.5252 7.0017 10.457 6.99688 10.3982 6.96749L10.3844 6.96029L9.1351 6.24026L9.91513 10.2551C9.9251 10.3078 9.91774 10.3623 9.89415 10.4105C9.87056 10.4586 9.83201 10.4979 9.78426 10.5223C9.73652 10.5468 9.68214 10.5551 9.62926 10.5461C9.57639 10.5371 9.52785 10.5112 9.49091 10.4723L7.87563 8.74058L7.47481 9.68263C7.45231 9.73523 7.41225 9.77839 7.36148 9.80476C7.31071 9.83113 7.25237 9.83907 7.1964 9.82724L5.1263 9.38922L5.83673 11.5715C5.85476 11.6288 5.85152 11.6907 5.82761 11.7458C5.80369 11.8009 5.7607 11.8456 5.70652 11.8715L4.89648 12.2496L8.48826 15.1567C8.52858 15.1891 8.55769 15.2334 8.57148 15.2832C8.58526 15.3331 8.58302 15.386 8.56507 15.4345L8.12165 16.6562L11.402 16.0796C11.449 16.0714 11.4972 16.0725 11.5437 16.083C11.5903 16.0934 11.6343 16.1129 11.6733 16.1404C11.7124 16.1679 11.7456 16.2028 11.7711 16.2431C11.7966 16.2834 11.8139 16.3284 11.822 16.3754C11.8264 16.4011 11.8278 16.4273 11.8262 16.4534L11.6552 19.7469H12.3429Z" fill="#EE312D"/>
<path d="M12.2549 0.5L13.2627 0.530273C15.1523 0.606399 16.3248 0.779225 17.3379 1.07324L17.834 1.23047C19.0755 1.65782 20.1931 2.38279 21.0898 3.3418H21.0908C21.8422 4.214 22.4177 5.22338 22.7852 6.31445C23.1703 7.53543 23.3977 8.79993 23.4619 10.0771L23.4795 10.627V10.6367C23.499 11.225 23.499 11.3037 23.499 12.0029C23.499 12.7022 23.499 12.778 23.4795 13.3662V13.376C23.462 14.6592 23.2798 15.9344 22.9385 17.1699L22.7852 17.6885C22.4182 18.7789 21.8433 19.7873 21.0928 20.6592C20.1949 21.6188 19.0761 22.3448 17.833 22.7715H17.832C16.5334 23.2184 15.1136 23.4414 12.2549 23.501H11.7441C9.2415 23.4494 7.84198 23.2719 6.66113 22.9287L6.16602 22.7715L5.93359 22.6875C4.78029 22.2517 3.74197 21.5555 2.89941 20.6523C2.15102 19.7814 1.57752 18.7739 1.21094 17.6855C0.771076 16.2898 0.537788 14.8373 0.517578 13.374L0.516602 13.3643C0.497648 12.7784 0.498047 12.7018 0.498047 12.001C0.498047 11.3 0.497833 11.2227 0.518555 10.6348V10.624C0.538827 9.16103 0.773124 7.7089 1.21289 6.31348C1.58047 5.22306 2.15561 4.21385 2.90625 3.3418C3.74747 2.44223 4.78355 1.74924 5.93359 1.31445L6.16602 1.23047C7.30241 0.83935 8.53223 0.619078 10.7373 0.530273L11.7441 0.5H12.2549Z" stroke="#F6F6F6"/>
</g>
</g>
<defs>
<clipPath id="clip0_8918_95331">
<rect width="24" height="23.9988" fill="white"/>
</clipPath>
</defs>
</svg>
