<svg width="24" height="24" viewBox="0 0 24 24" fill="none" xmlns="http://www.w3.org/2000/svg">
<g clip-path="url(#clip0_8918_95362)">
<mask id="mask0_8918_95362" style="mask-type:luminance" maskUnits="userSpaceOnUse" x="0" y="0" width="24" height="24">
<path d="M12 0H11.7342C8.8542 0.06 7.374 0.2856 6.0042 0.7572C4.67816 1.21172 3.48428 1.98545 2.5278 3.0102C1.73414 3.93172 1.12672 4.99841 0.7392 6.1512C0.282186 7.59578 0.0396021 9.09959 0.0192003 10.6146C3.241e-07 11.211 0 11.2926 0 11.9976C0 12.7026 3.241e-07 12.7842 0.0192003 13.3806C0.0396386 14.8958 0.282221 16.3998 0.7392 17.8446C1.12728 18.997 1.73464 20.0634 2.5278 20.985C3.48405 22.0104 4.67795 22.7848 6.0042 23.2398C7.374 23.712 8.853 23.9382 11.7342 23.9976H12.2652C15.1452 23.9376 16.626 23.712 17.9958 23.2398C19.3218 22.7847 20.5155 22.0103 21.4716 20.985C22.265 20.0634 22.8725 18.997 23.2608 17.8446C23.7172 16.3997 23.9597 14.8957 23.9808 13.3806C24 12.7842 24 12.702 24 11.9976C24 11.2932 24 11.211 23.9808 10.6146C23.9598 9.09964 23.7172 7.59591 23.2608 6.1512C22.8731 4.99838 22.2655 3.93168 21.4716 3.0102C20.5155 1.98471 19.3218 1.21016 17.9958 0.7548C16.626 0.2856 15.147 0.0594 12.2652 0H12Z" fill="white"/>
</mask>
<g mask="url(#mask0_8918_95362)">
<path d="M30.4496 16.0967H-6.44922V24.2897H30.4496V16.0967Z" fill="black"/>
<path d="M30.4496 7.90332H-6.44922V16.0963H30.4496V7.90332Z" fill="white"/>
<path d="M30.4496 -0.290039H-6.44922V7.90296H30.4496V-0.290039Z" fill="#CE1126"/>
<path d="M6.61379 11.2744L5.85059 8.92725L5.08739 11.2744H2.61719L4.61579 12.7252L3.85259 15.07L5.85059 13.6192L7.84859 15.07L7.08539 12.7228L9.08339 11.272L6.61379 11.2744Z" fill="#007A3D"/>
<path d="M19.3842 12.7252L21.3822 11.2744H18.9126L18.15 8.92725L17.3868 11.2744H14.916L16.9146 12.7252L16.1508 15.07L18.15 13.6216L20.148 15.0724L19.3842 12.7252Z" fill="#007A3D"/>
</g>
</g>
<defs>
<clipPath id="clip0_8918_95362">
<rect width="24" height="23.9976" fill="white"/>
</clipPath>
</defs>
</svg>
