<svg width="32" height="32" viewBox="0 0 32 32" fill="none" xmlns="http://www.w3.org/2000/svg">
<g clip-path="url(#clip0_8918_95402)">
<mask id="mask0_8918_95402" style="mask-type:luminance" maskUnits="userSpaceOnUse" x="0" y="0" width="32" height="33">
<path d="M15.9972 0H15.6428C11.8025 0.080006 9.82954 0.383229 8.0022 1.01048C6.23436 1.61749 4.64296 2.65003 3.36825 4.0171C2.31112 5.2466 1.50204 6.66915 0.985674 8.20621C0.376958 10.1321 0.053503 12.1367 0.0256016 14.1563C-3.30831e-07 14.9515 0 15.0619 0 16.0012C0 16.9405 -3.30831e-07 17.0517 0.0256016 17.8413C0.0534963 19.8614 0.37695 21.8666 0.985674 23.793C1.50315 25.3299 2.31362 26.752 3.37225 27.9805C4.64498 29.3495 6.23505 30.3843 8.0022 30.9935C9.82954 31.6208 11.8017 31.9232 15.6428 32.0024H16.3524C20.1927 31.9224 22.1657 31.6208 23.993 30.9935C25.7611 30.3862 27.3525 29.3531 28.6269 27.9853C29.6859 26.757 30.4964 25.3349 31.0135 23.7978C31.6219 21.8713 31.9453 19.8662 31.9736 17.8461C32 17.0525 32 16.9421 32 16.006C32 15.0699 32 14.9563 31.9736 14.1611C31.9453 12.1415 31.6218 10.137 31.0135 8.21102C30.4964 6.67345 29.6859 5.2508 28.6269 4.0219C27.3522 2.65483 25.7608 1.62229 23.993 1.01528C22.1657 0.388029 20.1935 0.0856065 16.3524 0.00480039L15.9972 0Z" fill="white"/>
</mask>
<g mask="url(#mask0_8918_95402)">
<path d="M41.8909 -1.24902H-9.89453V33.2504H41.8909V-1.24902Z" fill="white"/>
<path d="M11.0544 12.708C10.6177 13.3636 10.4593 14.1657 10.6141 14.9381C10.7689 15.7104 11.2241 16.3896 11.8797 16.8263C12.5352 17.263 13.3374 17.4214 14.1097 17.2666C14.8821 17.1118 15.5613 16.6566 15.998 16.0011C16.4405 15.3597 17.1174 14.918 17.8826 14.7712C18.6479 14.6243 19.4401 14.7841 20.0887 15.2161C20.7372 15.648 21.1899 16.3175 21.3493 17.0803C21.5087 17.843 21.362 18.6378 20.9407 19.2933C20.0608 20.5886 18.7049 21.484 17.1682 21.7847C15.6314 22.0854 14.038 21.7671 12.7348 20.899C11.4315 20.0309 10.5238 18.6833 10.2091 17.1493C9.8944 15.6153 10.1982 14.0191 11.0544 12.708Z" fill="#00437B"/>
<path d="M21.3845 20.1863C21.8211 19.5309 21.9794 18.7288 21.8247 17.9566C21.6699 17.1845 21.2147 16.5054 20.5593 16.0688C19.9038 15.6322 19.1018 15.4739 18.3296 15.6287C17.5574 15.7834 16.8784 16.2386 16.4418 16.8941C16.0051 17.5496 15.3259 18.0049 14.5535 18.1596C13.7812 18.3144 12.979 18.156 12.3235 17.7193C11.6679 17.2826 11.2127 16.6034 11.0579 15.8311C10.9031 15.0588 11.0615 14.2566 11.4982 13.601C12.3781 12.3057 13.734 11.4103 15.2708 11.1096C16.8075 10.8089 18.4009 11.1272 19.7042 11.9953C21.0074 12.8634 21.9152 14.2111 22.2298 15.745C22.5445 17.279 22.2407 18.8752 21.3845 20.1863Z" fill="#DA1A32"/>
<path d="M24.5074 21.9697L22.9961 24.2323L23.821 24.7811L25.3315 22.5178L24.5074 21.9697Z" fill="#1D1D1B"/>
<path d="M26.2954 19.2929L24.7871 21.5576L25.6115 22.1067L27.1198 19.842L26.2954 19.2929Z" fill="#1D1D1B"/>
<path d="M25.7469 22.791L24.2363 25.0552L25.0603 25.6049L26.5708 23.3407L25.7469 22.791Z" fill="#1D1D1B"/>
<path d="M27.5332 20.1162L26.0234 22.3809L26.8469 22.9298L28.3567 20.6652L27.5332 20.1162Z" fill="#1D1D1B"/>
<path d="M23.276 21.1444L21.7656 23.4087L22.5896 23.9583L24.1 21.6941L23.276 21.1444Z" fill="#1D1D1B"/>
<path d="M25.0611 18.4691L23.5508 20.7334L24.3748 21.283L25.8851 19.0187L25.0611 18.4691Z" fill="#1D1D1B"/>
<path d="M6.93508 18.4705L6.11133 19.0205L9.40808 23.9584L10.2318 23.4084L6.93508 18.4705Z" fill="#1D1D1B"/>
<path d="M4.4686 20.1141L3.64453 20.6621L6.9324 25.6059L7.75647 25.0578L4.4686 20.1141Z" fill="#1D1D1B"/>
<path d="M7.48542 21.9684L6.66211 22.5176L8.17163 24.7805L8.99494 24.2313L7.48542 21.9684Z" fill="#1D1D1B"/>
<path d="M5.70036 19.2921L4.87695 19.8403L6.38483 22.1049L7.20824 21.5566L5.70036 19.2921Z" fill="#1D1D1B"/>
<path d="M23.826 7.21944L23.002 7.76904L26.2965 12.7084L27.1205 12.1588L23.826 7.21944Z" fill="#1D1D1B"/>
<path d="M26.8449 9.07156L26.0215 9.62061L27.5315 11.8852L28.3549 11.3361L26.8449 9.07156Z" fill="#1D1D1B"/>
<path d="M25.0604 6.39561L24.2363 6.94434L25.7442 9.20888L26.5683 8.66015L25.0604 6.39561Z" fill="#1D1D1B"/>
<path d="M24.3748 10.7174L23.5508 11.2671L25.0612 13.5313L25.8852 12.9817L24.3748 10.7174Z" fill="#1D1D1B"/>
<path d="M22.5917 8.04228L21.7676 8.59033L23.2744 10.856L24.0985 10.308L22.5917 8.04228Z" fill="#1D1D1B"/>
<path d="M9.40487 8.04164L6.11328 12.9839L6.93699 13.5325L10.2286 8.59023L9.40487 8.04164Z" fill="#1D1D1B"/>
<path d="M8.17034 7.21909L4.87695 12.1592L5.70108 12.7086L8.99446 7.7685L8.17034 7.21909Z" fill="#1D1D1B"/>
<path d="M6.93416 6.39515L3.64258 11.3374L4.46629 11.886L7.75787 6.94375L6.93416 6.39515Z" fill="#1D1D1B"/>
<path d="M16.3467 0.5L17.6924 0.540039C20.6413 0.658777 22.2977 0.953726 23.8359 1.48242C25.5233 2.0632 27.0423 3.04981 28.2588 4.35547C29.2713 5.53298 30.0464 6.8953 30.542 8.36719C31.1345 10.2445 31.4487 12.1985 31.4756 14.167L31.4766 14.1768C31.5027 14.9638 31.502 15.0713 31.502 16.0049C31.502 16.938 31.5027 17.0412 31.4766 17.8281L31.4756 17.8379C31.4488 19.8067 31.1346 21.761 30.542 23.6387C30.0467 25.1104 29.271 26.472 28.2588 27.6494C27.1175 28.8725 25.7114 29.8158 24.1494 30.4062L23.834 30.5195C22.08 31.1232 20.1686 31.4221 16.3564 31.502H15.6484C11.8347 31.4229 9.92395 31.1232 8.16992 30.5195L7.85547 30.4062C6.29569 29.8169 4.89114 28.876 3.75098 27.6553C2.73577 26.4764 1.95702 25.113 1.45996 23.6387C0.867109 21.7599 0.552564 19.8039 0.525391 17.834V17.8252L0.50293 16.9697C0.499772 16.7289 0.5 16.4687 0.5 16.001C0.5 15.0654 0.499629 14.9612 0.527344 14.1748L0.52832 14.1641C0.555542 12.1956 0.869844 10.2417 1.46191 8.36426C1.89721 7.07301 2.54711 5.86587 3.38379 4.79395L3.75391 4.34375C4.96959 3.0431 6.48596 2.06051 8.16992 1.48242C9.70601 0.953736 11.3636 0.658791 14.3125 0.540039L15.6582 0.5H16.3467Z" stroke="#F6F6F6"/>
</g>
</g>
<defs>
<clipPath id="clip0_8918_95402">
<rect width="32" height="32.0024" fill="white"/>
</clipPath>
</defs>
</svg>
