<svg width="32" height="32" viewBox="0 0 32 32" fill="none" xmlns="http://www.w3.org/2000/svg">
<g clip-path="url(#clip0_8918_95375)">
<mask id="mask0_8918_95375" style="mask-type:luminance" maskUnits="userSpaceOnUse" x="0" y="0" width="33" height="32">
<path d="M16.0008 0H15.6472C11.8072 0.08001 9.8344 0.380047 8.0072 1.00893C6.239 1.61585 4.64738 2.64876 3.3728 4.0165C2.3145 5.24525 1.50411 6.66734 0.986401 8.20423C0.376993 10.1308 0.0535473 12.1364 0.0264 14.157C-5.96046e-09 14.9515 0 15.0619 0 16.0012C0 16.9405 -5.96046e-09 17.0509 0.0264 17.8414C0.053423 19.8622 0.376871 21.8681 0.986401 23.795C1.50384 25.332 2.31425 26.7541 3.3728 27.9827C4.64694 29.3506 6.23835 30.3835 8.0064 30.9903C9.8336 31.6192 11.8048 31.9208 15.6464 32H16.356C20.196 31.92 22.1688 31.6192 23.996 30.9903C25.7641 30.3835 27.3555 29.3506 28.6296 27.9827C29.6882 26.7541 30.4986 25.332 31.016 23.795C31.6248 21.8679 31.9482 19.8622 31.976 17.8414C32.0024 17.0477 32.0024 16.9381 32.0024 16.0012C32.0024 15.0643 32.0024 14.9515 31.976 14.157C31.9481 12.1365 31.6246 10.131 31.016 8.20423C30.4983 6.66734 29.6879 5.24525 28.6296 4.0165C27.3552 2.64887 25.7639 1.61597 23.996 1.00893C22.1688 0.380047 20.1968 0.0784098 16.356 0H16.0008Z" fill="white"/>
</mask>
<g mask="url(#mask0_8918_95375)">
<path d="M40.8937 -0.543945H-8.67188V32.4794H40.8937V-0.543945Z" fill="#003399"/>
<path d="M16.11 3.17188L16.534 4.47347H17.9036L16.7948 5.27907L17.2188 6.57988L16.11 5.77667L15.0012 6.57667L15.4252 5.27588L14.3164 4.47347H15.686L16.11 3.17188Z" fill="#FFCC00"/>
<path d="M16.11 25.3535L16.534 26.6591H17.9036L16.7948 27.4591L17.2188 28.7607L16.11 27.9567L15.0012 28.7607L15.4252 27.4591L14.3164 26.6591H15.686L16.11 25.3535Z" fill="#FFCC00"/>
<path d="M21.6588 4.65674L22.082 5.95834H23.4524L22.3436 6.76394L22.7676 8.06634L21.6588 7.26234L20.5508 8.06634L20.974 6.76394L19.8652 5.95914H21.2348L21.6588 4.65674Z" fill="#FFCC00"/>
<path d="M27.2096 14.2627L27.6328 15.5643H29.0032L27.8944 16.3691L28.3184 17.6723L27.2096 16.8667L26.1008 17.6723L26.5248 16.3691L25.416 15.5643H26.7864L27.2096 14.2627Z" fill="#FFCC00"/>
<path d="M25.7213 19.8081L26.1445 21.1105H27.5149L26.4069 21.9153L26.8301 23.2169L25.7213 22.4121L24.6133 23.2185L25.0365 21.9169L23.9277 21.1105H25.2981L25.7213 19.8081Z" fill="#FFCC00"/>
<path d="M21.6588 23.8677L22.082 25.1693H23.4524L22.3436 25.9741L22.7676 27.2765L21.6588 26.4717L20.5508 27.2765L20.974 25.9741L19.8652 25.1693H21.2348L21.6588 23.8677Z" fill="#FFCC00"/>
<path d="M10.5612 23.8677L10.9852 25.1693H12.3548L11.2476 25.9741L11.67 27.2765L10.562 26.4717L9.45318 27.2765L9.87718 25.9741L8.76758 25.1693H10.138L10.5612 23.8677Z" fill="#FFCC00"/>
<path d="M6.49948 19.8081L6.92268 21.1105H8.29308L7.18508 21.9153L7.60748 23.2169L6.49948 22.4121L5.39068 23.2185L5.81468 21.9169L4.70508 21.1121H6.07628L6.49948 19.8081Z" fill="#FFCC00"/>
<path d="M5.0135 14.2627L5.4367 15.5643H6.8071L5.6991 16.3691L6.1215 17.6723L5.0135 16.8667L3.9047 17.6723L4.3287 16.3691L3.2207 15.5643H4.5903L5.0135 14.2627Z" fill="#FFCC00"/>
<path d="M6.49948 8.71631L6.92268 10.0187H8.29308L7.18508 10.8243L7.60748 12.1251L6.49948 11.3211L5.39068 12.1251L5.81468 10.8243L4.70508 10.0171H6.07628L6.49948 8.71631Z" fill="#FFCC00"/>
<path d="M10.5612 4.65674L10.9852 5.95834H12.3548L11.2476 6.76394L11.67 8.06634L10.5612 7.26234L9.45238 8.06634L9.87638 6.76394L8.76758 5.95914H10.138L10.5612 4.65674Z" fill="#FFCC00"/>
<path d="M25.7213 8.71631L26.1445 10.0187H27.5149L26.4069 10.8243L26.8301 12.1251L25.7213 11.3211L24.6133 12.1251L25.0365 10.8243L23.9277 10.0171H25.2981L25.7213 8.71631Z" fill="#FFCC00"/>
</g>
</g>
<defs>
<clipPath id="clip0_8918_95375">
<rect width="32.0024" height="32" fill="white"/>
</clipPath>
</defs>
</svg>
