<svg width="24" height="24" viewBox="0 0 24 24" fill="none" xmlns="http://www.w3.org/2000/svg">
<g clip-path="url(#clip0_8918_95357)">
<mask id="mask0_8918_95357" style="mask-type:luminance" maskUnits="userSpaceOnUse" x="0" y="0" width="24" height="24">
<path d="M11.9976 0H11.7324C8.8524 0.06 7.3728 0.2862 6.0024 0.7566C4.67746 1.21249 3.48473 1.98676 2.529 3.0114C1.73506 3.93282 1.12743 4.99953 0.7398 6.1524C0.282988 7.59702 0.0404091 9.10081 0.0198 10.6158C-4.47035e-09 11.211 0 11.2938 0 11.9988C0 12.7038 -4.47035e-09 12.7854 0.0198 13.3788C0.0404024 14.894 0.282981 16.398 0.7398 17.8428C1.12687 18.9968 1.73454 20.0646 2.529 20.9868C3.48481 22.0123 4.6783 22.7869 6.0042 23.2422C7.3746 23.7132 8.853 23.94 11.7342 24H12.2658C15.1458 23.94 16.626 23.7132 17.9958 23.2422C19.3219 22.7871 20.5157 22.0125 21.4716 20.9868C22.2653 20.0655 22.8727 18.999 23.2602 17.8464C23.7173 16.4016 23.9599 14.8976 23.9802 13.3824C24 12.7866 24 12.705 24 12.0024C24 11.2998 24 11.2146 23.9802 10.6194C23.9599 9.10438 23.7173 7.60055 23.2602 6.156C22.8724 5.00186 22.2644 3.93392 21.4698 3.0114C20.5136 1.98592 19.32 1.2112 17.994 0.7554C16.6242 0.2862 15.1452 0.06 12.264 0H11.9976Z" fill="white"/>
</mask>
<g mask="url(#mask0_8918_95357)">
<path d="M-0.171875 19.2943V-0.168457H7.94312V24.1687H-0.171875V19.2943Z" fill="#F67E0B"/>
<path d="M24.1667 4.70594V19.2943C24.1675 19.9345 24.042 20.5685 23.7975 21.1601C23.553 21.7517 23.1942 22.2892 22.7416 22.742C22.2891 23.1947 21.7517 23.5538 21.1602 23.7986C20.5688 24.0434 19.9348 24.1692 19.2947 24.1687H16.0547V-0.168456H19.2947C19.9348 -0.16893 20.5688 -0.0431554 21.1602 0.201668C21.7517 0.446491 22.2891 0.805556 22.7416 1.25831C23.1942 1.71107 23.553 2.24862 23.7975 2.84021C24.042 3.4318 24.1675 4.06581 24.1667 4.70594Z" fill="#009D60"/>
<path d="M16.0525 -0.163086H7.9375V24.1627H16.0525V-0.163086Z" fill="white"/>
</g>
</g>
<defs>
<clipPath id="clip0_8918_95357">
<rect width="24" height="24" fill="white"/>
</clipPath>
</defs>
</svg>
