<svg width="40" height="40" viewBox="0 0 40 40" fill="none" xmlns="http://www.w3.org/2000/svg">
<g clip-path="url(#clip0_591_6204)">
<path d="M0 20C0 21.175 0 21.312 0.032 22.305C0.0669118 24.8303 0.471195 27.3368 1.232 29.745C1.87817 31.6663 2.89125 33.4439 4.215 34.979C5.80749 36.6889 7.7968 37.9799 10.007 38.738C12.29 39.524 14.756 39.902 19.557 40H20.444C25.244 39.9 27.712 39.524 29.994 38.738C32.2048 37.98 34.1948 36.6889 35.788 34.979C37.1104 33.4431 38.123 31.6657 38.77 29.745C39.5303 27.3367 39.9346 24.8302 39.97 22.305C40 21.312 40 21.175 40 20C40 18.825 40 18.689 39.97 17.7C39.9346 15.1748 39.5303 12.6683 38.77 10.26C38.1228 8.33908 37.1102 6.56145 35.788 5.025C34.1947 3.31539 32.2047 2.02468 29.994 1.267C27.712 0.476 25.246 0.1 20.444 0H19.557C14.757 0.1 12.29 0.476 10.007 1.263C7.79687 2.02071 5.80754 3.31144 4.215 5.021C2.89145 6.55665 1.8784 8.3345 1.232 10.256C0.471195 12.6642 0.0669118 15.1707 0.032 17.696C0 18.689 0 18.826 0 20Z" fill="#01448B"/>
<path d="M13.0397 21.1576C12.7924 20.2517 12.8692 19.2879 13.2568 18.4325C13.6444 17.5772 14.3185 16.884 15.1627 16.4726C19.0477 14.5326 23.0107 12.7476 26.9627 10.8906C27.2133 11.8135 27.129 12.7953 26.7248 13.662C26.3207 14.5287 25.6227 15.2244 24.7547 15.6256C20.9117 17.5336 16.9967 19.2996 13.0447 21.1576" fill="white"/>
<path d="M13.9577 25.2639C13.7451 24.5405 13.7713 23.7677 14.0325 23.0604C14.2937 22.353 14.776 21.7486 15.4077 21.3369C16.5107 20.6922 17.6499 20.1116 18.8197 19.5979C20.2477 18.9119 21.6917 18.2559 23.1287 17.5859C23.3603 18.3527 23.3208 19.1758 23.0169 19.9168C22.7129 20.6579 22.163 21.2717 21.4597 21.6549C18.9897 22.9129 16.4677 24.0649 13.9597 25.2669" fill="white"/>
<path d="M14.8355 29.1084C14.3555 26.0514 16.6295 25.0624 19.7845 23.8984C19.9127 24.4427 19.8825 25.0123 19.6975 25.5399C19.5125 26.0676 19.1805 26.5313 18.7405 26.8764C17.5525 27.7074 16.2205 28.3304 14.8405 29.1084" fill="white"/>
</g>
<defs>
<clipPath id="clip0_591_6204">
<rect width="40" height="40" fill="white"/>
</clipPath>
</defs>
</svg>
