<svg width="40" height="40" viewBox="0 0 40 40" fill="none" xmlns="http://www.w3.org/2000/svg">
<g clip-path="url(#clip0_8925_96988)">
<path d="M0 20C0 21.1776 0 21.3084 0.0280636 22.3084C0.1029 24.5234 0.336763 27.0654 1.22544 29.7476C1.8522 31.6449 3.03087 33.6916 4.20954 34.9813C5.70629 36.6261 7.77361 37.9718 10.0094 38.7382C12.2919 39.5232 14.7615 39.9064 19.5603 40H20.449C25.2573 39.8971 27.7175 39.5232 30 38.7382C32.2358 37.9718 34.2938 36.6261 35.7904 34.9813C36.9693 33.6823 38.1479 31.6449 38.7746 29.7476C39.6632 27.0654 39.9064 24.514 39.9718 22.3084C40 21.3178 40 21.1776 40 20C40 18.8224 40 18.6916 39.9718 17.6916C39.8971 15.4766 39.6632 12.9346 38.7746 10.2523C38.1479 8.35514 36.9693 6.30839 35.7904 5.01868C34.2938 3.37383 32.2264 2.02804 30 1.26168C27.7175 0.476636 25.2479 0.0934579 20.449 0H19.5603C14.7521 0.102804 12.2919 0.476636 10.0094 1.26168C7.77361 2.02804 5.71561 3.37383 4.20954 5.01868C3.03087 6.31775 1.8522 8.35514 1.22544 10.2523C0.346118 12.9346 0.1029 15.4766 0.0280636 17.6916C0 18.6823 0 18.8224 0 20Z" fill="#5A280B"/>
<path d="M19.0155 23.0248C19.2225 23.0248 19.5881 23.21 20.0879 23.7858C22.3651 26.45 25.044 28.736 28.0261 30.5597C28.3782 30.7654 28.5724 30.9187 28.5724 31.1201C28.5724 31.2604 28.5527 31.4173 28.2466 31.4173C26.7309 31.232 25.2399 30.8798 23.8003 30.367C22.9822 29.9605 21.2196 28.4414 19.1196 24.5963C18.8726 24.2518 18.7052 23.8558 18.6297 23.4374C18.6233 23.3351 18.6573 23.2345 18.7244 23.1575C18.7914 23.0805 18.886 23.0334 18.9873 23.0265C18.9966 23.0245 19.0061 23.024 19.0155 23.0248Z" fill="#488AC9"/>
<path d="M25.8986 11.127C25.8986 11.127 26.4344 12.2483 21.2148 13.0285C21.7837 11.3185 22.1579 10.1936 22.1579 10.1936C22.2767 9.91632 22.2858 9.60375 22.1833 9.31997C22.0808 9.03622 21.8745 8.80279 21.6067 8.66768C21.4814 8.60947 21.3459 8.57668 21.208 8.57129C20.9392 8.59993 20.685 8.70947 20.4787 8.88575C20.2724 9.06204 20.1234 9.2969 20.0512 9.55972L18.4999 13.3281C17.0948 13.4402 15.683 13.4402 14.2779 13.3281C13.3335 13.2287 13.0904 13.7835 13.0904 14.3512C13.0904 15.3396 14.7341 16.3441 15.785 16.2348C16.4446 16.1687 16.8329 16.1385 17.3681 16.081L11.5985 30.0693C11.3793 30.592 11.2029 31.4284 12.1907 31.4284C13.1786 31.4284 15.4096 30.4659 15.782 29.3558C15.9388 28.8875 17.0883 25.4316 18.3676 21.5823C19.5618 21.3445 20.768 21.1733 21.9809 21.0695C22.5933 21.0695 22.9044 21.3624 22.9044 21.7102C22.9044 22.5133 21.0837 24.8269 17.5519 27.6754C17.163 27.988 17.4857 28.2358 17.6835 28.2358C19.1965 27.5214 20.6052 26.601 21.87 25.5003C23.1892 24.4408 25.506 21.6799 25.506 19.7395C25.506 18.9741 25.1869 18.2735 23.7379 18.2735C22.2623 18.3315 20.7906 18.4657 19.3285 18.6756C19.6715 17.6427 20.0095 16.6283 20.3262 15.6806C23.0557 15.2797 24.6799 15.019 25.6457 14.8059C26.9648 14.5075 28.0206 13.7032 28.0206 12.8735C28.0298 11.106 25.8986 11.127 25.8986 11.127Z" fill="white"/>
</g>
<defs>
<clipPath id="clip0_8925_96988">
<rect width="40" height="40" fill="white"/>
</clipPath>
</defs>
</svg>
