<svg width="40" height="40" viewBox="0 0 40 40" fill="none" xmlns="http://www.w3.org/2000/svg">
<g clip-path="url(#clip0_8925_96981)">
<path d="M0 20C0 21.1776 0 21.3084 0.028057 22.3084C0.102876 24.5234 0.336685 27.0654 1.22516 29.7476C1.85176 31.6449 3.03016 33.6916 4.20857 34.9813C5.70493 36.6261 7.77179 37.9718 10.007 38.7382C12.289 39.5232 14.758 39.9064 19.5557 40H20.4443C25.2514 39.8971 27.711 39.5232 29.993 38.7382C32.2282 37.9718 34.2857 36.6261 35.7914 34.9813C36.97 33.6823 38.1389 31.6449 38.775 29.7476C39.6632 27.0654 39.9064 24.514 39.9718 22.3084C40 21.3178 40 21.1776 40 20C40 18.8224 40 18.6916 39.9718 17.6916C39.8971 15.4766 39.6632 12.9346 38.775 10.2523C38.1389 8.35514 36.97 6.30839 35.7914 5.01868C34.2951 3.37383 32.2282 2.02804 29.993 1.26168C27.711 0.476636 25.242 0.0934579 20.4443 0H19.5557C14.758 0.102804 12.289 0.476636 10.007 1.26168C7.77179 2.02804 5.71429 3.37383 4.20857 5.01868C3.03016 6.31775 1.85176 8.35514 1.22516 10.2523C0.346037 12.9346 0.102876 15.4766 0.028057 17.6916C0 18.6823 0 18.8224 0 20Z" fill="#0480CC"/>
<path d="M9.28516 20.2897C9.28516 20.127 9.41673 19.9846 9.57869 19.9846L15.156 19.9541C15.3179 19.9541 15.4597 20.0863 15.4597 20.249C15.4597 20.2897 15.4597 20.3304 15.4394 20.3609L12.6963 27.2155C12.6558 27.3172 12.5445 27.3986 12.423 27.3986C12.342 27.3986 12.2712 27.3579 12.2104 27.3172C12.2104 27.3172 12.2003 27.3172 12.2003 27.307C10.4796 25.4663 9.38637 23.0153 9.28516 20.2999V20.2897Z" fill="white"/>
<path d="M15.1863 29.2294L18.4962 20.9714C18.4962 20.9714 18.4962 20.9714 18.4962 20.9612C18.729 20.3612 19.3161 19.9238 20.0044 19.9238C20.6522 19.9238 21.2089 20.29 21.4721 20.8391L24.9541 29.1786C24.9541 29.1786 24.9744 29.2599 24.9744 29.3006C24.9744 29.4125 24.9136 29.504 24.8327 29.565C24.8327 29.565 24.8327 29.565 24.8225 29.565C23.4054 30.2871 21.7859 30.6939 20.0854 30.7143C18.3747 30.7244 16.7653 30.338 15.328 29.6362C15.2369 29.5854 15.166 29.4837 15.166 29.3718C15.166 29.3311 15.166 29.3006 15.1863 29.2599" fill="white"/>
<path d="M24.5812 20.2999C24.5812 20.2999 24.5609 20.2185 24.5508 20.1778C24.5508 20.0151 24.6824 19.8727 24.8444 19.8727L30.4216 19.832C30.5836 19.832 30.7152 19.9642 30.7152 20.127C30.6646 22.8424 29.6017 25.3137 27.9012 27.185C27.8405 27.2358 27.7696 27.2765 27.6887 27.2765C27.5672 27.2765 27.4559 27.2053 27.4154 27.0935L24.5812 20.2795V20.2999Z" fill="white"/>
<path d="M29.8545 16.7611L23.3257 16.812H23.2953C23.184 16.812 23.0828 16.7306 23.0423 16.6289L22.5159 15.3678C21.7973 13.5067 21.4531 11.727 21.4531 10.0896V9.59124C21.4531 9.42853 21.5746 9.28613 21.7467 9.28613H21.7872H21.7973C25.6741 9.94717 28.8524 12.7033 30.1177 16.3645C30.1177 16.3645 30.1278 16.4255 30.1278 16.4662C30.1278 16.6289 29.9962 16.7611 29.8343 16.7611" fill="white"/>
<path d="M17.413 15.3975L16.9069 16.6688C16.8664 16.7603 16.7854 16.8315 16.6943 16.8518H16.6639H16.6336L10.0947 16.9027C9.92259 16.9027 9.79102 16.7705 9.79102 16.5976C9.79102 16.5671 9.79102 16.5366 9.81127 16.5061C11.0259 12.8347 14.1638 10.0176 18.0406 9.30566C18.0406 9.30566 18.0709 9.30566 18.0811 9.30566C18.243 9.30566 18.3847 9.43788 18.3847 9.60059V10.1091C18.4151 11.7465 18.1013 13.5262 17.4029 15.3975" fill="white"/>
</g>
<defs>
<clipPath id="clip0_8925_96981">
<rect width="40" height="40" fill="white"/>
</clipPath>
</defs>
</svg>
