<svg width="40" height="40" viewBox="0 0 40 40" fill="none" xmlns="http://www.w3.org/2000/svg">
<g clip-path="url(#clip0_8925_96992)">
<mask id="mask0_8925_96992" style="mask-type:luminance" maskUnits="userSpaceOnUse" x="0" y="0" width="40" height="40">
<path d="M40 0H0V40H40V0Z" fill="white"/>
</mask>
<g mask="url(#mask0_8925_96992)">
<path d="M0 20.001C0 21.1786 0 21.3094 0.028057 22.3094C0.102876 24.5243 0.336684 27.0664 1.22516 29.7486C1.85176 31.6458 3.03016 33.6925 4.20855 34.9823C5.70493 36.627 7.7718 37.973 10.007 38.7393C12.289 39.5244 14.758 39.9074 19.5557 40.001H20.4442C25.2513 39.8981 27.711 39.5244 29.9929 38.7393C32.2282 37.973 34.2857 36.627 35.7915 34.9823C36.9697 33.6832 38.1481 31.6458 38.7747 29.7486C39.6631 27.0664 39.9064 24.515 39.9718 22.3094C40 21.3187 40 21.1786 40 20.001C40 18.8234 40 18.6925 39.9718 17.6926C39.8971 15.4776 39.6631 12.9356 38.7747 10.2533C38.1481 8.3561 36.9697 6.30937 35.7915 5.01967C34.295 3.37481 32.2282 2.02901 29.9929 1.26266C27.711 0.477612 25.242 0.0944344 20.4442 0.000976562H19.5557C14.7486 0.10378 12.289 0.477612 10.007 1.26266C7.7718 2.02901 5.71429 3.37481 4.20855 5.01967C3.03016 6.31873 1.85176 8.3561 1.22516 10.2533C0.346036 12.9356 0.102876 15.4776 0.028057 17.6926C0 18.6832 0 18.8234 0 20.001Z" fill="#E3333F"/>
<path d="M31.7527 23.3119L29.4244 20.5088H29.4058L28.7793 21.957C28.7793 21.957 28.7793 21.9758 28.7793 21.9851L29.7985 23.2745C29.8733 23.3679 29.9481 23.396 30.0696 23.396" fill="white"/>
<path d="M30.0976 16.6123C29.1158 16.6123 28.5922 16.9113 28.293 17.5373L26.4417 21.798C26.3295 22.0503 26.1705 22.1718 25.8433 22.1718V16.6777C25.8433 16.6777 25.8152 16.6123 25.7685 16.6123H24.4127C24.4127 16.6123 24.3379 16.6403 24.3379 16.6777V23.265C24.3379 23.3304 24.394 23.3864 24.4688 23.3864H25.9929C26.9746 23.3864 27.4235 23.0874 27.7226 22.4614L29.5459 18.2568C29.6955 17.9578 29.9012 17.827 30.3314 17.827" fill="white"/>
<path d="M13.7253 20.0045C14.2676 19.7895 14.7257 19.313 14.7257 18.5188C14.7257 17.3322 13.6411 16.6221 12.3508 16.6221H8.33024C8.33024 16.6221 8.25545 16.6501 8.25545 16.6875V17.762C8.25545 17.762 8.28349 17.8274 8.33024 17.8274H12.0703C12.6687 17.8274 13.0801 18.1731 13.0801 18.6029C13.0801 19.0327 12.6687 19.3784 12.0703 19.3784H9.84495V18.5749C9.84495 18.5749 9.81692 18.5095 9.77017 18.5095H8.32088C8.32088 18.5095 8.24609 18.5375 8.24609 18.5749V23.3214C8.24609 23.3214 8.27413 23.3868 8.32088 23.3868H12.2853C13.7627 23.3868 14.8286 22.7421 14.8286 21.4153C14.8286 20.7613 14.4172 20.2287 13.7253 20.0045ZM12.1451 22.2095H9.84495V20.6211H12.1451C12.7622 20.6211 13.183 20.9762 13.183 21.4153C13.183 21.8545 12.7622 22.2095 12.1451 22.2095Z" fill="white"/>
<path d="M17.3813 18.5088H16.0162C16.0162 18.5088 15.9414 18.5368 15.9414 18.5742V23.3208C15.9414 23.3208 15.9694 23.3862 16.0162 23.3862H17.3813C17.3813 23.3862 17.4561 23.3581 17.4561 23.3208V18.5742C17.4561 18.5742 17.4281 18.5088 17.3813 18.5088Z" fill="white"/>
<path d="M22.9727 16.6119H21.6169C21.6169 16.6119 21.5422 16.6399 21.5422 16.6773V22.1713C21.2243 22.1713 21.0653 22.0499 20.9531 21.7976L19.1018 17.5369C18.8025 16.9109 18.2789 16.6119 17.2972 16.6119H16.0162C16.0162 16.6119 15.9414 16.6399 15.9414 16.6773V17.7518C15.9414 17.7518 15.9694 17.8172 16.0162 17.8172H17.0541C17.4842 17.8172 17.6992 17.948 17.8395 18.247L19.6628 22.4516C19.962 23.0777 20.4108 23.3766 21.3925 23.3766H22.9166C22.9821 23.3766 23.0382 23.3206 23.0382 23.2552V16.6679C23.0382 16.6679 23.0101 16.6025 22.9634 16.6025" fill="white"/>
</g>
</g>
<defs>
<clipPath id="clip0_8925_96992">
<rect width="40" height="40" fill="white"/>
</clipPath>
</defs>
</svg>
