<svg width="40" height="40" viewBox="0 0 40 40" fill="none" xmlns="http://www.w3.org/2000/svg">
<g clip-path="url(#clip0_591_6172)">
<path d="M0 20C0 21.175 0 21.312 0.032 22.306C0.0673215 24.8306 0.471598 27.3364 1.232 29.744C1.87914 31.6654 2.89249 33.4432 4.216 34.979C5.80845 36.688 7.79689 37.9789 10.006 38.738C12.291 39.523 14.756 39.9 19.558 40H20.444C25.244 39.9 27.711 39.523 29.994 38.738C32.2038 37.9792 34.193 36.6882 35.786 34.979C37.1088 33.4427 38.1221 31.665 38.77 29.744C39.5305 27.3364 39.9348 24.8306 39.97 22.306C40 21.312 40 21.175 40 20C40 18.825 40 18.689 39.967 17.695C39.9317 15.1704 39.5274 12.6646 38.767 10.257C38.1188 8.33607 37.1056 6.55849 35.783 5.022C34.1908 3.31182 32.2014 2.0207 29.991 1.263C27.71 0.478 25.244 0.1 20.443 0H19.557C14.757 0.1 12.29 0.478 10.005 1.263C7.79534 2.02099 5.80665 3.31209 4.215 5.022C2.89165 6.55796 1.87833 8.3357 1.231 10.257C0.47071 12.6646 0.0664359 15.1704 0.031 17.695C0 18.689 0 18.826 0 20Z" fill="#1E2670"/>
<path d="M17.9854 20.0008V11.7578L13.8604 15.8788L9.73535 20.0008L13.8604 24.1238L17.9854 28.2448V20.0008Z" fill="white"/>
<path d="M20 9.74219V19.9992L25.134 14.8682L20 9.74219Z" fill="white"/>
<path d="M20 20V25.128H25.134L20 20Z" fill="white"/>
<path d="M20 30.2598L25.134 25.1328H20V30.2598Z" fill="white"/>
<path d="M26.5567 16.2969L22.8477 20.0029L26.5557 23.7029L30.2657 20.0029L26.5567 16.2969Z" fill="white"/>
</g>
<defs>
<clipPath id="clip0_591_6172">
<rect width="40" height="40" fill="white"/>
</clipPath>
</defs>
</svg>
