<svg width="40" height="40" viewBox="0 0 40 40" fill="none" xmlns="http://www.w3.org/2000/svg">
<g clip-path="url(#clip0_8925_96984)">
<path d="M0 20C0 21.1776 0 21.3084 0.0280636 22.3084C0.1029 24.5234 0.336763 27.0654 1.22544 29.7476C1.8522 31.6449 3.03087 33.6916 4.20954 34.9813C5.70629 36.6261 7.77361 37.9718 10.0094 38.7382C12.2919 39.5232 14.7615 39.9064 19.5603 40H20.449C25.2573 39.8971 27.7175 39.5232 30 38.7382C32.2358 37.9718 34.2938 36.6261 35.7904 34.9813C36.9693 33.6823 38.1479 31.6449 38.7746 29.7476C39.6632 27.0654 39.9064 24.514 39.9718 22.3084C40 21.3178 40 21.1776 40 20C40 18.8224 40 18.6916 39.9718 17.6916C39.8971 15.4766 39.6632 12.9346 38.7746 10.2523C38.1479 8.35514 36.9693 6.30839 35.7904 5.01868C34.2938 3.37383 32.2264 2.02804 30 1.26168C27.7175 0.476636 25.2479 0.0934579 20.449 0H19.5603C14.7521 0.102804 12.2919 0.476636 10.0094 1.26168C7.77361 2.02804 5.71561 3.37383 4.20954 5.01868C3.03087 6.31775 1.8522 8.35514 1.22544 10.2523C0.346118 12.9346 0.1029 15.4766 0.0280636 17.6916C0 18.6823 0 18.8224 0 20Z" fill="#003D76"/>
<path d="M9.64258 15.0107V32.6788H14.7339V25.6932L19.4888 32.6788H25.5901L18.8994 22.8495H14.7339V15.0107H9.64258Z" fill="white"/>
<mask id="mask0_8925_96984" style="mask-type:luminance" maskUnits="userSpaceOnUse" x="9" y="7" width="22" height="26">
<path d="M30.3569 7.67871H9.64258V32.6787H30.3569V7.67871Z" fill="white"/>
</mask>
<g mask="url(#mask0_8925_96984)">
<path d="M27.2437 24.2637L30.3571 7.67871L14.1284 13.0256C16.2214 13.576 18.2321 14.3998 20.1079 15.4756L13.5723 22.8868L17.4144 26.1787L23.9501 18.7681C25.2897 20.4452 26.3975 22.2935 27.2437 24.2637Z" fill="#E4007F"/>
</g>
</g>
<defs>
<clipPath id="clip0_8925_96984">
<rect width="40" height="40" fill="white"/>
</clipPath>
</defs>
</svg>
