<svg width="40" height="40" viewBox="0 0 40 40" fill="none" xmlns="http://www.w3.org/2000/svg">
<g clip-path="url(#clip0_8925_96972)">
<path d="M0 20C0 21.1776 0 21.3084 0.0280636 22.3084C0.1029 24.5234 0.336763 27.0654 1.22544 29.7476C1.8522 31.6449 3.03087 33.6916 4.20954 34.9813C5.70629 36.6261 7.77361 37.9718 10.0094 38.7382C12.2919 39.5232 14.7615 39.9064 19.5603 40H20.449C25.2573 39.8971 27.7175 39.5232 30 38.7382C32.2358 37.9718 34.2938 36.6261 35.7904 34.9813C36.9693 33.6823 38.1479 31.6449 38.7746 29.7476C39.6632 27.0654 39.9064 24.514 39.9718 22.3084C40 21.3178 40 21.1776 40 20C40 18.8224 40 18.6916 39.9718 17.6916C39.8971 15.4766 39.6632 12.9346 38.7746 10.2523C38.1479 8.35514 36.9693 6.30839 35.7904 5.01868C34.2938 3.37383 32.2264 2.02804 30 1.26168C27.7175 0.476636 25.2479 0.0934579 20.449 0H19.5603C14.7521 0.102804 12.2919 0.476636 10.0094 1.26168C7.77361 2.02804 5.71561 3.37383 4.20954 5.01868C3.03087 6.31775 1.8522 8.35514 1.22544 10.2523C0.346118 12.9346 0.1029 15.4766 0.0280636 17.6916C0 18.6823 0 18.8224 0 20Z" fill="#E82118"/>
<mask id="mask0_8925_96972" style="mask-type:luminance" maskUnits="userSpaceOnUse" x="4" y="15" width="32" height="9">
<path d="M35.3569 15H4.64258V23.873H35.3569V15Z" fill="white"/>
</mask>
<g mask="url(#mask0_8925_96972)">
<path d="M11.2386 17.8899C10.9011 17.8675 10.5636 17.9346 10.2603 18.0843C9.95704 18.2341 9.69858 18.4612 9.51119 18.7428C9.34533 18.46 9.10286 18.2298 8.81176 18.0789C8.52069 17.928 8.19286 17.8625 7.86611 17.8899C7.55579 17.8845 7.24869 17.9532 6.97026 18.0902C6.69179 18.2273 6.45008 18.4288 6.26508 18.678V18.0551H4.64258V23.4915H6.34447V20.3682C6.33804 20.2512 6.35486 20.134 6.3939 20.0234C6.43297 19.9128 6.49351 19.8111 6.57201 19.724C6.65054 19.637 6.74547 19.5663 6.8514 19.516C6.95736 19.4658 7.07222 19.437 7.18933 19.4313C7.21365 19.43 7.23801 19.43 7.26233 19.4313C7.48383 19.4153 7.70265 19.4875 7.87111 19.6322C8.03961 19.7769 8.14401 19.9823 8.16165 20.2037C8.16429 20.2526 8.16297 20.3016 8.15761 20.3503V23.5008H9.83797V20.3619C9.83308 20.2449 9.85136 20.1281 9.89169 20.0182C9.93197 19.9082 9.99351 19.8073 10.0728 19.7212C10.1521 19.6351 10.2477 19.5655 10.354 19.5163C10.4603 19.4672 10.5751 19.4394 10.6921 19.4347C10.717 19.4347 10.7426 19.4347 10.7681 19.4347C10.8896 19.4255 11.0117 19.4432 11.1256 19.4866C11.2395 19.5301 11.3423 19.5981 11.4268 19.6859C11.5114 19.7737 11.5755 19.8791 11.6146 19.9946C11.6536 20.11 11.6667 20.2327 11.6529 20.3537V23.5043H13.298V19.9823C13.3211 19.7311 13.2943 19.4777 13.2191 19.2368C13.1439 18.996 13.0217 18.7724 12.8597 18.579C12.6977 18.3856 12.4989 18.2261 12.275 18.1098C12.0511 17.9936 11.8064 17.9227 11.5549 17.9015C11.4499 17.8892 11.3442 17.8853 11.2386 17.8899Z" fill="white"/>
<path d="M21.7118 18.787V18.0499H20.0645V23.4864H21.7663V21.1106C21.7663 20.0282 22.3828 19.6347 23.0655 19.6347C23.244 19.6333 23.4222 19.6516 23.5968 19.6892V18.047C23.4505 18.0094 23.3 17.9911 23.1489 17.9925C22.8596 17.9808 22.5726 18.0486 22.3192 18.1887C22.0658 18.3288 21.8557 18.5357 21.7118 18.787Z" fill="white"/>
<path d="M25.8863 18.0537H24.1855V23.4902H25.8863V18.0537Z" fill="white"/>
<path d="M28.9645 16.4639H27.4417V17.1633C27.4526 17.2686 27.4426 17.3751 27.4122 17.4766C27.3817 17.5781 27.3316 17.6725 27.2645 17.7545C27.1975 17.8366 27.1149 17.9045 27.0215 17.9545C26.9281 18.0045 26.8257 18.0355 26.7203 18.0458C26.6735 18.0497 26.6264 18.0497 26.5795 18.0458H26.3008V19.5008H27.2859V21.8308C27.2734 22.0495 27.3042 22.2684 27.3767 22.4751C27.4491 22.6818 27.5617 22.8722 27.7079 23.0353C27.854 23.1983 28.031 23.3309 28.2285 23.4254C28.4261 23.52 28.6404 23.5745 28.8591 23.586C28.9556 23.5929 29.0526 23.5911 29.1488 23.5808C29.4514 23.5953 29.7535 23.5431 30.0336 23.4278V22.0493C29.8866 22.0829 29.7365 22.1012 29.5857 22.1037C29.2166 22.1037 28.9692 21.9832 28.9692 21.5353V19.5014H30.0557V18.0516H28.9645V16.4639Z" fill="white"/>
<path d="M25.0246 15C24.7331 15.0016 24.4542 15.1187 24.2489 15.3257C24.0437 15.5326 23.9289 15.8125 23.9297 16.104C23.9305 16.3955 24.0468 16.6747 24.2532 16.8805C24.4596 17.0864 24.7392 17.2019 25.0307 17.2019C25.3222 17.2019 25.6017 17.0864 25.808 16.8805C26.0144 16.6747 26.1308 16.3955 26.1316 16.104C26.1324 15.8125 26.0176 15.5326 25.8124 15.3257C25.6071 15.1187 25.3282 15.0016 25.0368 15H25.0246Z" fill="white"/>
<path d="M16.6609 17.8549C15.894 17.8804 15.168 18.2072 14.6404 18.7644C14.1127 19.3216 13.8261 20.0643 13.8425 20.8315C13.8589 21.5987 14.177 22.3284 14.7279 22.8626C15.2789 23.3968 16.0181 23.6922 16.7855 23.6849C17.2968 23.7188 17.8066 23.599 18.2493 23.3409C18.692 23.0827 19.0473 22.698 19.2696 22.2362L17.8627 21.7147C17.7576 21.8969 17.6026 22.0452 17.4159 22.142C17.2292 22.2389 17.0187 22.2802 16.8092 22.2612C16.5006 22.2814 16.1959 22.1826 15.9579 21.985C15.7199 21.7875 15.5666 21.5062 15.5298 21.199H19.4464C19.4714 21.0263 19.483 20.852 19.4812 20.6775C19.5132 20.338 19.4777 19.9954 19.3767 19.6697C19.2759 19.3439 19.1115 19.0413 18.8931 18.7793C18.6748 18.5174 18.4068 18.3012 18.1045 18.1432C17.8023 17.9853 17.4717 17.8887 17.132 17.859C16.9754 17.844 16.8177 17.8427 16.6609 17.8549ZM15.5599 20.1113C15.5942 19.8434 15.7292 19.5985 15.9374 19.4263C16.1456 19.2542 16.4115 19.1676 16.6812 19.1842C16.9439 19.1497 17.2095 19.2204 17.4203 19.381C17.6311 19.5415 17.7699 19.7788 17.8065 20.0412C17.8065 20.0644 17.8117 20.0893 17.8129 20.1137L15.5599 20.1113Z" fill="white"/>
<path d="M32.7709 22.0344L35.3124 19.4199V18.0518H30.7567V19.5068H33.1098L30.6895 22.0228V23.4882H35.357V22.0332L32.7709 22.0344Z" fill="white"/>
</g>
</g>
<defs>
<clipPath id="clip0_8925_96972">
<rect width="40" height="40" fill="white"/>
</clipPath>
</defs>
</svg>
