<svg width="40" height="40" viewBox="0 0 40 40" fill="none" xmlns="http://www.w3.org/2000/svg">
<g clip-path="url(#clip0_8925_96993)">
<path d="M0 20C0 21.175 0 21.312 0.032 22.305C0.0669118 24.8303 0.471195 27.3368 1.232 29.745C1.87817 31.6663 2.89125 33.4439 4.215 34.979C5.80749 36.6889 7.7968 37.9799 10.007 38.738C12.29 39.524 14.756 39.902 19.557 40H20.444C25.244 39.9 27.712 39.524 29.994 38.738C32.2048 37.98 34.1948 36.6889 35.788 34.979C37.1104 33.4431 38.123 31.6657 38.77 29.745C39.5303 27.3367 39.9346 24.8302 39.97 22.305C40 21.312 40 21.175 40 20C40 18.825 40 18.689 39.97 17.7C39.9346 15.1748 39.5303 12.6683 38.77 10.26C38.1228 8.33908 37.1102 6.56145 35.788 5.025C34.1947 3.31539 32.2047 2.02468 29.994 1.267C27.712 0.476 25.246 0.1 20.444 0H19.557C14.757 0.1 12.29 0.476 10.007 1.263C7.79687 2.02071 5.80754 3.31144 4.215 5.021C2.89145 6.55665 1.8784 8.3345 1.232 10.256C0.471195 12.6642 0.0669118 15.1707 0.032 17.696C0 18.689 0 18.826 0 20Z" fill="#01448B"/>
<path d="M13.0407 21.1566C12.7934 20.2507 12.8702 19.2869 13.2578 18.4315C13.6454 17.5762 14.3195 16.883 15.1637 16.4716C19.0487 14.5316 23.0117 12.7466 26.9637 10.8896C27.2142 11.8125 27.13 12.7943 26.7258 13.661C26.3217 14.5277 25.6237 15.2234 24.7557 15.6246C20.9127 17.5326 16.9977 19.2986 13.0457 21.1566" fill="white"/>
<path d="M13.9587 25.2659C13.7461 24.5424 13.7723 23.7697 14.0335 23.0623C14.2947 22.3549 14.7769 21.7506 15.4087 21.3389C16.5117 20.6942 17.6509 20.1135 18.8207 19.5999C20.2487 18.9139 21.6927 18.2579 23.1297 17.5879C23.3613 18.3546 23.3218 19.1778 23.0178 19.9188C22.7139 20.6599 22.164 21.2736 21.4607 21.6569C18.9907 22.9149 16.4687 24.0669 13.9607 25.2689" fill="white"/>
<path d="M14.8355 29.1094C14.3555 26.0524 16.6295 25.0634 19.7845 23.8994C19.9127 24.4437 19.8825 25.0132 19.6975 25.5409C19.5125 26.0686 19.1805 26.5323 18.7405 26.8774C17.5525 27.7084 16.2205 28.3314 14.8405 29.1094" fill="white"/>
<path d="M0 20C0 21.175 0 21.3107 0.0321429 22.3036C0.103571 24.5143 0.342857 27.0643 1.23214 29.7429C1.86071 31.6429 3.03571 33.6821 4.21429 34.9786C5.71429 36.6215 7.775 37.9679 10.0071 38.7358C12.2893 39.5215 14.7571 39.9 19.5571 40H20.4429C25.2429 39.9 27.7107 39.5215 29.9929 38.7358C32.225 37.9679 34.2857 36.6215 35.7857 34.9786C36.9679 33.6821 38.1393 31.6429 38.7679 29.7429C39.6571 27.0607 39.8964 24.5143 39.9679 22.3036C40 21.3107 40 21.175 40 20C40 18.825 40 18.6893 39.9679 17.6964C39.8964 15.4857 39.6571 12.9393 38.7679 10.2571C38.1393 8.35715 36.9679 6.31786 35.7857 5.02143C34.2857 3.37857 32.225 2.03214 29.9929 1.26071C27.7107 0.474999 25.2429 0.0964286 20.4429 0H19.5571C14.7571 0.1 12.2893 0.474999 10.0071 1.26071C7.775 2.02857 5.71429 3.375 4.21429 5.02143C3.03571 6.31429 1.86071 8.35715 1.23214 10.2571C0.342857 12.9357 0.103571 15.4857 0.0321429 17.6964C0 18.6893 0 18.825 0 20Z" fill="#0367B3"/>
<path d="M20.1778 31.0538C26.2411 31.0538 31.1564 26.1385 31.1564 20.0753C31.1564 14.0119 26.2411 9.09668 20.1778 9.09668C14.1145 9.09668 9.19922 14.0119 9.19922 20.0753C9.19922 26.1385 14.1145 31.0538 20.1778 31.0538Z" fill="#0098D5"/>
<path d="M20.1742 12.7291C25.1635 12.7291 29.4242 15.8005 31.0635 20.1076C31.0635 20.0576 31.0671 20.0076 31.0671 19.9576C31.0671 13.9434 26.1706 9.06836 20.1314 9.06836C14.0921 9.06836 9.19922 13.9469 9.19922 19.9576C9.19922 20.0862 9.20279 20.2112 9.20993 20.3362C10.7814 15.9076 15.0992 12.7255 20.1778 12.7255L20.1742 12.7291Z" fill="#0083CA"/>
<path d="M20.182 12.8178C25.182 12.8178 29.4463 15.8999 31.0642 20.2107C31.0642 20.1749 31.0642 20.1428 31.0642 20.1071C29.4249 15.7964 25.1642 12.7285 20.1749 12.7285C15.1856 12.7285 10.782 15.9107 9.20703 20.3392C9.20703 20.3749 9.20703 20.4142 9.20703 20.4535C10.757 16.0214 15.0856 12.8214 20.1749 12.8214L20.182 12.8178Z" fill="#0083CA"/>
<path d="M20.1684 12.9213C25.197 12.9213 29.472 16.032 31.0613 20.3606C31.0613 20.3106 31.0613 20.2606 31.0648 20.2141C29.447 15.907 25.1827 12.8213 20.1827 12.8213C15.1827 12.8213 10.7648 16.0213 9.21484 20.4534C9.21484 20.4927 9.21484 20.5284 9.21841 20.5677C10.7434 16.1356 15.0648 12.9249 20.1684 12.9249V12.9213Z" fill="#0085CB"/>
<path d="M20.1687 12.9209C15.0652 12.9209 10.7437 16.1352 9.21875 20.5638C9.21875 20.5959 9.22589 20.6316 9.22589 20.6638C10.733 16.2388 15.0616 13.0173 20.1723 13.0173C25.283 13.0173 29.4937 16.1459 31.058 20.4745C31.058 20.4388 31.058 20.3995 31.058 20.3602C29.4723 16.0316 25.1937 12.9209 20.1652 12.9209H20.1687Z" fill="#0086CC"/>
<path d="M20.171 13.0182C15.0603 13.0182 10.7282 16.2396 9.22461 20.6646C9.22461 20.7004 9.23175 20.7361 9.23175 20.7718C10.7139 16.3468 15.0496 13.1146 20.171 13.1146C25.2925 13.1146 29.5068 16.2575 31.0496 20.5861C31.0496 20.5468 31.0532 20.5111 31.0568 20.4718C29.4925 16.1432 25.2103 13.0146 20.171 13.0146V13.0182Z" fill="#0088CC"/>
<path d="M20.1717 13.2071C25.2288 13.2071 29.5217 16.3643 31.0431 20.6928C31.0431 20.6571 31.0503 20.6214 31.0503 20.5857C29.511 16.2535 25.2217 13.1143 20.1717 13.1143C15.1217 13.1143 10.7146 16.3464 9.23242 20.7714C9.23242 20.8035 9.23599 20.8357 9.23956 20.8678C10.7039 16.45 15.0467 13.2071 20.1717 13.2071Z" fill="#0089CD"/>
<path d="M20.1704 13.207C15.0454 13.207 10.7026 16.4499 9.23828 20.8677C9.23828 20.9035 9.24185 20.9392 9.24542 20.9749C10.6847 16.5606 15.0311 13.3035 20.1633 13.3035C25.2954 13.3035 29.5347 16.4785 31.0276 20.8106C31.0276 20.7713 31.0347 20.732 31.0383 20.6927C29.5204 16.3642 25.2276 13.207 20.1669 13.207H20.1704Z" fill="#008BCE"/>
<path d="M20.1679 13.4066C25.2464 13.4066 29.55 16.5888 31.025 20.9138C31.025 20.8816 31.0286 20.8459 31.0321 20.8138C29.5393 16.4816 25.2357 13.3066 20.1679 13.3066C15.1 13.3066 10.6893 16.5638 9.25 20.9781C9.25 21.0138 9.25357 21.0459 9.25714 21.0816C10.675 16.6709 15.0214 13.4066 20.1679 13.4066Z" fill="#008DCF"/>
<path d="M20.1685 13.4072C15.0221 13.4072 10.6757 16.6715 9.25781 21.0822C9.25781 21.1144 9.26495 21.1429 9.26853 21.1751C10.665 16.7751 15.015 13.5072 20.1614 13.5072C25.3078 13.5072 29.5685 16.7072 31.015 21.0358C31.0185 20.9965 31.0221 20.9572 31.0221 20.9179C29.5471 16.5929 25.2435 13.4108 20.165 13.4108L20.1685 13.4072Z" fill="#008ED0"/>
<path d="M20.1679 13.6039C25.2643 13.6039 29.5786 16.8075 31.0072 21.1253C31.0072 21.0932 31.0143 21.061 31.0179 21.0325C29.5715 16.7039 25.2572 13.5039 20.1643 13.5039C15.0715 13.5039 10.6679 16.7753 9.27148 21.1718C9.27506 21.2075 9.27863 21.2396 9.28577 21.2718C10.6608 16.8789 15.0143 13.6003 20.1715 13.6003L20.1679 13.6039Z" fill="#0090D0"/>
<path d="M20.167 13.6035C15.0098 13.6035 10.6562 16.8821 9.28125 21.2749C9.28482 21.3035 9.28839 21.3357 9.29196 21.3642C10.6491 16.9821 15.0027 13.6964 20.1634 13.6964C25.3241 13.6964 29.592 16.9178 30.992 21.2321C30.9955 21.1964 31.0027 21.1607 31.0062 21.1249C29.5777 16.8071 25.2634 13.6035 20.167 13.6035Z" fill="#0092D1"/>
<path d="M20.1573 13.7888C25.2751 13.7888 29.6001 17.0174 30.9787 21.3281C30.9823 21.296 30.9858 21.2602 30.993 21.2281C29.5894 16.9102 25.2715 13.6924 20.1644 13.6924C15.0573 13.6924 10.6501 16.9817 9.29297 21.3602C9.29654 21.3924 9.30011 21.4245 9.30725 21.4567C10.6394 17.0817 14.993 13.7852 20.1608 13.7852L20.1573 13.7888Z" fill="#0093D2"/>
<path d="M20.1563 13.7891C14.9884 13.7891 10.6349 17.0855 9.30273 21.4605C9.30631 21.4891 9.30988 21.5212 9.31345 21.5498C10.6277 17.1855 14.9813 13.8855 20.1563 13.8855C25.3313 13.8855 29.6063 17.1283 30.9634 21.4319C30.967 21.3998 30.9706 21.3641 30.9777 21.3319C29.5992 17.0212 25.2742 13.7926 20.1563 13.7926V13.7891Z" fill="#0095D3"/>
<path d="M20.1648 13.9822C25.2934 13.9822 29.6184 17.2286 30.9576 21.5215C30.9612 21.4929 30.9648 21.4607 30.9684 21.4322C29.6112 17.1286 25.2862 13.8857 20.1612 13.8857C15.0362 13.8857 10.6326 17.1893 9.31836 21.55C9.32193 21.5822 9.32907 21.6143 9.33265 21.6465C10.6255 17.2929 14.9862 13.9822 20.1648 13.9822Z" fill="#0097D4"/>
<path d="M20.1642 13.9824C14.9856 13.9824 10.6249 17.2967 9.33203 21.6467C9.3356 21.6717 9.34275 21.7003 9.34632 21.7253C10.6213 17.3896 14.9785 14.0824 20.1535 14.0824C25.3285 14.0824 29.6285 17.3467 30.9392 21.6396C30.9463 21.6003 30.9499 21.561 30.957 21.5217C29.6177 17.2289 25.2927 13.9824 20.1642 13.9824Z" fill="#0098D5"/>
<path d="M20.1528 14.1785C25.2993 14.1785 29.6314 17.4427 30.9243 21.7177C30.9278 21.6927 30.935 21.6642 30.9386 21.6392C29.6314 17.3463 25.2957 14.082 20.1528 14.082C15.01 14.082 10.6171 17.3892 9.3457 21.7249C9.34927 21.7499 9.35642 21.7785 9.35999 21.8035C10.6171 17.4856 14.9743 14.1749 20.1564 14.1749L20.1528 14.1785Z" fill="#009AD5"/>
<path d="M20.1539 14.1787C14.9717 14.1787 10.6181 17.4859 9.35742 21.8073C9.36099 21.8359 9.36814 21.868 9.37171 21.8966C10.6074 17.593 14.9681 14.2787 20.1503 14.2787C25.3324 14.2787 29.6324 17.5501 30.9039 21.8109C30.9074 21.7823 30.9146 21.7501 30.9181 21.7216C29.6253 17.4465 25.2931 14.1822 20.1467 14.1822L20.1539 14.1787Z" fill="#009CD6"/>
<path d="M20.1503 14.3718C25.3039 14.3718 29.6432 17.6504 30.8932 21.904C30.9003 21.8718 30.9039 21.8397 30.911 21.8075C29.6396 17.5468 25.3039 14.2754 20.1575 14.2754C15.011 14.2754 10.6146 17.5897 9.37891 21.8932C9.38248 21.9218 9.38962 21.9468 9.39319 21.9754C10.611 17.6861 14.9682 14.3682 20.1539 14.3682L20.1503 14.3718Z" fill="#009ED7"/>
<path d="M20.1494 14.3711C14.9637 14.3711 10.6065 17.689 9.38867 21.9782C9.39581 22.0104 9.39939 22.0389 9.40653 22.0711C10.5994 17.7925 14.9565 14.464 20.1494 14.464C25.3422 14.464 29.6494 17.7497 30.878 21.989C30.8815 21.9604 30.8887 21.9318 30.8922 21.9032C29.6422 17.6497 25.303 14.3711 20.1494 14.3711Z" fill="#00A0D8"/>
<path d="M20.1455 14.5603C25.317 14.5603 29.6562 17.8567 30.8598 22.0817C30.867 22.0496 30.8705 22.0174 30.8777 21.9889C29.6527 17.7496 25.3134 14.4639 20.1491 14.4639C14.9848 14.4639 10.5991 17.7924 9.40625 22.071C9.41339 22.0996 9.41696 22.1282 9.42054 22.1532C10.5955 17.8924 14.9455 14.5603 20.1455 14.5603Z" fill="#00A1D9"/>
<path d="M20.1469 14.5605C14.9469 14.5605 10.5969 17.8927 9.42188 22.1534C9.42902 22.182 9.43616 22.207 9.43973 22.2355C10.5933 17.9927 14.9433 14.6605 20.1433 14.6605C25.3433 14.6605 29.6612 17.957 30.8397 22.1713C30.8469 22.1427 30.8504 22.1105 30.8576 22.082C29.654 17.8534 25.3147 14.5605 20.1433 14.5605H20.1469Z" fill="#00A3DA"/>
<path d="M20.1469 14.7569C25.3255 14.7569 29.6648 18.0605 30.8255 22.2569C30.8326 22.2283 30.8398 22.2033 30.8434 22.1748C29.6612 17.9605 25.3219 14.6641 20.1469 14.6641C14.9719 14.6641 10.5969 17.9962 9.44336 22.2391C9.4505 22.2641 9.45407 22.2891 9.46122 22.3141C10.6005 18.0926 14.9505 14.7605 20.1469 14.7605V14.7569Z" fill="#00A5DB"/>
<path d="M20.1467 14.7575C14.9502 14.7575 10.6002 18.0896 9.46094 22.311C9.46808 22.336 9.47165 22.361 9.47879 22.3825C10.6002 18.186 14.9538 14.8575 20.1502 14.8575C25.3467 14.8575 29.6681 18.161 30.8074 22.3396C30.8145 22.311 30.8217 22.2825 30.8252 22.2539C29.6645 18.0575 25.3252 14.7539 20.1467 14.7539V14.7575Z" fill="#00A7DC"/>
<path d="M20.1428 14.9539C25.3249 14.9539 29.6678 18.2681 30.7857 22.4324C30.7928 22.4003 30.7999 22.3717 30.8071 22.3396C29.6642 18.161 25.3285 14.8574 20.1499 14.8574C14.9714 14.8574 10.6035 18.186 9.47852 22.3824C9.48566 22.411 9.48923 22.436 9.49637 22.4646C10.5964 18.2824 14.9464 14.9539 20.1428 14.9539Z" fill="#00A9DD"/>
<path d="M20.1425 14.9531C14.9425 14.9531 10.5961 18.2817 9.49609 22.4638C9.50324 22.4888 9.50681 22.5138 9.51395 22.5388C10.5997 18.3817 14.9425 15.0496 20.1425 15.0496C25.3425 15.0496 29.6675 18.3603 30.7675 22.5067C30.7747 22.4817 30.7782 22.4567 30.7854 22.4353C29.6675 18.271 25.3282 14.9567 20.1425 14.9567V14.9531Z" fill="#00ABDE"/>
<path d="M20.1422 15.1462C25.328 15.1462 29.6672 18.4641 30.7494 22.5891C30.7565 22.5605 30.7601 22.5355 30.7672 22.5069C29.6672 18.3641 25.328 15.0498 20.1422 15.0498C14.9565 15.0498 10.5958 18.3819 9.51367 22.5391C9.52081 22.5677 9.52439 22.5927 9.53153 22.6212C10.5958 18.4819 14.9387 15.1462 20.1422 15.1462Z" fill="#00ADDE"/>
<path d="M20.142 15.1462C14.9384 15.1462 10.5955 18.4783 9.53125 22.6212C9.53839 22.6462 9.54196 22.6676 9.54911 22.6926C10.5955 18.5747 14.9384 15.2426 20.1384 15.2426C25.3384 15.2426 29.6741 18.564 30.7277 22.6747C30.7348 22.6461 30.742 22.6176 30.7491 22.5854C29.667 18.4604 25.3313 15.1426 20.142 15.1426V15.1462Z" fill="#00AFDF"/>
<path d="M20.1329 15.3357C25.3294 15.3357 29.6686 18.6571 30.7079 22.7464C30.7151 22.7214 30.7222 22.6964 30.7294 22.6714C29.6758 18.5607 25.3329 15.2393 20.1401 15.2393C14.9472 15.2393 10.5972 18.5678 9.55078 22.6893C9.55792 22.7143 9.56507 22.7393 9.57221 22.7607C10.6008 18.6678 14.9329 15.3357 20.1365 15.3357H20.1329Z" fill="#00B1E0"/>
<path d="M20.1326 15.3356C14.9291 15.3356 10.5969 18.6677 9.56836 22.7606C9.5755 22.782 9.58264 22.8035 9.58622 22.8249C10.6005 18.757 14.9362 15.4285 20.1362 15.4285C25.3362 15.4285 29.6648 18.7463 30.6862 22.807C30.6934 22.7856 30.7005 22.7642 30.7041 22.7427C29.6684 18.6535 25.3291 15.332 20.1291 15.332L20.1326 15.3356Z" fill="#00B3E1"/>
<path d="M20.1359 15.5284C25.3288 15.5284 29.6609 18.8427 30.6645 22.8855C30.6717 22.8605 30.6788 22.8355 30.6859 22.8141C29.6645 18.7534 25.3288 15.4355 20.1359 15.4355C14.9431 15.4355 10.6002 18.7605 9.58594 22.832C9.59308 22.857 9.60022 22.882 9.60737 22.907C10.6038 18.857 14.9359 15.5355 20.1359 15.5355V15.5284Z" fill="#0DB5E2"/>
<path d="M20.136 15.529C14.936 15.529 10.6003 18.854 9.60742 22.9004C9.61456 22.9218 9.62171 22.9468 9.62885 22.9682C10.6074 18.9468 14.9431 15.6254 20.1396 15.6254C25.336 15.6254 29.661 18.9432 30.6467 22.9611C30.6538 22.9361 30.661 22.9075 30.6681 22.8825C29.6646 18.8432 25.3289 15.5254 20.1396 15.5254L20.136 15.529Z" fill="#19B7E3"/>
<path d="M20.1325 15.7218C25.3289 15.7218 29.661 19.0468 30.6218 23.0468C30.6289 23.0182 30.636 22.9896 30.6468 22.9646C29.661 18.9468 25.3325 15.6289 20.1396 15.6289C14.9468 15.6289 10.611 18.9503 9.62891 22.9718C9.63605 22.9932 9.64319 23.0182 9.64676 23.0396C10.611 19.0432 14.9396 15.7218 20.1325 15.7218Z" fill="#21B9E4"/>
<path d="M20.1322 15.7217C14.9393 15.7217 10.6108 19.0431 9.64648 23.0395C9.65006 23.0574 9.6572 23.0753 9.66077 23.0931C10.6179 19.1181 14.9393 15.8145 20.1322 15.8145C25.3251 15.8145 29.6501 19.1181 30.6072 23.0931C30.6108 23.0788 30.6143 23.0645 30.6215 23.0467C29.6643 19.0467 25.3322 15.7217 20.1322 15.7217Z" fill="#28BBE5"/>
<path d="M20.1316 15.9073C25.3173 15.9073 29.6387 19.193 30.5923 23.1395C30.5959 23.1252 30.5994 23.1109 30.6066 23.093C29.6494 19.118 25.3244 15.8145 20.1316 15.8145C14.9387 15.8145 10.6173 19.118 9.66016 23.093C9.66373 23.1073 9.6673 23.1216 9.67444 23.1359C10.628 19.1895 14.9459 15.9037 20.1316 15.9037V15.9073Z" fill="#37BDE6"/>
<path d="M20.1329 15.9072C14.9472 15.9072 10.6294 19.1929 9.67578 23.1394C9.67935 23.1537 9.68292 23.1679 9.69007 23.1858C10.6436 19.2608 14.9579 15.9894 20.1365 15.9894C25.3151 15.9894 29.6365 19.2644 30.5829 23.1929C30.5865 23.1751 30.5936 23.1608 30.5972 23.1429C29.6401 19.1929 25.3222 15.9108 20.1365 15.9108L20.1329 15.9072Z" fill="#43BFE6"/>
<path d="M20.132 16.0821C25.3034 16.0821 29.6141 19.3321 30.5641 23.2357C30.5677 23.2214 30.5748 23.2071 30.5784 23.1928C29.632 19.2607 25.3141 15.9893 20.132 15.9893C14.9498 15.9893 10.6391 19.2607 9.68555 23.1857C9.68912 23.2035 9.69626 23.2178 9.7034 23.2357C10.6534 19.3357 14.9605 16.0857 20.132 16.0857V16.0821Z" fill="#4DC0E7"/>
<path d="M20.1317 16.0827C14.9603 16.0827 10.6531 19.3327 9.70312 23.2327C9.7067 23.247 9.71384 23.2577 9.71741 23.272C10.6674 19.4005 14.9638 16.1648 20.1317 16.1648C25.2996 16.1648 29.6031 19.397 30.5531 23.272C30.5567 23.2577 30.5638 23.247 30.5674 23.2327C29.6174 19.3291 25.3067 16.0791 20.1353 16.0791L20.1317 16.0827Z" fill="#56C2E8"/>
<path d="M20.1366 16.2498C25.2938 16.2498 29.5902 19.4605 30.5402 23.3105C30.5438 23.2962 30.5509 23.2855 30.5545 23.2712C29.6045 19.3962 25.3009 16.1641 20.133 16.1641C14.9652 16.1641 10.6688 19.3998 9.71875 23.2712C9.72232 23.2855 9.72946 23.2998 9.73304 23.3141C10.683 19.4641 14.983 16.2533 20.1402 16.2533L20.1366 16.2498Z" fill="#5EC4E8"/>
<path d="M20.1357 16.25C14.9821 16.25 10.6821 19.4643 9.72852 23.3107C9.73209 23.3286 9.73923 23.3429 9.74637 23.3607C10.6928 19.5357 14.9821 16.3429 20.1321 16.3429C25.2821 16.3429 29.5749 19.5357 30.5214 23.3607C30.5285 23.3429 30.5321 23.3286 30.5392 23.3107C29.5892 19.4607 25.2928 16.25 20.1357 16.25Z" fill="#65C6E9"/>
<path d="M20.1318 16.4285C25.2747 16.4285 29.5604 19.5999 30.5068 23.3999C30.5104 23.3856 30.5175 23.3713 30.5211 23.3606C29.5747 19.5356 25.2818 16.3428 20.1318 16.3428C14.9818 16.3428 10.6961 19.5356 9.74609 23.3606C9.74967 23.3749 9.75681 23.3856 9.76038 23.3999C10.7068 19.6035 14.989 16.4285 20.1318 16.4285Z" fill="#6DC7EA"/>
<path d="M20.1331 16.4287C14.9903 16.4287 10.7081 19.6037 9.76172 23.4001C9.76529 23.4144 9.77243 23.4287 9.776 23.443C10.726 19.6716 15.0081 16.5216 20.1367 16.5216C25.2653 16.5216 29.5439 19.6716 30.4939 23.443C30.4974 23.4287 30.5046 23.4144 30.5081 23.4001C29.5617 19.6037 25.276 16.4287 20.1331 16.4287Z" fill="#74C9EA"/>
<path d="M20.1329 16.6108C25.2614 16.6108 29.5329 19.7465 30.4793 23.4929C30.4864 23.4751 30.49 23.4608 30.4972 23.4429C29.5472 19.6715 25.2686 16.5215 20.14 16.5215C15.0114 16.5215 10.7293 19.6715 9.7793 23.4429C9.78644 23.4572 9.79001 23.4751 9.79715 23.4893C10.7436 19.7429 15.0114 16.6072 20.1364 16.6072L20.1329 16.6108Z" fill="#7ACBEB"/>
<path d="M20.1323 16.6104C15.0073 16.6104 10.7358 19.7461 9.79297 23.4925C9.79654 23.5068 9.80368 23.5175 9.80725 23.5318C10.7537 19.8139 15.018 16.6996 20.1358 16.6996C25.2537 16.6996 29.5215 19.8139 30.468 23.5318C30.4715 23.5175 30.4751 23.5068 30.4823 23.4925C29.5358 19.7461 25.2644 16.6104 20.1358 16.6104H20.1323Z" fill="#81CDEC"/>
<path d="M20.1368 16.7895C25.244 16.7895 29.5047 19.8788 30.4511 23.5716C30.4547 23.5573 30.4618 23.5431 30.4654 23.5323C29.519 19.8109 25.2511 16.7002 20.1333 16.7002C15.0154 16.7002 10.7511 19.8145 9.80469 23.5323C9.80826 23.5466 9.8154 23.5609 9.81897 23.5716C10.7654 19.8788 15.0297 16.7895 20.1368 16.7895Z" fill="#87CFEC"/>
<path d="M20.1362 16.7897C15.0291 16.7897 10.7648 19.879 9.81836 23.5718C9.82193 23.5861 9.82907 23.6004 9.83264 23.6111C10.7791 19.9468 15.0326 16.8754 20.1326 16.8754C25.2326 16.8754 29.4898 19.9504 30.4326 23.6183C30.4398 23.6004 30.4434 23.5861 30.4505 23.5683C29.5041 19.8754 25.2469 16.7861 20.1362 16.7861V16.7897Z" fill="#8ED1ED"/>
<path d="M20.1288 16.9679C25.2288 16.9679 29.4788 20.025 30.4181 23.6679C30.4252 23.6536 30.4288 23.6357 30.4359 23.6179C29.4931 19.95 25.2359 16.875 20.1359 16.875C15.0359 16.875 10.7824 19.9464 9.83594 23.6107C9.84308 23.625 9.84665 23.6429 9.85022 23.6571C10.7931 20.0179 15.0324 16.9679 20.1288 16.9679Z" fill="#94D3EE"/>
<path d="M20.1282 16.9678C15.0318 16.9678 10.7925 20.0213 9.84961 23.6571C9.85318 23.6713 9.86032 23.6856 9.8639 23.6999C10.8068 20.0856 15.0496 17.0499 20.1318 17.0499C25.2139 17.0499 29.4639 20.0892 30.4032 23.7071C30.4068 23.6928 30.4103 23.6821 30.4175 23.6678C29.4782 20.0249 25.2282 16.9678 20.1282 16.9678Z" fill="#9AD5EF"/>
<path d="M20.1311 17.1427C25.2061 17.1427 29.4454 20.1569 30.3883 23.7462C30.3919 23.7319 30.399 23.7212 30.4026 23.7069C29.4633 20.0891 25.2169 17.0498 20.1311 17.0498C15.0454 17.0498 10.8061 20.0855 9.86328 23.6998C9.86685 23.7141 9.874 23.7248 9.87757 23.7391C10.824 20.1534 15.0597 17.1427 20.1311 17.1427Z" fill="#A0D7F0"/>
<path d="M20.1325 17.1426C15.061 17.1426 10.8253 20.1533 9.87891 23.739C9.88248 23.7533 9.88962 23.7676 9.89676 23.7819C10.8396 20.2247 15.061 17.2354 20.1289 17.2354C25.1968 17.2354 29.4289 20.2283 30.3718 23.789C30.3789 23.7747 30.3825 23.7604 30.3896 23.7461C29.4468 20.1569 25.2075 17.1426 20.1325 17.1426Z" fill="#A6D9F0"/>
<path d="M20.1322 17.3175C25.1893 17.3175 29.4108 20.2889 30.3572 23.8246C30.3608 23.8139 30.3679 23.7996 30.3715 23.7889C29.4286 20.2246 25.2001 17.2354 20.1286 17.2354C15.0572 17.2354 10.8393 20.2246 9.89648 23.7818C9.90006 23.7961 9.9072 23.8068 9.91077 23.8211C10.8608 20.2925 15.0786 17.3211 20.1322 17.3211V17.3175Z" fill="#ACDCF1"/>
<path d="M20.1316 17.3184C15.078 17.3184 10.8566 20.2898 9.91016 23.8184C9.91373 23.8291 9.92087 23.8434 9.92444 23.8541C10.8744 20.3505 15.0852 17.4041 20.1316 17.4041C25.178 17.4041 29.3959 20.3541 30.3423 23.8612C30.3459 23.8505 30.353 23.8362 30.3566 23.8255C29.4102 20.2898 25.1887 17.3184 20.1316 17.3184Z" fill="#B2DEF2"/>
<path d="M20.131 17.4962C25.1703 17.4962 29.3738 20.4212 30.3274 23.8997C30.331 23.8855 30.3381 23.8747 30.3417 23.8605C29.3953 20.3533 25.181 17.4033 20.131 17.4033C15.081 17.4033 10.8738 20.3497 9.92383 23.8533C9.93097 23.8676 9.93454 23.8819 9.94168 23.8962C10.8917 20.4212 15.0953 17.4926 20.131 17.4926V17.4962Z" fill="#B8E0F3"/>
<path d="M20.1326 17.4961C15.0934 17.4961 10.8898 20.4211 9.94336 23.8997C9.94693 23.9139 9.95407 23.9247 9.95765 23.9389C10.9112 20.4925 15.1076 17.5854 20.1326 17.5854C25.1576 17.5854 29.3612 20.4925 30.3112 23.9461C30.3184 23.9318 30.3219 23.9175 30.3291 23.9032C29.3791 20.4247 25.1719 17.4997 20.1326 17.4997V17.4961Z" fill="#BDE2F4"/>
<path d="M20.132 17.6755C25.1499 17.6755 29.3427 20.5577 30.2963 23.9791C30.2999 23.9648 30.307 23.9541 30.3106 23.9398C29.3606 20.4862 25.1642 17.5791 20.132 17.5791C15.0999 17.5791 10.907 20.4827 9.95703 23.9327C9.9606 23.9434 9.96775 23.9577 9.97132 23.9684C10.9285 20.547 15.1177 17.672 20.132 17.672V17.6755Z" fill="#C3E5F5"/>
<path d="M20.1314 17.6748C15.1171 17.6748 10.9243 20.5534 9.9707 23.9712C9.97427 23.9819 9.98142 23.9962 9.98499 24.0069C10.9421 20.6177 15.1243 17.7605 20.1314 17.7605C25.1386 17.7605 29.3243 20.6212 30.2778 24.0141C30.2814 24.0034 30.2886 23.9891 30.2921 23.9784C29.3421 20.5534 25.1493 17.6748 20.1278 17.6748H20.1314Z" fill="#C9E7F5"/>
<path d="M20.1363 17.8504C25.1328 17.8504 29.3078 20.6861 30.2649 24.0539C30.2685 24.0432 30.2756 24.0289 30.2792 24.0182C29.3256 20.6218 25.1435 17.7646 20.1328 17.7646C15.122 17.7646 10.9435 20.6218 9.98633 24.0111C9.99347 24.0254 9.99704 24.0396 10.0042 24.0575C10.9613 20.6932 15.1399 17.8539 20.1363 17.8539V17.8504Z" fill="#CEE9F6"/>
<path d="M20.136 17.8506C15.1396 17.8506 10.961 20.6899 10.0039 24.0542C10.0075 24.0649 10.0146 24.0792 10.0182 24.0899C10.9789 20.7506 15.1468 17.9363 20.1325 17.9363C25.1182 17.9363 29.2932 20.7542 30.2468 24.097C30.2539 24.0827 30.2575 24.0684 30.2646 24.0542C29.3075 20.6863 25.1325 17.8506 20.136 17.8506Z" fill="#D4ECF7"/>
<path d="M20.1319 18.0252C25.114 18.0252 29.2747 20.8216 30.2319 24.1359C30.2354 24.1252 30.2426 24.1109 30.2461 24.1002C29.289 20.7573 25.1176 17.9395 20.1319 17.9395C15.1461 17.9395 10.9783 20.7537 10.0176 24.093C10.0211 24.1037 10.0283 24.118 10.0319 24.1287C10.9926 20.8216 15.1533 18.0252 20.1319 18.0252Z" fill="#DAEEF8"/>
<path d="M20.1313 18.0254C15.1527 18.0254 10.992 20.8218 10.0312 24.129C10.0384 24.1432 10.042 24.1575 10.0491 24.1754C11.0098 20.8932 15.1705 18.1182 20.1348 18.1182C25.0991 18.1182 29.2563 20.8897 30.217 24.1754C30.2205 24.1647 30.2277 24.1504 30.2313 24.1361C29.2741 20.8218 25.1098 18.0254 20.1313 18.0254Z" fill="#DFF1F9"/>
<path d="M20.1297 18.2003C25.094 18.2003 29.244 20.9574 30.2011 24.2217C30.2083 24.2074 30.2154 24.1896 30.2225 24.1753C29.2618 20.8896 25.1047 18.1182 20.1404 18.1182C15.1761 18.1182 11.0154 20.8932 10.0547 24.1753C10.0583 24.186 10.0654 24.2003 10.069 24.211C11.0333 20.9539 15.1725 18.2003 20.1297 18.2003Z" fill="#E5F3FA"/>
<path d="M20.1291 18.2002C15.1719 18.2002 11.0291 20.9538 10.0684 24.2109C10.0719 24.2216 10.0791 24.2323 10.0826 24.2466C11.0505 21.0216 15.1826 18.2931 20.1291 18.2931C25.0755 18.2931 29.2219 21.0252 30.1826 24.2573C30.1862 24.2466 30.1934 24.2323 30.2005 24.2216C29.2434 20.9609 25.0934 18.2002 20.1291 18.2002Z" fill="#EBF6FB"/>
<path d="M20.1324 18.3783C25.0717 18.3783 29.2002 21.0891 30.1681 24.2891C30.1716 24.2783 30.1788 24.2641 30.1859 24.2533C29.2252 21.0212 25.0824 18.2891 20.1324 18.2891C15.1824 18.2891 11.0538 21.0176 10.0859 24.2426C10.0931 24.2569 10.1002 24.2712 10.1038 24.2855C11.0717 21.0891 15.2002 18.3783 20.1359 18.3783H20.1324Z" fill="#F1F8FD"/>
<path d="M20.1318 18.3789C15.196 18.3789 11.0675 21.086 10.0996 24.286C10.1032 24.2968 10.1103 24.311 10.1175 24.3218C11.0889 21.1503 15.2103 18.4682 20.1318 18.4682C25.0532 18.4682 29.1818 21.1539 30.1496 24.3253C30.1532 24.3146 30.1603 24.3039 30.1639 24.2896C29.1996 21.0861 25.0675 18.3789 20.1282 18.3789H20.1318Z" fill="#F7FBFE"/>
<path d="M31.6147 19.9572C31.6147 13.6465 26.4825 8.53223 20.1361 8.53223C13.7897 8.53223 8.65039 13.6429 8.65039 19.9572C8.65039 20.5822 8.70396 21.1965 8.80039 21.7929C8.80396 21.8251 8.81111 21.8537 8.81825 21.8822C8.82539 21.9144 8.82896 21.9501 8.83611 21.9822C8.84325 22.0108 8.84682 22.0429 8.85396 22.0715C8.8611 22.1037 8.86468 22.1394 8.87182 22.1715C8.87896 22.2001 8.88253 22.2322 8.8861 22.2608C8.89325 22.2894 8.90039 22.3179 8.90753 22.3501C8.91468 22.3751 8.91825 22.4001 8.92539 22.4287C8.93253 22.4537 8.9361 22.4822 8.94325 22.5072C8.95039 22.5358 8.95753 22.5644 8.96468 22.5965C8.97182 22.6215 8.97539 22.6501 8.98253 22.6751C8.98968 22.7072 8.99682 22.7394 9.00396 22.7679C9.0111 22.7929 9.01825 22.8215 9.02539 22.8465C9.03253 22.8751 9.04325 22.9001 9.05039 22.9287C9.05753 22.9537 9.06468 22.9751 9.07182 23.0001C9.07896 23.0251 9.0861 23.0465 9.09325 23.0715C9.10039 23.1001 9.10753 23.1251 9.11825 23.1537C9.12539 23.1787 9.13253 23.2001 9.13968 23.2251C9.14682 23.2537 9.15396 23.2787 9.16468 23.3072C9.17182 23.3287 9.17896 23.3537 9.1861 23.3751C9.19325 23.4001 9.20396 23.4215 9.2111 23.4465C9.21825 23.4679 9.22539 23.4894 9.23253 23.5108C9.23968 23.5322 9.24682 23.5537 9.25396 23.5751C9.26111 23.6001 9.27182 23.6251 9.27896 23.6537C9.2861 23.6751 9.29325 23.7001 9.30039 23.7215C9.3111 23.7465 9.31825 23.7715 9.32539 23.8001C9.33253 23.8215 9.33968 23.8465 9.34682 23.8679C9.35396 23.8929 9.36468 23.9144 9.37539 23.9394C9.38253 23.9608 9.38968 23.9787 9.40039 24.0001C9.40753 24.0215 9.41825 24.0465 9.42896 24.0679C9.4361 24.0894 9.44325 24.1072 9.45396 24.1287C9.4611 24.1465 9.46825 24.1679 9.47896 24.1858C9.4861 24.2001 9.48968 24.2144 9.49682 24.2287C9.50039 24.2394 9.50396 24.2501 9.5111 24.2608C9.51468 24.2715 9.51825 24.2822 9.52539 24.2965C9.53253 24.3108 9.5361 24.3251 9.54325 24.3394C9.54682 24.3501 9.55039 24.3608 9.55753 24.3715C9.56111 24.3822 9.56468 24.3929 9.57182 24.4072C9.57896 24.4215 9.58253 24.4322 9.58968 24.4465C9.59325 24.4572 9.60039 24.4679 9.60396 24.4751C9.60753 24.4858 9.61468 24.4965 9.61825 24.5072C9.62539 24.5215 9.62896 24.5322 9.6361 24.5465C9.63968 24.5572 9.64682 24.5679 9.65039 24.5751C9.65396 24.5858 9.6611 24.5965 9.66468 24.6072C9.66825 24.6179 9.67539 24.6287 9.67896 24.6394C9.68611 24.6537 9.68968 24.6644 9.69682 24.6787C9.70039 24.6894 9.70753 24.7001 9.71111 24.7108C9.71468 24.7215 9.72182 24.7322 9.72539 24.7429C9.73253 24.7537 9.7361 24.7679 9.74325 24.7822C9.74682 24.7929 9.75396 24.8037 9.75753 24.8144C9.7611 24.8251 9.76825 24.8358 9.77182 24.8465C9.77896 24.8572 9.78253 24.8715 9.78968 24.8858C9.79325 24.8965 9.80039 24.9072 9.80396 24.9179C9.80753 24.9287 9.81468 24.9358 9.81825 24.9465C9.82182 24.9572 9.82896 24.9644 9.83253 24.9751C9.83968 24.9858 9.84325 24.9965 9.85039 25.0108C9.85396 25.0215 9.8611 25.0287 9.86468 25.0394C9.86825 25.0501 9.87539 25.0572 9.87896 25.0679C9.88611 25.0787 9.88968 25.0929 9.89682 25.1037C9.90039 25.1144 9.90753 25.1215 9.91111 25.1322C9.91468 25.1429 9.92182 25.1501 9.92539 25.1608C9.93253 25.1715 9.93611 25.1858 9.94325 25.1965C9.94682 25.2072 9.95396 25.2144 9.95753 25.2251C10.3182 25.9179 10.7468 26.5715 11.2361 27.1715C11.2361 27.1715 11.2361 27.1715 11.2397 27.1751C11.2397 27.1751 11.2432 27.1822 11.2468 27.1858C11.2468 27.1858 11.2468 27.1858 11.2504 27.1894C11.2504 27.1894 11.254 27.1965 11.2575 27.2001C11.2575 27.2001 11.2611 27.2037 11.2647 27.2072C11.2647 27.2072 11.2682 27.2108 11.2718 27.2144C11.2718 27.2144 11.2718 27.2144 11.2754 27.2179C11.2754 27.2179 11.2754 27.2215 11.279 27.2251C11.279 27.2251 11.279 27.2287 11.2825 27.2322C11.2825 27.2322 11.2825 27.2358 11.2861 27.2394C11.2861 27.2394 11.2861 27.2429 11.2932 27.2465C11.2932 27.2465 11.2932 27.2465 11.2968 27.2501C11.2968 27.2501 11.2968 27.2501 11.3004 27.2537C11.3004 27.2537 11.304 27.2572 11.3075 27.2608C11.3075 27.2608 11.3075 27.2608 11.3111 27.2644C11.3111 27.2644 11.3111 27.2679 11.3147 27.2715C11.3147 27.2715 11.3147 27.2715 11.3182 27.2751C11.3182 27.2751 11.3182 27.2751 11.3182 27.2787C11.3182 27.2787 11.3182 27.2822 11.3218 27.2858C11.3218 27.2858 11.3218 27.2858 11.3218 27.2894C11.3218 27.2894 11.3254 27.2929 11.329 27.2965C11.329 27.2965 11.329 27.2965 11.3325 27.3001C11.3325 27.3001 11.3361 27.3037 11.3397 27.3072C11.3432 27.3144 11.3504 27.3179 11.354 27.3251C11.3575 27.3287 11.3611 27.3358 11.3647 27.3394C11.3718 27.3465 11.3754 27.3537 11.3825 27.3608C11.3861 27.3679 11.3932 27.3715 11.3968 27.3787C11.4004 27.3822 11.404 27.3858 11.4075 27.3929C11.4111 27.4001 11.4182 27.4037 11.4218 27.4108C11.4254 27.4144 11.4325 27.4215 11.4361 27.4251C11.4397 27.4287 11.4432 27.4358 11.4468 27.4394C11.4504 27.4429 11.4575 27.4501 11.4611 27.4537C11.4647 27.4608 11.4718 27.4644 11.4754 27.4715C11.479 27.4751 11.4825 27.4822 11.4861 27.4858C11.4897 27.4929 11.4968 27.4965 11.5004 27.5037C11.504 27.5072 11.5075 27.5144 11.5147 27.5179C11.5182 27.5215 11.5218 27.5287 11.529 27.5322C11.5325 27.5358 11.5397 27.5429 11.5432 27.5465C11.5468 27.5537 11.554 27.5572 11.5575 27.5644C11.5611 27.5679 11.5647 27.5751 11.5682 27.5787C11.5718 27.5822 11.579 27.5894 11.5825 27.5965C11.5861 27.6001 11.5932 27.6072 11.5968 27.6144C11.6004 27.6179 11.604 27.6251 11.6111 27.6287C11.6147 27.6322 11.6218 27.6394 11.6254 27.6465C11.629 27.6537 11.6361 27.6572 11.6397 27.6644C11.6432 27.6679 11.6468 27.6715 11.6504 27.6751C11.6575 27.6822 11.6611 27.6858 11.6682 27.6929C11.6718 27.7001 11.679 27.7037 11.6825 27.7072C11.6861 27.7144 11.6932 27.7179 11.6968 27.7215C11.7004 27.7287 11.7075 27.7322 11.7111 27.7358C11.7147 27.7394 11.7218 27.7465 11.7254 27.7501C11.729 27.7537 11.7361 27.7608 11.7397 27.7644C11.7432 27.7679 11.7504 27.7751 11.754 27.7787C11.7575 27.7858 11.7647 27.7894 11.7682 27.7965C13.8682 30.0144 16.8397 31.4001 20.1361 31.4001C23.4325 31.4001 26.4111 30.0072 28.5075 27.7858C28.5111 27.7822 28.5182 27.7751 28.5218 27.7715C28.5254 27.7644 28.5325 27.7608 28.5361 27.7537C28.5397 27.7501 28.5468 27.7429 28.5504 27.7394C28.554 27.7322 28.5611 27.7287 28.5647 27.7251C28.5682 27.7179 28.5754 27.7144 28.579 27.7108C28.5825 27.7037 28.5897 27.7001 28.5932 27.6965C28.5968 27.6929 28.6004 27.6894 28.604 27.6822C28.604 27.6822 28.6075 27.6787 28.6111 27.6751C28.6111 27.6751 28.6182 27.6679 28.6218 27.6644C28.6254 27.6572 28.6325 27.6537 28.6361 27.6465C28.6397 27.6429 28.6432 27.6394 28.6468 27.6322C28.654 27.6251 28.6575 27.6179 28.6647 27.6144C28.6682 27.6108 28.6718 27.6037 28.6754 27.6001C28.679 27.5965 28.6825 27.5894 28.6861 27.5858C28.6897 27.5822 28.6968 27.5751 28.7004 27.5715C28.704 27.5644 28.7111 27.5608 28.7147 27.5537C28.7182 27.5501 28.7218 27.5429 28.729 27.5394C28.7325 27.5358 28.7361 27.5287 28.7432 27.5251C28.7504 27.5179 28.754 27.5108 28.7611 27.5072C28.7647 27.5037 28.7682 27.4965 28.7754 27.4929C28.779 27.4894 28.7825 27.4822 28.7897 27.4787C28.7932 27.4751 28.8004 27.4679 28.804 27.4644C28.8075 27.4572 28.8147 27.4537 28.8182 27.4465C28.8218 27.4429 28.829 27.4358 28.8325 27.4322C28.8361 27.4251 28.8432 27.4215 28.8468 27.4144C28.8504 27.4108 28.854 27.4072 28.8575 27.4001C28.8611 27.3965 28.8647 27.3894 28.8718 27.3858C28.8754 27.3787 28.8825 27.3751 28.8861 27.3679C28.8897 27.3644 28.8932 27.3572 28.8968 27.3537C28.9004 27.3501 28.904 27.3429 28.9111 27.3394C28.9147 27.3322 28.9218 27.3287 28.9254 27.3215C28.9254 27.3215 28.929 27.3179 28.9325 27.3144C28.9325 27.3144 28.9325 27.3144 28.9361 27.3108C28.9361 27.3108 28.9397 27.3072 28.9432 27.3037C28.9432 27.3037 28.9432 27.3037 28.9468 27.3001C28.9468 27.3001 28.9468 27.3001 28.9504 27.2965C28.9504 27.2965 28.9504 27.2965 28.954 27.2929C28.954 27.2929 28.954 27.2894 28.9575 27.2858C28.9575 27.2858 28.9575 27.2822 28.9611 27.2787C28.9611 27.2787 28.9611 27.2787 28.9647 27.2751C28.9647 27.2751 28.9647 27.2715 28.9682 27.2679C28.9682 27.2679 28.9718 27.2644 28.9754 27.2608C28.9754 27.2608 28.9754 27.2572 28.979 27.2537C28.979 27.2537 28.9825 27.2465 28.9861 27.2465C28.9861 27.2465 28.9861 27.2429 28.9897 27.2394C28.9897 27.2394 28.9932 27.2358 28.9968 27.2322C28.9968 27.2322 28.9968 27.2322 29.0004 27.2287C29.0004 27.2287 29.004 27.2251 29.0075 27.2215C29.0075 27.2215 29.0075 27.2179 29.0111 27.2144C29.0111 27.2144 29.0147 27.2072 29.0182 27.2072C29.0182 27.2072 29.0182 27.2072 29.0182 27.2037C29.0182 27.2037 29.0218 27.1965 29.0254 27.1965C29.0254 27.1965 29.029 27.1929 29.0325 27.1894C29.0325 27.1894 29.0361 27.1858 29.0397 27.1822C29.0397 27.1822 29.0432 27.1787 29.0468 27.1751C29.0468 27.1751 29.0504 27.1715 29.054 27.1679C29.054 27.1679 29.0575 27.1644 29.0611 27.1608C29.0611 27.1608 29.0647 27.1572 29.0682 27.1537C29.0682 27.1537 29.0718 27.1501 29.0754 27.1465C29.0754 27.1465 29.0754 27.1465 29.0754 27.1429C29.554 26.5537 29.9718 25.9144 30.3254 25.2358C30.329 25.2251 30.3361 25.2179 30.3397 25.2072C30.3432 25.1965 30.3504 25.1894 30.354 25.1787C30.3575 25.1679 30.3647 25.1608 30.3682 25.1501C30.3754 25.1358 30.3825 25.1215 30.3897 25.1072C30.3932 25.0965 30.4004 25.0894 30.404 25.0787C30.4075 25.0679 30.4147 25.0608 30.4182 25.0501C30.4254 25.0394 30.429 25.0287 30.4361 25.0144C30.4397 25.0037 30.4468 24.9965 30.4504 24.9858C30.454 24.9751 30.4611 24.9679 30.4647 24.9572C30.4682 24.9465 30.4754 24.9394 30.479 24.9287C30.4861 24.9179 30.4897 24.9037 30.4968 24.8894C30.5004 24.8787 30.5075 24.8679 30.5111 24.8572C30.5147 24.8465 30.5182 24.8358 30.5254 24.8287C30.529 24.8179 30.5325 24.8072 30.5397 24.8001C30.5468 24.7858 30.5504 24.7751 30.5575 24.7608C30.5611 24.7501 30.5682 24.7394 30.5718 24.7287C30.5754 24.7179 30.5825 24.7072 30.5861 24.7001C30.5932 24.6858 30.5968 24.6751 30.604 24.6608C30.6111 24.6465 30.6147 24.6358 30.6218 24.6215C30.6254 24.6108 30.6325 24.6001 30.6361 24.5894C30.6397 24.5787 30.6468 24.5679 30.6504 24.5608C30.6575 24.5465 30.6611 24.5358 30.6682 24.5215C30.6718 24.5108 30.679 24.5001 30.6825 24.4894C30.6861 24.4787 30.6932 24.4679 30.6968 24.4572C30.704 24.4429 30.7075 24.4322 30.7147 24.4179C30.7182 24.4072 30.7218 24.3965 30.729 24.3858C30.7325 24.3751 30.7361 24.3644 30.7432 24.3537C30.7468 24.3429 30.754 24.3287 30.7575 24.3179C30.7647 24.3037 30.7682 24.2894 30.7754 24.2751C30.779 24.2644 30.7825 24.2537 30.7897 24.2394C30.7932 24.2287 30.8004 24.2179 30.804 24.2037C30.8147 24.1787 30.8254 24.1537 30.8325 24.1287C30.8432 24.1072 30.8504 24.0822 30.8611 24.0608C30.8682 24.0394 30.879 24.0144 30.8897 23.9929C30.8968 23.9715 30.904 23.9537 30.9147 23.9322C30.9254 23.9072 30.9325 23.8858 30.9397 23.8608C30.9504 23.8322 30.9575 23.8037 30.9682 23.7751C30.979 23.7501 30.9861 23.7251 30.9932 23.6965C31.0004 23.6751 31.0075 23.6501 31.0147 23.6287C31.0254 23.6001 31.0361 23.5715 31.0432 23.5429C31.0504 23.5179 31.0611 23.4929 31.0682 23.4679C31.0754 23.4429 31.0861 23.4215 31.0932 23.3965C31.1004 23.3715 31.1075 23.3465 31.1182 23.3179C31.1254 23.2894 31.1325 23.2644 31.1432 23.2358C31.1504 23.2108 31.1575 23.1822 31.1647 23.1572C31.1754 23.1251 31.1825 23.0965 31.1897 23.0644C31.1968 23.0358 31.204 23.0108 31.2147 22.9822C31.2218 22.9572 31.229 22.9358 31.2361 22.9108C31.2468 22.8751 31.2575 22.8394 31.2647 22.8037C31.2718 22.7787 31.2754 22.7501 31.2825 22.7215C31.2897 22.6929 31.2968 22.6644 31.304 22.6322C31.3111 22.6037 31.3182 22.5751 31.3254 22.5429C31.3325 22.5108 31.3397 22.4787 31.3468 22.4465C31.354 22.4215 31.3575 22.3929 31.3647 22.3679C31.3718 22.3358 31.379 22.3037 31.3861 22.2679C31.3932 22.2394 31.3968 22.2072 31.404 22.1751C31.4111 22.1358 31.4182 22.1001 31.4254 22.0608C31.4325 22.0251 31.4361 21.9929 31.4432 21.9572C31.4504 21.9251 31.454 21.8894 31.4611 21.8572C31.4647 21.8287 31.4718 21.8001 31.4754 21.7715C31.4825 21.7322 31.4897 21.6894 31.4932 21.6501C31.4968 21.6179 31.5004 21.5858 31.504 21.5572C31.579 21.0322 31.6182 20.5001 31.6182 19.9537H31.6147V19.9572ZM31.0647 20.1072C31.0647 20.1429 31.0647 20.1751 31.0647 20.2108C31.0647 20.2608 31.0647 20.3108 31.0611 20.3572C31.0611 20.3965 31.0611 20.4322 31.0611 20.4715C31.0611 20.5108 31.0575 20.5465 31.054 20.5858C31.054 20.6215 31.0468 20.6572 31.0468 20.6929C31.0468 20.7322 31.0397 20.7715 31.0361 20.8108C31.0361 20.8429 31.0325 20.8787 31.029 20.9108C31.029 20.9501 31.0254 20.9894 31.0218 21.0287C31.0218 21.0608 31.0147 21.0929 31.0111 21.1215C31.0075 21.1572 31.0004 21.1929 30.9968 21.2287C30.9932 21.2608 30.9897 21.2965 30.9825 21.3287C30.979 21.3608 30.9754 21.3965 30.9682 21.4287C30.9647 21.4572 30.9611 21.4894 30.9575 21.5179C30.9504 21.5572 30.9468 21.5965 30.9397 21.6358C30.9361 21.6608 30.929 21.6894 30.9254 21.7144C30.9218 21.7429 30.9147 21.7751 30.9111 21.8037C30.904 21.8358 30.9004 21.8679 30.8932 21.9001C30.8897 21.9287 30.8825 21.9572 30.879 21.9858C30.8718 22.0179 30.8682 22.0501 30.8611 22.0787C30.854 22.1072 30.8504 22.1394 30.8432 22.1679C30.8361 22.1965 30.829 22.2251 30.8254 22.2501C30.8182 22.2787 30.8111 22.3072 30.8075 22.3358C30.8004 22.3679 30.7932 22.3965 30.7861 22.4287C30.779 22.4537 30.7754 22.4787 30.7682 22.5001C30.7611 22.5287 30.7575 22.5537 30.7504 22.5822C30.7432 22.6108 30.7361 22.6394 30.729 22.6715C30.7218 22.6965 30.7147 22.7215 30.7075 22.7465C30.7004 22.7679 30.6932 22.7894 30.6897 22.8108C30.6825 22.8358 30.6754 22.8608 30.6682 22.8822C30.6611 22.9072 30.654 22.9358 30.6468 22.9608C30.6397 22.9894 30.6325 23.0179 30.6218 23.0429C30.6182 23.0572 30.6147 23.0715 30.6075 23.0894C30.604 23.1037 30.6004 23.1215 30.5932 23.1358C30.5897 23.1537 30.5825 23.1679 30.579 23.1858C30.5754 23.2001 30.5682 23.2144 30.5647 23.2287C30.5611 23.2429 30.554 23.2537 30.5504 23.2679C30.5468 23.2822 30.5397 23.2929 30.5361 23.3072C30.5325 23.3251 30.5254 23.3394 30.5182 23.3572C30.5147 23.3715 30.5075 23.3858 30.504 23.3965C30.5004 23.4108 30.4932 23.4251 30.4897 23.4394C30.4825 23.4572 30.479 23.4715 30.4718 23.4894C30.4682 23.5037 30.4647 23.5144 30.4575 23.5287C30.454 23.5429 30.4468 23.5572 30.4432 23.5679C30.4361 23.5858 30.4325 23.6001 30.4254 23.6179C30.4182 23.6322 30.4147 23.6501 30.4075 23.6679C30.404 23.6822 30.4004 23.6929 30.3932 23.7072C30.3897 23.7215 30.3825 23.7322 30.379 23.7465C30.3718 23.7608 30.3682 23.7751 30.3611 23.7894C30.3575 23.8001 30.3504 23.8144 30.3468 23.8251C30.3432 23.8358 30.3361 23.8501 30.3325 23.8608C30.329 23.8751 30.3218 23.8858 30.3182 23.9001C30.3111 23.9144 30.3075 23.9287 30.3004 23.9429C30.2968 23.9572 30.2897 23.9679 30.2861 23.9822C30.2825 23.9929 30.2754 24.0072 30.2718 24.0179C30.2682 24.0287 30.2611 24.0429 30.2575 24.0537C30.2504 24.0679 30.2468 24.0822 30.2397 24.0965C30.2361 24.1072 30.229 24.1215 30.2254 24.1322C30.2218 24.1465 30.2147 24.1572 30.2111 24.1715C30.204 24.1858 30.1968 24.2037 30.1897 24.2179C30.1861 24.2287 30.179 24.2429 30.1718 24.2537C30.1682 24.2644 30.1611 24.2787 30.154 24.2894C30.1504 24.3001 30.1432 24.3108 30.1397 24.3251C29.7361 25.2429 29.2075 26.0965 28.579 26.8608C28.579 26.8608 28.579 26.8608 28.5754 26.8644C28.5754 26.8644 28.5718 26.8715 28.5682 26.8715C28.5682 26.8715 28.5647 26.8751 28.5611 26.8787C28.5611 26.8787 28.5575 26.8822 28.554 26.8858C28.554 26.8858 28.5504 26.8894 28.5468 26.8929C28.5468 26.8929 28.5432 26.8965 28.5397 26.9001C28.5397 26.9001 28.5361 26.9037 28.5325 26.9072C28.5325 26.9072 28.529 26.9108 28.5254 26.9144C28.5254 26.9144 28.5218 26.9179 28.5182 26.9215C28.5182 26.9215 28.5147 26.9287 28.5111 26.9287C28.5111 26.9287 28.5111 26.9322 28.5075 26.9358C28.5075 26.9358 28.504 26.9394 28.5004 26.9429C28.5004 26.9429 28.5004 26.9429 28.4968 26.9465C28.4968 26.9465 28.4932 26.9501 28.4897 26.9537C28.4897 26.9537 28.4897 26.9572 28.4861 26.9608C28.4861 26.9608 28.4825 26.9679 28.479 26.9679C28.479 26.9679 28.4754 26.9715 28.4718 26.9751C28.4718 26.9751 28.4682 26.9787 28.4647 26.9822C28.4647 26.9822 28.4611 26.9858 28.4575 26.9894C28.4575 26.9894 28.4575 26.9894 28.454 26.9929C28.454 26.9929 28.4504 26.9965 28.4468 27.0001C28.4468 27.0001 28.4468 27.0037 28.4432 27.0072C28.4432 27.0072 28.4432 27.0072 28.4397 27.0108C28.4397 27.0108 28.4397 27.0108 28.4361 27.0144C28.4361 27.0144 28.4361 27.0144 28.4325 27.0179C28.4325 27.0179 28.4325 27.0215 28.429 27.0251C28.429 27.0251 28.429 27.0251 28.4254 27.0287C28.4254 27.0287 28.4218 27.0322 28.4182 27.0358C28.4147 27.0429 28.4075 27.0465 28.404 27.0537L28.3897 27.0679C28.3897 27.0679 28.379 27.0787 28.3754 27.0822C28.3682 27.0894 28.3647 27.0965 28.3575 27.1001C28.354 27.1037 28.3468 27.1108 28.3432 27.1144C28.3397 27.1179 28.3361 27.1251 28.3325 27.1287C28.329 27.1358 28.3218 27.1394 28.3182 27.1465C28.3147 27.1537 28.3075 27.1572 28.304 27.1644C28.3004 27.1715 28.2932 27.1751 28.2897 27.1822C28.2861 27.1894 28.279 27.1929 28.2754 27.2001C28.2718 27.2037 28.2647 27.2108 28.2611 27.2144C28.2575 27.2179 28.254 27.2251 28.2468 27.2287C28.2397 27.2358 28.2361 27.2429 28.229 27.2501C28.2254 27.2537 28.2182 27.2608 28.2147 27.2644C28.2111 27.2679 28.204 27.2751 28.2004 27.2787C28.1932 27.2858 28.1897 27.2894 28.1825 27.2965C28.179 27.3037 28.1718 27.3072 28.1682 27.3144C28.1647 27.3179 28.1575 27.3251 28.154 27.3287C28.1504 27.3322 28.1432 27.3394 28.1397 27.3429C28.1325 27.3501 28.1254 27.3572 28.1218 27.3644C28.1218 27.3644 28.1147 27.3715 28.1111 27.3751C28.1182 27.3787 28.1254 27.3822 28.1325 27.3858C28.1254 27.3858 28.1182 27.3787 28.1075 27.3787C28.1004 27.3858 28.0968 27.3894 28.0897 27.3965C28.0825 27.4037 28.079 27.4072 28.0718 27.4144C28.0682 27.4179 28.0611 27.4251 28.0575 27.4287C28.0504 27.4358 28.0468 27.4394 28.0397 27.4465L28.0218 27.4644C28.0218 27.4644 28.0111 27.4751 28.004 27.4822C28.0004 27.4858 27.9932 27.4929 27.9897 27.4965C27.9825 27.5037 27.979 27.5072 27.9718 27.5144C27.9647 27.5215 27.9611 27.5251 27.954 27.5322C27.5968 27.8965 27.2147 28.2358 26.8111 28.5465C26.7968 28.5572 26.7861 28.5679 26.7718 28.5787C26.5754 28.7287 26.3718 28.8715 26.1647 29.0108C26.154 29.0179 26.1432 29.0251 26.1325 29.0322C25.9432 29.1572 25.7468 29.2751 25.5468 29.3894C25.5182 29.4072 25.4897 29.4215 25.4575 29.4394C25.2432 29.5572 25.029 29.6715 24.804 29.7751C24.7968 29.7751 24.7897 29.7822 24.7825 29.7858C24.5682 29.8858 24.3504 29.9787 24.129 30.0644C24.1004 30.0751 24.0718 30.0894 24.0397 30.1001C23.5682 30.2787 23.0825 30.4287 22.5825 30.5429C22.5682 30.5429 22.554 30.5501 22.5397 30.5537C21.7611 30.7287 20.954 30.8251 20.1254 30.8251H20.1218C18.729 30.8251 17.3968 30.5644 16.1718 30.0894C15.6861 29.9037 15.2182 29.6822 14.7682 29.4322C14.7575 29.4251 14.7468 29.4179 14.7325 29.4108C14.5182 29.2894 14.3075 29.1608 14.1004 29.0251C14.0968 29.0251 14.0897 29.0179 14.0861 29.0144C13.879 28.8787 13.679 28.7358 13.4825 28.5858C13.4611 28.5679 13.4397 28.5537 13.4182 28.5358C13.2432 28.4001 13.0754 28.2608 12.9111 28.1179C12.8861 28.0965 12.8647 28.0787 12.8397 28.0572C12.6647 27.9001 12.4932 27.7394 12.329 27.5715C12.3218 27.5644 12.3147 27.5572 12.304 27.5501C12.2968 27.5429 12.2932 27.5394 12.2861 27.5322C12.279 27.5251 12.2754 27.5215 12.2718 27.5144C12.2682 27.5108 12.2611 27.5037 12.2575 27.4965C12.254 27.4929 12.2504 27.4894 12.2468 27.4858C12.2468 27.4858 12.2432 27.4822 12.2397 27.4787C12.2325 27.4715 12.229 27.4679 12.2218 27.4608C12.2147 27.4537 12.2111 27.4501 12.204 27.4429C12.1968 27.4358 12.1932 27.4322 12.1861 27.4251C12.179 27.4179 12.1754 27.4144 12.1682 27.4072C12.1647 27.4037 12.1611 27.4001 12.154 27.3929C12.1468 27.3858 12.1432 27.3822 12.1361 27.3751C12.129 27.3679 12.1254 27.3644 12.1182 27.3572C12.1147 27.3537 12.1075 27.3465 12.104 27.3429C12.0968 27.3358 12.0932 27.3322 12.0861 27.3251C12.079 27.3179 12.0754 27.3144 12.0682 27.3072C12.0647 27.3037 12.0575 27.2965 12.054 27.2929C12.0468 27.2858 12.0432 27.2822 12.0361 27.2751C12.0325 27.2679 12.0254 27.2644 12.0182 27.2572C12.0147 27.2537 12.0075 27.2465 12.004 27.2429C12.0004 27.2394 11.9932 27.2322 11.9897 27.2287C11.9861 27.2215 11.979 27.2179 11.9754 27.2108C11.9718 27.2072 11.9647 27.2001 11.9611 27.1965C11.9575 27.1894 11.9504 27.1858 11.9468 27.1787C11.9432 27.1715 11.9361 27.1679 11.9325 27.1608C11.929 27.1572 11.9254 27.1501 11.9182 27.1465C11.9147 27.1394 11.9075 27.1358 11.904 27.1287C11.9004 27.1215 11.8932 27.1179 11.8897 27.1108C11.8861 27.1072 11.8825 27.1001 11.879 27.0965C11.8754 27.0894 11.8682 27.0858 11.8647 27.0787C11.8575 27.0715 11.854 27.0644 11.8468 27.0572C11.8432 27.0537 11.8397 27.0465 11.8361 27.0429C11.8325 27.0358 11.8254 27.0322 11.8218 27.0251C11.8218 27.0251 11.8182 27.0215 11.8147 27.0179C11.8147 27.0179 11.8147 27.0179 11.8111 27.0144C11.8111 27.0144 11.8075 27.0108 11.8075 27.0072C11.8075 27.0072 11.8075 27.0072 11.804 27.0037C11.804 27.0037 11.8004 27.0001 11.7968 26.9965C11.7968 26.9965 11.7968 26.9965 11.7932 26.9929C11.7932 26.9929 11.7932 26.9929 11.7897 26.9894C11.7897 26.9894 11.7861 26.9858 11.7825 26.9822C11.7825 26.9822 11.7825 26.9822 11.779 26.9787C11.779 26.9787 11.779 26.9751 11.7718 26.9715C11.7718 26.9715 11.7718 26.9715 11.7682 26.9679C11.7682 26.9679 11.7682 26.9644 11.7647 26.9608C11.7647 26.9608 11.7611 26.9572 11.7575 26.9537C11.7575 26.9537 11.7575 26.9501 11.754 26.9465C11.754 26.9465 11.754 26.9429 11.7504 26.9394C11.7504 26.9394 11.7504 26.9358 11.7468 26.9322C11.7468 26.9322 11.7468 26.9322 11.7432 26.9287C11.7432 26.9287 11.7397 26.9251 11.7361 26.9215C11.7361 26.9215 11.7325 26.9179 11.729 26.9144C11.729 26.9144 11.7254 26.9072 11.7218 26.9072C11.7218 26.9072 11.7218 26.9072 11.7182 26.9037C11.7182 26.9037 11.7147 26.8965 11.7111 26.8965C11.7111 26.8965 11.7111 26.8965 11.7075 26.8929C11.579 26.7394 11.4575 26.5822 11.3397 26.4251C11.3111 26.3858 11.2861 26.3465 11.2575 26.3108C11.1504 26.1608 11.0432 26.0072 10.9432 25.8501C10.9075 25.7965 10.8754 25.7429 10.8397 25.6929C10.7218 25.5072 10.6111 25.3144 10.504 25.1215C10.479 25.0751 10.4575 25.0287 10.4325 24.9822C10.3504 24.8251 10.2718 24.6608 10.1968 24.5001C10.179 24.4608 10.1575 24.4251 10.1432 24.3894C10.1432 24.3894 10.1432 24.3894 10.1468 24.3894C10.1397 24.3715 10.129 24.3501 10.1218 24.3322C10.1182 24.3215 10.1111 24.3072 10.104 24.2965C10.0968 24.2822 10.0897 24.2679 10.0861 24.2537C10.0825 24.2429 10.0754 24.2322 10.0718 24.2179C10.0682 24.2072 10.0611 24.1929 10.0575 24.1822C10.0504 24.1679 10.0468 24.1537 10.0397 24.1358C10.0361 24.1251 10.029 24.1108 10.0254 24.1001C10.0218 24.0894 10.0147 24.0751 10.0111 24.0644C10.004 24.0501 10.0004 24.0358 9.99325 24.0179C9.98968 24.0072 9.98253 23.9929 9.97896 23.9822C9.97539 23.9715 9.96825 23.9572 9.96468 23.9465C9.9611 23.9322 9.95396 23.9215 9.95039 23.9072C9.94325 23.8929 9.93968 23.8787 9.93253 23.8644C9.92896 23.8537 9.92182 23.8394 9.91825 23.8287C9.91468 23.8144 9.90753 23.8037 9.90396 23.7894C9.89682 23.7751 9.89325 23.7608 9.88611 23.7465C9.88253 23.7322 9.87539 23.7215 9.87182 23.7072C9.86825 23.6929 9.86111 23.6787 9.85753 23.6644C9.85039 23.6501 9.84682 23.6322 9.84325 23.6179C9.83968 23.6037 9.83253 23.5894 9.82896 23.5787C9.82539 23.5644 9.81825 23.5501 9.81468 23.5394C9.8111 23.5251 9.80396 23.5144 9.80039 23.5001C9.79325 23.4858 9.78968 23.4679 9.78253 23.4537C9.77896 23.4394 9.77182 23.4251 9.76825 23.4108C9.76468 23.3965 9.75753 23.3858 9.75396 23.3715C9.74682 23.3537 9.74325 23.3394 9.73611 23.3215C9.73253 23.3072 9.72539 23.2929 9.72182 23.2787C9.71825 23.2644 9.71111 23.2537 9.70753 23.2394C9.70396 23.2215 9.69682 23.2072 9.68968 23.1894C9.6861 23.1751 9.68253 23.1608 9.67539 23.1429C9.67182 23.1287 9.66825 23.1144 9.6611 23.1001C9.65396 23.0822 9.65039 23.0644 9.64682 23.0465C9.63968 23.0251 9.63253 23.0001 9.62896 22.9787C9.62182 22.9572 9.61468 22.9322 9.60753 22.9108C9.60039 22.8858 9.59325 22.8608 9.58611 22.8358C9.57896 22.8144 9.57182 22.7929 9.56825 22.7715C9.5611 22.7465 9.55396 22.7215 9.54682 22.7001C9.53968 22.6751 9.53611 22.6537 9.52896 22.6287C9.52182 22.6001 9.51825 22.5751 9.5111 22.5465C9.50396 22.5215 9.50039 22.4965 9.49325 22.4715C9.48611 22.4429 9.47896 22.4179 9.47539 22.3894C9.46825 22.3644 9.46468 22.3429 9.45753 22.3179C9.45039 22.2929 9.44682 22.2679 9.43968 22.2429C9.43253 22.2144 9.42539 22.1894 9.42182 22.1608C9.41468 22.1322 9.41111 22.1072 9.40753 22.0787C9.40039 22.0465 9.39682 22.0179 9.38968 21.9858C9.3861 21.9572 9.37896 21.9322 9.37539 21.9037C9.37182 21.8751 9.36468 21.8429 9.3611 21.8144C9.35753 21.7894 9.35039 21.7608 9.34682 21.7358C9.34325 21.7108 9.3361 21.6822 9.33253 21.6572C9.32896 21.6251 9.32182 21.5929 9.31825 21.5608C9.31468 21.5322 9.3111 21.5001 9.30753 21.4715C9.30396 21.4394 9.30039 21.4072 9.29325 21.3751C9.28968 21.3465 9.28611 21.3144 9.28253 21.2858C9.27896 21.2501 9.27182 21.2179 9.26825 21.1858C9.26825 21.1537 9.26111 21.1251 9.25753 21.0929C9.25753 21.0572 9.25396 21.0251 9.25039 20.9894C9.25039 20.9537 9.24682 20.9179 9.24325 20.8822C9.24325 20.8501 9.23968 20.8179 9.23611 20.7858C9.23611 20.7501 9.22896 20.7144 9.22896 20.6787C9.22896 20.6465 9.22182 20.6108 9.22182 20.5787C9.22182 20.5394 9.22182 20.5037 9.21825 20.4644C9.21825 20.4287 9.21825 20.3894 9.21825 20.3501C9.21468 20.2251 9.20753 20.0965 9.20753 19.9715C9.20753 13.9608 14.1004 9.08223 20.1397 9.08223C26.179 9.08223 31.0754 13.9572 31.0754 19.9715C31.0754 20.0215 31.0754 20.0715 31.0718 20.1215L31.0647 20.1072Z" fill="white"/>
<path d="M20.1315 22.7035H20.135C23.8458 22.7035 27.285 23.3249 30.1243 24.3821C29.7208 25.2785 29.1993 26.1106 28.5815 26.8571C28.5815 26.8571 28.585 26.8571 28.5886 26.8606C29.2208 26.0963 29.7458 25.2428 30.1493 24.3249C29.1815 21.1499 25.0565 18.4678 20.1315 18.4678C15.2065 18.4678 11.0886 21.1499 10.1172 24.3213C10.1243 24.3392 10.135 24.3606 10.1422 24.3785C12.9886 23.3213 16.4243 22.6999 20.1315 22.6999V22.7035Z" fill="white"/>
<path d="M30.1244 24.3827C27.2851 23.3255 23.8458 22.7041 20.1351 22.7041H20.1315C16.4244 22.7041 12.9887 23.3255 10.1422 24.3827C10.1422 24.3827 10.1422 24.3827 10.1387 24.3827C10.1565 24.422 10.178 24.4577 10.1922 24.4934C10.2672 24.6577 10.3458 24.8184 10.428 24.9755C10.453 25.022 10.4744 25.0684 10.4994 25.1148C10.6065 25.3077 10.7172 25.5005 10.8351 25.6862C10.8672 25.7398 10.903 25.7934 10.9387 25.8434C11.0387 26.0005 11.1458 26.1541 11.253 26.3041C11.2815 26.3434 11.3065 26.3827 11.3351 26.4184C11.453 26.5791 11.5744 26.7362 11.703 26.8862C11.703 26.8862 11.703 26.8862 11.7065 26.8898C11.7065 26.8898 11.7101 26.897 11.7137 26.897C11.7137 26.897 11.7137 26.897 11.7172 26.9005C11.7172 26.9005 11.7208 26.9077 11.7244 26.9077C11.7244 26.9077 11.728 26.9112 11.7315 26.9148C11.7315 26.9148 11.7351 26.9184 11.7387 26.922C11.7387 26.922 11.7387 26.922 11.7422 26.9255C11.7422 26.9255 11.7422 26.9291 11.7458 26.9327C11.7458 26.9327 11.7458 26.9362 11.7494 26.9398C11.7494 26.9398 11.7494 26.9434 11.753 26.947C11.753 26.947 11.7565 26.9505 11.7601 26.9541C11.7601 26.9541 11.7601 26.9577 11.7637 26.9612C11.7637 26.9612 11.7637 26.9612 11.7672 26.9648C11.7672 26.9648 11.7672 26.9684 11.7744 26.972C11.7744 26.972 11.7744 26.972 11.778 26.9755C11.778 26.9755 11.7815 26.9791 11.7851 26.9827C11.7851 26.9827 11.7851 26.9827 11.7887 26.9862C11.7887 26.9862 11.7887 26.9862 11.7922 26.9898C11.7922 26.9898 11.7958 26.9934 11.7994 26.997C11.7994 26.997 11.7994 26.997 11.803 27.0005C11.803 27.0005 11.8065 27.0041 11.8065 27.0077C11.8065 27.0077 11.8065 27.0077 11.8101 27.0112C11.8101 27.0112 11.8137 27.0148 11.8172 27.0184C11.8208 27.0255 11.828 27.0291 11.8315 27.0362C11.8351 27.0398 11.8387 27.047 11.8422 27.0505C11.8494 27.0577 11.853 27.0648 11.8601 27.072C11.8637 27.0791 11.8708 27.0827 11.8744 27.0898C11.878 27.0934 11.8815 27.1005 11.8851 27.1041C11.8887 27.1112 11.8958 27.1148 11.8994 27.122C11.903 27.1291 11.9101 27.1327 11.9137 27.1398C11.9172 27.1434 11.9208 27.1505 11.928 27.1541C11.9315 27.1612 11.9387 27.1648 11.9422 27.172C11.9458 27.1791 11.953 27.1827 11.9565 27.1898C11.9601 27.1934 11.9672 27.2005 11.9708 27.2041C11.9744 27.2112 11.9815 27.2148 11.9851 27.222C11.9887 27.2255 11.9958 27.2327 11.9994 27.2362C12.003 27.2398 12.0101 27.247 12.0137 27.2505C12.0172 27.2577 12.0244 27.2612 12.0315 27.2684C12.0387 27.2755 12.0422 27.2791 12.0494 27.2862C12.053 27.2898 12.0601 27.297 12.0637 27.3005C12.0708 27.3077 12.0744 27.3112 12.0815 27.3184C12.0887 27.3255 12.0922 27.3291 12.0994 27.3362C12.103 27.3398 12.1101 27.347 12.1137 27.3505C12.1208 27.3577 12.1244 27.3612 12.1315 27.3684C12.1387 27.3755 12.1422 27.3791 12.1494 27.3862C12.153 27.3898 12.1565 27.3934 12.1637 27.4005C12.1708 27.4077 12.1744 27.4112 12.1815 27.4184C12.1887 27.4255 12.1922 27.4291 12.1994 27.4362C12.2065 27.4434 12.2101 27.447 12.2172 27.4541C12.2244 27.4612 12.228 27.4648 12.2351 27.472C12.2351 27.472 12.2387 27.4755 12.2422 27.4791C12.2458 27.4827 12.2494 27.4862 12.253 27.4898C12.2565 27.4934 12.2637 27.5005 12.2672 27.5077C12.2744 27.5148 12.278 27.5184 12.2815 27.5255C12.2887 27.5327 12.2922 27.5362 12.2994 27.5434C12.3065 27.5505 12.3137 27.5577 12.3244 27.5648C12.4887 27.7327 12.6601 27.8934 12.8351 28.0505C12.8565 28.072 12.8815 28.0898 12.9065 28.1112C13.0708 28.2541 13.2422 28.397 13.4137 28.5291C13.4351 28.547 13.4565 28.5612 13.478 28.5791C13.6744 28.7291 13.8744 28.872 14.0815 29.0077C14.0851 29.0077 14.0922 29.0148 14.0958 29.0184C14.303 29.1541 14.5137 29.2827 14.728 29.4041C14.7387 29.4112 14.7494 29.4184 14.7637 29.4255C15.2137 29.6755 15.6815 29.897 16.1672 30.0827C17.3922 30.5541 18.7244 30.8184 20.1172 30.8184C20.9458 30.8184 21.7565 30.722 22.5315 30.547C22.5458 30.547 22.5601 30.5398 22.5744 30.5362C23.0744 30.422 23.5601 30.2755 24.0315 30.0934C24.0601 30.0827 24.0887 30.072 24.1208 30.0577C24.3422 29.972 24.5601 29.8791 24.7744 29.7791C24.7815 29.7791 24.7887 29.772 24.7958 29.7684C25.0172 29.6648 25.2351 29.5505 25.4494 29.4327C25.478 29.4148 25.5065 29.4005 25.5387 29.3827C25.7387 29.2684 25.9315 29.1505 26.1244 29.0255C26.1351 29.0184 26.1458 29.0112 26.1565 29.0041C26.3637 28.8684 26.5672 28.722 26.7637 28.572C26.778 28.5612 26.7922 28.5505 26.803 28.5398C27.2065 28.2291 27.5887 27.8898 27.9458 27.5255C27.953 27.5184 27.9565 27.5148 27.9637 27.5077C27.9708 27.5005 27.9744 27.497 27.9815 27.4898C27.9851 27.4862 27.9922 27.4791 27.9958 27.4755C28.003 27.4684 28.0065 27.4648 28.0137 27.4577L28.0315 27.4398C28.0315 27.4398 28.0422 27.4291 28.0494 27.422C28.053 27.4184 28.0601 27.4112 28.0637 27.4077C28.0708 27.4005 28.0744 27.397 28.0815 27.3898C28.0887 27.3827 28.0922 27.3791 28.0994 27.372C28.1065 27.372 28.1137 27.3791 28.1244 27.3791C28.1172 27.3755 28.1101 27.372 28.103 27.3684C28.103 27.3684 28.1101 27.3612 28.1137 27.3577C28.1208 27.3505 28.128 27.3434 28.1315 27.3362C28.1351 27.3327 28.1422 27.3255 28.1458 27.322C28.1494 27.3184 28.1565 27.3112 28.1601 27.3077C28.1637 27.3005 28.1708 27.297 28.1744 27.2898C28.1815 27.2827 28.1851 27.2791 28.1922 27.272C28.1958 27.2684 28.203 27.2612 28.2065 27.2577C28.2101 27.2541 28.2172 27.247 28.2208 27.2434C28.228 27.2362 28.2315 27.2291 28.2387 27.222C28.2422 27.2184 28.2458 27.2112 28.253 27.2077C28.2565 27.2041 28.2637 27.197 28.2672 27.1934C28.2708 27.1862 28.278 27.1827 28.2815 27.1755C28.2851 27.1684 28.2922 27.1648 28.2958 27.1577C28.2994 27.1505 28.3065 27.147 28.3101 27.1398C28.3137 27.1327 28.3208 27.1291 28.3244 27.122C28.328 27.1184 28.3315 27.1112 28.3351 27.1077C28.3387 27.1041 28.3458 27.097 28.3494 27.0934C28.3565 27.0862 28.3601 27.0791 28.3672 27.0755C28.3708 27.072 28.378 27.0648 28.3815 27.0612L28.3958 27.047C28.3958 27.047 28.4065 27.0362 28.4101 27.0291C28.4101 27.0291 28.4137 27.0255 28.4172 27.022C28.4172 27.022 28.4172 27.022 28.4208 27.0184C28.4208 27.0184 28.4208 27.0148 28.4244 27.0112C28.4244 27.0112 28.4244 27.0112 28.428 27.0077C28.428 27.0077 28.428 27.0077 28.4315 27.0041C28.4315 27.0041 28.4315 27.0041 28.4351 27.0005C28.4351 27.0005 28.4351 26.997 28.4387 26.9934C28.4387 26.9934 28.4422 26.9898 28.4458 26.9862C28.4458 26.9862 28.4458 26.9862 28.4494 26.9827C28.4494 26.9827 28.453 26.9791 28.4565 26.9755C28.4565 26.9755 28.4601 26.972 28.4637 26.9684C28.4637 26.9684 28.4672 26.9648 28.4708 26.9612C28.4708 26.9612 28.4744 26.9541 28.478 26.9541C28.478 26.9541 28.478 26.9505 28.4815 26.947C28.4815 26.947 28.4851 26.9434 28.4887 26.9398C28.4887 26.9398 28.4887 26.9398 28.4922 26.9362C28.4922 26.9362 28.4958 26.9327 28.4994 26.9291C28.4994 26.9291 28.4994 26.9255 28.503 26.922C28.503 26.922 28.5065 26.9148 28.5101 26.9148C28.5101 26.9148 28.5137 26.9112 28.5172 26.9077C28.5172 26.9077 28.5208 26.9041 28.5244 26.9005C28.5244 26.9005 28.528 26.897 28.5315 26.8934C28.5315 26.8934 28.5351 26.8898 28.5387 26.8862C28.5387 26.8862 28.5422 26.8827 28.5458 26.8791C28.5458 26.8791 28.5494 26.8755 28.553 26.872C28.553 26.872 28.5565 26.8684 28.5601 26.8648C28.5601 26.8648 28.5637 26.8577 28.5672 26.8577C28.5672 26.8577 28.5672 26.8577 28.5708 26.8541C28.5708 26.8541 28.5672 26.8541 28.5637 26.8505C29.1815 26.1005 29.703 25.272 30.1065 24.3755L30.1244 24.3827Z" fill="#0367B3"/>
</g>
<defs>
<clipPath id="clip0_8925_96993">
<rect width="40" height="40" fill="white"/>
</clipPath>
</defs>
</svg>
