<svg width="40" height="40" viewBox="0 0 40 40" fill="none" xmlns="http://www.w3.org/2000/svg">
<g clip-path="url(#clip0_8925_96990)">
<path d="M0 20C0 21.1776 0 21.3084 0.0280636 22.3084C0.1029 24.5234 0.336763 27.0654 1.22544 29.7476C1.8522 31.6449 3.03087 33.6916 4.20954 34.9813C5.70629 36.6261 7.77361 37.9718 10.0094 38.7382C12.2919 39.5232 14.7615 39.9064 19.5603 40H20.449C25.2573 39.8971 27.7175 39.5232 30 38.7382C32.2358 37.9718 34.2938 36.6261 35.7904 34.9813C36.9693 33.6823 38.1479 31.6449 38.7746 29.7476C39.6632 27.0654 39.9064 24.514 39.9718 22.3084C40 21.3178 40 21.1776 40 20C40 18.8224 40 18.6916 39.9718 17.6916C39.8971 15.4766 39.6632 12.9346 38.7746 10.2523C38.1479 8.35514 36.9693 6.30839 35.7904 5.01868C34.2938 3.37383 32.2264 2.02804 30 1.26168C27.7175 0.476636 25.2479 0.0934579 20.449 0H19.5603C14.7521 0.102804 12.2919 0.476636 10.0094 1.26168C7.77361 2.02804 5.71561 3.37383 4.20954 5.01868C3.03087 6.31775 1.8522 8.35514 1.22544 10.2523C0.346118 12.9346 0.1029 15.4766 0.0280636 17.6916C0 18.6823 0 18.8224 0 20Z" fill="#1585B4"/>
<path d="M12.4154 6.85021C12.0312 7.02632 11.6859 7.27732 11.3999 7.58857C11.1139 7.89978 10.8929 8.265 10.7498 8.66275L5.43733 23.7384C5.29836 24.1284 5.24279 24.5432 5.27411 24.9561C5.30543 25.3689 5.42301 25.7706 5.61918 26.1352C6.02704 26.8912 6.71718 27.4553 7.53918 27.7046L24.9567 33.2277C25.7941 33.4931 26.701 33.4314 27.4948 33.0552C27.8791 32.8795 28.2242 32.6285 28.51 32.3172C28.7957 32.0059 29.0163 31.6406 29.1586 31.2427L34.4711 16.169C34.6035 15.7705 34.6538 15.3494 34.619 14.9309C34.5842 14.5125 34.465 14.1054 34.2686 13.7343C34.0722 13.3632 33.8026 13.0357 33.4761 12.7716C33.1497 12.5075 32.7731 12.3123 32.3692 12.1977L14.9517 6.6765C14.1146 6.412 13.2085 6.47335 12.4148 6.84835" fill="white"/>
<path d="M20.9285 21.3324C19.9575 22.359 18.7616 23.1465 17.4348 23.633L16.6479 23.9218V16.9343L17.4248 17.2186C18.7529 17.7019 19.9509 18.4864 20.9248 19.5105C21.6196 18.4602 22.0289 17.247 22.1123 15.9905C22.1847 14.3645 21.7321 12.7584 20.8215 11.4094C19.9109 10.0604 18.5905 9.04011 17.0554 8.49922L14.541 7.70865C14.0071 7.53307 13.426 7.57061 12.9191 7.81347C12.4122 8.05629 12.0188 8.48561 11.821 9.01172L6.49355 24.0967C6.40887 24.3584 6.37801 24.6345 6.40287 24.9085C6.42773 25.1824 6.50776 25.4484 6.63816 25.6906C6.76855 25.9328 6.94658 26.146 7.16158 26.3175C7.37662 26.489 7.62408 26.6153 7.88919 26.6886L19.9792 30.5011C21.2442 29.2456 22.0077 27.5719 22.1267 25.7936C22.2285 24.2156 21.8074 22.6481 20.9285 21.3336M13.941 24.3505H12.7392V16.5186H13.941V24.3505Z" fill="#008AD3"/>
<path d="M20.2288 20.4213C19.544 19.6596 18.719 19.0368 17.7988 18.5869V22.2663C18.7208 21.8144 19.5461 21.1882 20.2288 20.4213Z" fill="#EC4315"/>
<path d="M31.9844 13.209L20.8906 9.70898C22.2795 11.1058 23.1234 12.953 23.2702 14.9173C23.4171 16.8816 22.8571 18.8337 21.6913 20.4215C22.8263 21.9563 23.3939 23.8372 23.2975 25.7436C23.2011 27.6501 22.4466 29.4641 21.1625 30.8765L25.3313 32.189C25.8655 32.3633 26.4464 32.3248 26.953 32.0813C27.4595 31.8378 27.8525 31.4083 28.05 30.8821L33.3788 15.8021C33.4629 15.5403 33.4933 15.2641 33.4681 14.9903C33.4429 14.7164 33.3628 14.4504 33.2323 14.2082C33.1019 13.9661 32.9239 13.7528 32.709 13.5811C32.4942 13.4094 32.2468 13.2828 31.9819 13.209M29.0444 24.3246L27.5444 24.3309L24.4631 20.4121L27.5919 16.4965L29.1025 16.4915L25.9675 20.4178L29.0444 24.3246Z" fill="#004593"/>
</g>
<defs>
<clipPath id="clip0_8925_96990">
<rect width="40" height="40" fill="white"/>
</clipPath>
</defs>
</svg>
