<svg width="40" height="40" viewBox="0 0 40 40" fill="none" xmlns="http://www.w3.org/2000/svg">
<g clip-path="url(#clip0_8925_96974)">
<path d="M0 20C0 21.1694 0 21.3093 0.0300075 22.3088C0.0700175 24.8276 0.470118 27.3363 1.23031 29.7451C1.88047 31.6642 2.89072 33.4433 4.21104 34.9825C5.80146 36.6918 7.79196 37.9811 10.0025 38.7407C12.2831 39.5204 14.7537 39.9 19.5549 40H20.4451C25.2463 39.9 27.7169 39.5204 29.9975 38.7407C32.208 37.9811 34.1985 36.6918 35.7889 34.9825C37.1093 33.4433 38.1296 31.6742 38.7696 29.7451C39.53 27.3363 39.94 24.8376 39.97 22.3088C40 21.3193 40 21.1794 40 20C40 18.8206 40 18.6907 39.97 17.6912C39.94 15.1724 39.53 12.6637 38.7696 10.2549C38.1196 8.33585 37.1093 6.55671 35.7889 5.01749C34.1985 3.30835 32.208 2.01899 29.9975 1.25937C27.7169 0.469766 25.2463 0.0999501 20.4451 0H19.5549C14.7537 0.0999501 12.2831 0.479759 10.0025 1.25937C7.79196 2.01899 5.80146 3.30835 4.21104 5.01749C2.89072 6.55671 1.87047 8.32585 1.23031 10.2549C0.470118 12.6637 0.0700175 15.1724 0.0300075 17.6912C0 18.6807 0 18.8206 0 20Z" fill="#143B9B"/>
<path d="M9.53461 19.8192L11.3444 18.6048V17.2217L7.5 19.8079L11.3444 22.4279V21.0448L9.53461 19.8079V19.8192Z" fill="white"/>
<path d="M32.4994 19.8528L19.9993 11.4307L11.3438 17.2328V18.6159L19.9993 12.8137L30.4647 19.8641L19.9993 26.9593L11.3438 21.056V22.4391L19.9993 28.3424L32.4994 19.8641V19.8528Z" fill="white"/>
<path d="M23.248 19.1555L23.9 19.5827L17.5938 23.9681L20.0555 25.6323L28.52 19.8301L22.6635 15.8945L20.5726 17.3788L21.382 17.9186H21.3932L23.2592 19.1555H23.248ZM22.6635 16.0182L28.3514 19.8414L20.0443 25.5311L17.7511 23.9794L24.0686 19.594L20.7412 17.3901L22.6635 16.0295V16.0182Z" fill="white"/>
<path d="M17.752 23.968L20.0563 25.5197L28.3635 19.83L22.6755 16.0068L20.7421 17.3787L24.0694 19.5826L17.752 23.968ZM20.8994 17.3787L22.6643 16.1305L28.1836 19.8412L20.0451 25.4185L17.9093 23.9792L24.2268 19.5938L20.8994 17.3899V17.3787Z" fill="white"/>
<path d="M16.9089 23.5074L23.2488 19.167L21.3828 17.9301L19.9664 18.8634L18.3477 17.7952L21.8887 15.3664L19.9552 14.0508L11.502 19.8417L16.9089 23.5074ZM18.1903 19.9766L16.7852 20.9324L15.3127 19.9317L16.7178 18.9759L18.1903 19.9766Z" fill="white"/>
<path d="M23.2483 19.1554L21.3823 17.9072H21.3711L23.2371 19.1554H23.2483Z" fill="white"/>
</g>
<defs>
<clipPath id="clip0_8925_96974">
<rect width="40" height="40" fill="white"/>
</clipPath>
</defs>
</svg>
