<svg width="40" height="40" viewBox="0 0 40 40" fill="none" xmlns="http://www.w3.org/2000/svg">
<g clip-path="url(#clip0_8925_96986)">
<path d="M0 20C0 21.1776 0 21.3084 0.0280636 22.3084C0.1029 24.5234 0.336763 27.0654 1.22544 29.7476C1.8522 31.6449 3.03087 33.6916 4.20954 34.9813C5.70629 36.6261 7.77361 37.9718 10.0094 38.7382C12.2919 39.5232 14.7615 39.9064 19.5603 40H20.449C25.2573 39.8971 27.7175 39.5232 30 38.7382C32.2358 37.9718 34.2938 36.6261 35.7904 34.9813C36.9693 33.6823 38.1479 31.6449 38.7746 29.7476C39.6632 27.0654 39.9064 24.514 39.9718 22.3084C40 21.3178 40 21.1776 40 20C40 18.8224 40 18.6916 39.9718 17.6916C39.8971 15.4766 39.6632 12.9346 38.7746 10.2523C38.1479 8.35514 36.9693 6.30839 35.7904 5.01868C34.2938 3.37383 32.2264 2.02804 30 1.26168C27.7175 0.476636 25.2479 0.0934579 20.449 0H19.5603C14.7521 0.102804 12.2919 0.476636 10.0094 1.26168C7.77361 2.02804 5.71561 3.37383 4.20954 5.01868C3.03087 6.31775 1.8522 8.35514 1.22544 10.2523C0.346118 12.9346 0.1029 15.4766 0.0280636 17.6916C0 18.6823 0 18.8224 0 20Z" fill="#009E9F"/>
<path d="M20 40C31.0457 40 40 31.0457 40 20C40 8.95432 31.0457 0 20 0C8.95432 0 0 8.95432 0 20C0 31.0457 8.95432 40 20 40Z" fill="#009E9F"/>
<mask id="mask0_8925_96986" style="mask-type:luminance" maskUnits="userSpaceOnUse" x="0" y="0" width="40" height="40">
<path d="M20 40C31.0457 40 40 31.0457 40 20C40 8.95432 31.0457 0 20 0C8.95432 0 0 8.95432 0 20C0 31.0457 8.95432 40 20 40Z" fill="white"/>
</mask>
<g mask="url(#mask0_8925_96986)">
<path d="M23.5365 21.8934C23.4879 21.5816 23.3983 21.2777 23.27 20.9893C22.9046 20.1268 22.2764 19.4016 21.4749 18.9168C20.8431 18.5441 20.1219 18.3498 19.3883 18.3546C18.6547 18.3594 17.9362 18.5631 17.3093 18.944C16.724 19.2933 16.2487 19.7999 15.9374 20.4062C15.8331 20.6122 15.7461 20.8265 15.6774 21.047C15.4864 21.62 15.4131 22.2258 15.4619 22.8278C15.5107 23.4299 15.6806 24.0159 15.9613 24.5507C16.1564 24.8774 16.4512 25.1329 16.8023 25.2796C16.9779 25.35 17.1673 25.3791 17.3559 25.3648C17.5445 25.3504 17.7273 25.293 17.8902 25.1969C18.0709 25.0578 18.206 24.8682 18.2786 24.6521C18.3512 24.436 18.3578 24.2032 18.2977 23.9833C18.1557 23.4252 18.1694 22.8387 18.3374 22.2878C18.401 22.1072 18.5037 21.9428 18.6382 21.8064C18.7726 21.6834 18.9324 21.5916 19.1064 21.5374C19.2803 21.4833 19.464 21.4681 19.6445 21.4931C19.8558 21.5385 20.0535 21.6333 20.2213 21.7695C20.389 21.9059 20.5223 22.0799 20.61 22.2775C20.7812 22.6739 20.87 23.1011 20.8711 23.5329C20.8772 25.4339 20.5944 27.3247 20.0323 29.1406C19.9823 29.3272 19.9312 29.51 19.879 29.6954C19.8393 29.8369 19.7658 30.0218 19.8561 30.1568C19.8972 30.214 19.9538 30.2584 20.0193 30.2846C20.1463 30.321 20.2815 30.3168 20.406 30.2726C20.5306 30.2284 20.6383 30.1465 20.714 30.0381C21.7779 28.9037 22.5624 27.5365 23.0051 26.0455C23.1895 25.4989 23.3365 24.9404 23.4452 24.3739C23.6152 23.5583 23.6435 22.7197 23.5289 21.8945" fill="white"/>
<path d="M31.4273 13.2448C31.4245 13.1822 31.4094 13.1207 31.3827 13.064C31.356 13.0072 31.3184 12.9563 31.272 12.9142C31.2256 12.8721 31.1713 12.8396 31.1122 12.8185C31.0532 12.7975 30.9906 12.7884 30.928 12.7917H30.9089C30.639 12.83 30.3772 12.9122 30.1337 13.0348C25.1929 14.796 19.8903 15.2952 14.7075 14.4872C13.8339 14.3594 12.9484 14.1842 12.0693 14.0488C11.5199 13.9639 10.9765 13.8388 10.4217 13.7991C9.92339 13.7011 9.4065 13.7985 8.978 14.0711C8.75885 14.311 8.62275 14.6151 8.58982 14.9384C8.55689 15.2617 8.62896 15.587 8.79525 15.8661C9.1711 16.5036 9.7136 17.0264 10.3645 17.3784C10.9678 17.8057 11.6821 18.0487 12.4207 18.0779C14.3735 17.9535 16.3204 17.7651 18.2613 17.5127C21.6342 17.2395 24.9574 16.5298 28.1477 15.4016C29.1791 14.9953 30.1515 14.4529 31.0389 13.7888C31.1967 13.668 31.4246 13.4733 31.4246 13.2448" fill="white"/>
<path d="M17.5234 11.5869C17.5234 12.0928 17.7244 12.578 18.0822 12.9358C18.4399 13.2936 18.9252 13.4945 19.4312 13.4945C19.9371 13.4945 20.4223 13.2936 20.78 12.9358C21.1378 12.578 21.3388 12.0928 21.3388 11.5869C21.3381 11.4305 21.3032 11.2763 21.2365 11.1348C21.0733 10.79 20.8867 10.6219 20.9063 10.2101C20.9303 9.65308 20.2117 9.64494 19.825 9.64494C19.3954 9.63151 18.9685 9.71618 18.5765 9.89243C18.2729 10.0466 18.015 10.2776 17.8286 10.5626C17.6396 10.857 17.5348 11.1975 17.5256 11.5471V11.5901" fill="white"/>
</g>
</g>
<defs>
<clipPath id="clip0_8925_96986">
<rect width="40" height="40" fill="white"/>
</clipPath>
</defs>
</svg>
