<svg width="40" height="40" viewBox="0 0 40 40" fill="none" xmlns="http://www.w3.org/2000/svg">
<g clip-path="url(#clip0_8925_96970)">
<path d="M0 20C0 21.1776 0 21.3084 0.0280636 22.3084C0.1029 24.5234 0.336763 27.0654 1.22544 29.7476C1.8522 31.6449 3.03087 33.6916 4.20954 34.9813C5.70629 36.6261 7.77361 37.9718 10.0094 38.7382C12.2919 39.5232 14.7615 39.9064 19.5603 40H20.449C25.2573 39.8971 27.7175 39.5232 30 38.7382C32.2358 37.9718 34.2938 36.6261 35.7904 34.9813C36.9693 33.6823 38.1479 31.6449 38.7746 29.7476C39.6632 27.0654 39.9064 24.514 39.9718 22.3084C40 21.3178 40 21.1776 40 20C40 18.8224 40 18.6916 39.9718 17.6916C39.8971 15.4766 39.6632 12.9346 38.7746 10.2523C38.1479 8.35514 36.9693 6.30839 35.7904 5.01868C34.2938 3.37383 32.2264 2.02804 30 1.26168C27.7175 0.476636 25.2479 0.0934579 20.449 0H19.5603C14.7521 0.102804 12.2919 0.476636 10.0094 1.26168C7.77361 2.02804 5.71561 3.37383 4.20954 5.01868C3.03087 6.31775 1.8522 8.35514 1.22544 10.2523C0.346118 12.9346 0.1029 15.4766 0.0280636 17.6916C0 18.6823 0 18.8224 0 20Z" fill="#48AF36"/>
<mask id="mask0_8925_96970" style="mask-type:luminance" maskUnits="userSpaceOnUse" x="9" y="11" width="22" height="18">
<path d="M30.7137 11.4287H9.28516V28.5716H30.7137V11.4287Z" fill="white"/>
</mask>
<g mask="url(#mask0_8925_96970)">
<path d="M29.9325 15.428C28.8164 14.2933 26.9656 14.4886 25.8774 15.6419C24.4544 17.13 23.3569 17.688 22.0456 17.6322C20.2134 17.5485 19.3019 16.1348 18.3625 14.3398C17.386 12.4704 15.8793 11.4287 14.0005 11.4287C11.0523 11.4287 9.28516 13.819 9.28516 16.4789C9.28516 20.5805 12.1683 23.0266 14.1587 24.0589C15.8142 24.9239 17.6557 25.2866 19.3019 25.3238C19.2089 26.3004 18.9206 27.5931 18.595 28.5139H21.9712C21.6363 27.5931 21.348 26.1981 21.255 25.2122C26.1936 24.5705 28.5467 22.329 29.8302 20.1899C30.4068 19.2505 30.7137 18.274 30.7137 17.3997C30.7137 16.637 30.4626 15.9395 29.9325 15.4094M14.0284 17.9763C13.0705 18.0321 12.252 17.316 12.1869 16.358C12.1311 15.4094 12.8473 14.5816 13.8052 14.5258C14.7539 14.4607 15.5724 15.1955 15.6282 16.1441C15.6933 17.0928 14.9678 17.9205 14.0192 17.9763" fill="white"/>
</g>
</g>
<defs>
<clipPath id="clip0_8925_96970">
<rect width="40" height="40" fill="white"/>
</clipPath>
</defs>
</svg>
