<svg width="40" height="40" viewBox="0 0 40 40" fill="none" xmlns="http://www.w3.org/2000/svg">
<g clip-path="url(#clip0_8925_96979)">
<mask id="mask0_8925_96979" style="mask-type:luminance" maskUnits="userSpaceOnUse" x="0" y="0" width="40" height="40">
<path d="M40 0H0V40H40V0Z" fill="white"/>
</mask>
<g mask="url(#mask0_8925_96979)">
<path d="M0 20C0 21.1776 0 21.3084 0.0280636 22.3084C0.1029 24.5234 0.336763 27.0654 1.22544 29.7476C1.8522 31.6449 3.03087 33.6916 4.20954 34.9813C5.70625 36.6261 7.77361 37.9718 10.0094 38.7382C12.2919 39.5232 14.7615 39.9064 19.5603 40H20.449C25.2573 39.8971 27.7175 39.5232 30 38.7382C32.2358 37.9718 34.2937 36.6261 35.7904 34.9813C36.9693 33.6823 38.1479 31.6449 38.7746 29.7476C39.6632 27.0654 39.9064 24.514 39.9718 22.3084C40 21.3178 40 21.1776 40 20C40 18.8224 40 18.6916 39.9718 17.6916C39.8971 15.4766 39.6632 12.9346 38.7746 10.2523C38.1479 8.35514 36.9693 6.30839 35.7904 5.01868C34.2937 3.37383 32.2264 2.02804 30 1.26168C27.7175 0.476636 25.2479 0.0934579 20.449 0H19.5603C14.7521 0.102804 12.2919 0.476636 10.0094 1.26168C7.77361 2.02804 5.71561 3.37383 4.20954 5.01868C3.03087 6.31775 1.8522 8.35514 1.22544 10.2523C0.346118 12.9346 0.1029 15.4766 0.0280636 17.6916C0 18.6823 0 18.8224 0 20Z" fill="#0A1E5A"/>
<mask id="mask1_8925_96979" style="mask-type:luminance" maskUnits="userSpaceOnUse" x="6" y="13" width="29" height="14">
<path d="M34.9992 13.2139H6.42773V26.4282H34.9992V13.2139Z" fill="white"/>
</mask>
<g mask="url(#mask1_8925_96979)">
<path d="M23.1893 21.451C23.9393 21.451 24.3559 21.5572 24.3671 22.0592C24.3719 22.335 24.1846 22.6557 23.9812 22.8129C23.5227 23.1671 23.1199 23.2048 20.9678 23.2048H10.3502L12.4015 14.6397H8.85405C8.61723 14.6397 8.52823 14.7076 8.45762 14.9891L6.51284 23.0171C6.14687 24.6129 6.97023 26.0725 8.80852 26.0725C10.6465 26.0725 12.1179 26.0725 13.6789 26.0725C14.9123 26.0725 16.5635 24.726 17.2333 23.4821C17.2698 23.4136 17.2933 23.3695 17.3211 23.3122C17.3211 23.3122 17.3353 23.295 17.3395 23.3198C17.3395 23.321 17.3401 23.321 17.3401 23.321C17.2333 23.7681 16.8604 25.3487 16.7992 25.6061C16.7207 25.9419 16.8957 26.0692 17.0571 26.0692C17.0571 26.0692 21.0282 26.0692 22.2968 26.0692C26.7406 26.0692 28.4748 23.9554 28.6272 21.4175C28.712 19.9913 27.8099 19.0687 25.2572 19.0687C25.2572 19.0687 23.9948 19.0687 23.2967 19.0687C22.5994 19.0687 21.8853 18.8394 21.8853 18.2738C21.8853 17.7068 22.6607 17.2148 23.7139 17.2148H28.4854C28.4854 17.2148 28.9026 15.5442 28.985 15.1948C29.0882 14.7553 28.9561 14.6279 28.635 14.6279H22.7373C19.3118 14.6279 17.7746 16.9191 17.7746 18.5531C17.7746 20.189 19.0927 21.4483 22.4929 21.4483L23.1893 21.451Z" fill="white"/>
<path d="M25.5059 13.2139H34.9984L30.1159 15.7219C30.1159 15.7219 30.3126 14.9004 30.3718 14.656C30.433 14.3957 30.3506 14.1998 29.9829 14.1256C29.6172 14.0517 25.5059 13.2139 25.5059 13.2139Z" fill="#ED164B"/>
</g>
</g>
</g>
<defs>
<clipPath id="clip0_8925_96979">
<rect width="40" height="40" fill="white"/>
</clipPath>
</defs>
</svg>
