<svg width="40" height="40" viewBox="0 0 40 40" fill="none" xmlns="http://www.w3.org/2000/svg">
<g clip-path="url(#clip0_8925_96976)">
<path d="M0 20C0 21.1776 0 21.3084 0.0280636 22.3084C0.1029 24.5234 0.336763 27.0654 1.22544 29.7476C1.8522 31.6449 3.03087 33.6916 4.20954 34.9813C5.70629 36.6261 7.77361 37.9718 10.0094 38.7382C12.2919 39.5232 14.7615 39.9064 19.5603 40H20.449C25.2573 39.8971 27.7175 39.5232 30 38.7382C32.2358 37.9718 34.2938 36.6261 35.7904 34.9813C36.9693 33.6823 38.1479 31.6449 38.7746 29.7476C39.6632 27.0654 39.9064 24.514 39.9718 22.3084C40 21.3178 40 21.1776 40 20C40 18.8224 40 18.6916 39.9718 17.6916C39.8971 15.4766 39.6632 12.9346 38.7746 10.2523C38.1479 8.35514 36.9693 6.30839 35.7904 5.01868C34.2938 3.37383 32.2264 2.02804 30 1.26168C27.7175 0.476636 25.2479 0.0934579 20.449 0H19.5603C14.7521 0.102804 12.2919 0.476636 10.0094 1.26168C7.77361 2.02804 5.71561 3.37383 4.20954 5.01868C3.03087 6.31775 1.8522 8.35514 1.22544 10.2523C0.346118 12.9346 0.1029 15.4766 0.0280636 17.6916C0 18.6823 0 18.8224 0 20Z" fill="#457C26"/>
<path d="M29.0869 22.252L27.7736 21.3657C27.3479 21.6803 26.8347 21.8546 26.3055 21.8644C25.7762 21.8743 25.257 21.7192 24.8198 21.4207C24.8198 21.4207 20.8286 18.7239 20.4593 18.469C20.2466 18.3183 19.9923 18.2373 19.7316 18.2373C19.4709 18.2373 19.2166 18.3183 19.0039 18.469L14.6286 21.4272C14.1912 21.7254 13.6721 21.8802 13.1429 21.8704C12.6137 21.8606 12.1007 21.6865 11.6747 21.3723L10.3621 22.2586C9.83134 22.6277 9.46349 23.1875 9.33513 23.8212C9.20677 24.4548 9.32788 25.1136 9.67316 25.6602C9.83727 25.9284 10.0539 26.1605 10.3102 26.3426C10.5665 26.5247 10.8569 26.653 11.1642 26.7198C11.4714 26.7865 11.7889 26.7903 12.0977 26.731C12.4064 26.6717 12.6999 26.5504 12.9605 26.3745L19.0539 22.2536C19.2464 22.1049 19.4827 22.0242 19.7258 22.0242C19.9691 22.0242 20.2053 22.1049 20.3978 22.2536L26.4896 26.3745C26.7501 26.5506 27.0437 26.6721 27.3525 26.7315C27.6612 26.791 27.9788 26.7872 28.2861 26.7205C28.5933 26.6537 28.8839 26.5253 29.1402 26.3431C29.3964 26.1608 29.613 25.9286 29.777 25.6602C30.1227 25.1136 30.2442 24.4546 30.1161 23.8205C29.9879 23.1865 29.62 22.6264 29.0891 22.2569L29.0869 22.252Z" fill="white"/>
<path d="M19.2774 14.6179C19.4148 14.5312 19.5738 14.4854 19.7362 14.4854C19.8986 14.4854 20.0576 14.5312 20.195 14.6179C20.4444 14.7722 23.0982 16.5915 23.0982 16.5915C23.5144 16.8742 24.0147 17.0066 24.5163 16.9666C25.0178 16.9267 25.4908 16.7168 25.857 16.3717L27.3637 17.3909C27.8146 17.7052 28.1268 18.1812 28.2357 18.72C28.3444 19.2587 28.2414 19.8186 27.9478 20.2832C27.8081 20.5111 27.6237 20.7083 27.4057 20.8629C27.1877 21.0175 26.9406 21.1264 26.6793 21.1829C26.4181 21.2393 26.1483 21.2423 25.8859 21.1916C25.6234 21.1408 25.374 21.0374 25.1526 20.8876C25.1526 20.8876 20.8252 17.9667 20.4049 17.7167C20.2024 17.591 19.9688 17.5244 19.7304 17.5244C19.4921 17.5244 19.2584 17.591 19.0559 17.7167C18.7049 17.9327 14.2868 20.8821 14.2868 20.8821C13.8362 21.1704 13.2898 21.2686 12.7671 21.1554C12.2443 21.0421 11.7875 20.7266 11.4966 20.2777C11.2041 19.8137 11.1016 19.2548 11.2103 18.7171C11.3191 18.1794 11.6308 17.7043 12.0807 17.3904L13.5889 16.3717C13.9549 16.7171 14.4279 16.9272 14.9296 16.9672C15.4313 17.0072 15.9317 16.8746 16.3477 16.5915C16.3477 16.5915 19.0164 14.7827 19.2774 14.6179Z" fill="white"/>
<path d="M20.2462 13.8796L23.438 16.0549C23.6252 16.1685 23.8333 16.2431 24.0501 16.2742C24.2669 16.3053 24.4878 16.2923 24.6993 16.2358C24.9109 16.1793 25.1088 16.0806 25.2813 15.9457C25.4537 15.8107 25.5971 15.6423 25.7027 15.4504C25.9129 15.0819 25.9821 14.6497 25.8977 14.234C25.8132 13.8182 25.5807 13.4473 25.2434 13.19L20.2182 9.79333C20.072 9.69694 19.9009 9.64551 19.7259 9.64551C19.5508 9.64551 19.3797 9.69694 19.2335 9.79333L14.2001 13.19C13.8416 13.463 13.602 13.8637 13.5314 14.3088C13.4608 14.7538 13.5645 15.209 13.8209 15.5796C14.0541 15.9245 14.4113 16.1663 14.8181 16.2548C15.2249 16.3433 15.6501 16.2717 16.0055 16.0549L19.2435 13.8796C19.3852 13.7658 19.5614 13.7038 19.7432 13.7038C19.9249 13.7038 20.1011 13.7658 20.2428 13.8796H20.2462Z" fill="white"/>
<path d="M23.1508 29.1159L20.5383 24.7006C20.4967 24.5909 20.4337 24.4906 20.3528 24.4057C20.2719 24.3207 20.1748 24.2528 20.0673 24.206C19.9598 24.1592 19.844 24.1343 19.7267 24.1329C19.6094 24.1315 19.493 24.1536 19.3844 24.1978C19.2741 24.2451 19.1744 24.314 19.091 24.4003C19.0076 24.4866 18.9422 24.5887 18.8987 24.7006L16.2861 29.1159C15.9482 29.6577 16.0284 30.522 16.9624 30.522H22.4668C23.4086 30.5171 23.4888 29.6593 23.1508 29.1159Z" fill="white"/>
</g>
<defs>
<clipPath id="clip0_8925_96976">
<rect width="40" height="40" fill="white"/>
</clipPath>
</defs>
</svg>
