<svg width="40" height="40" viewBox="0 0 40 40" fill="none" xmlns="http://www.w3.org/2000/svg">
<g clip-path="url(#clip0_8925_96996)">
<path d="M0 20C0 21.1794 0 21.3093 0.0300075 22.3088C0.0700175 24.8276 0.470118 27.3363 1.23031 29.7451C1.88047 31.6641 2.89072 33.4432 4.21105 34.9825C5.80145 36.6917 7.79195 37.981 10.0025 38.7406C12.2831 39.5202 14.7537 39.9001 19.5549 40H20.4451C25.2463 39.9001 27.7169 39.5202 29.9975 38.7406C32.208 37.981 34.1985 36.6917 35.7889 34.9825C37.1093 33.4432 38.1295 31.6741 38.7697 29.7451C39.5299 27.3363 39.93 24.8376 39.97 22.3088C40 21.3193 40 21.1794 40 20C40 18.8206 40 18.6906 39.97 17.7011C39.93 15.1824 39.5299 12.6736 38.7697 10.2649C38.1195 8.34581 37.1093 6.5667 35.7889 5.02747C34.1985 3.31834 32.208 2.02898 29.9975 1.26936C27.7169 0.479758 25.2463 0.09995 20.4451 0H19.5549C14.7537 0.09995 12.2831 0.479758 10.0025 1.25937C7.79195 2.01899 5.80145 3.30834 4.21105 5.01748C2.89072 6.55671 1.87047 8.32582 1.23031 10.2549C0.470118 12.6736 0.0700175 15.1724 0.0300075 17.7011C0 18.6906 0 18.8306 0 20Z" fill="#0F206C"/>
<path d="M9.30922 16.5723H5.19922C5.19922 16.5723 5.85922 17.2823 5.85922 17.6523V23.5923H9.24922C9.24922 23.5923 12.6192 23.5223 12.6192 20.1823C12.6192 18.3023 11.1792 16.7323 9.29922 16.5723M9.29922 22.6023H7.12922V17.5123C7.12922 17.5123 7.89922 17.4623 8.70922 17.4623C10.0492 17.4123 11.1792 18.4623 11.2192 19.8123C11.2192 19.9323 11.2192 20.0423 11.2092 20.1623C11.2092 22.6123 9.29922 22.6123 9.29922 22.6123" fill="white"/>
<path d="M18.8805 23.6623H20.3605L16.9805 16.5723H15.2605C15.4905 16.7623 15.6405 17.0323 15.6805 17.3323C15.6805 17.7623 12.8105 23.6623 12.8105 23.6623H13.9305L14.6305 22.1223H18.1405L18.8805 23.6623ZM15.0205 21.2723L16.3505 18.3623L17.7405 21.2723H15.0205Z" fill="white"/>
<path d="M24.4597 16.1225C22.3197 16.0925 20.5597 17.8125 20.5297 19.9525C20.4997 22.0925 22.2197 23.8525 24.3597 23.8825C26.4997 23.9125 28.2597 22.1925 28.2897 20.0525C28.2897 20.0325 28.2897 20.0225 28.2897 20.0025C28.2997 17.8725 26.5897 16.1425 24.4597 16.1225ZM24.3797 22.5625C22.9597 22.5625 21.8197 21.4125 21.8197 19.9925C21.8197 18.5725 22.9697 17.4325 24.3897 17.4325C25.8097 17.4325 26.9497 18.5825 26.9497 20.0025C26.9497 21.4225 25.7997 22.5625 24.3797 22.5625Z" fill="white"/>
<path d="M28.9902 16.5723C29.2902 16.8323 29.4802 17.1923 29.5302 17.5823V23.7323H34.8002V22.6823H30.9402V16.5723H29.0002H28.9902Z" fill="white"/>
</g>
<defs>
<clipPath id="clip0_8925_96996">
<rect width="40" height="40" fill="white"/>
</clipPath>
</defs>
</svg>
