<svg width="40" height="40" viewBox="0 0 40 40" fill="none" xmlns="http://www.w3.org/2000/svg">
<g clip-path="url(#clip0_8925_96973)">
<path d="M0 20C0 21.1776 0 21.3084 0.0280635 22.3084C0.1029 24.5234 0.336762 27.0654 1.22544 29.7476C1.85219 31.6448 3.03086 33.6916 4.20953 34.9813C5.70626 36.626 7.77361 37.972 10.0093 38.7383C12.2918 39.5235 14.7614 39.9064 19.5603 40H20.449C25.2572 39.8971 27.7174 39.5235 29.9999 38.7383C32.2356 37.972 34.2936 36.626 35.7902 34.9813C36.9689 33.6822 38.1477 31.6448 38.7744 29.7476C39.6631 27.0654 39.9064 24.514 39.9718 22.3084C40 21.3177 40 21.1776 40 20C40 18.8224 40 18.6822 39.9718 17.6916C39.8971 15.4766 39.6631 12.9346 38.7744 10.2523C38.1477 8.35512 36.9689 6.30839 35.7902 5.0187C34.2936 3.37383 32.2263 2.02804 29.9999 1.26168C27.7174 0.476635 25.2478 0.0934579 20.449 0H19.5603C14.7521 0.102804 12.2918 0.476635 10.0093 1.26168C7.77361 2.02804 5.71562 3.37383 4.20953 5.0187C3.03086 6.31775 1.85219 8.35512 1.22544 10.2523C0.346117 12.9346 0.1029 15.4766 0.0280635 17.6916C0 18.6822 0 18.8224 0 20Z" fill="#E78001"/>
<path d="M13.6204 14.8105C13.5722 15.1116 12.9367 19.3644 12.8789 19.7689H14.304C14.3425 19.4679 14.9877 15.2151 15.0455 14.8105H13.6204Z" fill="white"/>
<path d="M25.2824 14.8105C25.2343 15.1116 24.5988 19.3644 24.541 19.7689H27.8823C27.9112 19.5525 27.9979 18.9786 28.046 18.6964H26.0239L26.1587 17.7837H27.9979C28.0364 17.5673 28.1038 17.0592 28.1519 16.7864H26.3128L26.4476 15.8831H28.4216C28.4504 15.6667 28.5371 15.0928 28.5853 14.8199H25.2921L25.2824 14.8105Z" fill="white"/>
<path d="M9.40394 17.6432C9.40394 17.6432 10.598 15.0276 10.6943 14.8018H12.4853C12.4853 15.1499 12.2446 19.4027 12.2446 19.7602H10.9542L11.1661 16.2884C11.1661 16.2884 9.71209 19.5344 9.6158 19.7602H8.59509L8.13291 16.2884C8.10402 16.4483 7.61294 18.7629 7.35294 19.7602H6.07227C6.20709 19.318 7.18923 15.0652 7.26627 14.8018H8.98991L9.39434 17.6432H9.40394Z" fill="white"/>
<path d="M22.7776 18.7628C22.7776 18.7628 22.8739 19.572 22.9028 19.7602H24.2701C24.1931 19.3556 23.4516 15.0934 23.3939 14.8018H21.6606C21.5643 15.0088 19.5903 19.2709 19.3496 19.7602H20.7362C20.8133 19.5908 21.1599 18.7628 21.1599 18.7628H22.768H22.7776ZM21.5547 17.7373L22.3731 15.8932L22.6428 17.7373H21.5547Z" fill="white"/>
<path d="M17.0299 15.742H17.3477C17.5691 15.742 17.8098 15.7608 17.9543 15.9302C18.0602 16.0525 18.0987 16.2124 18.0698 16.4288C18.0698 16.4288 18.0217 16.8052 17.7713 16.9275C17.7713 16.9275 17.5884 17.0404 17.2899 17.0498H16.6447L17.8676 19.7689H19.2542L18.2046 17.6802C18.8401 17.5673 19.3313 17.3885 19.4564 16.4477C19.4757 16.3253 19.4853 16.2124 19.4853 16.1089C19.4853 15.7608 19.389 15.4785 19.2061 15.2715C18.8594 14.8952 18.272 14.8105 17.8387 14.8105H15.884C15.8359 15.1116 15.2003 19.3644 15.1426 19.7595H16.4425C16.481 19.4867 17.0395 15.7326 17.0395 15.7326" fill="white"/>
<path d="M33.9277 14.2842C33.0996 17.5773 30.1146 19.3743 28.3524 20.334L28.2754 20.2399C28.9976 19.6848 31.4626 17.9348 32.2522 15.0463L33.9181 14.2842H33.9277Z" fill="white"/>
<path d="M21.9688 22.592C21.9688 22.592 22.0167 22.5826 22.0455 22.5732C22.0167 22.5732 21.9975 22.5826 21.9688 22.592Z" fill="white"/>
<path d="M19.6957 23.0059C19.6957 23.0059 19.6382 23.0059 19.6094 23.0246C19.6382 23.0246 19.6669 23.0152 19.6957 23.0059Z" fill="white"/>
<path d="M22.5173 22.46C22.421 22.4882 22.3151 22.507 22.2188 22.5259C22.3151 22.4976 22.421 22.4788 22.5173 22.46Z" fill="white"/>
<path d="M24.7711 21.8486C24.6267 21.8957 24.4822 21.9334 24.3281 21.9805C24.4822 21.9334 24.6267 21.8863 24.7711 21.8486Z" fill="white"/>
<path d="M22.8742 22.3848C22.8068 22.4034 22.749 22.4128 22.6816 22.4315C22.7394 22.4128 22.8068 22.4034 22.8742 22.3848Z" fill="white"/>
<path d="M18.473 22.5731L18.0975 22.3943C17.9723 22.319 17.693 22.1685 17.693 21.8956C17.693 21.7639 17.7508 21.651 17.8375 21.5757C17.953 21.4817 18.136 21.444 18.3285 21.4817C18.5693 21.5193 18.8581 21.6698 19.1663 21.9239C19.3107 21.651 19.59 21.143 19.6959 20.9548C19.3396 20.6725 19.0026 20.522 18.4826 20.4373C17.8471 20.3526 17.2405 20.4749 16.8168 20.7854C16.4508 21.0488 16.2294 21.4346 16.1716 21.9051C16.162 21.9803 16.1523 22.065 16.1523 22.1403C16.1523 22.3943 16.2101 22.6201 16.3257 22.8083C17.096 22.7895 17.9048 22.7518 18.7233 22.686C18.6463 22.6483 18.5693 22.6013 18.4826 22.5637" fill="white"/>
<path d="M24.2415 20.6162C24.2126 20.8232 24.1067 21.4724 24.0586 21.7923C25.06 21.5195 26.2829 21.1337 27.4095 20.6162H24.2415Z" fill="white"/>
<path d="M24.7709 21.8484C24.6264 21.8954 24.482 21.9331 24.3279 21.9801C24.299 21.9895 24.2702 21.9989 24.2316 22.0083C24.1739 22.0272 24.1161 22.046 24.0487 22.0648C24.0198 22.0648 23.9813 22.0836 23.9524 22.093C23.7502 22.1495 23.5383 22.2059 23.3169 22.2624C23.2783 22.2718 23.2398 22.2812 23.1917 22.2906C23.1339 22.3094 23.0665 22.3188 23.0087 22.3377C22.9606 22.3471 22.9124 22.3565 22.8739 22.3753C22.8065 22.3847 22.7487 22.4035 22.6813 22.4223C22.6235 22.4317 22.5658 22.4506 22.508 22.4599C22.4117 22.4882 22.3154 22.507 22.2095 22.5258C22.1517 22.5352 22.094 22.5541 22.0362 22.5634C22.0073 22.5634 21.988 22.5729 21.9592 22.5823C21.3718 22.714 20.7555 22.8269 20.0911 22.9398C20.0815 22.9398 20.0622 22.9398 20.0526 22.9398C19.937 22.9586 19.8118 22.9774 19.6867 22.9963H19.6C19.4748 23.0245 19.34 23.0527 19.2148 23.0621C19.2052 23.0621 19.1956 23.0621 19.1859 23.0621C18.483 23.1656 17.7319 23.2503 16.952 23.3162C16.8364 23.3256 16.7113 23.335 16.5861 23.3444C16.5764 23.3444 16.5572 23.3444 16.5475 23.3444C16.432 23.3444 16.3068 23.3632 16.1817 23.3726C16.172 23.3726 16.1528 23.3726 16.1432 23.3726C16.018 23.3726 15.8928 23.3914 15.7676 23.3914C15.758 23.3914 15.7483 23.3914 15.7387 23.3914C15.6135 23.3914 15.4787 23.4008 15.3535 23.4102H15.3439C14.6795 23.4385 14.0055 23.4573 13.3025 23.4573H13.2448C13.0907 23.4573 12.9366 23.4573 12.7729 23.4573C12.744 23.4573 12.7055 23.4573 12.6767 23.4573C12.1085 23.4573 11.5308 23.4291 10.9338 23.4008H10.9242C10.0286 23.3538 9.09458 23.2785 8.1413 23.175L9.24865 22.1871C9.24865 22.1871 9.89383 22.3659 10.7797 22.5258C10.616 21.5661 10.4619 20.7287 10.4427 20.6064H8.70944C8.60351 20.8134 6.62954 25.0756 6.39844 25.5648H7.78504C7.86208 25.3955 8.32426 24.3323 8.32426 24.3323H9.76865C9.76865 24.3323 9.91308 25.3673 9.94197 25.5648H11.3093C11.2804 25.4049 11.1456 24.6616 10.9915 23.7866C11.9641 23.8431 12.9463 23.8524 13.8514 23.8336C13.8995 23.9089 13.9188 23.9842 13.9188 24.0689C13.9188 24.0971 13.9188 24.1253 13.9188 24.1629C13.8995 24.2758 13.8418 24.3699 13.7455 24.4264C13.5529 24.5487 13.2833 24.5205 13.1003 24.4923C12.6574 24.417 12.3107 24.0971 12.0219 23.8336C11.8485 24.1065 11.473 24.6898 11.3478 24.878C11.8678 25.3296 12.4359 25.6119 13.0329 25.6872C13.6395 25.7718 14.2366 25.6401 14.6795 25.3296C15.0647 25.0568 15.3054 24.6616 15.3824 24.1724C15.4017 24.0312 15.4113 23.8995 15.4113 23.7772C16.3839 23.7396 17.2023 23.6831 17.7223 23.6361C17.8957 23.7584 17.9823 23.8995 17.9823 24.0594C17.9823 24.0877 17.9823 24.1159 17.9823 24.1536C17.963 24.2664 17.9053 24.3605 17.809 24.417C17.6164 24.5393 17.3468 24.5111 17.1638 24.4828C16.7209 24.4076 16.3742 24.0877 16.0854 23.8242C15.912 24.0971 15.5365 24.6804 15.4113 24.8686C15.9313 25.3202 16.4994 25.6025 17.0964 25.6778C17.7031 25.7624 18.3001 25.6307 18.743 25.3202C19.1282 25.0474 19.3785 24.6522 19.4556 24.1629C19.5037 23.8901 19.4941 23.6549 19.4267 23.4385C19.6482 23.4102 19.86 23.3726 20.0622 23.3444C19.9082 24.3888 19.7637 25.3579 19.7348 25.5366H23.0761C23.105 25.3202 23.1917 24.7463 23.2398 24.464H21.2081L21.3429 23.5514H23.182C23.2109 23.3632 23.2783 22.9304 23.3169 22.6481C23.5672 22.5729 23.6924 22.5258 23.6924 22.5258C23.6924 22.5258 24.3183 22.3471 25.1175 22.0648C25.002 22.8363 24.6457 25.2073 24.5975 25.5461H26.0419C26.0804 25.2544 26.6004 21.8202 26.6004 21.8202H27.65C27.6789 21.6038 27.7848 20.9263 27.8233 20.6158C27.2841 20.9075 26.2538 21.3591 24.7901 21.8202" fill="white"/>
<path d="M14.8632 22.8177C14.738 22.7236 14.5936 22.6389 14.4203 22.5731L14.0447 22.3943H14.0351C13.9099 22.319 13.6306 22.1685 13.6306 21.8956C13.6306 21.7639 13.6788 21.651 13.7751 21.5757C13.8906 21.4817 14.0736 21.444 14.2662 21.4817C14.5165 21.5193 14.7958 21.6698 15.1039 21.9239C15.2484 21.651 15.5276 21.143 15.6335 20.9548C15.2773 20.6725 14.9402 20.522 14.4203 20.4373C13.7847 20.3526 13.1781 20.4749 12.7544 20.7854C12.3885 21.0488 12.167 21.4346 12.1093 21.9051C12.0996 21.9803 12.0996 22.065 12.0996 22.1403C12.0996 22.3567 12.1381 22.5542 12.2152 22.7236C12.2441 22.7236 12.2729 22.7236 12.3018 22.7236C12.947 22.7707 13.8329 22.8083 14.8536 22.8177" fill="white"/>
<path d="M21.6027 21.6892H23.5767C23.6152 21.4728 23.6922 20.8988 23.7404 20.626H20.4568C20.4376 20.7577 20.3124 21.5951 20.168 22.5548C20.6205 22.4983 21.0731 22.4325 21.516 22.3666L21.6123 21.6986L21.6027 21.6892Z" fill="white"/>
</g>
<defs>
<clipPath id="clip0_8925_96973">
<rect width="40" height="40" fill="white"/>
</clipPath>
</defs>
</svg>
