<svg width="40" height="40" viewBox="0 0 40 40" fill="none" xmlns="http://www.w3.org/2000/svg">
<g clip-path="url(#clip0_8925_96983)">
<path d="M0 20.005C0 21.1753 0 21.3153 0.0300075 22.3056C0.060015 24.8362 0.470118 27.3368 1.23031 29.7474C1.88047 31.6679 2.89072 33.4484 4.21104 34.9788C5.80146 36.6893 7.79196 37.9796 10.0025 38.7396C12.2831 39.53 14.7537 39.9 19.5549 40H20.4451C25.2463 39.9 27.7169 39.52 29.9975 38.7396C32.208 37.9796 34.1985 36.6893 35.7889 34.9788C37.1093 33.4384 38.1196 31.6679 38.7696 29.7474C39.53 27.3368 39.93 24.8362 39.97 22.3056C40 21.3153 40 21.1753 40 20.005C40 18.8347 40 18.6947 39.97 17.7044C39.93 15.1738 39.53 12.6732 38.7696 10.2626C38.1196 8.34207 37.1093 6.56164 35.7889 5.03125C34.1985 3.32083 32.208 2.03051 29.9975 1.27032C27.7169 0.480121 25.2463 0.100025 20.4451 0H19.5549C14.7537 0.100025 12.2831 0.480121 10.0025 1.26031C7.79196 2.0205 5.80146 3.31083 4.21104 5.02125C2.89072 6.56164 1.87047 8.33207 1.23031 10.2526C0.470118 12.6632 0.0700175 15.1738 0.0300075 17.7044C0 18.6947 0 18.8347 0 20.005Z" fill="#0398E7"/>
<path d="M27.5596 20.8936H20.5137V22.9054H27.5596V20.8936Z" fill="white"/>
<path d="M23.0375 9.31152H25.299L28.572 19.1322H19.6055L21.276 13.3467H23.5375L22.5261 17.1203H25.8104" fill="white"/>
<path d="M16.2415 20.8936H11.457V22.9054H15.9914C16.6847 22.9054 17.0029 23.1555 17.0029 23.9171C17.0029 24.6104 16.4346 24.9287 15.7414 24.9287H11.457V30.7142H13.9799V26.9406H16.2415C17.8097 26.986 19.1166 25.7584 19.1735 24.1898C19.1735 24.133 19.1735 24.0762 19.1735 24.0193C19.3099 22.4394 18.1279 21.0413 16.5483 20.9163C16.446 20.9163 16.3437 20.9049 16.2415 20.9163" fill="white"/>
<path d="M13.8992 14.2787C13.8537 13.0283 14.6833 11.9258 15.8993 11.6189C16.1607 11.5507 16.4334 11.5166 16.7062 11.5166H18.729V9.28876C17.3426 9.26601 15.9561 9.39105 14.5924 9.65248C12.5809 10.2436 11.2626 12.1645 11.4444 14.2559C11.2853 16.4611 12.7741 18.4388 14.9333 18.8821C15.6947 19.0753 16.4789 19.1663 17.263 19.1549H18.7177V16.7907H16.5584C16.4107 16.7907 16.2743 16.7793 16.1266 16.7566C14.8311 16.677 13.8423 15.5744 13.8764 14.2787" fill="white"/>
<path d="M27.5713 26.9289V24.667H20.5254V30.714H27.5713V28.4521H23.0369V26.9403H27.5713V26.9289Z" fill="white"/>
</g>
<defs>
<clipPath id="clip0_8925_96983">
<rect width="40" height="40" fill="white"/>
</clipPath>
</defs>
</svg>
