<svg width="40" height="40" viewBox="0 0 40 40" fill="none" xmlns="http://www.w3.org/2000/svg">
<g clip-path="url(#clip0_8925_96975)">
<path d="M0 20C0 21.1776 0 21.3084 0.0280636 22.3084C0.1029 24.5234 0.336763 27.0654 1.22544 29.7476C1.8522 31.6449 3.03087 33.6916 4.20954 34.9813C5.70629 36.6261 7.77361 37.9718 10.0094 38.7382C12.2919 39.5232 14.7615 39.9064 19.5603 40H20.449C25.2573 39.8971 27.7175 39.5232 30 38.7382C32.2358 37.9718 34.2938 36.6261 35.7904 34.9813C36.9693 33.6823 38.1479 31.6449 38.7746 29.7476C39.6632 27.0654 39.9064 24.514 39.9718 22.3084C40 21.3178 40 21.1776 40 20C40 18.8224 40 18.6916 39.9718 17.6916C39.8971 15.4766 39.6632 12.9346 38.7746 10.2523C38.1479 8.35514 36.9693 6.30839 35.7904 5.01868C34.2938 3.37383 32.2264 2.02804 30 1.26168C27.7175 0.476636 25.2479 0.0934579 20.449 0H19.5603C14.7521 0.102804 12.2919 0.476636 10.0094 1.26168C7.77361 2.02804 5.71561 3.37383 4.20954 5.01868C3.03087 6.31775 1.8522 8.35514 1.22544 10.2523C0.346118 12.9346 0.1029 15.4766 0.0280636 17.6916C0 18.6823 0 18.8224 0 20Z" fill="#003CDC"/>
<path d="M8.3812 19.894L9.02663 19.0181C8.54745 18.7875 8.05848 18.4372 7.69909 17.9668C7.33934 17.5152 7.09977 16.962 7.09977 16.3071V15.5509H5.90109V16.3256C5.90109 16.9895 5.67056 17.5794 5.30173 18.0866C4.93291 18.6031 4.44395 19.0086 3.92773 19.3037L4.64688 20.143C5.06181 19.894 5.46727 19.5804 5.79945 19.221C6.12252 18.8797 6.38027 18.5015 6.53709 18.1421C6.91534 18.8427 7.49616 19.4145 8.3812 19.894ZM10.7419 18.2615H12.0788V17.2937H10.7415V15.3574H9.59802V20.2258H10.7415L10.7419 18.2615ZM5.90109 24.0894H10.7415V20.558H5.90109V24.0894ZM9.59838 21.5261V23.1306H7.03513V21.5261H9.59838ZM16.7904 20.0414L17.4358 19.1469C16.9472 18.8983 16.4586 18.5661 16.1174 18.1236C15.758 17.6901 15.5366 17.1554 15.5366 16.4639V15.5509H14.3194V16.4828C14.3194 17.1097 14.1074 17.6629 13.7662 18.1425C13.4249 18.6311 12.9178 19.0551 12.3555 19.4239L13.0652 20.2817C13.5081 20.0142 13.9044 19.6639 14.2362 19.3226C14.5593 18.9814 14.808 18.622 14.9463 18.2899C15.0937 18.585 15.3427 18.9077 15.6654 19.2119C15.9885 19.535 16.3846 19.8203 16.7904 20.0414ZM18.3764 20.2719H19.5199V15.3574H18.3764V16.8879H16.7628V17.9021H18.3764V20.2719ZM19.3812 22.1897C19.3812 21.5998 19.1417 21.1017 18.7452 20.7424C18.3394 20.3826 17.7771 20.1706 17.1131 20.1706C16.4492 20.1706 15.8959 20.3826 15.4996 20.7424C15.0937 21.1017 14.8632 21.5998 14.8632 22.1897C14.8632 22.8076 15.0937 23.3056 15.4996 23.665C15.8959 24.0062 16.4492 24.2092 17.1131 24.2092C17.7771 24.2092 18.3394 24.0062 18.7452 23.665C19.1417 23.3056 19.3812 22.8076 19.3812 22.1897ZM18.2566 22.1897C18.2566 22.8261 17.7771 23.2501 17.1131 23.2501C16.4492 23.2501 15.9882 22.8261 15.9882 22.1901C15.9882 21.5628 16.4492 21.1388 17.1131 21.1388C17.4449 21.1388 17.7216 21.2495 17.9336 21.4339C18.0358 21.5314 18.1172 21.6487 18.1728 21.7786C18.2283 21.9085 18.2568 22.0484 18.2566 22.1897ZM25.1169 16.5285H27.0438V15.5694H21.751V16.5285H23.6873C23.5494 16.8879 23.1987 17.2201 22.7653 17.4781C22.3318 17.7457 21.8251 17.9573 21.3822 18.0408L21.8527 18.981C22.3565 18.8631 22.8408 18.6736 23.2909 18.4183C23.7338 18.1697 24.1393 17.8561 24.4065 17.5152C24.674 17.847 25.0708 18.1421 25.5224 18.3911C25.9649 18.6398 26.472 18.8336 26.9606 18.9535L27.4311 18.0314C26.9145 17.8931 26.3798 17.7087 25.9649 17.4506C25.5499 17.2015 25.2276 16.8973 25.1169 16.5285ZM20.6351 20.3641H28.1775V19.396H20.6354L20.6351 20.3641ZM26.7483 22.6417C26.7483 22.079 26.4902 21.6365 26.0752 21.3137C25.6418 21.0096 25.0701 20.8346 24.4061 20.8346C23.7701 20.8346 23.1893 21.0096 22.7558 21.3137C22.3224 21.6183 22.0552 22.0794 22.0552 22.6417C22.0552 23.2319 22.3409 23.6835 22.7834 23.9877C23.2263 24.2829 23.8162 24.4306 24.4061 24.4306C24.9869 24.4306 25.5677 24.2738 26.0106 23.9786C26.4535 23.6835 26.7483 23.2319 26.7483 22.6417ZM25.6418 22.6417C25.6418 22.8998 25.5035 23.1118 25.2824 23.2595C25.061 23.4069 24.7473 23.4991 24.4061 23.4991C23.6684 23.4991 23.1613 23.1579 23.1613 22.6417C23.1613 22.1255 23.6684 21.7657 24.4065 21.7657C24.7477 21.7657 25.061 21.8579 25.2821 22.0053C25.5035 22.1621 25.6418 22.3836 25.6418 22.6417ZM28.8051 18.6863L28.9154 19.7187C29.5582 19.7005 30.2007 19.6729 30.8427 19.6359V20.8807H31.9673V19.5619C32.9264 19.4882 33.867 19.396 34.8076 19.2852V20.0694H33.0923V20.9359H34.8076V21.895H35.9417V15.3574H34.8076V18.3632C34.4108 18.4093 34.0143 18.4463 33.6089 18.483C33.7377 17.6807 33.7933 16.8697 33.7838 16.0766V15.7814H29.4876V16.7681H32.6226C32.6407 17.3028 32.595 17.9116 32.5028 18.5661C31.2856 18.6492 30.0499 18.6859 28.8051 18.6859V18.6863ZM30.9716 23.9325H36.0706V22.9553H32.0966V21.3784H30.9716V23.9325Z" fill="white"/>
</g>
<defs>
<clipPath id="clip0_8925_96975">
<rect width="40" height="40" fill="white"/>
</clipPath>
</defs>
</svg>
