<svg width="40" height="40" viewBox="0 0 40 40" fill="none" xmlns="http://www.w3.org/2000/svg">
<g clip-path="url(#clip0_8925_96980)">
<path d="M0 20C0 21.1776 0 21.3084 0.0280635 22.3084C0.1029 24.5234 0.336762 27.0654 1.22544 29.7476C1.85219 31.6448 3.03086 33.6916 4.20953 34.9813C5.70626 36.626 7.77361 37.972 9.99996 38.7383C12.2825 39.5235 14.7521 39.9064 19.5509 40H20.4396C25.2385 39.8971 27.708 39.5235 29.9906 38.7383C32.2263 37.972 34.2843 36.626 35.7902 34.9813C36.9689 33.6822 38.1477 31.6448 38.7744 29.7476C39.6631 27.0654 39.9064 24.514 39.9718 22.3084C40 21.3177 40 21.1776 40 20C40 18.8224 40 18.6916 39.9718 17.6916C39.8971 15.4766 39.6631 12.9346 38.7744 10.2523C38.1477 8.35512 36.9689 6.30839 35.7902 5.0187C34.2936 3.37383 32.2263 2.02804 29.9906 1.26168C27.708 0.476635 25.2385 0.0934579 20.4396 0H19.5509C14.7427 0.102804 12.2825 0.476635 9.99996 1.26168C7.76425 2.02804 5.70626 3.37383 4.20953 5.0187C3.03086 6.31775 1.85219 8.35512 1.22544 10.2523C0.346117 12.9346 0.1029 15.4766 0.0280635 17.6916C0 18.6822 0 18.8224 0 20Z" fill="#D4332C"/>
<path d="M20.0085 30.5617C14.1553 30.5617 9.38672 25.7965 9.38672 19.9474C9.38672 17.5181 10.1908 15.2289 11.7149 13.3321L11.771 13.2854C12.9211 12.5659 14.015 12.4818 14.6883 13.0518C15.2305 13.5097 15.3615 14.3132 15.0249 15.1261C14.8004 15.6774 14.1646 16.1072 13.5569 16.5183C13.1922 16.7706 12.8089 17.0228 12.5377 17.2938C11.7055 18.1254 11.3503 19.4335 11.6308 20.6482C11.8364 21.5171 12.3133 22.1432 12.9585 22.3581C13.0894 22.4048 13.267 22.4421 13.3512 22.3861C13.5008 22.2833 13.5101 21.8161 13.5195 21.377C13.5288 20.5641 13.5475 19.4615 14.361 18.7794C15.324 18.0413 17.1006 18.3496 17.9515 19.4055C18.3348 19.882 19.008 21.1621 17.0538 22.8159C16.4554 23.255 16.2591 23.4606 15.9692 23.7596C15.8851 23.853 15.7822 23.9558 15.67 24.0679C14.8753 24.8621 14.6789 25.7498 15.109 26.6187C15.8664 28.1698 18.4003 29.3564 20.4199 29.1135C23.1034 28.7864 23.8795 27.0672 24.2815 24.3949C24.4592 23.1896 24.4311 22.3767 24.4031 21.6479C24.375 20.9191 24.347 20.2371 24.5433 19.3307V19.3027C25.0669 17.8918 25.9926 17.6022 26.7032 17.6115C28.4049 17.6302 30.2563 19.3401 30.6303 20.4333V20.4706L30.6396 20.508C30.3404 26.1422 25.684 30.5617 20.0459 30.5617H20.0085ZM12.0141 13.6124C10.5648 15.4344 9.79811 17.6208 9.79811 19.9381C9.79811 25.5629 14.3797 30.1413 20.0085 30.1413C25.6373 30.1413 29.8823 25.9179 30.1908 20.5267C29.8261 19.5549 28.0964 18.0319 26.6658 18.0226C25.8336 18.0226 25.2633 18.4898 24.9173 19.4335C24.7397 20.2838 24.7584 20.9098 24.7864 21.6386C24.8145 22.3767 24.8519 23.2177 24.6649 24.4604C24.2535 27.2448 23.3745 29.1695 20.4479 29.5246C18.232 29.7956 15.5578 28.5248 14.7163 26.8056C14.2114 25.7685 14.4451 24.6939 15.3615 23.7783C15.4736 23.6662 15.5671 23.5634 15.6606 23.4793C15.9599 23.1709 16.1749 22.9467 16.792 22.4888C17.9795 21.4797 18.2787 20.48 17.6242 19.6671C16.9229 18.8075 15.3801 18.5085 14.6134 19.0971C13.9496 19.6484 13.9402 20.6108 13.9215 21.377C13.9215 22.003 13.9122 22.4888 13.5849 22.7224C13.3979 22.8533 13.1455 22.8626 12.8182 22.7505C12.0328 22.4795 11.4531 21.7507 11.2193 20.7416C10.9108 19.3961 11.3035 17.9292 12.2385 17.0042C12.5377 16.7052 12.9304 16.4342 13.3138 16.1726C13.8748 15.7895 14.4545 15.4064 14.6321 14.9673C14.9033 14.3132 14.8191 13.7059 14.4171 13.3602C14.015 13.0144 13.1735 12.9117 12.0234 13.6124H12.0141Z" fill="white"/>
<path d="M19.9342 9.44531C16.5588 9.44531 13.5574 11.015 11.6032 13.4631C13.8565 12.0615 15.3152 13.3976 14.6139 15.0888C14.2773 15.9111 12.8654 16.4904 12.1174 17.2379C10.3877 18.9664 10.8458 22.162 12.6317 22.7786C14.268 23.3392 12.7252 20.3586 14.268 19.0692C15.9136 17.8078 20.1492 20.0129 16.7551 22.8814C15.9603 23.4701 15.8388 23.6569 15.3245 24.1802C12.5382 26.9552 17.0543 30.104 20.3549 29.7022C23.2815 29.3472 24.0857 27.4224 24.4877 24.6941C24.8524 22.1993 24.3568 21.3304 24.7495 19.5271C25.9931 16.098 30.0043 19.0132 30.5747 20.6763C30.584 20.4895 30.6027 20.3026 30.6027 20.1063C30.6027 14.2292 25.8248 9.44531 19.9342 9.44531ZM27.0309 16.3782C26.5354 17.0603 25.3105 17.0136 24.2913 16.2755C23.2722 15.5373 22.8421 14.3881 23.3376 13.706C23.8238 13.0239 25.058 13.0706 26.0772 13.8088C27.0964 14.5376 27.5265 15.6868 27.0309 16.3689V16.3782Z" fill="white"/>
</g>
<defs>
<clipPath id="clip0_8925_96980">
<rect width="40" height="40" fill="white"/>
</clipPath>
</defs>
</svg>
