<svg id="레이어_1" data-name="레이어 1" xmlns="http://www.w3.org/2000/svg" viewBox="0 0 43 43"><defs><style>.cls-1{fill:none;}.cls-2{fill:#fff;}.cls-3{fill:#da0d15;}.cls-4{fill:#219e3f;}</style></defs><title>이란</title><path class="cls-1" d="M43,19a31.5,31.5,0,0,0-.43-4.53H.47A31.5,31.5,0,0,0,0,19c0,1.07,0,1.22,0,2.48,0,.79,0,1.15,0,1.57H17.57a3.79,3.79,0,0,1,2.67-5.66,5,5,0,0,0-2.12,4.08,5.18,5.18,0,0,0,.26,1.58h.91a4.67,4.67,0,0,1-.48-2,4.59,4.59,0,0,1,1.79-3.64,5.06,5.06,0,0,0-.17,5.68h1.2l-.16-5.4.56-.14.09,0,.08,0,.57.14-.16,5.4h1.2a5.06,5.06,0,0,0-.17-5.68,4.6,4.6,0,0,1,1.3,5.68h.91a4.9,4.9,0,0,0,.27-1.58A5,5,0,0,0,24,17.41a3.81,3.81,0,0,1,2.67,5.66H43c0-.42,0-.78,0-1.57C43,20.24,43,20.09,43,19ZM22.84,17.48a.78.78,0,0,1-.72-.47.8.8,0,0,1-1.53-.33.73.73,0,0,1,.08-.33.74.74,0,0,0,.72.58.75.75,0,0,0,.73-.58.74.74,0,0,0,1.45,0,.72.72,0,0,1,.07.33A.8.8,0,0,1,22.84,17.48Z"/><path class="cls-2" d="M25,24.61a5.09,5.09,0,0,0,.83-1.54h-.91A4.55,4.55,0,0,1,23.19,25h0l-.29.17a5.09,5.09,0,0,0,1.72.3h0a4.52,4.52,0,0,1-1.34.19,4.9,4.9,0,0,1-.77-.06v.11l-.41.51-.42-.51v-.11a4.93,4.93,0,0,1-.78.06,4.62,4.62,0,0,1-1.34-.19h0a5.18,5.18,0,0,0,1.72-.3L21.05,25h0a4.63,4.63,0,0,1-1.76-1.91h-.91a4.91,4.91,0,0,0,.84,1.54,3.78,3.78,0,0,1-1.65-1.54H0c0,.24,0,.51,0,.91a31.65,31.65,0,0,0,.57,5.3H42.39A31.65,31.65,0,0,0,43,24c0-.4,0-.67,0-.91H26.67A3.84,3.84,0,0,1,25,24.61Z"/><path class="cls-2" d="M21.67,24.42l0-1.35h-1.2A5,5,0,0,0,21.67,24.42Z"/><path class="cls-2" d="M23.81,23.07h-1.2l0,1.35A5.15,5.15,0,0,0,23.81,23.07Z"/><path class="cls-3" d="M41.85,29.63H40.34v-.35H40v.35H37.33v-.35H37v.35H34.32v-.35H34v.35H31.31v-.35H31v.35H28.29v-.35H28v.35H25.28v-.35H25v.35H22.27v-.35H22v.35H19.26v-.35H19v.35H16.24v-.35h-.3v.35H13.23v-.35h-.3v.35H10.22v-.35h-.3v.35H7.21v-.35h-.3v.35H4.19v-.35h-.3v.35H1.18v-.35H.88v.35H.69c0,.12.05.23.08.35H.88v.46c.09.35.19.71.3,1.07v-.83H2.69v.71h.9V31H3v-.36h.9v1.06H2.39V31H1.48v.7H1.25l.08.24a16.78,16.78,0,0,0,3.2,5.62,15.21,15.21,0,0,0,6.23,4c2.45.85,5.1,1.25,10.26,1.36h1c5.16-.11,7.81-.51,10.26-1.36a15.21,15.21,0,0,0,6.23-4A17,17,0,0,0,41.68,32a2.17,2.17,0,0,1,.07-.24h-.2V31h-.91v.35h.61v.35h-.91V30.68h1.21V30h.3v1.41h0q.16-.54.3-1.08V30h.08c0-.12.06-.23.08-.35h-.46ZM2.09,31.74H1.78v-.35h.31Zm33.43-1.06V30h.3v1.41h.31V30h.3v1.41h.3V30H37v1.76H35.52V31h-.9v.35h.6v.35h-.9V30.68h1.2ZM31.31,30h3.91v.35H31.31Zm0,1.41v-.71h1.5v.71h.91V31h-.61v-.36H34v1.06H32.51V31h-.9v.7h-.3Zm.9,0v.35h-.3v-.35Zm-2.71-.71V30h.3v1.41h.3V30h.3v1.41h.3V30H31v1.76H29.5V31h-.9v.35h.6v.35h-.91V30.68H29.5ZM25.28,30H29.2v.35H25.28Zm0,1.41v-.71h1.51v.71h.9V31h-.6v-.36H28v1.06h-1.5V31h-.91v.7h-.3Zm.91,0v.35h-.31v-.35Zm-2.72-.71V30h.31v1.41h.3V30h.3v1.41h.3V30H25v1.76H23.47V31h-.9v.35h.6v.35h-.9V30.68h1.2ZM19.26,30h3.91v.35H19.26Zm0,1.41v-.71h1.5v.71h.91V31h-.61v-.36H22v1.06H20.46V31h-.9v.7h-.3Zm.9,0v.35h-.3v-.35Zm-2.71-.71V30h.3v1.41h.3V30h.3v1.41h.3V30H19v1.76H17.45V31h-.9v.35h.6v.35h-.91V30.68h1.21ZM13.23,30h3.92v.35H13.23Zm0,1.41v-.71h1.51v.71h.9V31H15v-.36h.9v1.06h-1.5V31h-.91v.7h-.3Zm.91,0v.35h-.31v-.35Zm-2.72-.71V30h.31v1.41H12V30h.3v1.41h.3V30h.3v1.76H11.42V31h-.9v.35h.6v.35h-.9V30.68h1.2ZM7.21,30h3.91v.35H7.21Zm0,1.41v-.71h1.5v.71h.91V31H9v-.36h.91v1.06H8.41V31h-.9v.7h-.3Zm.9,0v.35h-.3v-.35ZM3.59,30.33H1.18V30H5.1v.35H3.59Zm.91,1.41H4.19V30.68H5.4V30h.3v1.41H6V30h.3v1.41h.3V30h.31v1.76H5.4V31H4.5v.35h.6v.35H4.5Zm33.73,0h-.3v-.35h.3ZM40,31v.7h-1.5V31h-.91v.7h-.3V30.68h1.51v.71h.9V31h-.6v-.36H40Zm1.21-.71H37.33V30h3.92Z"/><path class="cls-4" d="M.88,14.14v.35h.3v-.35H3.89v.35h.3v-.35H6.91v.35h.3v-.35H9.92v.35h.3v-.35h2.71v.35h.3v-.35h2.71v.35h.3v-.35H19v.35h.3v-.35H22v.35h.3v-.35H25v.35h.3v-.35H28v.35h.3v-.35H31v.35h.3v-.35H34v.35h.3v-.35H37v.35h.3v-.35H40v.35h.3v-.35h2.13c0-.11,0-.23-.07-.35h-.85v-.7h-.91v.35h.61v.35h-.91V12.73h1.21V12h.3v1.41h.3v-.75c-.14-.55-.29-1.1-.47-1.66A16.82,16.82,0,0,0,38.47,5.4a15.21,15.21,0,0,0-6.23-4C29.79.51,27.14.11,22,0H21c-5.16.11-7.81.51-10.26,1.36a15.21,15.21,0,0,0-6.23,4A16.63,16.63,0,0,0,1.33,11c-.18.51-.32,1-.45,1.53v1.23H.6c0,.12,0,.24-.07.35H.88Zm37.35-.35h-.3v-.35h.3ZM37.33,12h3.92v.35H37.33Zm0,1.41v-.71h1.51v.71h.9v-.35h-.6v-.36H40v1.06h-1.5v-.7h-.91v.7h-.3Zm-5.12.35h-.3v-.35h.3Zm3.31-1.41V12h.3v1.41h.31V12h.3v1.41h.3V12H37v1.76H35.52v-.7h-.9v.35h.6v.35h-.9V12.73h1.2ZM31.31,12h3.91v.35H31.31Zm0,1.41v-.71h1.5v.71h.91v-.35h-.61v-.36H34v1.06H32.51v-.7h-.9v.7h-.3Zm-5.12.35h-.31v-.35h.31Zm3.31-1.41V12h.3v1.41h.3V12h.3v1.41h.3V12H31v1.76H29.5v-.7h-.9v.35h.6v.35h-.91V12.73H29.5ZM25.28,12H29.2v.35H25.28Zm0,1.41v-.71h1.51v.71h.9v-.35h-.6v-.36H28v1.06h-1.5v-.7h-.91v.7h-.3Zm-5.12.35h-.3v-.35h.3Zm3.31-1.41V12h.31v1.41h.3V12h.3v1.41h.3V12H25v1.76H23.47v-.7h-.9v.35h.6v.35h-.9V12.73h1.2ZM19.26,12h3.91v.35H19.26Zm0,1.41v-.71h1.5v.71h.91v-.35h-.61v-.36H22v1.06H20.46v-.7h-.9v.7h-.3Zm-5.12.35h-.31v-.35h.31Zm3.31-1.41V12h.3v1.41h.3V12h.3v1.41h.3V12H19v1.76H17.45v-.7h-.9v.35h.6v.35h-.91V12.73h1.21ZM13.23,12h3.92v.35H13.23Zm0,1.41v-.71h1.51v.71h.9v-.35H15v-.36h.9v1.06h-1.5v-.7h-.91v.7h-.3Zm-5.12.35h-.3v-.35h.3Zm3.31-1.41V12h.31v1.41H12V12h.3v1.41h.3V12h.3v1.76H11.42v-.7h-.9v.35h.6v.35h-.9V12.73h1.2ZM7.21,12h3.91v.35H7.21Zm0,1.41v-.71h1.5v.71h.91v-.35H9v-.36h.91v1.06H8.41v-.7h-.9v.7h-.3Zm-5.12.35H1.78v-.35h.31ZM5.4,12.73V12h.3v1.41H6V12h.3v1.41h.3V12h.31v1.76H5.4v-.7H4.5v.35h.6v.35H4.19V12.73H5.4ZM1.18,12H5.1v.35H1.18Zm0,1.41v-.71H2.69v.71h.9v-.35H3v-.36h.9v1.06H2.39v-.7H1.48v.7h-.3Z"/><rect class="cls-2" x="7.81" y="31.39" width="0.3" height="0.35"/><polygon class="cls-2" points="31.61 29.63 31.91 29.63 32.21 29.63 32.51 29.63 32.81 29.63 33.11 29.63 33.41 29.63 33.72 29.63 34.02 29.63 34.02 29.28 33.72 29.28 33.41 29.28 33.11 29.28 32.81 29.28 32.51 29.28 32.21 29.28 31.91 29.28 31.61 29.28 31.31 29.28 31.31 29.63 31.61 29.63"/><polygon class="cls-2" points="13.53 29.63 13.83 29.63 14.14 29.63 14.44 29.63 14.74 29.63 15.04 29.63 15.34 29.63 15.64 29.63 15.94 29.63 15.94 29.28 15.64 29.28 15.34 29.28 15.04 29.28 14.74 29.28 14.44 29.28 14.14 29.28 13.83 29.28 13.53 29.28 13.23 29.28 13.23 29.63 13.53 29.63"/><polygon class="cls-2" points="7.51 29.63 7.81 29.63 8.11 29.63 8.41 29.63 8.71 29.63 9.02 29.63 9.32 29.63 9.62 29.63 9.92 29.63 9.92 29.28 9.62 29.28 9.32 29.28 9.02 29.28 8.71 29.28 8.41 29.28 8.11 29.28 7.81 29.28 7.51 29.28 7.21 29.28 7.21 29.63 7.51 29.63"/><polygon class="cls-2" points="4.5 29.63 4.8 29.63 5.1 29.63 5.4 29.63 5.7 29.63 6 29.63 6.3 29.63 6.61 29.63 6.91 29.63 6.91 29.28 6.61 29.28 6.3 29.28 6 29.28 5.7 29.28 5.4 29.28 5.1 29.28 4.8 29.28 4.5 29.28 4.2 29.28 4.2 29.63 4.5 29.63"/><polygon class="cls-2" points="1.48 29.63 1.78 29.63 2.09 29.63 2.39 29.63 2.69 29.63 2.99 29.63 3.29 29.63 3.59 29.63 3.89 29.63 3.89 29.28 3.59 29.28 3.29 29.28 2.99 29.28 2.69 29.28 2.39 29.28 2.09 29.28 1.78 29.28 1.48 29.28 1.18 29.28 1.18 29.63 1.48 29.63"/><polygon class="cls-2" points="10.52 29.63 10.82 29.63 11.12 29.63 11.42 29.63 11.73 29.63 12.03 29.63 12.33 29.63 12.63 29.63 12.93 29.63 12.93 29.28 12.63 29.28 12.33 29.28 12.03 29.28 11.73 29.28 11.42 29.28 11.12 29.28 10.82 29.28 10.52 29.28 10.22 29.28 10.22 29.63 10.52 29.63"/><polygon class="cls-2" points="28.59 29.63 28.9 29.63 29.2 29.63 29.5 29.63 29.8 29.63 30.1 29.63 30.4 29.63 30.7 29.63 31 29.63 31 29.28 30.7 29.28 30.4 29.28 30.1 29.28 29.8 29.28 29.5 29.28 29.2 29.28 28.9 29.28 28.59 29.28 28.29 29.28 28.29 29.63 28.59 29.63"/><polygon class="cls-2" points="25.58 29.63 25.88 29.63 26.18 29.63 26.49 29.63 26.79 29.63 27.09 29.63 27.39 29.63 27.69 29.63 27.99 29.63 27.99 29.28 27.69 29.28 27.39 29.28 27.09 29.28 26.79 29.28 26.49 29.28 26.18 29.28 25.88 29.28 25.58 29.28 25.28 29.28 25.28 29.63 25.58 29.63"/><polygon class="cls-2" points="16.55 29.63 16.85 29.63 17.15 29.63 17.45 29.63 17.75 29.63 18.05 29.63 18.35 29.63 18.65 29.63 18.96 29.63 18.96 29.28 18.65 29.28 18.35 29.28 18.05 29.28 17.75 29.28 17.45 29.28 17.15 29.28 16.85 29.28 16.55 29.28 16.24 29.28 16.24 29.63 16.55 29.63"/><polygon class="cls-2" points="19.56 29.63 19.86 29.63 20.16 29.63 20.46 29.63 20.76 29.63 21.06 29.63 21.36 29.63 21.67 29.63 21.97 29.63 21.97 29.28 21.67 29.28 21.36 29.28 21.06 29.28 20.76 29.28 20.46 29.28 20.16 29.28 19.86 29.28 19.56 29.28 19.26 29.28 19.26 29.63 19.56 29.63"/><polygon class="cls-2" points="22.57 29.63 22.87 29.63 23.17 29.63 23.47 29.63 23.77 29.63 24.08 29.63 24.38 29.63 24.68 29.63 24.98 29.63 24.98 29.28 24.68 29.28 24.38 29.28 24.08 29.28 23.77 29.28 23.47 29.28 23.17 29.28 22.87 29.28 22.57 29.28 22.27 29.28 22.27 29.63 22.57 29.63"/><path class="cls-2" d="M.88,29.28H.61c0,.11.05.23.08.35H.88Z"/><rect class="cls-2" x="31.91" y="31.39" width="0.3" height="0.35"/><polygon class="cls-2" points="31.61 31.39 31.61 31.04 31.91 31.04 32.21 31.04 32.51 31.04 32.51 31.39 32.51 31.74 32.81 31.74 33.11 31.74 33.41 31.74 33.72 31.74 34.02 31.74 34.02 31.39 34.02 31.04 34.02 30.68 33.72 30.68 33.41 30.68 33.11 30.68 33.11 31.04 33.41 31.04 33.72 31.04 33.72 31.39 33.41 31.39 33.11 31.39 32.81 31.39 32.81 31.04 32.81 30.68 32.51 30.68 32.21 30.68 31.91 30.68 31.61 30.68 31.31 30.68 31.31 31.04 31.31 31.39 31.31 31.74 31.61 31.74 31.61 31.39"/><polygon class="cls-2" points="25.88 30.33 26.18 30.33 26.49 30.33 26.79 30.33 27.09 30.33 27.39 30.33 27.69 30.33 27.99 30.33 28.29 30.33 28.59 30.33 28.9 30.33 29.2 30.33 29.2 29.98 28.9 29.98 28.59 29.98 28.29 29.98 27.99 29.98 27.69 29.98 27.39 29.98 27.09 29.98 26.79 29.98 26.49 29.98 26.18 29.98 25.88 29.98 25.58 29.98 25.28 29.98 25.28 30.33 25.58 30.33 25.88 30.33"/><polygon class="cls-2" points="28.9 30.68 28.59 30.68 28.29 30.68 28.29 31.04 28.29 31.39 28.29 31.74 28.59 31.74 28.9 31.74 29.2 31.74 29.2 31.39 28.9 31.39 28.59 31.39 28.59 31.04 28.9 31.04 29.2 31.04 29.5 31.04 29.5 31.39 29.5 31.74 29.8 31.74 30.1 31.74 30.4 31.74 30.7 31.74 31 31.74 31 31.39 31 31.04 31 30.68 31 30.33 31 29.98 30.7 29.98 30.7 30.33 30.7 30.68 30.7 31.04 30.7 31.39 30.4 31.39 30.4 31.04 30.4 30.68 30.4 30.33 30.4 29.98 30.1 29.98 30.1 30.33 30.1 30.68 30.1 31.04 30.1 31.39 29.8 31.39 29.8 31.04 29.8 30.68 29.8 30.33 29.8 29.98 29.5 29.98 29.5 30.33 29.5 30.68 29.2 30.68 28.9 30.68"/><polygon class="cls-2" points="31.91 30.33 32.21 30.33 32.51 30.33 32.81 30.33 33.11 30.33 33.41 30.33 33.72 30.33 34.02 30.33 34.32 30.33 34.62 30.33 34.92 30.33 35.22 30.33 35.22 29.98 34.92 29.98 34.62 29.98 34.32 29.98 34.02 29.98 33.72 29.98 33.41 29.98 33.11 29.98 32.81 29.98 32.51 29.98 32.21 29.98 31.91 29.98 31.61 29.98 31.31 29.98 31.31 30.33 31.61 30.33 31.91 30.33"/><path class="cls-2" d="M.88,30H.77c0,.15.07.3.11.46V30Z"/><path class="cls-2" d="M41.85,31V30h-.3v.7H40.34v1.06h.91v-.35h-.61V31h.91v.7h.2c0-.12.07-.23.1-.35h0Z"/><path class="cls-2" d="M1.48,31.39V31h.91v.7h1.5V30.68H3V31h.6v.35h-.9v-.71H1.18v.83a1.55,1.55,0,0,1,.07.23h.23Z"/><path class="cls-2" d="M42.15,30.31c0-.11.06-.22.08-.33h-.08Z"/><rect class="cls-2" x="1.78" y="31.39" width="0.3" height="0.35"/><polygon class="cls-2" points="34.92 30.68 34.62 30.68 34.32 30.68 34.32 31.04 34.32 31.39 34.32 31.74 34.62 31.74 34.92 31.74 35.22 31.74 35.22 31.39 34.92 31.39 34.62 31.39 34.62 31.04 34.92 31.04 35.22 31.04 35.52 31.04 35.52 31.39 35.52 31.74 35.83 31.74 36.13 31.74 36.43 31.74 36.73 31.74 37.03 31.74 37.03 31.39 37.03 31.04 37.03 30.68 37.03 30.33 37.03 29.98 36.73 29.98 36.73 30.33 36.73 30.68 36.73 31.04 36.73 31.39 36.43 31.39 36.43 31.04 36.43 30.68 36.43 30.33 36.43 29.98 36.13 29.98 36.13 30.33 36.13 30.68 36.13 31.04 36.13 31.39 35.83 31.39 35.83 31.04 35.83 30.68 35.83 30.33 35.83 29.98 35.52 29.98 35.52 30.33 35.52 30.68 35.22 30.68 34.92 30.68"/><polygon class="cls-2" points="13.53 31.39 13.53 31.04 13.83 31.04 14.14 31.04 14.44 31.04 14.44 31.39 14.44 31.74 14.74 31.74 15.04 31.74 15.34 31.74 15.64 31.74 15.94 31.74 15.94 31.39 15.94 31.04 15.94 30.68 15.64 30.68 15.34 30.68 15.04 30.68 15.04 31.04 15.34 31.04 15.64 31.04 15.64 31.39 15.34 31.39 15.04 31.39 14.74 31.39 14.74 31.04 14.74 30.68 14.44 30.68 14.14 30.68 13.83 30.68 13.53 30.68 13.23 30.68 13.23 31.04 13.23 31.39 13.23 31.74 13.53 31.74 13.53 31.39"/><polygon class="cls-2" points="10.82 30.68 10.52 30.68 10.22 30.68 10.22 31.04 10.22 31.39 10.22 31.74 10.52 31.74 10.82 31.74 11.12 31.74 11.12 31.39 10.82 31.39 10.52 31.39 10.52 31.04 10.82 31.04 11.12 31.04 11.42 31.04 11.42 31.39 11.42 31.74 11.73 31.74 12.03 31.74 12.33 31.74 12.63 31.74 12.93 31.74 12.93 31.39 12.93 31.04 12.93 30.68 12.93 30.33 12.93 29.98 12.63 29.98 12.63 30.33 12.63 30.68 12.63 31.04 12.63 31.39 12.33 31.39 12.33 31.04 12.33 30.68 12.33 30.33 12.33 29.98 12.03 29.98 12.03 30.33 12.03 30.68 12.03 31.04 12.03 31.39 11.73 31.39 11.73 31.04 11.73 30.68 11.73 30.33 11.73 29.98 11.42 29.98 11.42 30.33 11.42 30.68 11.12 30.68 10.82 30.68"/><polygon class="cls-2" points="7.81 30.33 8.11 30.33 8.41 30.33 8.71 30.33 9.02 30.33 9.32 30.33 9.62 30.33 9.92 30.33 10.22 30.33 10.52 30.33 10.82 30.33 11.12 30.33 11.12 29.98 10.82 29.98 10.52 29.98 10.22 29.98 9.92 29.98 9.62 29.98 9.32 29.98 9.02 29.98 8.71 29.98 8.41 29.98 8.11 29.98 7.81 29.98 7.51 29.98 7.21 29.98 7.21 30.33 7.51 30.33 7.81 30.33"/><path class="cls-2" d="M41.85,29.28H40.34v.35h2c0-.12,0-.24.08-.35h-.54Z"/><rect class="cls-2" x="13.83" y="31.39" width="0.3" height="0.35"/><polygon class="cls-2" points="13.83 30.33 14.14 30.33 14.44 30.33 14.74 30.33 15.04 30.33 15.34 30.33 15.64 30.33 15.94 30.33 16.24 30.33 16.55 30.33 16.85 30.33 17.15 30.33 17.15 29.98 16.85 29.98 16.55 29.98 16.24 29.98 15.94 29.98 15.64 29.98 15.34 29.98 15.04 29.98 14.74 29.98 14.44 29.98 14.14 29.98 13.83 29.98 13.53 29.98 13.23 29.98 13.23 30.33 13.53 30.33 13.83 30.33"/><polygon class="cls-2" points="7.51 31.39 7.51 31.04 7.81 31.04 8.11 31.04 8.41 31.04 8.41 31.39 8.41 31.74 8.71 31.74 9.02 31.74 9.32 31.74 9.62 31.74 9.92 31.74 9.92 31.39 9.92 31.04 9.92 30.68 9.62 30.68 9.32 30.68 9.02 30.68 9.02 31.04 9.32 31.04 9.62 31.04 9.62 31.39 9.32 31.39 9.02 31.39 8.71 31.39 8.71 31.04 8.71 30.68 8.41 30.68 8.11 30.68 7.81 30.68 7.51 30.68 7.21 30.68 7.21 31.04 7.21 31.39 7.21 31.74 7.51 31.74 7.51 31.39"/><polygon class="cls-2" points="40.65 29.98 40.34 29.98 40.04 29.98 39.74 29.98 39.44 29.98 39.14 29.98 38.84 29.98 38.54 29.98 38.23 29.98 37.93 29.98 37.63 29.98 37.33 29.98 37.33 30.33 37.63 30.33 37.93 30.33 38.23 30.33 38.54 30.33 38.84 30.33 39.14 30.33 39.44 30.33 39.74 30.33 40.04 30.33 40.34 30.33 40.65 30.33 40.95 30.33 41.25 30.33 41.25 29.98 40.95 29.98 40.65 29.98"/><polygon class="cls-2" points="4.5 30.33 4.8 30.33 5.1 30.33 5.1 29.98 4.8 29.98 4.5 29.98 4.2 29.98 3.89 29.98 3.59 29.98 3.29 29.98 2.99 29.98 2.69 29.98 2.39 29.98 2.09 29.98 1.78 29.98 1.48 29.98 1.18 29.98 1.18 30.33 1.48 30.33 1.78 30.33 2.09 30.33 2.39 30.33 2.69 30.33 2.99 30.33 3.29 30.33 3.59 30.33 3.89 30.33 4.2 30.33 4.5 30.33"/><polygon class="cls-2" points="39.44 30.68 39.14 30.68 39.14 31.04 39.44 31.04 39.74 31.04 39.74 31.39 39.44 31.39 39.14 31.39 38.84 31.39 38.84 31.04 38.84 30.68 38.54 30.68 38.23 30.68 37.93 30.68 37.63 30.68 37.33 30.68 37.33 31.04 37.33 31.39 37.33 31.74 37.63 31.74 37.63 31.39 37.63 31.04 37.93 31.04 38.23 31.04 38.54 31.04 38.54 31.39 38.54 31.74 38.84 31.74 39.14 31.74 39.44 31.74 39.74 31.74 40.04 31.74 40.04 31.39 40.04 31.04 40.04 30.68 39.74 30.68 39.44 30.68"/><rect class="cls-2" x="37.93" y="31.39" width="0.3" height="0.35"/><polygon class="cls-2" points="34.62 29.63 34.92 29.63 35.22 29.63 35.52 29.63 35.83 29.63 36.13 29.63 36.43 29.63 36.73 29.63 37.03 29.63 37.03 29.28 36.73 29.28 36.43 29.28 36.13 29.28 35.83 29.28 35.52 29.28 35.22 29.28 34.92 29.28 34.62 29.28 34.32 29.28 34.32 29.63 34.62 29.63"/><polygon class="cls-2" points="5.1 31.74 5.1 31.39 4.8 31.39 4.5 31.39 4.5 31.04 4.8 31.04 5.1 31.04 5.4 31.04 5.4 31.39 5.4 31.74 5.7 31.74 6 31.74 6.3 31.74 6.61 31.74 6.91 31.74 6.91 31.39 6.91 31.04 6.91 30.68 6.91 30.33 6.91 29.98 6.61 29.98 6.61 30.33 6.61 30.68 6.61 31.04 6.61 31.39 6.3 31.39 6.3 31.04 6.3 30.68 6.3 30.33 6.3 29.98 6 29.98 6 30.33 6 30.68 6 31.04 6 31.39 5.7 31.39 5.7 31.04 5.7 30.68 5.7 30.33 5.7 29.98 5.4 29.98 5.4 30.33 5.4 30.68 5.1 30.68 4.8 30.68 4.5 30.68 4.2 30.68 4.2 31.04 4.2 31.39 4.2 31.74 4.5 31.74 4.8 31.74 5.1 31.74"/><rect class="cls-2" x="25.88" y="31.39" width="0.3" height="0.35"/><polygon class="cls-2" points="22.87 30.68 22.57 30.68 22.27 30.68 22.27 31.04 22.27 31.39 22.27 31.74 22.57 31.74 22.87 31.74 23.17 31.74 23.17 31.39 22.87 31.39 22.57 31.39 22.57 31.04 22.87 31.04 23.17 31.04 23.47 31.04 23.47 31.39 23.47 31.74 23.77 31.74 24.08 31.74 24.38 31.74 24.68 31.74 24.98 31.74 24.98 31.39 24.98 31.04 24.98 30.68 24.98 30.33 24.98 29.98 24.68 29.98 24.68 30.33 24.68 30.68 24.68 31.04 24.68 31.39 24.38 31.39 24.38 31.04 24.38 30.68 24.38 30.33 24.38 29.98 24.08 29.98 24.08 30.33 24.08 30.68 24.08 31.04 24.08 31.39 23.77 31.39 23.77 31.04 23.77 30.68 23.77 30.33 23.77 29.98 23.47 29.98 23.47 30.33 23.47 30.68 23.17 30.68 22.87 30.68"/><polygon class="cls-2" points="19.86 30.33 20.16 30.33 20.46 30.33 20.76 30.33 21.06 30.33 21.36 30.33 21.67 30.33 21.97 30.33 22.27 30.33 22.57 30.33 22.87 30.33 23.17 30.33 23.17 29.98 22.87 29.98 22.57 29.98 22.27 29.98 21.97 29.98 21.67 29.98 21.36 29.98 21.06 29.98 20.76 29.98 20.46 29.98 20.16 29.98 19.86 29.98 19.56 29.98 19.26 29.98 19.26 30.33 19.56 30.33 19.86 30.33"/><polygon class="cls-2" points="37.63 29.63 37.93 29.63 38.23 29.63 38.54 29.63 38.84 29.63 39.14 29.63 39.44 29.63 39.74 29.63 40.04 29.63 40.04 29.28 39.74 29.28 39.44 29.28 39.14 29.28 38.84 29.28 38.54 29.28 38.23 29.28 37.93 29.28 37.63 29.28 37.33 29.28 37.33 29.63 37.63 29.63"/><polygon class="cls-2" points="19.56 31.39 19.56 31.04 19.86 31.04 20.16 31.04 20.46 31.04 20.46 31.39 20.46 31.74 20.76 31.74 21.06 31.74 21.36 31.74 21.67 31.74 21.97 31.74 21.97 31.39 21.97 31.04 21.97 30.68 21.67 30.68 21.36 30.68 21.06 30.68 21.06 31.04 21.36 31.04 21.67 31.04 21.67 31.39 21.36 31.39 21.06 31.39 20.76 31.39 20.76 31.04 20.76 30.68 20.46 30.68 20.16 30.68 19.86 30.68 19.56 30.68 19.26 30.68 19.26 31.04 19.26 31.39 19.26 31.74 19.56 31.74 19.56 31.39"/><polygon class="cls-2" points="16.85 30.68 16.55 30.68 16.24 30.68 16.24 31.04 16.24 31.39 16.24 31.74 16.55 31.74 16.85 31.74 17.15 31.74 17.15 31.39 16.85 31.39 16.55 31.39 16.55 31.04 16.85 31.04 17.15 31.04 17.45 31.04 17.45 31.39 17.45 31.74 17.75 31.74 18.05 31.74 18.35 31.74 18.65 31.74 18.96 31.74 18.96 31.39 18.96 31.04 18.96 30.68 18.96 30.33 18.96 29.98 18.65 29.98 18.65 30.33 18.65 30.68 18.65 31.04 18.65 31.39 18.35 31.39 18.35 31.04 18.35 30.68 18.35 30.33 18.35 29.98 18.05 29.98 18.05 30.33 18.05 30.68 18.05 31.04 18.05 31.39 17.75 31.39 17.75 31.04 17.75 30.68 17.75 30.33 17.75 29.98 17.45 29.98 17.45 30.33 17.45 30.68 17.15 30.68 16.85 30.68"/><rect class="cls-2" x="19.86" y="31.39" width="0.3" height="0.35"/><polygon class="cls-2" points="25.58 31.39 25.58 31.04 25.88 31.04 26.18 31.04 26.49 31.04 26.49 31.39 26.49 31.74 26.79 31.74 27.09 31.74 27.39 31.74 27.69 31.74 27.99 31.74 27.99 31.39 27.99 31.04 27.99 30.68 27.69 30.68 27.39 30.68 27.09 30.68 27.09 31.04 27.39 31.04 27.69 31.04 27.69 31.39 27.39 31.39 27.09 31.39 26.79 31.39 26.79 31.04 26.79 30.68 26.49 30.68 26.18 30.68 25.88 30.68 25.58 30.68 25.28 30.68 25.28 31.04 25.28 31.39 25.28 31.74 25.58 31.74 25.58 31.39"/><polygon class="cls-2" points="22.87 12.73 22.57 12.73 22.27 12.73 22.27 13.09 22.27 13.44 22.27 13.79 22.57 13.79 22.87 13.79 23.17 13.79 23.17 13.44 22.87 13.44 22.57 13.44 22.57 13.09 22.87 13.09 23.17 13.09 23.47 13.09 23.47 13.44 23.47 13.79 23.77 13.79 24.08 13.79 24.38 13.79 24.68 13.79 24.98 13.79 24.98 13.44 24.98 13.09 24.98 12.73 24.98 12.38 24.98 12.03 24.68 12.03 24.68 12.38 24.68 12.73 24.68 13.09 24.68 13.44 24.38 13.44 24.38 13.09 24.38 12.73 24.38 12.38 24.38 12.03 24.08 12.03 24.08 12.38 24.08 12.73 24.08 13.09 24.08 13.44 23.77 13.44 23.77 13.09 23.77 12.73 23.77 12.38 23.77 12.03 23.47 12.03 23.47 12.38 23.47 12.73 23.17 12.73 22.87 12.73"/><polygon class="cls-2" points="37.63 13.44 37.63 13.09 37.93 13.09 38.23 13.09 38.54 13.09 38.54 13.44 38.54 13.79 38.84 13.79 39.14 13.79 39.44 13.79 39.74 13.79 40.04 13.79 40.04 13.44 40.04 13.09 40.04 12.73 39.74 12.73 39.44 12.73 39.14 12.73 39.14 13.09 39.44 13.09 39.74 13.09 39.74 13.44 39.44 13.44 39.14 13.44 38.84 13.44 38.84 13.09 38.84 12.73 38.54 12.73 38.23 12.73 37.93 12.73 37.63 12.73 37.33 12.73 37.33 13.09 37.33 13.44 37.33 13.79 37.63 13.79 37.63 13.44"/><polygon class="cls-2" points="25.88 12.38 26.18 12.38 26.49 12.38 26.79 12.38 27.09 12.38 27.39 12.38 27.69 12.38 27.99 12.38 28.29 12.38 28.59 12.38 28.9 12.38 29.2 12.38 29.2 12.03 28.9 12.03 28.59 12.03 28.29 12.03 27.99 12.03 27.69 12.03 27.39 12.03 27.09 12.03 26.79 12.03 26.49 12.03 26.18 12.03 25.88 12.03 25.58 12.03 25.28 12.03 25.28 12.38 25.58 12.38 25.88 12.38"/><polygon class="cls-2" points="19.86 12.38 20.16 12.38 20.46 12.38 20.76 12.38 21.06 12.38 21.36 12.38 21.67 12.38 21.97 12.38 22.27 12.38 22.57 12.38 22.87 12.38 23.17 12.38 23.17 12.03 22.87 12.03 22.57 12.03 22.27 12.03 21.97 12.03 21.67 12.03 21.36 12.03 21.06 12.03 20.76 12.03 20.46 12.03 20.16 12.03 19.86 12.03 19.56 12.03 19.26 12.03 19.26 12.38 19.56 12.38 19.86 12.38"/><polygon class="cls-2" points="25.58 13.44 25.58 13.09 25.88 13.09 26.18 13.09 26.49 13.09 26.49 13.44 26.49 13.79 26.79 13.79 27.09 13.79 27.39 13.79 27.69 13.79 27.99 13.79 27.99 13.44 27.99 13.09 27.99 12.73 27.69 12.73 27.39 12.73 27.09 12.73 27.09 13.09 27.39 13.09 27.69 13.09 27.69 13.44 27.39 13.44 27.09 13.44 26.79 13.44 26.79 13.09 26.79 12.73 26.49 12.73 26.18 12.73 25.88 12.73 25.58 12.73 25.28 12.73 25.28 13.09 25.28 13.44 25.28 13.79 25.58 13.79 25.58 13.44"/><polygon class="cls-2" points="28.9 12.73 28.59 12.73 28.29 12.73 28.29 13.09 28.29 13.44 28.29 13.79 28.59 13.79 28.9 13.79 29.2 13.79 29.2 13.44 28.9 13.44 28.59 13.44 28.59 13.09 28.9 13.09 29.2 13.09 29.5 13.09 29.5 13.44 29.5 13.79 29.8 13.79 30.1 13.79 30.4 13.79 30.7 13.79 31 13.79 31 13.44 31 13.09 31 12.73 31 12.38 31 12.03 30.7 12.03 30.7 12.38 30.7 12.73 30.7 13.09 30.7 13.44 30.4 13.44 30.4 13.09 30.4 12.73 30.4 12.38 30.4 12.03 30.1 12.03 30.1 12.38 30.1 12.73 30.1 13.09 30.1 13.44 29.8 13.44 29.8 13.09 29.8 12.73 29.8 12.38 29.8 12.03 29.5 12.03 29.5 12.38 29.5 12.73 29.2 12.73 28.9 12.73"/><rect class="cls-2" x="19.86" y="13.44" width="0.3" height="0.35"/><polygon class="cls-2" points="19.56 13.44 19.56 13.09 19.86 13.09 20.16 13.09 20.46 13.09 20.46 13.44 20.46 13.79 20.76 13.79 21.06 13.79 21.36 13.79 21.67 13.79 21.97 13.79 21.97 13.44 21.97 13.09 21.97 12.73 21.67 12.73 21.36 12.73 21.06 12.73 21.06 13.09 21.36 13.09 21.67 13.09 21.67 13.44 21.36 13.44 21.06 13.44 20.76 13.44 20.76 13.09 20.76 12.73 20.46 12.73 20.16 12.73 19.86 12.73 19.56 12.73 19.26 12.73 19.26 13.09 19.26 13.44 19.26 13.79 19.56 13.79 19.56 13.44"/><polygon class="cls-2" points="34.92 12.73 34.62 12.73 34.32 12.73 34.32 13.09 34.32 13.44 34.32 13.79 34.62 13.79 34.92 13.79 35.22 13.79 35.22 13.44 34.92 13.44 34.62 13.44 34.62 13.09 34.92 13.09 35.22 13.09 35.52 13.09 35.52 13.44 35.52 13.79 35.83 13.79 36.13 13.79 36.43 13.79 36.73 13.79 37.03 13.79 37.03 13.44 37.03 13.09 37.03 12.73 37.03 12.38 37.03 12.03 36.73 12.03 36.73 12.38 36.73 12.73 36.73 13.09 36.73 13.44 36.43 13.44 36.43 13.09 36.43 12.73 36.43 12.38 36.43 12.03 36.13 12.03 36.13 12.38 36.13 12.73 36.13 13.09 36.13 13.44 35.83 13.44 35.83 13.09 35.83 12.73 35.83 12.38 35.83 12.03 35.52 12.03 35.52 12.38 35.52 12.73 35.22 12.73 34.92 12.73"/><rect class="cls-2" x="31.91" y="13.44" width="0.3" height="0.35"/><polygon class="cls-2" points="31.61 13.44 31.61 13.09 31.91 13.09 32.21 13.09 32.51 13.09 32.51 13.44 32.51 13.79 32.81 13.79 33.11 13.79 33.41 13.79 33.72 13.79 34.02 13.79 34.02 13.44 34.02 13.09 34.02 12.73 33.72 12.73 33.41 12.73 33.11 12.73 33.11 13.09 33.41 13.09 33.72 13.09 33.72 13.44 33.41 13.44 33.11 13.44 32.81 13.44 32.81 13.09 32.81 12.73 32.51 12.73 32.21 12.73 31.91 12.73 31.61 12.73 31.31 12.73 31.31 13.09 31.31 13.44 31.31 13.79 31.61 13.79 31.61 13.44"/><polygon class="cls-2" points="31.91 12.38 32.21 12.38 32.51 12.38 32.81 12.38 33.11 12.38 33.41 12.38 33.72 12.38 34.02 12.38 34.32 12.38 34.62 12.38 34.92 12.38 35.22 12.38 35.22 12.03 34.92 12.03 34.62 12.03 34.32 12.03 34.02 12.03 33.72 12.03 33.41 12.03 33.11 12.03 32.81 12.03 32.51 12.03 32.21 12.03 31.91 12.03 31.61 12.03 31.31 12.03 31.31 12.38 31.61 12.38 31.91 12.38"/><rect class="cls-2" x="25.88" y="13.44" width="0.3" height="0.35"/><polygon class="cls-2" points="13.53 13.44 13.53 13.09 13.83 13.09 14.14 13.09 14.44 13.09 14.44 13.44 14.44 13.79 14.74 13.79 15.04 13.79 15.34 13.79 15.64 13.79 15.94 13.79 15.94 13.44 15.94 13.09 15.94 12.73 15.64 12.73 15.34 12.73 15.04 12.73 15.04 13.09 15.34 13.09 15.64 13.09 15.64 13.44 15.34 13.44 15.04 13.44 14.74 13.44 14.74 13.09 14.74 12.73 14.44 12.73 14.14 12.73 13.83 12.73 13.53 12.73 13.23 12.73 13.23 13.09 13.23 13.44 13.23 13.79 13.53 13.79 13.53 13.44"/><polygon class="cls-2" points="1.78 12.38 2.09 12.38 2.39 12.38 2.69 12.38 2.99 12.38 3.29 12.38 3.59 12.38 3.89 12.38 4.2 12.38 4.5 12.38 4.8 12.38 5.1 12.38 5.1 12.03 4.8 12.03 4.5 12.03 4.2 12.03 3.89 12.03 3.59 12.03 3.29 12.03 2.99 12.03 2.69 12.03 2.39 12.03 2.09 12.03 1.78 12.03 1.48 12.03 1.18 12.03 1.18 12.38 1.48 12.38 1.78 12.38"/><polygon class="cls-2" points="4.8 12.73 4.5 12.73 4.2 12.73 4.2 13.09 4.2 13.44 4.2 13.79 4.5 13.79 4.8 13.79 5.1 13.79 5.1 13.44 4.8 13.44 4.5 13.44 4.5 13.09 4.8 13.09 5.1 13.09 5.4 13.09 5.4 13.44 5.4 13.79 5.7 13.79 6 13.79 6.3 13.79 6.61 13.79 6.91 13.79 6.91 13.44 6.91 13.09 6.91 12.73 6.91 12.38 6.91 12.03 6.61 12.03 6.61 12.38 6.61 12.73 6.61 13.09 6.61 13.44 6.3 13.44 6.3 13.09 6.3 12.73 6.3 12.38 6.3 12.03 6 12.03 6 12.38 6 12.73 6 13.09 6 13.44 5.7 13.44 5.7 13.09 5.7 12.73 5.7 12.38 5.7 12.03 5.4 12.03 5.4 12.38 5.4 12.73 5.1 12.73 4.8 12.73"/><rect class="cls-2" x="1.78" y="13.44" width="0.3" height="0.35"/><rect class="cls-2" x="13.83" y="13.44" width="0.3" height="0.35"/><polygon class="cls-2" points="1.48 13.44 1.48 13.09 1.78 13.09 2.09 13.09 2.39 13.09 2.39 13.44 2.39 13.79 2.69 13.79 2.99 13.79 3.29 13.79 3.59 13.79 3.89 13.79 3.89 13.44 3.89 13.09 3.89 12.73 3.59 12.73 3.29 12.73 2.99 12.73 2.99 13.09 3.29 13.09 3.59 13.09 3.59 13.44 3.29 13.44 2.99 13.44 2.69 13.44 2.69 13.09 2.69 12.73 2.39 12.73 2.09 12.73 1.78 12.73 1.48 12.73 1.18 12.73 1.18 13.09 1.18 13.44 1.18 13.79 1.48 13.79 1.48 13.44"/><path class="cls-2" d="M.88,14.49v-.35H.53l-.06.35H.88Z"/><polygon class="cls-2" points="7.51 13.44 7.51 13.09 7.81 13.09 8.11 13.09 8.41 13.09 8.41 13.44 8.41 13.79 8.71 13.79 9.02 13.79 9.32 13.79 9.62 13.79 9.92 13.79 9.92 13.44 9.92 13.09 9.92 12.73 9.62 12.73 9.32 12.73 9.02 12.73 9.02 13.09 9.32 13.09 9.62 13.09 9.62 13.44 9.32 13.44 9.02 13.44 8.71 13.44 8.71 13.09 8.71 12.73 8.41 12.73 8.11 12.73 7.81 12.73 7.51 12.73 7.21 12.73 7.21 13.09 7.21 13.44 7.21 13.79 7.51 13.79 7.51 13.44"/><polygon class="cls-2" points="7.81 12.38 8.11 12.38 8.41 12.38 8.71 12.38 9.02 12.38 9.32 12.38 9.62 12.38 9.92 12.38 10.22 12.38 10.52 12.38 10.82 12.38 11.12 12.38 11.12 12.03 10.82 12.03 10.52 12.03 10.22 12.03 9.92 12.03 9.62 12.03 9.32 12.03 9.02 12.03 8.71 12.03 8.41 12.03 8.11 12.03 7.81 12.03 7.51 12.03 7.21 12.03 7.21 12.38 7.51 12.38 7.81 12.38"/><polygon class="cls-2" points="16.85 12.73 16.55 12.73 16.24 12.73 16.24 13.09 16.24 13.44 16.24 13.79 16.55 13.79 16.85 13.79 17.15 13.79 17.15 13.44 16.85 13.44 16.55 13.44 16.55 13.09 16.85 13.09 17.15 13.09 17.45 13.09 17.45 13.44 17.45 13.79 17.75 13.79 18.05 13.79 18.35 13.79 18.65 13.79 18.96 13.79 18.96 13.44 18.96 13.09 18.96 12.73 18.96 12.38 18.96 12.03 18.65 12.03 18.65 12.38 18.65 12.73 18.65 13.09 18.65 13.44 18.35 13.44 18.35 13.09 18.35 12.73 18.35 12.38 18.35 12.03 18.05 12.03 18.05 12.38 18.05 12.73 18.05 13.09 18.05 13.44 17.75 13.44 17.75 13.09 17.75 12.73 17.75 12.38 17.75 12.03 17.45 12.03 17.45 12.38 17.45 12.73 17.15 12.73 16.85 12.73"/><polygon class="cls-2" points="37.93 12.38 38.23 12.38 38.54 12.38 38.84 12.38 39.14 12.38 39.44 12.38 39.74 12.38 40.04 12.38 40.34 12.38 40.65 12.38 40.95 12.38 41.25 12.38 41.25 12.03 40.95 12.03 40.65 12.03 40.34 12.03 40.04 12.03 39.74 12.03 39.44 12.03 39.14 12.03 38.84 12.03 38.54 12.03 38.23 12.03 37.93 12.03 37.63 12.03 37.33 12.03 37.33 12.38 37.63 12.38 37.93 12.38"/><rect class="cls-2" x="7.81" y="13.44" width="0.3" height="0.35"/><polygon class="cls-2" points="10.82 12.73 10.52 12.73 10.22 12.73 10.22 13.09 10.22 13.44 10.22 13.79 10.52 13.79 10.82 13.79 11.12 13.79 11.12 13.44 10.82 13.44 10.52 13.44 10.52 13.09 10.82 13.09 11.12 13.09 11.42 13.09 11.42 13.44 11.42 13.79 11.73 13.79 12.03 13.79 12.33 13.79 12.63 13.79 12.93 13.79 12.93 13.44 12.93 13.09 12.93 12.73 12.93 12.38 12.93 12.03 12.63 12.03 12.63 12.38 12.63 12.73 12.63 13.09 12.63 13.44 12.33 13.44 12.33 13.09 12.33 12.73 12.33 12.38 12.33 12.03 12.03 12.03 12.03 12.38 12.03 12.73 12.03 13.09 12.03 13.44 11.73 13.44 11.73 13.09 11.73 12.73 11.73 12.38 11.73 12.03 11.42 12.03 11.42 12.38 11.42 12.73 11.12 12.73 10.82 12.73"/><polygon class="cls-2" points="13.83 12.38 14.14 12.38 14.44 12.38 14.74 12.38 15.04 12.38 15.34 12.38 15.64 12.38 15.94 12.38 16.24 12.38 16.55 12.38 16.85 12.38 17.15 12.38 17.15 12.03 16.85 12.03 16.55 12.03 16.24 12.03 15.94 12.03 15.64 12.03 15.34 12.03 15.04 12.03 14.74 12.03 14.44 12.03 14.14 12.03 13.83 12.03 13.53 12.03 13.23 12.03 13.23 12.38 13.53 12.38 13.83 12.38"/><polygon class="cls-2" points="30.7 14.14 30.4 14.14 30.1 14.14 29.8 14.14 29.5 14.14 29.2 14.14 28.9 14.14 28.59 14.14 28.29 14.14 28.29 14.49 28.59 14.49 28.9 14.49 29.2 14.49 29.5 14.49 29.8 14.49 30.1 14.49 30.4 14.49 30.7 14.49 31 14.49 31 14.14 30.7 14.14"/><polygon class="cls-2" points="33.72 14.14 33.41 14.14 33.11 14.14 32.81 14.14 32.51 14.14 32.21 14.14 31.91 14.14 31.61 14.14 31.31 14.14 31.31 14.49 31.61 14.49 31.91 14.49 32.21 14.49 32.51 14.49 32.81 14.49 33.11 14.49 33.41 14.49 33.72 14.49 34.02 14.49 34.02 14.14 33.72 14.14"/><polygon class="cls-2" points="36.73 14.14 36.43 14.14 36.13 14.14 35.83 14.14 35.52 14.14 35.22 14.14 34.92 14.14 34.62 14.14 34.32 14.14 34.32 14.49 34.62 14.49 34.92 14.49 35.22 14.49 35.52 14.49 35.83 14.49 36.13 14.49 36.43 14.49 36.73 14.49 37.03 14.49 37.03 14.14 36.73 14.14"/><polygon class="cls-2" points="12.63 14.14 12.33 14.14 12.03 14.14 11.73 14.14 11.42 14.14 11.12 14.14 10.82 14.14 10.52 14.14 10.22 14.14 10.22 14.49 10.52 14.49 10.82 14.49 11.12 14.49 11.42 14.49 11.73 14.49 12.03 14.49 12.33 14.49 12.63 14.49 12.93 14.49 12.93 14.14 12.63 14.14"/><polygon class="cls-2" points="15.64 14.14 15.34 14.14 15.04 14.14 14.74 14.14 14.44 14.14 14.14 14.14 13.83 14.14 13.53 14.14 13.23 14.14 13.23 14.49 13.53 14.49 13.83 14.49 14.14 14.49 14.44 14.49 14.74 14.49 15.04 14.49 15.34 14.49 15.64 14.49 15.94 14.49 15.94 14.14 15.64 14.14"/><polygon class="cls-2" points="24.68 14.14 24.38 14.14 24.08 14.14 23.77 14.14 23.47 14.14 23.17 14.14 22.87 14.14 22.57 14.14 22.27 14.14 22.27 14.49 22.57 14.49 22.87 14.49 23.17 14.49 23.47 14.49 23.77 14.49 24.08 14.49 24.38 14.49 24.68 14.49 24.98 14.49 24.98 14.14 24.68 14.14"/><polygon class="cls-2" points="27.69 14.14 27.39 14.14 27.09 14.14 26.79 14.14 26.49 14.14 26.18 14.14 25.88 14.14 25.58 14.14 25.28 14.14 25.28 14.49 25.58 14.49 25.88 14.49 26.18 14.49 26.49 14.49 26.79 14.49 27.09 14.49 27.39 14.49 27.69 14.49 27.99 14.49 27.99 14.14 27.69 14.14"/><polygon class="cls-2" points="21.67 14.14 21.36 14.14 21.06 14.14 20.76 14.14 20.46 14.14 20.16 14.14 19.86 14.14 19.56 14.14 19.26 14.14 19.26 14.49 19.56 14.49 19.86 14.49 20.16 14.49 20.46 14.49 20.76 14.49 21.06 14.49 21.36 14.49 21.67 14.49 21.97 14.49 21.97 14.14 21.67 14.14"/><polygon class="cls-2" points="18.65 14.14 18.35 14.14 18.05 14.14 17.75 14.14 17.45 14.14 17.15 14.14 16.85 14.14 16.55 14.14 16.24 14.14 16.24 14.49 16.55 14.49 16.85 14.49 17.15 14.49 17.45 14.49 17.75 14.49 18.05 14.49 18.35 14.49 18.65 14.49 18.96 14.49 18.96 14.14 18.65 14.14"/><polygon class="cls-2" points="6.61 14.14 6.3 14.14 6 14.14 5.7 14.14 5.4 14.14 5.1 14.14 4.8 14.14 4.5 14.14 4.2 14.14 4.2 14.49 4.5 14.49 4.8 14.49 5.1 14.49 5.4 14.49 5.7 14.49 6 14.49 6.3 14.49 6.61 14.49 6.91 14.49 6.91 14.14 6.61 14.14"/><path class="cls-2" d="M.88,13.44v-.88c-.1.42-.2.83-.28,1.23H.88Z"/><polygon class="cls-2" points="3.59 14.14 3.29 14.14 2.99 14.14 2.69 14.14 2.39 14.14 2.09 14.14 1.78 14.14 1.48 14.14 1.18 14.14 1.18 14.49 1.48 14.49 1.78 14.49 2.09 14.49 2.39 14.49 2.69 14.49 2.99 14.49 3.29 14.49 3.59 14.49 3.89 14.49 3.89 14.14 3.59 14.14"/><rect class="cls-2" x="37.93" y="13.44" width="0.3" height="0.35"/><polygon class="cls-2" points="39.74 14.14 39.44 14.14 39.14 14.14 38.84 14.14 38.54 14.14 38.23 14.14 37.93 14.14 37.63 14.14 37.33 14.14 37.33 14.49 37.63 14.49 37.93 14.49 38.23 14.49 38.54 14.49 38.84 14.49 39.14 14.49 39.44 14.49 39.74 14.49 40.04 14.49 40.04 14.14 39.74 14.14"/><path class="cls-2" d="M42.15,13.09v.35h-.3V12h-.3v.7H40.34v1.06h.91v-.35h-.61v-.35h.91v.7h.85c-.07-.36-.16-.73-.25-1.1v.4Z"/><polygon class="cls-2" points="9.62 14.14 9.32 14.14 9.02 14.14 8.71 14.14 8.41 14.14 8.11 14.14 7.81 14.14 7.51 14.14 7.21 14.14 7.21 14.49 7.51 14.49 7.81 14.49 8.11 14.49 8.41 14.49 8.71 14.49 9.02 14.49 9.32 14.49 9.62 14.49 9.92 14.49 9.92 14.14 9.62 14.14"/><path class="cls-2" d="M42.15,14.14H40.34v.35h2.19l-.06-.35h-.32Z"/><path class="cls-3" d="M21.05,25h0l.29.17a5.18,5.18,0,0,1-1.72.3h0a4.62,4.62,0,0,0,1.34.19,4.93,4.93,0,0,0,.78-.06v.11l.42.51.41-.51v-.11a4.9,4.9,0,0,0,.77.06,4.52,4.52,0,0,0,1.34-.19h0a5.09,5.09,0,0,1-1.72-.3l.29-.17h0a4.61,4.61,0,0,0,.45-7.59,5.06,5.06,0,0,1,.17,5.68,5.15,5.15,0,0,1-1.24,1.35l0-1.35.16-5.4-.57-.14-.08,0-.09,0-.56.14.16,5.4,0,1.35a5,5,0,0,1-1.24-1.35,5.06,5.06,0,0,1,.17-5.68A4.59,4.59,0,0,0,18.81,21,4.62,4.62,0,0,0,21.05,25Z"/><path class="cls-3" d="M26.67,23.07A3.81,3.81,0,0,0,24,17.41a5,5,0,0,1,2.12,4.08,4.9,4.9,0,0,1-.27,1.58A5.09,5.09,0,0,1,25,24.61,3.84,3.84,0,0,0,26.67,23.07Z"/><path class="cls-3" d="M22.84,16.93a.74.74,0,0,1-.72-.58.75.75,0,0,1-.73.58.74.74,0,0,1-.72-.58.73.73,0,0,0-.08.33.8.8,0,0,0,1.53.33.78.78,0,0,0,.72.47.8.8,0,0,0,.8-.8.72.72,0,0,0-.07-.33A.74.74,0,0,1,22.84,16.93Z"/><path class="cls-3" d="M19.22,24.61a4.91,4.91,0,0,1-.84-1.54,5.18,5.18,0,0,1-.26-1.58,5,5,0,0,1,2.12-4.08,3.82,3.82,0,0,0-1,7.2Z"/></svg>