<svg id="레이어_1" data-name="레이어 1" xmlns="http://www.w3.org/2000/svg" viewBox="0 0 43 43"><defs><style>.cls-1{fill:#fff;}.cls-2{fill:#007a3d;}.cls-3{fill:#ce1126;}</style></defs><title>요르단</title><path class="cls-1" d="M26.33,21.5,15.22,28.9H42.46A32.13,32.13,0,0,0,43,24c0-1.07,0-1.22,0-2.48s0-1.41,0-2.48a32.13,32.13,0,0,0-.51-4.92H15.22Z"/><path d="M38.47,5.4a15.21,15.21,0,0,0-6.23-4C29.79.51,27.14.11,22,0H21c-5.16.11-7.81.51-10.26,1.36a15.21,15.21,0,0,0-6.23,4,10.06,10.06,0,0,0-.83,1L15.22,14.1H42.46A23,23,0,0,0,41.68,11,16.82,16.82,0,0,0,38.47,5.4Z"/><path class="cls-2" d="M3.7,36.57a10.06,10.06,0,0,0,.83,1,15.21,15.21,0,0,0,6.23,4c2.45.85,5.1,1.25,10.26,1.36h1c5.16-.11,7.81-.51,10.26-1.36a15.21,15.21,0,0,0,6.23-4A16.92,16.92,0,0,0,41.68,32a23,23,0,0,0,.78-3.07H15.22Z"/><path class="cls-3" d="M26.33,21.5,15.22,14.1,3.7,6.43A17.61,17.61,0,0,0,1.32,11,28.13,28.13,0,0,0,0,19c0,1.07,0,1.22,0,2.48S0,22.91,0,24a28.13,28.13,0,0,0,1.29,8,17.61,17.61,0,0,0,2.38,4.6L15.22,28.9Zm-17,2.86L7.91,23.09,6.53,24.36l.14-1.87-1.86-.28,1.55-1.06-.93-1.63,1.79.55.69-1.74.69,1.74,1.79-.55-.93,1.63L11,22.21l-1.85.28Z"/><polygon class="cls-1" points="9.46 21.15 10.39 19.52 8.6 20.07 7.91 18.33 7.22 20.07 5.43 19.52 6.36 21.15 4.82 22.21 6.67 22.49 6.53 24.36 7.91 23.09 9.29 24.36 9.15 22.49 11 22.21 9.46 21.15"/></svg>