<svg id="레이어_1" data-name="레이어 1" xmlns="http://www.w3.org/2000/svg" viewBox="0 0 43 43"><defs><style>.cls-1{fill:#254aa3;}.cls-2{fill:#fff;}.cls-3{fill:#ffde36;}</style></defs><title>코소보</title><path class="cls-1" d="M41.68,11A16.82,16.82,0,0,0,38.47,5.4a15.21,15.21,0,0,0-6.23-4C29.79.51,27.14.11,22,0H21c-5.16.11-7.81.51-10.26,1.36a15.21,15.21,0,0,0-6.23,4A16.82,16.82,0,0,0,1.32,11,28.13,28.13,0,0,0,0,19c0,1.07,0,1.22,0,2.48S0,22.91,0,24a28.13,28.13,0,0,0,1.29,8A16.92,16.92,0,0,0,4.53,37.6a15.21,15.21,0,0,0,6.23,4c2.45.85,5.1,1.25,10.26,1.36h1c5.16-.11,7.81-.51,10.26-1.36a15.21,15.21,0,0,0,6.23-4A16.92,16.92,0,0,0,41.68,32,27.74,27.74,0,0,0,43,24c0-1.07,0-1.22,0-2.48s0-1.41,0-2.48A27.74,27.74,0,0,0,41.68,11ZM9.56,14.93l-1.42-1-1.41,1,.54-1.67-1.42-1H7.61l.53-1.66.55,1.66h1.74L9,13.26Zm19.77-4.62.55-1.66.54,1.66h1.75l-1.42,1L31.3,13l-1.42-1-1.42,1L29,11.33l-1.41-1Zm-5.47-1,.53-1.66.55,1.66h1.74l-1.41,1L25.81,12l-1.42-1L23,12l.54-1.66-1.42-1Zm-5.55,0,.54-1.66.54,1.66h1.75l-1.42,1L20.27,12l-1.42-1-1.42,1L18,10.37l-1.42-1Zm-5.48,1,.53-1.66.55,1.66h1.75l-1.42,1L14.78,13l-1.42-1L12,13l.54-1.66-1.42-1ZM33,24.08c-.12,0,0,.09,0,.12l-.14.14-.11.1-.2.13a.64.64,0,0,0,.11.17,1,1,0,0,1,0,.49.76.76,0,0,0-.09.23h-.21a.75.75,0,0,0-.27.16c-.1.08,0,.23,0,.23s0,.25,0,.3a.21.21,0,0,0-.06.12l-.22.23c-.1.09-.06.12-.18.24s-.33.08-.38.13.09.42.09.49.11.12.18.25,0,.07-.21.26,0,.22-.14.32-.16,0-.27,0-.06-.06-.2-.11-.14.14-.21.28-.13,0-.17-.07-.15,0-.15,0l-.13.26a.79.79,0,0,1,0,.21c0,.07,0,.15,0,.23s.09.08.17.18.09,0,.12-.06.14.15.14.15a.42.42,0,0,0,.08.25.15.15,0,0,1,0,.25c-.09.09,0,.15-.1.28s-.13,0-.18,0-.26,0-.4-.07-.05-.29-.15-.29-.14,0-.2-.12-.16,0-.28,0-.06,0-.19.09,0,.13,0,.28a.29.29,0,0,1-.28.33c-.21,0-.09-.13-.18-.19s-.24.06-.24.06l-.16.17c-.12.12-.09.21-.18.29s0,0-.29.14-.11.43-.11.46a.4.4,0,0,1-.12.22.41.41,0,0,0-.07.37s.19.42.15.46-.09.06-.24-.09,0,.08-.09.14a2.51,2.51,0,0,1-.72.06.55.55,0,0,1-.3-.16c-.1-.11.06-.22,0-.36a1.37,1.37,0,0,1-.1-.41c0-.2-.16-.11-.31-.26s0-.23-.2-.33-.21,0-.28,0-.11-.1-.17-.1a3.3,3.3,0,0,0-.61.24c-.14.07-.08.15-.29.28s-.17.14-.56.14-.17.17-.41.33-.16,0-.4,0-.44.35-.44.39a.48.48,0,0,1-.25.24c-.12,0-.17,0-.31,0s-.12,0-.2.08a.51.51,0,0,1-.33.17.6.6,0,0,0-.33.08c-.19.07-.08.14-.18.24a.87.87,0,0,0-.14.44s0,.07-.11.18,0,.24,0,.28v.28c0,.09.06.19.06.28s.09.12.06.23a1.72,1.72,0,0,0,0,.28,1.28,1.28,0,0,0,.26.2c.11.06,0,.11-.07.11s0,.22-.12.22-.17.1-.22.22,0,.1-.3.21-.15.15-.31.22a.72.72,0,0,1-.31.05c-.05,0-.07-.07-.12-.12a.34.34,0,0,0-.18-.09c-.06,0-.09.09-.21.15s-.07.06-.24.06-.05-.06-.09-.16-.14-.15-.23-.29a.42.42,0,0,1,0-.38,1.53,1.53,0,0,0,.18-.18s.14-.08.14-.11a1.36,1.36,0,0,1,.2-.25s0-.2-.06-.24.1-.08.1-.08,0-.13,0-.17-.14-.2-.36-.46,0-.37,0-.51-.06-.14-.17-.25-.2-.13-.28-.21,0-.15-.06-.26.07-.24,0-.33,0-.11.09-.16-.1-.39-.16-.44,0-.25-.16-.38,0-.16,0-.37,0-.09-.13-.21-.1-.21-.2-.31-.57-.57-.69-.69-.1-.06-.29-.16-.22,0-.28,0-.06-.19-.09-.27-.21-.06-.4-.1-.08-.09-.2-.25-.14,0-.27,0a1.46,1.46,0,0,1-.35.1c-.08,0-.1,0-.19,0a2,2,0,0,1-.35,0c-.16,0-.1-.09-.15-.16s0-.21-.08-.3,0-.15,0-.24a.78.78,0,0,0-.06-.37c-.08-.07-.08,0-.13-.05a.47.47,0,0,1-.1-.26c0-.06.14-.14.16-.21s0-.17-.09-.25-.05,0-.24-.12,0-.17,0-.2-.15,0-.21-.07,0-.19,0-.22a.67.67,0,0,1-.18-.3.51.51,0,0,0-.15-.29,1.41,1.41,0,0,0-.43-.21.91.91,0,0,1-.32-.2c-.14-.13,0-.13-.08-.19s-.1-.16-.16-.21.11-.12.11-.16,0-.24,0-.31,0-.37,0-.37a2.34,2.34,0,0,1,.25-.37c.1-.11.09-.09.09-.14s-.23-.22-.23-.22a1.06,1.06,0,0,1-.35-.13.61.61,0,0,0-.28-.12c-.14-.06-.25,0-.44-.06s-.06-.18-.12-.24a.65.65,0,0,1-.17-.27c0-.08.17-.17.11-.3s.06-.19.14-.22.16-.07.16-.15.11-.12.2-.12a1.14,1.14,0,0,0,.38-.21c.13-.1.2.05.31.09s.08.09.17.17.29,0,.39,0,.11,0,.11,0a3.09,3.09,0,0,0,.32.07c.13,0,.22,0,.3,0s0-.05,0-.12.21-.15.12-.24.09-.1.18-.1.28-.12.28-.22.11-.17.2-.26.1,0,.12-.07a2.12,2.12,0,0,0,.2-.13s.1.06.14.1a.19.19,0,0,0,.15,0,1.72,1.72,0,0,0,.19-.34s.21.08.29.08a.82.82,0,0,0,.18,0l.29-.07c.07,0,.19,0,.22.07a1,1,0,0,0,.27.09.8.8,0,0,0,.24-.25c.06-.12.27-.05.27-.06a1.33,1.33,0,0,1,.19-.22c.07-.07.44,0,.44,0s.18-.12.13-.22-.15-.09-.19-.19-.1-.09-.21-.2,0-.09,0-.21-.19-.11-.19-.19v-.16a.09.09,0,0,1,.09-.1l.2-.18c.08-.08.09-.15.12-.15s.34.09.34.09.13-.21.18-.31.24-.14.24-.24.11-.09.21-.09.09.09.09.13.25,0,.25,0a1.38,1.38,0,0,0,.14-.35c0-.08.21,0,.26-.09a.24.24,0,0,1,.14-.06.5.5,0,0,0-.07-.21c-.06-.06.08-.1.08-.17s-.15-.08-.15-.08a.77.77,0,0,1-.09-.2c0-.06.25,0,.26-.05s.11-.1.16-.16a.4.4,0,0,0,.09-.33c0-.14-.23-.19-.3-.19s-.15-.16-.25-.26.08-.11.08-.11,0-.15,0-.21a.57.57,0,0,0-.16-.07h-.29c-.13,0-.12-.12-.12-.16s.05-.06.05-.12a.18.18,0,0,0-.07-.17c-.07-.07-.18-.12-.21-.21s.19-.08.19-.08l.22,0a.25.25,0,0,0,.16-.06s.07.06.07.06l.33,0s.24-.06.24-.15.18-.08.2-.17.22-.11.2-.13.08-.14.1-.16.15.08.15.08a.59.59,0,0,0,.24-.12c.09-.11.23.08.25.06s.16,0,.23,0,0-.09,0-.19.14-.07.24-.1.18,0,.18.06.17.09.17.17.18.23.21.26a2.16,2.16,0,0,1,.22.16c.08.08,0,.25-.14.28s-.06,0-.18,0-.09.1-.11.2,0,.11-.07.11-.06.07-.16.17.15.09.21.09.18.13.18.13.27,0,.29,0,.15.12.26.12.15.09.2.09.11.09.11.16.17.09.22.12a1.19,1.19,0,0,0,.2.1l.13-.13a1.33,1.33,0,0,1,.42,0,2.63,2.63,0,0,1,.24.12,1.26,1.26,0,0,1,.19.16,1.25,1.25,0,0,0,.16.17l.28-.13c.09-.06.08-.12.13-.21s.12,0,.16.09.17.16.19.13.19,0,.24.05a1.12,1.12,0,0,0,.17.2c.08.08,0,.14-.06.22s-.07.09-.07.16.09.14.11.21a.57.57,0,0,1,0,.26c0,.1,0,.1.15.15a.2.2,0,0,1,.07.2.44.44,0,0,1,.05.13s.1.1.13.13.16,0,.18-.13.09-.08.12-.12.14,0,.16.05.15.11.15.2,0,.18,0,.28.07.11.05.23,0,.12,0,.19.05.15.05.19,0,.12,0,.12a.38.38,0,0,1,.12.13.59.59,0,0,0,.11.19l.16.17a1.79,1.79,0,0,0,.21.27c.11.11.16-.09.22-.15s.48.09.53.09.06.13.06.19.12.08.18.06.11.07.16.12.15.05.18.05.16-.08.22-.08a.58.58,0,0,1,.33.18c0,.09,0,.14-.08.2s0,.06-.11.13,0,.09-.05.14-.06.17,0,.21,0,.2,0,.2a.2.2,0,0,0-.11,0s-.1.1-.1.16a.49.49,0,0,1,0,.24c0,.06,0,.09,0,.14s-.06.06-.11.12-.15.11-.15.2.15.13.24.13a1.45,1.45,0,0,0,.34-.1c.14,0,.19.05.19.12s.16,0,.22,0,.2,0,.2,0,.23,0,.28.05.2.16.29.14a.66.66,0,0,1,.2,0s.16,0,.26,0a.12.12,0,0,1,.12.08l.19.19a.62.62,0,0,0,0,.2c0,.07.22.11.22.11a1.18,1.18,0,0,0,.29,0c.1,0,.13.09.13.13a1.36,1.36,0,0,0,.07.22c0,.07.15.1.23.1s.14-.09.18-.13a.23.23,0,0,0,.05-.17c0-.1.12-.12.14-.14s.34,0,.41,0,.17,0,.18,0,.14.17.18.2a3,3,0,0,0,.26.27.31.31,0,0,1,.1.27C33.23,24.14,33.12,24.08,33,24.08Zm3.51-9.15-1.42-1-1.42,1,.55-1.67-1.42-1h1.75l.54-1.66.54,1.66h1.75l-1.42,1Z"/><polygon class="cls-2" points="11.95 13 13.36 11.97 14.78 13 14.24 11.34 15.66 10.31 13.91 10.31 13.36 8.65 12.83 10.31 11.07 10.31 12.49 11.34 11.95 13"/><polygon class="cls-2" points="28.46 13 29.88 11.97 31.3 13 30.75 11.33 32.17 10.31 30.42 10.31 29.88 8.65 29.33 10.31 27.59 10.31 29 11.33 28.46 13"/><polygon class="cls-2" points="35.64 12.23 35.1 10.57 34.56 12.23 32.81 12.23 34.23 13.26 33.68 14.93 35.1 13.9 36.52 14.93 35.97 13.26 37.39 12.23 35.64 12.23"/><polygon class="cls-2" points="8.69 12.23 8.14 10.57 7.61 12.23 5.85 12.23 7.27 13.26 6.73 14.93 8.14 13.9 9.56 14.93 9.02 13.26 10.43 12.23 8.69 12.23"/><polygon class="cls-2" points="17.43 12.04 18.85 11 20.27 12.04 19.72 10.37 21.14 9.34 19.39 9.34 18.85 7.68 18.31 9.34 16.56 9.34 17.98 10.37 17.43 12.04"/><polygon class="cls-2" points="22.98 12.04 24.39 11 25.81 12.04 25.27 10.37 26.68 9.34 24.94 9.34 24.39 7.68 23.86 9.34 22.1 9.34 23.52 10.37 22.98 12.04"/><path class="cls-3" d="M32.87,23.43s-.16-.18-.18-.2-.11,0-.18,0-.38,0-.41,0-.14,0-.14.14a.23.23,0,0,1-.05.17s-.11.13-.18.13-.2,0-.23-.1a1.36,1.36,0,0,1-.07-.22s0-.16-.13-.13a1.18,1.18,0,0,1-.29,0s-.18,0-.22-.11a.62.62,0,0,1,0-.2l-.19-.19a.12.12,0,0,0-.12-.08c-.1,0-.21,0-.26,0a.66.66,0,0,0-.2,0c-.09,0-.25-.1-.29-.14s-.28-.05-.28-.05-.14-.09-.2,0-.22.09-.22,0-.05-.17-.19-.12a1.45,1.45,0,0,1-.34.1c-.09,0-.24,0-.24-.13s.1-.16.15-.2.11-.06.11-.12-.08-.08,0-.14a.49.49,0,0,0,0-.24c0-.06.07-.13.1-.16a.2.2,0,0,1,.11,0s.09-.16,0-.2,0-.16,0-.21,0-.08.05-.14,0-.09.11-.13.12-.11.08-.2a.58.58,0,0,0-.33-.18c-.06,0-.17.08-.22.08s-.14,0-.18-.05-.11-.15-.16-.12-.18,0-.18-.06,0-.19-.06-.19-.48-.15-.53-.09-.11.26-.22.15a1.79,1.79,0,0,1-.21-.27l-.16-.17a.59.59,0,0,1-.11-.19.38.38,0,0,0-.12-.13s0-.09,0-.12-.08-.12-.05-.19,0-.06,0-.19-.05-.15-.05-.23,0-.18,0-.28-.12-.17-.15-.2-.13-.08-.16-.05-.1,0-.12.12-.14.17-.18.13-.13-.08-.13-.13a.44.44,0,0,0-.05-.13.2.2,0,0,0-.07-.2c-.1-.05-.17-.05-.15-.15a.57.57,0,0,0,0-.26c0-.07-.11-.16-.11-.21s0-.09.07-.16.14-.14.06-.22a1.12,1.12,0,0,1-.17-.2c-.05,0-.2-.09-.24-.05s-.16-.08-.19-.13-.11-.16-.16-.09,0,.15-.13.21l-.28.13a1.25,1.25,0,0,1-.16-.17,1.26,1.26,0,0,0-.19-.16,2.63,2.63,0,0,0-.24-.12,1.33,1.33,0,0,0-.42,0l-.13.13a1.19,1.19,0,0,1-.2-.1c-.05,0-.22-.05-.22-.12s0-.16-.11-.16-.11-.09-.2-.09-.23-.11-.26-.12-.29,0-.29,0-.11-.13-.18-.13-.31,0-.21-.09.1-.17.16-.17,0,0,.07-.11,0-.2.11-.2.09,0,.18,0,.22-.2.14-.28a2.16,2.16,0,0,0-.22-.16s-.21-.19-.21-.26-.17-.1-.17-.17-.08-.08-.18-.06-.28,0-.24.1.12.17,0,.19-.2,0-.23,0-.16-.17-.25-.06a.59.59,0,0,1-.24.12s-.13-.09-.15-.08-.21,0-.1.16-.18,0-.2.13-.2.09-.2.17-.24.15-.24.15l-.33,0s0-.11-.07-.06a.25.25,0,0,1-.16.06l-.22,0s-.22,0-.19.08.14.14.21.21a.18.18,0,0,1,.07.17c0,.06-.05.08-.05.12s0,.16.12.16h.29a.57.57,0,0,1,.16.07c.06.06,0,.21,0,.21s-.17,0-.08.11.18.26.25.26.26.05.3.19a.4.4,0,0,1-.09.33c0,.06-.14.14-.16.16s-.26,0-.26.05a.77.77,0,0,0,.09.2s.15,0,.15.08-.14.11-.08.17a.5.5,0,0,1,.07.21.24.24,0,0,0-.14.06c-.05,0-.26,0-.26.09a1.38,1.38,0,0,1-.14.35s-.25.05-.25,0,0-.13-.09-.13-.21,0-.21.09-.2.14-.24.24-.18.31-.18.31-.3-.09-.34-.09,0,.07-.12.15l-.2.18a.09.09,0,0,0-.09.1v.16c0,.08.19.07.19.19s-.11.1,0,.21.16.1.21.2.15.1.19.19-.13.19-.13.22-.37-.07-.44,0a1.33,1.33,0,0,0-.19.22s-.21-.06-.27.06a.8.8,0,0,1-.24.25,1,1,0,0,1-.27-.09s-.15-.11-.22-.07l-.29.07a.82.82,0,0,1-.18,0c-.08,0-.29-.12-.29-.08a1.72,1.72,0,0,1-.19.34.19.19,0,0,1-.15,0s-.11-.14-.14-.1a2.12,2.12,0,0,1-.2.13s0,0-.12.07-.2.16-.2.26-.2.22-.28.22-.27,0-.18.1-.12.18-.12.24,0,.12,0,.12-.17.07-.3,0a3.09,3.09,0,0,1-.32-.07s0,0-.11,0-.3.09-.39,0-.05-.11-.17-.17-.18-.19-.31-.09a1.14,1.14,0,0,1-.38.21c-.09,0-.2,0-.2.12s-.06.12-.16.15-.2.1-.14.22-.13.22-.11.3a.65.65,0,0,0,.17.27c.06.06-.07.18.12.24s.3,0,.44.06a.61.61,0,0,1,.28.12,1.06,1.06,0,0,0,.35.13s.23.18.23.22,0,0-.09.14a2.34,2.34,0,0,0-.25.37s0,.29,0,.37,0,.26,0,.31-.16.11-.11.16.11.17.16.21-.06.06.08.19a.91.91,0,0,0,.32.2,1.41,1.41,0,0,1,.43.21.51.51,0,0,1,.15.29.67.67,0,0,0,.18.3s0,.16,0,.22.21,0,.21.07-.22.11,0,.2.16.05.24.12.12.16.09.25-.16.15-.16.21a.47.47,0,0,0,.1.26c.05.05.05,0,.13.05a.78.78,0,0,1,.06.37c0,.09-.07.17,0,.24s0,.25.08.3,0,.14.15.16a2,2,0,0,0,.35,0c.09,0,.11,0,.19,0a1.46,1.46,0,0,0,.35-.1c.13,0,.17-.17.27,0s0,.21.2.25.36,0,.4.1,0,.21.09.27.1-.09.28,0,.16,0,.29.16.59.6.69.69.09.19.2.31.16,0,.13.21-.13.23,0,.37.1.31.16.38.2.39.16.44-.13.06-.09.16-.05.21,0,.33,0,.18.06.26.17.1.28.21.17.11.17.25-.22.24,0,.51.31.41.36.46,0,.17,0,.17-.14,0-.1.08.11.2.06.24a1.36,1.36,0,0,0-.2.25s-.11.09-.14.11a1.53,1.53,0,0,1-.18.18.42.42,0,0,0,0,.38c.09.14.18.2.23.29s-.08.16.09.16.12,0,.24-.06.15-.15.21-.15a.34.34,0,0,1,.18.09c.05.05.07.12.12.12a.72.72,0,0,0,.31-.05c.16-.07,0-.11.31-.22s.26-.11.3-.21.11-.22.22-.22.06-.22.12-.22.18-.05.07-.11a1.28,1.28,0,0,1-.26-.2,1.72,1.72,0,0,1,0-.28c0-.11-.06-.15-.06-.23s-.06-.19-.06-.28V33.9s-.16-.15,0-.28.11-.18.11-.18a.87.87,0,0,1,.14-.44c.1-.1,0-.17.18-.24a.6.6,0,0,1,.33-.08.51.51,0,0,0,.33-.17c.08-.09.06-.08.2-.08s.19,0,.31,0a.48.48,0,0,0,.25-.24s.22-.43.44-.39.16.19.4,0,0-.33.41-.33.37,0,.56-.14.15-.21.29-.28a3.3,3.3,0,0,1,.61-.24c.06,0,.09.1.17.1s.11-.09.28,0,0,.18.2.33.28.06.31.26a1.37,1.37,0,0,0,.1.41c.06.14-.1.25,0,.36a.55.55,0,0,0,.3.16,2.51,2.51,0,0,0,.72-.06c.06-.06-.06-.29.09-.14s.19.13.24.09-.1-.41-.15-.46a.41.41,0,0,1,.07-.37.4.4,0,0,0,.12-.22s-.15-.34.11-.46.21-.05.29-.14.06-.17.18-.29l.16-.17s.14-.12.24-.06,0,.19.18.19a.29.29,0,0,0,.28-.33c0-.15-.14-.21,0-.28s.08-.09.19-.09.2-.08.28,0,.1.12.2.12,0,.22.15.29.34.13.4.07.09.1.18,0,0-.19.1-.28a.15.15,0,0,0,0-.25.42.42,0,0,1-.08-.25s-.11-.18-.14-.15,0,.14-.12.06-.17-.1-.17-.18-.08-.16,0-.23a.79.79,0,0,0,0-.21l.13-.26s.1-.09.15,0,.11.21.17.07.07-.33.21-.28.1.11.2.11.18,0,.27,0,0-.14.14-.32.28-.14.21-.26-.18-.17-.18-.25-.15-.43-.09-.49.26,0,.38-.13.08-.15.18-.24l.22-.23a.21.21,0,0,1,.06-.12s-.09-.3,0-.3-.05-.15,0-.23a.75.75,0,0,1,.27-.16h.21a.76.76,0,0,1,.09-.23,1,1,0,0,0,0-.49.64.64,0,0,1-.11-.17l.2-.13.11-.1L33,24.2s-.07-.12,0-.12.22.06.22-.11a.31.31,0,0,0-.1-.27A3,3,0,0,1,32.87,23.43Z"/></svg>