<svg id="레이어_1" data-name="레이어 1" xmlns="http://www.w3.org/2000/svg" viewBox="0 0 43 43"><defs><style>.cls-1{fill:#e4142c;}.cls-2{fill:#34a836;}.cls-3{fill:#ffcb00;}.cls-4{fill:#fff;}</style></defs><title>미얀마</title><path class="cls-1" d="M31.14,36,21.7,29.16,12.26,36l2.36-7.26H.51A24,24,0,0,0,1.32,32,16.82,16.82,0,0,0,4.53,37.6a15.21,15.21,0,0,0,6.23,4c2.45.85,5.1,1.25,10.26,1.36h1c5.16-.11,7.81-.51,10.26-1.36a15.21,15.21,0,0,0,6.23-4A16.82,16.82,0,0,0,41.68,32a24,24,0,0,0,.81-3.21H28.78Z"/><path class="cls-2" d="M25.31,18.07H37l-9.45,6.86,1.25,3.83H42.49A32.63,32.63,0,0,0,43,24c0-1.07,0-1.22,0-2.48s0-1.41,0-2.48a32.63,32.63,0,0,0-.48-4.78H24.06Z"/><path class="cls-2" d="M15.86,24.93,6.42,18.07H18.09l1.25-3.83H.51A32.63,32.63,0,0,0,0,19c0,1.07,0,1.22,0,2.48S0,22.91,0,24a32.63,32.63,0,0,0,.48,4.78H14.62Z"/><path class="cls-3" d="M38.47,5.4a15.21,15.21,0,0,0-6.23-4C29.79.51,27.14.11,22,0H21c-5.16.11-7.81.51-10.26,1.36a15.21,15.21,0,0,0-6.23,4A16.87,16.87,0,0,0,1.32,11a24.48,24.48,0,0,0-.81,3.22H19.34L21.7,7l2.36,7.26H42.49A24.48,24.48,0,0,0,41.68,11,16.87,16.87,0,0,0,38.47,5.4Z"/><polygon class="cls-4" points="6.42 18.07 15.87 24.93 14.62 28.76 12.26 36.02 21.7 29.16 31.14 36.02 28.78 28.76 27.54 24.93 36.98 18.07 25.31 18.07 24.06 14.24 21.7 6.98 19.34 14.24 18.09 18.07 6.42 18.07"/></svg>