<svg id="레이어_1" data-name="레이어 1" xmlns="http://www.w3.org/2000/svg" viewBox="0 0 43 43"><defs><style>.cls-1{fill:#09529c;}.cls-2{fill:#fff;}.cls-3{fill:#e31921;}</style></defs><title>북한</title><path class="cls-1" d="M4.53,37.6a15.21,15.21,0,0,0,6.23,4c2.45.85,5.1,1.25,10.26,1.36h1c5.16-.11,7.81-.51,10.26-1.36a15.21,15.21,0,0,0,6.23-4,13.58,13.58,0,0,0,1.31-1.72H3.22A14.59,14.59,0,0,0,4.53,37.6Z"/><path class="cls-2" d="M3.22,35.88H39.78c.25-.39.49-.8.71-1.21h-38C2.73,35.08,3,35.49,3.22,35.88Z"/><path class="cls-3" d="M1.32,11A28.13,28.13,0,0,0,0,19c0,1.07,0,1.22,0,2.48S0,22.91,0,24a28.25,28.25,0,0,0,1.29,8,17.13,17.13,0,0,0,1.19,2.69h38A17.13,17.13,0,0,0,41.68,32,28.25,28.25,0,0,0,43,24c0-1.07,0-1.22,0-2.48s0-1.41,0-2.48a28.13,28.13,0,0,0-1.29-8,17.62,17.62,0,0,0-1.36-3H2.68A17.62,17.62,0,0,0,1.32,11Zm14.76.7A9.69,9.69,0,1,1,5.2,22.6,9.7,9.7,0,0,1,16.08,11.73Z"/><path class="cls-2" d="M5.2,22.6A9.7,9.7,0,1,0,16.08,11.73,9.72,9.72,0,0,0,5.2,22.6Zm7.51-4.16L14.82,12l2.11,6.49h6.83l-5.52,4,2.11,6.49-5.53-4-5.52,4,2.11-6.49-5.52-4Z"/><polygon class="cls-3" points="9.3 28.93 14.82 24.93 20.35 28.93 18.24 22.45 23.76 18.44 16.93 18.44 14.82 11.95 12.71 18.44 5.89 18.44 11.41 22.45 9.3 28.93"/><path class="cls-2" d="M3.44,6.8c-.26.38-.52.79-.76,1.21H40.32c-.24-.42-.5-.83-.76-1.21Z"/><path class="cls-1" d="M38.47,5.4a15.21,15.21,0,0,0-6.23-4C29.79.51,27.14.11,22,0H21c-5.16.11-7.81.51-10.26,1.36a15.21,15.21,0,0,0-6.23,4A11.73,11.73,0,0,0,3.44,6.8H39.56A11.73,11.73,0,0,0,38.47,5.4Z"/></svg>