<svg id="레이어_1" data-name="레이어 1" xmlns="http://www.w3.org/2000/svg" viewBox="0 0 43 43"><defs><style>.cls-1{fill:#fff;}.cls-2{fill:#ce1126;}.cls-3{fill:#007a3d;}</style></defs><title>시리아</title><path d="M1.32,32A17,17,0,0,0,4.53,37.6a15.21,15.21,0,0,0,6.23,4c2.45.85,5.1,1.25,10.26,1.36h1c5.16-.11,7.81-.51,10.26-1.36a15.21,15.21,0,0,0,6.23-4A17,17,0,0,0,41.68,32a24.54,24.54,0,0,0,.8-3.14H.52A24.54,24.54,0,0,0,1.32,32Z"/><path class="cls-1" d="M0,19c0,1.07,0,1.22,0,2.48S0,22.91,0,24a32.51,32.51,0,0,0,.49,4.86h42A31.17,31.17,0,0,0,43,24c0-1.07,0-1.22,0-2.48s0-1.41,0-2.48a31.17,31.17,0,0,0-.48-4.86H.52A32.51,32.51,0,0,0,0,19ZM31.15,20.2,32.52,16l1.37,4.2h4.42l-3.58,2.6L36.1,27l-3.58-2.59L28.94,27l1.37-4.2-3.58-2.6ZM10.48,16l1.37,4.2h4.42l-3.58,2.6L14.06,27l-3.58-2.59L6.9,27l1.37-4.2L4.69,20.2H9.11Z"/><path class="cls-2" d="M38.47,5.4a15.21,15.21,0,0,0-6.23-4C29.79.51,27.14.11,22,0H21c-5.16.11-7.81.51-10.26,1.36a15.21,15.21,0,0,0-6.23,4A16.82,16.82,0,0,0,1.32,11a24,24,0,0,0-.8,3.13h42a24,24,0,0,0-.8-3.13A16.82,16.82,0,0,0,38.47,5.4Z"/><polygon class="cls-3" points="8.27 22.8 6.9 27 10.48 24.41 14.06 27 12.69 22.8 16.27 20.2 11.85 20.2 10.48 15.99 9.11 20.2 4.69 20.2 8.27 22.8"/><polygon class="cls-3" points="28.94 27 32.52 24.41 36.1 27 34.73 22.8 38.31 20.2 33.89 20.2 32.52 15.99 31.15 20.2 26.73 20.2 30.31 22.8 28.94 27"/></svg>