<svg width="56" height="56" viewBox="0 0 56 56" fill="none" xmlns="http://www.w3.org/2000/svg">
<g clip-path="url(#clip0_9412_77435)">
<path d="M0 28.0005C0 29.649 0 29.8325 0.0525 31.2325C0.144 34.3335 0.4845 37.8925 1.7285 41.6475C2.606 44.3035 4.2555 47.169 5.9055 48.9745C8.0005 51.2775 10.894 53.1615 14.01 54.2345C17.205 55.3335 20.6615 55.87 27.378 56.001H28.622C35.352 55.857 38.7955 55.3335 41.99 54.2345C45.1195 53.1615 48 51.2775 50.108 48.9745C51.758 47.156 53.4075 44.3035 54.285 41.6475C55.529 37.8925 55.8695 34.3205 55.961 31.2325C56.0005 29.8455 56.0005 29.6495 56.0005 28.0005C56.0005 26.3515 56.0005 26.1555 55.961 24.7685C55.8565 21.6675 55.529 18.1085 54.285 14.3535C53.408 11.6975 51.758 8.83199 50.108 7.02649C48.013 4.7235 45.1195 2.8395 41.99 1.7665C38.795 0.667498 35.3385 0.131 28.622 0H27.378C20.648 0.144 17.2045 0.667498 14.01 1.7665C10.8805 2.8395 8 4.7235 5.9055 7.02649C4.2555 8.84499 2.606 11.6975 1.7285 14.3535C0.4845 18.109 0.144 21.668 0.0525 24.7685C0 26.1555 0 26.3515 0 28.0005Z" fill="#266798"/>
<path d="M12.5 29.489V28.263C12.5 28.263 12.531 28.1864 12.531 28.1558C12.5931 27.5888 12.6241 27.0218 12.7172 26.4548C12.95 24.9224 13.4465 23.4666 14.1447 22.0874C14.5791 21.2292 15.0911 20.4324 15.6807 19.6815C16.2393 18.9613 16.8598 18.3023 17.5425 17.6894C18.52 16.8159 19.5751 16.0803 20.7388 15.4674C21.5456 15.0536 22.3989 14.7012 23.2678 14.4253C24.4935 14.0422 25.7503 13.8277 27.0226 13.7664C27.7984 13.7357 28.5741 13.7817 29.3344 13.9962C30.2188 14.2414 30.979 14.7012 31.6152 15.3601C32.5461 16.3562 33.4925 17.3216 34.4235 18.3023C35.0596 18.9613 35.6802 19.6202 36.3163 20.2791C37.3559 21.3672 38.3955 22.4398 39.435 23.5279C39.7298 23.8343 40.0401 24.1562 40.3349 24.4626C39.0005 25.8265 37.6818 27.1597 36.3319 28.5542C33.4926 25.7345 30.6687 22.9455 27.8604 20.1565C24.9124 23.0681 21.9645 25.9797 19.0476 28.8453C21.98 31.7569 24.9279 34.6685 27.8914 37.5954C27.9224 37.5648 27.9535 37.5035 28 37.4575C30.8549 34.6379 33.7098 31.8182 36.5646 28.9986C36.6577 28.9066 36.7508 28.8607 36.8904 28.8607C38.9074 28.8607 40.9245 28.8607 42.9415 28.8607H43.1743C43.1587 29.2284 43.1743 29.5656 43.1277 29.9027C43.0501 30.6076 42.9726 31.3125 42.8329 32.0174C42.5071 33.5652 41.933 35.0363 41.1106 36.4155C40.3349 37.718 39.3885 38.898 38.2713 39.9247C37.2939 40.8135 36.2233 41.5797 35.0596 42.208C33.896 42.821 32.6857 43.296 31.4135 43.5718C30.6842 43.7251 29.9394 43.817 29.1947 43.9243C29.0086 43.9549 28.8223 43.9703 28.6206 44.0009H27.0691C27.0691 44.0009 26.9605 43.9703 26.9139 43.9703C26.5726 43.9396 26.2313 43.9396 25.9055 43.8937C24.7728 43.7404 23.6712 43.4799 22.6006 43.0968C21.1887 42.5911 19.8699 41.8862 18.6752 40.9974C17.3098 39.986 16.1462 38.7907 15.1842 37.3962C14.3464 36.1856 13.6947 34.8677 13.2292 33.4732C12.8258 32.2167 12.5776 30.9294 12.531 29.5962C12.531 29.5503 12.5 29.5196 12.5 29.4736" fill="white"/>
<path d="M43.5007 21.3055C42.6629 22.1331 41.8561 22.9606 41.0182 23.8034C40.801 23.5735 40.5838 23.359 40.3821 23.1444C39.8701 22.6081 39.3581 22.0718 38.8461 21.5354C37.8996 20.5393 36.9376 19.5433 35.9912 18.5472C35.4482 17.9802 34.9206 17.4132 34.3776 16.8462C33.7259 16.1566 33.0743 15.4824 32.4226 14.7928C31.8951 14.2258 31.259 13.8274 30.5452 13.5209C29.6609 13.1531 28.7454 12.9692 27.7835 12.9692C27.5352 12.9692 27.287 12.9999 26.9922 13.0305C27.1008 12.9386 27.1784 12.8773 27.2559 12.816C27.7835 12.4635 28.3731 12.2949 28.9782 12.1724C29.6453 12.0344 30.328 11.9885 31.0107 12.0038C32.345 12.0344 33.6483 12.2796 34.8586 12.8926C35.5568 13.245 36.1308 13.7661 36.6584 14.3177C37.341 15.038 38.0392 15.7429 38.7374 16.4478C39.6994 17.4439 40.6769 18.4246 41.6389 19.4207C42.2129 20.003 42.787 20.6006 43.3611 21.183C43.3921 21.2136 43.4231 21.2596 43.4697 21.3055" fill="white"/>
</g>
<defs>
<clipPath id="clip0_9412_77435">
<rect width="56" height="56" fill="white"/>
</clipPath>
</defs>
</svg>
