<svg width="56" height="56" viewBox="0 0 56 56" fill="none" xmlns="http://www.w3.org/2000/svg">
<g clip-path="url(#clip0_9412_77409)">
<path d="M0 28V31.22C0 34.72 0.56 38.22 1.68 41.58C2.52 44.24 4.06 46.76 5.88 48.86C8.12 51.24 10.92 53.06 14 54.18C17.22 55.3 20.58 55.86 27.3 56H28.56C35.28 56 38.78 55.3 42 54.18C45.08 53.06 47.88 51.38 50.12 48.86C51.94 46.76 53.34 44.24 54.32 41.58C55.44 38.22 56 34.72 56 31.22V24.78C56 21.28 55.44 17.78 54.32 14.42C53.48 11.76 51.94 9.24 50.12 7.14C47.88 4.76 45.08 2.94 42 1.82C38.78 0.7 35.42 0.14 28.7 0H27.44C20.72 0.14 17.22 0.7 14 1.82C10.92 2.94 8.12 4.62 5.88 7.14C4.06 9.24 2.66 11.76 1.68 14.42C0.7 17.78 0 21.28 0 24.78V28Z" fill="#7E7266"/>
<path d="M0 28V31.22C0 34.72 0.56 38.22 1.68 41.58C2.52 44.24 4.06 46.76 5.88 48.86C8.12 51.24 10.92 53.06 14 54.18C17.22 55.3 20.58 55.86 27.3 56H28.56C35.28 56 38.78 55.3 42 54.18C45.08 53.06 47.88 51.38 50.12 48.86C51.94 46.76 53.34 44.24 54.32 41.58C55.44 38.22 56 34.72 56 31.22V24.78C56 21.28 55.44 17.78 54.32 14.42C53.48 11.76 51.94 9.24 50.12 7.14C47.88 4.76 45.08 2.94 42 1.82C38.78 0.7 35.42 0.14 28.7 0H27.44C20.72 0.14 17.22 0.7 14 1.82C10.92 2.94 8.12 4.62 5.88 7.14C4.06 9.24 2.66 11.76 1.68 14.42C0.7 17.78 0 21.28 0 24.78V28Z" fill="#60584C"/>
<path d="M44.8007 28.2802H44.5207C43.4007 27.0202 41.7207 26.4602 40.1807 26.7402C38.7807 26.7402 37.5207 27.3002 36.4007 28.0002V24.9202C36.4007 24.3602 36.4007 23.9402 36.1207 23.5202C36.1207 23.5202 35.9807 23.3802 35.8407 23.3802C35.2807 23.3802 34.5807 23.6602 34.0207 23.9402V24.2202C34.0207 25.0602 33.7407 25.7602 33.6007 26.6002C33.3207 28.8402 33.3207 30.8002 33.6007 32.7602C33.6007 32.9002 34.0207 33.1802 34.1607 33.3202C34.7207 33.3202 35.2807 33.3202 35.8407 33.0402H35.9807C36.1207 33.0402 36.2607 32.9002 36.2607 32.7602V32.2002C36.6807 30.5202 38.0807 29.1202 39.9007 28.7002C40.7407 28.5602 41.7207 28.7002 42.2807 29.4002C42.4207 30.2402 42.2807 31.0802 41.8607 31.7802C41.3007 32.7602 40.3207 33.6002 39.2007 33.8802C37.8007 34.3002 36.4007 34.5802 35.0007 34.4402L33.4607 33.4602C32.0607 32.4802 30.6607 31.5002 29.1207 30.8002C28.7007 30.6602 28.4207 30.3802 28.1407 30.1002H28.0007C27.1607 29.2602 25.6207 28.2802 24.2207 27.4402L23.5207 27.0202C23.5207 26.8802 24.3607 26.3202 24.3607 26.3202C25.0607 26.0402 25.6207 25.6202 26.1807 25.2002H26.3207L29.1207 23.6602C31.7807 22.4002 34.3007 20.7202 36.5407 18.9002V17.3602C36.5407 17.3602 36.5407 17.2202 36.2607 17.0802C34.5807 17.0802 33.0407 17.9202 31.9207 19.0402C31.6407 19.3202 31.3607 19.4602 31.0807 19.6002H30.8007C29.1207 20.5802 25.4807 22.9602 23.6607 24.0802C23.8007 21.5602 24.2207 19.1802 24.6407 16.6602V16.3802L24.3607 15.9602V15.6802H24.2207C23.9407 15.5402 23.6607 15.5402 23.2407 15.6802H22.8207C22.8207 15.8202 22.2607 15.9602 22.2607 15.9602C22.2607 15.9602 22.1207 15.9602 21.9807 16.1002C21.0007 18.9002 20.3007 21.8402 20.1607 24.7802C18.7607 23.9402 17.3607 23.1002 15.8207 22.4002C15.4007 22.4002 15.1207 22.1202 14.8407 21.9802L14.1407 21.5602L13.0207 20.8602H12.7407C12.1807 21.0002 11.6207 21.4202 11.2007 21.9802V22.6802C12.1807 23.5202 13.1607 24.2202 14.2807 24.7802L15.6807 25.6202L17.9207 26.8802L18.3407 27.1602H18.6207V27.3002L14.5607 29.9602L12.4607 31.3602C12.0407 31.6402 11.6207 31.7802 11.2007 31.9202C10.7807 31.9202 10.5007 32.3402 10.2207 32.7602V32.9002H10.3607L10.6407 33.1802H10.9207C10.9207 33.3202 11.2007 33.3202 11.2007 33.3202C11.9007 33.3202 12.6007 33.0402 13.1607 32.6202C14.1407 32.2002 16.6607 30.6602 17.7807 29.9602L18.2007 29.6802C18.4807 29.6802 18.6207 29.6802 18.7607 29.4002C19.0407 29.1202 19.4607 28.9802 19.7407 28.8402H20.0207C20.0207 31.5002 20.1607 34.0202 20.5807 36.5402C20.8607 37.1002 21.0007 37.6602 21.1407 38.3602L21.5607 39.7602C21.9807 40.0402 22.5407 40.1802 22.9607 40.1802V37.9402C22.8207 35.5602 22.6807 32.2002 22.6807 29.8202C23.1007 29.8202 24.7807 30.9402 24.7807 30.9402C27.7207 32.9002 32.3407 35.8402 35.0007 36.5402H35.4207L35.8407 36.2602C35.9807 36.1202 36.1207 35.8402 36.1207 35.5602C38.9207 35.5602 41.4407 34.4402 43.4007 32.3402C43.9607 31.5002 44.3807 30.6602 44.3807 29.5402C44.3807 28.9802 44.2407 28.2802 43.8207 27.8602" fill="white"/>
</g>
<defs>
<clipPath id="clip0_9412_77409">
<rect width="56" height="56" fill="white"/>
</clipPath>
</defs>
</svg>
