<svg width="56" height="56" viewBox="0 0 56 56" fill="none" xmlns="http://www.w3.org/2000/svg">
<g clip-path="url(#clip0_9412_78657)">
<path d="M0 28C0 29.6486 0 29.8318 0.039289 31.2318C0.14406 34.3327 0.471469 37.8916 1.71562 41.6467C2.59308 44.3028 4.24322 47.1682 5.89335 48.9739C7.9888 51.2765 10.883 53.1605 14.0131 54.2335C17.2086 55.3325 20.666 55.869 27.3845 56H28.6287C35.3601 55.856 38.8045 55.3325 42 54.2335C45.1301 53.1605 48.0112 51.2765 50.1065 48.9739C51.757 47.1552 53.407 44.3028 54.2845 41.6467C55.5285 37.8916 55.869 34.3196 55.9605 31.2318C56 29.8449 56 29.6486 56 28C56 26.3514 56 26.1682 55.9605 24.7682C55.856 21.6673 55.5285 18.1084 54.2845 14.3532C53.407 11.6972 51.757 8.83175 50.1065 7.02615C48.0112 4.72337 45.117 2.83925 42 1.76636C38.8045 0.66729 35.347 0.130841 28.6287 0H27.3845C20.653 0.143925 17.2086 0.66729 14.0131 1.76636C10.883 2.83925 8.00185 4.72337 5.89335 7.02615C4.24322 8.84485 2.59308 11.6972 1.71562 14.3532C0.484565 18.1084 0.14406 21.6673 0.039289 24.7682C0 26.1551 0 26.3514 0 28Z" fill="black"/>
<path d="M41.1439 43.5002L29.2363 12.5254H43.9997V43.5002H41.1439Z" fill="#FBAF17"/>
<path fill-rule="evenodd" clip-rule="evenodd" d="M34.9225 43.4746H37.8802L33.316 31.2861C33.1206 30.8496 32.4746 29.9766 31.4547 29.9766H30.8937C30.5028 29.9766 29.6035 30.2385 29.1344 31.2861L24.5957 43.4746H27.5281V43.4494L28.6755 40.2764H33.7751L34.9225 43.4746ZM31.2253 32.8223L29.4404 38.0099H33.0102L31.2253 32.8223Z" fill="white"/>
<path d="M24.0098 26.0231V12.5H25.7692C26.7381 12.5 26.8146 13.1548 26.8401 13.5829V26.0231H24.0098Z" fill="white"/>
<path d="M12 24.2102V12.5254H13.7849C14.6824 12.5254 14.8558 13.2137 14.8303 13.5579V23.7065H21.6383V25.973H13.8614C12.4131 25.973 12.017 24.7978 12 24.2102Z" fill="white"/>
<path fill-rule="evenodd" clip-rule="evenodd" d="M12 43.4498V29.9922H13.7752H14.1929C14.5753 29.9922 14.9578 30.1282 15.2638 30.6822L20.0982 38.5842V30.0022H21.848C22.8117 30.0022 22.8877 30.6538 22.9131 31.0798V43.4599H20.2358L20.1175 43.2565L14.8558 34.6586V43.4498H12Z" fill="white"/>
</g>
<defs>
<clipPath id="clip0_9412_78657">
<rect width="56" height="56" fill="white"/>
</clipPath>
</defs>
</svg>
