<svg width="56" height="56" viewBox="0 0 56 56" fill="none" xmlns="http://www.w3.org/2000/svg">
<g clip-path="url(#clip0_9412_78651)">
<path d="M0 28C0 29.6486 0 29.8318 0.039289 31.2318C0.14406 34.3327 0.471469 37.8916 1.71562 41.6467C2.59308 44.3028 4.24322 47.1682 5.89335 48.9739C7.9888 51.2765 10.883 53.1605 14.0131 54.2335C17.2086 55.3325 20.666 55.869 27.3845 56H28.6287C35.3602 55.856 38.8045 55.3325 42 54.2335C45.1301 53.1605 48.0112 51.2765 50.1065 48.9739C51.757 47.1552 53.407 44.3028 54.2845 41.6467C55.5285 37.8916 55.869 34.3196 55.9605 31.2318C56 29.8449 56 29.6486 56 28C56 26.3514 56 26.1682 55.9605 24.7682C55.856 21.6673 55.5285 18.1084 54.2845 14.3532C53.407 11.6972 51.757 8.83175 50.1065 7.02615C48.0112 4.72336 45.117 2.83925 42 1.76636C38.8045 0.66729 35.3471 0.130841 28.6287 0H27.3845C20.653 0.143925 17.2086 0.66729 14.0131 1.76636C10.883 2.83925 8.00185 4.72336 5.89335 7.02615C4.24322 8.84485 2.59308 11.6972 1.71562 14.3532C0.484565 18.1084 0.14406 21.6673 0.039289 24.7682C0 26.1552 0 26.3514 0 28Z" fill="#003CDC"/>
<path d="M14.8212 28.6625H13.2571V22.0002H14.8212V24.6495H16.6499V25.9751H14.8212V28.6625ZM9.75025 32.6375H13.2578V30.4423H9.75025V32.6375ZM8.19825 29.1166H14.8212V33.9496H8.1981L8.19825 29.1166ZM9.069 25.8109C8.8546 26.303 8.5013 26.8199 8.05995 27.2875C7.60565 27.779 7.05005 28.2084 6.48235 28.549L5.49805 27.4009C6.20455 26.9969 6.8737 26.4413 7.37865 25.7346C7.88295 25.0407 8.1981 24.2335 8.1981 23.3251V22.2647H9.83845V23.2997C9.83845 24.1958 10.1662 24.9524 10.6572 25.5709C11.15 26.2147 11.818 26.6942 12.4744 27.0094L11.591 28.2082C10.3801 27.5517 9.5859 26.7699 9.069 25.8109ZM25.309 25.4827H23.101V24.0945H25.309V22H26.8732V28.726H25.309V25.4827ZM24.7033 30.4935C24.4139 30.241 24.0353 30.0895 23.5812 30.0895C22.6723 30.0895 22.0418 30.6698 22.0418 31.5281C22.0418 32.3988 22.6723 32.9793 23.5812 32.9793C24.4894 32.9793 25.1453 32.3988 25.1453 31.5281C25.1459 31.3346 25.107 31.1431 25.031 30.9652C24.955 30.7873 24.8435 30.6267 24.7033 30.4935ZM25.8133 33.5468C25.2589 34.0137 24.4893 34.2915 23.5812 34.2915C22.6723 34.2915 21.9156 34.0137 21.3733 33.5468C20.8177 33.0547 20.503 32.3734 20.503 31.5281C20.503 30.7206 20.8177 30.0388 21.3733 29.5471C21.9156 29.055 22.6723 28.7645 23.5812 28.7645C24.4894 28.7645 25.2589 29.055 25.8133 29.5471C26.3556 30.0388 26.6841 30.7206 26.6841 31.5281C26.6841 32.3735 26.3556 33.0547 25.8133 33.5468ZM21.6003 27.2747C21.1583 26.858 20.8177 26.4164 20.616 26.0124C20.427 26.4666 20.0869 26.9587 19.6449 27.4256C19.1906 27.893 18.649 28.3726 18.0426 28.7386L17.0716 27.5644C17.841 27.0597 18.5349 26.4794 19.0022 25.8109C19.4686 25.155 19.759 24.3977 19.759 23.5394V22.2645H21.4234V23.5143C21.4234 24.4606 21.7266 25.1925 22.2183 25.7857C22.685 26.3914 23.354 26.8455 24.022 27.1861L23.1392 28.4103C22.5841 28.1076 22.0418 27.7161 21.6003 27.2747ZM31.3227 26.7064C31.3227 27.2487 31.7516 27.678 32.4449 27.678C33.1514 27.678 33.5681 27.2486 33.5681 26.7062C33.5681 26.164 33.1514 25.7219 32.4449 25.7219C31.7516 25.7219 31.3227 26.1641 31.3227 26.7064ZM30.8814 22.0501H33.9723V23.3624H30.8814V22.0501ZM31.6875 29.6595V28.826C30.49 28.5615 29.834 27.7161 29.834 26.7064C29.834 26.1513 30.1119 25.6089 30.5661 25.2176H29.0393V23.9683H35.8262V25.2178H34.3502C34.8042 25.6213 35.0695 26.1642 35.0695 26.7319C35.0695 27.7283 34.4638 28.5491 33.2656 28.8136V29.5835C34.3374 29.5208 35.4101 29.4446 36.4688 29.3312V22H38.0214V25.987H39.7872V27.3121H38.0214V32.5866H36.4688V30.5931C34.0088 30.8702 31.4864 31.0598 28.8998 31.1355L28.7489 29.7222C29.7332 29.7222 30.7052 29.697 31.6875 29.6595ZM48.9714 26.6308H48.013V32.1451H46.4988V22.1516H48.013V25.3056H48.9714V22H50.498V32.574H48.9714V26.6308ZM44.7579 26.8953C45.1492 27.64 45.7168 28.1828 46.4107 28.6497L45.477 29.8486C45.0357 29.5454 44.5687 29.1039 44.2028 28.6497C43.8121 28.1956 43.5095 27.716 43.3965 27.3247C43.0433 28.4353 42.2853 29.331 41.327 30.0882L40.3552 28.9396C41.1125 28.2837 41.6802 27.7035 42.0457 26.9461C42.3989 26.2021 42.5759 25.2931 42.5759 23.9935H40.7338V22.6813H45.9437V23.9935H44.14C44.14 25.2177 44.3544 26.1512 44.7579 26.8953Z" fill="white"/>
</g>
<defs>
<clipPath id="clip0_9412_78651">
<rect width="56" height="56" fill="white"/>
</clipPath>
</defs>
</svg>
