<svg width="56" height="56" viewBox="0 0 56 56" fill="none" xmlns="http://www.w3.org/2000/svg">
<g clip-path="url(#clip0_9412_78641)">
<path d="M0 28.007C0 29.6446 0 29.8405 0.0420105 31.2402C0.084021 34.7673 0.658165 38.2804 1.72243 41.6536C2.63266 44.3409 4.04701 46.8323 5.89545 48.9737C8.12205 51.367 10.9088 53.1725 14.0035 54.2365C17.1963 55.342 20.6551 55.86 27.3769 56H28.6231C35.3448 55.86 38.7897 55.328 41.9965 54.2365C45.0912 53.1725 47.8779 51.367 50.1045 48.9737C51.953 46.8183 53.3815 44.3409 54.2775 41.6536C55.342 38.2804 55.916 34.7813 55.958 31.2402C56 29.8545 56 29.6586 56 28.007C56 26.3554 56 26.1734 55.958 24.7878C55.916 21.2607 55.342 17.7476 54.2775 14.3744C53.3675 11.6871 51.953 9.19569 50.1045 7.04024C47.8779 4.64684 45.0912 2.84129 41.9965 1.77756C38.8037 0.671833 35.3448 0.139965 28.6231 0H27.3769C20.6551 0.139965 17.1963 0.671833 14.0035 1.76356C10.9088 2.82729 8.12205 4.63284 5.89545 7.02624C4.04701 9.18169 2.63266 11.6591 1.72243 14.3604C0.658165 17.7476 0.0980245 21.2467 0.0420105 24.7878C0 26.1734 0 26.3694 0 28.007Z" fill="#00854A"/>
<path d="M23.2482 24.7068C22.3611 23.8852 21.2831 23.2088 19.9811 22.75C19.3286 22.518 18.2506 22.1816 17.332 22.1816C16.5434 22.1816 15.8713 22.4325 15.6977 23.2239C15.3729 24.734 15.524 37.6963 15.642 39.1943C15.7247 40.2986 16.1863 40.9425 17.4718 40.9168C26.4348 40.7717 28.7855 29.8464 23.2482 24.7068Z" fill="white"/>
<path d="M33.5173 14.2976C32.7122 13.5516 31.7236 12.9371 30.5517 12.5229C29.957 12.3083 28.9798 12.0029 28.1453 12.0029C27.4229 12.0029 26.817 12.2365 26.6554 12.9537C26.36 14.3203 26.5013 26.0891 26.6035 27.4549C26.6817 28.4518 27.0974 29.0353 28.2649 29.0187C36.4048 28.8819 38.5457 18.9625 33.5173 14.2976Z" fill="white"/>
<path d="M37.1109 25.2376C36.1013 24.3019 34.8556 23.5279 33.3852 23.0072C32.6335 22.7389 31.4036 22.3564 30.3601 22.3564C29.4558 22.3564 28.686 22.6444 28.489 23.5476C28.1117 25.2678 28.2936 40.0532 28.4236 41.7681C28.5244 43.0288 29.0423 43.7544 30.5067 43.7332C40.7395 43.5685 43.4293 31.1012 37.1109 25.2376Z" fill="white"/>
</g>
<defs>
<clipPath id="clip0_9412_78641">
<rect width="56" height="56" fill="white"/>
</clipPath>
</defs>
</svg>
