<svg width="56" height="56" viewBox="0 0 56 56" fill="none" xmlns="http://www.w3.org/2000/svg">
<path d="M0 27.9998C0 29.6419 0 29.8342 0.0455 31.2227C0.0927686 34.7585 0.658793 38.2682 1.7255 41.6399C2.63117 44.3272 4.04845 46.8141 5.89925 48.9635C8.13054 51.3517 10.9156 53.1545 14.0087 54.2132C18.3401 55.5252 22.8568 56.1218 27.3805 55.9794H28.6213C33.145 56.1218 37.6617 55.5252 41.993 54.2132C45.0869 53.1525 47.872 51.3472 50.1025 48.9565C51.9524 46.8093 53.3691 44.3248 54.2745 41.6399C55.3409 38.2711 55.9075 34.7644 55.9562 31.2315C56 29.8342 56 29.6436 56 27.9998C56 26.356 56 26.1654 55.9562 24.7752C55.9075 21.2428 55.3409 17.7367 54.2745 14.3685C53.3698 11.6808 51.9524 9.19374 50.1007 7.0449C47.8704 4.65363 45.0853 2.84771 41.9913 1.78649C37.6596 0.475675 33.1432 -0.120883 28.6195 0.0202789H27.3787C22.8557 -0.120692 18.3398 0.475863 14.0087 1.78649C10.9147 2.84771 8.12961 4.65363 5.89925 7.0449C4.04785 9.19459 2.63052 11.6822 1.7255 14.3703C0.659609 17.7385 0.0935919 21.2447 0.0455 24.7769C0 26.1654 0 26.356 0 27.9998Z" fill="#00A84D"/>
<path d="M28.0132 15.6122L22.0527 12.6201L28.0132 23.9501L33.9807 12.6201L28.0132 15.6122Z" fill="#FAC109"/>
<path d="M36.2942 21.6108L36.1997 21.5321L40.5747 19.6889V13.5352L32.9709 16.7773C32.9709 16.7773 28.8479 24.5853 28.7552 24.7637C30.3759 24.9546 31.8623 25.7571 32.9104 27.0071C33.9584 28.2571 34.4889 29.86 34.3932 31.4879C34.2975 33.1159 33.5829 34.6457 32.3956 35.7645C31.2083 36.8833 29.6381 37.5064 28.0062 37.5064C26.3743 37.5064 24.804 36.8833 23.6168 35.7645C22.4295 34.6457 21.7149 33.1159 21.6192 31.4879C21.5235 29.86 22.054 28.2571 23.102 27.0071C24.1501 25.7571 25.6365 24.9546 27.2572 24.7637L23.0484 16.7773L15.4499 13.5352V19.6889L19.8249 21.5321L19.7322 21.6108C17.7989 23.2956 16.4264 25.5301 15.798 28.0153C15.1696 30.5006 15.3153 33.1184 16.2156 35.5187C17.1159 37.919 18.728 39.9875 20.8363 41.4478C22.9447 42.908 25.4488 43.6904 28.0141 43.6904C30.5793 43.6904 33.0835 42.908 35.1918 41.4478C37.3001 39.9875 38.9122 37.919 39.8125 35.5187C40.7129 33.1184 40.8586 30.5006 40.2302 28.0153C39.6018 25.5301 38.2292 23.2956 36.2959 21.6108" fill="#FAC109"/>
</svg>
