<svg width="56" height="56" viewBox="0 0 56 56" fill="none" xmlns="http://www.w3.org/2000/svg">
<g clip-path="url(#clip0_9412_77418)">
<path d="M0 28C0 29.6486 0 29.8318 0.039289 31.2318C0.14406 34.3327 0.471469 37.8916 1.71562 41.6468C2.59308 44.3028 4.24322 47.1682 5.89335 48.9739C7.9888 51.2765 10.883 53.1605 14.0131 54.2335C17.2086 55.3325 20.666 55.869 27.3845 56H28.6287C35.3601 55.856 38.8045 55.3325 42 54.2335C45.1301 53.1605 48.0112 51.2765 50.1065 48.9739C51.757 47.1552 53.407 44.3028 54.2845 41.6468C55.5285 37.8916 55.869 34.3196 55.9605 31.2318C56 29.8449 56 29.6486 56 28C56 26.3514 56 26.1682 55.9605 24.7682C55.856 21.6673 55.5285 18.1084 54.2845 14.3532C53.407 11.6972 51.757 8.83175 50.1065 7.02615C48.0112 4.72337 45.117 2.83925 42 1.76636C38.8045 0.66729 35.347 0.130841 28.6287 0H27.3845C20.653 0.143925 17.2086 0.66729 14.0131 1.76636C10.883 2.83925 8.00185 4.72337 5.89335 7.02615C4.24322 8.84485 2.59308 11.6972 1.71562 14.3532C0.484565 18.1084 0.14406 21.6673 0.039289 24.7682C0 26.1551 0 26.3514 0 28Z" fill="#0E0060"/>
<path d="M13.2725 22.6836L9.35515 27.3596V22.6836H7.375V32.8852H9.35515V28.1969L13.402 32.8852H15.8826L11.4796 27.7874L15.7531 22.6836H13.2725Z" fill="white"/>
<mask id="mask0_9412_77418" style="mask-type:luminance" maskUnits="userSpaceOnUse" x="7" y="22" width="42" height="12">
<path d="M48.5 22.624H7.375V33.124H48.5V22.624Z" fill="white"/>
</mask>
<g mask="url(#mask0_9412_77418)">
<path d="M20.6289 25.5789C19.8363 25.6001 19.0791 25.9115 18.5009 26.4539V22.6826H16.5208V29.4026C16.4938 29.9017 16.573 30.4008 16.7532 30.867C16.9334 31.3332 17.2104 31.7559 17.566 32.1071C17.9216 32.4583 18.3477 32.7301 18.8161 32.9045C19.2845 33.0789 19.7845 33.1519 20.2833 33.1187C20.7824 33.1404 21.2807 33.0581 21.7464 32.8772C22.2122 32.6962 22.6353 32.4206 22.989 32.0676C23.3427 31.7147 23.6192 31.2922 23.8011 30.8268C23.983 30.3614 24.0663 29.8634 24.0458 29.3641C24.0458 27.2912 22.7096 25.5797 20.6333 25.5797M20.2833 31.2804C19.7865 31.2747 19.3116 31.0752 18.9599 30.7244C18.6081 30.3737 18.4073 29.8993 18.4003 29.4026C18.4003 29.3851 18.4003 29.3667 18.4003 29.3484C18.4001 29.1344 18.435 28.9219 18.5035 28.7192C18.6261 28.343 18.8639 28.0148 19.1833 27.7811C19.5027 27.5475 19.8875 27.4202 20.2833 27.4172C20.7882 27.428 21.2688 27.6361 21.6221 27.997C21.9754 28.3579 22.1733 28.8429 22.1733 29.3479C22.1733 29.853 21.9754 30.3379 21.6221 30.6988C21.2688 31.0597 20.7882 31.2679 20.2833 31.2786" fill="white"/>
<path d="M38.0412 25.579C37.1928 25.5707 36.3742 25.8916 35.7574 26.4741V25.8012H33.7773V32.8887H35.7574V28.9154C35.7574 28.528 35.9113 28.1566 36.1852 27.8827C36.459 27.6088 36.8305 27.455 37.2178 27.455C37.6051 27.455 37.9766 27.6088 38.2504 27.8827C38.5243 28.1566 38.6782 28.528 38.6782 28.9154V32.8887H40.6706V28.3475C40.6706 28.3204 40.6706 28.2924 40.6706 28.2652C40.6746 27.5612 40.4005 26.8839 39.908 26.3808C39.4155 25.8776 38.7443 25.5892 38.0403 25.5781" fill="white"/>
<path d="M28.7808 25.5843C28.2792 25.5601 27.778 25.6403 27.309 25.8198C26.8399 25.9993 26.4132 26.2742 26.0559 26.6271C25.6985 26.98 25.4183 27.4033 25.2329 27.8701C25.0476 28.3368 24.9611 28.837 24.979 29.3389C24.9424 29.8172 25.0041 30.298 25.1602 30.7516C25.3162 31.2052 25.5635 31.6221 25.8866 31.9766C26.2098 32.3312 26.602 32.6158 27.0392 32.8132C27.4764 33.0105 27.9495 33.1164 28.4291 33.1242C28.8896 33.1148 29.3417 33.0003 29.7512 32.7895C30.1606 32.5787 30.5164 32.2772 30.7916 31.9079V32.8879H32.5828V29.3407H32.5661L32.5819 29.3004C32.6063 28.7986 32.524 28.2973 32.3404 27.8296C32.1567 27.3619 31.8761 26.9384 31.5168 26.5872C31.1575 26.236 30.7277 25.965 30.256 25.7922C29.7842 25.6193 29.2812 25.5484 28.78 25.5843M28.8211 31.2718C28.4373 31.2814 28.0593 31.1763 27.7355 30.97C27.4116 30.7637 27.1566 30.4655 27.0031 30.1136C26.8495 29.7617 26.8043 29.372 26.8733 28.9943C26.9423 28.6166 27.1223 28.268 27.3904 27.9931C27.6584 27.7182 28.0024 27.5294 28.3782 27.4509C28.7541 27.3724 29.1448 27.4078 29.5005 27.5524C29.8562 27.697 30.1606 27.9444 30.375 28.263C30.5894 28.5815 30.704 28.9567 30.7041 29.3407C30.7097 29.8458 30.5147 30.3326 30.1618 30.6941C29.809 31.0557 29.3272 31.2625 28.822 31.2692" fill="white"/>
<path d="M48.4997 32.7933L45.5344 29.274L48.4123 25.7591H46.2816L43.7747 28.8033V22.624H41.8008V32.7933H43.7747V29.7422L46.3297 32.7942L48.4997 32.7933Z" fill="white"/>
</g>
</g>
<defs>
<clipPath id="clip0_9412_77418">
<rect width="56" height="56" fill="white"/>
</clipPath>
</defs>
</svg>
