<svg width="56" height="56" viewBox="0 0 56 56" fill="none" xmlns="http://www.w3.org/2000/svg">
<g clip-path="url(#clip0_9412_77436)">
<path d="M0 28C0 29.6486 0 29.8318 0.0392798 31.2318C0.144026 34.3327 0.471358 37.8916 1.71522 41.6468C2.59247 44.3028 4.24223 47.1682 5.892 48.9739C7.9869 51.2765 10.8805 53.1605 14.0098 54.2335C17.2046 55.3325 20.6612 55.869 27.378 56H28.622C35.3519 55.856 38.7954 55.3325 41.9902 54.2335C45.1194 53.1605 48 51.2765 50.108 48.9739C51.758 47.1552 53.4075 44.3028 54.285 41.6468C55.5285 37.8916 55.869 34.3196 55.9605 31.2318C56 29.8449 56 29.6486 56 28C56 26.3514 56 26.1551 55.9605 24.7682C55.856 21.6673 55.5285 18.1084 54.285 14.3532C53.4075 11.6972 51.758 8.83175 50.108 7.02615C48.0131 4.72337 45.1194 2.83925 41.9902 1.76636C38.7954 0.66729 35.3388 0.130841 28.622 0H27.378C20.6481 0.143925 17.2046 0.66729 14.0098 1.76636C10.8805 2.83925 8 4.72337 5.892 7.02615C4.24223 8.84485 2.59247 11.6972 1.71522 14.3532C0.484452 18.1084 0.144026 21.6673 0.0392798 24.7682C0 26.1551 0 26.3514 0 28Z" fill="#04A86C"/>
<path d="M36.9275 18.5764C35.9922 19.9437 35.482 20.6484 33.9799 22.2836C36.5732 20.733 37.2818 20.6343 39.6909 19.2388C40.5837 20.5638 40.8246 23.6367 40.8529 26.0753C41.6324 24.5247 42.5818 18.7173 42.185 17.6601C43.6305 16.7157 43.6305 16.3492 43.999 15.7149C42.5535 15.8417 41.7316 15.87 40.938 16.1096C38.9398 14.8833 34.816 13.6287 31.4574 13.375C32.5061 13.8119 36.7716 16.1237 37.3101 16.8426C35.0569 17.1386 30.7488 18.4072 28.5664 19.549C31.0606 18.9992 34.5467 18.7173 36.9417 18.5905L36.9275 18.5764Z" fill="white"/>
<path d="M29.5158 37.6212C28.8781 38.4669 28.3537 39.1012 27.6452 39.8765C26.4548 40.2007 25.5053 40.3276 24.3574 40.3276C25.066 40.694 25.7745 40.9196 26.5115 41.0605C25.7745 41.7371 25.1227 42.2164 24.4141 42.6675C25.6328 42.3855 27.2058 41.864 28.3962 41.1733C29.0056 41.1874 29.6291 41.1733 30.0401 41.0887C29.9409 40.7222 29.8559 40.4544 29.7567 39.9893C30.8762 39.1294 31.684 38.3541 32.5909 37.4238C31.6131 38.1145 30.7628 38.6361 29.6433 39.1717C29.5866 38.6502 29.5583 38.1991 29.5299 37.6212H29.5158Z" fill="white"/>
<path d="M15.9419 30.0235C15.9419 30.0235 19.5556 26.6828 21.1144 25.837C21.1144 25.837 21.908 28.5575 22.4749 29.9107C22.4749 29.9107 22.985 26.7674 23.807 24.9631C23.807 24.9631 24.0337 24.8221 25.1957 24.7094C26.3436 24.6107 27.9591 24.5402 31.0768 25.0759C31.0768 25.0759 28.2142 23.2716 24.6856 22.7924C24.8273 22.3131 25.3233 21.2841 25.7626 20.7344C25.1107 20.833 23.2826 21.6506 22.0639 22.595C22.0639 22.595 21.2561 22.4963 19.9099 22.5386C18.5636 22.595 16.7922 22.9333 16.0978 23.2152C17.4157 23.2716 19.2155 23.5958 19.9099 24.2865C19.9099 24.2865 17.8975 26.0908 15.9277 30.0235H15.9419Z" fill="white"/>
<path d="M16.3363 38.6918C16.9315 39.9886 17.5551 40.8625 18.5754 41.8492C18.3345 41.0035 18.292 40.3128 18.377 39.4248C19.6666 39.7913 20.7294 40.0027 22.1749 40.045C20.7861 39.5375 19.7941 38.9455 18.7171 37.9306C19.0431 37.0426 19.4257 36.3378 20.0209 35.4498C18.9013 35.6048 18.0936 35.7458 17.1299 35.929C16.3505 34.5617 15.9962 33.2367 15.5994 31.4043C15.3727 33.3354 15.3018 34.745 15.5711 36.2955C14.6783 36.5351 14.0548 36.7325 13.332 37.0567C14.3524 37.6769 15.1885 38.1702 16.3363 38.6918Z" fill="white"/>
<path d="M29.7424 39.9882C29.8416 40.4533 29.9266 40.7352 30.0258 41.0876C29.6007 41.1722 28.9913 41.2004 28.3819 41.1722C27.1915 41.8629 25.6185 42.3844 24.3998 42.6664C25.1084 42.2153 25.7602 41.736 26.4972 41.0594C25.7602 40.9044 25.0375 40.693 24.3431 40.3265C25.5052 40.3265 26.4405 40.1996 27.6309 39.8754C28.3394 39.1001 28.8638 38.4517 29.5015 37.6201C29.5298 38.2121 29.5582 38.6491 29.6148 39.1706C30.7344 38.635 31.5846 38.0993 32.5625 37.4227C31.6413 38.3531 30.8477 39.1283 29.7282 39.9882H29.7424ZM31.4429 13.3471C34.8015 13.6008 38.9254 14.8695 40.9235 16.0817C41.7171 15.8421 42.5391 15.8139 43.9845 15.687C43.6161 16.3213 43.6161 16.6878 42.1706 17.6322C42.5674 18.6894 41.6179 24.4969 40.8385 26.0474C40.8102 23.6089 40.5692 20.536 39.6765 19.211C37.2815 20.6065 36.5588 20.7192 33.9654 22.2557C35.4817 20.6205 35.9919 19.9299 36.913 18.5485C34.5181 18.6753 31.032 18.9713 28.5378 19.507C30.7202 18.3652 35.0283 17.0966 37.2815 16.8006C36.743 16.0817 32.4916 13.7559 31.4288 13.333L31.4429 13.3471ZM16.1096 23.2001C16.7898 22.9182 18.5612 22.5799 19.9217 22.5235C21.2679 22.4812 22.0757 22.5799 22.0757 22.5799C23.2944 21.6213 25.1225 20.8179 25.7744 20.7192C25.3351 21.269 24.8249 22.2979 24.6974 22.7772C28.2261 23.2565 31.0887 25.0607 31.0887 25.0607C27.971 24.511 26.3554 24.5956 25.2076 24.6942C24.0455 24.807 23.8188 24.948 23.8188 24.948C22.9968 26.7522 22.4867 29.8956 22.4867 29.8956C21.9198 28.5424 21.1262 25.8219 21.1262 25.8219C19.5674 26.6535 15.9537 30.0083 15.9537 30.0083C17.9235 26.0756 19.9358 24.2714 19.9358 24.2714C19.2415 23.5807 17.4417 23.2565 16.1238 23.2001H16.1096ZM15.5994 31.3897C15.9962 33.2222 16.3505 34.5472 17.1299 35.9145C18.0936 35.7312 18.9155 35.5903 20.0209 35.4352C19.4257 36.3233 19.0431 37.028 18.7171 37.9161C19.8083 38.931 20.8003 39.523 22.1749 40.0305C20.7294 39.9882 19.6524 39.7767 18.377 39.4102C18.292 40.2983 18.3345 40.989 18.5754 41.8347C17.5551 40.8339 16.9315 39.9741 16.3363 38.6773C15.1885 38.1557 14.3524 37.6624 13.332 37.0421C14.0548 36.7179 14.6925 36.5206 15.5711 36.281C15.3018 34.7304 15.3727 33.3209 15.5994 31.3897Z" fill="white"/>
</g>
<defs>
<clipPath id="clip0_9412_77436">
<rect width="56" height="56" fill="white"/>
</clipPath>
</defs>
</svg>
