<svg width="56" height="56" viewBox="0 0 56 56" fill="none" xmlns="http://www.w3.org/2000/svg">
<g clip-path="url(#clip0_9412_78124)">
<path d="M0 28C0 29.6486 0 29.8318 0.039289 31.2318C0.14406 34.3327 0.471469 37.8916 1.71562 41.6467C2.59308 44.3028 4.24322 47.1682 5.89335 48.9739C7.9888 51.2765 10.883 53.1605 14.0131 54.2335C17.2086 55.3325 20.666 55.869 27.3845 56H28.6287C35.3601 55.856 38.8045 55.3325 42 54.2335C45.1301 53.1605 48.0112 51.2765 50.1065 48.9739C51.757 47.1552 53.407 44.3028 54.2845 41.6467C55.5285 37.8916 55.869 34.3196 55.9605 31.2318C56 29.8449 56 29.6486 56 28C56 26.3514 56 26.1682 55.9605 24.7682C55.856 21.6673 55.5285 18.1084 54.2845 14.3532C53.407 11.6972 51.757 8.83175 50.1065 7.02615C48.0112 4.72337 45.117 2.83925 42 1.76636C38.8045 0.66729 35.347 0.130841 28.6287 0H27.3845C20.653 0.143925 17.2086 0.66729 14.0131 1.76636C10.883 2.83925 8.00185 4.72337 5.89335 7.02615C4.24322 8.84485 2.59308 11.6972 1.71562 14.3532C0.484565 18.1084 0.14406 21.6673 0.039289 24.7682C0 26.1551 0 26.3514 0 28Z" fill="#FFEB00"/>
<mask id="mask0_9412_78124" style="mask-type:luminance" maskUnits="userSpaceOnUse" x="7" y="21" width="42" height="14">
<path d="M49 21.75H7V34.6807H49V21.75Z" fill="white"/>
</mask>
<g mask="url(#mask0_9412_78124)">
<path fill-rule="evenodd" clip-rule="evenodd" d="M13.4157 21.75C9.87155 21.75 7 24.0192 7 26.8176C7 28.616 8.19015 30.1951 9.9768 31.0957L9.3715 33.3532C9.3481 33.4234 9.3686 33.4965 9.4183 33.5462C9.4534 33.5813 9.50015 33.5988 9.5499 33.5988C9.5879 33.5988 9.6259 33.5842 9.661 33.5579L12.2606 31.8034C12.6378 31.856 13.0238 31.8882 13.4157 31.8882C16.9569 31.8882 19.8313 29.619 19.8313 26.8206C19.8313 24.0221 16.9569 21.75 13.4157 21.75Z" fill="black"/>
<path d="M25.2348 31.0259V34.2981H22.9043V22.2329H24.5476L24.8342 22.9991C25.3284 22.5049 26.0799 21.9785 27.2935 21.9785C29.5772 21.9785 30.6621 23.6862 30.6446 26.4467C30.6446 29.3358 28.969 31.1868 26.5741 31.1868C26.1121 31.1868 25.7612 31.1546 25.2348 31.0259ZM25.2348 24.1775V29.3972C25.3635 29.4118 25.6822 29.444 25.9863 29.444C27.6473 29.444 28.2848 28.2801 28.2848 26.4437C28.2848 24.8325 27.8549 23.8588 26.5302 23.8588C26.1004 23.8588 25.6208 23.9874 25.2378 24.1775H25.2348Z" fill="black"/>
<path d="M35.7207 25.6308H37.0454V25.3443C37.0454 24.388 36.5015 23.9406 35.5599 23.9406C34.8405 23.9406 33.9165 24.1483 33.165 24.5167L32.5275 22.9523C33.358 22.3762 34.6329 21.9785 35.7675 21.9785C38.0016 21.9785 39.2151 23.1599 39.2151 25.4115V30.9499H37.5717L37.3319 30.2159C36.3903 30.9031 35.5277 31.1897 34.7469 31.1897C33.0392 31.1897 32.0801 30.1692 32.0801 28.4439C32.0801 26.6075 33.358 25.6337 35.7178 25.6337L35.7207 25.6308ZM37.0454 28.71V27.1134H35.9751C34.7791 27.1134 34.1709 27.5432 34.1709 28.4059C34.1709 29.0609 34.5072 29.3796 35.1914 29.3796C35.8289 29.3796 36.6447 29.0609 37.0424 28.71H37.0454Z" fill="black"/>
<path d="M46.2693 30.0521C45.4564 32.2218 44.4826 33.8038 43.0615 34.681L41.6257 33.3564C42.4562 32.637 43.0469 31.9352 43.5557 30.9936L40.459 22.5515L42.772 21.9287L44.7517 28.7771L46.7138 21.8994L48.9976 22.5369L46.2693 30.055V30.0521Z" fill="black"/>
</g>
</g>
<defs>
<clipPath id="clip0_9412_78124">
<rect width="56" height="56" fill="white"/>
</clipPath>
</defs>
</svg>
