<svg width="56" height="56" viewBox="0 0 56 56" fill="none" xmlns="http://www.w3.org/2000/svg">
<g clip-path="url(#clip0_9412_77433)">
<path d="M0 28.0001C0 29.6487 0 29.8319 0.0392798 31.2319C0.144026 34.3329 0.471357 37.8917 1.71522 41.6469C2.59247 44.303 4.24222 47.1684 5.89197 48.974C7.9869 51.2769 10.8805 53.1608 14.0098 54.2341C17.2045 55.3328 20.6612 55.8565 27.378 56H28.6219C35.3518 55.8565 38.7954 55.3328 41.9901 54.2341C45.1194 53.1608 47.9999 51.2769 50.1081 48.974C51.7575 47.1553 53.4074 44.303 54.2846 41.6469C55.5284 37.8917 55.869 34.3198 55.9605 31.2319C56 29.845 56 29.6487 56 28.0001C56 26.3515 56 26.1683 55.9605 24.7683C55.856 21.6674 55.5284 18.1085 54.2846 14.3533C53.4074 11.6972 51.7575 8.83179 50.1081 7.02621C48.013 4.72338 45.1194 2.83926 41.9901 1.76636C38.7954 0.667293 35.3388 0.130841 28.6219 0H27.378C20.6481 0.143926 17.2045 0.667293 14.0098 1.76636C10.8805 2.83926 8.00001 4.72338 5.89197 7.02621C4.24222 8.8449 2.59247 11.6972 1.71522 14.3533C0.484451 18.1085 0.144026 21.6674 0.0392798 24.7683C0 26.1553 0 26.3515 0 28.0001Z" fill="#C40103"/>
<path d="M27.9863 11.9981C19.1233 11.9981 11.9863 19.1213 12 27.9569C12 36.7788 19.137 43.9568 27.9589 43.9979C36.7808 44.039 44.0137 36.7925 44 27.9295C43.9863 19.0802 36.8493 11.9844 27.9863 11.9981ZM27.9863 41.6691C20.4521 41.6691 14.2877 35.4911 14.2877 27.9569C14.2877 20.4227 20.4658 14.2721 28 14.2858C35.548 14.2858 41.6986 20.4501 41.6849 27.9843C41.6849 35.5185 35.5069 41.6691 27.9726 41.6691" fill="white"/>
<path d="M22.0275 31.4089H26.9727V24.1487H22.3152V21.4638H26.959V19.5186H19.9864V26.4363H24.4384V29.2309H19.959V35.8336H26.9727V33.7377H22.0275V31.4089Z" fill="white"/>
<path d="M34.2187 31.4089H29.2598V24.1487H33.9173V21.4638H29.2735V19.5186H36.2461V26.4363H31.794V29.2309H36.2735V35.8336H29.2598V33.7377H34.2187V31.4089Z" fill="white"/>
</g>
<defs>
<clipPath id="clip0_9412_77433">
<rect width="56" height="56" fill="white"/>
</clipPath>
</defs>
</svg>
