<svg width="56" height="56" viewBox="0 0 56 56" fill="none" xmlns="http://www.w3.org/2000/svg">
<g clip-path="url(#clip0_9412_78138)">
<path d="M0 28C0 29.6511 0 29.833 0.0420105 31.2323C0.0980245 34.7586 0.658165 38.2708 1.72243 41.6431C2.63266 44.3298 4.04701 46.8205 5.89547 48.9755C8.12203 51.3683 10.9087 53.1734 14.0035 54.2369C17.1963 55.3283 20.6552 55.8601 27.3768 56H28.6232C35.3448 55.8601 38.8037 55.3283 41.9965 54.2369C45.0913 53.1734 47.878 51.3683 50.1045 48.9755C51.953 46.8205 53.3813 44.3438 54.2776 41.6431C55.3418 38.2708 55.902 34.7726 55.958 31.2323C56 29.847 56 29.6511 56 28C56 26.3488 56 26.1669 55.958 24.7816C55.902 21.2553 55.3418 17.7431 54.2776 14.3708C53.3673 11.6841 51.953 9.19339 50.1045 7.03846C47.878 4.64567 45.0913 2.84058 41.9965 1.77711C38.8037 0.671662 35.3448 0.13993 28.6232 0H27.3768C20.6552 0.13993 17.1963 0.671662 14.0035 1.76312C10.9087 2.82658 8.12203 4.63168 5.89547 7.02447C4.04701 9.17939 2.61865 11.6562 1.72243 14.3568C0.658165 17.7431 0.0980245 21.2414 0.0420105 24.7816C0 26.1669 0 26.3628 0 28Z" fill="#0F206C"/>
<path d="M13.0333 23.2012H7.2793C7.2793 23.2012 8.2033 24.1952 8.2033 24.7132V33.0292H12.9493C12.9493 33.0292 17.6673 32.9312 17.6673 28.2552C17.6673 25.6232 15.6513 23.4252 13.0193 23.2012M13.0193 31.6432H9.9813V24.5172C9.9813 24.5172 11.0593 24.4472 12.1933 24.4472C14.0693 24.3772 15.6513 25.8472 15.7073 27.7372C15.7073 27.9052 15.7073 28.0592 15.6933 28.2272C15.6933 31.6572 13.0193 31.6572 13.0193 31.6572" fill="white"/>
<path d="M26.4316 33.1272H28.5036L23.7716 23.2012H21.3636C21.6856 23.4672 21.8956 23.8452 21.9516 24.2652C21.9516 24.8672 17.9336 33.1272 17.9336 33.1272H19.5016L20.4816 30.9712H25.3956L26.4316 33.1272ZM21.0276 29.7812L22.8896 25.7072L24.8356 29.7812H21.0276Z" fill="white"/>
<path d="M34.2447 22.5709C31.2487 22.5289 28.7847 24.9369 28.7427 27.9329C28.7007 30.9289 31.1087 33.3929 34.1047 33.4349C37.1007 33.4769 39.5647 31.0689 39.6067 28.0729C39.6067 28.0449 39.6067 28.0309 39.6067 28.0029C39.6207 25.0209 37.2267 22.5989 34.2447 22.5709ZM34.1327 31.5869C32.1447 31.5869 30.5487 29.9769 30.5487 27.9889C30.5487 26.0009 32.1587 24.4049 34.1467 24.4049C36.1347 24.4049 37.7307 26.0149 37.7307 28.0029C37.7307 29.9909 36.1207 31.5869 34.1327 31.5869Z" fill="white"/>
<path d="M40.5859 23.2012C41.0059 23.5652 41.2719 24.0692 41.3419 24.6152V33.2252H48.7199V31.7552H43.3159V23.2012H40.5999H40.5859Z" fill="white"/>
</g>
<defs>
<clipPath id="clip0_9412_78138">
<rect width="56" height="56" fill="white"/>
</clipPath>
</defs>
</svg>
