<svg width="56" height="56" viewBox="0 0 56 56" fill="none" xmlns="http://www.w3.org/2000/svg">
<g clip-path="url(#clip0_9412_78118)">
<path d="M0 28C0 29.6486 0 29.8318 0.039289 31.2318C0.14406 34.3327 0.471469 37.8916 1.71562 41.6467C2.59308 44.3028 4.24322 47.1682 5.89335 48.9739C7.9888 51.2765 10.883 53.1605 14.0131 54.2335C17.2086 55.3325 20.666 55.869 27.3845 56H28.6287C35.3601 55.856 38.8045 55.3325 42 54.2335C45.1301 53.1605 48.0112 51.2765 50.1065 48.9739C51.757 47.1552 53.407 44.3028 54.2845 41.6467C55.5285 37.8916 55.869 34.3196 55.9605 31.2318C56 29.8449 56 29.6486 56 28C56 26.3514 56 26.1682 55.9605 24.7682C55.856 21.6673 55.5285 18.1084 54.2845 14.3532C53.407 11.6972 51.757 8.83175 50.1065 7.02615C48.0112 4.72337 45.117 2.83925 42 1.76636C38.8045 0.66729 35.347 0.130841 28.6287 0H27.3845C20.653 0.143925 17.2086 0.66729 14.0131 1.76636C10.883 2.83925 8.00185 4.72337 5.89335 7.02615C4.24322 8.84485 2.59308 11.6972 1.71562 14.3532C0.484565 18.1084 0.14406 21.6673 0.039289 24.7682C0 26.1551 0 26.3514 0 28Z" fill="#457C26"/>
<path d="M40.7225 31.1528L38.8839 29.912C38.2878 30.3524 37.5694 30.5964 36.8284 30.6102C36.0874 30.624 35.3606 30.4069 34.7485 29.9889C34.7485 29.9889 29.1608 26.2135 28.6439 25.8566C28.3461 25.6456 27.9901 25.5322 27.6251 25.5322C27.2601 25.5322 26.9041 25.6456 26.6063 25.8566L20.4808 29.9981C19.8685 30.4155 19.1417 30.6323 18.4009 30.6185C17.66 30.6048 16.9417 30.3611 16.3454 29.9212L14.5078 31.162C13.7647 31.6788 13.2497 32.4625 13.07 33.3496C12.8903 34.2368 13.0598 35.159 13.5432 35.9243C13.773 36.2997 14.0763 36.6247 14.4351 36.8797C14.7939 37.1346 15.2005 37.3142 15.6306 37.4077C16.0607 37.5011 16.5053 37.5065 16.9375 37.4234C17.3698 37.3403 17.7807 37.1705 18.1455 36.9243L26.6763 31.1551C26.9457 30.9469 27.2765 30.8339 27.617 30.8339C27.9575 30.8339 28.2883 30.9469 28.5577 31.1551L37.0863 36.9243C37.451 37.1709 37.8619 37.3409 38.2942 37.4241C38.7265 37.5074 39.1711 37.5021 39.6013 37.4087C40.0315 37.3152 40.4383 37.1355 40.797 36.8803C41.1558 36.6252 41.459 36.3 41.6885 35.9243C42.1726 35.159 42.3427 34.2364 42.1633 33.3487C41.9839 32.4611 41.4688 31.6769 40.7255 31.1597L40.7225 31.1528Z" fill="white"/>
<path d="M26.9899 20.4648C27.1823 20.3435 27.4049 20.2793 27.6322 20.2793C27.8595 20.2793 28.0822 20.3435 28.2745 20.4648C28.6237 20.6809 32.3391 23.2279 32.3391 23.2279C32.9218 23.6237 33.6221 23.809 34.3243 23.753C35.0265 23.6971 35.6887 23.4033 36.2014 22.9202L38.3107 24.3471C38.942 24.787 39.3791 25.4535 39.5315 26.2077C39.6838 26.962 39.5395 27.7459 39.1284 28.3963C38.9329 28.7153 38.6747 28.9914 38.3695 29.2079C38.0643 29.4243 37.7183 29.5767 37.3526 29.6558C36.9869 29.7348 36.6091 29.739 36.2418 29.668C35.8744 29.5969 35.5251 29.4522 35.2152 29.2425C35.2152 29.2425 29.1569 25.1532 28.5684 24.8032C28.2849 24.6272 27.9578 24.5339 27.6242 24.5339C27.2905 24.5339 26.9634 24.6272 26.6799 24.8032C26.1884 25.1055 20.003 29.2348 20.003 29.2348C19.3722 29.6383 18.6073 29.7758 17.8754 29.6173C17.1436 29.4587 16.5041 29.017 16.0968 28.3886C15.6873 27.7389 15.5437 26.9565 15.696 26.2037C15.8483 25.451 16.2846 24.7858 16.9145 24.3463L19.0261 22.9202C19.5385 23.4038 20.2006 23.6979 20.903 23.7539C21.6053 23.8098 22.3059 23.6243 22.8884 23.2279C22.8884 23.2279 26.6246 20.6955 26.9899 20.4648Z" fill="white"/>
<path d="M28.3451 19.4316L32.8136 22.477C33.0757 22.6361 33.3671 22.7406 33.6705 22.7841C33.974 22.8276 34.2833 22.8094 34.5795 22.7303C34.8757 22.6513 35.1527 22.5131 35.3942 22.3241C35.6356 22.1352 35.8363 21.8994 35.9842 21.6308C36.2784 21.1149 36.3754 20.5098 36.2571 19.9278C36.1388 19.3457 35.8134 18.8264 35.3412 18.4662L28.3058 13.7109C28.1013 13.5759 27.8617 13.5039 27.6166 13.5039C27.3716 13.5039 27.1319 13.5759 26.9274 13.7109L19.8805 18.4662C19.3786 18.8485 19.0432 19.4094 18.9444 20.0325C18.8455 20.6556 18.9907 21.2928 19.3496 21.8116C19.6761 22.2945 20.1762 22.633 20.7457 22.7569C21.3153 22.8808 21.9106 22.7806 22.4081 22.477L26.9413 19.4316C27.1397 19.2724 27.3864 19.1856 27.6408 19.1856C27.8952 19.1856 28.142 19.2724 28.3404 19.4316H28.3451Z" fill="white"/>
<path d="M32.4112 40.7625L28.7536 34.581C28.6954 34.4274 28.6071 34.287 28.4939 34.1681C28.3806 34.0492 28.2448 33.9542 28.0942 33.8886C27.9437 33.823 27.7816 33.7882 27.6174 33.7862C27.4532 33.7843 27.2902 33.8152 27.1381 33.8771C26.9837 33.9434 26.8442 34.0398 26.7274 34.1606C26.6107 34.2815 26.519 34.4244 26.4581 34.581L22.8005 40.7625C22.3274 41.521 22.4397 42.731 23.7474 42.731H31.4536C32.7721 42.7241 32.8843 41.5233 32.4112 40.7625Z" fill="white"/>
</g>
<defs>
<clipPath id="clip0_9412_78118">
<rect width="56" height="56" fill="white"/>
</clipPath>
</defs>
</svg>
