<svg width="56" height="56" viewBox="0 0 56 56" fill="none" xmlns="http://www.w3.org/2000/svg">
<g clip-path="url(#clip0_9412_78135)">
<path d="M0 28C0 29.645 0 29.8368 0.0448 31.227C0.0936765 34.7624 0.659674 38.2715 1.7248 41.643C2.62943 44.3328 4.04775 46.8214 5.901 48.9706C8.13048 51.3644 10.9155 53.1719 14.0098 54.2332C17.206 55.3336 20.6584 55.8628 27.3798 56H28.6216C35.3416 55.86 38.7968 55.3336 41.9916 54.2332C45.0867 53.1719 47.8727 51.3645 50.1032 48.9706C51.9545 46.8203 53.3722 44.332 54.278 41.643C55.3425 38.2714 55.9084 34.7623 55.958 31.227C56 29.8368 56 29.645 56 28C56 26.355 56 26.1646 55.958 24.78C55.9084 21.2447 55.3425 17.7356 54.278 14.364C53.3719 11.6747 51.9542 9.18603 50.1032 7.035C47.8726 4.64154 45.0866 2.83455 41.9916 1.7738C38.7968 0.6664 35.3444 0.14 28.6216 0H27.3798C20.6598 0.14 17.206 0.6664 14.0098 1.7682C10.9156 2.829 8.13056 4.63601 5.901 7.0294C4.04803 9.17931 2.62976 11.6683 1.7248 14.3584C0.659674 17.7299 0.0936765 21.239 0.0448 24.7744C0 26.1646 0 26.3564 0 28Z" fill="#01448B"/>
<path d="M18.2558 29.6199C17.9096 28.3516 18.0171 27.0022 18.5598 25.8047C19.1024 24.6073 20.0461 23.6368 21.228 23.0609C26.667 20.3449 32.2152 17.8459 37.748 15.2461C38.0987 16.5381 37.9808 17.9127 37.415 19.126C36.8491 20.3394 35.872 21.3133 34.6568 21.8751C29.2766 24.5463 23.7956 27.0187 18.2628 29.6199" fill="white"/>
<path d="M19.541 35.3722C19.2433 34.3594 19.2801 33.2776 19.6457 32.2872C20.0114 31.2969 20.6865 30.4508 21.571 29.8744C23.1152 28.9718 24.7101 28.1589 26.3478 27.4398C28.347 26.4794 30.3686 25.561 32.3804 24.623C32.7046 25.6965 32.6493 26.8489 32.2238 27.8863C31.7983 28.9238 31.0284 29.7831 30.0438 30.3196C26.5858 32.0808 23.055 33.6936 19.5438 35.3764" fill="white"/>
<path d="M20.7713 40.753C20.0993 36.4732 23.2829 35.0886 27.6999 33.459C27.8793 34.221 27.8371 35.0183 27.5781 35.7571C27.3191 36.4958 26.8542 37.145 26.2383 37.6282C24.5751 38.7916 22.7103 39.6638 20.7783 40.753" fill="white"/>
<path d="M0 28C0 29.645 0 29.835 0.045 31.225C0.145 34.32 0.48 37.89 1.725 41.64C2.605 44.3 4.25 47.155 5.9 48.97C8 51.2701 10.885 53.1551 14.01 54.2301C17.205 55.3301 20.66 55.8601 27.38 56.0001H28.62C35.34 55.8601 38.795 55.3301 41.99 54.2301C45.115 53.1551 48 51.2701 50.1 48.97C51.755 47.155 53.395 44.3 54.275 41.64C55.52 37.885 55.855 34.32 55.955 31.225C56 29.835 56 29.645 56 28C56 26.355 56 26.165 55.955 24.775C55.855 21.68 55.52 18.115 54.275 14.36C53.395 11.7 51.755 8.845 50.1 7.03C48 4.73 45.115 2.845 41.99 1.765C38.795 0.664998 35.34 0.135 28.62 0H27.38C20.66 0.14 17.205 0.664998 14.01 1.765C10.885 2.84 8 4.725 5.9 7.03C4.25 8.84 2.605 11.7 1.725 14.36C0.48 18.11 0.145 21.68 0.045 24.775C0 26.165 0 26.355 0 28Z" fill="#0367B3"/>
<path d="M28.2489 43.4753C36.7375 43.4753 43.6189 36.594 43.6189 28.1054C43.6189 19.6167 36.7375 12.7354 28.2489 12.7354C19.7603 12.7354 12.8789 19.6167 12.8789 28.1054C12.8789 36.594 19.7603 43.4753 28.2489 43.4753Z" fill="#0098D5"/>
<path d="M28.2439 17.8203C35.2289 17.8203 41.1939 22.1203 43.4889 28.1503C43.4889 28.0803 43.4939 28.0103 43.4939 27.9403C43.4939 19.5203 36.6389 12.6953 28.1839 12.6953C19.7289 12.6953 12.8789 19.5253 12.8789 27.9403C12.8789 28.1203 12.8839 28.2953 12.8939 28.4703C15.0939 22.2703 21.1389 17.8153 28.2489 17.8153L28.2439 17.8203Z" fill="#0083CA"/>
<path d="M28.2556 17.9453C35.2556 17.9453 41.2256 22.2603 43.4906 28.2953C43.4906 28.2453 43.4906 28.2003 43.4906 28.1503C41.1956 22.1153 35.2306 17.8203 28.2456 17.8203C21.2606 17.8203 15.0956 22.2753 12.8906 28.4753C12.8906 28.5253 12.8906 28.5803 12.8906 28.6353C15.0606 22.4303 21.1206 17.9503 28.2456 17.9503L28.2556 17.9453Z" fill="#0083CA"/>
<path d="M28.2334 18.0902C35.2734 18.0902 41.2584 22.4452 43.4834 28.5052C43.4834 28.4352 43.4834 28.3652 43.4884 28.3002C41.2234 22.2702 35.2534 17.9502 28.2534 17.9502C21.2534 17.9502 15.0684 22.4302 12.8984 28.6352C12.8984 28.6902 12.8984 28.7402 12.9034 28.7952C15.0384 22.5902 21.0884 18.0952 28.2334 18.0952V18.0902Z" fill="#0085CB"/>
<path d="M28.2362 18.0898C21.0912 18.0898 15.0412 22.5898 12.9062 28.7898C12.9062 28.8348 12.9162 28.8848 12.9162 28.9298C15.0262 22.7348 21.0862 18.2248 28.2412 18.2248C35.3962 18.2248 41.2912 22.6048 43.4812 28.6648C43.4812 28.6148 43.4812 28.5598 43.4812 28.5048C41.2612 22.4448 35.2712 18.0898 28.2312 18.0898H28.2362Z" fill="#0086CC"/>
<path d="M28.2391 18.2257C21.0841 18.2257 15.0191 22.7357 12.9141 28.9307C12.9141 28.9807 12.9241 29.0307 12.9241 29.0807C14.9991 22.8857 21.0691 18.3607 28.2391 18.3607C35.4091 18.3607 41.3091 22.7607 43.4691 28.8207C43.4691 28.7657 43.4741 28.7157 43.4791 28.6607C41.2891 22.6007 35.2941 18.2207 28.2391 18.2207V18.2257Z" fill="#0088CC"/>
<path d="M28.2408 18.4904C35.3208 18.4904 41.3308 22.9104 43.4608 28.9704C43.4608 28.9204 43.4708 28.8704 43.4708 28.8204C41.3158 22.7554 35.3108 18.3604 28.2408 18.3604C21.1708 18.3604 15.0008 22.8854 12.9258 29.0804C12.9258 29.1254 12.9308 29.1704 12.9358 29.2154C14.9858 23.0304 21.0658 18.4904 28.2408 18.4904Z" fill="#0089CD"/>
<path d="M28.2386 18.4902C21.0636 18.4902 14.9836 23.0302 12.9336 29.2152C12.9336 29.2652 12.9386 29.3152 12.9436 29.3652C14.9586 23.1852 21.0436 18.6252 28.2286 18.6252C35.4136 18.6252 41.3486 23.0702 43.4386 29.1352C43.4386 29.0802 43.4486 29.0252 43.4536 28.9702C41.3286 22.9102 35.3186 18.4902 28.2336 18.4902H28.2386Z" fill="#008BCE"/>
<path d="M28.2342 18.7699C35.3442 18.7699 41.3692 23.2249 43.4342 29.2799C43.4342 29.2349 43.4392 29.1849 43.4442 29.1399C41.3542 23.0749 35.3292 18.6299 28.2342 18.6299C21.1392 18.6299 14.9642 23.1899 12.9492 29.3699C12.9492 29.4199 12.9542 29.4649 12.9592 29.5149C14.9442 23.3399 21.0292 18.7699 28.2342 18.7699Z" fill="#008DCF"/>
<path d="M28.2359 18.7695C21.0309 18.7695 14.9459 23.3395 12.9609 29.5145C12.9609 29.5595 12.9709 29.5995 12.9759 29.6445C14.9309 23.4845 21.0209 18.9095 28.2259 18.9095C35.4309 18.9095 41.3959 23.3895 43.4209 29.4495C43.4259 29.3945 43.4309 29.3395 43.4309 29.2845C41.3659 23.2295 35.3409 18.7745 28.2309 18.7745L28.2359 18.7695Z" fill="#008ED0"/>
<path d="M28.2355 19.0443C35.3705 19.0443 41.4105 23.5293 43.4105 29.5743C43.4105 29.5293 43.4205 29.4843 43.4255 29.4443C41.4005 23.3843 35.3605 18.9043 28.2305 18.9043C21.1005 18.9043 14.9355 23.4843 12.9805 29.6393C12.9855 29.6893 12.9905 29.7343 13.0005 29.7793C14.9255 23.6293 21.0205 19.0393 28.2405 19.0393L28.2355 19.0443Z" fill="#0090D0"/>
<path d="M28.2361 19.0449C21.0161 19.0449 14.9211 23.6349 12.9961 29.7849C13.0011 29.8249 13.0061 29.8699 13.0111 29.9099C14.9111 23.7749 21.0061 19.1749 28.2311 19.1749C35.4561 19.1749 41.4311 23.6849 43.3911 29.7249C43.3961 29.6749 43.4061 29.6249 43.4111 29.5749C41.4111 23.5299 35.3711 19.0449 28.2361 19.0449Z" fill="#0092D1"/>
<path d="M28.2198 19.3049C35.3848 19.3049 41.4398 23.8249 43.3698 29.8599C43.3748 29.8149 43.3798 29.7649 43.3898 29.7199C41.4248 23.6749 35.3798 19.1699 28.2298 19.1699C21.0798 19.1699 14.9098 23.7749 13.0098 29.9049C13.0148 29.9499 13.0198 29.9949 13.0298 30.0399C14.8948 23.9149 20.9898 19.2999 28.2248 19.2999L28.2198 19.3049Z" fill="#0093D2"/>
<path d="M28.2184 19.3047C20.9834 19.3047 14.8884 23.9197 13.0234 30.0447C13.0284 30.0847 13.0334 30.1297 13.0384 30.1697C14.8784 24.0597 20.9734 19.4397 28.2184 19.4397C35.4634 19.4397 41.4484 23.9797 43.3484 30.0047C43.3534 29.9597 43.3584 29.9097 43.3684 29.8647C41.4384 23.8297 35.3834 19.3097 28.2184 19.3097V19.3047Z" fill="#0095D3"/>
<path d="M28.2299 19.5745C35.4099 19.5745 41.4649 24.1195 43.3399 30.1295C43.3449 30.0895 43.3499 30.0445 43.3549 30.0045C41.4549 23.9795 35.3999 19.4395 28.2249 19.4395C21.0499 19.4395 14.8849 24.0645 13.0449 30.1695C13.0499 30.2145 13.0599 30.2595 13.0649 30.3045C14.8749 24.2095 20.9799 19.5745 28.2299 19.5745Z" fill="#0097D4"/>
<path d="M28.2314 19.5752C20.9814 19.5752 14.8764 24.2152 13.0664 30.3052C13.0714 30.3402 13.0814 30.3802 13.0864 30.4152C14.8714 24.3452 20.9714 19.7152 28.2164 19.7152C35.4614 19.7152 41.4814 24.2852 43.3164 30.2952C43.3264 30.2402 43.3314 30.1852 43.3414 30.1302C41.4664 24.1202 35.4114 19.5752 28.2314 19.5752Z" fill="#0098D5"/>
<path d="M28.214 19.8498C35.419 19.8498 41.484 24.4198 43.294 30.4048C43.299 30.3698 43.309 30.3298 43.314 30.2948C41.484 24.2848 35.414 19.7148 28.214 19.7148C21.014 19.7148 14.864 24.3448 13.084 30.4148C13.089 30.4498 13.099 30.4898 13.104 30.5248C14.864 24.4798 20.964 19.8448 28.219 19.8448L28.214 19.8498Z" fill="#009AD5"/>
<path d="M28.2166 19.8496C20.9616 19.8496 14.8666 24.4796 13.1016 30.5296C13.1066 30.5696 13.1166 30.6146 13.1216 30.6546C14.8516 24.6296 20.9566 19.9896 28.2116 19.9896C35.4666 19.9896 41.4866 24.5696 43.2666 30.5346C43.2716 30.4946 43.2816 30.4496 43.2866 30.4096C41.4766 24.4246 35.4116 19.8546 28.2066 19.8546L28.2166 19.8496Z" fill="#009CD6"/>
<path d="M28.2089 20.1204C35.4239 20.1204 41.4989 24.7104 43.2489 30.6654C43.2589 30.6204 43.2639 30.5754 43.2739 30.5304C41.4939 24.5654 35.4239 19.9854 28.2189 19.9854C21.0139 19.9854 14.8589 24.6254 13.1289 30.6504C13.1339 30.6904 13.1439 30.7254 13.1489 30.7654C14.8539 24.7604 20.9539 20.1154 28.2139 20.1154L28.2089 20.1204Z" fill="#009ED7"/>
<path d="M28.2095 20.1201C20.9495 20.1201 14.8495 24.7651 13.1445 30.7701C13.1545 30.8151 13.1595 30.8551 13.1695 30.9001C14.8395 24.9101 20.9395 20.2501 28.2095 20.2501C35.4795 20.2501 41.5095 24.8501 43.2295 30.7851C43.2345 30.7451 43.2445 30.7051 43.2495 30.6651C41.4995 24.7101 35.4245 20.1201 28.2095 20.1201Z" fill="#00A0D8"/>
<path d="M28.2049 20.385C35.4449 20.385 41.5199 25 43.2049 30.915C43.2149 30.87 43.2199 30.825 43.2299 30.785C41.5149 24.85 35.4399 20.25 28.2099 20.25C20.9799 20.25 14.8399 24.91 13.1699 30.9C13.1799 30.94 13.1849 30.98 13.1899 31.015C14.8349 25.05 20.9249 20.385 28.2049 20.385Z" fill="#00A1D9"/>
<path d="M28.2064 20.3848C20.9264 20.3848 14.8364 25.0498 13.1914 31.0148C13.2014 31.0548 13.2114 31.0898 13.2164 31.1298C14.8314 25.1898 20.9214 20.5248 28.2014 20.5248C35.4814 20.5248 41.5264 25.1398 43.1764 31.0398C43.1864 30.9998 43.1914 30.9548 43.2014 30.9148C41.5164 24.9948 35.4414 20.3848 28.2014 20.3848H28.2064Z" fill="#00A3DA"/>
<path d="M28.2057 20.6593C35.4557 20.6593 41.5307 25.2843 43.1557 31.1593C43.1657 31.1193 43.1757 31.0843 43.1807 31.0443C41.5257 25.1443 35.4507 20.5293 28.2057 20.5293C20.9607 20.5293 14.8357 25.1943 13.2207 31.1343C13.2307 31.1693 13.2357 31.2043 13.2457 31.2393C14.8407 25.3293 20.9307 20.6643 28.2057 20.6643V20.6593Z" fill="#00A5DB"/>
<path d="M28.2061 20.6593C20.9311 20.6593 14.8411 25.3243 13.2461 31.2343C13.2561 31.2693 13.2611 31.3043 13.2711 31.3343C14.8411 25.4593 20.9361 20.7993 28.2111 20.7993C35.4861 20.7993 41.5361 25.4243 43.1311 31.2743C43.1411 31.2343 43.1511 31.1943 43.1561 31.1543C41.5311 25.2793 35.4561 20.6543 28.2061 20.6543V20.6593Z" fill="#00A7DC"/>
<path d="M28.1995 20.9358C35.4545 20.9358 41.5345 25.5758 43.0995 31.4058C43.1095 31.3608 43.1195 31.3208 43.1295 31.2758C41.5295 25.4258 35.4595 20.8008 28.2095 20.8008C20.9595 20.8008 14.8445 25.4608 13.2695 31.3358C13.2795 31.3758 13.2845 31.4108 13.2945 31.4508C14.8345 25.5958 20.9245 20.9358 28.1995 20.9358Z" fill="#00A9DD"/>
<path d="M28.1999 20.9355C20.9199 20.9355 14.8349 25.5955 13.2949 31.4505C13.3049 31.4855 13.3099 31.5205 13.3199 31.5555C14.8399 25.7355 20.9199 21.0705 28.1999 21.0705C35.4799 21.0705 41.5349 25.7055 43.0749 31.5105C43.0849 31.4755 43.0899 31.4405 43.0999 31.4105C41.5349 25.5805 35.4599 20.9405 28.1999 20.9405V20.9355Z" fill="#00ABDE"/>
<path d="M28.2003 21.2053C35.4603 21.2053 41.5353 25.8503 43.0503 31.6253C43.0603 31.5853 43.0653 31.5503 43.0753 31.5103C41.5353 25.7103 35.4603 21.0703 28.2003 21.0703C20.9403 21.0703 14.8353 25.7353 13.3203 31.5553C13.3303 31.5953 13.3353 31.6303 13.3453 31.6703C14.8353 25.8753 20.9153 21.2053 28.2003 21.2053Z" fill="#00ADDE"/>
<path d="M28.1987 21.2052C20.9137 21.2052 14.8338 25.8702 13.3438 31.6702C13.3537 31.7052 13.3588 31.7352 13.3688 31.7702C14.8338 26.0052 20.9138 21.3402 28.1938 21.3402C35.4738 21.3402 41.5438 25.9902 43.0188 31.7452C43.0288 31.7052 43.0387 31.6652 43.0487 31.6202C41.5338 25.8452 35.4637 21.2002 28.1987 21.2002V21.2052Z" fill="#00AFDF"/>
<path d="M28.1861 21.47C35.4611 21.47 41.5361 26.12 42.9911 31.845C43.0011 31.81 43.0111 31.775 43.0211 31.74C41.5461 25.985 35.4661 21.335 28.1961 21.335C20.9261 21.335 14.8361 25.995 13.3711 31.765C13.3811 31.8 13.3911 31.835 13.4011 31.865C14.8411 26.135 20.9061 21.47 28.1911 21.47H28.1861Z" fill="#00B1E0"/>
<path d="M28.1845 21.4698C20.8995 21.4698 14.8345 26.1348 13.3945 31.8648C13.4045 31.8948 13.4145 31.9248 13.4195 31.9548C14.8395 26.2598 20.9095 21.5998 28.1895 21.5998C35.4695 21.5998 41.5295 26.2448 42.9595 31.9298C42.9695 31.8998 42.9795 31.8698 42.9845 31.8398C41.5345 26.1148 35.4595 21.4648 28.1795 21.4648L28.1845 21.4698Z" fill="#00B3E1"/>
<path d="M28.1899 21.7404C35.4599 21.7404 41.5249 26.3804 42.9299 32.0404C42.9399 32.0054 42.9499 31.9704 42.9599 31.9404C41.5299 26.2554 35.4599 21.6104 28.1899 21.6104C20.9199 21.6104 14.8399 26.2654 13.4199 31.9654C13.4299 32.0004 13.4399 32.0354 13.4499 32.0704C14.8449 26.4004 20.9099 21.7504 28.1899 21.7504V21.7404Z" fill="#0DB5E2"/>
<path d="M28.1892 21.7404C20.9092 21.7404 14.8392 26.3954 13.4492 32.0604C13.4592 32.0904 13.4692 32.1253 13.4792 32.1553C14.8492 26.5253 20.9192 21.8754 28.1942 21.8754C35.4692 21.8754 41.5242 26.5204 42.9042 32.1454C42.9142 32.1104 42.9242 32.0704 42.9342 32.0354C41.5292 26.3804 35.4592 21.7354 28.1942 21.7354L28.1892 21.7404Z" fill="#19B7E3"/>
<path d="M28.1855 22.0099C35.4605 22.0099 41.5255 26.6649 42.8705 32.2649C42.8805 32.2249 42.8905 32.1849 42.9055 32.1499C41.5255 26.5249 35.4655 21.8799 28.1955 21.8799C20.9255 21.8799 14.8555 26.5299 13.4805 32.1599C13.4905 32.1899 13.5005 32.2249 13.5055 32.2549C14.8555 26.6599 20.9155 22.0099 28.1855 22.0099Z" fill="#21B9E4"/>
<path d="M28.1839 22.0098C20.9139 22.0098 14.8539 26.6598 13.5039 32.2548C13.5089 32.2798 13.5189 32.3048 13.5239 32.3298C14.8639 26.7648 20.9139 22.1398 28.1839 22.1398C35.4539 22.1398 41.5089 26.7648 42.8489 32.3298C42.8539 32.3098 42.8589 32.2898 42.8689 32.2648C41.5289 26.6648 35.4639 22.0098 28.1839 22.0098Z" fill="#28BBE5"/>
<path d="M28.1834 22.2706C35.4434 22.2706 41.4934 26.8706 42.8284 32.3956C42.8334 32.3756 42.8384 32.3556 42.8484 32.3306C41.5084 26.7656 35.4534 22.1406 28.1834 22.1406C20.9134 22.1406 14.8634 26.7656 13.5234 32.3306C13.5284 32.3506 13.5334 32.3706 13.5434 32.3906C14.8784 26.8656 20.9234 22.2656 28.1834 22.2656V22.2706Z" fill="#37BDE6"/>
<path d="M28.1849 22.2695C20.9249 22.2695 14.8799 26.8695 13.5449 32.3945C13.5499 32.4145 13.5549 32.4345 13.5649 32.4595C14.8999 26.9645 20.9399 22.3845 28.1899 22.3845C35.4399 22.3845 41.4899 26.9695 42.8149 32.4695C42.8199 32.4445 42.8299 32.4245 42.8349 32.3995C41.4949 26.8695 35.4499 22.2745 28.1899 22.2745L28.1849 22.2695Z" fill="#43BFE6"/>
<path d="M28.1836 22.5148C35.4236 22.5148 41.4586 27.0648 42.7886 32.5298C42.7936 32.5098 42.8036 32.4898 42.8086 32.4698C41.4836 26.9648 35.4386 22.3848 28.1836 22.3848C20.9286 22.3848 14.8936 26.9648 13.5586 32.4598C13.5636 32.4848 13.5736 32.5048 13.5836 32.5298C14.9136 27.0698 20.9436 22.5198 28.1836 22.5198V22.5148Z" fill="#4DC0E7"/>
<path d="M28.1859 22.5148C20.9459 22.5148 14.9159 27.0648 13.5859 32.5248C13.5909 32.5448 13.6009 32.5598 13.6059 32.5798C14.9359 27.1598 20.9509 22.6298 28.1859 22.6298C35.4209 22.6298 41.4459 27.1548 42.7759 32.5798C42.7809 32.5598 42.7909 32.5448 42.7959 32.5248C41.4659 27.0598 35.4309 22.5098 28.1909 22.5098L28.1859 22.5148Z" fill="#56C2E8"/>
<path d="M28.1905 22.7499C35.4105 22.7499 41.4255 27.2449 42.7555 32.6349C42.7605 32.6149 42.7705 32.5999 42.7755 32.5799C41.4455 27.1549 35.4205 22.6299 28.1855 22.6299C20.9505 22.6299 14.9355 27.1599 13.6055 32.5799C13.6105 32.5999 13.6205 32.6199 13.6255 32.6399C14.9555 27.2499 20.9755 22.7549 28.1955 22.7549L28.1905 22.7499Z" fill="#5EC4E8"/>
<path d="M28.1911 22.75C20.9761 22.75 14.9561 27.25 13.6211 32.635C13.6261 32.66 13.6361 32.68 13.6461 32.705C14.9711 27.35 20.9761 22.88 28.1861 22.88C35.3961 22.88 41.4061 27.35 42.7311 32.705C42.7411 32.68 42.7461 32.66 42.7561 32.635C41.4261 27.245 35.4111 22.75 28.1911 22.75Z" fill="#65C6E9"/>
<path d="M28.1845 22.9999C35.3845 22.9999 41.3845 27.4399 42.7095 32.7599C42.7145 32.7399 42.7245 32.7199 42.7295 32.7049C41.4045 27.3499 35.3945 22.8799 28.1845 22.8799C20.9745 22.8799 14.9745 27.3499 13.6445 32.7049C13.6495 32.7249 13.6595 32.7399 13.6645 32.7599C14.9895 27.4449 20.9845 22.9999 28.1845 22.9999Z" fill="#6DC7EA"/>
<path d="M28.1841 23C20.9841 23 14.9891 27.445 13.6641 32.76C13.6691 32.78 13.6791 32.8 13.6841 32.82C15.0141 27.54 21.0091 23.13 28.1891 23.13C35.3691 23.13 41.3591 27.54 42.6891 32.82C42.6941 32.8 42.7041 32.78 42.7091 32.76C41.3841 27.445 35.3841 23 28.1841 23Z" fill="#74C9EA"/>
<path d="M28.1864 23.2549C35.3664 23.2549 41.3464 27.6449 42.6714 32.8899C42.6814 32.8649 42.6864 32.8449 42.6964 32.8199C41.3664 27.5399 35.3764 23.1299 28.1964 23.1299C21.0164 23.1299 15.0214 27.5399 13.6914 32.8199C13.7014 32.8399 13.7064 32.8649 13.7164 32.8849C15.0414 27.6399 21.0164 23.2499 28.1914 23.2499L28.1864 23.2549Z" fill="#7ACBEB"/>
<path d="M28.1859 23.2549C21.0109 23.2549 15.0309 27.6449 13.7109 32.8899C13.7159 32.9099 13.7259 32.9249 13.7309 32.9449C15.0559 27.7399 21.0259 23.3799 28.1909 23.3799C35.3559 23.3799 41.3309 27.7399 42.6559 32.9449C42.6609 32.9249 42.6659 32.9099 42.6759 32.8899C41.3509 27.6449 35.3709 23.2549 28.1909 23.2549H28.1859Z" fill="#81CDEC"/>
<path d="M28.1916 23.5049C35.3416 23.5049 41.3066 27.8299 42.6316 32.9999C42.6366 32.9799 42.6466 32.9599 42.6516 32.9449C41.3266 27.7349 35.3516 23.3799 28.1866 23.3799C21.0216 23.3799 15.0516 27.7399 13.7266 32.9449C13.7316 32.9649 13.7416 32.9849 13.7466 32.9999C15.0716 27.8299 21.0416 23.5049 28.1916 23.5049Z" fill="#87CFEC"/>
<path d="M28.1911 23.505C21.0411 23.505 15.0711 27.83 13.7461 33C13.7511 33.02 13.7611 33.04 13.7661 33.055C15.0911 27.925 21.0461 23.625 28.1861 23.625C35.3261 23.625 41.2861 27.93 42.6061 33.065C42.6161 33.04 42.6211 33.02 42.6311 32.995C41.3061 27.825 35.3461 23.5 28.1911 23.5V23.505Z" fill="#8ED1ED"/>
<path d="M28.1795 23.755C35.3195 23.755 41.2695 28.035 42.5845 33.135C42.5945 33.115 42.5995 33.09 42.6095 33.065C41.2895 27.93 35.3295 23.625 28.1895 23.625C21.0495 23.625 15.0945 27.925 13.7695 33.055C13.7795 33.075 13.7845 33.1 13.7895 33.12C15.1095 28.025 21.0445 23.755 28.1795 23.755Z" fill="#94D3EE"/>
<path d="M28.1791 23.7549C21.0441 23.7549 15.1091 28.0299 13.7891 33.1199C13.7941 33.1399 13.8041 33.1599 13.8091 33.1799C15.1291 28.1199 21.0691 23.8699 28.1841 23.8699C35.2991 23.8699 41.2491 28.1249 42.5641 33.1899C42.5691 33.1699 42.5741 33.1549 42.5841 33.1349C41.2691 28.0349 35.3191 23.7549 28.1791 23.7549Z" fill="#9AD5EF"/>
<path d="M28.1836 24.0001C35.2886 24.0001 41.2236 28.2201 42.5436 33.2451C42.5486 33.2251 42.5586 33.2101 42.5636 33.1901C41.2486 28.1251 35.3036 23.8701 28.1836 23.8701C21.0636 23.8701 15.1286 28.1201 13.8086 33.1801C13.8136 33.2001 13.8236 33.2151 13.8286 33.2351C15.1536 28.2151 21.0836 24.0001 28.1836 24.0001Z" fill="#A0D7F0"/>
<path d="M28.1851 24C21.0851 24 15.1551 28.215 13.8301 33.235C13.8351 33.255 13.8451 33.275 13.8551 33.295C15.1751 28.315 21.0851 24.13 28.1801 24.13C35.2751 24.13 41.2001 28.32 42.5201 33.305C42.5301 33.285 42.5351 33.265 42.5451 33.245C41.2251 28.22 35.2901 24 28.1851 24Z" fill="#A6D9F0"/>
<path d="M28.1855 24.2449C35.2655 24.2449 41.1755 28.4049 42.5005 33.3549C42.5055 33.3399 42.5155 33.3199 42.5205 33.3049C41.2005 28.3149 35.2805 24.1299 28.1805 24.1299C21.0805 24.1299 15.1755 28.3149 13.8555 33.2949C13.8605 33.3149 13.8705 33.3299 13.8755 33.3499C15.2055 28.4099 21.1105 24.2499 28.1855 24.2499V24.2449Z" fill="#ACDCF1"/>
<path d="M28.185 24.2451C21.11 24.2451 15.2 28.4051 13.875 33.3451C13.88 33.3601 13.89 33.3801 13.895 33.3951C15.225 28.4901 21.12 24.3651 28.185 24.3651C35.25 24.3651 41.155 28.4951 42.48 33.4051C42.485 33.3901 42.495 33.3701 42.5 33.3551C41.175 28.4051 35.265 24.2451 28.185 24.2451Z" fill="#B2DEF2"/>
<path d="M28.1845 24.4952C35.2395 24.4952 41.1245 28.5902 42.4595 33.4602C42.4645 33.4402 42.4745 33.4252 42.4795 33.4052C41.1545 28.4952 35.2545 24.3652 28.1845 24.3652C21.1145 24.3652 15.2245 28.4902 13.8945 33.3952C13.9045 33.4152 13.9095 33.4352 13.9195 33.4552C15.2495 28.5902 21.1345 24.4902 28.1845 24.4902V24.4952Z" fill="#B8E0F3"/>
<path d="M28.1849 24.4951C21.1299 24.4951 15.2449 28.5901 13.9199 33.4601C13.9249 33.4801 13.9349 33.4951 13.9399 33.5151C15.2749 28.6901 21.1499 24.6201 28.1849 24.6201C35.2199 24.6201 41.1049 28.6901 42.4349 33.5251C42.4449 33.5051 42.4499 33.4851 42.4599 33.4651C41.1299 28.5951 35.2399 24.5001 28.1849 24.5001V24.4951Z" fill="#BDE2F4"/>
<path d="M28.1864 24.7454C35.2114 24.7454 41.0814 28.7804 42.4164 33.5704C42.4214 33.5504 42.4314 33.5354 42.4364 33.5154C41.1064 28.6804 35.2314 24.6104 28.1864 24.6104C21.1414 24.6104 15.2714 28.6754 13.9414 33.5054C13.9464 33.5204 13.9564 33.5404 13.9614 33.5554C15.3014 28.7654 21.1664 24.7404 28.1864 24.7404V24.7454Z" fill="#C3E5F5"/>
<path d="M28.184 24.7451C21.164 24.7451 15.294 28.7751 13.959 33.5601C13.964 33.5751 13.974 33.5951 13.979 33.6101C15.319 28.8651 21.174 24.8651 28.184 24.8651C35.194 24.8651 41.054 28.8701 42.389 33.6201C42.394 33.6051 42.404 33.5851 42.409 33.5701C41.079 28.7751 35.209 24.7451 28.179 24.7451H28.184Z" fill="#C9E7F5"/>
<path d="M28.1905 24.9901C35.1855 24.9901 41.0305 28.9601 42.3705 33.6751C42.3755 33.6601 42.3855 33.6401 42.3905 33.6251C41.0555 28.8701 35.2005 24.8701 28.1855 24.8701C21.1705 24.8701 15.3205 28.8701 13.9805 33.6151C13.9905 33.6351 13.9955 33.6551 14.0055 33.6801C15.3455 28.9701 21.1955 24.9951 28.1905 24.9951V24.9901Z" fill="#CEE9F6"/>
<path d="M28.1889 24.9902C21.1939 24.9902 15.3439 28.9652 14.0039 33.6752C14.0089 33.6902 14.0189 33.7102 14.0239 33.7252C15.3689 29.0502 21.2039 25.1102 28.1839 25.1102C35.1639 25.1102 41.0089 29.0552 42.3439 33.7352C42.3539 33.7152 42.3589 33.6952 42.3689 33.6752C41.0289 28.9602 35.1839 24.9902 28.1889 24.9902Z" fill="#D4ECF7"/>
<path d="M28.1834 25.2352C35.1584 25.2352 40.9834 29.1502 42.3234 33.7902C42.3284 33.7752 42.3384 33.7552 42.3434 33.7402C41.0034 29.0602 35.1634 25.1152 28.1834 25.1152C21.2034 25.1152 15.3684 29.0552 14.0234 33.7302C14.0284 33.7452 14.0384 33.7652 14.0434 33.7802C15.3884 29.1502 21.2134 25.2352 28.1834 25.2352Z" fill="#DAEEF8"/>
<path d="M28.1849 25.2354C21.2149 25.2354 15.3899 29.1503 14.0449 33.7803C14.0549 33.8004 14.0599 33.8204 14.0699 33.8454C15.4149 29.2504 21.2399 25.3654 28.1899 25.3654C35.1399 25.3654 40.9599 29.2454 42.3049 33.8454C42.3099 33.8304 42.3199 33.8104 42.3249 33.7904C40.9849 29.1504 35.1549 25.2354 28.1849 25.2354Z" fill="#DFF1F9"/>
<path d="M28.1792 25.4802C35.1292 25.4802 40.9392 29.3402 42.2792 33.9102C42.2892 33.8902 42.2992 33.8652 42.3092 33.8452C40.9642 29.2452 35.1442 25.3652 28.1942 25.3652C21.2442 25.3652 15.4192 29.2502 14.0742 33.8452C14.0792 33.8602 14.0892 33.8802 14.0942 33.8952C15.4442 29.3352 21.2392 25.4802 28.1792 25.4802Z" fill="#E5F3FA"/>
<path d="M28.1807 25.4805C21.2407 25.4805 15.4407 29.3355 14.0957 33.8955C14.1007 33.9105 14.1107 33.9255 14.1157 33.9455C15.4707 29.4305 21.2557 25.6105 28.1807 25.6105C35.1057 25.6105 40.9107 29.4355 42.2557 33.9605C42.2607 33.9455 42.2707 33.9255 42.2807 33.9105C40.9407 29.3455 35.1307 25.4805 28.1807 25.4805Z" fill="#EBF6FB"/>
<path d="M28.1861 25.7305C35.1011 25.7305 40.8811 29.5255 42.2361 34.0055C42.2411 33.9905 42.2511 33.9705 42.2611 33.9555C40.9161 29.4305 35.1161 25.6055 28.1861 25.6055C21.2561 25.6055 15.4761 29.4255 14.1211 33.9405C14.1311 33.9605 14.1411 33.9805 14.1461 34.0005C15.5011 29.5255 21.2811 25.7305 28.1911 25.7305H28.1861Z" fill="#F1F8FD"/>
<path d="M28.1856 25.7305C21.2756 25.7305 15.4956 29.5205 14.1406 34.0005C14.1456 34.0155 14.1556 34.0355 14.1656 34.0505C15.5256 29.6105 21.2956 25.8555 28.1856 25.8555C35.0756 25.8555 40.8556 29.6155 42.2106 34.0555C42.2156 34.0405 42.2256 34.0255 42.2306 34.0055C40.8806 29.5205 35.0956 25.7305 28.1806 25.7305H28.1856Z" fill="#F7FBFE"/>
<path d="M44.2594 27.9403C44.2594 19.1053 37.0744 11.9453 28.1894 11.9453C19.3044 11.9453 12.1094 19.1003 12.1094 27.9403C12.1094 28.8153 12.1844 29.6753 12.3194 30.5103C12.3244 30.5553 12.3344 30.5953 12.3444 30.6353C12.3544 30.6803 12.3594 30.7303 12.3694 30.7753C12.3794 30.8153 12.3844 30.8603 12.3944 30.9003C12.4044 30.9453 12.4094 30.9953 12.4194 31.0403C12.4294 31.0803 12.4344 31.1253 12.4394 31.1653C12.4494 31.2053 12.4594 31.2453 12.4694 31.2903C12.4794 31.3253 12.4844 31.3603 12.4944 31.4003C12.5044 31.4353 12.5094 31.4753 12.5194 31.5103C12.5294 31.5503 12.5394 31.5903 12.5494 31.6353C12.5594 31.6703 12.5644 31.7103 12.5744 31.7453C12.5844 31.7903 12.5944 31.8353 12.6044 31.8753C12.6144 31.9103 12.6244 31.9503 12.6344 31.9853C12.6444 32.0253 12.6594 32.0603 12.6694 32.1003C12.6794 32.1353 12.6894 32.1653 12.6994 32.2003C12.7094 32.2353 12.7194 32.2653 12.7294 32.3003C12.7394 32.3403 12.7494 32.3753 12.7644 32.4153C12.7744 32.4503 12.7844 32.4803 12.7944 32.5153C12.8044 32.5553 12.8144 32.5903 12.8294 32.6303C12.8394 32.6603 12.8494 32.6953 12.8594 32.7253C12.8694 32.7603 12.8844 32.7903 12.8944 32.8253C12.9044 32.8553 12.9144 32.8853 12.9244 32.9153C12.9344 32.9453 12.9444 32.9753 12.9544 33.0053C12.9644 33.0403 12.9794 33.0753 12.9894 33.1153C12.9994 33.1453 13.0094 33.1803 13.0194 33.2103C13.0344 33.2453 13.0444 33.2803 13.0544 33.3203C13.0644 33.3503 13.0744 33.3853 13.0844 33.4153C13.0944 33.4503 13.1094 33.4803 13.1244 33.5153C13.1344 33.5453 13.1444 33.5703 13.1594 33.6003C13.1694 33.6303 13.1844 33.6653 13.1994 33.6953C13.2094 33.7253 13.2194 33.7503 13.2344 33.7803C13.2444 33.8053 13.2544 33.8353 13.2694 33.8603C13.2794 33.8803 13.2844 33.9003 13.2944 33.9203C13.2994 33.9353 13.3044 33.9503 13.3144 33.9653C13.3194 33.9803 13.3244 33.9953 13.3344 34.0153C13.3444 34.0353 13.3494 34.0553 13.3594 34.0753C13.3644 34.0903 13.3694 34.1053 13.3794 34.1203C13.3844 34.1353 13.3894 34.1503 13.3994 34.1703C13.4094 34.1903 13.4144 34.2053 13.4244 34.2253C13.4294 34.2403 13.4394 34.2553 13.4444 34.2653C13.4494 34.2803 13.4594 34.2953 13.4644 34.3103C13.4744 34.3303 13.4794 34.3453 13.4894 34.3653C13.4944 34.3803 13.5044 34.3953 13.5094 34.4053C13.5144 34.4203 13.5244 34.4353 13.5294 34.4503C13.5344 34.4653 13.5444 34.4803 13.5494 34.4953C13.5594 34.5153 13.5644 34.5303 13.5744 34.5503C13.5794 34.5653 13.5894 34.5803 13.5944 34.5953C13.5994 34.6103 13.6094 34.6253 13.6144 34.6403C13.6244 34.6553 13.6294 34.6753 13.6394 34.6953C13.6444 34.7103 13.6544 34.7253 13.6594 34.7403C13.6644 34.7553 13.6744 34.7703 13.6794 34.7853C13.6894 34.8003 13.6944 34.8203 13.7044 34.8403C13.7094 34.8553 13.7194 34.8703 13.7244 34.8853C13.7294 34.9003 13.7394 34.9103 13.7444 34.9253C13.7494 34.9403 13.7594 34.9503 13.7644 34.9653C13.7744 34.9803 13.7794 34.9953 13.7894 35.0153C13.7944 35.0303 13.8044 35.0403 13.8094 35.0553C13.8144 35.0703 13.8244 35.0803 13.8294 35.0953C13.8394 35.1103 13.8444 35.1303 13.8544 35.1453C13.8594 35.1603 13.8694 35.1703 13.8744 35.1853C13.8794 35.2003 13.8894 35.2103 13.8944 35.2253C13.9044 35.2403 13.9094 35.2603 13.9194 35.2753C13.9244 35.2903 13.9344 35.3003 13.9394 35.3153C14.4444 36.2853 15.0444 37.2003 15.7294 38.0403C15.7294 38.0403 15.7294 38.0403 15.7344 38.0453C15.7344 38.0453 15.7394 38.0553 15.7444 38.0603C15.7444 38.0603 15.7444 38.0603 15.7494 38.0653C15.7494 38.0653 15.7544 38.0753 15.7594 38.0803C15.7594 38.0803 15.7644 38.0853 15.7694 38.0903C15.7694 38.0903 15.7744 38.0953 15.7794 38.1003C15.7794 38.1003 15.7794 38.1003 15.7844 38.1053C15.7844 38.1053 15.7844 38.1103 15.7894 38.1153C15.7894 38.1153 15.7894 38.1203 15.7944 38.1253C15.7944 38.1253 15.7944 38.1303 15.7994 38.1353C15.7994 38.1353 15.7994 38.1403 15.8094 38.1453C15.8094 38.1453 15.8094 38.1453 15.8144 38.1503C15.8144 38.1503 15.8144 38.1503 15.8194 38.1553C15.8194 38.1553 15.8244 38.1603 15.8294 38.1653C15.8294 38.1653 15.8294 38.1653 15.8344 38.1703C15.8344 38.1703 15.8344 38.1753 15.8394 38.1803C15.8394 38.1803 15.8394 38.1803 15.8444 38.1853C15.8444 38.1853 15.8444 38.1853 15.8444 38.1903C15.8444 38.1903 15.8444 38.1953 15.8494 38.2003C15.8494 38.2003 15.8494 38.2003 15.8494 38.2053C15.8494 38.2053 15.8544 38.2103 15.8594 38.2153C15.8594 38.2153 15.8594 38.2153 15.8644 38.2203C15.8644 38.2203 15.8694 38.2253 15.8744 38.2303C15.8794 38.2403 15.8894 38.2453 15.8944 38.2553C15.8994 38.2603 15.9044 38.2703 15.9094 38.2753C15.9194 38.2853 15.9244 38.2953 15.9344 38.3053C15.9394 38.3153 15.9494 38.3203 15.9544 38.3303C15.9594 38.3353 15.9644 38.3403 15.9694 38.3503C15.9744 38.3603 15.9844 38.3653 15.9894 38.3753C15.9944 38.3803 16.0044 38.3903 16.0094 38.3953C16.0144 38.4003 16.0194 38.4103 16.0244 38.4153C16.0294 38.4203 16.0394 38.4303 16.0444 38.4353C16.0494 38.4453 16.0594 38.4503 16.0644 38.4603C16.0694 38.4653 16.0744 38.4753 16.0794 38.4803C16.0844 38.4903 16.0944 38.4953 16.0994 38.5053C16.1044 38.5103 16.1094 38.5203 16.1194 38.5253C16.1244 38.5303 16.1294 38.5403 16.1394 38.5453C16.1444 38.5503 16.1544 38.5603 16.1594 38.5653C16.1644 38.5753 16.1744 38.5803 16.1794 38.5903C16.1844 38.5953 16.1894 38.6053 16.1944 38.6103C16.1994 38.6153 16.2094 38.6253 16.2144 38.6353C16.2194 38.6403 16.2294 38.6503 16.2344 38.6603C16.2394 38.6653 16.2444 38.6753 16.2544 38.6803C16.2594 38.6853 16.2694 38.6953 16.2744 38.7053C16.2794 38.7153 16.2894 38.7203 16.2944 38.7303C16.2994 38.7353 16.3044 38.7403 16.3094 38.7453C16.3194 38.7553 16.3244 38.7603 16.3344 38.7703C16.3394 38.7803 16.3494 38.7853 16.3544 38.7903C16.3594 38.8003 16.3694 38.8053 16.3744 38.8103C16.3794 38.8203 16.3894 38.8253 16.3944 38.8303C16.3994 38.8353 16.4094 38.8453 16.4144 38.8503C16.4194 38.8553 16.4294 38.8653 16.4344 38.8703C16.4394 38.8753 16.4494 38.8853 16.4544 38.8903C16.4594 38.9003 16.4694 38.9053 16.4744 38.9153C19.4144 42.0203 23.5744 43.9603 28.1894 43.9603C32.8044 43.9603 36.9744 42.0103 39.9094 38.9003C39.9144 38.8953 39.9244 38.8853 39.9294 38.8803C39.9344 38.8703 39.9444 38.8653 39.9494 38.8553C39.9544 38.8503 39.9644 38.8403 39.9694 38.8353C39.9744 38.8253 39.9844 38.8203 39.9894 38.8153C39.9944 38.8053 40.0044 38.8003 40.0094 38.7953C40.0144 38.7853 40.0244 38.7803 40.0294 38.7753C40.0344 38.7703 40.0394 38.7653 40.0444 38.7553C40.0444 38.7553 40.0494 38.7503 40.0544 38.7453C40.0544 38.7453 40.0644 38.7353 40.0694 38.7303C40.0744 38.7203 40.0844 38.7153 40.0894 38.7053C40.0944 38.7003 40.0994 38.6953 40.1044 38.6853C40.1144 38.6753 40.1194 38.6653 40.1294 38.6603C40.1344 38.6553 40.1394 38.6453 40.1444 38.6403C40.1494 38.6353 40.1544 38.6253 40.1594 38.6203C40.1644 38.6153 40.1744 38.6053 40.1794 38.6003C40.1844 38.5903 40.1944 38.5853 40.1994 38.5753C40.2044 38.5703 40.2094 38.5603 40.2194 38.5553C40.2244 38.5503 40.2294 38.5403 40.2394 38.5353C40.2494 38.5253 40.2544 38.5153 40.2644 38.5103C40.2694 38.5053 40.2744 38.4953 40.2844 38.4903C40.2894 38.4853 40.2944 38.4753 40.3044 38.4703C40.3094 38.4653 40.3194 38.4553 40.3244 38.4503C40.3294 38.4403 40.3394 38.4353 40.3444 38.4253C40.3494 38.4203 40.3594 38.4103 40.3644 38.4053C40.3694 38.3953 40.3794 38.3903 40.3844 38.3803C40.3894 38.3753 40.3944 38.3703 40.3994 38.3603C40.4044 38.3553 40.4094 38.3453 40.4194 38.3403C40.4244 38.3303 40.4344 38.3253 40.4394 38.3153C40.4444 38.3103 40.4494 38.3003 40.4544 38.2953C40.4594 38.2903 40.4644 38.2803 40.4744 38.2753C40.4794 38.2653 40.4894 38.2603 40.4944 38.2503C40.4944 38.2503 40.4994 38.2453 40.5044 38.2403C40.5044 38.2403 40.5044 38.2403 40.5094 38.2353C40.5094 38.2353 40.5144 38.2303 40.5194 38.2253C40.5194 38.2253 40.5194 38.2253 40.5244 38.2203C40.5244 38.2203 40.5244 38.2203 40.5294 38.2153C40.5294 38.2153 40.5294 38.2153 40.5344 38.2103C40.5344 38.2103 40.5344 38.2053 40.5394 38.2003C40.5394 38.2003 40.5394 38.1953 40.5444 38.1903C40.5444 38.1903 40.5444 38.1903 40.5494 38.1853C40.5494 38.1853 40.5494 38.1803 40.5544 38.1753C40.5544 38.1753 40.5594 38.1703 40.5644 38.1653C40.5644 38.1653 40.5644 38.1603 40.5694 38.1553C40.5694 38.1553 40.5744 38.1453 40.5794 38.1453C40.5794 38.1453 40.5794 38.1403 40.5844 38.1353C40.5844 38.1353 40.5894 38.1303 40.5944 38.1253C40.5944 38.1253 40.5944 38.1253 40.5994 38.1203C40.5994 38.1203 40.6044 38.1153 40.6094 38.1103C40.6094 38.1103 40.6094 38.1053 40.6144 38.1003C40.6144 38.1003 40.6194 38.0903 40.6244 38.0903C40.6244 38.0903 40.6244 38.0903 40.6244 38.0853C40.6244 38.0853 40.6294 38.0753 40.6344 38.0753C40.6344 38.0753 40.6394 38.0703 40.6444 38.0653C40.6444 38.0653 40.6494 38.0603 40.6544 38.0553C40.6544 38.0553 40.6594 38.0503 40.6644 38.0453C40.6644 38.0453 40.6694 38.0403 40.6744 38.0353C40.6744 38.0353 40.6794 38.0303 40.6844 38.0253C40.6844 38.0253 40.6894 38.0203 40.6944 38.0153C40.6944 38.0153 40.6994 38.0103 40.7044 38.0053C40.7044 38.0053 40.7044 38.0053 40.7044 38.0003C41.3744 37.1753 41.9594 36.2803 42.4544 35.3303C42.4594 35.3153 42.4694 35.3053 42.4744 35.2903C42.4794 35.2753 42.4894 35.2653 42.4944 35.2503C42.4994 35.2353 42.5094 35.2253 42.5144 35.2103C42.5244 35.1903 42.5344 35.1703 42.5444 35.1503C42.5494 35.1353 42.5594 35.1253 42.5644 35.1103C42.5694 35.0953 42.5794 35.0853 42.5844 35.0703C42.5944 35.0553 42.5994 35.0403 42.6094 35.0203C42.6144 35.0053 42.6244 34.9953 42.6294 34.9803C42.6344 34.9653 42.6444 34.9553 42.6494 34.9403C42.6544 34.9253 42.6644 34.9153 42.6694 34.9003C42.6794 34.8853 42.6844 34.8653 42.6944 34.8453C42.6994 34.8303 42.7094 34.8153 42.7144 34.8003C42.7194 34.7853 42.7244 34.7703 42.7344 34.7603C42.7394 34.7453 42.7444 34.7303 42.7544 34.7203C42.7644 34.7003 42.7694 34.6853 42.7794 34.6653C42.7844 34.6503 42.7944 34.6353 42.7994 34.6203C42.8044 34.6053 42.8144 34.5903 42.8194 34.5803C42.8294 34.5603 42.8344 34.5453 42.8444 34.5253C42.8544 34.5053 42.8594 34.4903 42.8694 34.4703C42.8744 34.4553 42.8844 34.4403 42.8894 34.4253C42.8944 34.4103 42.9044 34.3953 42.9094 34.3853C42.9194 34.3653 42.9244 34.3503 42.9344 34.3303C42.9394 34.3153 42.9494 34.3003 42.9544 34.2853C42.9594 34.2703 42.9694 34.2553 42.9744 34.2403C42.9844 34.2203 42.9894 34.2053 42.9994 34.1853C43.0044 34.1703 43.0094 34.1553 43.0194 34.1403C43.0244 34.1253 43.0294 34.1103 43.0394 34.0953C43.0444 34.0803 43.0544 34.0603 43.0594 34.0453C43.0694 34.0253 43.0744 34.0053 43.0844 33.9853C43.0894 33.9703 43.0944 33.9553 43.1044 33.9353C43.1094 33.9203 43.1194 33.9053 43.1244 33.8853C43.1394 33.8503 43.1544 33.8153 43.1644 33.7803C43.1794 33.7503 43.1894 33.7153 43.2044 33.6853C43.2144 33.6553 43.2294 33.6203 43.2444 33.5903C43.2544 33.5603 43.2644 33.5353 43.2794 33.5053C43.2944 33.4703 43.3044 33.4403 43.3144 33.4053C43.3294 33.3653 43.3394 33.3253 43.3544 33.2853C43.3694 33.2503 43.3794 33.2153 43.3894 33.1753C43.3994 33.1453 43.4094 33.1103 43.4194 33.0803C43.4344 33.0403 43.4494 33.0003 43.4594 32.9603C43.4694 32.9253 43.4844 32.8903 43.4944 32.8553C43.5044 32.8203 43.5194 32.7903 43.5294 32.7553C43.5394 32.7203 43.5494 32.6853 43.5644 32.6453C43.5744 32.6053 43.5844 32.5703 43.5994 32.5303C43.6094 32.4953 43.6194 32.4553 43.6294 32.4203C43.6444 32.3753 43.6544 32.3353 43.6644 32.2903C43.6744 32.2503 43.6844 32.2153 43.6994 32.1753C43.7094 32.1403 43.7194 32.1103 43.7294 32.0753C43.7444 32.0253 43.7594 31.9753 43.7694 31.9253C43.7794 31.8903 43.7844 31.8503 43.7944 31.8103C43.8044 31.7703 43.8144 31.7303 43.8244 31.6853C43.8344 31.6453 43.8444 31.6053 43.8544 31.5603C43.8644 31.5153 43.8744 31.4703 43.8844 31.4253C43.8944 31.3903 43.8994 31.3503 43.9094 31.3153C43.9194 31.2703 43.9294 31.2253 43.9394 31.1753C43.9494 31.1353 43.9544 31.0903 43.9644 31.0453C43.9744 30.9903 43.9844 30.9403 43.9944 30.8853C44.0044 30.8353 44.0094 30.7903 44.0194 30.7403C44.0294 30.6953 44.0344 30.6453 44.0444 30.6003C44.0494 30.5603 44.0594 30.5203 44.0644 30.4803C44.0744 30.4253 44.0844 30.3653 44.0894 30.3103C44.0944 30.2653 44.0994 30.2203 44.1044 30.1803C44.2094 29.4453 44.2644 28.7003 44.2644 27.9353H44.2594V27.9403ZM43.4894 28.1503C43.4894 28.2003 43.4894 28.2453 43.4894 28.2953C43.4894 28.3653 43.4894 28.4353 43.4844 28.5003C43.4844 28.5553 43.4844 28.6053 43.4844 28.6603C43.4844 28.7153 43.4794 28.7653 43.4744 28.8203C43.4744 28.8703 43.4644 28.9203 43.4644 28.9703C43.4644 29.0253 43.4544 29.0803 43.4494 29.1353C43.4494 29.1803 43.4444 29.2303 43.4394 29.2753C43.4394 29.3303 43.4344 29.3853 43.4294 29.4403C43.4294 29.4853 43.4194 29.5303 43.4144 29.5703C43.4094 29.6203 43.3994 29.6703 43.3944 29.7203C43.3894 29.7653 43.3844 29.8153 43.3744 29.8603C43.3694 29.9053 43.3644 29.9553 43.3544 30.0003C43.3494 30.0403 43.3444 30.0853 43.3394 30.1253C43.3294 30.1803 43.3244 30.2353 43.3144 30.2903C43.3094 30.3253 43.2994 30.3653 43.2944 30.4003C43.2894 30.4403 43.2794 30.4853 43.2744 30.5253C43.2644 30.5703 43.2594 30.6153 43.2494 30.6603C43.2444 30.7003 43.2344 30.7403 43.2294 30.7803C43.2194 30.8253 43.2144 30.8703 43.2044 30.9103C43.1944 30.9503 43.1894 30.9953 43.1794 31.0353C43.1694 31.0753 43.1594 31.1153 43.1544 31.1503C43.1444 31.1903 43.1344 31.2303 43.1294 31.2703C43.1194 31.3153 43.1094 31.3553 43.0994 31.4003C43.0894 31.4353 43.0844 31.4703 43.0744 31.5003C43.0644 31.5403 43.0594 31.5753 43.0494 31.6153C43.0394 31.6553 43.0294 31.6953 43.0194 31.7403C43.0094 31.7753 42.9994 31.8103 42.9894 31.8453C42.9794 31.8753 42.9694 31.9053 42.9644 31.9353C42.9544 31.9703 42.9444 32.0053 42.9344 32.0353C42.9244 32.0703 42.9144 32.1103 42.9044 32.1453C42.8944 32.1853 42.8844 32.2253 42.8694 32.2603C42.8644 32.2803 42.8594 32.3003 42.8494 32.3253C42.8444 32.3453 42.8394 32.3703 42.8294 32.3903C42.8244 32.4153 42.8144 32.4353 42.8094 32.4603C42.8044 32.4803 42.7944 32.5003 42.7894 32.5203C42.7844 32.5403 42.7744 32.5553 42.7694 32.5753C42.7644 32.5953 42.7544 32.6103 42.7494 32.6303C42.7444 32.6553 42.7344 32.6753 42.7244 32.7003C42.7194 32.7203 42.7094 32.7403 42.7044 32.7553C42.6994 32.7753 42.6894 32.7953 42.6844 32.8153C42.6744 32.8403 42.6694 32.8603 42.6594 32.8853C42.6544 32.9053 42.6494 32.9203 42.6394 32.9403C42.6344 32.9603 42.6244 32.9803 42.6194 32.9953C42.6094 33.0203 42.6044 33.0403 42.5944 33.0653C42.5844 33.0853 42.5794 33.1103 42.5694 33.1353C42.5644 33.1553 42.5594 33.1703 42.5494 33.1903C42.5444 33.2103 42.5344 33.2253 42.5294 33.2453C42.5194 33.2653 42.5144 33.2853 42.5044 33.3053C42.4994 33.3203 42.4894 33.3403 42.4844 33.3553C42.4794 33.3703 42.4694 33.3903 42.4644 33.4053C42.4594 33.4253 42.4494 33.4403 42.4444 33.4603C42.4344 33.4803 42.4294 33.5003 42.4194 33.5203C42.4144 33.5403 42.4044 33.5553 42.3994 33.5753C42.3944 33.5903 42.3844 33.6103 42.3794 33.6253C42.3744 33.6403 42.3644 33.6603 42.3594 33.6753C42.3494 33.6953 42.3444 33.7153 42.3344 33.7353C42.3294 33.7503 42.3194 33.7703 42.3144 33.7853C42.3094 33.8053 42.2994 33.8203 42.2944 33.8403C42.2844 33.8603 42.2744 33.8853 42.2644 33.9053C42.2594 33.9203 42.2494 33.9403 42.2394 33.9553C42.2344 33.9703 42.2244 33.9903 42.2144 34.0053C42.2094 34.0203 42.1994 34.0353 42.1944 34.0553C41.6294 35.3403 40.8894 36.5353 40.0094 37.6053C40.0094 37.6053 40.0094 37.6053 40.0044 37.6103C40.0044 37.6103 39.9994 37.6203 39.9944 37.6203C39.9944 37.6203 39.9894 37.6253 39.9844 37.6303C39.9844 37.6303 39.9794 37.6353 39.9744 37.6403C39.9744 37.6403 39.9694 37.6453 39.9644 37.6503C39.9644 37.6503 39.9594 37.6553 39.9544 37.6603C39.9544 37.6603 39.9494 37.6653 39.9444 37.6703C39.9444 37.6703 39.9394 37.6753 39.9344 37.6803C39.9344 37.6803 39.9294 37.6853 39.9244 37.6903C39.9244 37.6903 39.9194 37.7003 39.9144 37.7003C39.9144 37.7003 39.9144 37.7053 39.9094 37.7103C39.9094 37.7103 39.9044 37.7153 39.8994 37.7203C39.8994 37.7203 39.8994 37.7203 39.8944 37.7253C39.8944 37.7253 39.8894 37.7303 39.8844 37.7353C39.8844 37.7353 39.8844 37.7403 39.8794 37.7453C39.8794 37.7453 39.8744 37.7553 39.8694 37.7553C39.8694 37.7553 39.8644 37.7603 39.8594 37.7653C39.8594 37.7653 39.8544 37.7703 39.8494 37.7753C39.8494 37.7753 39.8444 37.7803 39.8394 37.7853C39.8394 37.7853 39.8394 37.7853 39.8344 37.7903C39.8344 37.7903 39.8294 37.7953 39.8244 37.8003C39.8244 37.8003 39.8244 37.8053 39.8194 37.8103C39.8194 37.8103 39.8194 37.8103 39.8144 37.8153C39.8144 37.8153 39.8144 37.8153 39.8094 37.8203C39.8094 37.8203 39.8094 37.8203 39.8044 37.8253C39.8044 37.8253 39.8044 37.8303 39.7994 37.8353C39.7994 37.8353 39.7994 37.8353 39.7944 37.8403C39.7944 37.8403 39.7894 37.8453 39.7844 37.8503C39.7794 37.8603 39.7694 37.8653 39.7644 37.8753L39.7444 37.8953C39.7444 37.8953 39.7294 37.9103 39.7244 37.9153C39.7144 37.9253 39.7094 37.9353 39.6994 37.9403C39.6944 37.9453 39.6844 37.9553 39.6794 37.9603C39.6744 37.9653 39.6694 37.9753 39.6644 37.9803C39.6594 37.9903 39.6494 37.9953 39.6444 38.0053C39.6394 38.0153 39.6294 38.0203 39.6244 38.0303C39.6194 38.0403 39.6094 38.0453 39.6044 38.0553C39.5994 38.0653 39.5894 38.0703 39.5844 38.0803C39.5794 38.0853 39.5694 38.0953 39.5644 38.1003C39.5594 38.1053 39.5544 38.1153 39.5444 38.1203C39.5344 38.1303 39.5294 38.1403 39.5194 38.1503C39.5144 38.1553 39.5044 38.1653 39.4994 38.1703C39.4944 38.1753 39.4844 38.1853 39.4794 38.1903C39.4694 38.2003 39.4644 38.2053 39.4544 38.2153C39.4494 38.2253 39.4394 38.2303 39.4344 38.2403C39.4294 38.2453 39.4194 38.2553 39.4144 38.2603C39.4094 38.2653 39.3994 38.2753 39.3944 38.2803C39.3844 38.2903 39.3744 38.3003 39.3694 38.3103C39.3694 38.3103 39.3594 38.3203 39.3544 38.3253C39.3644 38.3303 39.3744 38.3353 39.3844 38.3403C39.3744 38.3403 39.3644 38.3303 39.3494 38.3303C39.3394 38.3403 39.3344 38.3453 39.3244 38.3553C39.3144 38.3653 39.3094 38.3703 39.2994 38.3803C39.2944 38.3853 39.2844 38.3953 39.2794 38.4003C39.2694 38.4103 39.2644 38.4153 39.2544 38.4253L39.2294 38.4503C39.2294 38.4503 39.2144 38.4653 39.2044 38.4753C39.1994 38.4803 39.1894 38.4903 39.1844 38.4953C39.1744 38.5053 39.1694 38.5103 39.1594 38.5203C39.1494 38.5303 39.1444 38.5353 39.1344 38.5453C38.6344 39.0553 38.0994 39.5303 37.5344 39.9653C37.5144 39.9803 37.4994 39.9953 37.4794 40.0103C37.2044 40.2203 36.9194 40.4203 36.6294 40.6153C36.6144 40.6253 36.5994 40.6353 36.5844 40.6453C36.3194 40.8203 36.0444 40.9853 35.7644 41.1453C35.7244 41.1703 35.6844 41.1903 35.6394 41.2153C35.3394 41.3803 35.0394 41.5403 34.7244 41.6853C34.7144 41.6853 34.7044 41.6953 34.6944 41.7003C34.3944 41.8403 34.0894 41.9703 33.7794 42.0903C33.7394 42.1053 33.6994 42.1253 33.6544 42.1403C32.9944 42.3903 32.3144 42.6003 31.6144 42.7603C31.5944 42.7603 31.5744 42.7703 31.5544 42.7753C30.4644 43.0203 29.3344 43.1553 28.1744 43.1553H28.1694C26.2194 43.1553 24.3544 42.7903 22.6394 42.1253C21.9594 41.8653 21.3044 41.5553 20.6744 41.2053C20.6594 41.1953 20.6444 41.1853 20.6244 41.1753C20.3244 41.0053 20.0294 40.8253 19.7394 40.6353C19.7344 40.6353 19.7244 40.6253 19.7194 40.6203C19.4294 40.4303 19.1494 40.2303 18.8744 40.0203C18.8444 39.9953 18.8144 39.9753 18.7844 39.9503C18.5394 39.7603 18.3044 39.5653 18.0744 39.3653C18.0394 39.3353 18.0094 39.3103 17.9744 39.2803C17.7294 39.0603 17.4894 38.8353 17.2594 38.6003C17.2494 38.5903 17.2394 38.5803 17.2244 38.5703C17.2144 38.5603 17.2094 38.5553 17.1994 38.5453C17.1894 38.5353 17.1844 38.5303 17.1794 38.5203C17.1744 38.5153 17.1644 38.5053 17.1594 38.4953C17.1544 38.4903 17.1494 38.4853 17.1444 38.4803C17.1444 38.4803 17.1394 38.4753 17.1344 38.4703C17.1244 38.4603 17.1194 38.4553 17.1094 38.4453C17.0994 38.4353 17.0944 38.4303 17.0844 38.4203C17.0744 38.4103 17.0694 38.4053 17.0594 38.3953C17.0494 38.3853 17.0444 38.3803 17.0344 38.3703C17.0294 38.3653 17.0244 38.3603 17.0144 38.3503C17.0044 38.3403 16.9994 38.3353 16.9894 38.3253C16.9794 38.3153 16.9744 38.3103 16.9644 38.3003C16.9594 38.2953 16.9494 38.2853 16.9444 38.2803C16.9344 38.2703 16.9294 38.2653 16.9194 38.2553C16.9094 38.2453 16.9044 38.2403 16.8944 38.2303C16.8894 38.2253 16.8794 38.2153 16.8744 38.2103C16.8644 38.2003 16.8594 38.1953 16.8494 38.1853C16.8444 38.1753 16.8344 38.1703 16.8244 38.1603C16.8194 38.1553 16.8094 38.1453 16.8044 38.1403C16.7994 38.1353 16.7894 38.1253 16.7844 38.1203C16.7794 38.1103 16.7694 38.1053 16.7644 38.0953C16.7594 38.0903 16.7494 38.0803 16.7444 38.0753C16.7394 38.0653 16.7294 38.0603 16.7244 38.0503C16.7194 38.0403 16.7094 38.0353 16.7044 38.0253C16.6994 38.0203 16.6944 38.0103 16.6844 38.0053C16.6794 37.9953 16.6694 37.9903 16.6644 37.9803C16.6594 37.9703 16.6494 37.9653 16.6444 37.9553C16.6394 37.9503 16.6344 37.9403 16.6294 37.9353C16.6244 37.9253 16.6144 37.9203 16.6094 37.9103C16.5994 37.9003 16.5944 37.8903 16.5844 37.8803C16.5794 37.8753 16.5744 37.8653 16.5694 37.8603C16.5644 37.8503 16.5544 37.8453 16.5494 37.8353C16.5494 37.8353 16.5444 37.8303 16.5394 37.8253C16.5394 37.8253 16.5394 37.8253 16.5344 37.8203C16.5344 37.8203 16.5294 37.8153 16.5294 37.8103C16.5294 37.8103 16.5294 37.8103 16.5244 37.8053C16.5244 37.8053 16.5194 37.8003 16.5144 37.7953C16.5144 37.7953 16.5144 37.7953 16.5094 37.7903C16.5094 37.7903 16.5094 37.7903 16.5044 37.7853C16.5044 37.7853 16.4994 37.7803 16.4944 37.7753C16.4944 37.7753 16.4944 37.7753 16.4894 37.7703C16.4894 37.7703 16.4894 37.7653 16.4794 37.7603C16.4794 37.7603 16.4794 37.7603 16.4744 37.7553C16.4744 37.7553 16.4744 37.7503 16.4694 37.7453C16.4694 37.7453 16.4644 37.7403 16.4594 37.7353C16.4594 37.7353 16.4594 37.7303 16.4544 37.7253C16.4544 37.7253 16.4544 37.7203 16.4494 37.7153C16.4494 37.7153 16.4494 37.7103 16.4444 37.7053C16.4444 37.7053 16.4444 37.7053 16.4394 37.7003C16.4394 37.7003 16.4344 37.6953 16.4294 37.6903C16.4294 37.6903 16.4244 37.6853 16.4194 37.6803C16.4194 37.6803 16.4144 37.6703 16.4094 37.6703C16.4094 37.6703 16.4094 37.6703 16.4044 37.6653C16.4044 37.6653 16.3994 37.6553 16.3944 37.6553C16.3944 37.6553 16.3944 37.6553 16.3894 37.6503C16.2094 37.4353 16.0394 37.2153 15.8744 36.9953C15.8344 36.9403 15.7994 36.8853 15.7594 36.8353C15.6094 36.6253 15.4594 36.4103 15.3194 36.1903C15.2694 36.1153 15.2244 36.0403 15.1744 35.9703C15.0094 35.7103 14.8544 35.4403 14.7044 35.1703C14.6694 35.1053 14.6394 35.0403 14.6044 34.9753C14.4894 34.7553 14.3794 34.5253 14.2744 34.3003C14.2494 34.2453 14.2194 34.1953 14.1994 34.1453C14.1994 34.1453 14.1994 34.1453 14.2044 34.1453C14.1944 34.1203 14.1794 34.0903 14.1694 34.0653C14.1644 34.0503 14.1544 34.0303 14.1444 34.0153C14.1344 33.9953 14.1244 33.9753 14.1194 33.9553C14.1144 33.9403 14.1044 33.9253 14.0994 33.9053C14.0944 33.8903 14.0844 33.8703 14.0794 33.8553C14.0694 33.8353 14.0644 33.8153 14.0544 33.7903C14.0494 33.7753 14.0394 33.7553 14.0344 33.7403C14.0294 33.7253 14.0194 33.7053 14.0144 33.6903C14.0044 33.6703 13.9994 33.6503 13.9894 33.6253C13.9844 33.6103 13.9744 33.5903 13.9694 33.5753C13.9644 33.5603 13.9544 33.5403 13.9494 33.5253C13.9444 33.5053 13.9344 33.4903 13.9294 33.4703C13.9194 33.4503 13.9144 33.4303 13.9044 33.4103C13.8994 33.3953 13.8894 33.3753 13.8844 33.3603C13.8794 33.3403 13.8694 33.3253 13.8644 33.3053C13.8544 33.2853 13.8494 33.2653 13.8394 33.2453C13.8344 33.2253 13.8244 33.2103 13.8194 33.1903C13.8144 33.1703 13.8044 33.1503 13.7994 33.1303C13.7894 33.1103 13.7844 33.0853 13.7794 33.0653C13.7744 33.0453 13.7644 33.0253 13.7594 33.0103C13.7544 32.9903 13.7444 32.9703 13.7394 32.9553C13.7344 32.9353 13.7244 32.9203 13.7194 32.9003C13.7094 32.8803 13.7044 32.8553 13.6944 32.8353C13.6894 32.8153 13.6794 32.7953 13.6744 32.7753C13.6694 32.7553 13.6594 32.7403 13.6544 32.7203C13.6444 32.6953 13.6394 32.6753 13.6294 32.6503C13.6244 32.6303 13.6144 32.6103 13.6094 32.5903C13.6044 32.5703 13.5944 32.5553 13.5894 32.5353C13.5844 32.5103 13.5744 32.4903 13.5644 32.4653C13.5594 32.4453 13.5544 32.4253 13.5444 32.4003C13.5394 32.3803 13.5344 32.3603 13.5244 32.3403C13.5144 32.3153 13.5094 32.2903 13.5044 32.2653C13.4944 32.2353 13.4844 32.2003 13.4794 32.1703C13.4694 32.1403 13.4594 32.1053 13.4494 32.0753C13.4394 32.0403 13.4294 32.0053 13.4194 31.9703C13.4094 31.9403 13.3994 31.9103 13.3944 31.8803C13.3844 31.8453 13.3744 31.8103 13.3644 31.7803C13.3544 31.7453 13.3494 31.7153 13.3394 31.6803C13.3294 31.6403 13.3244 31.6053 13.3144 31.5653C13.3044 31.5303 13.2994 31.4953 13.2894 31.4603C13.2794 31.4203 13.2694 31.3853 13.2644 31.3453C13.2544 31.3103 13.2494 31.2803 13.2394 31.2453C13.2294 31.2103 13.2244 31.1753 13.2144 31.1403C13.2044 31.1003 13.1944 31.0653 13.1894 31.0253C13.1794 30.9853 13.1744 30.9503 13.1694 30.9103C13.1594 30.8653 13.1544 30.8253 13.1444 30.7803C13.1394 30.7403 13.1294 30.7053 13.1244 30.6653C13.1194 30.6253 13.1094 30.5803 13.1044 30.5403C13.0994 30.5053 13.0894 30.4653 13.0844 30.4303C13.0794 30.3953 13.0694 30.3553 13.0644 30.3203C13.0594 30.2753 13.0494 30.2303 13.0444 30.1853C13.0394 30.1453 13.0344 30.1003 13.0294 30.0603C13.0244 30.0153 13.0194 29.9703 13.0094 29.9253C13.0044 29.8853 12.9994 29.8403 12.9944 29.8003C12.9894 29.7503 12.9794 29.7053 12.9744 29.6603C12.9744 29.6153 12.9644 29.5753 12.9594 29.5303C12.9594 29.4803 12.9544 29.4353 12.9494 29.3853C12.9494 29.3353 12.9444 29.2853 12.9394 29.2353C12.9394 29.1903 12.9344 29.1453 12.9294 29.1003C12.9294 29.0503 12.9194 29.0003 12.9194 28.9503C12.9194 28.9053 12.9094 28.8553 12.9094 28.8103C12.9094 28.7553 12.9094 28.7053 12.9044 28.6503C12.9044 28.6003 12.9044 28.5453 12.9044 28.4903C12.8994 28.3153 12.8894 28.1353 12.8894 27.9603C12.8894 19.5453 19.7394 12.7153 28.1944 12.7153C36.6494 12.7153 43.5044 19.5403 43.5044 27.9603C43.5044 28.0303 43.5044 28.1003 43.4994 28.1703L43.4894 28.1503Z" fill="white"/>
<path d="M28.1841 31.7855H28.1891C33.3841 31.7855 38.1991 32.6555 42.1741 34.1355C41.6091 35.3905 40.8791 36.5555 40.0141 37.6005C40.0141 37.6005 40.0191 37.6005 40.0241 37.6055C40.9091 36.5355 41.6441 35.3405 42.2091 34.0555C40.8541 29.6105 35.0791 25.8555 28.1841 25.8555C21.2891 25.8555 15.5241 29.6105 14.1641 34.0505C14.1741 34.0755 14.1891 34.1055 14.1991 34.1305C18.1841 32.6505 22.9941 31.7805 28.1841 31.7805V31.7855Z" fill="white"/>
<path d="M42.1753 34.1352C38.2003 32.6552 33.3853 31.7852 28.1903 31.7852H28.1853C22.9953 31.7852 18.1853 32.6552 14.2003 34.1352C14.2003 34.1352 14.2003 34.1352 14.1953 34.1352C14.2203 34.1902 14.2503 34.2402 14.2703 34.2902C14.3753 34.5202 14.4853 34.7452 14.6003 34.9652C14.6353 35.0302 14.6653 35.0952 14.7003 35.1602C14.8503 35.4302 15.0053 35.7002 15.1703 35.9602C15.2153 36.0352 15.2653 36.1102 15.3153 36.1802C15.4553 36.4002 15.6053 36.6152 15.7553 36.8252C15.7953 36.8802 15.8303 36.9352 15.8703 36.9852C16.0353 37.2102 16.2053 37.4302 16.3853 37.6402C16.3853 37.6402 16.3853 37.6402 16.3903 37.6452C16.3903 37.6452 16.3953 37.6552 16.4003 37.6552C16.4003 37.6552 16.4003 37.6552 16.4053 37.6602C16.4053 37.6602 16.4103 37.6702 16.4153 37.6702C16.4153 37.6702 16.4203 37.6752 16.4253 37.6802C16.4253 37.6802 16.4303 37.6852 16.4353 37.6902C16.4353 37.6902 16.4353 37.6902 16.4403 37.6952C16.4403 37.6952 16.4403 37.7002 16.4453 37.7052C16.4453 37.7052 16.4453 37.7102 16.4503 37.7152C16.4503 37.7152 16.4503 37.7202 16.4553 37.7252C16.4553 37.7252 16.4603 37.7302 16.4653 37.7352C16.4653 37.7352 16.4653 37.7402 16.4703 37.7452C16.4703 37.7452 16.4703 37.7452 16.4753 37.7502C16.4753 37.7502 16.4753 37.7552 16.4853 37.7602C16.4853 37.7602 16.4853 37.7602 16.4903 37.7652C16.4903 37.7652 16.4953 37.7702 16.5003 37.7752C16.5003 37.7752 16.5003 37.7752 16.5053 37.7802C16.5053 37.7802 16.5053 37.7802 16.5103 37.7852C16.5103 37.7852 16.5153 37.7902 16.5203 37.7952C16.5203 37.7952 16.5203 37.7952 16.5253 37.8002C16.5253 37.8002 16.5303 37.8052 16.5303 37.8102C16.5303 37.8102 16.5303 37.8102 16.5353 37.8152C16.5353 37.8152 16.5403 37.8202 16.5453 37.8252C16.5503 37.8352 16.5603 37.8402 16.5653 37.8502C16.5703 37.8552 16.5753 37.8652 16.5803 37.8702C16.5903 37.8802 16.5953 37.8902 16.6053 37.9002C16.6103 37.9102 16.6203 37.9152 16.6253 37.9252C16.6303 37.9302 16.6353 37.9402 16.6403 37.9452C16.6453 37.9552 16.6553 37.9602 16.6603 37.9702C16.6653 37.9802 16.6753 37.9852 16.6803 37.9952C16.6853 38.0002 16.6903 38.0102 16.7003 38.0152C16.7053 38.0252 16.7153 38.0302 16.7203 38.0402C16.7253 38.0502 16.7353 38.0552 16.7403 38.0652C16.7453 38.0702 16.7553 38.0802 16.7603 38.0852C16.7653 38.0952 16.7753 38.1002 16.7803 38.1102C16.7853 38.1152 16.7953 38.1252 16.8003 38.1302C16.8053 38.1352 16.8153 38.1452 16.8203 38.1502C16.8253 38.1602 16.8353 38.1652 16.8453 38.1752C16.8553 38.1852 16.8603 38.1902 16.8703 38.2002C16.8753 38.2052 16.8853 38.2152 16.8903 38.2202C16.9003 38.2302 16.9053 38.2352 16.9153 38.2452C16.9253 38.2552 16.9303 38.2602 16.9403 38.2702C16.9453 38.2752 16.9553 38.2852 16.9603 38.2902C16.9703 38.3002 16.9753 38.3052 16.9853 38.3152C16.9953 38.3252 17.0003 38.3302 17.0103 38.3402C17.0153 38.3452 17.0203 38.3502 17.0303 38.3602C17.0403 38.3702 17.0453 38.3752 17.0553 38.3852C17.0653 38.3952 17.0703 38.4002 17.0803 38.4102C17.0903 38.4202 17.0953 38.4252 17.1053 38.4352C17.1153 38.4452 17.1203 38.4502 17.1303 38.4602C17.1303 38.4602 17.1353 38.4652 17.1403 38.4702C17.1453 38.4752 17.1503 38.4802 17.1553 38.4852C17.1603 38.4902 17.1703 38.5002 17.1753 38.5102C17.1853 38.5202 17.1903 38.5252 17.1953 38.5352C17.2053 38.5452 17.2103 38.5502 17.2203 38.5602C17.2303 38.5702 17.2403 38.5802 17.2553 38.5902C17.4853 38.8252 17.7253 39.0502 17.9703 39.2702C18.0003 39.3002 18.0353 39.3252 18.0703 39.3552C18.3003 39.5552 18.5403 39.7552 18.7803 39.9402C18.8103 39.9652 18.8403 39.9852 18.8703 40.0102C19.1453 40.2202 19.4253 40.4202 19.7153 40.6102C19.7203 40.6102 19.7303 40.6202 19.7353 40.6252C20.0253 40.8152 20.3203 40.9952 20.6203 41.1652C20.6353 41.1752 20.6503 41.1852 20.6703 41.1952C21.3003 41.5452 21.9553 41.8552 22.6353 42.1152C24.3503 42.7752 26.2153 43.1452 28.1653 43.1452C29.3253 43.1452 30.4603 43.0102 31.5453 42.7652C31.5653 42.7652 31.5853 42.7552 31.6053 42.7502C32.3053 42.5902 32.9853 42.3852 33.6453 42.1302C33.6853 42.1152 33.7253 42.1002 33.7703 42.0802C34.0803 41.9602 34.3853 41.8302 34.6853 41.6902C34.6953 41.6902 34.7053 41.6802 34.7153 41.6752C35.0253 41.5302 35.3303 41.3702 35.6303 41.2052C35.6703 41.1802 35.7103 41.1602 35.7553 41.1352C36.0353 40.9752 36.3053 40.8102 36.5753 40.6352C36.5903 40.6252 36.6053 40.6152 36.6203 40.6052C36.9103 40.4152 37.1953 40.2102 37.4703 40.0002C37.4903 39.9852 37.5103 39.9702 37.5253 39.9552C38.0903 39.5202 38.6253 39.0452 39.1253 38.5352C39.1353 38.5252 39.1403 38.5202 39.1503 38.5102C39.1603 38.5002 39.1653 38.4952 39.1753 38.4852C39.1803 38.4802 39.1903 38.4702 39.1953 38.4652C39.2053 38.4552 39.2103 38.4502 39.2203 38.4402L39.2453 38.4152C39.2453 38.4152 39.2603 38.4002 39.2703 38.3902C39.2753 38.3852 39.2853 38.3752 39.2903 38.3702C39.3003 38.3602 39.3053 38.3552 39.3153 38.3452C39.3253 38.3352 39.3303 38.3302 39.3403 38.3202C39.3503 38.3202 39.3603 38.3302 39.3753 38.3302C39.3653 38.3252 39.3553 38.3202 39.3453 38.3152C39.3453 38.3152 39.3553 38.3052 39.3603 38.3002C39.3703 38.2902 39.3803 38.2802 39.3853 38.2702C39.3903 38.2652 39.4003 38.2552 39.4053 38.2502C39.4103 38.2452 39.4203 38.2352 39.4253 38.2302C39.4303 38.2202 39.4403 38.2152 39.4453 38.2052C39.4553 38.1952 39.4603 38.1902 39.4703 38.1802C39.4753 38.1752 39.4853 38.1652 39.4903 38.1602C39.4953 38.1552 39.5053 38.1452 39.5103 38.1402C39.5203 38.1302 39.5253 38.1202 39.5353 38.1102C39.5403 38.1052 39.5453 38.0952 39.5553 38.0902C39.5603 38.0852 39.5703 38.0752 39.5753 38.0702C39.5803 38.0602 39.5903 38.0552 39.5953 38.0452C39.6003 38.0352 39.6103 38.0302 39.6153 38.0202C39.6203 38.0102 39.6303 38.0052 39.6353 37.9952C39.6403 37.9852 39.6503 37.9802 39.6553 37.9702C39.6603 37.9652 39.6653 37.9552 39.6703 37.9502C39.6753 37.9452 39.6853 37.9352 39.6903 37.9302C39.7003 37.9202 39.7053 37.9102 39.7153 37.9052C39.7203 37.9002 39.7303 37.8902 39.7353 37.8852L39.7553 37.8652C39.7553 37.8652 39.7703 37.8502 39.7753 37.8402C39.7753 37.8402 39.7803 37.8352 39.7853 37.8302C39.7853 37.8302 39.7853 37.8302 39.7903 37.8252C39.7903 37.8252 39.7903 37.8202 39.7953 37.8152C39.7953 37.8152 39.7953 37.8152 39.8003 37.8102C39.8003 37.8102 39.8003 37.8102 39.8053 37.8052C39.8053 37.8052 39.8053 37.8052 39.8103 37.8002C39.8103 37.8002 39.8103 37.7952 39.8153 37.7902C39.8153 37.7902 39.8203 37.7852 39.8253 37.7802C39.8253 37.7802 39.8253 37.7802 39.8303 37.7752C39.8303 37.7752 39.8353 37.7702 39.8403 37.7652C39.8403 37.7652 39.8453 37.7602 39.8503 37.7552C39.8503 37.7552 39.8553 37.7502 39.8603 37.7452C39.8603 37.7452 39.8653 37.7352 39.8703 37.7352C39.8703 37.7352 39.8703 37.7302 39.8753 37.7252C39.8753 37.7252 39.8803 37.7202 39.8853 37.7152C39.8853 37.7152 39.8853 37.7152 39.8903 37.7102C39.8903 37.7102 39.8953 37.7052 39.9003 37.7002C39.9003 37.7002 39.9003 37.6952 39.9053 37.6902C39.9053 37.6902 39.9103 37.6802 39.9153 37.6802C39.9153 37.6802 39.9203 37.6752 39.9253 37.6702C39.9253 37.6702 39.9303 37.6652 39.9353 37.6602C39.9353 37.6602 39.9403 37.6552 39.9453 37.6502C39.9453 37.6502 39.9503 37.6452 39.9553 37.6402C39.9553 37.6402 39.9603 37.6352 39.9653 37.6302C39.9653 37.6302 39.9703 37.6252 39.9753 37.6202C39.9753 37.6202 39.9803 37.6152 39.9853 37.6102C39.9853 37.6102 39.9903 37.6002 39.9953 37.6002C39.9953 37.6002 39.9953 37.6002 40.0003 37.5952C40.0003 37.5952 39.9953 37.5952 39.9903 37.5902C40.8553 36.5402 41.5853 35.3802 42.1503 34.1252L42.1753 34.1352Z" fill="#0367B3"/>
</g>
<defs>
<clipPath id="clip0_9412_78135">
<rect width="56" height="56" fill="white"/>
</clipPath>
</defs>
</svg>
