<svg width="56" height="56" viewBox="0 0 56 56" fill="none" xmlns="http://www.w3.org/2000/svg">
<g clip-path="url(#clip0_9412_77434)">
<path d="M0 28C0 29.6486 0 29.8317 0.0392798 31.2317C0.144026 34.3327 0.471358 37.8916 1.71522 41.6467C2.59247 44.3028 4.24223 47.1682 5.892 48.9738C7.9869 51.2764 10.8805 53.1604 14.0098 54.2334C17.2046 55.3324 20.6612 55.8689 27.378 55.9999H28.622C35.3519 55.8559 38.7954 55.3324 41.9902 54.2334C45.1194 53.1604 48 51.2764 50.108 48.9738C51.758 47.1551 53.4075 44.3028 54.285 41.6467C55.5285 37.8916 55.869 34.3196 55.9605 31.2317C56 29.8448 56 29.6486 56 28C56 26.3514 56 26.1551 55.9605 24.7682C55.856 21.6673 55.5285 18.1084 54.285 14.3532C53.4075 11.6972 51.758 8.83175 50.108 7.02615C48.0131 4.72337 45.1194 2.83925 41.9902 1.76635C38.7954 0.667288 35.3388 0.130841 28.622 0H27.378C20.6481 0.143925 17.2046 0.667288 14.0098 1.76635C10.8805 2.83925 8 4.72337 5.892 7.02615C4.24223 8.84485 2.59247 11.6972 1.71522 14.3532C0.484452 18.1084 0.144026 21.6673 0.0392798 24.7682C0 26.1551 0 26.3514 0 28Z" fill="#A30236"/>
<path d="M44 28.2179C44 19.3807 36.8372 12.2168 27.9989 12.2168C19.1628 12.2168 12 19.3807 12 28.2179C12 37.0518 19.1628 44.219 27.9989 44.219C36.8372 44.219 44 37.0518 44 28.2179ZM26.1567 21.6883H24.1793C22.0722 21.6883 20.364 23.3943 20.364 25.5047V30.931C20.364 33.0403 22.0722 34.7463 24.1793 34.7463H26.1567V40.6381C20.0938 39.7432 15.4446 34.525 15.4446 28.2179C15.4446 21.9108 20.0938 16.6915 26.1567 15.7966V21.6883ZM31.813 25.1385C32.0212 25.1385 32.1847 25.3063 32.1847 25.508V30.9267C32.1847 31.1284 32.0212 31.2952 31.813 31.2952H24.1847C23.9787 31.2952 23.8163 31.1284 23.8163 30.9267V25.508C23.8163 25.3063 23.9787 25.1385 24.1847 25.1385H31.813ZM40.5532 28.2179C40.5532 34.525 35.904 39.7432 29.8465 40.6381V34.7463H31.8195C33.9256 34.7463 35.637 33.0403 35.637 30.931V25.5047C35.637 23.3943 33.9256 21.6883 31.8195 21.6883H29.8465V15.7966C35.904 16.6915 40.5532 21.9108 40.5532 28.2179Z" fill="white"/>
</g>
<defs>
<clipPath id="clip0_9412_77434">
<rect width="56" height="56" fill="white"/>
</clipPath>
</defs>
</svg>
