<svg width="56" height="56" viewBox="0 0 56 56" fill="none" xmlns="http://www.w3.org/2000/svg">
<g clip-path="url(#clip0_9412_77428)">
<path fill-rule="evenodd" clip-rule="evenodd" d="M6.44727 6.449L13.9969 14.0012L27.9981 0H27.385C20.6535 0.143925 17.2091 0.66729 14.0136 1.76636C11.1493 2.74817 8.49337 4.40932 6.44727 6.449Z" fill="#008CCF"/>
<path fill-rule="evenodd" clip-rule="evenodd" d="M0 27.9978L13.9963 14.0015L6.44675 6.44922C6.2569 6.63847 6.07235 6.83092 5.89335 7.02642C4.24322 8.84512 2.59308 11.6975 1.71562 14.3535C0.484565 18.1087 0.14406 21.6676 0.039289 24.7685C1.93119e-05 26.1547 0 26.3515 0 27.9978Z" fill="#0098D7"/>
<path fill-rule="evenodd" clip-rule="evenodd" d="M5.4276e-05 28.5H28.5L14.005 14L0 28.0001C0 28.1837 1.70076e-08 28.3491 5.4276e-05 28.5Z" fill="#008CCF"/>
<path fill-rule="evenodd" clip-rule="evenodd" d="M28.0022 0L14.0059 13.9964L28.0022 27.9975V0Z" fill="#007AC6"/>
<path fill-rule="evenodd" clip-rule="evenodd" d="M28.002 0V27.9975L41.9935 14.0012L28.002 0Z" fill="#0067B6"/>
<path fill-rule="evenodd" clip-rule="evenodd" d="M55.9995 27.9973L42.0032 13.9961L28.002 27.9973H55.9995Z" fill="#004294"/>
<path fill-rule="evenodd" clip-rule="evenodd" d="M0 27.9971L13.9964 42.0032L27.9975 27.9971H0Z" fill="#007AC6"/>
<path fill-rule="evenodd" clip-rule="evenodd" d="M0.039289 31.2313C0 29.8313 0 29.6481 0 27.9995V27.9971L13.9963 42.0032L6.44515 49.5517C6.25565 49.3621 6.0716 49.1693 5.89335 48.9734C4.24322 47.1677 2.59308 44.3023 1.71562 41.6462C0.471469 37.8911 0.14406 34.3322 0.039289 31.2313Z" fill="#0067B6"/>
<path fill-rule="evenodd" clip-rule="evenodd" d="M27.1441 55.9952H28.0026L14.0063 41.9941L6.44531 49.5524C8.48311 51.5917 11.1495 53.2522 14.0133 54.2337C17.1704 55.3197 20.5833 55.8562 27.1441 55.9952Z" fill="#0054A7"/>
<path fill-rule="evenodd" clip-rule="evenodd" d="M28.0022 27.9971V55.9945L14.0059 41.9934L28.0022 27.9971Z" fill="#004898"/>
<path fill-rule="evenodd" clip-rule="evenodd" d="M41.9935 42.0032L28.002 27.9971H55.9945L41.9935 42.0032Z" fill="#092C86"/>
<path fill-rule="evenodd" clip-rule="evenodd" d="M28.002 55.9945V27.9971L41.9935 42.0032L28.002 55.9945Z" fill="#004294"/>
<path fill-rule="evenodd" clip-rule="evenodd" d="M49.5568 49.5503L42.0032 41.9941L28.002 55.9952H28.8491C35.4354 55.8447 38.8392 55.3207 41.9995 54.2337C44.8643 53.2517 47.5206 51.5902 49.5568 49.5503Z" fill="#092C86"/>
<path fill-rule="evenodd" clip-rule="evenodd" d="M56.0003 27.9971L42.0039 41.9934L49.5575 49.5496C49.7461 49.3607 49.9293 49.1685 50.1068 48.9733C51.7573 47.1546 53.4073 44.3023 54.2848 41.6462C55.5288 37.8911 55.8693 34.3191 55.9608 31.2313C56.0003 29.8444 56.0003 29.6481 56.0003 27.9997C56.0003 27.999 56.0003 27.9978 56.0003 27.9971Z" fill="#092C86"/>
<path fill-rule="evenodd" clip-rule="evenodd" d="M28.002 0L41.9935 14.0012L49.5506 6.44405C47.5134 4.40663 44.8495 2.74738 41.9995 1.76636C38.804 0.66729 35.3466 0.130841 28.6282 0H28.002Z" fill="#0054A7"/>
<path fill-rule="evenodd" clip-rule="evenodd" d="M49.5538 6.44629L42.0039 13.9962L56.0003 27.9974C56.0003 26.351 56.0003 26.1673 55.9608 24.768C55.8563 21.6671 55.5288 18.1082 54.2848 14.3531C53.4073 11.697 51.7573 8.83159 50.1068 7.02599C49.9282 6.82964 49.7438 6.63634 49.5538 6.44629Z" fill="#004898"/>
<path fill-rule="evenodd" clip-rule="evenodd" d="M55.732 34.7512L38.0681 17.9258L10.8633 45.1987L20.7891 55.1244L38.0681 38.1033L49.5667 49.5394C49.7515 49.3539 49.9312 49.1652 50.1055 48.9737C51.7555 47.155 53.406 44.3027 54.2835 41.6466C55.078 39.2472 55.5045 36.9225 55.732 34.7512Z" fill="white"/>
</g>
<defs>
<clipPath id="clip0_9412_77428">
<rect width="56" height="56" fill="white"/>
</clipPath>
</defs>
</svg>
