<svg width="56" height="56" viewBox="0 0 56 56" fill="none" xmlns="http://www.w3.org/2000/svg">
<g clip-path="url(#clip0_9412_77415)">
<path d="M0 28C0 29.6486 0 29.8318 0.0523732 31.2318C0.144026 34.3327 0.484451 37.8916 1.72831 41.6467C2.60556 44.3028 4.25531 47.1682 5.90507 48.9739C8.00001 51.2764 10.8936 53.1608 14.0098 54.2336C17.2045 55.3328 20.6612 55.869 27.378 56H28.6219C35.3518 55.856 38.7954 55.3328 41.9901 54.2336C45.1194 53.1608 47.9999 51.2764 50.1081 48.9739C51.7575 47.1551 53.4074 44.3028 54.2846 41.6467C55.5284 37.8916 55.869 34.3196 55.9605 31.2318C56 29.8449 56 29.6486 56 28C56 26.3514 56 26.1682 55.9605 24.7682C55.856 21.6673 55.5284 18.1084 54.2846 14.3533C53.4074 11.6972 51.7575 8.83177 50.1081 7.02615C48.013 4.72337 45.1194 2.83925 41.9901 1.76636C38.7954 0.667289 35.3388 0.143925 28.6219 0H27.378C20.6481 0.143925 17.2045 0.667289 14.0098 1.76636C10.8805 2.83925 8.00001 4.72337 5.90507 7.02615C4.25531 8.84488 2.60556 11.6972 1.72831 14.3533C0.484451 18.1084 0.144026 21.6673 0.0523732 24.7682C0 26.1551 0 26.3514 0 28Z" fill="#0473EA"/>
<path d="M23.8114 43.257C22.9475 43.7671 22.1752 44.068 21.3505 44.068C19.2299 44.068 17.4627 42.3413 17.3711 40.2483L21.4945 37.7891L27.9087 40.6538L23.8245 43.2439L23.8114 43.257Z" fill="white"/>
<path d="M26.2595 32.7131L23.1964 31.3658C21.835 30.751 20.5391 30.2408 20.5391 28.7365C20.5391 27.9516 20.7747 27.5461 21.1543 27.1406L27.634 29.9923L26.037 30.921C25.5919 31.1957 25.2778 31.4312 25.2778 31.7713C25.2778 32.1376 25.6967 32.4515 26.2726 32.7131" fill="white"/>
<path d="M29.2693 18.5865L26.1276 20.4832C25.8396 20.6533 25.4731 20.928 25.4731 21.3335C25.4731 21.8175 26.2061 22.1707 26.8476 22.4846L22.9205 20.7579C21.7686 20.2478 20.6035 19.6722 20.6035 18.2725C20.6035 17.6839 20.7737 17.213 21.0486 16.8075L29.5442 11.6143C30.5652 12.1899 31.547 13.3541 31.547 14.9238C31.547 16.5982 30.6961 17.7231 29.2693 18.5865Z" fill="white"/>
<path d="M35.9461 24.7209L35.1607 25.1656L28.668 22.3009L36.2079 17.7617C37.229 18.3504 38.2238 19.5015 38.2238 21.0713C38.2238 22.7456 37.3992 23.8968 35.9331 24.7209" fill="white"/>
<path d="M30.4616 30.2285L34.2971 31.916C35.737 32.557 36.1821 33.3157 36.1821 34.2706C36.1821 34.82 35.881 35.3563 35.4359 35.7357L28.9824 32.8709L30.0689 32.2561C30.9983 31.7459 31.2994 31.432 31.2994 31.105C31.2994 30.7779 31.09 30.5163 30.4616 30.2416" fill="white"/>
<path d="M37.3071 44.3814C35.6708 43.1257 33.9298 42.2754 31.8092 41.3074L22.0308 36.9776C19.5698 35.8788 17.9336 34.4268 17.9336 31.9675C17.9336 29.5083 19.0855 28.4226 20.5909 27.4807L21.1276 27.1406C20.748 27.5461 20.5123 27.9516 20.5123 28.7365C20.5123 30.2408 21.8083 30.751 23.1697 31.3658L34.5582 36.3889C36.5348 37.2392 38.3543 38.6912 38.3543 41.1897C38.3543 42.5632 37.8438 43.7797 37.294 44.3945" fill="white"/>
<path d="M36.1547 35.2775L35.4479 35.7222C35.8929 35.3429 36.194 34.8065 36.194 34.2571C36.194 33.3022 35.7489 32.5435 34.309 31.9025L22.1351 26.5393C19.6741 25.4536 18.1426 24.0539 18.1426 21.6078C18.1426 19.3578 19.2684 17.8797 21.0355 16.7939C20.7606 17.1994 20.5905 17.6704 20.5905 18.259C20.5905 19.6587 21.7555 20.2342 22.9074 20.7444L34.741 25.9637C36.8878 26.9187 38.6419 28.3576 38.6419 30.9738C38.6419 33.0275 37.6863 34.3225 36.1547 35.2644" fill="white"/>
</g>
<defs>
<clipPath id="clip0_9412_77415">
<rect width="56" height="56" fill="white"/>
</clipPath>
</defs>
</svg>
