<svg width="32" height="32" viewBox="0 0 32 32" fill="none" xmlns="http://www.w3.org/2000/svg">
<path d="M8.71459 23.7007V25.0003H19.0702C19.0472 25.0006 19.0241 25.0007 19.001 25.0007H7.00098C3.68727 25.0007 1.00098 22.3144 1.00098 19.0007V17.2863H2.30098V19.0007C2.30098 21.5965 4.40524 23.7007 7.00098 23.7007H8.71459Z" fill="#111111"/>
<path d="M23.701 8.71434H25.0006V19.0699C25.0008 19.0469 25.001 19.0238 25.001 19.0007V7.00073C25.001 3.68702 22.3147 1.00073 19.001 1.00073H17.2856V2.30073H19.001C21.5967 2.30073 23.701 4.40499 23.701 7.00073V8.71434Z" fill="#111111"/>
<path d="M8.71459 2.30073V1.00073H7.00098C3.68727 1.00073 1.00098 3.68702 1.00098 7.00073V8.71434H2.30098V7.00073C2.30098 4.40499 4.40524 2.30073 7.00098 2.30073H8.71459Z" fill="#111111"/>
<path d="M8.43506 9.65698V11.693" stroke="#111111" stroke-width="1.3" stroke-linecap="round"/>
<path d="M17.3931 9.65698V11.693" stroke="#111111" stroke-width="1.3" stroke-linecap="round"/>
<path d="M9.40303 16C9.54338 16.3396 9.83013 16.6765 10.2804 16.9716C10.9474 17.4085 11.9071 17.7 13.0001 17.7C14.0932 17.7 15.0529 17.4085 15.7198 16.9716C16.1702 16.6765 16.4569 16.3396 16.5973 16H17.9495C17.6029 17.6961 15.5191 19 13.0001 19C10.4812 19 8.39737 17.6961 8.05078 16H9.40303Z" fill="#111111"/>
<path d="M17.813 24.5769C17.8067 23.0216 18.3482 21.5138 19.3428 20.318M20.563 19.1959C21.6427 18.4352 22.9437 18.0534 24.2632 18.11C25.5828 18.1666 26.8465 18.6585 27.857 19.5089M29.4571 21.5089C29.9456 22.4584 30.1988 23.5113 30.1959 24.579C30.2076 25.7071 30.0707 26.8318 29.7881 27.924" stroke="#19973C" stroke-width="0.8" stroke-linecap="round"/>
<path d="M26.8159 29.4309C27.3569 28.7515 27.791 27.9935 28.103 27.183C28.3037 26.4045 28.4012 25.6029 28.3931 24.799C28.399 23.5682 27.9238 22.3838 27.0684 21.4989M25.519 20.47C25.0353 20.2825 24.5208 20.1865 24.002 20.1869C23.1922 20.1577 22.3947 20.389 21.7261 20.8467C21.0574 21.3044 20.5529 21.9645 20.2871 22.73M19.6182 24.404C19.562 25.1641 19.2412 25.8806 18.7119 26.429" stroke="#19973C" stroke-width="0.8" stroke-linecap="round"/>
<path d="M24.79 29.8939C25.6823 28.7627 26.2291 27.3982 26.3657 25.9639C26.3657 25.7989 26.3707 25.6249 26.3657 25.4459M26.2158 24.0369C26.1669 23.6032 25.9795 23.1969 25.6816 22.878C25.3838 22.559 24.9913 22.3443 24.562 22.2659C22.624 21.9659 22.0508 23.0939 21.8618 25.0399C21.8655 25.6084 21.7468 26.1711 21.5137 26.6896C21.2806 27.2081 20.9384 27.6704 20.5107 28.0449" stroke="#19973C" stroke-width="0.8" stroke-linecap="round"/>
<path d="M22.7661 29.8949C24.1571 28.0339 24.7854 26.8519 24.5664 24.5779" stroke="#19973C" stroke-width="0.8" stroke-linecap="round"/>
</svg>
