<svg width="24" height="24" viewBox="0 0 24 24" fill="none" xmlns="http://www.w3.org/2000/svg">
<path d="M17.6348 9.20001H19.0598C19.5902 9.20001 20.0989 9.41073 20.474 9.7858C20.8491 10.1609 21.0598 10.6696 21.0598 11.2V12.821C21.0598 13.0837 21.008 13.3437 20.9075 13.5864C20.807 13.829 20.6597 14.0495 20.474 14.2352C20.2883 14.4209 20.0678 14.5683 19.8251 14.6688C19.5825 14.7693 19.3224 14.821 19.0598 14.821H17.6348V9.20001Z" stroke="white" stroke-width="1.5" stroke-linecap="round" stroke-linejoin="round"/>
<path d="M17.6308 10.585V9.16699C17.6308 7.67241 17.0371 6.23906 15.9804 5.18213C14.9237 4.1252 13.4904 3.53127 11.9958 3.53101C10.5012 3.53127 9.06797 4.1252 8.01123 5.18213C6.95449 6.23906 6.36084 7.67241 6.36084 9.16699V10.585" stroke="white" stroke-width="1.5" stroke-linecap="round" stroke-linejoin="round"/>
<path d="M4.93994 9.20001H6.36494V14.821H4.93994C4.40951 14.821 3.9008 14.6103 3.52573 14.2352C3.15066 13.8602 2.93994 13.3514 2.93994 12.821V11.2C2.93994 10.6696 3.15066 10.1609 3.52573 9.7858C3.9008 9.41073 4.40951 9.20001 4.93994 9.20001Z" stroke="white" stroke-width="1.5" stroke-linecap="round" stroke-linejoin="round"/>
<path d="M17.6362 12.762V14.062C17.6362 15.7466 16.6822 17.2421 15.2075 18.1819" stroke="white" stroke-width="1.5" stroke-linecap="round" stroke-linejoin="round"/>
<path d="M13.7777 16.996H9.90771C9.21736 16.996 8.65771 17.5556 8.65771 18.246V18.743C8.65771 19.4333 9.21736 19.993 9.90771 19.993H13.7777C14.4681 19.993 15.0277 19.4333 15.0277 18.743V18.246C15.0277 17.5556 14.4681 16.996 13.7777 16.996Z" stroke="white" stroke-width="1.5"/>
</svg>
