<svg width="36" height="36" viewBox="0 0 36 36" fill="none" xmlns="http://www.w3.org/2000/svg">
<path d="M29.2684 30.2237C28.6684 26.8837 28.3894 25.8237 28.3894 25.8237C28.1939 24.8494 27.6692 23.972 26.9034 23.3387C26.4844 22.9731 25.9853 22.711 25.4464 22.5737L21.6904 21.4837C21.6091 21.4593 21.5319 21.4229 21.4614 21.3757C21.3635 21.3098 21.2811 21.2235 21.2198 21.1227C21.1585 21.0219 21.1198 20.909 21.1064 20.7917L20.9314 19.3067C21.4239 18.9113 21.8224 18.4114 22.0981 17.8431C22.3738 17.2748 22.5197 16.6523 22.5254 16.0207C22.4531 14.4975 22.1842 12.99 21.7254 11.5357C21.4992 10.8547 21.0878 10.2501 20.5374 9.78973C19.8201 9.23579 18.9434 8.92763 18.0373 8.91088C17.1311 8.89413 16.2437 9.16968 15.5064 9.69673C14.921 10.1729 14.4916 10.8134 14.2734 11.5357C13.8143 12.9899 13.5454 14.4975 13.4734 16.0207C13.4794 16.6526 13.6258 17.2752 13.902 17.8435C14.1782 18.4118 14.5773 18.9116 15.0704 19.3067L14.8974 20.7967C14.8837 20.9139 14.8449 21.0267 14.7836 21.1275C14.7224 21.2283 14.6401 21.3146 14.5424 21.3807C14.4718 21.4279 14.3947 21.4643 14.3134 21.4887L10.5554 22.5787C10.0167 22.7166 9.51771 22.9786 9.09838 23.3437C8.33281 23.9771 7.80846 24.8545 7.61338 25.8287C7.22383 27.2744 6.9302 28.7443 6.73438 30.2287" stroke="#6E6E6E" stroke-width="1.5" stroke-miterlimit="10" stroke-linecap="round"/>
<path d="M21.3146 21.2539C20.333 21.9091 19.1793 22.2588 17.9991 22.2588C16.8189 22.2588 15.6652 21.9091 14.6836 21.2539" stroke="#6E6E6E" stroke-width="1.5" stroke-linecap="round" stroke-linejoin="round"/>
<path d="M18.0039 5.38145C19.1217 5.36579 20.2214 5.66427 21.1778 6.24291C22.1342 6.82155 22.909 7.6571 23.4139 8.65445C23.7865 9.5732 24.0171 10.5433 24.0979 11.5314C24.141 12.8957 24.4465 14.2388 24.9979 15.4874C25.2184 15.9525 25.5551 16.3529 25.9755 16.6498C26.3959 16.9468 26.8859 17.1302 27.3979 17.1824C26.9159 17.921 26.2245 18.4988 25.4121 18.842C24.5997 19.1851 23.7034 19.2779 22.8379 19.1084" stroke="#6E6E6E" stroke-width="1.5" stroke-miterlimit="10" stroke-linecap="round"/>
<path d="M17.9995 5.38145C16.8817 5.36579 15.782 5.66427 14.8256 6.24291C13.8691 6.82155 13.0944 7.6571 12.5895 8.65445C12.2168 9.57352 11.9861 10.544 11.9055 11.5324C11.8624 12.8967 11.5568 14.2398 11.0055 15.4884C10.785 15.9535 10.4483 16.3539 10.0279 16.6508C9.60743 16.9478 9.11752 17.1312 8.60547 17.1834C9.08743 17.922 9.77889 18.4998 10.5913 18.843C11.4037 19.1861 12.3 19.2789 13.1655 19.1094" stroke="#6E6E6E" stroke-width="1.5" stroke-miterlimit="10" stroke-linecap="round"/>
</svg>
