<svg width="36" height="36" viewBox="0 0 36 36" fill="none" xmlns="http://www.w3.org/2000/svg">
<path d="M19.8976 15.1295L23.8896 15.1125C25.0594 15.1873 26.234 15.1259 27.3896 14.9295C28.206 14.7577 28.9386 14.3106 29.4645 13.663C29.9905 13.0155 30.2779 12.2068 30.2786 11.3725C30.3125 10.6078 30.0854 9.85436 29.6346 9.23579C29.1837 8.61723 28.536 8.17034 27.7976 7.96851C26.454 7.70279 25.0815 7.6127 23.7146 7.70051L15.1426 7.74551C11.2496 7.76651 11.2656 7.87751 11.2656 7.87751" stroke="#111111" stroke-width="1.5" stroke-miterlimit="10" stroke-linecap="round"/>
<path d="M21.209 26.0008C21.344 20.9178 21.85 17.7138 19.9 15.1278C19.6931 14.9072 19.4416 14.7331 19.1623 14.6171C18.883 14.501 18.5823 14.4457 18.28 14.4548C18.0073 14.461 17.7399 14.5309 17.4991 14.6589C17.2583 14.7868 17.0507 14.9693 16.893 15.1918C16.5062 15.8647 15.9703 16.44 15.3265 16.8734C14.6826 17.3068 13.948 17.5868 13.179 17.6918C12.2413 17.704 11.3315 17.3732 10.6207 16.7616C9.9098 16.15 9.44689 15.2998 9.31896 14.3708C8.67796 10.7478 10.061 10.3978 11.094 7.94181C12.127 5.48581 10.748 7.30781 9.79396 6.68081C8.86696 6.07881 9.32996 6.06281 8.23396 5.93281C7.13796 5.80281 5.05596 9.74181 5.85996 14.8818C6.09635 16.6832 7.0004 18.3303 8.39319 19.4969C9.78598 20.6636 11.566 21.2649 13.381 21.1818C14.9173 21.0807 16.3846 20.506 17.581 19.5368C17.6159 19.5101 17.6573 19.493 17.701 19.4874C17.7447 19.4818 17.7891 19.4878 17.8296 19.5049C17.8702 19.5219 17.9056 19.5494 17.9322 19.5845C17.9587 19.6196 17.9756 19.6611 17.981 19.7048C18.181 21.6548 17.232 27.2288 17.604 29.8308C17.976 32.4328 19.179 29.9038 19.97 29.9308C20.2359 29.9581 20.504 29.9581 20.77 29.9308C21.629 29.6648 21.208 28.0088 21.26 27.9308L21.213 25.5718" stroke="#111111" stroke-width="1.5" stroke-miterlimit="10" stroke-linecap="round"/>
</svg>
