<svg width="36" height="36" viewBox="0 0 36 36" fill="none" xmlns="http://www.w3.org/2000/svg">
<g clip-path="url(#clip0_11476_51421)">
<path d="M18.7265 22.9565C15.5298 25.0757 12.1496 26.9043 8.62653 28.4205C8.28827 28.5616 7.92032 28.6168 7.55553 28.5812C7.19073 28.5455 6.84044 28.4201 6.53592 28.2161C6.2314 28.0121 5.98213 27.7359 5.81036 27.4121C5.6386 27.0883 5.54967 26.727 5.55153 26.3605L5.33953 14.8735C5.31177 14.1361 5.44506 13.4016 5.73012 12.7211C6.01518 12.0405 6.44515 11.4302 6.99009 10.9328C7.53504 10.4353 8.18186 10.0627 8.88553 9.84068C9.58919 9.6187 10.3328 9.55276 11.0645 9.64746C16.3465 10.4195 23.4285 11.3235 28.3365 11.0205C28.7488 11.0084 29.1564 11.1093 29.5155 11.3122C29.8745 11.5152 30.1712 11.8124 30.3736 12.1717C30.5759 12.5311 30.6761 12.9389 30.6634 13.3511C30.6507 13.7633 30.5256 14.1642 30.3015 14.5105C27.6823 18.7183 23.5329 21.746 18.7265 22.9565Z" stroke="#111111" stroke-width="1.5" stroke-linejoin="round"/>
<path d="M18.7266 22.9568C18.7266 22.9568 20.7516 20.4778 19.2926 14.3008" stroke="#111111" stroke-width="1.5" stroke-linecap="round" stroke-linejoin="round"/>
</g>
<defs>
<clipPath id="clip0_11476_51421">
<rect width="36" height="36" fill="white"/>
</clipPath>
</defs>
</svg>
